<?xml version="1.0" encoding="utf-8"?>
<!-- Generator: Adobe Illustrator 26.4.1, SVG Export Plug-In . SVG Version: 6.00 Build 0)  -->
<svg version="1.1" xmlns="http://www.w3.org/2000/svg" xmlns:xlink="http://www.w3.org/1999/xlink" x="0px" y="0px"
	 viewBox="0 0 356.87 293.48" style="enable-background:new 0 0 356.87 293.48;" xml:space="preserve">
<style type="text/css">
	.st0{display:none;}
	.st1{display:inline;fill:#85D0CB;}
	.st2{display:inline;}
	.st3{fill:#FFFFFF;}
	.st4{fill:none;stroke:#000000;stroke-linecap:round;stroke-linejoin:round;stroke-miterlimit:10;}
</style>
<g id="Layer_2" class="st0">
</g>
<g id="Layer_2_copy" class="st0">
</g>
<g id="Layer_1" class="st0">
</g>
<g id="Layer_3">
	<g>
		<path d="M88.07,99.62c0.47-0.62,1.03-1.18,1.38-1.86c1.92-3.72,3.79-7.46,5.69-11.2c0.18-0.35,0.39-0.67,0.93-1.58
			c0.39,2.18-0.45,3.24-0.84,4.39c-0.38,1.12-0.88,2.19-1.34,3.28c-0.52,1.21-1.06,2.4-1.58,3.6c-0.52,1.2-1.08,2.39-1.52,3.63
			c-0.39,1.11-0.63,2.28-0.97,3.41c-0.38,1.25-0.81,2.49-1.22,3.74c-0.37,1.12-0.77,2.23-1.09,3.37c-0.35,1.23-0.63,2.48-0.46,3.93
			c0.29-0.46,0.67-0.9,0.86-1.4c1.79-4.79,3.45-9.62,5.33-14.37c1.91-4.82,5.17-8.68,9.47-12.81c-0.45,2.21-1.08,3.47-1.85,4.64
			c-3.43,5.22-5.37,11.07-7.22,16.95c-0.66,2.12-1.09,4.31-1.62,6.47c-0.06,0.09-0.13,0.18-0.17,0.28
			c-0.03,0.07-0.03,0.15-0.05,0.23c0.05-0.19,0.11-0.37,0.16-0.56c1.04-0.76,1.2-1.94,1.57-3.05c1.82-5.61,3.63-11.23,7.06-16.12
			c2.63-3.75,5.4-7.39,8.14-11.06c0.17-0.22,0.64-0.22,1.32-0.43c-0.78,2.98-2.94,4.89-3.86,7.43c-0.87,2.4-2.17,4.64-2.69,7.19
			c1.57-1.48,2.29-3.43,3.3-5.21c1.48-2.62,2.96-5.23,4.49-7.82c0.33-0.55,0.85-0.99,1.33-1.43c0.75-0.68,1.42-0.52,2.22,0.5
			c0.21,0.27,0.39,0.57,0.53,0.79c2.65-1.45,3.12-4.95,5.95-6.01c1.25,0.67,1.59,1.58,1.19,2.71c-0.26,0.73-0.72,1.39-1.03,2.11
			c-1.49,3.49-3.05,6.95-3.4,10.8c-0.29,0.38-0.68,0.71-0.83,1.14c-0.17,0.46-0.82,0.99-0.1,1.55c0.9-0.76,0.93-1.74,0.87-2.75
			c2.13-2.08,2.89-4.95,4.32-7.43c1.7-2.95,3.38-5.92,5.08-8.87c0.26-0.45,0.57-0.88,0.88-1.31c0.58-0.79,1.31-1.29,2.34-1.18
			c1.31,0.14,1.01,1.31,1.34,2.09c0.04,0.09,0.22,0.12,0.5,0.26c0.34-0.24,0.8-0.48,1.17-0.82c4.13-3.79,9.03-6.32,14.1-8.51
			c6.15-2.65,12.29-5.35,18.58-7.61c10.24-3.68,20.43-7.57,31.18-9.64c2.83-0.54,5.6-1.41,8.43-2c1.78-0.37,3.61-0.57,5.43-0.73
			c1.17-0.1,2.36-0.02,3.54,0.03c9.3,0.4,18.63,0.33,27.9,1.5c4.3,0.54,8.63,0.8,12.95,1.14c1.85,0.15,3.51,0.57,5.16,1.59
			c2.22,1.36,4.76,2.21,7.12,3.34c7.33,3.52,14.65,7.07,21.97,10.62c1.3,0.63,2.56,1.34,3.86,1.96c3.8,1.81,7.4,3.95,10.77,6.5
			c2.3,1.74,4.8,3.2,7.17,4.87c2.47,1.74,4.89,3.55,7.3,5.36c0.51,0.39,0.98,0.87,1.35,1.4c0.72,1.02,0.01,2.57-1.24,2.71
			c-0.64,0.07-1.33,0.05-1.94-0.14c-7.52-2.33-15.18-4.29-22.49-7.14c-10.95-4.27-22.29-6.97-33.69-9.46
			c-6.94-1.52-14.04-2.05-21.14-2.04c-2.99,0-6.05,0.36-8.97,1.04c-9.07,2.12-18.12,4.32-26.54,8.53c-2.33,1.16-4.94,1.76-7.35,2.77
			c-3.38,1.42-6.71,2.98-10.05,4.51c-4.41,2.03-8.8,4.09-13.19,6.16c-1.3,0.62-2.55,1.35-3.85,1.98c-1.53,0.74-3.08,1.46-4.64,2.14
			c-3.61,1.57-7.28,3-10.84,4.68c-10.44,4.93-20.83,9.97-31.26,14.93c-2.84,1.35-5.69,2.67-8.6,3.85c-1.32,0.53-2.78,0.81-4.2,0.95
			c-0.7,0.07-1.45-0.44-2.48-0.78c-0.64,0.71-1.4,1.56-2.19,2.4c-0.98,1.05-1.9,2.18-2.98,3.12c-2.07,1.8-2.7,1.92-5.92,1.54
			c-1.48,1.65-2.98,3.48-5.27,4.33c-1.35,0.5-1.96,0.26-3.18-1.45c-0.29,1.01-0.51,1.97-0.84,2.89c-0.37,1.02-1.13,1.41-2.16,1.25
			c-1.01-0.16-1.7-0.76-1.81-1.78c-0.08-0.77-0.03-1.56,0.02-2.34c0.15-2.1,0.33-4.19,0.49-6.28c0.19-0.55,0.38-1.09,0.57-1.63
			c-0.14-0.03-0.29-0.06-0.43-0.1c-0.03,0.59-0.06,1.19-0.09,1.78c-1.3,1.8-0.82,4.03-1.42,6.01c-0.49,1.62-0.58,3.35-0.92,5.02
			c-0.13,0.62-0.45,1.21-0.76,1.77c-0.1,0.18-0.48,0.35-0.67,0.3c-0.35-0.1-0.88-0.32-0.92-0.56c-0.22-1.28-0.3-2.58-0.51-4.64
			c-0.32,2.26-0.51,3.77-0.77,5.27c-0.09,0.51-0.26,1.03-0.55,1.45c-0.19,0.27-0.65,0.53-0.96,0.5c-0.31-0.03-0.76-0.38-0.85-0.68
			c-0.23-0.74-0.32-1.53-0.4-2.3c-0.1-0.99-0.12-1.98-0.64-3.02c-0.19,0.59-0.48,1.17-0.56,1.77c-0.18,1.43-0.27,2.86-0.36,4.3
			c-0.18,2.97-1.14,3.42-4.27,1.73c-0.34,0.93-0.58,1.88-1.05,2.72c-0.19,0.35-0.88,0.61-1.31,0.57c-0.43-0.04-0.95-0.42-1.2-0.81
			c-0.26-0.41-0.37-1-0.34-1.5c0.18-2.87,0.19-5.78,0.71-8.59c1.02-5.53,2.3-11.02,3.57-16.5c0.89-3.85,2.47-7.46,4.3-10.94
			c1.15-2.2,2.46-4.33,3.73-6.47c0.32-0.54,0.78-0.99,1.13-1.43c0.97,0.33,0.57,0.86,0.45,1.28c-0.18,0.63-0.35,1.27-0.65,1.85
			c-2.3,4.46-3.74,9.24-5.08,14.02c-1.09,3.89-1.66,7.94-2.36,11.93c-0.4,2.31-0.6,4.66-0.89,7c-0.32,0.58-0.79,1.14-0.06,2.28
			c0-1.1,0-1.72,0-2.33c0.38-0.96,0.94-1.88,1.1-2.87c0.79-4.84,2.64-9.32,4.47-13.81c1.48-3.64,2.87-7.35,4.6-10.87
			c2.26-4.58,4.82-9.02,7.27-13.51c0.16-0.3,0.54-0.49,0.98-0.87c0.5,1.44-0.43,2.38-0.64,3.46c-0.2,1.01-0.22,2.06-0.32,3.1
			c-0.08,0.21-0.16,0.42-0.24,0.63C87.95,100.07,88.01,99.84,88.07,99.62z M81.7,119.54c-0.15-0.25-0.22-0.36-0.28-0.46
			c-0.09,0.09-0.23,0.16-0.28,0.26c-0.45,1.07-0.92,2.15-0.47,3.52C81.05,121.63,81.39,120.53,81.7,119.54z M82.25,115.7L82.09,116
			l0.23,0.05L82.25,115.7z"/>
		<path d="M247.35,199.86c-0.26,0-0.53,0.06-0.78,0c-4.78-1.15-8.12,1.37-11.61,4.53c0.94,0.42,1.58,0.79,2.28,1
			c1.11,0.34,2.29,0.48,2.91,1.65c0,0,0.05-0.05,0.05-0.05c-1.42-0.27-2.83-0.65-4.26-0.78c-3.86-0.35-5.6,0.38-8.89,3.62
			c1.5,1.04,2.97,2.05,4.41,3.04c-0.42,0.95-0.92,0.42-1.29,0.26c-1.33-0.55-2.62-1.2-3.96-1.72c-1.46-0.56-2.9-0.22-4.13,0.62
			c-0.58,0.39-0.89,1.17-1.41,1.89c-0.92,0-2.09-0.16-3.21,0.04c-1.13,0.21-2.28,0.65-3.18,1.93c0.29,1.18,0.62,2.53,0.96,3.88
			c-0.12,0.06-0.24,0.12-0.36,0.17c-0.83-1.1-1.65-2.19-2.47-3.29c-1.66-0.25-2.92,0.49-4.15,1.21c-0.93,0.55-1.82,0.86-2.93,0.88
			c-2.15,0.04-4.15,0.68-5.55,2.34c-3.39-0.79-1.69-0.78-8.66,1.06c-0.97,1.37-2.01,2.83-3.57,5.02c0.19-2.02,0.3-3.12,0.4-4.22
			c-3.78-0.27-5.92,0.35-9.21,2.55c-0.02-0.5-0.04-1-0.07-1.49c-3.06-0.57-4.94-0.37-9.2,0.93c-3.08-1.17-6.16-2.66-9.01,0.31
			c-0.91-0.28-0.29-0.92-0.49-1.35c-3.65-1.29-5.26-1.34-9.07-0.25c-2.33-2.07-4.82-3.15-7.67-1.1c-0.57-0.71-0.93-1.62-1.5-1.78
			c-2.24-0.65-4.5-1.51-6.93-0.76c-0.46,0.14-1.13,0.17-1.51-0.06c-2.51-1.52-5.12-0.7-7.69-0.38c-1.89,0.23-3.63,1.18-5.71,0.46
			c-0.97-0.34-2.38,0.13-3.43,0.6c-3.12,1.39-6.38,2.22-9.66,3.1c-2.91,0.78-5.73,1.91-8.6,2.85c-2.85,0.94-5.7,0.77-8.53-0.1
			c-0.46-0.14-0.87-0.54-1.23-0.9c-0.14-0.13-0.15-0.51-0.07-0.72c0.08-0.2,0.37-0.46,0.55-0.45c0.64,0.03,1.28,0.15,1.92,0.27
			c2.63,0.49,5.15,0.4,7.74-0.52c5.56-1.98,11.14-3.95,16.82-5.55c7.44-2.1,15.03-2.13,22.64-0.83c5.94,1.01,11.86,2.39,17.85,2.88
			c5.85,0.48,11.72,1.8,17.65,0.71c0.38-0.07,0.79-0.07,1.18-0.06c10.1,0.14,19.86-2.01,29.4-4.94
			c10.57-3.25,20.68-7.69,29.61-14.41c3.77-2.84,7.71-5.48,11.24-8.6c6.31-5.57,12.14-11.62,16.2-19.14
			c1.06-1.96,2.28-3.83,3.42-5.74c2.66-4.45,3.51-9.28,2.96-14.83c-0.74,1.15-0.81,2.18-1.2,3.07c-0.36,0.84-0.77,1.67-1.08,2.54
			c-1.68,4.73-4.13,9.08-6.88,13.24c-1.44,2.18-3.05,4.28-4.77,6.25c-3.02,3.46-5.82,7.14-9.36,10.11
			c-2.01,1.68-4.05,3.32-6.12,4.94c-1.24,0.97-2.61,1.78-3.81,2.8c-2.83,2.39-5.99,4.3-9.26,5.94c-6.57,3.3-13.21,6.46-20.36,8.4
			c-5.95,1.61-11.86,3.41-17.78,5.13c-2.54,0.74-5.12,1.06-7.78,1.07c-5.51,0.02-11.02,0.21-16.53,0.21c-1.96,0-3.93-0.21-5.87-0.54
			c-4.14-0.71-8.26-1.52-12.38-2.35c-9.65-1.94-19.26-1.89-28.95-0.03c-4.53,0.87-8.89,2.32-13.38,3.28
			c-1.66,0.36-3.36,0.63-5.05,0.73c-1.39,0.08-2.25-0.94-1.97-2.3c0.24-1.13,0.59-2.34,1.24-3.25c1.98-2.77,4.11-5.44,6.22-8.11
			c1.14-1.43,2.58-2.65,3.05-4.53c0.12-0.47,0.15-0.95,0.29-1.88c-2.02,0.86-3.62,1.65-5.29,2.24c-1.53,0.54-2.97,1.56-5.42,1.3
			c2.27-1.04,3.98-1.72,5.57-2.59c1.83-1.01,3.6-2.15,5.33-3.33c1.36-0.92,2.01-2.31,2.32-3.81c-1.01-0.76-1.67-0.15-2.31,0.21
			c-2.8,1.54-5.78,2.51-8.92,3.01c-1.37,0.22-2.78,0.25-4.19,0.19c5.66-1,10.88-3.03,15.62-6.26c0.75-0.51,1.49-1.1,2.06-1.79
			c0.37-0.45,0.45-1.14,0.81-2.12c-2.33,0.22-3.95,1.54-5.85,1.8c-1.95,0.27-3.88,0.7-5.84,0.82c-1.95,0.12-3.91-0.06-5.87-0.31
			c1.44-0.57,2.96-0.46,4.44-0.54c4.81-0.27,9.29-1.6,13.47-3.99c1.16-0.66,2.25-1.39,2.83-2.64c0.2-0.43,0.2-0.96,0.29-1.42
			c-0.41-0.12-0.66-0.29-0.88-0.25c-2.33,0.36-4.66,0.75-6.99,1.15c-1.39,0.24-2.28,1.23-3.16,2.21c-0.7,0.78-1.39,1.69-2.65,1.19
			c-1.19-0.47-1.99-1.25-1.88-2.67c0.02-0.23-0.15-0.48-0.3-0.91c-0.51-0.12-1.13-0.38-1.75-0.39c-2.52-0.05-4.98-0.51-7.33-1.37
			c-2.6-0.94-4.63-0.13-6.4,1.71c-1.09,1.13-2.07,2.38-3.16,3.52c-1.26,1.32-2.57,2.58-3.85,3.85c-0.87-0.5-0.29-0.95-0.06-1.27
			c1.76-2.45,3.78-4.75,5.3-7.34c1.81-3.09,4.03-5.77,6.63-8.17c1.11-1.02,1.15-2.77,2.89-3.48c1.24-0.5,2.08-1.95,3.14-2.93
			c1.9-1.76,3.61-3.68,5.96-4.99c2.16-1.2,3.92-3.08,6-4.44c5.15-3.39,10.36-6.68,15.85-9.5c2.57-1.32,5.18-2.5,7.87-3.57
			c3.88-1.55,7.75-3.12,11.53-4.97c5.41-2.64,11.14-4.67,17.04-6.05c5.23-1.23,10.48-2.38,15.72-3.56c0.64-0.14,1.28-0.37,1.92-0.37
			c5.15-0.04,10.13-1.34,15.19-2.05c5.18-0.73,10.39-1.37,15.63-1.37c3.41,0,6.82,0.13,10.22,0.22c0.92,0.02,1.86-0.03,2.75,0.15
			c2.12,0.44,4.16-0.78,6.44,0.22c1.81,0.8,4.14,0.39,6.22,0.64c1.4,0.16,2.57-0.12,3.67-1c0.7-0.56,1.52-0.97,2.29-1.45l-0.05-0.05
			c-0.23,0.73-0.46,1.46-0.74,2.38c2.23,1.07,4.43,0.97,6.61,0.7c0.93-0.11,1.74-0.26,2.63,0.26c0.52,0.31,1.26,0.29,1.91,0.32
			c3.27,0.15,6.54,0.25,9.82,0.39c0.5,0.02,1.09,0.01,1.48,0.26c2.18,1.42,4.61,1.76,7.11,1.66c0.85-0.04,1.47,0.13,2.16,0.6
			c0.63,0.43,1.43,0.66,2.18,0.87c1.85,0.52,3.62,0.51,5.16-0.91c0.47-0.43,1.05-0.74,1.53-1.08c0.97,0.67-0.09,1.25,0.3,2.13
			c0.49,0.11,1.19,0.42,1.88,0.41c4.9-0.08,9.61-1.2,14.14-2.99c2.07-0.82,4.07-1.82,6.11-2.7c0.43-0.19,0.92-0.25,1.62-0.43
			c-0.12,0.64-0.07,1.08-0.27,1.31c-0.51,0.6-1.05,1.21-1.7,1.62c-3.11,1.99-5.71,4.59-8.53,6.93c-5.76,4.81-12.24,8.56-18.66,12.38
			c-0.78,0.47-1.61,0.9-2.29,1.5c-0.73,0.65-0.59,1.38,0.25,1.98c2.25-0.54,4.51-1.11,6.79-1.6c0.44-0.1,0.95,0.12,1.47,0.19
			c-2.07,0.71-4.09,1.24-5.96,2.09c-2.61,1.18-2.64,1.5-2.01,5.24c1.24-0.14,2.49-0.33,3.75-0.4c1.3-0.07,2.6-0.02,3.94,0.3
			c-2.05,0.49-4.1,0.93-6.13,1.49c-0.6,0.17-1.16,0.6-1.66,1.01c-0.28,0.23-0.47,0.64-0.54,1.01c-0.12,0.62-0.11,1.26-0.18,2.1
			c1.54,0,2.88,0,4.64,0c-7.14,2.74-5.88,3.08-6.5,6.3c1.28,0.09,2.54,0.18,3.89,0.27c-0.32,1.12-1.26,0.73-1.88,0.88
			c-3.48,0.86-3.84,1.14-5.65,4.98c1.57,0.48,3.13,0.95,4.68,1.43c0,0,0.06-0.04,0.06-0.04c-2.19,0.29-4.39,0.58-6.55,0.87
			c-0.76,1.16-1.43,2.12-2.03,3.13c-0.18,0.3-0.14,0.73-0.22,1.25c1.67,0.4,3.29,0.79,4.91,1.19c-0.02,0.14-0.04,0.28-0.06,0.41
			c-1.11,0-2.23,0.04-3.34-0.01c-2.25-0.09-4.14,0.45-5.31,2.6c-0.42,0.77-1.03,1.44-1.72,2.41c1.93,0.69,3.61,1.28,5.35,1.9
			c-0.85,0.97-1.65,0.26-2.35,0.11c-3.62-0.75-6.43,0.26-8.34,3.54c0.33,1.04,1.28,0.62,1.95,0.82c0.88,0.26,1.79,0.42,2.67,0.68
			c0.72,0.21,1.41,0.52,2.02,1.09c-1.9-0.17-3.82-0.59-5.7-0.47c-4.04,0.25-3.79-0.26-6.79,3.63c0.89,0.71,1.78,1.41,2.67,2.12
			L247.35,199.86z M216.67,133.59c-0.47,1.72-1.52,3.01-2.92,4.08c-0.7,0.53-1.56,1.05-1.24,2.25c1.94,0,3.88-0.01,5.82,0
			c1.4,0.01,2.52-0.57,3.53-1.49c2.23-2.03,4.5-4.01,6.7-6.07c0.4-0.37,0.56-1,0.89-1.62c-2.79-1.16-5.46-0.67-8.04-0.84
			c-0.61-0.04-1.33,0.7-1.92,1.18c-1,0.82-1.94,1.72-2.9,2.58c0.54-1.25,1.08-2.5,1.7-3.94c-3.29-0.52-6.24-0.34-8.88,0.13
			c-1.39,1.24-2.54,2.27-3.69,3.29c0.46-1.03,1.3-1.95,0.84-3.4c-2.68-0.49-5.39-0.07-8.09,0.11c-1.02,0.07-1.68,0.83-2,1.68
			c-1.08,2.85-3.13,5.09-4.59,7.69c-0.3,0.54-0.53,1.11-0.77,1.61c0.38,0.32,0.55,0.58,0.76,0.62c3.01,0.52,5.69-0.13,7.89-2.35
			c2.02-2.03,4.05-4.06,6.07-6.09c-0.26,1.76-1.21,3.12-2.47,4.31c-0.66,0.63-1.37,1.2-2.01,1.84c-0.43,0.43-1.05,0.83-0.54,1.8
			c2.62,0.51,5.26-0.44,7.94-0.61c0.46-0.03,0.94-0.44,1.33-0.77c1.28-1.09,2.53-2.22,3.78-3.35
			C214.82,135.37,215.74,134.47,216.67,133.59z M134.66,150.96c0.61,0.21,1.27,0.33,1.83,0.63c1.62,0.86,3.2,1.8,4.79,2.71
			c1.2,0.68,2.48,0.8,3.81,0.49c0.77-0.18,1.5-0.45,1.73-1.69c-2.02-2.18-5.11-3.58-7.21-7.09c2.8,2.01,4.91,3.52,7.02,5.04
			c2.5,1.8,4.82,1.34,7.14-0.45c-0.64-1.28-1.21-2.43-1.78-3.58l-0.05,0.05c1.33,0.95,2.66,1.89,4.08,2.91
			c1.51-0.75,3.16-1.07,4.55-2.34c-0.25-1-0.49-1.98-0.72-2.95l-0.05,0.05c0.49,0.41,1.09,0.74,1.46,1.25
			c0.86,1.18,1.94,1.24,3.14,0.76c0.58-0.23,1.1-0.61,1.44-0.81c0.79-2.07-0.17-4.04,0.71-6.3c0.73,2.15-0.02,4.22,1.69,5.74
			c0.96-0.09,2-0.12,3.01-0.3c1.14-0.2,1.82-0.95,2.09-2.09c0.26-1.12,0.57-2.24,0.86-3.36c0.14,0.02,0.27,0.03,0.41,0.05
			c0.08,1.5,0.16,3,0.25,4.52c6.13-0.85,6.7-1.27,9.18-6.34c0.57-1.16,1.28-2.24,1.93-3.36l-0.06-0.05
			c-0.68,2.47-1.35,4.94-2.05,7.49c3.03,0.76,5.07-0.07,6.53-2.59c1.39-2.38,2.99-4.63,4.43-6.98c0.31-0.51,0.35-1.18,0.59-2.05
			c-1.04-0.09-1.78-0.28-2.5-0.2c-2.06,0.23-4.14,0.9-6.17,0.78c-2.68-0.16-5.18,0.5-7.76,0.83c-1.46,0.19-2.8,0.67-3.52,2.01
			c-1.91-0.94-1.91-0.94-6.18-0.08c-1.46,0.29-2.96,0.5-3.47,1.99c-0.61-0.35-1.12-0.86-1.68-0.91c-0.76-0.07-1.56,0.16-2.32,0.35
			c-3.04,0.79-6.06,1.67-9.12,2.41c-3.16,0.77-6.07,2.24-9.26,2.97c-2.53,0.58-4.9,1.83-7.33,2.83c-2.42,0.99-4.85,1.99-7.24,3.05
			c-2.39,1.06-5,1.87-7.06,3.4c-2.15,1.59-4.7,2.24-6.83,3.71c-1.29,0.89-2.64,1.75-3.74,2.85c-0.67,0.67-1.32,1.13-2.17,1.53
			c-1.98,0.93-4,1.9-5.47,4.02c0.68,0.41,1.17,0.87,1.75,1.02c2.91,0.79,5.8,1.71,8.77,2.19c2.84,0.46,5.75,0.45,8.63,0.61
			c1.11,0.06,1.99-0.36,2.7-1.75c-1.52-0.59-2.93-0.78-4.27-1.16c-2.26-0.65-4.59-1.2-6.15-3.2l-0.05,0.05
			c1.62,0.47,3.25,0.95,4.88,1.41c1.76,0.5,3.49,1.11,5.28,1.44c3.34,0.61,6.32-0.19,9.16-2.77c-1.45-0.7-2.6-1.22-3.72-1.81
			c-1.15-0.61-2.28-1.28-3.4-1.94c-1.06-0.62-2.11-1.27-3.16-1.9c1.17-0.09,2.09,0.27,2.97,0.71c1.98,0.99,3.89,2.15,5.92,3.02
			c3.06,1.31,5.83,0.83,8.09-1.74c-0.14-0.32-0.18-0.63-0.36-0.77c-0.5-0.41-1.05-0.76-1.59-1.11c-1.51-0.99-3.3-1.6-4.31-3.25
			L134.66,150.96z M166.93,187.98l0.07,0.06c0.48-2.46,2.63-3.83,3.81-5.84c0.44-0.75,0.88-1.5,1.29-2.2
			c-1.22-1.37-2.39-2.45-3.28-3.73c-1.03-1.5-2.08-3.08-2.65-4.78c-1.3-3.87-2.11-7.86-1.69-12.01c0.09-0.87-0.13-1.76-0.21-2.78
			c-0.98,0-1.76-0.11-2.51,0.02c-5.05,0.88-9.96,2.25-14.85,3.82c-8.82,2.85-16.21,8.05-23.17,13.86
			c-5.86,4.9-9.39,11.57-12.33,18.53c-0.63,1.49-0.5,2.88,0.53,4.06c1.97,2.26,3.78,4.69,6.65,6c2.62,1.19,5.21,2.46,7.75,3.83
			c4.54,2.45,9.29,4.33,14.29,5.5c3.96,0.93,7.97,1.64,11.98,2.3c2.33,0.39,4.69,0.65,7.05,0.69c7.88,0.15,15.76,0.46,23.61-0.44
			c2.2-0.25,4.4-0.74,6.54-1.34c4.55-1.28,9.02-2.86,13.59-4.04c13.32-3.44,25.06-10,36.05-18.05c1.79-1.31,3.5-2.79,5.07-4.36
			c2.22-2.23,4.27-4.63,6.42-6.93c5.44-5.84,9.67-12.44,12.4-19.94c0.94-2.58,1.53-5.29,2.11-7.98c0.24-1.09,0.44-2.34-0.74-3.6
			c-9.6,0.47-19.39,1.39-29.21,1.18c-0.24-0.01-0.48,0.17-0.72,0.29c-0.11,0.06-0.2,0.16-0.47,0.39c0.08,0.51,0.09,1.17,0.29,1.76
			c1.2,3.57,1.03,7.14,0.68,10.88c-0.67,7.14-3.94,13-8.09,18.5c-3.49,4.62-8.3,7.55-13.48,9.97c-4.9,2.29-10.06,2.87-15.35,2.47
			c-3.53-0.27-7.02-0.93-10.4-2.08c-0.46-0.16-0.99-0.09-1.54-0.13c-2.13,3.15-2.91,6.79-4.61,10.02c-0.16-0.43-0.19-0.8-0.11-1.14
			c1.12-4.89,3.11-9.47,5.17-14.02c3.52-7.77,7.16-15.49,10.71-23.25c0.29-0.63,0.98-1.32,0.28-2.2c-0.35,0.05-0.8-0.02-1.08,0.18
			c-4.27,3.04-8.65,5.96-12.74,9.23c-5.03,4.03-9.39,8.79-13.52,13.74C169.43,185.68,168.12,186.78,166.93,187.98z M97.65,215.26
			c1.23-0.18,1.98-0.2,2.66-0.41c4.98-1.57,9.96-3.16,14.93-4.78c1.74-0.57,3.45-1.21,5.13-1.93c0.52-0.22,0.91-0.77,1.41-1.21
			c-0.46-0.49-0.66-0.9-0.98-1.02c-2.44-0.92-4.78-2.01-7.1-3.25c-2.69-1.44-6.44-0.34-8.42,2.12c-2.14,2.64-4.2,5.34-6.26,8.05
			C98.58,213.42,98.28,214.13,97.65,215.26z M88.48,176.34c4.12,1.86,7.98,2.31,11.95,2.24c1.24-0.02,2.25-0.53,3.25-1.22
			c2.16-1.48,4.38-2.87,6.56-4.31c0.51-0.34,1.24-0.54,1.07-1.55c-0.75-0.04-1.53-0.15-2.29-0.11c-3.82,0.2-7.59-0.27-11.36-0.86
			c-0.65-0.1-1.3-0.17-1.94-0.34c-1.43-0.37-2.6,0.1-3.55,1.13C90.87,172.76,89.65,174.26,88.48,176.34z M119.97,166.94
			c-3.07-0.48-6.16-0.83-9.19-1.46c-3.17-0.66-6.28-1.6-9.48-2.43c-1.79,1.91-4.59,2.63-5.57,5.58c0.97,0.4,1.76,0.94,2.59,1.04
			c3.36,0.38,6.74,0.85,10.12,0.86c3.25,0.01,6.48-0.71,9.54-1.89C118.77,168.33,119.82,168.16,119.97,166.94z M201.55,152.03
			c-0.96,1.13-1.36,2.08-1.06,3.19c0.41,1.52,0.87,3.05,2.14,4.12c2.18,1.84,5.54,2.18,7.74,0.71c2.05-1.37,3.36-3.29,3.7-5.79
			c0.27-1.95-0.59-3.08-2.61-2.99C208.07,151.41,204.69,151.78,201.55,152.03z M230.93,139.06c0.1,0.27,0.2,0.54,0.3,0.81
			c2.7,0.17,5.46,0.46,8.1-0.19c2.93-0.72,5.49-2.38,7.89-4.2c1.08-0.82,2.46-1.4,3.12-2.99c-2.88-1.32-5.72-1.42-8.55-1.36
			c-0.71,0.02-1.47,0.46-2.09,0.89c-1.71,1.19-3.38,2.44-5,3.74C233.4,136.8,232.18,137.95,230.93,139.06z M243.09,139.64
			c3.83,1.14,8.09,0.49,11.49-1.44c3.88-2.21,4.12-2.44,4.78-5c-3.09-0.37-6.07-1.51-8.75,1.3c-0.88,0.92-2.17,1.44-3.26,2.17
			C246.07,137.54,244.81,138.44,243.09,139.64z M222.76,139.61c3.06,1.17,5.41-0.04,7.56-1.58c2.34-1.68,4.52-3.58,6.73-5.44
			c0.47-0.39,1.02-0.89,0.59-1.87c-0.8-0.06-1.68-0.12-2.57-0.19c-2.24-0.19-4.04,0.55-5.6,2.24c-1.23,1.33-2.76,2.39-4.18,3.55
			C224.28,137.14,223.25,137.93,222.76,139.61z M268.28,134.89c-1.75-0.41-2.99-0.77-4.24-0.96c-0.61-0.09-1.31,0.01-1.89,0.23
			c-1.37,0.52-4.53,3.4-5.98,5.28C260.28,140.54,263.89,139.27,268.28,134.89z M210.68,186.22c0.55-2.11,0.01-4-0.54-5.85
			c-0.56-1.88-1.63-1.93-3.4-0.19c0.65,2.16,0.46,4.58,1.86,6.78C209.32,186.7,210.02,186.45,210.68,186.22z M205.65,184.18
			c-0.06-0.96-0.03-2.02-0.25-3.04c-0.12-0.56-0.57-1.33-1.03-1.47c-0.77-0.23-1.07,0.58-1.15,1.23c-0.18,1.55-0.31,3.11-0.41,4.67
			c-0.02,0.37,0.05,0.86,0.28,1.12c0.31,0.35,0.82,0.75,1.23,0.74c0.39-0.01,0.98-0.46,1.09-0.83
			C205.64,185.87,205.59,185.06,205.65,184.18z M110.24,177.59c6.21-0.24,8.18-1.45,10.25-5.98
			C117.13,173.59,113.77,174.88,110.24,177.59z M197.85,185.04c0.04,0.17,0.1,0.83,0.34,1.4c0.12,0.27,0.59,0.56,0.89,0.55
			c0.29-0.01,0.79-0.35,0.83-0.6c0.31-2.04,0.55-4.09,0.74-6.14c0.03-0.27-0.32-0.75-0.59-0.82c-0.27-0.08-0.8,0.12-0.95,0.37
			C198.22,181.25,197.74,182.84,197.85,185.04z M193.98,187.02c1.68-2.78,2.25-5.45,2.41-8.26c-1.77,1.98-2.81,4.29-3.23,6.87
			C193.11,185.96,193.58,186.37,193.98,187.02z M213.83,184.44c0.96-0.04,1.88-0.4,1.69-1.28c-0.43-1.97-1.32-3.76-3.42-5.43
			C212.36,180.46,212.75,182.55,213.83,184.44z M273.6,136.28c-3.13-0.78-5.05,0.23-6.32,2.78
			C269.27,138.19,271.04,137.41,273.6,136.28z M223.42,172.7c0.06-0.89,0.3-1.56,0.08-1.79c-0.59-0.63-1.35-1.11-2.1-1.54
			c-0.16-0.09-0.8,0.23-0.87,0.46c-0.33,1.12,0.65,1.54,1.31,2.09C222.11,172.15,222.5,172.25,223.42,172.7z M219.11,181.58
			c0.21-0.39,0.47-0.68,0.41-0.81c-0.71-1.5-2.37-3.15-4.22-4.14C216.6,178.42,217.19,180.47,219.11,181.58z M181.15,164.47
			c-1.38-0.11-2.38,0.2-3.11,1.2c-0.11,0.15-0.1,0.51,0.01,0.68c0.11,0.17,0.44,0.35,0.62,0.31
			C179.78,166.42,180.83,166.07,181.15,164.47z M178.14,170.21c0.2,0.21,0.41,0.42,0.61,0.63c0.61-0.66,1.22-1.33,1.84-1.99
			c-0.12-0.13-0.25-0.26-0.37-0.39C179.53,169.04,178.84,169.62,178.14,170.21z M179.58,158.46c-0.22,0.64-0.39,1.05-0.48,1.49
			c-0.01,0.05,0.42,0.29,0.65,0.28c0.58-0.01,1.01-0.34,0.85-0.95C180.54,159.03,180.1,158.87,179.58,158.46z M222.03,166.37
			c0.12,0.17,0.22,0.46,0.41,0.56c0.31,0.16,0.68,0.2,1.03,0.29c0.04-0.23,0.16-0.62,0.11-0.65c-0.41-0.2-0.86-0.35-1.3-0.47
			C222.22,166.08,222.11,166.27,222.03,166.37z M179.61,162.33c-0.21-0.05-0.42-0.11-0.63-0.13c-0.04,0-0.09,0.16-0.14,0.25
			c0.21,0.05,0.42,0.11,0.63,0.13C179.5,162.58,179.56,162.42,179.61,162.33z M223.59,162.83c-0.17-0.11-0.33-0.22-0.5-0.31
			c-0.02-0.01-0.21,0.2-0.19,0.26c0.07,0.18,0.21,0.34,0.32,0.5C223.34,163.13,223.46,162.98,223.59,162.83z"/>
		<path d="M51.1,143.97c-0.04-0.79,0.03-1.6-0.13-2.36c-1.47-6.67-0.63-13.35,0.01-20c0.39-4.04,1.17-8.05,1.81-12.07
			c0.09-0.59,0.39-1.15,1.08-1.61c-0.03,0.48-0.03,0.97-0.08,1.45c-0.81,7.21-0.4,14.4,0.25,21.59c0.3,3.4,0.64,6.79,1.04,10.18
			c0.11,0.88,0.52,1.73,0.8,2.59c0.02,0.41,0.04,0.81,0.07,1.22c0.14-0.04,0.27-0.07,0.41-0.11c-0.18-0.35-0.35-0.71-0.53-1.06
			c0.24-3.52,0.4-7.04,0.72-10.54c0.75-8.23,2.43-16.28,4.81-24.19c0.18-0.6,0.57-1.13,0.89-1.68c0.04-0.06,0.22-0.04,0.56-0.09
			c-0.04,0.67,0.02,1.31-0.12,1.91c-1.13,4.87-1.6,9.79-1.71,14.79c-0.07,3.52-0.6,7.04-0.87,10.56c-0.34,4.31-0.46,8.63,0.18,12.93
			c0.05,0.36-0.12,0.76-0.18,1.11c-1.02,0.63-1.99,1.23-2.97,1.82c-1.57,0.96-2.79,0.74-3.58-0.82c-0.71-1.39-1.2-2.89-1.8-4.34
			c-0.2-0.47-0.47-0.9-0.7-1.35L51.1,143.97z"/>
		<path d="M71.82,100.5c0.42,1.44-0.12,2.41-0.44,3.33c-4.12,11.89-5.92,24.19-6.52,36.69c-0.06,1.17,0.16,2.35,0.19,3.53
			c0.03,0.91,0.05,1.84-0.08,2.74c-0.12,0.9-1.13,1.55-2.06,1.43c-0.88-0.11-1.48-0.63-1.53-1.52c-0.08-1.57-0.22-3.17-0.05-4.72
			c0.67-5.99,0.97-12.03,2.2-17.97c1.47-7.11,3.81-13.91,6.54-20.61C70.46,102.48,71.12,101.65,71.82,100.5z"/>
		<path d="M51.04,143.89c0.26,1.28,0.48,2.56,0.78,3.83c0.21,0.89,0.62,1.74,0.75,2.64c0.05,0.37-0.35,0.91-0.69,1.19
			c-0.17,0.13-0.86-0.05-1-0.29c-0.69-1.1-1.4-2.22-1.85-3.43c-0.51-1.34-0.86-2.77-1.09-4.19c-1.15-7.15-1.85-14.32-1.02-21.56
			c0.04-0.39,0.13-0.77,0.23-1.15c0.03-0.1,0.18-0.16,0.51-0.43c0.15,0.95,0.39,1.76,0.4,2.57c0.07,6.6,1.42,13.05,2.36,19.54
			c0.07,0.48,0.45,0.91,0.68,1.37C51.1,143.97,51.04,143.89,51.04,143.89z"/>
		<path d="M40.37,122.94c1.11,0.17,1.06,0.91,1.15,1.5c0.99,6.77,2.6,13.39,4.72,19.89c0.73,2.24,1.63,4.43,2.39,6.66
			c0.24,0.72,0.36,1.53,0.32,2.28c-0.01,0.2-1.01,0.64-1.18,0.5c-0.59-0.47-1.19-1.08-1.46-1.76c-0.96-2.43-1.9-4.89-2.65-7.4
			C41.53,137.58,40.89,130.31,40.37,122.94z"/>
		<path d="M34.41,125.74c0.5,0.87,0.74,1.15,0.83,1.47c1.24,4.4,2.42,8.81,3.7,13.2c1.14,3.91,2.95,7.53,5.05,11.01
			c0.47,0.78,1.02,1.54,1.34,2.38c0.14,0.37-0.03,1.15-0.32,1.33c-0.32,0.2-1.09,0.1-1.4-0.17c-0.77-0.68-1.44-1.5-2.07-2.33
			c-1.94-2.55-2.98-5.56-3.76-8.57c-1.41-5.43-2.46-10.96-3.63-16.45C34.08,127.22,34.26,126.77,34.41,125.74z"/>
		<path d="M238.81,121.9c0.01-0.12,0.02-0.25,0.02-0.37c-0.03,0.11-0.05,0.21-0.08,0.32C238.76,121.85,238.81,121.9,238.81,121.9z"
			/>
		<path d="M270.09,174.72c0.11,0.01,0.23,0.02,0.34,0.03c-0.09-0.03-0.19-0.05-0.28-0.08C270.15,174.68,270.09,174.72,270.09,174.72
			z"/>
		<path d="M241.93,207.73c0.11,0.04,0.22,0.08,0.34,0.12c-0.09-0.06-0.19-0.11-0.28-0.17L241.93,207.73z"/>
		<path d="M241.98,207.68c-0.59-0.23-1.18-0.46-1.77-0.68c0,0-0.05,0.05-0.06,0.05c0.59,0.23,1.18,0.46,1.77,0.68
			C241.93,207.73,241.98,207.68,241.98,207.68z"/>
		<path d="M247.3,199.92c0.2,0.06,0.39,0.13,0.59,0.19c-0.09,0-0.2,0.03-0.27,0c-0.1-0.06-0.18-0.16-0.27-0.25
			C247.35,199.86,247.3,199.92,247.3,199.92z"/>
		<path class="st3" d="M81.7,119.54c-0.31,0.99-0.65,2.09-1.03,3.32c-0.44-1.37,0.02-2.45,0.47-3.52c0.05-0.11,0.18-0.18,0.28-0.26
			C81.48,119.19,81.54,119.29,81.7,119.54z"/>
		<path class="st3" d="M118.02,94.09c0.06,1.01,0.03,1.99-0.87,2.75c-0.72-0.57-0.07-1.09,0.1-1.55c0.16-0.42,0.55-0.76,0.83-1.14
			C118.09,94.14,118.02,94.09,118.02,94.09z"/>
		<path class="st3" d="M70.66,135.05c0,0.62,0,1.23,0,2.33c-0.74-1.14-0.27-1.71,0.06-2.28C70.72,135.1,70.66,135.05,70.66,135.05z"
			/>
		<path class="st3" d="M84.27,125.06c0.03-0.59,0.06-1.19,0.09-1.78c0.14,0.03,0.29,0.06,0.43,0.1c-0.19,0.54-0.38,1.09-0.57,1.63
			C84.22,125,84.27,125.06,84.27,125.06z"/>
		<polygon class="st3" points="82.25,115.7 82.32,116.06 82.09,116 		"/>
		<path class="st3" d="M88.07,99.62c-0.06,0.23-0.12,0.46-0.18,0.69c0.08-0.21,0.16-0.42,0.24-0.63
			C88.13,99.67,88.07,99.62,88.07,99.62z"/>
		<path class="st3" d="M91.97,113.75c-0.05,0.19-0.11,0.37-0.16,0.56c0.01-0.08,0.01-0.16,0.05-0.23c0.05-0.1,0.12-0.19,0.17-0.28
			C92.02,113.8,91.97,113.75,91.97,113.75z"/>
		<path class="st3" d="M166.93,187.98c1.2-1.19,2.5-2.3,3.58-3.59c4.14-4.95,8.49-9.71,13.52-13.74c4.09-3.28,8.47-6.19,12.74-9.23
			c0.27-0.19,0.73-0.13,1.08-0.18c0.7,0.88,0.01,1.57-0.28,2.2c-3.54,7.76-7.18,15.48-10.71,23.25c-2.06,4.54-4.05,9.12-5.17,14.02
			c-0.08,0.35-0.05,0.72,0.11,1.14c1.7-3.23,2.48-6.87,4.61-10.02c0.55,0.04,1.09-0.02,1.54,0.13c3.38,1.15,6.87,1.82,10.4,2.08
			c5.28,0.4,10.44-0.18,15.35-2.47c5.18-2.42,9.99-5.35,13.48-9.97c4.16-5.5,7.42-11.36,8.09-18.5c0.35-3.73,0.52-7.3-0.68-10.88
			c-0.2-0.59-0.21-1.25-0.29-1.76c0.27-0.23,0.35-0.33,0.47-0.39c0.23-0.11,0.48-0.29,0.72-0.29c9.82,0.21,19.61-0.71,29.21-1.18
			c1.18,1.26,0.97,2.51,0.74,3.6c-0.59,2.69-1.18,5.4-2.11,7.98c-2.73,7.5-6.96,14.11-12.4,19.94c-2.15,2.3-4.19,4.71-6.42,6.93
			c-1.57,1.57-3.28,3.04-5.07,4.36c-10.99,8.05-22.73,14.62-36.05,18.05c-4.57,1.18-9.04,2.76-13.59,4.04
			c-2.14,0.6-4.34,1.09-6.54,1.34c-7.85,0.9-15.74,0.59-23.61,0.44c-2.35-0.05-4.72-0.31-7.05-0.69c-4.01-0.66-8.02-1.37-11.98-2.3
			c-5-1.17-9.76-3.06-14.29-5.5c-2.53-1.37-5.13-2.64-7.75-3.83c-2.87-1.31-4.68-3.74-6.65-6c-1.03-1.18-1.16-2.57-0.53-4.06
			c2.94-6.96,6.47-13.63,12.33-18.53c6.96-5.81,14.35-11.02,23.17-13.86c4.89-1.58,9.8-2.94,14.85-3.82
			c0.74-0.13,1.53-0.02,2.51-0.02c0.09,1.02,0.3,1.92,0.21,2.78c-0.42,4.15,0.39,8.14,1.69,12.01c0.57,1.7,1.62,3.29,2.65,4.78
			c0.89,1.28,2.06,2.37,3.28,3.73c-0.41,0.7-0.85,1.45-1.29,2.2c-1.18,2.01-3.33,3.38-3.81,5.84c-0.39,0.35-0.77,0.7-1.46,1.33
			C166.82,189.2,166.88,188.59,166.93,187.98z"/>
		<path class="st3" d="M159.85,144.68c0.24,0.97,0.48,1.95,0.72,2.95c-1.38,1.27-3.04,1.59-4.55,2.34
			c-1.42-1.01-2.75-1.96-4.08-2.91c-0.47-1.77-1.53-3.08-3.16-3.93c0.53,1.73,1.86,2.82,3.21,3.88c0.57,1.15,1.15,2.3,1.78,3.58
			c-2.32,1.79-4.64,2.25-7.14,0.45c-2.11-1.52-4.22-3.03-7.02-5.04c2.1,3.51,5.19,4.91,7.21,7.09c-0.24,1.24-0.96,1.51-1.73,1.69
			c-1.32,0.31-2.61,0.19-3.81-0.49c-1.6-0.91-3.18-1.84-4.79-2.71c-0.56-0.3-1.22-0.43-1.83-0.63c-0.38-0.36-0.76-0.72-1.14-1.08
			c-0.09,0.15-0.19,0.3-0.28,0.45c0.49,0.19,0.98,0.38,1.47,0.57c1.01,1.65,2.8,2.26,4.31,3.25c0.54,0.35,1.09,0.7,1.59,1.11
			c0.18,0.14,0.22,0.45,0.36,0.77c-2.26,2.57-5.03,3.06-8.09,1.74c-2.03-0.87-3.94-2.03-5.92-3.02c-0.88-0.44-1.81-0.8-2.97-0.71
			c1.05,0.64,2.1,1.28,3.16,1.9c1.13,0.66,2.25,1.33,3.4,1.94c1.12,0.59,2.27,1.11,3.72,1.81c-2.85,2.57-5.83,3.38-9.16,2.77
			c-1.79-0.33-3.53-0.94-5.28-1.44c-1.63-0.46-3.25-0.94-4.88-1.41c-0.59-0.23-1.19-0.45-1.78-0.68l-0.18-0.21
			c0,0,0.24,0.16,0.24,0.16c0.59,0.22,1.18,0.45,1.77,0.68c1.56,2.01,3.88,2.56,6.15,3.2c1.35,0.38,2.76,0.57,4.27,1.16
			c-0.7,1.39-1.58,1.81-2.7,1.75c-2.88-0.16-5.79-0.15-8.63-0.61c-2.96-0.48-5.86-1.4-8.77-2.19c-0.58-0.16-1.07-0.62-1.75-1.02
			c1.47-2.12,3.48-3.09,5.47-4.02c0.85-0.4,1.5-0.85,2.17-1.53c1.09-1.1,2.45-1.96,3.74-2.85c2.13-1.48,4.69-2.12,6.83-3.71
			c2.06-1.53,4.67-2.34,7.06-3.4c2.39-1.06,4.82-2.06,7.24-3.05c2.43-0.99,4.81-2.24,7.33-2.83c3.19-0.74,6.1-2.21,9.26-2.97
			c3.06-0.74,6.08-1.62,9.12-2.41c0.76-0.2,1.56-0.42,2.32-0.35c0.55,0.05,1.07,0.56,1.68,0.91c0.51-1.49,2.01-1.7,3.47-1.99
			c4.27-0.86,4.27-0.87,6.18,0.08c0.72-1.34,2.07-1.83,3.52-2.01c2.58-0.33,5.09-0.99,7.76-0.83c2.03,0.12,4.11-0.55,6.17-0.78
			c0.72-0.08,1.47,0.11,2.5,0.2c-0.24,0.88-0.28,1.55-0.59,2.05c-1.44,2.35-3.05,4.6-4.43,6.98c-1.47,2.52-3.5,3.35-6.53,2.59
			c0.7-2.55,1.37-5.02,2.05-7.49c0.09-0.09,0.2-0.17,0.27-0.28c0.04-0.08,0.02-0.19,0.03-0.29c-0.08,0.21-0.16,0.41-0.24,0.62
			c-0.65,1.12-1.36,2.2-1.93,3.36c-2.48,5.08-3.05,5.5-9.18,6.34c-0.08-1.52-0.16-3.02-0.25-4.52c-0.14-0.02-0.27-0.03-0.41-0.05
			c-0.29,1.12-0.59,2.23-0.86,3.36c-0.27,1.14-0.95,1.89-2.09,2.09c-1.01,0.18-2.05,0.21-3.01,0.3c-1.7-1.52-0.96-3.59-1.69-5.74
			c-0.88,2.26,0.08,4.23-0.71,6.3c-0.33,0.19-0.85,0.58-1.44,0.81c-1.2,0.47-2.28,0.42-3.14-0.76c-0.37-0.5-0.97-0.84-1.46-1.25
			c-0.06-1.28-0.31-2.46-1.63-3.08c0.01-0.02,0.03-0.04,0.04-0.06C158.76,142.62,159.3,143.65,159.85,144.68z"/>
		<path class="st3" d="M97.65,215.26c0.63-1.13,0.93-1.84,1.38-2.44c2.06-2.7,4.12-5.41,6.26-8.05c1.98-2.46,5.73-3.56,8.42-2.12
			c2.31,1.24,4.65,2.33,7.1,3.25c0.32,0.12,0.52,0.53,0.98,1.02c-0.5,0.44-0.88,0.99-1.41,1.21c-1.68,0.71-3.4,1.36-5.13,1.93
			c-4.97,1.63-9.94,3.22-14.93,4.78C99.63,215.07,98.88,215.08,97.65,215.26z"/>
		<path class="st3" d="M88.48,176.34c1.17-2.08,2.39-3.58,3.7-5.02c0.95-1.04,2.11-1.51,3.55-1.13c0.63,0.16,1.29,0.24,1.94,0.34
			c3.76,0.59,7.53,1.06,11.36,0.86c0.77-0.04,1.54,0.07,2.29,0.11c0.16,1.01-0.56,1.22-1.07,1.55c-2.18,1.44-4.41,2.83-6.56,4.31
			c-1,0.69-2.01,1.19-3.25,1.22C96.46,178.65,92.6,178.2,88.48,176.34z"/>
		<path class="st3" d="M119.97,166.94c-0.16,1.22-1.2,1.4-1.98,1.7c-3.06,1.18-6.28,1.9-9.54,1.89c-3.38-0.01-6.75-0.48-10.12-0.86
			c-0.84-0.1-1.62-0.63-2.59-1.04c0.98-2.95,3.78-3.67,5.57-5.58c3.2,0.83,6.31,1.76,9.48,2.43
			C113.82,166.11,116.9,166.46,119.97,166.94z"/>
		<path class="st3" d="M201.55,152.03c3.14-0.25,6.52-0.62,9.91-0.77c2.02-0.09,2.88,1.04,2.61,2.99c-0.34,2.5-1.65,4.42-3.7,5.79
			c-2.2,1.47-5.55,1.13-7.74-0.71c-1.27-1.07-1.73-2.6-2.14-4.12C200.2,154.11,200.6,153.16,201.55,152.03z"/>
		<path class="st3" d="M205.74,133.14c1.15-1.03,2.3-2.05,3.69-3.29c2.64-0.47,5.58-0.64,8.88-0.13c-0.62,1.44-1.16,2.69-1.7,3.94
			l0.07-0.08c-0.93,0.88-1.85,1.78-2.8,2.65c-1.24,1.13-2.5,2.26-3.78,3.35c-0.39,0.33-0.87,0.74-1.33,0.77
			c-2.67,0.16-5.31,1.12-7.94,0.61c-0.51-0.97,0.11-1.37,0.54-1.8c0.64-0.64,1.35-1.22,2.01-1.84c1.25-1.19,2.21-2.55,2.47-4.31
			C205.84,133.02,205.74,133.14,205.74,133.14z"/>
		<path class="st3" d="M205.74,133.14c0,0,0.1-0.12,0.1-0.12c-2.02,2.03-4.05,4.06-6.07,6.09c-2.21,2.22-4.88,2.87-7.89,2.35
			c-0.21-0.04-0.38-0.3-0.76-0.62c0.24-0.5,0.47-1.08,0.77-1.61c1.47-2.6,3.52-4.85,4.59-7.69c0.32-0.85,0.98-1.61,2-1.68
			c2.7-0.18,5.41-0.6,8.09-0.11C207.04,131.19,206.2,132.12,205.74,133.14z"/>
		<path class="st3" d="M230.93,139.06c1.25-1.11,2.46-2.26,3.77-3.3c1.62-1.3,3.3-2.55,5-3.74c0.61-0.43,1.38-0.88,2.09-0.89
			c2.83-0.06,5.67,0.04,8.55,1.36c-0.65,1.59-2.04,2.17-3.12,2.99c-2.4,1.82-4.96,3.48-7.89,4.2c-2.65,0.65-5.4,0.36-8.1,0.19
			C231.13,139.6,231.03,139.33,230.93,139.06z"/>
		<path class="st3" d="M216.6,133.67c0.96-0.87,1.9-1.76,2.9-2.58c0.59-0.48,1.3-1.22,1.92-1.18c2.58,0.17,5.25-0.32,8.04,0.84
			c-0.33,0.61-0.49,1.24-0.89,1.62c-2.2,2.06-4.47,4.05-6.7,6.07c-1.01,0.92-2.13,1.5-3.53,1.49c-1.94-0.02-3.88,0-5.82,0
			c-0.32-1.2,0.54-1.72,1.24-2.25c1.41-1.07,2.46-2.35,2.92-4.08C216.67,133.59,216.6,133.67,216.6,133.67z"/>
		<path class="st3" d="M243.09,139.64c1.72-1.2,2.98-2.1,4.26-2.97c1.08-0.73,2.38-1.25,3.26-2.17c2.68-2.81,5.66-1.67,8.75-1.3
			c-0.66,2.55-0.9,2.79-4.78,5C251.18,140.13,246.92,140.78,243.09,139.64z"/>
		<path class="st3" d="M222.76,139.61c0.49-1.68,1.52-2.47,2.53-3.3c1.42-1.16,2.94-2.22,4.18-3.55c1.56-1.69,3.36-2.42,5.6-2.24
			c0.89,0.07,1.77,0.13,2.57,0.19c0.43,0.98-0.12,1.48-0.59,1.87c-2.21,1.86-4.39,3.76-6.73,5.44
			C228.17,139.57,225.82,140.78,222.76,139.61z"/>
		<path class="st3" d="M268.28,134.89c-4.38,4.38-8,5.64-12.11,4.55c1.45-1.89,4.61-4.76,5.98-5.28c0.58-0.22,1.28-0.33,1.89-0.23
			C265.29,134.12,266.52,134.48,268.28,134.89z"/>
		<path class="st3" d="M210.68,186.22c-0.66,0.23-1.36,0.48-2.08,0.74c-1.4-2.2-1.21-4.62-1.86-6.78c1.76-1.74,2.83-1.69,3.4,0.19
			C210.7,182.22,211.23,184.11,210.68,186.22z"/>
		<path class="st3" d="M205.65,184.18c-0.06,0.87-0.01,1.69-0.22,2.42c-0.11,0.37-0.71,0.82-1.09,0.83
			c-0.41,0.01-0.92-0.38-1.23-0.74c-0.23-0.26-0.31-0.74-0.28-1.12c0.1-1.56,0.23-3.12,0.41-4.67c0.08-0.66,0.38-1.46,1.15-1.23
			c0.46,0.13,0.91,0.91,1.03,1.47C205.62,182.16,205.59,183.23,205.65,184.18z"/>
		<path class="st3" d="M110.24,177.59c3.53-2.71,6.9-4,10.25-5.98C118.42,176.14,116.44,177.35,110.24,177.59z"/>
		<path class="st3" d="M197.85,185.04c-0.11-2.2,0.37-3.79,1.27-5.25c0.15-0.24,0.68-0.44,0.95-0.37c0.26,0.08,0.61,0.55,0.59,0.82
			c-0.19,2.05-0.44,4.1-0.74,6.14c-0.04,0.25-0.54,0.6-0.83,0.6c-0.3,0.01-0.78-0.27-0.89-0.55
			C197.95,185.87,197.89,185.21,197.85,185.04z"/>
		<path class="st3" d="M193.98,187.02c-0.4-0.65-0.87-1.06-0.81-1.39c0.42-2.58,1.46-4.89,3.23-6.87
			C196.23,181.57,195.66,184.24,193.98,187.02z"/>
		<path class="st3" d="M213.83,184.44c-1.08-1.89-1.48-3.98-1.73-6.71c2.1,1.67,2.99,3.47,3.42,5.43
			C215.71,184.04,214.79,184.4,213.83,184.44z"/>
		<path class="st3" d="M273.6,136.28c-2.56,1.13-4.33,1.9-6.32,2.78C268.55,136.51,270.47,135.51,273.6,136.28z"/>
		<path class="st3" d="M223.42,172.7c-0.92-0.45-1.3-0.55-1.58-0.79c-0.66-0.55-1.64-0.97-1.31-2.09c0.07-0.23,0.71-0.55,0.87-0.46
			c0.76,0.43,1.51,0.92,2.1,1.54C223.72,171.14,223.48,171.81,223.42,172.7z"/>
		<path class="st3" d="M219.11,181.58c-1.92-1.1-2.52-3.16-3.81-4.95c1.84,1,3.51,2.64,4.22,4.14
			C219.59,180.9,219.32,181.19,219.11,181.58z"/>
		<path class="st3" d="M181.15,164.47c-0.32,1.6-1.37,1.95-2.48,2.19c-0.19,0.04-0.51-0.14-0.62-0.31
			c-0.11-0.17-0.12-0.53-0.01-0.68C178.77,164.67,179.77,164.37,181.15,164.47z"/>
		<path class="st3" d="M178.14,170.21c0.69-0.59,1.39-1.17,2.08-1.76c0.12,0.13,0.25,0.26,0.37,0.39c-0.61,0.66-1.22,1.33-1.84,1.99
			C178.55,170.63,178.35,170.42,178.14,170.21z"/>
		<path class="st3" d="M179.58,158.46c0.52,0.4,0.95,0.57,1.02,0.82c0.16,0.61-0.27,0.94-0.85,0.95c-0.22,0-0.66-0.23-0.65-0.28
			C179.19,159.52,179.36,159.1,179.58,158.46z"/>
		<path class="st3" d="M222.03,166.37c0.09-0.1,0.2-0.29,0.25-0.27c0.44,0.13,0.89,0.27,1.3,0.47c0.06,0.03-0.07,0.42-0.11,0.65
			c-0.35-0.09-0.72-0.13-1.03-0.29C222.25,166.82,222.15,166.54,222.03,166.37z"/>
		<path class="st3" d="M179.61,162.33c-0.05,0.09-0.1,0.25-0.14,0.25c-0.21-0.02-0.42-0.08-0.63-0.13c0.05-0.09,0.1-0.26,0.14-0.25
			C179.19,162.22,179.4,162.28,179.61,162.33z"/>
		<path class="st3" d="M223.59,162.83c-0.12,0.15-0.25,0.3-0.37,0.46c-0.11-0.16-0.25-0.32-0.32-0.5c-0.02-0.06,0.16-0.27,0.19-0.26
			C223.26,162.6,223.42,162.72,223.59,162.83z"/>
		<path class="st3" d="M55.81,143.79c0.18,0.35,0.35,0.71,0.53,1.06c-0.14,0.04-0.27,0.07-0.41,0.11c-0.02-0.4-0.04-0.81-0.07-1.22
			C55.87,143.74,55.81,143.79,55.81,143.79z"/>
		<path d="M166.93,187.98c-0.04,0.62-0.11,1.22-1.39,1.4c0.69-0.63,1.08-0.98,1.46-1.33C166.99,188.04,166.93,187.98,166.93,187.98z
			"/>
		<path d="M152,147.02c-1.36-1.06-2.68-2.14-3.21-3.88c1.63,0.85,2.69,2.15,3.16,3.93C151.95,147.07,152,147.02,152,147.02z"/>
		<path d="M159.85,144.68c-0.55-1.03-1.09-2.06-1.64-3.09l-0.04,0.06c1.32,0.61,1.57,1.79,1.63,3.07
			C159.8,144.73,159.85,144.68,159.85,144.68z"/>
		<path d="M134.72,150.91c-0.49-0.19-0.98-0.38-1.47-0.57c0.09-0.15,0.19-0.3,0.28-0.45c0.38,0.36,0.76,0.72,1.14,1.08
			C134.66,150.96,134.72,150.91,134.72,150.91z"/>
		<path d="M185.95,134.48c0.08-0.21,0.16-0.41,0.24-0.62c-0.01,0.1,0.02,0.21-0.03,0.29c-0.06,0.11-0.18,0.19-0.27,0.28
			C185.89,134.43,185.95,134.48,185.95,134.48z"/>
		<path d="M158.21,141.59c-0.01,0.02-0.02,0.03-0.04,0.06C158.17,141.65,158.21,141.59,158.21,141.59z"/>
		<polygon points="113.24,158.9 113,158.73 113.18,158.94 		"/>
		<path d="M113.18,158.94c0.59,0.23,1.19,0.45,1.78,0.68c0,0,0.05-0.05,0.05-0.05c-0.59-0.23-1.18-0.45-1.77-0.68
			C113.24,158.9,113.18,158.94,113.18,158.94z"/>
	</g>
</g>
<g id="Layer_4">
</g>
<g id="Layer_1_copy">
</g>
<g id="Layer_6">
</g>
<g id="Layer_7">
</g>
</svg>
