<?xml version="1.0" encoding="utf-8"?>
<!-- Generator: Adobe Illustrator 26.4.1, SVG Export Plug-In . SVG Version: 6.00 Build 0)  -->
<svg version="1.1" xmlns="http://www.w3.org/2000/svg" xmlns:xlink="http://www.w3.org/1999/xlink" x="0px" y="0px"
	 viewBox="0 0 432 328.7" style="enable-background:new 0 0 432 328.7;" xml:space="preserve">
<style type="text/css">
	.st0{display:none;}
	.st1{display:inline;fill:#85D0CB;}
	.st2{display:inline;}
	.st3{fill:#FFFFFF;}
	.st4{fill:none;stroke:#000000;stroke-linecap:round;stroke-linejoin:round;stroke-miterlimit:10;}
</style>
<g id="Layer_2" class="st0">
</g>
<g id="Layer_2_copy" class="st0">
</g>
<g id="Layer_1" class="st0">
</g>
<g id="Layer_3">
	<g>
		<path d="M195.32,248.81c-0.43-3.91,1.57-7.17,2.89-10.6c0.44-1.13,1.02-2.2,1.63-3.48c-1.28-1.12-2.69-1.06-4-0.93
			c-1.19,0.12-2.46,0.39-3.5,0.96c-1.78,0.98-3.15,2.5-4.05,4.36c-1.34,2.77-2.67,5.54-4.02,8.35c-0.98-0.09-0.49-0.83-0.44-1.3
			c0.42-3.65,2.42-6.65,4.12-9.76c0.43-0.78,0.91-1.54,1.49-2.5c-1.62-1.34-3.39-0.91-4.99-1.06c-0.9-0.08-2-0.15-2.7,0.28
			c-1.3,0.79-2.57,1.79-3.49,2.99c-1.8,2.32-3.34,4.84-5,7.27c-0.6,0.87-1.22,1.73-2.01,2.84c-0.14-2.69-0.13-2.68,2.86-7.07
			c1.47-2.16,2.89-4.35,4.44-6.69c-1.61-1.53-3.08-2.05-5.09-1.09c-3.56,1.7-6.69,3.84-8.88,7.23c-1.05,1.62-2.08,3.31-3.91,4.29
			c1.81-5.16,5.66-8.95,8.93-13.13c-5.93-3.54-8.47-2.53-12.07,0.93c-1.44,1.38-2.58,3.09-3.86,4.64c-0.67,0.82-1.36,1.63-2.01,2.4
			c-1-0.51-0.7-1.15-0.4-1.59c1.31-1.91,2.66-3.79,4.06-5.65c1.01-1.34,2.09-2.62,3.26-4.07c-1.71-1.93-3.62-2.13-5.64-1.76
			c-3.44,0.63-6.43,2.18-8.86,4.74c-2.19,2.31-4.34,4.66-7.05,7.58c2.33-6.33,6.97-9.72,11.25-13.43c-3.7-2.54-6.94-2.75-9.89-0.55
			c-1.35,1-2.46,2.34-3.67,3.53c-1.53,1.51-3.06,3.02-4.59,4.52c0,0,0.06,0.06,0.07,0.06c1.21-2.15,2.38-4.32,3.64-6.44
			c0.61-1.04,1.7-1.85,1.33-3.42c-1.97-0.58-3.91-0.22-5.83,0.44c-3.07,1.06-6.12,2.21-9.22,3.18c-2.66,0.83-5.35,1.57-8.07,2.12
			c-1.16,0.24-2.45,0-3.65-0.21c-0.46-0.08-0.82-0.71-1.13-0.99c0.34-1.26,1.16-1.34,1.9-1.43c5.89-0.74,11.48-2.48,16.96-4.72
			c5.67-2.32,11.48-2.18,17.31-0.57c8.05,2.23,16.15,4.32,24.12,6.79c6.24,1.94,12.54,3.41,19.01,4.21
			c6.62,0.82,13.26,1.31,19.93,0.93c2.28-0.13,2.41-0.33,2.99-3.38c-1.4-0.07-2.78-0.2-4.15-0.19c-8.87,0.01-17.6-1.31-26.28-2.96
			c-2.89-0.55-5.79-1.01-8.64-1.7c-2.55-0.61-5.1-1.34-7.56-2.25c-5.52-2.03-11.01-4.14-16.47-6.34c-1.62-0.65-3.19-1.09-4.94-0.98
			c-0.92,0.06-1.86-0.06-2.77-0.22c-2.2-0.39-4.34-0.16-6.42,0.52c-5.43,1.79-11.1,2.9-16.27,5.45c-0.28,0.14-0.58,0.23-0.87,0.33
			c-3.19,1.08-5.92,0.75-7.24-1.25c-1.69-2.56-2.59-5.44-0.78-8.29c1.98-3.13,4.12-6.19,6.4-9.12c4.62-5.91,10.47-10.48,16.41-15
			c3.85-2.93,7.88-5.42,12.07-7.78c4.85-2.74,9.54-5.78,14.29-8.7c4.23-2.6,8.51-5.06,13.15-6.9c3.88-1.54,7.63-3.41,11.5-4.97
			c3.02-1.21,6.14-2.15,9.21-3.22c0.55-0.19,1.08-0.45,1.89-0.8c-0.88-1.67-2.31-2.28-3.65-2.9c-3.37-1.56-6.74-3.15-10.2-4.51
			c-6.65-2.61-12.86-6.11-19.21-9.34c-0.4-0.2-0.79-0.49-1.09-0.82c-0.19-0.2-0.37-0.61-0.29-0.83c0.15-0.4,0.43-0.91,0.78-1.05
			c0.54-0.21,1.24-0.31,1.8-0.18c2.25,0.55,4.5,1.13,6.71,1.83c7.52,2.4,15.03,4.83,22.53,7.29c2.49,0.82,4.95,1.76,7.42,2.66
			c0.87,0.32,1.72,0.7,2.6,0.99c8.16,2.72,8.13,2.6,16.57,0.28c4.47-1.23,9.06-2.04,13.63-2.89c4.4-0.82,8.83-1.46,13.55-2.23
			c0.87-1.71,1.97-3.41,2.65-5.27c2.32-6.27,5.76-11.99,8.67-17.97c3.53-7.23,7.01-14.48,10.56-21.71c0.82-1.66,1.72-3.29,2.75-4.83
			c0.65-0.97,1.54-0.87,2.48,0.35c-4.18,16.24-9.4,32.39-14.05,49.04c1.36,0.23,2.38,0.55,3.39,0.54
			c5.11-0.06,10.22-0.17,15.33-0.32c2.94-0.09,5.87-0.43,8.81-0.44c8.71-0.04,17.31-1.15,25.79-2.97
			c7.41-1.59,14.76-3.57,21.21-7.88c0.36-0.24,0.89-0.21,1.34-0.31l-0.07-0.08c-0.41,1.53-1.72,2.1-2.94,2.76
			c-1.77,0.95-3.54,1.9-5.27,2.82c-0.35,1.44-0.35,2.97-1.06,4.02c-0.93,1.36-2.37,2.39-3.68,3.45c-3.06,2.45-6.47,4.2-10.35,5
			c-1.31,0.27-2.57,0.81-4.64,1.48c4.98,1.46,9.83,0.83,13.97,4.18c-4.07-0.51-7.55-1-11.05-1.35c-1.69-0.16-3.4-0.05-5.1-0.02
			c-0.45,0.01-0.89,0.2-1.5,0.34c-0.97,1.4-1.19,2.98-0.89,4.83c3.71,1.01,7.5,1.53,11.63,3.87c-4.77,0.25-8.37-2.2-12.19-1.15
			c-1.43,1.63-1.28,3.52-1.52,5.56c3.64,1.71,7.8,1.98,11.07,4.29c-0.21,1.1-0.89,0.81-1.4,0.69c-2.11-0.5-4.18-1.14-6.3-1.56
			c-3.49-0.69-4.3-0.21-5.68,3.07c-0.23,0.56-0.31,1.18-0.49,1.88c1.72,1.55,4.01,1.63,5.94,2.5c1.83,0.82,3.79,1.39,5.54,2.35
			c1.78,0.97,4,1.3,5.04,3.59c-1.98-0.75-3.93-1.59-5.95-2.21c-3.24-1-6.52-1.91-9.81-2.76c-1.13-0.3-2.14,0.04-2.7,1.23
			c-0.43,0.92-0.56,1.86,0.36,2.49c1.27,0.87,2.58,1.72,3.97,2.38c10.76,5.07,21.45,10.33,32.71,14.27c1,0.35,1.93,0.91,2.85,1.45
			c0.47,0.27,0.25,1.38-0.32,1.53c-0.72,0.19-1.53,0.45-2.2,0.29c-1.95-0.48-3.85-1.17-5.77-1.76c-6.21-1.9-12.41-3.81-18.63-5.68
			c-4.3-1.29-8.61-2.51-12.92-3.76c-0.89-0.26-1.78-0.54-2.68-0.75c-2.69-0.64-3.33,0.03-3.1,3.33c-2.72,1.42-4.48,3.72-5.54,6.71
			c2.94,2.14,6.53,3.34,7.83,7.03l0.07-0.07c-0.83-0.37-1.7-0.68-2.49-1.13c-1.07-0.62-2.01-1.49-3.11-2
			c-1.25-0.58-2.63-0.89-4.03-1.34c-2.63,1.5-4.68,3.45-6.17,6.24c2.26,2.26,5.31,3.3,7.42,5.54c-0.75,1.14-1.41,0.31-1.98,0.1
			c-2.59-0.95-4.83-2.84-7.92-3.02c-1.61,0.97-3.18,2.14-4.56,3.95c1.8,1.39,3.57,2.58,5.12,4.01c1.57,1.45,2.93,3.14,4.71,5.1
			c-1.96,0.06-2.59-1.2-3.53-1.81c-0.9-0.59-1.63-1.44-2.5-2.07c-1-0.72-2.04-1.41-3.13-1.98c-0.94-0.49-1.98-0.81-3.16-1.27
			c-1.59,1.26-3.15,2.49-4.96,3.93c1.71,3.57,4.59,6.5,5.96,11.45c-3.6-3.71-5.35-7.68-8.75-9.74c-0.62,0.05-0.96-0.01-1.23,0.11
			c-4.54,1.94-4.72,2.55-2.18,6.79c0.94,1.56,1.85,3.14,2.75,4.66c-0.96,0.81-1.38,0.19-1.71-0.26c-1.28-1.75-2.49-3.55-3.77-5.3
			c-0.53-0.73-1.17-1.39-1.9-2.24c-0.93,0.29-1.82,0.5-2.65,0.84c-0.85,0.35-1.64,0.83-2.43,1.24c-1.32,3.28,0.93,6.12,0.85,9.22
			c-1.07,0.32-1.23-0.66-1.45-1.21c-0.69-1.72-1.2-3.52-1.85-5.25c-0.38-1.02-1.24-1.32-2.27-1.08c-1.96,0.46-2.76,1.39-3,3.59
			c-0.33,3.08-0.59,6.16-0.9,9.24c-0.04,0.43-0.24,0.84-0.53,1.81c-0.98-2.16-0.62-3.95-0.72-5.66c-0.11-1.7-0.01-3.41-0.13-5.1
			c-0.07-1.03-0.94-1.66-1.94-1.6c-2.17,0.14-3.69,0.94-4.58,3.21c-1.32,3.37-1.6,6.93-2.35,10.39c-0.22,1.01-0.47,2.01-0.8,3.44
			c-0.9-2.52-0.92-2.53-0.76-3.71c0.18-1.38,0.4-2.76,0.58-4.14c0.16-1.23,0.34-2.46,0.41-3.7c0.07-1.2,0.02-2.41,0.02-3.58
			c-2.18-1.03-3.85-0.52-5.49,0.56c-2.58,1.71-3.84,4.33-5.14,7.01c-4.32,8.91-8.74,17.76-13.15,26.62
			c-0.39,0.78-1.02,1.43-1.61,2.23c-1.2-2.12-1.28-2.41-0.69-4.32c0.73-2.37,1.56-4.71,2.32-7.07c2.33-7.22,4.66-14.44,6.97-21.67
			c0.23-0.72,0.31-1.49,0.47-2.3c-1.49-1.38-2.95-1.11-4.21-0.03c-2.03,1.74-3.43,3.93-4.41,6.45c-1,2.57-2.28,5.03-3.44,7.54
			L195.32,248.81z M218.67,200.63c-0.21,0.21-0.49,0.38-0.61,0.63c-0.06,0.14,0.14,0.4,0.23,0.61c0.06-0.14,0.15-0.27,0.18-0.41
			c0.06-0.3,0.09-0.6,0.13-0.9c0.1-0.1,0.21-0.18,0.28-0.29c0.05-0.08,0.05-0.19,0.07-0.29
			C218.86,200.2,218.77,200.41,218.67,200.63z M211.13,236.72c0.3-0.94,0.59-1.88,0.89-2.81c0.72-0.78,1.65-1.44,2.13-2.34
			c2.3-4.37,4.56-8.77,6.67-13.23c3.83-8.09,7.55-16.24,11.29-24.37c0.9-1.96,1.64-3.99,2.53-5.95c1.99-4.36,4.02-8.69,6.04-13.03
			c0.19-0.42,0.46-0.81,0.71-1.19c0.64-0.98,1.53-1.5,2.73-1.36c1.07,0.12,2.18,0.14,3.22,0.41c4.49,1.15,9,2.23,13.42,3.59
			c8.12,2.51,16.16,5.24,24.26,7.8c3.82,1.21,7.7,2.24,11.56,3.35c0.26,0.13,0.51,0.26,0.77,0.37c0.13,0.05,0.28,0.05,0.42,0.07
			c-0.13-0.13-0.25-0.35-0.41-0.38c-0.27-0.06-0.57,0-0.85,0.02c-0.44-1.37-1.73-1.68-2.82-2.19c-4.77-2.22-9.55-4.42-14.36-6.56
			c-9.62-4.28-19.26-8.51-28.88-12.79c-1.38-0.62-2.68-1.42-4.21-2.24c0.14-1.74,0.01-3.33,0.44-4.75
			c1.57-5.18,3.31-10.31,5.03-15.44c0.59-1.76,1.39-3.45,1.95-5.22c1.47-4.57,2.92-9.14,4.26-13.75c0.89-3.07,1.58-6.21,2.45-9.65
			c-0.63,0.42-0.97,0.53-1.09,0.75c-3.43,6.77-7.07,13.44-10.19,20.35c-3.32,7.35-7.01,14.49-10.92,21.54
			c-0.76,1.38-1.93,1.99-3.42,1.97c-1.07-0.01-2.2-0.03-3.21-0.33c-12.62-3.7-25.48-6.6-37.73-11.55c-1.56-0.63-3.28-0.87-4.92-1.29
			c-0.42-0.21-0.84-0.42-1.26-0.63c-0.04,0.19-0.09,0.38-0.13,0.57c0.49,0,0.97,0,1.46,0c0.36,0.47,0.63,1.1,1.1,1.38
			c1.19,0.72,2.46,1.3,3.7,1.92c7.47,3.71,15.33,6.63,22.56,10.86c0.66,0.39,1.43,0.58,2.14,0.9c4.23,1.9,8.49,3.74,12.68,5.73
			c2.87,1.36,3.42,2.98,2.38,6.05c-0.5,1.46-1.02,2.92-1.52,4.38c-2.82,8.19-5.58,16.41-8.47,24.57c-1.81,5.1-3.81,10.13-5.75,15.19
			c-1.77,4.62-3.58,9.22-5.31,13.85c-0.31,0.84-0.29,1.81-0.42,2.72c-0.94,0.74-0.9,1.78-0.88,2.82c-0.12,0.22-0.23,0.43-0.35,0.65
			C210.95,237.19,211.04,236.96,211.13,236.72z M213.96,192.97c0.1,0.26,0.19,0.52,0.32,0.76c0.04,0.07,0.21,0.06,0.32,0.08
			c-0.24-0.26-0.47-0.52-0.71-0.78c0.18-0.69,0.36-1.38,0.65-2.49c-2.42,0.81-3.74,2.2-5.04,4.49
			C211.33,194.19,212.64,193.58,213.96,192.97z M122.9,198.04c0.92,0.96,1.28,1.49,1.77,1.81c2.95,1.98,5.91,3.95,8.92,5.84
			c2.49,1.56,4.97,3.17,7.6,4.46c5.14,2.52,10.42,4.69,15.83,6.62c6.43,2.29,12.77,4.69,19.58,5.66c5.21,0.74,10.36,1.86,15.56,2.68
			c5.54,0.88,11.12,0.72,16.69,0.34c1.16-0.08,2.13-0.51,2.68-1.56c1.74-3.27,3.33-6.59,4.1-10.38c-1.09-0.64-2-1.18-2.92-1.72
			c-2.4-1.42-5.08-2.51-7.14-4.31c-6.35-5.57-10.31-12.68-12.23-20.9c-1.46-6.28-1.49-12.59-0.27-18.92
			c0.12-0.64-0.11-1.36-0.18-2.03c-0.64,0.05-0.97,0.01-1.24,0.11c-13.26,4.77-26.63,9.22-39.29,15.55
			c-7.06,3.53-14.27,6.78-20.88,11.17C128.81,194.25,126.09,195.98,122.9,198.04z M284.41,176.95c4.71-7.18,6.57-15.4,9.68-23.08
			c0.37-0.92,0.31-2.02,0.46-3.07c-0.72-0.2-1.17-0.44-1.59-0.41c-1.23,0.1-2.46,0.25-3.67,0.48c-4.09,0.78-8.14,1.7-12.36,1.7
			c-4.01,0-8.03,0.39-12.04,0.69c-1.61,0.12-3.34-0.02-4.79,1.21c1.22,2.04,2.44,3.81,3.37,5.72c1.28,2.64,2.36,5.38,3.46,8.1
			c0.48,1.19,1.06,2.2,2.26,2.81C273.99,173.58,278.92,175.7,284.41,176.95z M267.99,182.73c-0.36,0.98-0.76,1.81-0.95,2.68
			c-1.35,6.04-4.23,11.14-8.46,15.71c-7.62,8.22-16.84,12.83-27.99,13.64c-0.92,0.07-1.87,0.15-2.74,0.43
			c-0.69,0.22-1.5,0.62-1.86,1.19c-1.41,2.21-2.68,4.51-3.96,6.8c-0.2,0.37-0.2,0.85-0.32,1.44c1.95,0.59,3.71,0.12,5.49-0.32
			c5.74-1.4,11.16-3.68,16.43-6.27c4.16-2.05,8.45-3.97,12.21-6.63c7.47-5.29,13.87-11.82,19.45-19.1c1.4-1.83,2.68-3.78,3.23-6.31
			C275.25,184.19,271.99,182.61,267.99,182.73z M218.91,230.59c3.03,0.39,5.87-0.38,8.68-0.95c11.53-2.34,21.67-7.99,31.83-13.58
			c8.24-6.36,15.7-13.5,21.6-22.14c1.27-1.85,3.12-3.44,3.32-5.87c-2.97-1.82-3.3-1.84-4.59,0.22c-4.21,6.73-9.63,12.45-15.28,17.93
			c-2.43,2.35-5.12,4.5-7.93,6.38c-4.5,3-9.27,5.55-14.24,7.73c-4.52,1.98-8.93,4.22-13.92,4.95c-2.44,0.36-4.83,1.04-7.21,1.68
			C219.47,227.41,218.68,228.58,218.91,230.59z M131.26,207.13c-2.62-4.23-6.27-5.76-11.05-4.64c-0.45,0.11-0.89,0.25-1.34,0.38
			c-4.83,1.46-7.52,5.21-9.81,9.32c-0.49,0.88-0.48,2.09-0.49,3.15c-0.02,1.13,0.99,1.99,2.11,2.04c1.76,0.08,3.31-0.57,4.87-1.29
			c2.67-1.23,5.37-2.36,8.07-3.53c1.42-0.61,2.89-1.13,4.26-1.84C129.38,209.95,130.83,209.04,131.26,207.13z M296.39,155.14
			c-1.96,1.89-2.42,3.7-3.02,5.42c-1.63,4.63-3.03,9.35-5.45,13.68c-0.52,0.92-0.88,1.98-1.07,3.02c-0.08,0.44,0.34,1.22,0.75,1.42
			c0.44,0.22,1.18,0.05,1.68-0.17c0.36-0.16,0.64-0.67,0.81-1.08C292.93,170.47,295.7,163.48,296.39,155.14z M214.6,201.38
			c0.96-0.98,2.13-1.92,1.66-3.85C214.91,198.66,214.1,199.68,214.6,201.38z M241.83,196.21c-0.2,0.13-0.41,0.27-0.61,0.4
			c0.33,0.84,0.6,1.71,1.03,2.51c0.13,0.24,0.67,0.26,1.74,0.63C243.01,198.16,242.42,197.18,241.83,196.21z M243.43,194.11
			c0.36,1.34,0.94,2.45,2.82,2.94C245.56,195.37,245.09,194.2,243.43,194.11z M234.06,201.17c-0.14,0.01-0.27,0.01-0.41,0.02
			c0.05,0.69,0.09,1.37,0.14,2.06c0.09,0,0.18-0.01,0.27-0.01C234.06,202.55,234.06,201.86,234.06,201.17z M210.88,184.14
			c-1.3-0.24-1.95-0.31-2.49,0.37c-0.09,0.11-0.19,0.36-0.16,0.38c0.21,0.15,0.51,0.42,0.67,0.35
			C209.42,185.05,209.88,184.72,210.88,184.14z M249.02,189.58c-0.09,0.24-0.31,0.56-0.23,0.69c0.13,0.21,0.47,0.29,0.72,0.43
			c0.09-0.25,0.33-0.58,0.25-0.73C249.64,189.76,249.28,189.7,249.02,189.58z M209.35,188.73c-0.05-0.38-0.07-0.62-0.1-0.85
			c-0.25,0.11-0.55,0.16-0.72,0.33c-0.15,0.15-0.15,0.45-0.22,0.68C208.66,188.84,209.01,188.79,209.35,188.73z M208.66,180.28
			c-0.22,0.1-0.45,0.19-0.67,0.29c0.13,0.05,0.28,0.16,0.4,0.13c0.23-0.05,0.45-0.17,0.67-0.27
			C208.92,180.38,208.79,180.33,208.66,180.28z M207.94,175.48c-0.24,0.15-0.48,0.29-0.72,0.44c0.25,0.14,0.5,0.38,0.75,0.38
			c0.24-0.01,0.48-0.27,0.72-0.41C208.44,175.74,208.19,175.61,207.94,175.48z M208,172.14c0.25,0.14,0.5,0.4,0.75,0.4
			c0.25,0,0.5-0.25,0.74-0.4c-0.25-0.14-0.5-0.39-0.74-0.39C208.49,171.74,208.24,172,208,172.14z M251.64,185.23
			c-0.25-0.08-0.4-0.13-0.55-0.17c0.03,0.09,0.05,0.27,0.09,0.27C251.29,185.34,251.41,185.28,251.64,185.23z"/>
		<path d="M243.73,63.78c2.05-0.43,3.63-2.34,6.25-1.96c-0.7,1.79-2.97,1.93-3.38,4.07c4.43-1.89,8.25-4.7,13.8-6
			c-0.96,1.12-1.2,1.64-1.6,1.84c-1.5,0.74-3.17,1.22-3.85,2.99c-0.67,0.28-1.35,0.57-2.02,0.85c-0.62,0.23-1.49,0.13-1.56,1.67
			c0.68-0.78,1.09-1.26,1.5-1.73c0.68-0.28,1.35-0.57,2.02-0.86c1.01-0.32,2.02-0.64,3.04-0.95c1.71-0.53,3.43-1.05,5.58-1.71
			c-0.45,1.03-0.67,1.55-1.01,2.33c2.12-0.58,4.08-1.15,6.05-1.65c1.02-0.26,1.79,0.1,2.2,1.12c-2.34-0.05-4.26,0.7-5.43,2.88
			c-0.03-0.01-0.05-0.02-0.07-0.03c1.81-0.98,3.62-1.95,5.43-2.93c2.27-0.22,4.55-0.44,6.91-0.67c-0.18,0.81-0.34,1.51-0.57,2.54
			c1.65-0.27,3.09-0.5,4.89-0.79c-0.74,1.11-1.28,1.93-1.82,2.75c-0.14,0-0.29-0.02-0.42,0.03c-0.1,0.03-0.17,0.14-0.26,0.22
			c0.21-0.1,0.41-0.2,0.62-0.31c2.14-0.28,4.28-0.57,6.42-0.82c1.67-0.19,3.35-0.33,5.06-0.49c0.24,1.35-0.79,1.14-1.35,1.39
			c-0.69,0.31-1.41,0.56-2.49,0.97c1.93,0.92,3.42-0.12,4.93-0.06c1.5,0.06,3.01,0.01,5.61,0.01c-3.2,1.59-5.82,1.89-8.46,3.46
			c3.41,0.45,5.91-1.09,8.61-1.46c2.74-0.37,5.5-0.65,8.82-1.03c-2.15,1.65-4.6,1.39-7.01,3.18c4.77-0.44,8.66-0.8,13.48-1.24
			c-1.59,0.94-2.34,1.38-3.1,1.83c0.21,0.17,0.42,0.47,0.62,0.47c1.54-0.05,3.09-0.05,4.61-0.28c2.34-0.36,4.59-0.07,7.26,0.59
			c-0.96,1.16-2.4,0.59-3.76,1.78c1.93,0,3.13-0.04,4.34,0.01c2.79,0.1,5.37,0.62,7.94,2.04c2.8,1.55,6.02,2.35,9.05,3.49
			c0.7,0.26,1.38,0.59,2.13,0.91c-0.46,1.38-1.68,0.49-2.29,1.06c-0.39-0.26-0.77-0.52-1.15-0.77c-0.07,0.18-0.14,0.36-0.21,0.54
			c0.48,0.05,0.95,0.1,1.43,0.15c3.21,2.05,6.42,4.11,9.97,6.38c-1,0-1.74,0.17-2.38-0.03c-2.51-0.78-5.06-1.49-7.44-2.57
			c-6.7-3.04-13.75-4.55-21-5.56c-13.4-1.87-26.86-1.93-40.34-1.63c-4.8,0.11-9.59,0.3-14.39,0.29c-6.4-0.01-12.65,1.09-18.85,2.41
			c-10.03,2.14-19.65,5.53-28.87,10.03c-7.51,3.66-15.06,7.25-22.51,11.03c-9.11,4.62-18.17,9.33-26.75,14.94
			c-4.9,3.21-10.19,5.92-15.52,8.38c-8.48,3.9-16.29,8.89-24.09,13.92c-2.98,1.92-6.1,3.68-8.93,5.8c-4.6,3.45-9.53,6.31-14.49,9.17
			c-2.94,1.69-5.94,3.34-8.67,5.34c-2.38,1.74-4.92,2.44-8.22,3.06c0.91,0.23,1.83,0.46,2.92,0.73c-2.1,2.39-3.92,2.1-5.51,2.26
			c-1.68,0.17-3.4,0.04-6.02,0.04c2.38,0.91,4.41,0.5,5.4,2.24c0.04,1.09-0.8,1.38-1.51,1.35c-2.93-0.12-5.9-0.12-8.77-0.64
			c-4.28-0.78-8.14-2.71-12.46-5.63c4.69-0.17,7.98,2.42,11.82,2.45c0.08-1.22-0.87-1.19-1.43-1.45c-1.26-0.6-2.62-0.98-3.84-1.64
			c-1.14-0.61-2.67-0.82-2.86-2.66c-0.05-0.47-1.1-0.95-1.77-1.23c-2.7-1.15-5.21-2.56-7.25-4.56c0.33-1.13,0.97-0.85,1.52-0.67
			c1.89,0.61,3.77,1.26,5.69,1.91c0.88-1.77-1.75-1.64-1.25-3.15c2.05,0.46,4.12,0.93,6.19,1.4c0.65,0.3,1.31,0.59,1.96,0.89
			c3.82,2.24,7.87,3.6,12.43,3.02c-4.16-0.99-8.33-1.97-12.49-2.96c-0.4-0.86-1.16-0.92-1.96-0.88c-1.61-1.13-3.19-2.28-4.83-3.37
			c-1.12-0.74-2.31-1.38-3.44-2.05c0.43-1.09,1.07-0.72,1.56-0.56c3.06,0.99,6.12,1.99,9.15,3.06c3.75,1.32,7.37,3.12,11.51,2.88
			c0.11,0.05,0.22,0.09,0.33,0.14c-0.13-0.03-0.26-0.06-0.39-0.09c-1.47-2.01-3.9-2.41-5.95-3.34c-3.41-1.55-6.48-3.58-9.5-5.74
			c-2.05-1.47-3.41-3.47-5.08-5.93c2.25-0.2,3.26,1.12,4.47,1.84c1.32,0.78,2.5,1.77,3.9,2.79c0.67-1.16-0.39-1.65-0.71-2.33
			c-0.32-0.67-0.74-1.3-1.14-1.98c1.3-0.93,1.85,0.19,2.39,0.68c2.54,2.28,5.22,4.31,8.62,5.87c-0.03-1.46-1.14-1.91-1.72-2.67
			c-0.66-0.86-1.39-1.66-2.02-2.53c-0.6-0.84-1.11-1.74-1.44-2.83c4.57,2.47,7.98,6.51,13.1,9.21c-1.03-2.49-2.62-3.88-3.9-5.5
			c-1.32-1.67-2.52-3.42-4.33-5.91c2.47,0.71,3.23,2.14,4.42,2.93c1.23,0.81,2.41,1.71,4.05,2.12c-1.72-2.67-3.43-5.34-5.15-8.01
			l-0.02,0.08c0.77,0.45,1.67,0.77,2.27,1.38c1.37,1.39,2.72,2.77,4.89,4.48c-1.66-3.46-2.94-6.14-4.23-8.83l-0.06,0.06
			c1.7,0.63,2.64,2.09,3.76,3.36c1.11,1.25,2.26,2.45,3.34,3.61c1.15-0.6,0.65-1.13,0.41-1.62c-1.06-2.24-2.17-4.45-3.19-6.71
			c-0.29-0.64-0.34-1.4-0.01-2.33c1.43,1.77,2.85,3.53,4.65,5.76c0.01-2.72-1.51-4.58-1.27-7.58c1.42,2.17,2.39,3.65,3.39,5.18
			c1.38-0.73,0.46-1.64,0.43-2.41c-0.02-0.74-0.12-1.48-0.26-2.99c1.83,2.09,2.03,4.08,2.78,5.81c0.79,1.82,1.38,3.75,3.41,5.54
			c-0.84-5.24-1.58-9.91-2.43-15.21c2.67,2.04,2.5,4.95,4.01,7.04c1.11-0.44,0.61-1.53,0.84-2.26c0.27-0.88,0.36-1.82,0.44-2.75
			c0.27-2.93,0.72-5.81,1.58-8.56c1.25-0.14,1.04,0.66,1.01,1.2c-0.12,2.29-0.46,4.59,0.15,6.94c1.51-0.2,1.05-1.42,1.33-2.14
			c0.39-1.01,0.54-2.1,0.89-3.13c0.29-0.85,0.71-1.65,1.08-2.49c1.64,0.78,0.08,2.49,1.5,3.37c1.32-2.97,2.62-5.91,3.92-8.84
			c0.52,4.31-1.23,8.23-1.99,13.08c2.03-1.99,2.24-4.04,3.17-5.69c1.06-1.89,2.15-3.76,3.28-5.61c1.04-1.7,2.14-3.36,3.18-5
			c1.15,0.26,0.76,0.95,0.61,1.44c-0.36,1.18-0.91,2.32-1.19,3.51c-0.11,0.48,0.27,1.09,0.43,1.63c0.21,0.81,0.48,0.81,0.82,0.07
			c1.8-2.65,3.59-5.31,5.42-7.94c0.48-0.68,1.12-1.24,2.42-2.67c-0.4,2.01-0.59,2.93-0.93,4.64c1.78-1.81,3-3.11,4.29-4.34
			c0.76-0.72,1.48-1.54,2.81-0.79c0.36,0.2,1.35-0.41,1.87-0.86c1.5-1.31,2.89-2.74,4.37-4.08c0.7-0.64,1.4-0.33,2.04,0.2
			c-0.12,0.08-0.27,0.14-0.36,0.24c-0.06,0.07-0.02,0.21-0.02,0.33c0.1-0.21,0.2-0.42,0.29-0.64c0.79-0.3,1.59-0.6,2.9-1.09
			c-2.25,4.75-4.55,8.89-7.51,12.65c-1.34,1.7-2.65,3.44-3.91,5.2c-0.3,0.42-0.36,1.01-0.89,2.56c1.4-1.12,2.05-1.47,2.48-2.01
			c4.42-5.58,9.27-10.83,12.55-17.26c0.98-1.91,2.45-3.57,3.74-5.31c0.22-0.29,0.69-0.39,1.53-0.83c-0.59,2.24-1.57,3.77-2.36,5.39
			c-1.15,2.35-2.54,4.61-2.86,7.29c-0.34,0.29-0.7,0.56-0.99,0.9c-0.08,0.09,0.06,0.38,0.1,0.58c0.12-0.09,0.31-0.15,0.36-0.26
			c0.18-0.42,0.31-0.85,0.45-1.28c1.92-0.87,2.8-2.73,4.04-4.24c2.6-3.18,5.14-6.42,7.73-9.61c0.36-0.45,0.91-0.74,1.42-1.15
			c1.26,1.2-0.43,2.01-0.14,2.97c-1.72,0.65-2.3,2.14-2.77,3.72c-0.08,0.23-0.17,0.46-0.25,0.7c0.05-0.25,0.11-0.51,0.16-0.76
			c1.7-0.63,2.54-1.94,2.85-3.65c0.97-0.93,1.94-1.86,3.04-2.91c0.09,3.1-0.01,3.55-1.77,6.46c-1.1,1.81-2.31,3.56-3.65,5.62
			c2.82-1.69,2.74-1.74,6.13-6.85c1.67-2.52,2.72-5.49,5.52-8.18c-0.1,1.47,0.02,2.25-0.23,2.89c-0.77,2.02-1.69,3.98-2.51,5.98
			c-0.35,0.84-0.6,1.72-0.9,2.58c-1.09,0.64-1.72,1.58-1.85,2.84c-0.46,0.39-0.92,0.78-1.73,1.46c1.55-0.08,1.61-0.8,1.65-1.53
			c1.13-0.61,1.82-1.52,1.85-2.85c1.89-0.77,2.46-2.61,3.35-4.17c2.04-3.59,4.02-7.21,6.05-10.8c0.11-0.19,0.48-0.24,1.1-0.53
			c-0.24,1.5-0.44,2.77-0.69,4.38c1.71-0.47,2.18-2.22,3.48-2.83c1.03-0.49,1.31,0.28,1.65,0.97c-0.28,0.68-0.56,1.36-0.84,2.03
			c-1.26,0.39-1.66,1.46-2.03,2.55c-0.27,0.68-0.55,1.35-0.82,2.03c-0.3,0.63-0.6,1.26-0.91,1.89c-0.31,0.62-0.62,1.24-0.92,1.86
			c-0.14,0.19-0.28,0.38-0.42,0.57c0.12-0.21,0.23-0.42,0.35-0.63c0.31-0.62,0.62-1.24,0.92-1.86c0.3-0.63,0.61-1.26,0.91-1.89
			c0.89-0.43,0.85-1.24,0.81-2.04c1.37-0.3,1.71-1.42,2.03-2.55c0.28-0.68,0.56-1.35,0.84-2.02c1.47-1.69,2.95-3.37,4.4-5.03
			c0.98,0.31,0.72,0.96,0.49,1.48c-1.62,3.66-3.28,7.3-4.92,10.95c-0.07,0.23-0.15,0.45-0.19,0.58c0.03-0.15,0.08-0.41,0.13-0.66
			c2.48-1.59,3.26-4.38,4.73-6.68c1.57-2.47,3.18-4.93,4.9-7.29c0.88-1.2,2.04-2.2,4.19-2.7c-1.49,2.41-2.67,4.32-3.85,6.22
			c0.86,0.87,1.15,0.02,1.49-0.35c1.26-1.36,2.43-2.81,3.73-4.13c0.89-0.91,1.45-2.46,3.34-1.8c0.37,0.13,1.18-0.84,1.72-1.38
			c1.07-1.08,2.08-2.21,3.28-3.48c1.26,1.74-1.04,2.59-0.33,4.03c2.46-1.45,4.13-4.07,7.26-5.11c-0.21,1.14-0.36,1.94-0.61,3.27
			c2.15-1.41,3.91-2.59,5.71-3.71c1.25-0.79,2.26-2,4.16-1.37c0.7,0.23,1.87-0.82,2.77-1.38c1.14-0.71,2.15-1.72,3.88-1.35
			c-0.3,2.38-3.11,2.76-3.26,5.07c0.71,0.58,1.11-0.35,1.6-0.73c3.09-2.37,6.2-4.65,10.32-4.8l-0.03-0.06
			c0.02,0.34,0.04,0.67,0.06,1.01c-1.21,0.21-2.19,0.75-2.82,1.84c-1.27,0.12-2.01,0.85-2.15,2.21c0.7-0.76,1.4-1.51,2.1-2.27
			c1.28-0.09,2.22-0.69,2.81-1.84c0.66-0.31,1.32-0.62,1.98-0.92L243.73,63.78z M160.88,104.66c-0.79,0.66-2.09,0.95-1.79,2.44
			c0.98-0.58,1.77-1.26,1.72-2.51c0.3-0.07,0.63-0.08,0.88-0.23c0.13-0.08,0.12-0.41,0.17-0.62c-0.14,0.06-0.31,0.1-0.41,0.2
			C161.25,104.16,161.07,104.42,160.88,104.66z M84.38,164.37c-6.07-1.69-8.26-1.92-10.53-1.16c0.95,0.32,1.65,0.75,2.37,0.77
			C78.6,164.07,80.99,164.6,84.38,164.37z M240.53,70.32c-4.05,2.48-5.24,3.65-6.41,6.49C236.91,74.61,238.6,72.34,240.53,70.32z
			 M229.1,75.88c-2.08,0.63-2.08,0.63-4.26,4.2C227.24,78.7,227.24,78.7,229.1,75.88z M241.8,73.73c0.9,0.82,1.28,0.06,1.67-0.24
			c0.54-0.41,0.95-0.98,1.41-1.49c-0.16-0.16-0.31-0.33-0.47-0.49C243.56,72.24,242.7,72.97,241.8,73.73z M224.76,75.09
			c-1.81,0.77-1.81,0.77-1.61,2.07C223.69,76.47,224.1,75.95,224.76,75.09z M216.09,78.57c1.71-0.84,1.71-0.84,1.59-2.15
			C217.14,77.15,216.75,77.68,216.09,78.57z M144.5,102.37c-0.04-0.12-0.09-0.25-0.13-0.37c-0.13,0.07-0.37,0.13-0.38,0.2
			c-0.01,0.15,0.11,0.31,0.17,0.47C144.27,102.57,144.38,102.47,144.5,102.37z M220.29,73.62c-0.12,0.07-0.3,0.11-0.34,0.21
			c-0.05,0.11,0.03,0.27,0.05,0.41c0.12-0.08,0.28-0.13,0.34-0.24C220.39,73.91,220.31,73.75,220.29,73.62z M114.77,125.79
			c0.1-0.03,0.25-0.03,0.28-0.09c0.05-0.11,0.03-0.25,0.03-0.38c-0.14,0.04-0.28,0.08-0.43,0.12
			C114.7,125.55,114.73,125.67,114.77,125.79z M219.59,80.92c0.13-0.07,0.32-0.1,0.38-0.21c0.05-0.09-0.05-0.26-0.09-0.4
			c-0.13,0.07-0.31,0.11-0.37,0.22C219.46,80.62,219.56,80.78,219.59,80.92z"/>
		<path d="M332.07,129.83c0.64-0.85,1.19-1.79,1.94-2.53c1.54-1.53,3.29-2.84,4.74-4.44c1.42-1.56,2.58-3.35,3.87-5.07
			c-0.22,4.27-5.14,9.79-10.63,11.96C332,129.75,332.07,129.83,332.07,129.83z"/>
		<path d="M289.2,206.12c1.38,0.3,2.4,1.06,3.5,2.88c-1.86-0.87-2.76-1.77-3.43-2.95C289.27,206.05,289.2,206.12,289.2,206.12z"/>
		<path d="M195.26,248.75c-0.02,0.13-0.03,0.26-0.05,0.39c0.04-0.11,0.07-0.22,0.11-0.33C195.32,248.81,195.26,248.75,195.26,248.75
			z"/>
		<path d="M130.14,231.06c-0.06,0.22-0.13,0.43-0.19,0.65c0.01-0.09,0-0.19,0.03-0.27c0.06-0.11,0.15-0.21,0.22-0.32
			C130.21,231.12,130.14,231.06,130.14,231.06z"/>
		<path d="M82.71,133.66l-0.06-0.35c0,0,0.04,0.42,0.04,0.42C82.69,133.74,82.71,133.66,82.71,133.66z"/>
		<path d="M85.62,130.76c-0.12-0.17-0.24-0.34-0.36-0.51c0.07,0.07,0.16,0.13,0.2,0.21c0.05,0.11,0.06,0.24,0.09,0.36
			C85.56,130.82,85.62,130.76,85.62,130.76z"/>
		<path class="st3" d="M125.65,113.06c-0.34,0.75-0.61,0.74-0.82-0.07C125.11,113.02,125.38,113.04,125.65,113.06z"/>
		<path d="M241.83,63.76c0.64-0.52,1.27-0.58,1.9,0.02c0,0,0.03-0.07,0.03-0.07c-0.65-0.01-1.31-0.01-1.96-0.02L241.83,63.76z"/>
		<path class="st3" d="M122.9,198.04c3.18-2.06,5.91-3.8,8.6-5.58c6.61-4.39,13.81-7.63,20.88-11.17
			c12.65-6.33,26.03-10.77,39.29-15.55c0.27-0.1,0.6-0.06,1.24-0.11c0.07,0.67,0.3,1.39,0.18,2.03c-1.22,6.33-1.19,12.65,0.27,18.92
			c1.92,8.22,5.87,15.33,12.23,20.9c2.06,1.8,4.74,2.9,7.14,4.31c0.91,0.54,1.83,1.08,2.92,1.72c-0.77,3.79-2.36,7.12-4.1,10.38
			c-0.56,1.04-1.52,1.48-2.68,1.56c-5.58,0.37-11.15,0.53-16.69-0.34c-5.2-0.82-10.35-1.94-15.56-2.68
			c-6.81-0.97-13.16-3.37-19.58-5.66c-5.41-1.93-10.69-4.1-15.83-6.62c-2.63-1.29-5.11-2.9-7.6-4.46c-3.01-1.89-5.97-3.86-8.92-5.84
			C124.18,199.53,123.83,199.01,122.9,198.04z"/>
		<path class="st3" d="M188.93,146.47c1.64,0.42,3.36,0.67,4.92,1.3c12.24,4.95,25.11,7.85,37.73,11.55
			c1.02,0.3,2.14,0.31,3.21,0.33c1.49,0.02,2.66-0.59,3.42-1.97c3.91-7.04,7.6-14.18,10.92-21.54c3.12-6.91,6.76-13.58,10.19-20.35
			c0.11-0.22,0.46-0.33,1.09-0.75c-0.87,3.44-1.56,6.58-2.45,9.65c-1.34,4.61-2.79,9.18-4.26,13.75c-0.57,1.77-1.36,3.46-1.95,5.22
			c-1.72,5.13-3.46,10.26-5.03,15.44c-0.43,1.42-0.3,3.02-0.44,4.75c1.52,0.82,2.82,1.62,4.21,2.24
			c9.62,4.28,19.26,8.51,28.88,12.79c4.81,2.14,9.59,4.34,14.36,6.56c1.09,0.5,2.38,0.82,2.82,2.19l0.07-0.06
			c-3.85-1.11-7.73-2.15-11.56-3.36c-8.1-2.56-16.15-5.29-24.26-7.8c-4.42-1.37-8.93-2.45-13.42-3.59
			c-1.04-0.27-2.14-0.28-3.22-0.41c-1.2-0.14-2.09,0.38-2.73,1.36c-0.25,0.39-0.51,0.78-0.71,1.19c-2.02,4.34-4.06,8.67-6.04,13.03
			c-0.89,1.96-1.63,3.99-2.53,5.95c-3.74,8.14-7.47,16.28-11.29,24.37c-2.11,4.46-4.37,8.86-6.67,13.23
			c-0.48,0.9-1.41,1.57-2.13,2.35c0,0,0.07,0.06,0.07,0.06c0.13-0.91,0.1-1.88,0.42-2.72c1.72-4.63,3.54-9.23,5.31-13.85
			c1.93-5.06,3.94-10.09,5.75-15.19c2.9-8.17,5.65-16.38,8.47-24.57c0.5-1.46,1.03-2.92,1.52-4.38c1.04-3.08,0.49-4.69-2.38-6.05
			c-4.19-1.99-8.45-3.83-12.68-5.73c-0.7-0.32-1.47-0.51-2.14-0.9c-7.23-4.23-15.09-7.14-22.56-10.86c-1.25-0.62-2.52-1.2-3.7-1.92
			c-0.47-0.29-0.74-0.91-1.1-1.38L188.93,146.47z"/>
		<path class="st3" d="M284.41,176.95c-5.49-1.25-10.42-3.38-15.24-5.84c-1.19-0.61-1.78-1.62-2.26-2.81
			c-1.1-2.72-2.18-5.46-3.46-8.1c-0.93-1.91-2.15-3.68-3.37-5.72c1.45-1.23,3.19-1.09,4.79-1.21c4.01-0.3,8.03-0.69,12.04-0.69
			c4.23,0,8.27-0.92,12.36-1.7c1.21-0.23,2.44-0.38,3.67-0.48c0.42-0.03,0.87,0.21,1.59,0.41c-0.15,1.05-0.09,2.15-0.46,3.07
			C290.98,161.56,289.12,169.77,284.41,176.95z"/>
		<path class="st3" d="M267.99,182.73c4-0.12,7.25,1.46,10.51,3.26c-0.55,2.53-1.83,4.49-3.23,6.31
			c-5.58,7.28-11.98,13.81-19.45,19.1c-3.75,2.66-8.05,4.59-12.21,6.63c-5.27,2.6-10.69,4.87-16.43,6.27
			c-1.78,0.44-3.54,0.91-5.49,0.32c0.12-0.59,0.11-1.08,0.32-1.44c1.28-2.29,2.55-4.59,3.96-6.8c0.36-0.57,1.17-0.97,1.86-1.19
			c0.87-0.28,1.82-0.36,2.74-0.43c11.15-0.81,20.37-5.41,27.99-13.64c4.23-4.57,7.11-9.68,8.46-15.71
			C267.23,184.54,267.64,183.72,267.99,182.73z"/>
		<path class="st3" d="M131.26,207.13c-0.43,1.91-1.88,2.82-3.38,3.59c-1.37,0.71-2.84,1.22-4.26,1.84c-2.69,1.17-5.4,2.3-8.07,3.53
			c-1.56,0.72-3.11,1.37-4.87,1.29c-1.13-0.05-2.13-0.91-2.11-2.04c0.02-1.06,0.01-2.28,0.49-3.15c2.29-4.11,4.98-7.86,9.81-9.32
			c0.44-0.13,0.89-0.28,1.34-0.38C124.98,201.37,128.64,202.9,131.26,207.13z"/>
		<path class="st3" d="M213.95,192.97c-1.31,0.61-2.62,1.22-4.45,2.07c1.3-2.29,2.62-3.68,5.04-4.49c-0.29,1.11-0.47,1.8-0.65,2.49
			L213.95,192.97z"/>
		<path class="st3" d="M214.6,201.38c-0.5-1.7,0.31-2.72,1.66-3.85C216.73,199.46,215.56,200.41,214.6,201.38z"/>
		<path class="st3" d="M241.83,196.21c0.59,0.98,1.18,1.95,2.15,3.54c-1.06-0.37-1.61-0.39-1.74-0.63c-0.42-0.79-0.7-1.66-1.03-2.51
			C241.42,196.48,241.63,196.34,241.83,196.21z"/>
		<path class="st3" d="M243.43,194.11c1.66,0.08,2.12,1.26,2.82,2.94C244.37,196.56,243.79,195.45,243.43,194.11z"/>
		<path class="st3" d="M234.06,201.17c0,0.69,0,1.38,0,2.07c-0.09,0-0.18,0.01-0.27,0.01c-0.05-0.69-0.09-1.37-0.14-2.06
			C233.78,201.19,233.92,201.18,234.06,201.17z"/>
		<path class="st3" d="M210.88,184.14c-1,0.58-1.46,0.9-1.98,1.1c-0.16,0.06-0.46-0.2-0.67-0.35c-0.03-0.02,0.07-0.27,0.16-0.38
			C208.93,183.83,209.58,183.9,210.88,184.14z"/>
		<path class="st3" d="M249.03,189.58c0.26,0.12,0.62,0.19,0.73,0.39c0.08,0.15-0.15,0.48-0.25,0.73c-0.25-0.14-0.58-0.22-0.72-0.43
			C248.71,190.14,248.94,189.81,249.03,189.58z"/>
		<path class="st3" d="M209.35,188.73c-0.34,0.06-0.69,0.11-1.04,0.17c0.07-0.23,0.07-0.53,0.22-0.68c0.17-0.18,0.48-0.23,0.72-0.33
			C209.28,188.11,209.31,188.35,209.35,188.73z"/>
		<path class="st3" d="M208.66,180.28c0.13,0.05,0.26,0.1,0.39,0.15c-0.22,0.09-0.44,0.22-0.67,0.27c-0.12,0.03-0.26-0.08-0.4-0.13
			C208.22,180.47,208.44,180.38,208.66,180.28z"/>
		<path class="st3" d="M213.89,193.04c0.24,0.26,0.47,0.52,0.71,0.78c-0.11-0.03-0.28-0.02-0.32-0.08
			c-0.13-0.24-0.22-0.51-0.32-0.77C213.95,192.97,213.89,193.04,213.89,193.04z"/>
		<path class="st3" d="M211.2,236.78c-0.02-1.04-0.06-2.08,0.88-2.82c0,0-0.07-0.06-0.07-0.06c-0.3,0.94-0.59,1.88-0.89,2.81
			L211.2,236.78z"/>
		<path class="st3" d="M188.99,146.41c-0.49,0-0.97,0-1.46,0c0.04-0.19,0.09-0.38,0.13-0.57c0.42,0.21,0.84,0.42,1.27,0.63
			C188.93,146.47,188.99,146.41,188.99,146.41z"/>
		<path class="st3" d="M207.94,175.48c0.25,0.13,0.5,0.27,0.75,0.4c-0.24,0.15-0.48,0.41-0.72,0.41c-0.25,0.01-0.5-0.24-0.75-0.38
			C207.46,175.77,207.7,175.62,207.94,175.48z"/>
		<path class="st3" d="M296.51,187.64c0.29-0.01,0.58-0.07,0.85-0.02c0.16,0.03,0.27,0.25,0.41,0.38c-0.14-0.02-0.29-0.01-0.42-0.07
			c-0.26-0.11-0.51-0.24-0.77-0.37C296.58,187.58,296.51,187.64,296.51,187.64z"/>
		<path class="st3" d="M218.61,200.57c-0.04,0.3-0.07,0.6-0.13,0.9c-0.03,0.14-0.12,0.27-0.18,0.41c-0.08-0.21-0.29-0.47-0.23-0.61
			c0.12-0.25,0.4-0.43,0.61-0.63C218.67,200.63,218.61,200.57,218.61,200.57z"/>
		<path class="st3" d="M208,172.14c0.25-0.14,0.5-0.4,0.75-0.4c0.25,0,0.49,0.25,0.74,0.39c-0.25,0.14-0.49,0.4-0.74,0.4
			C208.49,172.54,208.24,172.28,208,172.14z"/>
		<path class="st3" d="M251.64,185.23c-0.23,0.06-0.35,0.11-0.47,0.1c-0.04,0-0.06-0.18-0.09-0.27
			C251.24,185.1,251.39,185.15,251.64,185.23z"/>
		<path class="st3" d="M218.67,200.63c0.09-0.22,0.19-0.43,0.28-0.65c-0.02,0.1-0.02,0.21-0.07,0.29c-0.07,0.11-0.19,0.2-0.28,0.3
			C218.61,200.57,218.67,200.63,218.67,200.63z"/>
		<path class="st3" d="M211.13,236.72c-0.09,0.24-0.18,0.48-0.27,0.72c0.12-0.22,0.23-0.43,0.35-0.65
			C211.2,236.78,211.13,236.72,211.13,236.72z"/>
		<path class="st3" d="M153.46,103.68c-0.15,0.43-0.28,0.87-0.45,1.28c-0.05,0.12-0.24,0.18-0.36,0.26c-0.04-0.2-0.18-0.48-0.1-0.58
			c0.29-0.33,0.65-0.6,0.99-0.9C153.54,103.75,153.46,103.68,153.46,103.68z"/>
		<path class="st3" d="M144.5,102.37c-0.11,0.1-0.23,0.2-0.34,0.31c-0.06-0.16-0.18-0.32-0.17-0.47c0.01-0.08,0.25-0.14,0.38-0.2
			C144.41,102.12,144.45,102.25,144.5,102.37z"/>
		<path class="st3" d="M220.29,73.62c0.02,0.13,0.1,0.29,0.06,0.38c-0.06,0.11-0.22,0.16-0.34,0.24c-0.02-0.14-0.1-0.3-0.05-0.41
			C219.99,73.74,220.17,73.69,220.29,73.62z"/>
		<path class="st3" d="M114.77,125.79c-0.04-0.12-0.07-0.23-0.11-0.35c0.14-0.04,0.28-0.08,0.43-0.12
			c-0.01,0.13,0.02,0.27-0.03,0.38C115.02,125.76,114.87,125.76,114.77,125.79z"/>
		<path class="st3" d="M340.49,83.21c-0.48-0.05-0.95-0.1-1.43-0.15c0.07-0.18,0.14-0.36,0.21-0.54c0.38,0.26,0.77,0.52,1.15,0.77
			C340.43,83.29,340.49,83.21,340.49,83.21z"/>
		<path class="st3" d="M219.59,80.92c-0.03-0.13-0.13-0.3-0.08-0.38c0.06-0.11,0.24-0.15,0.37-0.22c0.04,0.14,0.14,0.31,0.09,0.4
			C219.91,80.81,219.72,80.85,219.59,80.92z"/>
		<path class="st3" d="M265.24,66.64c0.02,0.01,0.04,0.02,0.07,0.03C265.32,66.67,265.24,66.64,265.24,66.64z"/>
		<path class="st3" d="M82.69,154.99c0.13,0.03,0.26,0.06,0.39,0.09c-0.11-0.05-0.22-0.1-0.33-0.14
			C82.74,154.94,82.69,154.99,82.69,154.99z"/>
		<path class="st3" d="M68.79,154.97c0.8-0.04,1.56,0.02,1.96,0.88c0,0,0.06-0.07,0.06-0.07c-0.65-0.3-1.3-0.59-1.96-0.89
			C68.85,154.9,68.79,154.97,68.79,154.97z"/>
		<path class="st3" d="M147.86,97.16c-0.1,0.21-0.2,0.42-0.29,0.64c0-0.11-0.04-0.26,0.02-0.33c0.09-0.11,0.23-0.16,0.36-0.24
			C147.94,97.22,147.86,97.16,147.86,97.16z"/>
		<path class="st3" d="M163.67,95.3c-0.05,0.25-0.11,0.51-0.16,0.76c0.08-0.23,0.17-0.46,0.25-0.7
			C163.75,95.37,163.67,95.3,163.67,95.3z"/>
		<path class="st3" d="M181.41,94.49c-0.12,0.21-0.23,0.42-0.35,0.63c0.14-0.19,0.28-0.38,0.42-0.57
			C181.48,94.55,181.41,94.49,181.41,94.49z"/>
		<path class="st3" d="M182.34,92.62c-0.31,0.62-0.62,1.24-0.93,1.86c0,0,0.07,0.06,0.07,0.06c0.31-0.62,0.62-1.24,0.92-1.86
			C182.4,92.69,182.34,92.62,182.34,92.62z"/>
		<path class="st3" d="M186.83,91.45c-0.05,0.25-0.1,0.5-0.13,0.66c0.04-0.13,0.12-0.36,0.19-0.58
			C186.89,91.52,186.83,91.45,186.83,91.45z"/>
		<path class="st3" d="M182.4,92.69c0.3-0.63,0.6-1.26,0.91-1.89l-0.07-0.06c-0.3,0.63-0.61,1.26-0.91,1.89
			C182.34,92.62,182.4,92.69,182.4,92.69z"/>
		<path class="st3" d="M186.16,86.22c0.28-0.68,0.56-1.36,0.84-2.03c0,0-0.07-0.06-0.07-0.06c-0.28,0.67-0.56,1.35-0.84,2.02
			C186.09,86.15,186.16,86.22,186.16,86.22z"/>
		<path class="st3" d="M280.03,67.48c-0.21,0.1-0.41,0.2-0.62,0.31c0.09-0.08,0.16-0.19,0.26-0.22c0.13-0.04,0.28-0.02,0.42-0.03
			C280.09,67.54,280.03,67.48,280.03,67.48z"/>
	</g>
</g>
<g id="Layer_4">
</g>
<g id="Layer_1_copy">
</g>
<g id="Layer_6">
</g>
<g id="Layer_7">
</g>
</svg>
