<?xml version="1.0" encoding="utf-8"?>
<!-- Generator: Adobe Illustrator 26.4.1, SVG Export Plug-In . SVG Version: 6.00 Build 0)  -->
<svg version="1.1" xmlns="http://www.w3.org/2000/svg" xmlns:xlink="http://www.w3.org/1999/xlink" x="0px" y="0px"
	 viewBox="0 0 382.7 286.43" style="enable-background:new 0 0 382.7 286.43;" xml:space="preserve">
<style type="text/css">
	.st0{display:none;}
	.st1{display:inline;fill:#85D0CB;}
	.st2{display:inline;}
	.st3{fill:#FFFFFF;}
	.st4{fill:none;stroke:#000000;stroke-linecap:round;stroke-linejoin:round;stroke-miterlimit:10;}
</style>
<g id="Layer_2" class="st0">
</g>
<g id="Layer_2_copy" class="st0">
</g>
<g id="Layer_1" class="st0">
</g>
<g id="Layer_3">
	<g>
		<path d="M311.99,135.19c-0.75,0.99-1.5,1.98-2.51,3.3c1.16,0,1.98,0.12,2.74-0.02c4.67-0.88,9.24-2.06,13.48-4.3
			c1.14-0.6,2.37-1.02,3.56-1.52l-0.06-0.06c-1.12,1.62-2.86,2.4-4.55,3.14c-3.67,1.62-7.39,3.16-11.36,3.92
			c-1.58,0.3-2.77,1.14-4.08,2.11c-5.01,3.75-8.76,8.66-12.89,13.22c-0.29,0.32-0.62,0.64-0.78,1.02c-0.41,1.03-0.54,2.23-1.15,3.09
			c-0.54,0.76-1.63,1.1-2.4,1.72c-0.92,0.73-0.75,1.7-0.38,2.64c-2.38,1.08-4.77,2.12-4.98,5.27c-0.02,0.32-0.34,0.79-0.62,0.88
			c-1.97,0.65-2.8,2.42-3.81,3.94c-0.47,0.7-0.3,1.82-0.45,2.96c-2.78,1.48-3.83,2.83-4.36,5.88c-3,0.89-5.14,2.68-6.05,6.14
			c-2.31,0.2-4,1.88-6.08,3.97c0.93,0.57,1.65,1.01,2.86,1.74c-6.39-0.44-8.74,0.73-9.26,4.48c-1.65,0.29-3.64,0-5.02,1.39
			c-0.68,0.69-1.18,1.57-1.95,2.61c-2.02,0.04-4,1.07-5.66,2.66c-0.43,0.41-0.41,1.28-0.62,2.06c-2.74-0.89-5.23-0.47-7.09,1.99
			c-0.42,0.55-0.81,0.61-1.44,0.49c-0.53-0.1-1.15-0.07-1.67,0.08c-1.78,0.53-3.58,1.09-4.81,2.64c-1.78-0.55-3.33,0.18-4.91,0.85
			c-1.25,0.53-2.21,1.29-2.68,2.61c-0.33,0.93-0.75,1.83-1.15,2.79c-0.19-1.01-0.37-1.97-0.6-3.18c-3.31,0.25-6.32,0.66-8.27,3.66
			c-0.64-0.5-1.25-1.37-1.87-1.38c-1.55-0.03-3.27-0.01-4.6,0.65c-1.26,0.63-2.16,0.73-3.51,0.41c-1.16-0.28-2.59,0.03-3.76,0.45
			c-1.39,0.49-2.66,0.81-4.13,0.41c-2.97-0.81-5.19,0.84-7.38,2.45l0.08,0.07c0.06-0.57,0.14-1.14,0.18-1.71
			c0.01-0.13-0.11-0.26-0.16-0.39c-3.79-0.84-3.79-0.84-6.8,0.92c-0.62-0.95-1.34-1.89-2.64-1.58c-3.49,0.83-6.74-0.37-10.06-1.07
			c-0.42-0.09-0.86-0.23-1.27-0.18c-3.36,0.41-6.4-0.71-9.52-1.71c-1.58-0.51-3.4-0.26-5.12-0.35l0.06,0.07
			c-1.95-2.16-4.53-2.23-7.36-2.1c-0.83-1.96-2.55-3.01-4.6-3.14c-1.88-0.11-3.63-0.47-5.37-1.11c-0.66-0.24-1.42-0.43-2.11-0.37
			c-4.26,0.36-8.63,0.17-12.65,1.98c-3.8,1.71-7.6,3.42-11.31,5.31c-1.93,0.98-3.82,1.13-5.83,0.61c-0.4-0.1-0.83-0.32-1.09-0.62
			c-0.24-0.28-0.45-0.79-0.36-1.11c0.09-0.33,0.52-0.61,0.86-0.8c0.21-0.11,0.57-0.06,0.83,0.03c2.25,0.74,4.22-0.06,6.2-1.02
			c2.84-1.38,5.66-2.83,8.59-4c8.59-3.45,17.19-4.18,25.88-0.08c3.36,1.59,6.96,2.72,10.54,3.77c2.18,0.64,4.52,0.71,6.79,1.08
			c3.97,0.64,7.91,1.59,11.91,1.9c7.73,0.6,15.52,0.96,23.25,0.25c5.85-0.53,11.65-1.68,17.48-2.56c0.42-0.06,0.84-0.18,1.25-0.31
			c14.33-4.43,28.28-9.71,40.6-18.53c3.15-2.26,6.31-4.54,9.3-7c4.14-3.4,7.25-7.73,10.45-11.98c2.92-3.87,4.53-8.29,5.89-12.85
			c0.11-0.38-0.02-0.83-0.07-1.87c-1.11,1.89-2.04,3.25-2.73,4.72c-2.49,5.3-6.07,9.74-10.39,13.63c-3.3,2.97-6.5,6.09-9.97,8.85
			c-3.47,2.77-7.15,5.31-10.9,7.69c-2.29,1.45-4.83,2.53-7.35,3.57c-8.91,3.69-18.15,6.39-27.52,8.61
			c-3.35,0.79-6.72,1.54-10.12,2.14c-2.54,0.45-5.12,0.64-7.69,0.91c-1.28,0.14-2.57,0.26-3.86,0.3c-2.86,0.1-5.73,0.15-8.59,0.21
			c-0.43,0.01-0.86-0.11-1.29-0.09c-8.43,0.41-16.54-1.55-24.65-3.39c-1.94-0.44-3.8-1.31-5.67-2.03c-0.8-0.31-1.56-0.74-2.34-1.1
			c-9.14-4.26-18.67-4.12-28.31-2.47c-2.12,0.36-4.12,1.19-5.93,2.45c-1.41,0.98-2.87,1.95-4.43,2.65
			c-1.28,0.58-2.72,0.94-4.12,1.08c-2.02,0.2-3.29-1.32-2.74-3.33c0.41-1.49,1.06-2.99,1.91-4.28c2.06-3.12,4.41-6.02,7.01-8.72
			c2.75-2.86,4.47-6.31,5.65-10.06c0.39-1.24,0.67-2.48-0.38-3.91c-0.58,0.28-1.3,0.44-1.75,0.88c-2.69,2.58-5.34,5.22-7.97,7.87
			c-1.09,1.1-2.11,2.29-3.11,3.38c-1.02-0.53-0.6-1.07-0.36-1.51c0.89-1.64,1.83-3.25,2.74-4.88c0.33-0.59,0.61-1.21,1.05-2.1
			c-1.4-0.24-2.49-0.43-3.9-0.67c3.31-0.97,6.73-1.01,8.17-4.7c-0.38-0.29-0.67-0.68-1.02-0.73c-2.26-0.37-4.55-0.62-6.81-1
			c-2.14-0.36-3.97-0.12-5.31,1.86c-0.43,0.64-1.19,1.07-2.52,2.22c0.61-2.33,1.65-3.32,2.39-4.43c0.87-1.31,1.86-2.55,2.84-3.78
			c0.87-1.1,1.81-2.15,2.9-3.43c-1.08-0.73-1.94-1.32-3.12-2.13c5.55,0.28,5.83,0.29,9.41-3.64c1.86-2.05,4.32-3.3,6.21-5.27
			c0.98-1.02,2.02-1.99,3.08-2.93c0.4-0.36,0.89-0.75,1.39-0.86c2.8-0.62,5.03-2.3,6.83-4.31c1.88-2.1,4.17-3.47,6.46-4.93
			c1.19-0.76,2.39-1.52,3.39-2.15c0.22-1.61-0.76-2.09-1.52-2.71c-0.77-0.62-1.55-1.23-2.37-1.88c0.77-0.92,1.34-0.26,1.86,0.04
			c1.61,0.92,3.17,1.9,4.58,2.75c7.15-3.71,13.93-7.35,20.84-10.74c2.42-1.19,5.09-1.95,7.72-2.59c2.62-0.63,4.82-2.29,7.63-2.5
			c2.55-0.2,5.16-0.75,7.56-1.65c3.6-1.35,7.33-0.86,10.98-1.36c5.56-0.76,11.15-0.88,16.74-1.14c1.56-0.07,3.13,0.04,4.7,0.04
			c2.14,0.01,4.27,0,6.35,0c1.27-1.17,1.12-2.71,1.42-4.07c0.46-2.11,0.79-4.24,1.26-6.34c0.11-0.51,0.58-0.94,0.88-1.4l-0.06-0.05
			c-0.1,2.57-0.18,5.14-0.31,7.7c-0.06,1.26-0.19,2.52-0.3,3.87c3.31,1.75,6.71,2.04,10.12,2.13c0.9,0.02,1.52,0.2,2.32,0.57
			c1.81,0.84,3.74,1.44,5.66,2c2.22,0.65,4.25,0.31,5.86-1.53l-0.06-0.06c0.07,0.85,0.13,1.7,0.2,2.54c1.56,1.28,3.45,1.6,5.15,2.32
			c1.17,0.5,2.33,0.24,3-0.92c1.08-1.85,2.12-3.73,3.05-5.66c0.92-1.9,1.39-4.01,2.66-6.11c0.29,2.11,0.1,3.43-1.12,6.73
			c-0.79,2.14-1.75,4.22-2.6,6.23c0.7,2.23,3.24,1.89,4.31,3.45c-1.82-0.25-3.64-0.51-5.69-0.8c-2.49,3.29-4.97,6.57-7.48,9.88
			c2.57,1.37,3.23,1.49,4.91,0.85c1.06-0.41,2.1-0.89,3.14-1.34c-0.37,0.7-0.74,1.41-1.22,2.33c2.39,0.63,4.36,0.42,6.05-0.82
			c2.19-1.61,4.25-3.4,6.33-5.15c0.28-0.24,0.33-0.74,0.54-1.25c-1.9-1.71-3.77-1.87-5.74-0.21c-0.06-1.26,0.03-2.56-0.95-3.57
			c0.71-0.02,1.42-0.02,2.13-0.06c0.99-0.06,1.9-0.18,2.75,0.71c0.54,0.57,1.48,0.8,2.26,1.1c1.47,0.56,2.77,0.29,3.87-0.9
			c1.83-1.98,3.68-3.93,5.52-5.9c0,0-0.06-0.06-0.06-0.06c-0.32,1.76-1.25,3.17-2.46,4.45c-0.88,0.92-1.66,1.93-2.46,2.87
			c2.25,2.59,4.46,3.15,6.75,1.43c2.64-1.97,5.25-4.05,7.54-6.4c3.8-3.91,7.64-7.81,10.53-12.51c0.19-0.31,0.57-0.5,1.44-1.23
			c-0.43,1.45-0.57,2.26-0.9,2.99c-0.35,0.78-0.81,1.54-1.35,2.2c-4.43,5.44-8.42,11.28-13.92,15.78c-0.43,0.35-0.77,0.81-1.15,1.22
			c2.04,1.91,4.2,2.48,6.16,1.42c1.51-0.81,2.96-1.78,4.26-2.89c2.73-2.33,5.34-4.8,7.99-7.21c1.05-0.96,2.09-1.93,3.27-3.02
			c-0.42,2.02-1.58,3.98-4.28,7.02c-1.88,2.11-3.88,4.11-5.97,6.31c1.25,1.02,2.59,0.83,3.78,0.76c1.55-0.09,3.18-0.25,4.61-0.79
			c1.73-0.65,3.28-1.76,4.92-2.65c0.75-0.4,1.53-0.75,2.3-1.12L311.99,135.19z M125.62,155.93c1.41,0.19,2.82,0.33,4.22,0.58
			c3.23,0.58,6.4,1.48,9.76,1.37c2.92-0.1,5.05-1.46,7.26-3.57c-4.19-2.28-9.29-1.5-13.14-5.22c0.97,0,1.39-0.08,1.78,0.01
			c2.92,0.7,5.82,1.48,8.76,2.13c3.1,0.68,6.25,0.84,9.39,0.36c0.79-0.12,1.54-0.55,2.49-0.91c-0.47-0.52-0.68-1-1.01-1.09
			c-4.7-1.36-9.19-3.17-13.23-6.01c-1.23-0.87-2.41-0.4-3.58,0.35c-4.6,2.92-8.97,6.15-13.12,9.67c-0.29,0.25-0.4,0.71-0.65,1.17
			c0.41,0.44,0.79,0.85,1.17,1.25c-2.57-0.73-4.66-0.02-6.69,1.74c-2.55,2.21-5.01,4.54-7.73,6.56c-0.46,0.34-0.96,0.69-1.25,1.15
			c-0.33,0.53-0.45,1.2-0.73,2.03c4.75,1.49,9.29,1.58,13.85,1.14c2.26-0.22,3.63-1.41,4.92-3.65c-3.13-1.02-6.69-0.32-10.37-2.77
			c2.33,0.44,3.75,0.6,5.09,0.99c2.54,0.74,5.1,0.57,7.67,0.4c2.24-0.15,4.03-1.15,5.64-2.98c-0.67-0.39-1.12-0.77-1.63-0.93
			c-1.63-0.52-3.32-0.88-4.94-1.45C128.1,157.72,126.39,157.6,125.62,155.93z M164.43,131.83c-4.25-0.6-7.46,1.58-10.58,3.99
			c-0.18,0.14-0.17,0.51-0.25,0.78c-3.55,0.21-6.49,2.06-9.54,3.58c-0.53,0.27-0.88,0.91-1.35,1.43c0.55,0.49,0.84,0.8,1.18,1.05
			c4.91,3.51,10.63,4.04,16.38,4.4c3.01,0.19,6.03,0.19,8.93-0.8c0.48-0.16,0.88-0.55,1.62-1.04c-2.65-1.66-5.34-2.24-7.84-3.24
			c-2.01-0.81-4.05-1.51-5.42-3.32c0.95,0.33,1.89,0.64,2.83,0.99c4.04,1.48,8.08,2.95,12.11,4.44c1.95,0.72,3.55,0.02,5.53-1.15
			c-1.11-0.96-1.91-1.71-2.78-2.38c-1.36-1.05-2.81-1.98-4.14-3.06c-0.5-0.41-1.01-1.07-0.03-1.88c0.96,0.46,1.99,0.95,3.01,1.43
			c2.47,1.15,4.91,2.37,7.42,3.44c2.93,1.25,5.16,1.18,8.38-0.11c-0.57-0.54-0.98-1.12-1.54-1.45c-3.09-1.84-6.09-3.76-8.56-6.42
			c-1.26-1.36-2.64-2.62-3.9-3.98c-0.73-0.79-1.6-1.45-2.62-1.11c-2.71,0.91-5.37,1.96-8,3.06c-0.42,0.18-0.6,0.93-0.89,1.42
			L164.43,131.83z M205.89,131.84c1.78,2.05,3.54,4.12,5.35,6.14c1.39,1.55,3.09,1.91,5.27,1.15c-0.16-0.88-0.27-1.7-0.47-2.49
			c-0.66-2.64-1.41-5.27-2.01-7.93c-0.21-0.95-0.6-2.03,0.42-3.07c0.51,1.89,0.96,3.69,1.47,5.48c0.58,2.07,1.1,4.16,1.84,6.17
			c0.9,2.48,1.13,2.5,4.18,1.53c0.77-4.37,1.33-13.22,0.99-16.41c-10.25-1.3-20.45-0.02-30.66,1.09c-0.5,0.06-0.98,0.39-1.58,0.65
			c0.33,0.72,0.51,1.26,0.8,1.74c2.86,4.73,6.71,8.59,10.86,12.17c2.02,1.74,4.33,1.86,7.13,1.12c-0.75-1.15-1.33-2.1-1.96-3.02
			c-0.92-1.33-1.62-2.72-1.54-4.39L205.89,131.84z M280.19,155.43c-2.01-0.28-3.85-0.5-5.68-0.8c-4.96-0.82-9.88-1.94-14.87-2.45
			c-4.02-0.41-7.97-1.02-11.88-1.97c-5.32-1.29-10.72-2.04-16.15-2.57c-1.38-0.13-2.82-0.66-4.21,0.22c0.28,2.48,0.83,4.9,0.78,7.31
			c-0.23,10.75-4.04,20.24-10.84,28.46c-2.27,2.75-5.15,4.98-7.76,7.45c-5.83,2.87-11.71,5.53-18.45,5.16
			c-1.28-0.07-2.59-0.02-3.92,1.05c-0.15,1.05-0.35,2.32-0.51,3.58c-0.16,1.28-0.28,2.57-0.44,3.86c-0.14,1.11,0.27,2.37-0.96,3.83
			c-0.34-5.47,0.29-10.29,1.06-15.1c0.79-4.98,1.98-9.87,3.94-14.53c1.87-4.46,3.8-8.89,5.94-13.9c-1.03,0.56-1.63,0.82-2.15,1.18
			c-3.58,2.47-6.3,5.86-9.41,8.84c-4.93,4.75-8.64,10.32-12.03,16.2c-1.98,3.42-3.36,6.97-3.91,10.87
			c-0.02,0.17-0.26,0.32-0.48,0.57c-0.69-3.05,1.44-5.62,1.22-8.37c-2.82-2.2-5.69-4.12-8.18-6.46c-2.49-2.34-5.06-4.68-6.75-7.79
			c-1.72-3.15-3.73-6.14-4.68-9.67c-0.88-3.28-1.84-6.54-2.81-9.96c-0.93,0.29-1.66,0.39-2.25,0.73
			c-5.49,3.13-11.02,6.21-16.41,9.51c-2.8,1.72-5.35,3.85-8,5.82c-0.2,0.15-0.24,0.51-0.35,0.77c0.05,0.28,0.03,0.59,0.15,0.84
			c3.36,6.86,8.42,12.35,14.32,17.01c7.38,5.83,15.52,10.35,24.79,12.53c0.42,0.1,0.83,0.23,1.23,0.4
			c5.12,2.22,10.63,2.46,16.04,2.88c4.85,0.37,9.76,0.02,14.64-0.17c3.15-0.12,6.35-0.24,9.43-0.84c6.2-1.22,12.4-2.52,18.48-4.23
			c9.4-2.66,18.65-5.69,27.14-10.79c7.42-4.45,14.55-9.13,20.79-15.22c5.8-5.66,9.88-12.28,12.83-19.71
			C280.41,158.64,280.97,157.26,280.19,155.43z M122.28,186.08c-2.32,2.28-4.24,4.19-6.18,6.08c-1.95,1.89-3.99,3.7-5.85,5.67
			c-1.66,1.76-3.22,3.63-4.66,5.58c-0.91,1.23-1.61,2.67-0.87,4.5c0.69-0.04,1.32,0.1,1.75-0.14c1.12-0.61,2.21-1.31,3.2-2.1
			c3.04-2.45,6.31-4.39,10.18-5.25c2.79-0.62,5.53-1.45,8.26-2.29c1.48-0.46,3.01-1,3.44-3.28
			C128.46,192.17,125.74,188.89,122.28,186.08z M176.82,126.65c0.26,0.62,0.32,1.1,0.6,1.36c5.68,5.45,12.38,9.27,19.62,12.2
			c0.53,0.21,1.43,0.41,1.7-0.55c-1.91-2.58-3.74-5.14-5.66-7.63c-1.92-2.49-2.83-5.63-5.06-8.1
			C184.04,124.01,180.39,124.91,176.82,126.65z M235.9,124.51c-2.38-1.42-4.95-1.7-7.47-2.07c-2.43-0.36-3.16,0.33-3.13,2.73
			c0.05,3.28,0.14,6.57,0.24,9.85c0.04,1.42,0.09,2.85,0.85,4.09c3.44,1.14,3.89,1.05,5.22-1.5c1.25-2.41,2.45-4.85,3.51-7.34
			C235.85,128.57,236.57,126.81,235.9,124.51z M209.77,147.83c-0.53-0.17-0.8-0.33-1.07-0.34c-2.13,0-4.27-0.01-6.4,0.04
			c-4.61,0.12-5.54,1.18-5.05,5.71c0.46,4.26,5.76,6.9,9.4,4.58c1.69-1.08,3.09-2.53,3.74-4.53
			C210.98,151.45,210.95,149.66,209.77,147.83z M247.16,127.66c-2.63-2.58-5.76-2.76-9.14-2.58c-0.93,2.56-1.76,4.99-2.68,7.39
			c-0.91,2.37-2.46,4.5-2.73,7.1c4.28,1.51,6.16,1.22,8.37-1.86C243.21,134.57,245.39,131.36,247.16,127.66z M248.8,127.71
			c-2.11,4.37-5.48,7.78-7.37,12.17c2.89,1.72,5.07,1.3,7.06-1.05c1.76-2.07,3.75-3.94,5.58-5.95c0.74-0.81,1.69-1.6,1.29-3.14
			C253.49,128.98,251.61,127.99,248.8,127.71z M102.63,174.22c4.47,0.87,8.71,1.02,12.95,0.38c1.52-0.23,2.75-1.2,3.34-2.71
			c-0.29-0.25-0.38-0.4-0.5-0.43c-3.49-0.77-6.97-1.53-10.46-2.26c-0.4-0.08-0.91-0.06-1.25,0.12
			C104.81,170.36,103.22,171.67,102.63,174.22z M278.11,138.2c-3.34-2.37-3.75-2.37-6.38-0.43c-1.82,1.35-3.7,2.63-5.5,4
			c-0.5,0.38-0.85,0.98-1.24,1.45c0.91,1.13,1.92,1.16,2.87,0.79C271.55,142.61,275.08,140.91,278.11,138.2z M287.36,140.85
			c-2.68-1.66-5-2.02-7.33-0.16c-1.45,1.16-2.87,2.37-4.25,3.61c-0.38,0.34-0.59,0.87-1.15,1.76c1.4,0.04,2.41,0.32,3.23,0.04
			C281.22,144.95,284.42,143.46,287.36,140.85z M286.62,146c4.27,0.11,8-1.32,12.09-3.6C293.25,140.31,289.83,142.87,286.62,146z
			 M172.93,178.82c-2.42,2.46-2.49,2.6-1.63,3.06C172.27,181.33,173.11,180.68,172.93,178.82z M211.66,170.07
			c0.59,1.59,1.36,2.19,2.96,2.12C214,170.94,213.28,170.29,211.66,170.07z M168.28,177.47l0.13,0.29l0.14-0.3L168.28,177.47z
			 M204.8,179.45c0.01-0.11,0.03-0.23,0.04-0.34c-0.14,0.03-0.29,0.06-0.43,0.09c0.04,0.11,0.06,0.23,0.13,0.31
			C204.57,179.54,204.71,179.48,204.8,179.45z"/>
		<path d="M145.26,78.46c0.54-0.29,1.09-0.73,1.7-0.89c8.39-2.17,16.87-3.37,25.59-2.88c5.02,0.28,10.06-0.03,15.08,0.18
			c3.73,0.16,7.44,0.65,11.15,1.13c3.15,0.41,6.28,0.58,9.49-0.01c-3.28-0.58-6.55-1.23-9.85-1.73c-3.41-0.52-6.83-0.99-10.26-1.29
			c-3.58-0.32-7.17-0.46-10.76-0.58c-3.45-0.11-6.92,0.14-10.35-0.19c-3.4-0.33-6.69,1.5-10.03,0.53c-0.18-1.03,0.44-1.23,0.96-1.38
			c3.45-1.02,6.92-1.9,10.52-2.26c1.68-0.17,3.48-0.03,5.13-1.49c-1.36-0.6-2.53,0.12-3.67,0.07c-1.21-0.05-2.53,0.45-3.94-0.78
			c0.68-0.42,1.07-0.84,1.52-0.91c6.24-0.99,12.27-3.03,18.61-3.56c2.26-0.19,4.45-1.05,6.64-2.9c-3.28-0.06-5.95,0.98-8.68,1.55
			c-5.31,1.1-5.58,1.16-8.55,0.12c0.67-0.37,1.09-0.74,1.57-0.85c4.76-1.09,9.54-2.09,14.29-3.23c5.78-1.38,11.69-1.32,17.57-1.64
			c0.22-0.01,0.45,0.28,0.71,0.45c0.08,1.06-0.85,0.95-1.42,1.12c-5.1,1.51-10.16,3.13-14.99,5.42c-4.28,2.03-8.63,3.92-12.94,5.9
			c-0.36,0.16-0.63,0.49-1.19,0.94c1.59,0.89,3.18,0.9,4.64,0.93c7.37,0.16,14.55,1.63,21.78,2.79c6.27,1.01,12.6,1.06,18.93,0.72
			c0.93-0.05,2.01-0.62,2.73,0.52c0.43,0.69-0.38,1.52-2.31,1.91c-4.78,0.98-9.56,2.25-14.4,2.61c-4.26,0.32-8.6-0.34-12.89-0.71
			c-3.86-0.33-7.71-0.85-11.57-1.29c-0.57-0.06-1.15-0.13-1.72-0.13c-11.06-0.01-22.13-0.16-33.03,2.25
			c-1.4,0.31-2.83,0.49-4.26,0.65C146.38,79.66,145.63,79.6,145.26,78.46z M176.63,66.73l0.26-0.12l-0.27-0.1L176.63,66.73z"/>
		<path d="M76.23,118.57c1.98-0.73,3.66-0.41,5.31,0.14c7.58,2.55,15.43,3.18,23.36,3.27c3.02,0.04,6.03,0.1,9.05,0.18
			c3.02,0.08,6.03,0.19,8.97-0.79c0.66-0.22,1.45-0.31,2.11-0.16c0.44,0.09,1.01,0.66,1.08,1.09c0.07,0.45-0.27,1.18-0.65,1.42
			c-0.57,0.36-1.34,0.44-2.04,0.56c-1.68,0.28-3.37,0.52-4.99,0.77c-0.12,1.12-0.21,1.94-0.29,2.73c-12.9,2.93-37.19,1.78-46.69-4.4
			c0.57-0.31,1.01-0.74,1.42-0.72c0.99,0.06,2,0.24,2.95,0.53c8.05,2.44,16.35,2.97,24.68,3.42c3.74,0.2,7.46,0.23,11.18-0.26
			c1.24-0.17,2.46-0.47,3.67-0.96c-3.07-0.59-6.14-0.57-9.22-0.56c-9.41,0.04-18.62-1.18-27.53-4.31c-0.67-0.24-1.32-0.54-1.94-0.89
			C76.46,119.52,76.44,119.14,76.23,118.57z"/>
		<path d="M126.02,101.43c-2.59,0-5.18,0.02-7.76-0.01c-1.15-0.01-2.3-0.04-3.44-0.16c-2.93-0.3-4.34-1.04-3.77-1.83
			c1.05-1.46,2.53-0.76,3.93-0.7c1.85,0.08,3.72-0.19,5.58-0.14c6.75,0.2,13.49-0.19,20.22-0.54c3.57-0.18,7.11-1.01,10.67-1.44
			c6.27-0.76,12.55-1.5,18.83-2.15c2.46-0.25,3.74,0.35,3.5,1.39c-0.4,1.74-1.99,1.38-3.18,1.49c-6.44,0.58-12.84,1.27-19.24,2.29
			C142.99,100.98,134.54,101.91,126.02,101.43z"/>
		<path d="M103.77,103.71c2.1-0.71,4.11-0.36,6.08-0.09c7.28,1,14.56,1.22,21.88,0.63c2.57-0.21,5.16-0.34,7.74-0.44
			c6.62-0.27,13.05-1.89,19.57-2.81c1.12-0.16,2.27-0.26,3.39-0.16c0.38,0.03,0.93,0.75,0.97,1.19c0.04,0.45-0.32,1.19-0.72,1.38
			c-0.74,0.36-1.63,0.49-2.46,0.61c-1.84,0.26-3.72,0.36-5.55,0.7c-11.77,2.13-23.66,2.69-35.58,2.8
			c-4.78,0.04-9.37-1.25-14.04-1.99C104.42,105.41,103.67,105.08,103.77,103.71z"/>
		<path d="M118.15,95.43c1-1.69,2.04-1.53,3.03-1.53c2.29-0.01,4.59,0.1,6.88-0.06c7.72-0.53,15.4-1.37,23.01-2.91
			c2.95-0.6,5.96-0.85,8.94-1.28c2.27-0.33,4.53-0.71,6.8-1.04c4.71-0.69,9.43-0.14,14.15-0.07c0.39,0.01,0.85,0.25,1.13,0.53
			c0.26,0.27,0.47,0.75,0.43,1.1c-0.04,0.35-0.36,0.87-0.66,0.96c-0.67,0.19-1.42,0.3-2.1,0.21c-7.35-0.95-14.65-0.21-21.84,1.15
			c-8.04,1.53-16.16,2.41-24.25,3.57c-3.94,0.56-8.02,0.26-12.03,0.22C120.57,96.28,119.51,95.78,118.15,95.43z"/>
		<path d="M205.11,83.41c-1.12,0.12-2.25,0.38-3.36,0.32c-4.16-0.23-8.3-0.61-12.46-0.85c-7.02-0.4-13.99-1.84-21.06-1.1
			c-0.14,0.01-0.29,0.03-0.43,0.01c-5.27-0.68-10.25,0.74-15.3,1.9c-4.18,0.96-8.46,1.67-12.8,1.36c-0.72-0.05-1.41-0.58-2.6-1.11
			c1.01-0.5,1.49-0.92,1.99-0.95c6.64-0.39,13.08-1.83,19.49-3.48c0.69-0.18,1.4-0.41,2.11-0.41c6.03-0.01,12.07-0.31,18.09,0.35
			c6.29,0.7,12.57,1.41,18.87,1.97c1.83,0.16,3.71-0.17,5.56-0.3C204.53,81.04,204.85,81.38,205.11,83.41z"/>
		<path d="M93.02,108.2c0.72-0.3,1.09-0.61,1.43-0.58c1.71,0.14,3.44,0.24,5.11,0.59c7.47,1.56,14.98,2.52,22.63,2.07
			c2.72-0.16,5.45-0.15,8.18-0.13c5.48,0.06,10.9-0.25,16.21-1.74c0.4-0.11,0.93-0.2,1.25-0.02c0.44,0.23,0.87,0.67,1.05,1.13
			c0.12,0.29-0.1,0.9-0.37,1.12c-0.42,0.34-0.98,0.58-1.52,0.68c-2.4,0.46-4.79,1.1-7.21,1.23c-9.17,0.5-18.35,1.32-27.53,0.42
			c-4.84-0.47-9.65-1.35-14.45-2.23C96.2,110.45,94.37,110.25,93.02,108.2z"/>
		<path d="M196.99,52.69c3.72-0.99,7.44-2,11.33-2.06c6.89-0.11,13.79-0.08,20.69-0.12c3.16-0.02,6.32-0.01,9.48-0.08
			c7.07-0.16,14.07,0.45,20.96,2.04c2.07,0.48,4.07,1.22,6.92,2.08c-2.2,0.56-3.57,0.39-4.89,0.13c-9.94-2.01-19.95-2.08-30.03-1.55
			c-4.56,0.24-9.15,0.23-13.76-0.37c-4.85-0.64-9.74,0.23-14.58,0.93c-1.56,0.22-3.13,0.33-4.71,0.38
			c-0.48,0.02-0.96-0.32-1.45-0.49C196.96,53.28,196.97,52.98,196.99,52.69z"/>
		<path d="M130.35,89.15c0.42-0.32,0.8-0.77,1.28-0.92c1.5-0.47,3.02-0.99,4.57-1.21c5.1-0.71,10.22-1.29,15.33-1.95
			c2.27-0.29,4.53-0.66,6.79-0.99c6.6-0.95,13.16-0.17,19.71,0.57c1.28,0.14,2.56,0.33,3.84,0.49c2.41,0.29,4.81,0.86,7.27,0.34
			c0.38-0.08,0.94,0.02,1.2,0.26c0.37,0.36,0.67,0.91,0.73,1.41c0.03,0.24-0.53,0.76-0.86,0.79c-1.13,0.12-2.29,0.18-3.42,0.08
			c-4.42-0.38-8.88-0.58-13.25-1.3c-6.05-1-12.03-0.43-18.01,0.23c-6.12,0.68-12.22,1.6-18.33,2.44c-1.42,0.2-2.81,0.59-4.23,0.76
			c-0.79,0.09-1.61-0.11-2.42-0.18C130.49,89.7,130.42,89.42,130.35,89.15z"/>
		<path d="M136.79,117.9c-4.85,0.38-9.39,0.91-13.95,1.04c-10.08,0.29-20-1.09-29.83-3.2c-2.52-0.54-5.06-0.95-7.58-1.48
			c-0.93-0.2-1.56-0.73-1.13-2c1.72-0.75,3.55-0.38,5.36-0.03c5.05,0.97,10.06,2.42,15.15,2.86c8.96,0.77,17.97,1.96,26.98,0.34
			c0.99-0.18,1.98-0.39,2.97-0.4c0.5-0.01,1.2,0.28,1.46,0.66C136.57,116.19,136.57,116.93,136.79,117.9z"/>
		<path d="M237.19,44.12c0.96-1.76,2.14-1.93,3.25-2.01c2.14-0.16,4.3-0.32,6.44-0.22c10.64,0.5,21.05,2.22,31.03,6.16
			c4.53,1.79,9.13,3.41,13.69,5.12c0.64,0.24,1.24,0.57,1.77,1.38c-0.47,0.02-0.95,0.11-1.42,0.06c-4.74-0.57-9.17-2.27-13.61-3.91
			c-10.59-3.91-21.52-5.98-32.81-6.17c-2.01-0.03-4.01,0.12-6.02,0.1C238.88,44.61,238.23,44.35,237.19,44.12z"/>
		<path d="M63.57,126.8c1.18,0,1.88-0.13,2.51,0.02c2.09,0.5,4.16,1.11,6.24,1.66c11.45,3.03,23.03,4.6,34.89,3.07
			c0.42-0.05,0.86-0.07,1.26,0.02c0.23,0.05,0.54,0.34,0.57,0.55c0.06,0.38,0.06,1.05-0.14,1.14c-0.87,0.43-1.79,0.86-2.74,1.01
			c-5.56,0.86-11.13,0.85-16.72,0.17c-7.01-0.85-13.88-2.23-20.59-4.41c-1.36-0.44-2.69-1-3.97-1.62
			C64.45,128.21,64.22,127.62,63.57,126.8z"/>
		<path d="M197,68.24c0.89-0.32,1.77-0.87,2.67-0.92c2.14-0.11,4.34-0.23,6.44,0.1c7.4,1.18,14.83,1.63,22.31,1.14
			c4.29-0.28,8.6-0.49,12.71-1.92c0.85-0.3,1.68-0.46,2.32,0.4c0.49,0.65-0.14,1.62-1.54,2.05c-1.77,0.55-3.58,1.19-5.4,1.34
			c-9.88,0.84-19.76,1.25-29.62-0.47c-2.24-0.39-4.58-0.25-6.87-0.4c-0.95-0.06-1.88-0.24-2.83-0.37
			C197.13,68.88,197.06,68.56,197,68.24z"/>
		<path d="M98.91,136.44c-0.66,0.7-0.88,1.1-1.22,1.26c-2.5,1.25-5.19,1.65-7.95,1.62c-8.86-0.11-17.44-1.68-25.68-4.98
			c-1.33-0.53-2.59-1.25-3.85-1.93c-0.7-0.38-1.14-1.17-0.66-1.77c0.32-0.41,1.27-0.52,1.9-0.44c0.68,0.08,1.31,0.54,1.98,0.82
			c5.31,2.25,10.76,4.04,16.52,4.7c2.42,0.28,4.85,0.5,7.29,0.58C90.91,136.43,94.61,136.4,98.91,136.44z"/>
		<path d="M276.12,53.4c-2.37,0.35-4.55-0.2-6.73-0.7c-3.07-0.7-6.15-1.39-9.22-2.1c-7.19-1.64-14.51-1.65-21.83-1.73
			c-1.86-0.02-3.73-0.03-5.59-0.06c-1.3-0.02-2.54-0.25-3.91-1.3c0.6-0.4,0.99-0.89,1.4-0.9c3.29-0.13,6.6-0.35,9.89-0.2
			c10.18,0.47,20.31,1.4,30.08,4.59c1.22,0.4,2.41,0.9,3.61,1.38C274.59,52.71,275.35,53.07,276.12,53.4z"/>
		<path d="M230.58,55.95c-2.04,0.93-4.22,1.51-6.47,1.68c-8.26,0.62-15.99,3.18-23.59,6.29c-3.18,1.3-6.35,2.66-9.54,3.95
			c-0.79,0.32-1.63,0.56-2.46,0.68c-0.28,0.04-0.69-0.36-0.91-0.66c-0.1-0.13,0.04-0.63,0.21-0.74c1.08-0.69,2.16-1.41,3.32-1.94
			c2.47-1.14,4.95-2.28,7.49-3.24c6.29-2.39,12.57-4.91,19.33-5.68c4.11-0.47,8.24-0.77,12.36-1.15
			C230.41,55.41,230.49,55.68,230.58,55.95z"/>
		<path d="M307.86,51.58c-3.4-1.83-6.73-3.78-10.21-5.44c-2.97-1.42-6.06-2.61-9.17-3.69c-2.83-0.98-5.76-1.68-8.65-2.5
			c-1.23-0.35-2.47-0.67-3.69-1.06c-0.22-0.07-0.36-0.4-0.54-0.62c0.04-0.88,0.74-0.71,1.25-0.72c4.23-0.13,8.28,0.83,12.17,2.33
			c5.21,2,10.38,4.08,15.2,7c3.54,2.15,7.42,3.74,11.14,5.59c0.84,0.42,1.64,0.91,2.28,1.77c-3.27-0.91-6.55-1.81-9.82-2.72
			L307.86,51.58z"/>
		<path d="M210.98,64.19c0.62-0.21,1.23-0.56,1.85-0.59c6.58-0.39,13.17-0.72,19.76-1.08c7.15-0.39,14.35-0.16,21.4-1.79
			c0.23-0.05,0.52,0.12,1.2,0.29c-2.07,1.28-3.97,2.17-6.09,2.48c-2.7,0.4-5.4,0.8-8.12,0.96c-7.73,0.47-15.47,0.89-23.21,1.2
			c-2.23,0.09-4.55,0.28-6.71-0.5C211.03,64.84,211,64.51,210.98,64.19z"/>
		<path d="M259.91,40.56c7.21-1.03,28.49,4.26,43.58,10.77c-1.8-0.22-2.7-0.23-3.55-0.44c-3.62-0.89-7.21-1.9-10.83-2.76
			c-7.95-1.87-15.93-3.66-23.88-5.53C263.59,42.22,261.81,42.14,259.91,40.56z"/>
		<path d="M333.6,56.67c-4.16,0.12-7.89-1.45-11.56-3.08c-3.41-1.52-6.7-3.31-10.04-4.98c-4.88-2.45-9.76-4.9-14.62-7.37
			c-0.73-0.37-1.39-0.88-2-1.27c0.16-1.15,0.85-0.97,1.33-0.81c2.17,0.73,4.4,1.36,6.45,2.35c4.41,2.11,8.78,4.3,13.05,6.67
			c5.28,2.93,10.61,5.73,16.3,7.81c0.38,0.14,0.69,0.5,1.03,0.75C333.54,56.73,333.6,56.67,333.6,56.67z"/>
		<path d="M226.03,59.83c1.11-1.36,2.56-1.49,3.98-1.64c4.55-0.51,9.11-0.98,13.67-1.46c1.99-0.21,3.99-0.41,5.98-0.59
			c3.89-0.35,7.72,0.12,11.49,1.06c0.34,0.09,0.61,0.47,1.31,1.05c-1.28,0.1-2.09,0.26-2.88,0.2c-7.05-0.56-14.01,0.25-20.96,1.27
			c-3.54,0.52-7.11,0.8-10.67,1.15C227.27,60.94,226.5,60.99,226.03,59.83z"/>
		<path d="M90.1,145.78c-1.46,0.57-2.32,1.1-3.24,1.22c-2.27,0.31-4.57,0.63-6.86,0.62c-6.03-0.03-12.06-0.22-18.09-0.36
			c-0.56-0.01-1.12-0.12-2.65-0.29c1.67-0.54,2.43-0.95,3.22-1.01c4.72-0.32,9.38-1.52,14.15-0.89c2.87,0.38,5.72,0.35,8.59-0.05
			C86.59,144.82,88.04,144.36,90.1,145.78z"/>
		<path d="M312.33,41.99c1.29,0.34,1.97,0.41,2.55,0.69c2.58,1.24,5.15,2.5,7.68,3.82c5.96,3.11,12.01,6.01,18.42,8.1
			c0.24,0.08,0.42,0.36,0.91,0.81c-10.77-1.33-19.65-6.43-28.52-11.56C313.01,43.65,312.89,43.02,312.33,41.99z"/>
		<path d="M65.18,140.07c2.58-0.64,4.97-0.44,7.36-0.02c2.81,0.49,5.64,1.03,8.49,1.17c4.37,0.22,8.8,0.8,13.65-1.31
			c-0.41,1.15-0.44,1.71-0.74,2c-1.2,1.17-2.79,1.46-4.37,1.43c-4.28-0.1-8.58-0.09-12.82-0.56c-3.53-0.4-6.99-1.41-10.48-2.18
			C65.89,140.51,65.54,140.25,65.18,140.07z"/>
		<path d="M281.03,126.68c0.24-0.54,0.49-1.08,0.73-1.62c0.16,0.11,0.32,0.22,0.48,0.34c-0.43,0.41-0.85,0.81-1.28,1.22
			C280.97,126.62,281.03,126.68,281.03,126.68z"/>
		<path d="M312.05,135.25c0.28-0.31,0.55-0.63,0.85-0.92c0.09-0.09,0.26-0.1,0.4-0.14c-0.03,0.22,0.01,0.59-0.11,0.64
			c-0.37,0.18-0.79,0.24-1.2,0.35C311.99,135.19,312.05,135.25,312.05,135.25z"/>
		<path d="M226.71,108.56c-0.01-0.27-0.06-0.55,0-0.81c0.03-0.13,0.27-0.21,0.42-0.31c-0.01,0.13,0.03,0.29-0.03,0.4
			c-0.13,0.23-0.3,0.44-0.45,0.67C226.65,108.51,226.71,108.56,226.71,108.56z"/>
		<path d="M307.81,51.52c-0.33,0.15-0.66,0.3-0.23,0.11c-0.46,0.08-0.09,0.02,0.28-0.05C307.86,51.58,307.81,51.52,307.81,51.52z"/>
		<path d="M187.75,222.37c-0.06,0.22-0.11,0.45-0.17,0.67c0.08-0.2,0.17-0.4,0.25-0.61C187.84,222.44,187.75,222.37,187.75,222.37z"
			/>
		<path d="M333.54,56.73c0.22,0.05,0.44,0.11,0.66,0.16c-0.2-0.07-0.4-0.15-0.6-0.22C333.6,56.67,333.54,56.73,333.54,56.73z"/>
		<path d="M250,123.27c0.03-0.13,0.06-0.27,0.09-0.4c-0.05,0.11-0.1,0.23-0.15,0.34C249.94,123.21,250,123.27,250,123.27z"/>
		<path d="M329.27,132.65c0.17-0.11,0.34-0.22,0.52-0.34c-0.07,0.07-0.13,0.17-0.21,0.2c-0.11,0.05-0.24,0.05-0.37,0.07
			C329.2,132.58,329.27,132.65,329.27,132.65z"/>
		<path d="M152.44,216.37c-0.16,0.1-0.33,0.2-0.49,0.29c0.06-0.08,0.12-0.19,0.2-0.22c0.11-0.04,0.23-0.01,0.35,0
			C152.5,216.44,152.44,216.37,152.44,216.37z"/>
		<path class="st3" d="M280.19,155.43c0.77,1.83,0.22,3.21-0.3,4.52c-2.95,7.43-7.03,14.05-12.83,19.71
			c-6.24,6.09-13.37,10.77-20.79,15.22c-8.49,5.1-17.75,8.14-27.14,10.79c-6.07,1.72-12.28,3.02-18.48,4.23
			c-3.08,0.6-6.28,0.72-9.43,0.84c-4.88,0.19-9.79,0.54-14.64,0.17c-5.4-0.41-10.92-0.66-16.04-2.88c-0.39-0.17-0.81-0.3-1.23-0.4
			c-9.27-2.18-17.41-6.7-24.79-12.53c-5.89-4.66-10.96-10.15-14.32-17.01c-0.12-0.25-0.11-0.56-0.15-0.84
			c0.11-0.26,0.16-0.62,0.35-0.77c2.65-1.97,5.2-4.11,8-5.82c5.39-3.3,10.92-6.38,16.41-9.51c0.59-0.34,1.32-0.44,2.25-0.73
			c0.97,3.43,1.93,6.68,2.81,9.96c0.95,3.53,2.96,6.52,4.68,9.67c1.69,3.1,4.26,5.44,6.75,7.79c2.49,2.34,5.36,4.27,8.18,6.46
			c0.22,2.75-1.9,5.32-1.22,8.37c0.22-0.25,0.45-0.4,0.48-0.57c0.55-3.9,1.93-7.44,3.91-10.87c3.4-5.88,7.1-11.46,12.03-16.2
			c3.1-2.99,5.82-6.37,9.41-8.84c0.52-0.36,1.12-0.62,2.15-1.18c-2.15,5.01-4.07,9.45-5.94,13.9c-1.96,4.67-3.15,9.55-3.94,14.53
			c-0.76,4.81-1.39,9.64-1.06,15.1c1.24-1.46,0.82-2.71,0.96-3.83c0.16-1.28,0.27-2.57,0.44-3.86c0.16-1.27,0.36-2.53,0.51-3.58
			c1.33-1.07,2.63-1.12,3.92-1.05c6.74,0.37,12.62-2.29,18.45-5.16c2.6-2.47,5.49-4.7,7.76-7.45c6.8-8.22,10.61-17.71,10.84-28.46
			c0.05-2.41-0.5-4.83-0.78-7.31c1.39-0.88,2.84-0.36,4.21-0.22c5.43,0.53,10.83,1.29,16.15,2.57c3.91,0.94,7.86,1.56,11.88,1.97
			c4.99,0.51,9.91,1.63,14.87,2.45C276.34,154.94,278.18,155.15,280.19,155.43z"/>
		<path class="st3" d="M205.96,131.78c-0.07,1.67,0.62,3.06,1.54,4.39c0.63,0.91,1.21,1.87,1.96,3.02
			c-2.79,0.75-5.11,0.63-7.13-1.12c-4.15-3.58-7.99-7.44-10.86-12.17c-0.29-0.48-0.47-1.02-0.8-1.74c0.6-0.26,1.08-0.59,1.58-0.65
			c10.21-1.12,20.41-2.39,30.66-1.09c0.34,3.2-0.22,12.04-0.99,16.41c-3.05,0.97-3.27,0.95-4.18-1.53c-0.73-2.01-1.25-4.1-1.84-6.17
			c-0.5-1.78-0.96-3.58-1.47-5.48c-1.02,1.04-0.63,2.12-0.42,3.07c0.6,2.66,1.35,5.28,2.01,7.93c0.2,0.79,0.31,1.61,0.47,2.49
			c-2.19,0.76-3.89,0.4-5.27-1.15c-1.81-2.03-3.57-4.09-5.35-6.14c-0.11-1.6-0.87-2.85-2.05-3.88
			C204.07,129.49,204.31,131.03,205.96,131.78z"/>
		<path class="st3" d="M153.61,136.6c0.08-0.27,0.07-0.64,0.25-0.78c3.11-2.41,6.32-4.59,10.58-3.99c0.22,0.04,0.43,0.08,0.64,0.12
			c-0.24-0.02-0.47-0.04-0.71-0.05c0.29-0.49,0.47-1.25,0.89-1.42c2.63-1.1,5.3-2.15,8-3.06c1.02-0.34,1.89,0.31,2.62,1.11
			c1.26,1.36,2.63,2.62,3.9,3.98c2.47,2.66,5.48,4.59,8.56,6.42c0.56,0.33,0.98,0.91,1.54,1.45c-3.22,1.29-5.44,1.36-8.38,0.11
			c-2.51-1.06-4.95-2.28-7.42-3.44c-1.03-0.48-2.05-0.97-3.01-1.43c-0.98,0.8-0.47,1.47,0.03,1.88c1.33,1.08,2.78,2.02,4.14,3.06
			c0.87,0.66,1.66,1.42,2.78,2.38c-1.98,1.17-3.58,1.87-5.53,1.15c-4.03-1.49-8.07-2.97-12.11-4.44c-0.94-0.34-1.89-0.66-2.83-0.99
			c0,0,0.1,0.06,0.1,0.06c-0.61-0.31-1.22-0.61-1.83-0.92l0.11,0.06c-0.64-0.31-1.27-0.61-1.91-0.92
			C153.88,136.84,153.74,136.73,153.61,136.6z"/>
		<path class="st3" d="M122.28,186.08c3.47,2.81,6.18,6.09,9.26,8.76c-0.43,2.28-1.96,2.82-3.44,3.28
			c-2.73,0.84-5.48,1.67-8.26,2.29c-3.88,0.87-7.14,2.8-10.18,5.25c-0.99,0.8-2.08,1.49-3.2,2.1c-0.43,0.23-1.06,0.1-1.75,0.14
			c-0.74-1.82-0.03-3.27,0.87-4.5c1.44-1.95,3-3.82,4.66-5.58c1.86-1.97,3.91-3.78,5.85-5.67
			C118.04,190.27,119.96,188.36,122.28,186.08z"/>
		<path class="st3" d="M125.71,156.01c-0.38-0.41-0.76-0.81-1.17-1.25c0.25-0.46,0.36-0.92,0.65-1.17
			c4.15-3.52,8.52-6.74,13.12-9.67c1.17-0.75,2.35-1.22,3.58-0.35c4.04,2.84,8.53,4.65,13.23,6.01c0.33,0.09,0.54,0.57,1.01,1.09
			c-0.95,0.36-1.7,0.79-2.49,0.91c-3.14,0.48-6.29,0.32-9.39-0.36c-2.93-0.65-5.83-1.43-8.76-2.13c-0.38-0.09-0.81-0.01-1.78-0.01
			c3.85,3.72,8.95,2.94,13.14,5.22c-2.22,2.11-4.34,3.47-7.26,3.57c-3.36,0.11-6.52-0.78-9.76-1.37c-1.39-0.25-2.81-0.39-4.22-0.58
			C125.62,155.93,125.71,156.01,125.71,156.01z"/>
		<path class="st3" d="M125.62,155.93c0.77,1.67,2.47,1.79,3.91,2.3c1.62,0.57,3.3,0.93,4.94,1.45c0.51,0.16,0.96,0.54,1.63,0.93
			c-1.61,1.83-3.4,2.83-5.64,2.98c-2.57,0.18-5.13,0.35-7.67-0.4c-1.34-0.39-2.76-0.55-5.09-0.99c3.68,2.44,7.25,1.74,10.37,2.77
			c-1.3,2.25-2.66,3.43-4.92,3.65c-4.55,0.45-9.1,0.36-13.85-1.14c0.28-0.82,0.4-1.49,0.73-2.03c0.29-0.47,0.8-0.81,1.25-1.15
			c2.71-2.02,5.18-4.35,7.73-6.56c2.03-1.76,4.12-2.47,6.69-1.74C125.71,156.01,125.62,155.93,125.62,155.93z"/>
		<path class="st3" d="M153.61,136.6c0.13,0.12,0.27,0.23,0.42,0.33c0.64,0.31,1.27,0.61,1.91,0.92c0,0-0.11-0.06-0.11-0.06
			c0.61,0.31,1.22,0.61,1.83,0.92c0,0-0.1-0.06-0.1-0.06c1.38,1.81,3.42,2.52,5.42,3.32c2.5,1,5.19,1.58,7.84,3.24
			c-0.74,0.49-1.14,0.87-1.62,1.04c-2.91,0.99-5.92,0.99-8.93,0.8c-5.75-0.36-11.47-0.89-16.38-4.4c-0.34-0.24-0.63-0.56-1.18-1.05
			c0.48-0.52,0.82-1.16,1.35-1.43C147.12,138.66,150.06,136.81,153.61,136.6z"/>
		<path class="st3" d="M176.82,126.65c3.57-1.74,7.23-2.64,11.21-2.72c2.23,2.47,3.13,5.61,5.06,8.1c1.92,2.49,3.75,5.05,5.66,7.63
			c-0.27,0.96-1.18,0.76-1.7,0.55c-7.24-2.93-13.94-6.76-19.62-12.2C177.14,127.75,177.08,127.27,176.82,126.65z"/>
		<path class="st3" d="M235.9,124.51c0.67,2.3-0.05,4.06-0.77,5.75c-1.06,2.49-2.26,4.94-3.51,7.34c-1.33,2.55-1.78,2.64-5.22,1.5
			c-0.77-1.24-0.81-2.67-0.85-4.09c-0.1-3.28-0.19-6.57-0.24-9.85c-0.04-2.4,0.7-3.09,3.13-2.73
			C230.95,122.81,233.52,123.09,235.9,124.51z"/>
		<path class="st3" d="M209.77,147.83c1.18,1.83,1.21,3.63,0.61,5.47c-0.65,2-2.05,3.45-3.74,4.53c-3.64,2.32-8.94-0.32-9.4-4.58
			c-0.48-4.53,0.44-5.59,5.05-5.71c2.13-0.05,4.27-0.05,6.4-0.04C208.97,147.49,209.24,147.66,209.77,147.83z"/>
		<path class="st3" d="M247.16,127.66c-1.77,3.7-3.94,6.91-6.18,10.04c-2.21,3.08-4.09,3.37-8.37,1.86c0.27-2.6,1.82-4.73,2.73-7.1
			c0.92-2.39,1.76-4.82,2.68-7.39C241.4,124.9,244.53,125.08,247.16,127.66z"/>
		<path class="st3" d="M248.8,127.71c2.8,0.28,4.68,1.27,6.56,2.02c0.41,1.54-0.55,2.33-1.29,3.14c-1.83,2.01-3.82,3.88-5.58,5.95
			c-2,2.35-4.17,2.77-7.06,1.05C243.32,135.49,246.69,132.08,248.8,127.71z"/>
		<path class="st3" d="M259.48,140.39c-1.05,0.45-2.08,0.93-3.14,1.34c-1.68,0.65-2.34,0.52-4.91-0.85c2.5-3.31,4.99-6.59,7.48-9.88
			c2.04,0.29,3.86,0.54,5.69,0.8c0,0-0.09-0.07-0.09-0.07c0.98,1.01,0.89,2.31,0.95,3.57l0.07-0.1c-2.5,1.23-4.69,2.8-6.13,5.26
			L259.48,140.39z"/>
		<path class="st3" d="M102.63,174.22c0.59-2.55,2.18-3.86,4.06-4.9c0.34-0.19,0.86-0.21,1.25-0.12c3.49,0.73,6.98,1.49,10.46,2.26
			c0.12,0.03,0.22,0.18,0.5,0.43c-0.58,1.51-1.81,2.48-3.34,2.71C111.34,175.24,107.1,175.09,102.63,174.22z"/>
		<path class="st3" d="M265.45,135.3c1.97-1.67,3.84-1.5,5.74,0.21c-0.21,0.51-0.26,1.01-0.54,1.25c-2.08,1.76-4.14,3.55-6.33,5.15
			c-1.69,1.24-3.66,1.45-6.05,0.82c0.48-0.92,0.85-1.63,1.22-2.33c0,0-0.1,0.07-0.1,0.07c2.68-1.01,4.32-3.23,6.13-5.26
			L265.45,135.3z"/>
		<path class="st3" d="M278.11,138.2c-3.03,2.71-6.56,4.41-10.25,5.82c-0.95,0.36-1.96,0.34-2.87-0.79
			c0.39-0.47,0.73-1.07,1.24-1.45c1.8-1.37,3.68-2.65,5.5-4C274.36,135.83,274.76,135.84,278.11,138.2z"/>
		<path class="st3" d="M287.36,140.85c-2.94,2.62-6.14,4.1-9.5,5.25c-0.82,0.28-1.83,0-3.23-0.04c0.57-0.89,0.78-1.42,1.15-1.76
			c1.38-1.24,2.79-2.45,4.25-3.61C282.37,138.83,284.69,139.19,287.36,140.85z"/>
		<path class="st3" d="M286.62,146c3.21-3.14,6.63-5.7,12.09-3.6C294.62,144.68,290.88,146.11,286.62,146z"/>
		<path class="st3" d="M172.93,178.82c0.19,1.86-0.66,2.51-1.63,3.06C170.43,181.42,170.51,181.28,172.93,178.82z"/>
		<path class="st3" d="M211.66,170.07c1.62,0.22,2.35,0.87,2.96,2.12C213.02,172.26,212.25,171.65,211.66,170.07z"/>
		<polygon class="st3" points="168.28,177.47 168.54,177.47 168.4,177.77 		"/>
		<path class="st3" d="M204.8,179.45c-0.09,0.02-0.23,0.09-0.25,0.05c-0.07-0.08-0.09-0.2-0.13-0.31c0.14-0.03,0.29-0.06,0.43-0.09
			C204.83,179.23,204.81,179.34,204.8,179.45z"/>
		<polygon class="st3" points="176.63,66.73 176.63,66.51 176.89,66.61 		"/>
		<path d="M205.96,131.78c-1.64-0.75-1.88-2.28-2.12-3.81c1.18,1.03,1.95,2.28,2.05,3.88C205.89,131.84,205.96,131.78,205.96,131.78
			z"/>
		<path d="M164.37,131.9c0.24,0.02,0.47,0.04,0.71,0.05c-0.21-0.04-0.43-0.08-0.64-0.12C164.43,131.83,164.37,131.9,164.37,131.9z"
			/>
		<path d="M155.93,137.86c-0.63-0.31-1.27-0.61-1.91-0.92C154.66,137.24,155.3,137.55,155.93,137.86z"/>
		<path d="M157.66,138.72c-0.61-0.31-1.22-0.61-1.83-0.92C156.44,138.1,157.05,138.41,157.66,138.72z"/>
		<path d="M265.51,135.2c-1.81,2.03-3.45,4.25-6.13,5.26C260.82,138,263.02,136.43,265.51,135.2z"/>
	</g>
</g>
<g id="Layer_4">
</g>
<g id="Layer_1_copy">
</g>
<g id="Layer_6">
</g>
<g id="Layer_7">
</g>
</svg>
