<?xml version="1.0" encoding="utf-8"?>
<!-- Generator: Adobe Illustrator 26.4.1, SVG Export Plug-In . SVG Version: 6.00 Build 0)  -->
<svg version="1.1" xmlns="http://www.w3.org/2000/svg" xmlns:xlink="http://www.w3.org/1999/xlink" x="0px" y="0px"
	 viewBox="0 0 410.09 438.26" style="enable-background:new 0 0 410.09 438.26;" xml:space="preserve">
<style type="text/css">
	.st0{display:none;}
	.st1{display:inline;fill:#85D0CB;}
	.st2{display:inline;}
	.st3{fill:#FFFFFF;}
	.st4{fill:none;stroke:#000000;stroke-linecap:round;stroke-linejoin:round;stroke-miterlimit:10;}
	.st5{font-family:'CarolGothic';}
	.st6{font-size:60.0333px;}
</style>
<g id="Layer_2" class="st0">
</g>
<g id="Layer_2_copy" class="st0">
</g>
<g id="Layer_1" class="st0">
</g>
<g id="Layer_3">
</g>
<g id="Layer_4">
</g>
<g id="Layer_1_copy">
</g>
<g id="Layer_6">
	<g>
		<path d="M176.26,222.56c0.32,0.13,0.67,0.2,0.95,0.39c1.17,0.78,2.32,1.59,3.48,2.39c0.1,0.07,0.19,0.14,0.29,0.2
			c4.01,2.2,8.03,4.38,12.53,5.45c0.63,0.15,1.26,0.3,1.86,0.52c2.54,0.93,5.19,1.42,7.84,1.92c0.57,0.11,1.17,0.06,1.75,0.08
			c0.28,0.01,0.56,0.04,0.8,0.05c0.12,0.4-0.05,0.55-0.31,0.54c-1.46-0.04-2.92,0-4.36-0.42c-0.95-0.28-1.95-0.38-2.91-0.64
			c-2.26-0.62-4.53-1.21-6.75-1.95c-2.95-0.98-5.8-2.26-8.5-3.79c-2.18-1.24-4.2-2.78-6.27-4.21c-0.17-0.12-0.25-0.38-0.37-0.58
			L176.26,222.56z"/>
		<g>
			<path d="M186.73,200.87c0.38,1.78,0.76,3.55,1.13,5.33c0.33,1.55,0.66,3.09,0.98,4.64c0.11,0.52,0.2,1.04,0.27,1.56
				c0.24,1.8,0.44,3.61,0.71,5.41c0.35,2.38,0.81,4.74,1.11,7.12c0.36,2.91,0.6,5.83,0.89,8.75c0.18,1.81,0.37,3.61,0.55,5.42
				c0.02,0.23,0.03,0.47-0.02,0.7c-0.03,0.14-0.24,0.38-0.29,0.36c-0.19-0.07-0.42-0.2-0.49-0.36c-0.1-0.26-0.12-0.58-0.11-0.86
				c0.11-3.18-0.57-6.3-0.83-9.45c-0.28-3.39-0.78-6.75-1.46-10.09c-0.27-1.32-0.35-2.67-0.55-4.01c-0.06-0.37-0.25-0.72-0.44-1.26
				c-0.3,0.39-0.48,0.61-0.65,0.83c-0.39,0.52-0.72,1.08-1.16,1.54c-1.89,2-3.79,3.99-5.94,5.73c-0.96,0.77-2.02,1.4-2.96,2.16
				c-1.73,1.39-3.52,2.72-5.29,4.06c-1.77,1.34-3.4,2.87-5.12,4.28c-0.5,0.41-0.74,0.89-0.79,1.49c-0.11,1.23-0.24,2.46-0.27,3.69
				c-0.04,1.58-0.04,3.17,0.02,4.75c0.1,2.58,0.23,5.16,0.42,7.73c0.06,0.87,0.35,1.72,0.51,2.59c0.37,2.03,1.03,3.96,1.89,5.84
				c0.8,1.75,1.48,3.57,2.22,5.35c0.07,0.16,0.14,0.33,0.23,0.48c1.2,1.94,2.19,4.01,3.71,5.75c0.96,1.1,1.82,2.29,2.73,3.44
				c0.84,1.06,1.67,2.12,2.93,2.73c0.31,0.15,0.56,0.42,0.83,0.64c2.41,2.01,5.17,3.42,8.05,4.6c0.48,0.2,1,0.29,1.48,0.42
				c0.06,0.36-0.15,0.45-0.39,0.45c-0.82-0.02-1.66,0.04-2.44-0.13c-1.55-0.33-3.07-0.76-4.59-1.2c-0.5-0.14-0.96-0.43-1.42-0.68
				c-0.62-0.33-1.22-0.68-2.02-1.12c0.05,0.37,0.01,0.6,0.11,0.74c0.27,0.38,0.55,0.76,0.9,1.07c2.15,1.9,4.32,3.78,6.48,5.66
				c0.13,0.12,0.27,0.23,0.42,0.32c2.43,1.35,4.06,3.51,5.71,5.65c1.66,2.16,2.31,4.68,2.76,7.31c-0.42,0.06-0.41-0.23-0.51-0.41
				c-0.87-1.68-2.02-3.16-3.24-4.58c-1.38-1.6-2.92-3.04-4.66-4.26c-0.62-0.43-1.28-0.81-1.92-1.22c-0.29-0.18-0.58-0.37-0.85-0.57
				c-0.14-0.1-0.24-0.26-0.38-0.36c-2.41-1.67-4.81-3.33-7.24-4.98c-0.43-0.29-0.92-0.48-1.36-0.71c-0.35,0.33-0.15,0.62-0.04,0.85
				c0.37,0.79,0.78,1.58,1.2,2.35c0.78,1.44,1.59,2.87,2.38,4.31c0.11,0.2,0.17,0.42,0.24,0.62c-0.33,0.31-0.48,0-0.57-0.14
				c-1.52-2.37-3.54-4.39-4.84-6.91c-0.13-0.26-0.31-0.5-0.51-0.72c-2.08-2.23-3.84-4.73-5.99-6.9c-1.44-1.45-2.88-2.91-4.4-4.29
				c-0.74-0.67-1.45-1.36-1.88-2.3c-0.12-0.26-0.32-0.49-0.52-0.71c-3.2-3.43-5.33-7.56-7.63-11.57c-1.09-1.9-1.68-4-2.56-5.98
				c-1.47-3.34-2.43-6.85-3.4-10.35c-0.84-3.06-1.33-6.19-1.53-9.36c-0.08-1.23-0.21-2.46-0.18-3.68c0.04-1.34,0.23-2.68,0.36-4.02
				c0.03-0.29,0.1-0.58,0.1-0.87c0.03-3.24,0.66-6.4,1.26-9.57c0.5-2.66,1.39-5.2,1.93-7.84c0.46-2.25,1.2-4.41,1.9-6.58
				c0.95-2.96,1.79-5.95,2.48-8.99c0.6-2.65,0.64-5.34,0.74-8.04c0.11-2.83-0.42-5.61-0.55-8.42c-0.01-0.16-0.12-0.31-0.17-0.43
				c-0.39-0.1-0.41,0.18-0.49,0.38c-0.34,0.94-0.63,1.89-1.01,2.81c-1.08,2.61-2.36,5.1-4.02,7.4c-1,1.38-1.91,2.81-2.85,4.23
				c-1.99,2.97-4,5.93-5.94,8.93c-1.05,1.63-1.74,3.44-2.26,5.32c-1.09,3.94-1.52,7.95-1.35,12.02c0.12,2.87,0.51,5.72,0.98,8.56
				c0.37,2.26,0.74,4.51,1.06,6.78c0.15,1.04,0.18,2.1,0.24,3.15c0.1,1.7,0.2,3.4,0.28,5.1c0.15,3.37-0.38,6.66-1.11,9.93
				c-0.51,2.31-1.51,4.43-2.39,6.59c-0.34,0.85-1.04,1.55-1.49,2.35c-2.38,4.21-4.13,8.65-4.91,13.46c-0.3,1.82-0.18,3.63-0.16,5.44
				c0.01,1.11,0.25,1.41,1.28,2.72c-0.17,0.13-0.34,0.38-0.5,0.37c-0.33-0.02-0.77-0.06-0.95-0.28c-0.83-0.98-1.62-2.01-1.96-3.29
				c-0.09-0.34-0.19-0.68-0.23-1.03c-0.24-2.27-0.64-4.55-0.63-6.82c0.01-1.97,0.12-4,0.76-5.91c0.66-2,1.38-3.99,2.08-5.98
				c0.37-1.04,0.88-2.05,0.67-3.22c-0.04-0.21,0.08-0.46,0.18-0.67c1.39-3.03,1.61-6.22,1.25-9.48c-0.24-2.21-0.57-4.42-0.78-6.63
				c-0.11-1.18-0.29-2.33-0.64-3.45c-0.07-0.22-0.08-0.48-0.2-0.67c-0.95-1.47-1.26-3.14-1.57-4.81c-0.3-1.56-0.78-3.06-1.41-4.52
				c-0.42-0.97-0.71-1.99-1.06-2.98c-0.57-1.66-1.22-3.31-1.69-4.99c-0.48-1.69-0.8-3.42-1.17-5.14c-0.14-0.63-0.23-1.26-0.35-1.9
				c-0.22-1.15-0.62-2.31-0.61-3.45c0.01-1.17-0.1-2.34-0.08-3.5c0.02-1.64,0.09-3.29,0.28-4.91c0.17-1.45,0.53-2.87,0.8-4.31
				c0.54-2.82,1.43-5.55,2.3-8.28c0.05-0.17,0.09-0.34,0.17-0.5c1.13-2.32,2.27-4.63,3.39-6.95c0.74-1.53,1.46-3.06,2.19-4.6
				c0.58-1.22,1.07-2.48,1.73-3.66c1.4-2.54,2.31-5.26,3.07-8.03c0.65-2.37,1.05-4.81,1.23-7.27c0.14-1.99,0.24-3.98,0.05-5.97
				c-0.17-1.75-0.34-3.49-0.52-5.24c-0.02-0.17-0.03-0.36-0.08-0.52c-0.66-2.02-0.71-4.14-1.14-6.2c-0.29-1.37-0.67-2.71-0.84-4.11
				c-0.12-0.99-0.26-1.96-0.21-2.97c0.05-0.92-0.09-1.87-0.25-2.78c-0.41-2.44-0.42-4.9-0.33-7.36c0.08-2.22,0.14-4.45,0.28-6.67
				c0.13-2.16,0.39-4.31,1.18-6.37c0.25-0.65,0.38-1.35,0.59-2.02c0.37-1.17,0.29-2.32-0.14-3.44c-0.43-1.11-0.59-2.26-0.69-3.44
				c-0.35-4.06-0.05-8.08,0.66-12.09c0.11-0.63,0.2-1.27,0.28-1.91c0.22-2,0.87-3.92,1.67-5.72c1.36-3.04,2.77-6.07,4.47-8.96
				c1.91-3.25,4.54-5.8,7.62-7.89c2.54-1.72,4.91-3.61,6.81-6.03c0.5-0.64,0.95-1.35,1.27-2.1c0.86-1.99,1.74-3.97,2.43-6.02
				c0.79-2.34,1.86-4.55,2.9-6.77c1.26-2.69,3.34-4.64,5.68-6.36c1.56-1.15,3.41-1.51,5.28-1.76c0.29-0.04,0.58-0.05,0.94-0.08
				c0.23-0.39,0.49-0.78,0.69-1.19c0.85-1.74,1.81-3.4,3.15-4.83c1.04-1.11,1.93-2.35,2.91-3.52c1.19-1.42,2.73-2.42,4.32-3.28
				c2.06-1.11,4.17-2.15,6.47-2.69c1.25-0.29,2.52-0.49,3.79-0.71c0.75-0.13,1.51-0.25,2.27-0.28c1.59-0.07,3.17,0.05,4.7,0.52
				c1.73,0.53,3.46,1.1,5.16,1.75c0.94,0.36,1.71,0.37,2.63-0.17c1.26-0.74,2.64-1.25,3.98-1.86c0.91-0.41,1.85-0.76,2.71-1.25
				c1.38-0.78,2.83-1.38,4.31-1.97c3.27-1.33,6.64-1.81,10.14-1.75c2.96,0.05,5.82,0.71,8.68,1.31c1.66,0.35,3.27,0.91,4.89,1.4
				c0.39,0.12,0.78,0.29,1.12,0.51c2.11,1.38,4.3,2.67,5.95,4.61c0.86,1.02,1.55,2.2,2.26,3.34c0.65,1.04,1.22,2.14,1.86,3.19
				c0.55,0.91,1.05,1.83,1.25,2.89c0.15,0.8,0.59,1.37,1.34,1.74c0.58,0.29,1.09,0.7,1.67,0.98c1.66,0.8,3.07,1.95,4.39,3.2
				c2.56,2.43,4.94,5.02,6.95,7.92c1.08,1.55,1.83,3.26,2.4,5.07c1.17,3.69,1.21,7.4,0.27,11.1c-0.34,1.35-0.98,2.64-1.6,3.89
				c-0.78,1.59-2.16,2.59-3.72,3.36c-2.27,1.13-4.6,1.75-7.13,0.99c-0.59-0.18-1.1-0.13-1.64,0.27c-1.6,1.19-1.78,1.19-3.81,0.57
				c-0.32,0.23-0.74,0.44-1.05,0.77c-0.53,0.56-1.15,0.77-1.9,0.7c-0.93-0.09-1.72,0.17-2.37,0.88c-0.27,0.3-0.63,0.53-0.97,0.75
				c-0.71,0.48-1.63,0.44-2.29-0.09c-0.27-0.22-0.55-0.46-0.73-0.75c-0.77-1.18-1.52-2.36-1.95-3.73c-0.49-1.55-1.84-2.19-3.29-1.52
				c-1.9,0.87-3.04,2.36-3.14,4.5c-0.1,2.07,0.32,4.1,0.79,6.09c0.31,1.32,0.5,2.64,0.64,3.98c0.24,2.35-0.32,4.55-1.11,6.7
				c-0.82,2.22-2.03,4.25-3.8,5.86c-1.75,1.59-3.72,2.86-6.05,3.44c-2.33,0.58-4.68,1.09-7.01,1.69c-1.64,0.43-3.26,0.93-4.87,1.47
				c-1.4,0.47-2.7,1.18-3.73,2.26c-0.42,0.44-0.87,0.39-1.42,0.36c0.5-0.49,0.97-1,1.5-1.45c2.45-2.05,5.12-3.7,8.19-4.68
				c1.06-0.34,2.1-0.74,3.09-1.25c1.15-0.59,2.13-1.47,3-2.43c1.86-2.05,3.53-4.21,4.51-6.86c0.63-1.7,0.81-3.41,0.64-5.18
				c-0.18-1.89-0.78-3.68-1.51-5.4c-1.1-2.61-1.28-5.35-1.27-8.11c0-0.92,0.3-1.85,0.51-2.76c0.13-0.56,0.42-1.08,0.29-1.77
				c-0.93-0.09-1.85-0.17-2.81-0.26c-0.38,0.23-0.77,0.48-1.18,0.71c-1.75,0.97-3.02,0.69-4.24-0.94c-0.13-0.18-0.3-0.33-0.56-0.61
				c-0.28,0.63-0.58,1.14-0.75,1.68c-0.96,3.21-2.17,6.32-3.46,9.4c-0.25,0.6-0.49,1.2-0.66,1.82c-0.19,0.69-0.47,1.31-0.84,1.92
				c-0.28,0.45-0.47,0.94-0.69,1.42c-0.35,0.74-0.64,1.52-1.06,2.21c-1.01,1.64-2.1,3.23-3.15,4.85c-1.51,2.32-3.3,4.41-5.12,6.48
				c-1.09,1.25-2.34,2.32-3.75,3.16c-1.76,1.05-3.57,2.03-5.34,3.07c-1.06,0.62-2.07,1.32-3.12,1.96c-0.35,0.22-0.71,0.45-1.09,0.56
				c-2.27,0.64-4.32,1.82-6.51,2.66c-1.85,0.72-3.7,1.47-5.53,2.24c-2.33,0.98-4.55,2.17-6.74,3.43c-0.15,0.09-0.3,0.19-0.42,0.31
				c-1.75,1.73-3.62,3.34-5.13,5.31c-0.68,0.89-1,1.8-0.9,2.93c0.24,2.56,0.12,5.14,0.56,7.69c0.3,1.73,0.31,3.51,0.58,5.24
				c0.33,2.08,0.82,4.14,1.21,6.22c0.27,1.44,0.54,2.88,0.72,4.33c0.34,2.75,1.03,5.41,1.81,8.05c0.86,2.93,1.98,5.74,3.37,8.48
				c1.17,2.3,2.36,4.58,3.7,6.79c0.21,0.35,0.47,0.67,0.72,0.99c0.74,0.91,1.49,1.8,2.21,2.72c0.12,0.15,0.12,0.43,0.11,0.65
				c-0.01,0.24-0.35,0.39-0.53,0.26c-0.14-0.1-0.3-0.2-0.4-0.33c-1.17-1.61-2.33-3.24-3.5-4.85c-1.11-1.53-1.89-3.24-2.65-4.95
				c-0.43-0.95-0.9-1.88-1.57-2.89c-0.11,0.28-0.22,0.41-0.2,0.53c0.28,1.68,0.6,3.35,0.88,5.02c0.43,2.61,1.01,5.18,1.63,7.74
				c0.72,2.96,1.25,5.97,2.04,8.92c0.97,3.62,1.53,7.34,2.73,10.91c0.78,2.33,1.37,4.73,2.27,7.02c1.05,2.67,2.02,5.38,3.21,7.99
				c1.68,3.68,3.43,7.33,5.68,10.7c0.36,0.53,0.77,1.03,1.15,1.55c0.31,0.42,0.66,0.83,0.9,1.29c0.96,1.83,2.22,3.44,3.54,5.02
				c1.17,1.39,2.26,2.85,3.47,4.21c1.13,1.27,2.36,2.43,3.55,3.65c0.49,0.5,0.96,1.02,1.47,1.56c-0.48,0.19-0.62-0.21-0.81-0.4
				c-2.02-2.04-4.11-4.03-6.01-6.18c-2.13-2.41-4.28-4.82-5.98-7.59c-0.98-1.6-2.16-3.08-3.12-4.69c-1.17-1.96-2.2-4-3.29-6.01
				c-0.22-0.4-0.36-0.9-0.96-0.88c0.01-0.11,0.01-0.21,0.02-0.31C186.74,200.68,186.74,200.78,186.73,200.87z M190.08,89.42
				c-0.17,0-0.34-0.02-0.51,0c-0.04,0.01-0.07,0.15-0.1,0.23c0.06,0.01,0.13,0.04,0.17,0.02c0.14-0.09,0.27-0.2,0.4-0.3
				c0.11,0,0.22,0.03,0.32,0c0.08-0.02,0.14-0.11,0.22-0.17c-0.09-0.04-0.23-0.14-0.27-0.11C190.21,89.17,190.15,89.3,190.08,89.42z
				 M236.08,59c0.38,0.16,0.48-0.13,0.61-0.38c0.02-0.04,0.01-0.14-0.01-0.15c-0.09-0.02-0.25-0.06-0.27-0.03
				c-0.11,0.18-0.19,0.39-0.28,0.59c-0.06,0.13-0.13,0.25-0.19,0.38c0,0.01,0.07,0.05,0.11,0.07
				C236.06,59.33,236.07,59.16,236.08,59z M198.47,85.13c-1.03,0.17-1.85,0.68-2.65,1.63c1.51-0.53,1.88-0.75,2.63-1.5
				c0.03-0.03,0-0.11,0-0.17c0.35-0.02,0.71-0.04,1.06-0.06c0.76-0.61,1.5-1.24,2.29-1.82c0.51-0.37,0.9-0.82,1.21-1.37
				c-0.89,0.53-1.72,1.14-2.54,1.75c-0.37,0.28-0.72,0.59-1.07,0.88c0.04,0.21,0.08,0.38,0.11,0.55
				C199.15,85,198.78,84.67,198.47,85.13z M216.16,59.5c-0.21,0.17-0.51,0.31-0.62,0.53c-1.31,2.68-2.67,5.34-3.86,8.07
				c-1.41,3.22-2.62,6.52-4.96,9.23c-0.38,0.44-0.62,0.99-0.92,1.5c-0.11,0.19-0.26,0.38,0.04,0.56c0.14-0.1,0.31-0.18,0.41-0.31
				c2.4-2.96,4.66-6.02,6.45-9.39c0.63-1.19,1.24-2.41,1.63-3.69c0.36-1.18,0.84-2.3,1.22-3.47c0.33-0.99,0.67-1.99,0.57-3.07
				c0.03-0.08,0.06-0.17,0.09-0.25C216.19,59.31,216.17,59.4,216.16,59.5z M184.74,27.37c-1.34,0.53-2.28,1.59-3.37,2.47
				c-2.46,1.98-4.3,4.48-6.03,7.05c-1.1,1.65-2.08,3.41-2.87,5.23c-0.81,1.87-1.66,3.73-2.46,5.62c-0.02,0.05-0.04,0.11-0.06,0.17
				c-0.76,2.22-1.52,4.43-2.26,6.65c-0.08,0.23-0.05,0.5-0.1,1.14c0.43-0.59,0.66-0.84,0.82-1.14c0.64-1.18,1.29-2.36,1.87-3.58
				c0.53-1.11,1.14-2.21,1.41-3.39c0.35-1.52,1.4-2.69,1.77-4.17c1.61-2.79,3.21-5.59,4.84-8.36c0.38-0.65,0.83-1.28,1.32-1.86
				c1.48-1.73,2.9-3.53,4.7-4.97c0.26-0.21,0.56-0.46,0.37-0.88c0.8-0.22,0.8-0.22,1.22-0.86
				C185.33,26.54,185.06,26.99,184.74,27.37z M178.7,57.59c0.49,0.2,0.81-0.13,1.05-0.43c0.48-0.59,0.86-1.26,1.33-1.85
				c1.45-1.84,2.67-3.82,3.77-5.88c0.55-1.02,1.11-2.05,1.65-3.07c0.57-1.08,0.86-2.3,1.73-3.23c0.26-0.27,0.37-0.74,0.42-1.13
				c0.21-1.59,0.72-3.08,1.51-4.47c0.11-0.2,0.21-0.42-0.12-0.64c-0.16,0.08-0.39,0.15-0.56,0.29c-0.41,0.33-0.83,0.66-1.17,1.05
				c-1.22,1.42-2.5,2.8-3.57,4.33c-0.86,1.23-1.58,2.6-2.14,4.01c-0.73,1.85-1.22,3.78-1.84,5.67c-0.27,0.83-0.59,1.64-0.9,2.46
				c-0.37,0.98-0.74,1.96-1.11,2.94c-0.02,0.09-0.34,0.15-0.03,0.27C178.71,57.8,178.71,57.7,178.7,57.59z M184.17,91.29
				c-0.29,0.17-0.57,0.4-0.88,0.51c-1.21,0.42-2.47,0.72-3.65,1.22c-1.67,0.71-3.31,1.5-4.92,2.36c-5.5,2.94-10.14,6.95-14.31,11.54
				c-0.52,0.57-0.9,1.18-1.03,1.99c-0.09,0.55-0.43,1.08-0.76,1.55c-1.62,2.32-2.9,4.81-3.86,7.47c-0.76,2.09-1.48,4.2-2.22,6.3
				c-0.55,1.56-0.95,3.13-0.9,4.81c0.05,1.93,0,3.87,0,5.8c0,0.47,0.02,0.94,0.08,1.4c0.29,2.15,0.68,4.28,0.88,6.44
				c0.14,1.49,0.68,2.84,1.02,4.26c0.02,0.08,0.17,0.13,0.38,0.27c0.13-0.97,0.19-1.88,0.2-2.79c0.06-4.35,0.52-8.66,1.11-12.95
				c0.39-2.84,0.92-5.67,1.44-8.49c0.52-2.84,1.44-5.57,2.79-8.12c0.93-1.76,2.08-3.4,3.01-5.15c1.43-2.68,3.43-4.89,5.56-6.99
				c0.69-0.68,1.27-1.56,2.35-1.77c0.24-0.05,0.43-0.38,0.63-0.58c0.25-0.24,0.47-0.53,0.75-0.73c1.97-1.37,3.93-2.77,5.95-4.07
				c1.48-0.95,3.04-1.76,4.56-2.65c0.56-0.32,1.11-0.65,1.63-1.03C184.13,91.8,184.11,91.5,184.17,91.29
				c0.12,0.04,0.25,0.08,0.37,0.12c0-0.01,0.01-0.02,0.01-0.03C184.43,91.35,184.3,91.32,184.17,91.29z M233.72,33.4
				c-0.74-0.13-1.42,0.1-2.02,0.47c-1.6,0.97-3.57,1.22-4.98,2.55c-0.12,0.11-0.32,0.13-0.48,0.21c-1.21,0.59-2.47,1.1-3.62,1.79
				c-1.66,0.99-3.26,2.07-4.59,3.52c-0.83,0.9-1.8,1.68-2.67,2.55c-1.32,1.33-2.76,2.55-3.76,4.16c-1.15,1.84-2.3,3.67-3.34,5.57
				c-0.67,1.23-1.22,2.54-1.7,3.85c-0.77,2.08-1.43,4.21-2.18,6.3c-0.39,1.09-1.08,2.07-1.11,3.29c-0.01,0.27-0.22,0.54-0.33,0.81
				c-1.51,3.52-4.14,6.07-7.22,8.2c-2.07,1.43-4.39,2.48-6.35,4.09c-0.18,0.15-0.39,0.26-0.59,0.37c-1.12,0.63-2.26,1.22-3.36,1.88
				c-1.01,0.6-1.98,1.24-3.08,1.69c-1.74,0.7-3.45,1.48-4.9,2.72c-0.13,0.11-0.3,0.19-0.45,0.27c-3.26,1.78-6.15,4.09-9.06,6.37
				c-0.2,0.16-0.51,0.32-0.31,0.81c1.59-0.86,3.17-1.71,4.74-2.57c0.46-0.25,0.9-0.54,1.37-0.77c2.84-1.4,5.81-2.5,8.81-3.5
				c3.18-1.06,6.29-2.24,8.92-4.4c0.31-0.26,0.7-0.43,1.04-0.65c3.14-1.98,6.1-4.18,8.53-7c1.26-1.47,2.55-2.92,3.68-4.48
				c0.78-1.08,1.35-2.32,1.95-3.52c0.55-1.1,0.95-2.28,1.55-3.35c0.75-1.33,1.53-2.62,1.9-4.12c0.08-0.33,0.28-0.64,0.44-0.95
				c1.25-2.45,2.59-4.85,3.59-7.43c0.68-1.73,1.4-3.47,2.65-4.94c1.13-1.34,2.11-2.81,3.19-4.2c0.47-0.6,0.96-1.19,1.54-1.68
				c1.2-1.03,2.44-2.02,3.7-2.98c1.92-1.46,4.01-2.63,6.2-3.65c0.78-0.37,1.5-0.86,2.25-1.3c0.11,0,0.22,0,0.33-0.01
				c0.05-0.01,0.09-0.06,0.13-0.09c-0.09-0.04-0.2-0.13-0.26-0.1C233.8,33.18,233.77,33.31,233.72,33.4z M139.64,138.96
				c0.12,0,0.23,0,0.35-0.01c0.03-0.28,0.15-0.6,0.06-0.85c-0.32-0.91-0.23-1.85-0.3-2.78c-0.1-1.28-0.25-2.56-0.34-3.85
				c-0.04-0.58,0.02-1.17,0-1.76c-0.06-1.64-0.11-3.28-0.23-4.91c-0.07-0.99-0.33-1.96-0.39-2.95c-0.07-1.11-0.17-2.25,0.03-3.33
				c0.28-1.5,0.39-3.02,0.48-4.53c0.18-2.99,0.56-5.92,1.53-8.78c0.91-2.67,1.93-5.27,3.27-7.76c1.93-3.61,4.45-6.73,7.48-9.46
				c1.13-1.02,2.33-1.96,3.49-2.94c1.35-1.13,2.67-2.28,4.04-3.39c1.82-1.47,3.68-2.91,5.53-4.34c1.06-0.82,2.11-1.68,3.23-2.41
				c1.61-1.06,3.23-2.11,4.85-3.16c3.05-1.99,5.8-4.38,8.79-6.44c0.48-0.33,0.96-0.68,1.38-1.08c2.11-2.03,4.33-3.94,6.27-6.15
				c1.26-1.43,2.3-2.95,3.1-4.66c0.47-1.01,0.92-2.03,1.35-3.06c1.09-2.65,2.12-5.33,3.25-7.97c0.92-2.15,1.83-4.32,2.94-6.37
				c0.8-1.49,1.92-2.8,2.87-4.2c0.24-0.36,0.69-0.61,0.66-1.27c-0.27,0.08-0.49,0.1-0.67,0.21c-2.94,1.85-5.31,4.27-6.85,7.38
				c-1.12,2.25-2.06,4.6-2.9,6.97c-0.84,2.39-1.81,4.71-3.07,6.89c-1.28,2.23-2.63,4.46-4.2,6.49c-1.53,1.99-3.28,3.85-5.12,5.55
				c-2.81,2.59-6.22,4.37-9.37,6.5c-1.89,1.27-3.96,2.27-6,3.31c-3.58,1.83-6.74,4.24-9.68,6.95c-0.9,0.83-1.82,1.68-2.84,2.36
				c-1.44,0.95-2.64,2.13-3.79,3.38c-0.59,0.64-1.14,1.34-1.68,2.03c-1.44,1.85-2.95,3.65-4.04,5.75c-0.78,1.5-1.6,2.99-2.42,4.47
				c-0.31,0.56-0.74,1.07-0.95,1.66c-0.58,1.66-1.05,3.35-1.61,5.02c-0.59,1.74-0.71,3.56-0.85,5.36c-0.2,2.5-0.29,5.01-0.36,7.52
				c-0.04,1.58-0.04,3.17,0.07,4.74c0.1,1.46,0.35,2.9,0.54,4.35c0.17,1.28,0.3,2.56,0.52,3.83c0.29,1.67,0.65,3.33,0.96,5
				C139.18,137.18,139.4,138.07,139.64,138.96z M143.88,135.34c0.15-0.28,0.28-0.42,0.29-0.57c0.06-0.76,0.13-1.52,0.14-2.28
				c0.04-2.17,0.04-4.33,0.08-6.5c0.01-0.58,0.08-1.16,0.2-1.73c0.53-2.46,0.64-5,1.43-7.4c0.02-0.05,0-0.12,0.01-0.17
				c0.37-1.41,0.6-2.87,1.13-4.21c0.97-2.44,2.15-4.79,2.52-7.44c0.07-0.5,0.34-1,0.6-1.46c1.35-2.46,2.58-5,4.63-7
				c0.5-0.49,0.94-1.05,1.36-1.61c2.42-3.2,5.37-5.84,8.54-8.26c2.56-1.96,5.31-3.66,7.68-5.86c0.56-0.52,1.12-1.03,1.71-1.51
				c2.47-2.07,5.08-3.98,7.38-6.25c0.92-0.9,1.84-1.82,2.84-2.62c1.34-1.07,2.36-2.44,3.62-3.57c0.35-0.31,0.62-0.7,0.91-1.07
				c0.12-0.16,0.33-0.36,0.05-0.68c-0.17,0.08-0.4,0.14-0.55,0.28c-0.57,0.5-1.12,1.04-1.67,1.56c-0.81,0.76-1.53,1.67-2.45,2.24
				c-1.55,0.95-2.9,2.17-4.44,3.14c-1.38,0.86-2.76,1.75-4.12,2.66c-2.23,1.5-4.5,2.94-6.58,4.67c-1.44,1.19-3.08,2.13-4.36,3.53
				c-0.04,0.04-0.09,0.07-0.15,0.09c-1.32,0.59-2.25,1.67-3.25,2.66c-1.17,1.15-2.35,2.29-3.5,3.46c-1.8,1.84-3.63,3.66-5.35,5.57
				c-2.36,2.63-4.22,5.61-5.72,8.81c-1.34,2.88-2.3,5.89-2.89,9.02c-0.18,0.98-0.25,1.98-0.48,2.94c-0.28,1.21-0.38,2.43-0.41,3.66
				c-0.01,0.35,0.03,0.71-0.01,1.05c-0.23,2.45-0.32,4.9-0.04,7.36c0.06,0.52,0.02,1.06,0.05,1.58c0.03,0.58,0.09,1.17,0.14,1.75
				c0.06,0.76,0.13,1.51,0.18,2.27C143.46,134.05,143.51,134.66,143.88,135.34z M153.71,240.81c0.11-0.74,0.07-1.49-0.04-2.24
				c-0.31-2.16-0.3-4.32,0.02-6.48c0.37-2.49,0.79-4.98,1.05-7.49c0.32-3.1,0.79-6.16,1.61-9.16c0.63-2.32,1.29-4.63,1.97-6.93
				c0.59-1.96,1.26-3.89,1.7-5.9c0.27-1.26,0.6-2.5,0.94-3.74c0.57-2.03,1.02-4.08,1.73-6.07c0.79-2.22,0.93-4.59,1.37-6.88
				c0.32-1.62,0.41-3.25,0.27-4.9c-0.17-2.05-0.52-4.06-1.07-6.03c-0.06-0.2-0.16-0.39-0.31-0.74c-0.51,0.59-0.52,1.16-0.6,1.72
				c-0.31,2.32-0.62,4.64-0.97,6.96c-0.18,1.16-0.35,2.33-0.68,3.45c-0.69,2.37-0.84,4.84-1.61,7.19c-0.43,1.33-0.75,2.7-1,4.08
				c-0.37,2-1.34,3.88-1.22,5.99c0.02,0.28-0.12,0.57-0.21,0.85c-0.38,1.29-0.72,2.6-1.17,3.87c-0.91,2.54-1.11,5.27-2.06,7.8
				c-0.04,0.11-0.03,0.23-0.05,0.35c-0.2,0.91-0.43,1.82-0.59,2.74c-0.34,1.9-0.8,3.79-0.93,5.71c-0.17,2.57-0.09,5.15-0.1,7.73
				c-0.01,2.54,0.45,5.01,1.21,7.43C153.1,240.45,153.16,240.82,153.71,240.81z M168.19,141.7c-0.11-0.02-0.22-0.04-0.33-0.06
				c-0.08,0.26-0.21,0.52-0.22,0.79c-0.03,1.22-0.05,2.44-0.02,3.66c0.04,1.34,0.16,2.69,0.24,4.03c0.05,0.83,0.19,1.62,0.73,2.3
				c0.17,0.22,0.3,0.51,0.35,0.79c0.32,1.67,0.63,3.34,0.9,5.01c0.25,1.62,0.44,3.25,0.64,4.87c0.18,1.45,0.41,2.9,0.47,4.36
				c0.08,2.22,0.02,4.45,0.02,6.67c0,1.05,0.07,2.11-0.01,3.16c-0.11,1.46-0.3,2.91-0.51,4.36c-0.15,1.04-0.36,2.08-0.59,3.11
				c-0.34,1.54-0.75,3.07-1.09,4.61c-0.48,2.18-0.9,4.36-1.73,6.45c-0.41,1.03-0.77,2.09-1.14,3.13c-0.44,1.27-0.87,2.55-1.3,3.82
				c-0.76,2.27-1.56,4.54-2.25,6.83c-0.59,1.96-1.05,3.96-1.55,5.95c-0.42,1.7-1.04,3.34-1.18,5.13c-0.21,2.75-0.61,5.48-0.84,8.22
				c-0.22,2.57-0.41,5.14-0.44,7.72c-0.02,1.57,0.29,3.15,0.41,4.72c0.24,3.31,1.21,6.43,2.4,9.5c0.13,0.34,0.22,0.73,0.71,0.89
				c0.21-0.9-0.13-1.62-0.39-2.31c-0.56-1.49-0.71-3.07-1.12-4.59c-0.06-0.22-0.03-0.46-0.03-0.69c-0.01-0.58-0.01-1.16-0.01-1.74
				c0-0.7-0.02-1.4,0-2.1c0.02-0.47,0.16-0.94,0.13-1.4c-0.16-2.7-0.03-5.39,0.13-8.08c0.02-0.35,0.02-0.7,0-1.05
				c-0.07-2.24,0.39-4.42,0.74-6.62c0.09-0.58,0.22-1.15,0.34-1.72c0.18-0.86,0.35-1.71,0.55-2.56c0.08-0.34,0.25-0.66,0.3-1.01
				c0.36-2.07,0.76-4.13,1.46-6.13c0.13-0.38,0.12-0.81,0.19-1.21c0.07-0.46,0.11-0.94,0.23-1.39c0.84-3.04,1.69-6.09,2.56-9.12
				c0.28-0.96,0.68-1.87,0.96-2.83c0.77-2.64,1.45-5.3,2.25-7.93c0.91-2.98,1.36-6.05,1.88-9.11c0.05-0.29,0.08-0.58,0.08-0.88
				c0.02-1.93-0.01-3.87,0.04-5.8c0.05-2.41-0.38-4.78-0.53-7.17c-0.12-1.87-0.62-3.68-0.68-5.56c-0.04-1.28-0.24-2.56-0.46-3.82
				c-0.23-1.32-0.68-2.6-0.51-3.98c0.04-0.34-0.03-0.71-0.11-1.05c-0.5-2.23-0.39-4.56-1.18-6.74c-0.06-0.16-0.05-0.35-0.08-0.52
				C168.46,143.66,168.32,142.68,168.19,141.7z M144.87,143.68c-0.32,0.5-0.54,0.72-0.6,0.96c-0.14,0.63-0.22,1.27-0.3,1.91
				c-0.17,1.33-0.21,2.7-0.51,4c-0.35,1.53-0.63,3.08-1.17,4.58c-0.79,2.2-1.58,4.41-2.55,6.53c-0.9,1.96-1.88,3.89-2.91,5.8
				c-1.69,3.14-3.18,6.39-4.74,9.61c-0.79,1.63-1.56,3.28-2.28,4.94c-0.44,1.02-0.69,2.12-1.17,3.11c-1.17,2.4-1.59,5.01-2.27,7.55
				c-0.51,1.9-0.74,3.9-0.76,5.89c-0.01,0.79-0.16,1.59,0.14,2.55c0.27-0.27,0.49-0.39,0.55-0.57c0.12-0.33,0.14-0.68,0.2-1.03
				c0.34-1.96,0.55-3.95,1.06-5.87c0.48-1.8,1.16-3.57,1.97-5.26c1.21-2.52,2.52-5,3.93-7.42c1.11-1.91,1.86-4.03,3.26-5.78
				c0.21-0.27,0.3-0.64,0.46-0.95c0.27-0.52,0.55-1.03,0.83-1.54c0.2-0.36,0.44-0.69,0.61-1.06c0.88-1.78,1.66-3.62,2.63-5.35
				c1.03-1.84,2.03-3.69,2.66-5.71c0.07-0.22,0.14-0.45,0.26-0.65c0.84-1.5,1.26-3.14,1.61-4.81c0.12-0.57,0.2-1.17,0.16-1.74
				c-0.17-2.34-0.38-4.67-0.6-7.01C145.25,145.58,145.06,144.79,144.87,143.68z M164.55,117.49c-0.17,0.16-0.34,0.25-0.39,0.38
				c-0.51,1.5-1.1,2.98-1.47,4.51c-0.74,3.07-1.43,6.16-1.8,9.3c-0.08,0.64-0.09,1.29-0.2,1.92c-0.49,2.6-0.56,5.23-0.63,7.87
				c-0.09,3.24,0.5,6.42,0.94,9.6c0.39,2.85,1.41,5.55,2.25,8.29c0.18,0.59,0.43,1.18,1.09,1.72c0.09-1.06,0.04-1.92-0.09-2.78
				c-0.46-3.14-0.57-6.3-0.57-9.46c0-1.46,0.3-2.94,0.13-4.38c-0.28-2.31,0.21-4.55,0.34-6.81c0.1-1.75,0.37-3.49,0.45-5.24
				c0.13-2.87,0.08-5.74,0.25-8.6c0.12-1.94-0.06-3.86-0.11-5.79C164.73,117.87,164.63,117.72,164.55,117.49z M217.89,35.07
				c-0.57,0.27-0.77,0.33-0.94,0.45c-2.53,1.63-4.72,3.66-6.81,5.8c-1.51,1.55-2.93,3.2-4.43,4.76c-0.75,0.77-1.32,1.62-1.72,2.62
				c-0.74,1.85-1.71,3.58-2.8,5.25c-0.63,0.97-1.08,2.07-1.55,3.14c-0.73,1.66-1.35,3.36-2.12,5c-0.57,1.22-1.34,2.34-1.94,3.54
				c-0.85,1.69-1.98,3.2-3.23,4.58c-2.84,3.12-5.76,6.16-9.12,8.74c-0.24,0.18-0.59,0.39-0.37,0.91c0.27-0.1,0.55-0.16,0.79-0.3
				c1.06-0.61,2.17-1.17,3.16-1.88c2.52-1.8,5.03-3.59,7.31-5.73c3.78-3.54,6.27-7.82,7.85-12.7c0.52-1.62,1.06-3.23,1.67-4.81
				c0.36-0.92,0.82-1.82,1.33-2.67c1.26-2.11,2.53-4.22,3.87-6.28c0.73-1.13,1.51-2.25,2.43-3.22c1.97-2.08,3.75-4.35,5.97-6.19
				C217.42,35.91,217.52,35.64,217.89,35.07z M235.4,39.53c0.29,0.02,0.41,0.05,0.51,0.02c3.11-0.92,6.33-1.26,9.54-1.41
				c3.19-0.15,6.29,0.53,9.23,1.82c2.49,1.09,4.58,2.72,5.96,5.03c1.69,2.84,2.82,5.92,2.74,9.33c-0.03,1.15,0.09,2.31,0.3,3.51
				c0.25-0.1,0.48-0.12,0.54-0.23c0.59-1.02,1.1-2.06,1.24-3.26c0.38-3.21-0.01-6.33-1.15-9.33c-0.83-2.21-1.87-4.32-4.02-5.61
				c-0.1-0.06-0.18-0.15-0.26-0.24c-2.02-2.22-4.77-2.84-7.55-3.37c-0.74-0.14-1.52-0.29-2.25-0.22c-0.89,0.09-1.75-0.07-2.62-0.08
				c-0.75-0.01-1.52,0.05-2.25,0.22c-0.97,0.22-1.9,0.58-2.86,0.84C240.08,37.22,237.69,37.97,235.4,39.53z M201.47,44.67
				c0.4-0.45,0.56-0.6,0.68-0.77c1.95-2.71,4.1-5.26,6.35-7.72c1.26-1.38,2.62-2.67,3.94-4c0.16-0.16,0.34-0.34,0.55-0.43
				c1.18-0.56,2.19-1.34,3.14-2.23c0.25-0.24,0.56-0.43,0.87-0.59c2.18-1.12,4.37-2.23,6.55-3.35c0.2-0.1,0.37-0.27,0.64-0.47
				c-0.26-0.17-0.43-0.39-0.62-0.4c-1.81-0.12-3.63-0.17-5.35,0.53c-2.49,1.02-4.92,2.16-7.03,3.87c-3.22,2.61-5.91,5.69-7.88,9.34
				C202.37,40.23,201.55,42.13,201.47,44.67z M165.16,230.21c0.39-0.53,0.51-1.14,0.63-1.75c0.62-3.04,1.15-6.11,2.07-9.08
				c0.33-1.06,0.51-2.16,0.8-3.24c0.58-2.21,1.06-4.46,1.82-6.6c1.32-3.7,2.21-7.53,3.36-11.28c0.68-2.23,0.99-4.58,1.47-6.87
				c0.15-0.69,0.24-1.4,0.49-2.05c0.51-1.33,0.73-2.72,0.86-4.12c0.28-2.97,0.74-5.93,0.7-8.92c-0.03-1.93-0.22-3.86-0.36-5.79
				c-0.02-0.28-0.11-0.57-0.61-0.5c-0.03,0.62-0.09,1.26-0.09,1.9c0.01,2.17,0.02,4.34-0.39,6.49c-0.14,0.75-0.22,1.51-0.33,2.26
				c-0.33,2.38-0.61,4.76-1.01,7.13c-0.34,2.02-0.74,4.04-1.26,6.02c-1.15,4.42-2.4,8.82-3.59,13.23c-0.9,3.34-1.69,6.7-2.3,10.11
				c-0.25,1.38-0.57,2.75-0.89,4.12c-0.44,1.94-0.93,3.87-1.35,5.82C164.98,228.11,165.01,229.15,165.16,230.21z M167.89,64.05
				c0.2-0.08,0.44-0.12,0.59-0.26c0.47-0.43,0.93-0.89,1.36-1.37c1.14-1.26,2.19-2.59,3.11-4.02c0.44-0.69,0.96-1.32,1.37-2.03
				c0.5-0.86,0.95-1.75,1.38-2.64c0.38-0.79,0.73-1.59,1.05-2.41c0.64-1.62,1.1-3.31,1.58-4.98c0.56-1.94,1.37-3.86,2.6-5.53
				c0.84-1.13,1.67-2.26,2.51-3.38c1.76-2.34,3.49-4.7,5.87-6.48c0.16-0.12,0.44-0.26,0.19-0.54c-0.12,0.03-0.24,0.04-0.34,0.09
				c-0.74,0.36-1.38,0.85-2,1.4c-1.53,1.36-3.07,2.7-4.17,4.47c-0.15,0.25-0.35,0.47-0.55,0.68c-1.04,1.13-1.9,2.38-2.68,3.69
				c-0.87,1.46-1.73,2.92-2.53,4.41c-1.12,2.11-2.02,4.33-3.06,6.49c-0.78,1.63-1.46,3.31-2.36,4.89c-0.29,0.51-0.55,1.04-0.79,1.57
				c-0.54,1.18-1.18,2.29-2.01,3.29C168.43,62.13,168.05,62.97,167.89,64.05z M252.33,58.37c-0.03-0.52,0.01-0.71-0.05-0.85
				c-0.36-0.83-0.99-1.44-1.71-1.97c-3.14-2.29-6.59-3.11-10.46-2.55c-2.44,0.35-4.22,1.59-5.7,3.44c-1.16,1.45-1.8,3.14-2.08,4.96
				c-0.5,3.13-0.36,6.18,0.97,9.12c0.41,0.91,0.83,1.83,1.06,2.79c0.6,2.42,0.64,4.87,0.02,7.3c-0.14,0.57-0.3,1.13-0.43,1.7
				c-0.05,0.21-0.12,0.47,0.31,0.59c0.12-0.11,0.32-0.23,0.45-0.4c1.14-1.6,1.51-3.44,1.35-5.33c-0.17-1.98-0.57-3.94-0.9-5.9
				c-0.08-0.46-0.3-0.89-0.44-1.33c-0.36-1.11-0.74-2.22-1.06-3.34c-0.45-1.6-0.69-3.21-0.02-4.82c0.13-0.32,0.16-0.68,0.22-1.03
				c0.26-1.49,1.22-2.65,1.85-3.96c0.09-0.2,0.32-0.34,0.49-0.49c1.93-1.71,4.24-2.47,6.76-2.52c2.9-0.06,5.58,0.6,7.65,2.85
				C251.09,57.14,251.59,57.62,252.33,58.37z M162,56.78c-1.34,1.38-2.7,2.75-4.02,4.15c-1.04,1.1-2.23,2.07-3,3.41
				c-0.19,0.34-0.55,0.63-0.9,0.82c-1.05,0.57-1.59,1.51-2.05,2.53c-0.59,1.34-1.18,2.67-1.72,4.02c-0.13,0.34-0.45,0.73-0.13,1.14
				c0.12,0.01,0.27,0.08,0.33,0.03c2.96-2.66,5.67-5.56,7.9-8.86C159.9,61.81,161.04,59.38,162,56.78z M137.42,182.63
				c1.26-1.25,2.13-2.49,3.07-3.68c1.46-1.85,2.73-3.81,4-5.77c1.11-1.72,2.2-3.44,2.81-5.42c0.17-0.56,0.4-1.11,0.5-1.68
				c0.25-1.44,0.46-2.89,0.65-4.34c0.03-0.23,0.13-0.58-0.34-0.77c-0.18,0.35-0.39,0.69-0.53,1.05c-0.81,2.07-1.59,4.15-2.82,6.02
				c-0.16,0.24-0.24,0.53-0.37,0.79c-1.28,2.5-2.61,4.98-3.82,7.52c-0.93,1.96-2.05,3.8-3.09,5.7
				C137.45,182.15,137.47,182.27,137.42,182.63z M229.92,19.47c-0.16-0.25-0.23-0.46-0.35-0.51c-1.15-0.42-2.29-0.93-3.47-1.17
				c-2.59-0.52-5.2-0.66-7.85-0.38c-2.72,0.29-5.2,1.29-7.71,2.24c-0.21,0.08-0.42,0.23-0.58,0.39c-0.16,0.16-0.53,0.22-0.42,0.55
				c2.29-0.39,4.53-0.82,6.78-1.14c1.67-0.23,3.36-0.36,5.06-0.15c1.63,0.2,3.26,0.3,4.9,0.42c0.82,0.06,1.64,0.11,2.45,0.08
				C229.1,19.8,229.47,19.61,229.92,19.47z M184.33,199.86c-0.34,0.31-0.34,0.6-0.38,0.88c-0.3,2.02-0.55,4.05-1.09,6.03
				c-0.48,1.8-1.08,3.59-1.24,5.46c-0.15,1.75-0.28,3.5-0.36,5.25c-0.03,0.72,0.24,1.35,0.87,1.84c0.68-0.35,1.13-0.87,1.43-1.24
				c-0.07-2.12-0.16-4.04-0.17-5.97c-0.01-1.05,0.01-2.13,0.23-3.14c0.45-2.13,0.68-4.29,0.86-6.45
				C184.54,201.69,184.6,200.82,184.33,199.86z M132.15,219c0.36-0.67,0.19-1.19,0-1.74c-0.18-0.55-0.38-1.11-0.42-1.68
				c-0.11-1.4-0.14-2.8-0.19-4.2c-0.04-1.16-0.09-2.33-0.1-3.49c-0.01-0.99,0.08-1.98,0.02-2.97c-0.12-2.05-0.05-4.07,0.37-6.08
				c0.06-0.3,0.01-0.63,0.01-0.99c-0.18,0.06-0.25,0.06-0.29,0.1c-0.08,0.08-0.17,0.17-0.21,0.28c-0.81,2.46-1.36,4.96-1.18,7.57
				c0.03,0.41-0.02,0.82-0.04,1.22c-0.14,2.92-0.02,5.81,0.92,8.62c0.13,0.38,0.12,0.81,0.25,1.19
				C131.56,217.52,131.52,218.33,132.15,219z M177.79,223.05c-0.24-0.67-0.49-1.26-0.65-1.87c-0.49-1.81-0.71-3.65-0.64-5.55
				c0.09-2.23,0.14-4.48,0.67-6.62c0.48-1.92,0.86-3.88,1.47-5.77c0.42-1.29,0.57-2.62,0.79-3.94c0.03-0.18-0.04-0.37-0.1-0.91
				c-0.27,0.59-0.39,0.84-0.5,1.1c-0.76,1.79-0.91,3.74-1.44,5.6c-0.84,2.93-1.43,5.92-1.66,8.97c-0.19,2.52-0.16,5.04,0.26,7.53
				c0.11,0.68,0.44,1.32,0.69,1.96c0.03,0.07,0.19,0.09,0.37,0.16C177.27,223.51,177.52,223.29,177.79,223.05z M138.12,192.02
				c0.22-0.16,0.4-0.22,0.49-0.35c1.15-1.77,2.28-3.55,3.42-5.32c0.41-0.64,0.8-1.3,1.26-1.9c1.63-2.16,2.99-4.48,4.02-6.98
				c0.1-0.24,0.28-0.52-0.15-0.75c-0.55,0.43-0.92,1.03-1.3,1.61c-0.38,0.59-0.74,1.19-1.12,1.78c-1.71,2.65-3.48,5.28-5.12,7.97
				c-0.63,1.04-1,2.24-1.47,3.37C138.1,191.59,138.13,191.77,138.12,192.02z M225.26,29.41c0.52-0.03,0.74,0,0.93-0.06
				c1.28-0.4,2.54-0.89,3.84-1.22c3.97-1.01,7.98-1.81,12.1-1.83c0.23,0,0.48,0.01,0.7-0.06c0.64-0.23,1.27-0.13,1.9-0.02
				c0.15,0.02,0.31-0.07,0.82-0.2c-0.69-0.18-1.06-0.33-1.43-0.37c-3.57-0.36-7.12-0.28-10.63,0.59
				C230.73,26.93,227.98,27.67,225.26,29.41z M250.13,44.45c-0.12,0.05-0.24,0.1-0.36,0.15c0.07,0.33,0.1,0.67,0.22,0.98
				c0.95,2.54,1.36,5.2,1.63,7.88c0.06,0.63,0.49,0.99,1.19,1.01c0.38,0.01,0.71-0.25,0.73-0.61c0.02-0.35-0.01-0.7-0.04-1.05
				c-0.18-1.71-0.75-3.32-1.42-4.88C251.54,46.71,250.89,45.54,250.13,44.45z M142.25,77.13c1.41-1.48,2.09-3.17,3.14-4.61
				c1.32-1.81,1.64-4.05,2.74-6.27c-0.45,0.17-0.71,0.19-0.82,0.33c-0.68,0.87-1.41,1.72-1.96,2.67c-0.75,1.31-1.4,2.68-2.02,4.06
				c-0.43,0.95-0.74,1.95-1.08,2.94C142.19,76.44,142.25,76.68,142.25,77.13z M267.85,42.39c-0.08,0.22-0.2,0.38-0.18,0.51
				c0.52,2.58,1.05,5.16,1.6,7.74c0.07,0.34,0.22,0.67,0.38,0.97c0.06,0.12,0.3,0.21,0.43,0.19c0.14-0.02,0.28-0.19,0.38-0.32
				c0.07-0.08,0.08-0.22,0.1-0.33c0.2-0.99,0.2-1.94-0.1-2.94c-0.47-1.57-0.89-3.16-1.6-4.64
				C268.66,43.11,268.46,42.61,267.85,42.39z M237.11,51.57c0.76-0.58,0.87-1.13,0.82-1.74c-0.06-0.76-0.13-1.51-0.2-2.26
				c-0.23-2.32-1.58-3.96-3.27-5.38c-0.35-0.3-0.76-0.26-1.04,0.27c1.24,1.1,2.04,2.49,2.7,4.01
				C236.8,48.04,236.76,49.73,237.11,51.57z M172.36,208.43c-0.25,0.63-0.4,0.88-0.45,1.15c-0.29,1.43-0.63,2.86-0.8,4.3
				c-0.24,2.03-0.29,4.08,0.01,6.12c0.05,0.33,0.04,0.73,0.58,0.8c0.45-1.31,0-2.66,0.13-3.99c0.13-1.33,0.11-2.68,0.19-4.02
				C172.09,211.47,172.22,210.15,172.36,208.43z M235.74,16.64c1.44,1.77,2.65,3.24,3.89,4.77c0.46,0,0.97,0,1.49,0
				c-0.29-1.08-0.29-1.08-0.87-1.67C238.91,18.36,237.13,17.08,235.74,16.64z M171.35,35.16c-0.8,0.24-1.34,0.64-1.61,1.15
				c-0.57,1.1-1.46,1.94-2.14,2.94c-0.37,0.56-0.81,1.1-1.03,2.02c0.82-0.46,1.46-0.79,2.07-1.17c0.18-0.11,0.32-0.33,0.44-0.53
				c0.69-1.21,1.38-2.42,2.05-3.64C171.23,35.76,171.25,35.54,171.35,35.16z M240.49,56.42c1.79-0.39,3.23-0.16,4.68-0.07
				c1.25,0.08,2.42,0.43,3.39,1.27c0.22,0.19,0.47,0.35,0.72,0.5c0.06,0.03,0.18-0.05,0.37-0.11c-1.16-1.53-2.75-2.18-4.53-2.4
				C243.64,55.43,242.12,55.19,240.49,56.42z M202.08,19.97c0.43-0.59,1.28-0.79,1.69-1.65c-1.39-0.29-2.65-0.76-4.01-0.72
				c-0.21,0.01-0.48,0-0.45,0.26C200.23,18.55,201.09,19.21,202.08,19.97z M246.37,18.14c-0.03,0.23-0.09,0.36-0.05,0.44
				c0.62,1.12,1.25,2.24,1.89,3.34c0.42,0.73,1.08,0.71,2.14,0.56C249.03,20.82,248.04,19.24,246.37,18.14z M227.82,47.57
				c-0.6,1.57-0.02,2.91,0.87,4.47C228.73,50.3,228.62,48.87,227.82,47.57z M169.74,132.7c0.04-2.28-0.18-3.36-0.86-4.25
				c-0.39,0.43-0.44,0.95-0.35,1.45C168.72,130.85,169.18,131.69,169.74,132.7z M244.46,50.91c0.45,0.41,0.82,0.54,1.23,0.1
				c0.06-0.78-0.01-1.5-0.62-2.27C244.84,49.55,244.65,50.24,244.46,50.91z M191.57,88.71c1.36-0.11,2.44-0.83,3.49-1.63
				C193.9,87.62,192.54,87.7,191.57,88.71z M186.94,90.6c0.05,0.03,0.11,0.09,0.13,0.08c0.19-0.1,0.37-0.2,0.56-0.32
				c0.01,0-0.03-0.08-0.05-0.13c-0.19,0.08-0.39,0.15-0.58,0.24C186.97,90.49,186.96,90.56,186.94,90.6z M154.75,152.61
				c-0.03-0.05-0.06-0.09-0.1-0.14c-0.04,0.09-0.1,0.18-0.12,0.28c-0.01,0.04,0.06,0.09,0.09,0.14
				C154.67,152.8,154.71,152.71,154.75,152.61z M187.07,25.82c-0.09-0.02-0.15-0.04-0.2-0.05c0.01,0.03,0.02,0.09,0.03,0.09
				C186.94,25.86,186.98,25.84,187.07,25.82z"/>
			<path d="M264.65,189.78c0.18,0.52,0.28,0.82,0.4,1.18c-1.91,0.67-3.72,1.31-5.53,1.95c-0.99,0.35-1.99,0.69-2.97,1.09
				c-0.36,0.15-0.75,0.39-0.98,0.7c-1.3,1.73-2.62,3.45-3.81,5.26c-1.32,2.01-2.81,3.89-4.29,5.78c-0.91,1.15-1.95,2.19-2.97,3.24
				c-0.57,0.59-1.23,1.06-2.09,1.21c-1.15,0.21-2.27,0.55-3.42,0.74c-1.44,0.24-2.9,0.45-4.36,0.56c-3.02,0.22-5.96-0.31-8.8-1.31
				c-1.66-0.58-3.28-1.27-4.86-2.04c-2.1-1.03-3.68-2.7-5.04-4.56c-1.87-2.55-3.65-5.17-5.44-7.78c-0.43-0.63-0.79-1.3-1.14-1.98
				c-1.02-1.96-2.55-3.48-4.28-4.81c-0.65-0.5-1.39-0.87-2.17-1.36c-0.25,0.14-0.52,0.33-0.82,0.47c-0.19,0.09-0.53-0.2-0.46-0.39
				c0.22-0.66,0.47-1.32,1.2-1.75c0.28,0.14,0.6,0.28,0.89,0.46c2.51,1.56,5.29,2.13,8.19,2.3c2.29,0.13,4.57-0.08,6.83-0.43
				c2.85-0.44,5.72-0.46,8.58-0.62c0.32-0.02,0.69,0.09,0.98,0.24c1.2,0.6,2.38,1.25,3.58,1.86c1.95,1,3.81,0.77,5.66-0.35
				c1.25-0.75,2.57-1.4,3.9-2c0.99-0.44,2.03-0.48,3.08-0.04c0.92,0.38,1.88,0.67,2.8,1.03c1.81,0.71,3.68,1.13,5.57,1.59
				c2.07,0.5,4.17,0.59,6.27,0.8C260.97,191.02,262.78,190.86,264.65,189.78z M216.93,194.71c0.53,1.2,0.74,1.5,1.56,2.22
				c1.15,1.02,2.46,1.79,3.83,2.47c2.38,1.17,4.87,2.04,7.43,2.67c2.11,0.52,4.29,0.82,6.45,0.4c2.42-0.47,4.76-1.27,6.96-2.37
				c1.49-0.74,2.68-1.88,3.61-3.27c0.26-0.39,0.52-0.8,0.16-1.39c-1.55-0.13-3.17-0.26-4.72-0.38c-0.4,0.51-0.72,0.91-1.09,1.39
				c-0.35-0.37-0.61-0.65-0.93-0.98c-0.5,0.18-0.99,0.36-1.48,0.52c-1.06,0.34-2.11,0.75-3.2,0.96c-0.79,0.15-1.42,0.41-1.9,1.05
				c-0.04,0.06-0.21,0.02-0.32,0.03c-0.67-1.03-0.67-1-1.72-1.17c-0.75-0.12-1.48-0.31-2.21-0.52c-0.67-0.19-1.32-0.43-1.95-0.64
				c-0.4,0.4-0.71,0.71-1.15,1.14c-0.16-0.41-0.25-0.67-0.37-0.92c-0.13-0.26-0.28-0.51-0.45-0.81
				C222.66,194.97,219.87,194.84,216.93,194.71z M227.6,206.56c0.97-0.18,1.95-0.32,2.9-0.56c0.7-0.17,0.87-0.68,0.56-1.35
				c-0.3-0.67-0.81-1.19-1.47-1.42c-1.37-0.46-2.77-0.88-4.19-1.18c-0.66-0.14-1.4-0.03-2.07,0.11c-0.84,0.18-1.16,1.07-0.69,1.78
				c0.22,0.34,0.49,0.66,0.8,0.91C224.64,205.84,225.99,206.47,227.6,206.56z M238.86,209.58c0.31-0.02,0.84-0.03,1.36-0.11
				c0.75-0.13,1.48-0.34,2.11-0.83c0.82-0.63,0.76-1.49-0.17-1.93c-0.26-0.12-0.56-0.18-0.84-0.22c-0.4-0.06-0.82-0.03-1.22-0.11
				c-1.48-0.31-2.91,0.19-4.36,0.3c-0.11,0.01-0.22,0.07-0.33,0.12c-0.47,0.2-0.73,0.57-0.78,1.08c-0.04,0.47,0.2,0.85,0.75,1.07
				C236.43,209.35,237.51,209.6,238.86,209.58z M228.73,189.9c-0.09-0.18-0.13-0.46-0.3-0.57c-1.01-0.71-2.14-0.86-3.33-0.56
				c-0.45,0.11-0.56,0.75-0.27,1.17c0.53,0.75,1.32,0.89,2.15,0.96C227.79,190.97,228.34,190.65,228.73,189.9z M220.96,190.14
				c-0.21-0.86-0.68-1.16-1.42-1.06c-0.92,0.13-1.83,0.24-2.75,0.39c-0.18,0.03-0.34,0.21-0.56,0.35c0.9,0.77,1.92,0.77,2.87,0.88
				C219.72,190.77,220.37,190.68,220.96,190.14z M240.88,189.45c0.52,0.62,1.11,0.73,1.77,0.66c0.99-0.11,1.63-0.41,2.34-1.19
				c-0.75-0.31-1.46-0.48-2.19-0.41C242.12,188.58,241.39,188.65,240.88,189.45z"/>
			<path d="M217.84,125.5c0.34,0.52,0.53,0.87,0.78,1.17c0.68,0.81,1.39,1.59,2.08,2.39c0.34,0.4,0.71,0.79,0.99,1.23
				c0.56,0.9,0.26,1.57-0.81,1.77c-0.63,0.12-1.28,0.16-1.92,0.2c-1.4,0.07-2.83,0.3-4.21,0.12c-1.53-0.2-2.87,0.27-4.29,0.55
				c-1.84,0.37-3.7,0.59-5.59,0.22c-0.63-0.13-1.28-0.15-1.93-0.15c-2.42,0.01-4.78-0.4-7.09-1.08c-1.57-0.46-3.17-0.83-4.74-1.29
				c-3.33-0.97-5.9-3.04-8.06-5.69c-0.25-0.31-0.52-0.61-0.79-0.91c-0.03-0.03-0.11-0.03-0.3-0.06c0.07,0.36,0.02,0.76,0.19,0.98
				c1.45,1.83,2.8,3.77,4.94,4.9c0.05,0.03,0.11,0.05,0.15,0.09c1.4,1.56,3.37,2.14,5.23,2.71c2.61,0.8,5.26,1.61,8.06,1.55
				c0.2,0,0.4,0.16,0.61,0.24c-0.2,0.58-0.64,0.63-1.03,0.56c-1.38-0.26-2.79-0.29-4.14-0.74c-0.88-0.29-1.85-0.35-2.72-0.69
				c-2.06-0.81-4.26-1.35-5.96-2.9c-0.21-0.19-0.49-0.32-0.73-0.49c-2.46-1.7-4.41-3.87-5.67-6.58c-0.56-1.21-0.86-2.54-1.18-3.84
				c-0.15-0.61-0.37-1.08-0.9-1.42c-0.59-0.38-1.16-0.8-1.72-1.22c-0.18-0.14-0.38-0.32-0.44-0.52c-0.05-0.19,0.03-0.45,0.15-0.63
				c0.07-0.11,0.31-0.15,0.47-0.14c0.16,0.02,0.32,0.13,0.47,0.21c2.08,1.19,4.35,1.73,6.71,1.87c1.69,0.1,3.38,0.38,5.08,0.11
				c4.26,0.37,8.56,0.21,12.78,0.97c0.98,0.18,1.95,0.41,2.9,0.69c3.47,1.05,7.07,1.72,10.39,3.23c2.83,1.28,5.54,2.8,7.94,4.81
				c0.18,0.15,0.37,0.3,0.53,0.46c0.39,0.38,0.49,0.92,0.19,1.05c-0.41,0.18-0.72-0.09-0.9-0.35c-1.18-1.66-3.08-2.29-4.69-3.33
				C218.53,125.49,218.28,125.55,217.84,125.5z M217.78,127.34c-0.34-0.62-0.58-1.15-0.91-1.63c-0.36-0.52-0.3-1.31-0.95-1.63
				c-0.57-0.29-1.17-0.53-1.77-0.76c-0.44-0.17-0.89-0.32-1.34-0.41c-0.32-0.06-0.66-0.01-1.02-0.01c-0.08,0.37-0.15,0.65-0.19,0.94
				c-0.43,3.01-2.07,5.05-4.92,6.06c-1.57,0.55-3.23,0.67-4.84,0.15c-1.17-0.38-2.28-1.01-3.15-1.89c-1.89-1.9-3.25-4.04-2.41-6.91
				c0.03-0.1-0.02-0.23-0.04-0.46c-0.81-0.31-1.7-0.19-2.56-0.14c-3.41,0.16-6.8,0.12-10.15-0.63c-0.46-0.1-0.91-0.22-1.37-0.27
				c-0.25-0.03-0.52,0.04-0.88,0.08c0.49,1.53,0.95,2.9,1.96,4.02c0.51,0.56,1.06,1.1,1.55,1.68c1.62,1.96,3.7,3.22,6.09,3.99
				c1.73,0.55,3.5,0.94,5.23,1.49c2.2,0.69,4.46,0.91,6.74,1.02c0.76,0.04,1.52,0.08,2.28,0.17c4.82,0.59,8.88-0.95,12.31-4.32
				C217.57,127.74,217.63,127.57,217.78,127.34z M200.01,122.06c-0.56,0.03-0.77,0.44-0.88,0.9c-0.36,1.49-0.18,2.89,0.67,4.2
				c0.33,0.5,0.68,0.96,1.25,1.19c1.52,0.63,3.08,0.65,4.65,0.24c0.44-0.11,0.9-0.34,1.23-0.64c1.04-0.97,1.88-2.09,2.1-3.56
				c0.02-0.15-0.05-0.31-0.1-0.59c-0.38,0.51-0.65,0.97-1.02,1.33c-0.41,0.4-0.88,0.79-1.38,1.06c-1.04,0.56-2.16,1.06-3.35,0.7
				c-1.02-0.3-1.88-0.97-2.52-1.83c-0.59-0.79-0.74-1.7-0.53-2.67C200.15,122.31,200.06,122.19,200.01,122.06z M220.75,130.91
				c-0.34-1.14-1.25-1.68-2.01-2.39c-1.18,0.68-2.44,1.15-3.1,2.64c1.52,0.05,2.89,0.2,4.28,0.09
				C220.18,131.23,220.44,131.04,220.75,130.91z M207.43,121.67c-0.59-0.16-1.26-0.36-1.94-0.51c-0.52-0.11-0.9,0.19-1,0.72
				c-0.09,0.49,0.01,0.92,0.36,1.29c0.63,0.66,1.58,0.79,2.39,0.31c0.14-0.08,0.28-0.24,0.33-0.39
				C207.71,122.65,207.8,122.19,207.43,121.67z"/>
			<path d="M209.41,110.53c0.24-0.78-0.48-1.35-0.6-2.27c0.86,0.59,1.13,1.35,1.55,2c0.23,0.36,0.29,0.89,0.87,0.93
				c0,0.1,0,0.2,0,0.29c0.07-0.03,0.14-0.07,0.2-0.1c-0.08-0.06-0.16-0.11-0.24-0.17c-0.08-0.45-0.11-0.92-0.24-1.36
				c-0.18-0.6-0.43-1.18-0.48-1.87c0.12,0.15,0.25,0.3,0.34,0.46c0.8,1.5,1.6,2.99,2.39,4.5c0.22,0.42,0.41,0.86-0.19,1.29
				c-0.3-0.35-0.59-0.69-0.88-1.02c-0.27,0.12-0.52,0.24-0.81,0.38c-1.26-1.3-2.99-1.36-4.61-1.72c-0.4-0.09-0.8-0.12-1.2-0.2
				c-0.68-0.14-1.36-0.31-2.04-0.46c-0.17-0.04-0.35-0.04-0.52-0.1c-3.48-1.21-7.07-2.02-10.65-2.83c-1.7-0.39-3.48-0.45-5.23-0.59
				c-2.05-0.16-4.1-0.06-6.13,0.31c-1.56,0.29-3.12,0.51-4.68,0.77c-1.1,0.19-2.18,0.44-3.21,0.88c-0.47,0.2-0.98,0.41-1.56-0.07
				c0.35-0.99,1.14-1.56,2.01-2.03c1.14-0.61,2.38-1.02,3.66-1.21c1.79-0.27,3.6-0.48,5.4-0.71c0.12-0.01,0.24,0,0.35-0.03
				c2.54-0.71,5.12-0.45,7.69-0.33c0.88,0.04,1.76,0.05,2.64,0.06c1.77,0.03,3.5,0.19,5,1.44c-0.11-0.33-0.22-0.67-0.34-1.03
				c0.76-0.14,0.91,0.75,1.62,0.74c-0.04-0.3-0.08-0.6-0.16-1.18c0.83,0.9,1.47,1.6,2.34,2.55c-0.08-0.62-0.11-0.91-0.17-1.33
				c0.97,0.6,1.26,1.77,2.39,2.24c-0.04-0.71-0.48-1.13-0.77-1.6c-0.31-0.49-0.64-0.97-1.01-1.53c0.61-0.15,0.77,0.31,1.05,0.55
				c0.35,0.29,0.7,0.58,1.05,0.87c0.68-0.32,0.94,0.2,1.25,0.62c0.67,0.89,1.32,1.79,1.99,2.68c0.17,0.22,0.39,0.41,0.57,0.6
				c0.35-0.22,0.25-0.43,0.14-0.63c-0.53-0.98-1.08-1.95-1.61-2.93c-0.13-0.24-0.21-0.5-0.14-0.86c0.16,0.14,0.35,0.26,0.46,0.43
				c0.6,0.87,1.17,1.76,1.77,2.62c0.22,0.32,0.53,0.59,0.79,0.88c0.02,0.1,0.04,0.21,0.06,0.31c0.06-0.05,0.12-0.1,0.17-0.14
				C209.59,110.61,209.5,110.57,209.41,110.53z"/>
			<path d="M226.75,174.32c-0.95,0.19-1.8,0.38-2.66,0.52c-0.34,0.06-0.71,0.05-1.04-0.01c-0.6-0.12-0.98-0.74-0.86-1.33
				c0.28-1.37,1.4-1.81,2.51-1.56c0.61,0.14,1.22,0.45,1.73,0.82c0.81,0.58,1.57,1.23,2.28,1.93c2.11,2.07,4.69,2.78,7.55,2.73
				c1.71-0.03,3.13-0.89,4.56-1.69c0.82-0.46,1.63-0.93,2.45-1.37c0.86-0.46,1.79-0.54,2.74-0.4c0.33,0.05,0.68,0.19,0.96,0.38
				c0.98,0.69,0.95,1.34-0.01,2.05c-0.6,0.44-1.21,0.71-1.96,0.44c-0.22-0.08-0.46-0.11-0.69-0.15c-1.52-0.21-3.04-0.4-4.31,0.78
				c-3.8,1.83-7.38,1.36-10.77-1.02c-0.48-0.33-0.87-0.78-1.32-1.16C227.53,174.95,227.12,174.63,226.75,174.32z"/>
			<path d="M219.79,163.39c-0.07,0.91-0.58,1.34-0.94,1.83c-0.31,0.43-0.73,0.77-1.01,1.21c-1.15,1.82-1.52,3.84-0.96,5.89
				c0.55,2.02,2.13,3.14,4.05,3.8c0.32,0.11,0.67,0.17,1,0.27c0.04,0.01,0.07,0.09,0.13,0.18c-0.08,0.12-0.16,0.36-0.27,0.37
				c-0.46,0.04-0.97,0.15-1.37-0.01c-2.62-1.04-4.52-2.97-4.75-5.95c-0.16-2.1,0.4-3.97,1.59-5.61
				C217.85,164.59,218.73,164,219.79,163.39z"/>
			<path d="M226.87,119.43c1.5,0.54,2.34,1.5,2.57,2.96c0.24,1.5,0.52,3.01,0.65,4.52c0.21,2.51,0.44,5.02,0.24,7.55
				c-0.08,0.99-0.29,1.92-0.65,2.85c-0.04-2.28-0.01-4.56-0.14-6.83c-0.14-2.4-0.26-4.8-0.82-7.16c-0.24-1-0.59-1.89-1.39-2.57
				c-0.22-0.19-0.43-0.41-0.55-0.67C226.71,119.93,226.83,119.69,226.87,119.43z"/>
			<path d="M246.22,133.73c-0.1-0.94-0.25-1.87-0.29-2.8c-0.05-1.11-0.09-2.23,0.01-3.33c0.14-1.63,0.26-3.27,0.95-4.8
				c0.24-0.52,0.39-1.11,1.04-1.32c0.29,0.36,0.05,0.67-0.08,0.98c-0.79,1.85-1.13,3.8-1.25,5.8c-0.06,1.11-0.15,2.21,0.01,3.32
				C246.71,132.31,246.77,133.1,246.22,133.73z"/>
			<path d="M232.21,182.5c0.1,0.94,0.19,1.85,0.29,2.76c0.17,1.56,0.88,2.64,2.55,2.87c0.13,0.02,0.24,0.19,0.38,0.3
				c-0.92,0.48-1.67,0.41-2.38-0.17c-0.77-0.63-1.19-1.46-1.34-2.4c-0.17-1.04-0.16-2.1,0.19-3.12
				C231.94,182.65,232.08,182.6,232.21,182.5z"/>
			<path d="M215.07,115.33c-0.22-0.04-0.49-0.02-0.52-0.1c-0.72-2-1.74-3.91-2.11-6.27c0.28,0.23,0.42,0.29,0.47,0.4
				c0.6,1.19,1.17,2.4,1.78,3.59C215.09,113.7,215.23,114.46,215.07,115.33z"/>
			<path d="M214.41,109.23c0.14,0.05,0.21,0.06,0.23,0.09c0.95,2,1.68,4.08,2.01,6.28c0.02,0.12-0.12,0.34-0.25,0.4
				c-0.26,0.13-0.46-0.05-0.52-0.29C215.38,113.57,214.9,111.42,214.41,109.23z"/>
			<path d="M221.52,113.62c0.52,1.07,0.72,2.2,0.81,3.34c0.06,0.75,0.05,1.51,0,2.27c-0.02,0.33-0.18,0.7-0.8,0.56
				c0.08-1,0.22-2.02,0.22-3.05C221.75,115.7,221.6,114.66,221.52,113.62z"/>
			<path d="M218.82,118.53c-0.26-2.39-0.49-4.41-0.72-6.44c0.13,0.03,0.29,0.04,0.3,0.08c0.34,1.48,0.69,2.96,0.99,4.45
				c0.08,0.39,0.04,0.81-0.02,1.21C219.35,118.01,219.13,118.15,218.82,118.53z"/>
			<path d="M220.03,113.26c0.46,1.23,0.88,3.5,0.81,4.33c-0.02,0.29-0.06,0.59-0.17,0.85c-0.08,0.19-0.27,0.35-0.46,0.46
				c-0.18,0.1-0.32-0.28-0.29-0.66c0.06-0.75,0.09-1.5,0.1-2.25C220.04,115.13,220.03,114.27,220.03,113.26z"/>
			<path d="M223.98,114.16c0.22,2.03,0.5,4.13-0.41,6.11c-0.05,0.1-0.29,0.12-0.54,0.22c-0.21-0.79,0.34-1.36,0.42-2.02
				c0.09-0.75,0.18-1.5,0.27-2.25C223.81,115.53,223.89,114.84,223.98,114.16z"/>
			<path d="M217.85,116.68c-0.28-0.1-0.36-0.1-0.38-0.14c-0.07-0.16-0.16-0.32-0.19-0.48c-0.25-1.77-0.48-3.55-0.64-5.33
				C217.41,112.61,218.22,114.48,217.85,116.68z"/>
		</g>
		<path d="M176.31,222.51c-1.25-0.38-1.94-1.42-2.77-2.36c1.29,0.75,2,1.38,2.73,2.4C176.26,222.56,176.31,222.51,176.31,222.51z"/>
	</g>
	<text transform="matrix(1 0 0 1 55.7258 349.9025)"><tspan x="0" y="0" class="st5 st6">Touch Up</tspan><tspan x="84.71" y="72.04" class="st5 st6">Day</tspan></text>
</g>
<g id="Layer_7">
</g>
</svg>
