<?xml version="1.0" encoding="utf-8"?>
<!-- Generator: Adobe Illustrator 26.4.1, SVG Export Plug-In . SVG Version: 6.00 Build 0)  -->
<svg version="1.1" xmlns="http://www.w3.org/2000/svg" xmlns:xlink="http://www.w3.org/1999/xlink" x="0px" y="0px"
	 viewBox="0 0 504 504" style="enable-background:new 0 0 504 504;" xml:space="preserve">
<style type="text/css">
	.st0{display:none;}
	.st1{display:inline;fill:#85D0CB;}
	.st2{display:inline;}
	.st3{fill:#FFFFFF;}
	.st4{fill:none;stroke:#000000;stroke-linecap:round;stroke-linejoin:round;stroke-miterlimit:10;}
	.st5{font-family:'CarolGothic';}
	.st6{font-size:62.1064px;}
</style>
<g id="Layer_2" class="st0">
</g>
<g id="Layer_2_copy" class="st0">
</g>
<g id="Layer_1" class="st0">
</g>
<g id="Layer_3">
</g>
<g id="Layer_4">
</g>
<g id="Layer_1_copy">
</g>
<g id="Layer_6">
	<g>
		<path d="M235.95,170.95c-0.32-0.23-0.65-0.39-0.87-0.64c-0.71-0.79-1.35-1.64-2.08-2.41c-1.35-1.44-2.12-3.23-3.05-4.93
			c-0.68-1.26-1.32-2.56-1.95-3.85c-0.52-1.06-1.07-2.11-1.35-3.29c-0.12-0.52-0.38-1-0.66-1.69c-0.17,0.37-0.3,0.53-0.29,0.67
			c0.04,0.5,0.07,1.01,0.2,1.48c0.87,3.19,1.76,6.38,2.64,9.57c0.72,2.59,1.43,5.18,2.16,7.77c1.11,3.97,2.05,8,3.38,11.9
			c1.46,4.26,2.55,8.65,4.18,12.83c1.06,2.72,1.96,5.53,3.43,8.11c1.42,2.49,2.56,5.14,3.9,7.67c1.5,2.81,3.04,5.59,5.06,8.08
			c0.94,1.16,1.71,2.46,2.59,3.67c0.91,1.26,1.8,2.56,2.82,3.73c1.1,1.27,2.31,2.45,3.51,3.63c1.07,1.05,2.21,2.02,3.28,3.07
			c1.42,1.4,2.88,2.74,4.54,3.86c0.52,0.35,0.99,0.71,1.57,0.97c0.96,0.43,1.84,1.03,2.77,1.54c0.77,0.42,1.55,0.79,2.33,1.19
			c0.39,0.2,0.81,0.35,1.16,0.6c2.22,1.6,4.77,2.42,7.36,3.15c0.48,0.14,0.96,0.27,1.44,0.42c2.08,0.69,4.23,0.97,6.4,1.25
			c3.36,0.44,6.72,0.39,10.09,0.51c0.66,0.02,1.05,0.25,1.33,0.79c-0.03,0.53-0.45,0.56-0.8,0.55c-2.5-0.09-5-0.17-7.49-0.33
			c-1.43-0.1-2.85-0.38-4.27-0.54c-3.88-0.43-7.54-1.68-11.18-3.02c-0.47-0.17-0.92-0.38-1.36-0.62c-1.37-0.75-2.69-1.6-4.08-2.29
			c-4.2-2.07-7.82-4.92-11.21-8.09c-1.74-1.62-3.43-3.3-5.04-5.04c-1.15-1.23-2.19-2.57-3.18-3.94c-2.38-3.29-4.92-6.48-6.97-10
			c-0.31-0.54-0.6-1.09-0.9-1.64c-1.42-2.64-2.84-5.28-4.28-7.92c-0.08-0.15-0.25-0.24-0.4-0.38c-0.42,0.42-0.2,0.84-0.09,1.23
			c0.31,1.08,0.7,2.14,0.97,3.23c0.62,2.49,1.08,5,1.39,7.55c0.23,1.86,0.61,3.69,0.89,5.54c0.24,1.54,0.44,3.08,0.67,4.63
			c0.11,0.74,0.23,1.48,0.36,2.21c0.39,2.28,0.69,4.57,1.2,6.82c0.74,3.22,1.05,6.55,2.57,9.57c0.34,0.67,0.3,0.69-0.25,1.43
			c-0.7-0.79-1.15-1.76-1.4-2.95c-0.4-1.89-0.83-3.78-1.23-5.68c-0.22-1.04-0.44-2.08-0.64-3.12c-0.56-2.95-1.1-5.9-1.66-8.85
			c-0.07-0.34-0.25-0.67-0.45-1.2c-0.5,0.72-0.9,1.26-1.26,1.82c-0.58,0.9-1.29,1.67-2.09,2.39c-2.13,1.94-4.38,3.72-6.72,5.4
			c-0.96,0.69-1.84,1.49-2.75,2.24c-0.14,0.12-0.28,0.25-0.44,0.33c-1.66,0.81-2.91,2.12-4.17,3.41c-0.44,0.45-0.8,0.98-1.27,1.37
			c-1,0.82-1.36,1.92-1.53,3.12c-0.36,2.54-0.49,5.09-0.44,7.65c0.04,1.95,0.51,3.84,0.83,5.75c0.21,1.23,0.52,2.44,0.78,3.66
			c0.05,0.24,0.09,0.5,0.18,0.73c1.27,3.39,2.56,6.77,3.83,10.16c0.37,0.99,0.73,1.98,1.12,2.97c1.51,3.81,3.83,7.14,6.22,10.43
			c0.37,0.5,0.86,0.91,1.27,1.38c0.94,1.09,1.87,2.18,2.78,3.29c1.33,1.61,2.97,2.86,4.63,4.08c1.96,1.45,3.94,2.86,6.13,3.96
			c0.31,0.15,0.52,0.48,0.75,0.69c-0.13,0.51-0.46,0.55-0.76,0.48c-0.55-0.11-1.11-0.23-1.62-0.45c-1.04-0.43-2.05-0.93-3.07-1.4
			c-0.55-0.26-1.09-0.56-1.83-0.62c0.1,0.27,0.12,0.45,0.21,0.56c0.8,0.96,1.61,1.91,2.44,2.85c0.79,0.89,1.63,1.73,2.42,2.62
			c0.29,0.32,0.53,0.69,0.77,1.06c1.07,1.61,2.09,3.25,3.2,4.84c0.53,0.77,1.21,1.43,1.8,2.16c0.21,0.26,0.6,0.48,0.37,1.04
			c-0.65-0.22-1.17-0.66-1.63-1.12c-1.19-1.2-2.35-2.42-3.48-3.67c-1.55-1.72-3.15-3.38-5.05-4.72c-0.13-0.09-0.32-0.1-0.71-0.2
			c0.29,0.59,0.46,1.03,0.71,1.43c1.73,2.76,3.52,5.47,5.63,7.96c1.86,2.19,3.58,4.5,5.19,6.88c0.38,0.56,0.86,1.08,1.35,1.55
			c2.61,2.5,5.6,4.39,9.08,5.45c0.23,0.07,0.43,0.23,0.64,0.36c0.04,0.02,0.05,0.1,0.07,0.16c-0.04,0.34-0.32,0.39-0.54,0.36
			c-0.92-0.16-1.85-0.28-2.74-0.56c-2.84-0.89-5.35-2.4-7.53-4.42c-2.02-1.87-4.04-3.73-5.99-5.66c-1.06-1.05-1.98-2.25-2.98-3.37
			c-0.6-0.67-1.09-1.48-2.14-1.97c0.07,0.74,0.31,1.23,0.58,1.7c2.14,3.62,4.5,7.07,7.77,9.79c1.39,1.16,2.66,2.47,4.38,3.2
			c0.14,0.06,0.28,0.46,0.2,0.59c-0.09,0.17-0.43,0.35-0.6,0.3c-0.77-0.23-1.58-0.44-2.25-0.85c-0.8-0.5-1.61-0.84-2.52-1.13
			c-2.12-0.67-3.87-2.02-5.31-3.71c-0.97-1.14-1.79-2.41-2.72-3.57c-0.87-1.09-1.53-2.28-2.04-3.57c-0.87-2.23-2.03-4.29-3.47-6.2
			c-0.56-0.75-1.04-1.56-1.54-2.35c-0.8-1.27-1.68-2.47-2.86-3.37c-0.5,0.14-0.38,0.49-0.38,0.78c0.03,1.25,0.15,2.51,0.07,3.75
			c-0.09,1.49-0.22,3.01-0.59,4.45c-0.22,0.87-0.89,1.62-1.4,2.4c-0.12,0.18-0.43,0.23-0.66,0.32c-0.32,0.11-0.66-0.15-0.61-0.49
			c0.04-0.3,0.12-0.61,0.2-0.9c0.25-0.9,0.57-1.79,0.74-2.71c0.33-1.74,0.27-3.43-0.35-5.16c-0.86-2.42-1.82-4.79-2.95-7.09
			c-0.19-0.39-0.4-0.78-0.65-1.14c-1.72-2.38-3.46-4.75-5.19-7.12c-0.73-1.01-1.42-2.06-2.19-3.04c-1.47-1.86-2.99-3.68-4.48-5.53
			c-0.47-0.58-0.89-1.21-1.32-1.82c-0.54-0.76-0.96-1.66-1.63-2.28c-1.18-1.11-1.74-2.57-2.53-3.9c-0.76-1.29-1.44-2.63-2.15-3.95
			c-1.91-3.52-3.93-6.97-5.7-10.56c-1.9-3.87-3.54-7.86-4.18-12.17c-0.21-1.42-0.58-2.82-0.71-4.25c-0.22-2.41-0.51-4.83-0.38-7.27
			c0.03-0.48-0.1-1-0.28-1.45c-1.25-3.08-2.08-6.26-2.41-9.58c-0.17-1.69-0.37-3.36-0.18-5.05c0.17-1.49,0.34-2.98,0.6-4.45
			c0.83-4.81,1.85-9.58,2.41-14.43c0.48-4.22,1.03-8.44,1.08-12.7c0.02-2.06-0.19-4.12-0.38-6.17c-0.19-2.05-0.54-4.09-0.69-6.15
			c-0.3-4.14-1.69-7.92-3.52-11.58c-1.74-3.46-3.54-6.9-5.21-10.39c-1.65-3.44-3.16-6.95-4.12-10.66c-0.72-2.78-1.14-5.63-1.21-8.52
			c-0.11-4.27,0.28-8.49,1.13-12.67c0.2-0.98,0.35-1.97,0.49-2.96c0.34-2.36,1.02-4.63,1.83-6.87c0.53-1.46,0.86-3.01,1.43-4.46
			c1.13-2.91,2.26-5.83,3.59-8.65c0.87-1.85,2.01-3.6,3.19-5.29c0.77-1.1,0.95-2.09,0.48-3.32c-1.33-3.51-1.69-7.19-1.62-10.89
			c0.05-2.61,0.28-5.24,1.23-7.75c0.9-2.4,1.78-4.81,3.2-6.97c1.14-1.72,2.34-3.39,3.71-4.94c1.77-2.02,3.55-4.05,5.08-6.24
			c1.39-1.99,2.5-4.18,3.36-6.48c0.68-1.81,1.35-3.63,2.02-5.45c1.19-3.24,2.56-6.39,4.61-9.19c1-1.36,2.1-2.65,3.3-3.83
			c1.43-1.39,3.01-2.63,4.53-3.93c0.38-0.33,0.78-0.63,1.13-0.98c2.16-2.18,4.29-4.38,6.45-6.55c0.48-0.48,1.05-0.88,1.58-1.31
			c2.69-2.17,5.76-3.49,9.17-3.98c2.18-0.32,4.35-0.36,6.51,0.15c0.48,0.11,0.97,0.21,1.47,0.32c0.78-0.5,1.31-1.2,1.78-1.93
			c0.56-0.87,1.31-1.5,2.22-1.96c1.18-0.59,2.28-1.3,3.25-2.21c0.23-0.21,0.51-0.4,0.66-0.66c0.65-1.12,1.73-1.79,2.64-2.64
			c0.98-0.91,2.12-1.56,3.35-2.03c1.52-0.58,3.07-1.07,4.62-1.55c1.75-0.54,3.59-0.53,5.39-0.54c1.75-0.01,3.5,0.07,5.21,0.55
			c1.01,0.28,1.99,0.07,2.93-0.29c1.91-0.73,3.88-0.89,5.89-0.64c1.3,0.16,2.57,0.44,3.75,1.07c0.66,0.35,1.37,0.61,2.05,0.93
			c0.4,0.18,0.8,0.37,1.17,0.6c1.06,0.66,2.15,1.27,3.13,2.05c1.27,1.01,2.4,2.19,3.31,3.54c0.9,1.34,1.67,2.78,2.62,4.09
			c1.57,2.15,2.19,4.59,2.55,7.15c0.03,0.24,0.07,0.49,0.1,0.74c1.08,0.67,2.14,1.33,3.2,1.98c1.95,1.18,3.59,2.7,4.97,4.51
			c0.34,0.45,0.66,0.91,0.92,1.41c0.61,1.16,1.21,2.33,1.75,3.52c0.28,0.62,0.46,1.29,0.61,1.96c0.2,0.85,0.33,1.72,0.49,2.58
			c0.07,0.37,0.17,0.74,0.19,1.11c0.1,1.99,0.17,3.98,0.29,5.97c0.05,0.87,0.18,1.74,0.33,2.6c0.49,2.81-0.35,5.46-0.95,8.13
			c-0.17,0.77-0.58,1.58-1.11,2.15c-1.15,1.22-2.1,2.62-3.54,3.59c-1.57,1.06-3.21,1.93-5.03,2.42c-0.72,0.2-1.24,0.55-1.64,1.15
			c-0.24,0.36-0.47,0.76-0.79,1.04c-1.39,1.22-3.03,1.68-4.84,1.34c-0.4-0.07-0.77-0.38-1.14-0.61c-0.58-0.36-1.14-0.76-1.72-1.13
			c-0.54-0.35-1.04-0.56-1.73-0.2c-0.57,0.29-2.21-0.27-2.74-0.78c-0.44-0.42-0.84-0.89-1.29-1.36c-0.41,0.92-0.53,1.54-0.28,2.52
			c0.33,1.27,0.67,2.55,1.19,3.74c0.86,1.96,1.51,3.97,2.02,6.04c0.44,1.82,0.35,3.61-0.25,5.36c-0.38,1.12-0.87,2.21-1.4,3.27
			c-0.5,1.01-1.15,1.93-2.06,2.64c-0.44,0.34-0.86,0.73-1.24,1.14c-1.69,1.78-3.72,3.12-5.81,4.38c-1.04,0.63-1.83,1.47-2.37,2.59
			c-0.6,1.23-1.33,2.41-1.99,3.61c-0.89,1.62-1.52,3.3-1.25,5.19c0.01,0.11-0.08,0.23-0.13,0.34c-0.42,0.17-0.79,0.06-0.92-0.35
			c-0.29-0.89-0.65-1.78-0.72-2.7c-0.33-4.14,0.91-7.77,3.79-10.81c0.65-0.68,1.31-1.34,1.98-2c2.14-2.12,3.17-4.67,3.36-7.7
			c0.19-3.14-0.67-5.92-2.17-8.58c-1.15-2.03-1.99-4.17-2.33-6.49c-0.24-1.69-0.13-3.35,0.27-5.01c0.2-0.85,0.38-1.7,0.54-2.56
			c0.03-0.14-0.14-0.32-0.22-0.48c-2.79,0.63-2.79,0.63-5.11-1.29c-0.7-0.04-1.42,0.52-2.28,0.23c-0.73-0.24-1.42-0.48-1.92-1.07
			c-0.77-0.9-1.51-1.82-2.28-2.73c-0.08-0.09-0.19-0.15-0.37-0.28c-0.18,0.24-0.42,0.45-0.53,0.71c-0.56,1.33-1.16,2.64-1.6,4
			c-1.28,3.98-2.5,7.99-3.72,11.99c-0.46,1.49-0.89,3-1.27,4.51c-0.78,3.12-2.18,5.98-3.66,8.81c-0.12,0.22-0.26,0.43-0.41,0.63
			c-1.11,1.43-2.18,2.9-3.35,4.28c-0.8,0.95-1.75,1.79-2.61,2.69c-1.91,2-4.06,3.69-6.39,5.19c-1.1,0.7-2.08,1.59-3.14,2.36
			c-1.53,1.11-5.13,2.77-6.85,3.42c-3.39,1.28-6.81,2.51-9.72,4.76c-0.49,0.38-1.05,0.73-1.42,1.21c-0.69,0.89-1.55,1.63-2.25,2.5
			c-1.74,2.12-3.55,4.19-5.06,6.5c-0.07,0.1-0.13,0.22-0.18,0.33c-0.72,1.66-1.41,3.33-2.17,4.97c-0.34,0.73-0.36,1.44-0.18,2.19
			c0.09,0.36,0.15,0.74,0.27,1.09c1.25,3.48,1.83,7.13,2.77,10.69c0.96,3.63,1.98,7.23,3.04,10.83c0.82,2.76,1.89,5.43,2.8,8.15
			c0.5,1.48,1.02,2.96,1.63,4.39c1.37,3.22,2.88,6.38,4.83,9.3c0.76,1.14,1.72,2.14,2.63,3.17
			C235.97,169.79,236.3,170.2,235.95,170.95z M204.73,71.04c0.45-0.12,0.47-0.42,0.33-0.79c0.41,0.16,0.54-0.17,0.72-0.4
			c1.58-2.08,3-4.29,4.99-6.04c1.59-1.4,3.14-2.85,4.67-4.33c1.79-1.74,3.53-3.53,5.28-5.31c0.35-0.35,0.68-0.74,0.94-1.16
			c2.33-3.74,3.99-7.75,4.79-12.11c0.48-2.64,0.82-5.31,1.74-7.85c0.12-0.34,0.12-0.72,0.19-1.17c-0.84,0.2-1.02,0.86-1.26,1.38
			c-1.24,2.66-2.47,5.32-3.23,8.17c-0.24,0.9-0.54,1.8-0.93,2.64c-1.06,2.26-2.16,4.5-3.28,6.73c-0.82,1.62-1.7,3.2-2.95,4.55
			c-1.31,1.42-2.56,2.9-3.93,4.25c-2.54,2.52-4.74,5.3-6.65,8.31c-0.47,0.73-1.02,1.43-1.04,2.37c-0.11,0.26-0.22,0.53-0.32,0.79
			c-0.08,0.06-0.17,0.11-0.24,0.18c-0.01,0.01,0.03,0.08,0.05,0.12C204.63,71.27,204.68,71.16,204.73,71.04z M251.47,47.33
			c-0.1,0.03-0.19,0.06-0.29,0.09c0.1-0.04,0.21-0.07,0.31-0.11c-0.02-0.05-0.06-0.1-0.07-0.16c-0.01-0.04,0.02-0.08,0.03-0.13
			C251.46,47.13,251.47,47.23,251.47,47.33z M304.1,42.82c0.03-0.11,0.05-0.23,0.08-0.34C304.15,42.59,304.12,42.7,304.1,42.82
			c0.31,1.07,0.6,2.17,1.11,3.17c0.18-0.07,0.28-0.09,0.28-0.11c0.02-1.18-0.32-2.22-1.21-3.04
			C304.25,42.81,304.16,42.83,304.1,42.82z M228.99,74.7c2.01-1.14,3.94-2.38,5.71-3.91c1.39-1.2,2.55-2.57,3.67-3.98
			c0.18-0.22,0.28-0.51,0.41-0.76c-0.38,0.03-0.65,0.17-0.82,0.39c-1.52,2.01-3.45,3.57-5.46,5.04c-1.06,0.78-2.13,1.52-3.19,2.3
			C229,74,228.77,74.3,229,74.71c-0.1-0.06-0.2-0.14-0.31-0.19c-0.03-0.01-0.09,0.05-0.14,0.08
			C228.7,74.63,228.84,74.66,228.99,74.7z M317.14,33.08c0.01,0.14,0.02,0.27,0.03,0.41c0.03-0.03,0.09-0.08,0.09-0.09
			c-0.04-0.1-0.1-0.19-0.16-0.29c-0.12-0.48-0.15-0.99-0.36-1.42c-0.73-1.48-1.79-2.72-3.03-3.77c-1.81-1.53-3.71-2.95-5.57-4.42
			c-0.29-0.23-0.63-0.42-0.89-0.69c-1.13-1.18-2.57-1.76-4.11-2.09c-2.14-0.45-4.28-0.87-6.44-1.23c-1.1-0.18-2.24-0.35-3.34-0.29
			c-3.24,0.19-6.48,0.46-9.71,0.78c-1.49,0.15-2.98,0.4-4.41,0.81c-2.59,0.73-5.05,1.8-7.41,3.11c-0.48,0.27-1.01,0.48-1.53,0.66
			c-1.24,0.44-2.43,0.97-3.38,1.93c-0.61,0.61-1.3,1.16-1.93,1.76c-0.36,0.34-0.68,0.73-1.02,1.09c-0.76,0.81-1.44,1.71-2.3,2.41
			c-1.46,1.2-2.76,2.57-3.89,4.02c-1.69,2.16-3.09,4.54-4.55,6.87c-0.43,0.68-0.65,1.48-0.96,2.23c-0.02,0.05-0.01,0.12,0.02,0.16
			c0.03,0.04,0.09,0.06,0.23,0.13c0.23-0.34,0.47-0.7,0.72-1.04c1.46-2.03,2.83-4.13,4.41-6.05c1.62-1.97,3.39-3.84,5.21-5.63
			c2.72-2.66,5.49-5.24,9.15-6.68c3.01-1.19,5.93-2.62,9.08-3.47c2.61-0.7,5.24-1.13,7.94-1.13c0.69,0,1.37-0.07,2.06-0.13
			c2.9-0.24,5.73,0.07,8.46,1.12c1.28,0.49,2.58,0.93,3.88,1.39c4.42,1.59,8.36,3.9,11.54,7.41c0.59,0.65,1.12,1.34,1.71,1.99
			C316.76,33.06,316.98,33.04,317.14,33.08z M210.3,122.46c0.16-0.16,0.37-0.29,0.46-0.48c0.56-1.25,1.05-2.54,1.65-3.76
			c0.88-1.79,1.84-3.55,2.78-5.31c1.39-2.61,3.09-5.01,5.09-7.17c1.19-1.28,2.55-2.4,3.84-3.58c0.78-0.72,1.52-1.51,2.38-2.12
			c3.32-2.36,6.86-4.33,10.57-6.03c3.71-1.69,7.02-4.06,10.15-6.67c0.1-0.08,0.18-0.18,0.27-0.26c1.83-1.79,3.7-3.55,5.49-5.38
			c1.93-1.97,3.69-4.07,4.88-6.61c1.08-2.32,2.23-4.6,3.34-6.91c0.13-0.28,0.2-0.59,0.3-0.89c0.74-2.32,1.47-4.63,2.21-6.95
			c0.23-0.71,0.43-1.43,0.66-2.14c0.63-1.96,1.14-3.94,2.04-5.82c0.77-1.61,1.34-3.33,1.6-5.24c-1.09,1.03-2.38,2.86-2.78,4.04
			c-0.87,2.54-2.14,4.92-2.95,7.48c-0.41,1.3-1.06,2.53-1.53,3.82c-0.6,1.64-1.03,3.35-1.71,4.96c-1.04,2.48-2.16,4.92-3.59,7.21
			c-0.76,1.22-1.45,2.48-2.17,3.73c-0.43,0.76-0.75,1.59-1.27,2.28c-1.27,1.7-2.48,3.45-4.29,4.67c-1.19,0.81-2.25,1.79-3.37,2.68
			c-0.44,0.35-0.85,0.75-1.33,1.03c-3.5,2.05-6.81,4.43-10.42,6.29c-1.78,0.91-3.49,1.96-5.24,2.92c-1.87,1.03-3.59,2.27-5.11,3.77
			c-0.53,0.53-1.04,1.08-1.56,1.62c-2.56,2.65-5.08,5.31-6.9,8.59c-1.79,3.23-2.88,6.63-3.43,10.24c-0.07,0.09-0.19,0.18-0.21,0.28
			c-0.02,0.09,0.06,0.2,0.1,0.3c0.06-0.09,0.15-0.18,0.16-0.28C210.41,122.69,210.34,122.58,210.3,122.46z M203.68,142.33
			c0.08-0.05,0.17-0.11,0.25-0.16c-0.21-0.84-0.52-1.67-0.6-2.53c-0.08-0.86,0.07-1.74,0.12-2.61c0-0.06,0.01-0.13,0-0.19
			c-0.33-3.25-0.1-6.5-0.06-9.74c0.01-0.75-0.08-1.52,0.05-2.25c0.58-3.07,1.29-6.11,2.46-9.03c0.42-1.04,0.75-2.12,1.2-3.15
			c0.47-1.08,0.98-2.16,1.58-3.17c0.86-1.45,1.79-2.86,2.75-4.25c0.78-1.13,1.53-2.3,2.46-3.3c3.44-3.68,7.51-6.58,11.84-9.1
			c3.51-2.05,7.07-3.99,10.46-6.23c2.29-1.52,4.7-2.88,6.84-4.6c1.36-1.09,2.82-2.16,3.88-3.51c1.76-2.26,3.65-4.45,4.89-7.08
			c0.64-1.36,1.43-2.64,2.03-4.02c0.8-1.83,1.66-3.64,1.81-5.69c0.04-0.48,0.32-0.94,0.49-1.41c0.68-1.81,1.33-3.63,2.04-5.43
			c0.96-2.44,1.84-4.93,2.96-7.3c1.25-2.66,2.87-5.12,4.86-7.31c0.34-0.37,0.67-0.74,0.96-1.15c1.48-2.15,3.41-3.8,5.64-5.12
			c0.54-0.32,1.07-0.65,1.57-1.02c2.47-1.84,5.13-3.34,8-4.45c2.04-0.79,4.07-1.6,6.3-1.76c1.18-0.08,2.34-0.3,3.72-0.49
			c-0.77-0.41-1.4-0.57-2.09-0.59c-2.65-0.06-5.22,0.35-7.7,1.31c-1.22,0.47-2.47,0.86-3.54,1.67c-0.29,0.22-0.67,0.34-1.02,0.45
			c-1.87,0.57-3.59,1.4-5.08,2.7c-0.37,0.32-0.82,0.56-1.24,0.83c-0.94,0.62-1.93,1.16-2.8,1.87c-1.74,1.42-3.4,2.92-5.1,4.38
			c-1.06,0.91-1.84,2.05-2.54,3.22c-0.96,1.6-1.82,3.26-2.68,4.92c-0.6,1.16-1.18,2.34-1.67,3.55c-1.21,3-2.19,6.1-3.63,9.01
			c-0.33,0.67-0.48,1.42-0.77,2.11c-0.97,2.37-1.84,4.79-3,7.07c-0.99,1.94-2.31,3.71-3.49,5.55c-0.24,0.37-0.52,0.7-0.79,1.05
			c-1.99,2.59-4.29,4.89-6.72,7.06c-0.93,0.83-1.96,1.56-2.99,2.26c-1.5,1.01-3.04,1.97-4.57,2.94c-0.95,0.6-1.9,1.21-2.86,1.79
			c-1.28,0.77-2.58,1.51-3.87,2.28c-0.8,0.48-1.59,0.99-2.39,1.48c-2.92,1.8-5.76,3.67-8.16,6.21c-1.63,1.72-3.26,3.41-4.76,5.26
			c-1.66,2.03-2.87,4.27-3.73,6.67c-0.94,2.64-1.86,5.31-2.35,8.09c-0.26,1.47-0.6,2.96-0.63,4.44c-0.04,1.93-0.13,3.86-0.04,5.8
			c0.18,4.12,0.5,8.22,1.41,12.25C203.42,142.05,203.58,142.18,203.68,142.33z M214.85,157.21c-0.09,0.05-0.17,0.1-0.26,0.15
			c0.65,2.01,1.29,4.02,1.95,6.02c0.31,0.95,0.7,1.88,0.96,2.84c0.77,2.77,1.35,5.58,1.97,8.39c0.78,3.55,1.19,7.14,1.54,10.75
			c0.05,0.56,0.15,1.12,0.14,1.67c-0.03,2.19-0.09,4.37-0.13,6.56c0,0.19-0.03,0.39,0.02,0.56c0.28,0.87,0.11,1.72-0.04,2.59
			c-0.12,0.67-0.14,1.37-0.17,2.05c-0.04,0.69,0.01,1.38-0.06,2.06c-0.26,2.23-0.37,4.48-0.8,6.69c-0.4,2.02-0.63,4.07-1.03,6.09
			c-0.8,3.98-1.84,7.91-2.2,11.97c-0.08,0.93-0.3,1.85-0.46,2.77c-0.42,2.33-1.02,4.64-1.23,6.99c-0.28,3.16-0.93,6.32-0.26,9.52
			c0.22,1.02,0.1,2.12,0.16,3.18c0.01,0.2,0.16,0.4,0.39,0.95c0.14-0.59,0.22-0.8,0.23-1.02c0.04-0.62-0.02-1.26,0.07-1.87
			c0.4-2.78,0.74-5.57,1.27-8.32c0.7-3.61,1.52-7.2,2.62-10.72c0.7-2.21,1.4-4.42,1.96-6.66c0.64-2.54,0.97-5.15,1.85-7.63
			c0.06-0.17,0.13-0.38,0.09-0.55c-0.21-0.91,0.15-1.74,0.36-2.57c0.75-2.86,0.87-5.81,1.16-8.72c0.29-2.98-0.04-6-0.38-8.98
			c-0.32-2.79-0.84-5.55-1.3-8.32c-0.32-1.97-0.59-3.96-1.06-5.89c-0.74-3.03-1.6-6.04-2.48-9.04c-0.39-1.31-0.95-2.57-1.46-3.84
			c-0.51-1.28-1.03-2.55-1.6-3.8C216.09,159.77,215.46,158.49,214.85,157.21z M208.27,250.48c0.27-0.23,0.43-0.3,0.43-0.37
			c-0.03-1.75,0.64-3.45,0.33-5.21c-0.03-0.18,0.01-0.38,0.06-0.55c0.73-2.62,0.66-5.33,0.83-8c0.24-3.74,0.34-7.49,1.27-11.15
			c0.65-2.54,1.11-5.13,1.82-7.66c0.87-3.13,1.83-6.21,2.28-9.46c0.55-4.07,1.26-8.12,1.1-12.25c-0.01-0.25-0.01-0.5,0.02-0.75
			c0.4-3.65-0.17-7.23-0.65-10.82c-0.02-0.17-0.19-0.32-0.48-0.78c-0.03,0.99-0.04,1.61-0.07,2.22c-0.07,1.5-0.14,2.99-0.25,4.49
			c-0.08,1.12-0.19,2.24-0.35,3.35c-0.27,1.85-0.62,3.69-0.89,5.53c-0.45,3.09-1.12,6.14-1.88,9.17c-0.62,2.47-1.08,4.98-1.73,7.44
			c-0.72,2.71-1.41,5.44-1.66,8.25c-0.01,0.06-0.03,0.12-0.04,0.18c-0.32,2.16-0.78,4.31-0.92,6.48c-0.21,3.29-0.66,6.59-0.32,9.9
			c0.02,0.24-0.06,0.5-0.06,0.74c0.02,0.81-0.02,1.63,0.09,2.43C207.51,245.87,207.89,248.07,208.27,250.48z M196.24,101.97
			c-1.66,2.63-2.55,5.22-3.43,7.8c-0.32,0.95-0.61,1.9-0.91,2.86c-0.48,1.48-1,2.95-1.42,4.45c-0.37,1.32-0.46,2.73-0.93,4.01
			c-1.1,3-0.92,6.16-1.27,9.24c-0.02,0.18,0.03,0.37,0.04,0.56c0.05,1,0.17,2,0.13,2.99c-0.09,1.96,0.39,3.85,0.7,5.75
			c0.35,2.14,1.07,4.23,1.64,6.34c0.22,0.79,0.61,1.42,1.18,1.96c-0.03-0.31-0.03-0.56-0.07-0.8c-0.18-1.24-0.48-2.47-0.53-3.7
			c-0.09-2.56-0.1-5.12-0.05-7.68c0.05-2.18,0.32-4.36,0.09-6.55c-0.03-0.31,0.02-0.62,0.03-0.93c0.1-3.08,0.76-6.07,1.45-9.06
			c0.33-1.39,0.58-2.81,0.97-4.18c0.83-2.94,1.83-5.84,2.31-8.87C196.37,104.88,196.67,103.6,196.24,101.97z M222.23,238.1
			c0.6-0.01,0.7-0.43,0.84-0.75c0.63-1.43,1.31-2.84,1.82-4.31c0.89-2.53,1.78-5.07,2.46-7.66c1-3.8,1.84-7.65,2.71-11.49
			c0.9-3.98,1.08-8.05,1.38-12.09c0.25-3.31,0.11-6.62-0.11-9.93c-0.19-2.82-0.58-5.59-1.36-8.31c-0.06-0.2-0.21-0.38-0.31-0.57
			c-0.26,0.78-0.12,1.49-0.04,2.2c0.25,2.3,0.46,4.59,0.39,6.91c-0.06,2-0.22,4-0.18,5.99c0.05,3.02-0.37,5.99-0.72,8.96
			c-0.37,3.1-0.94,6.17-1.58,9.23c-0.57,2.74-1.31,5.46-2.05,8.16c-0.59,2.16-1.38,4.27-1.94,6.43c-0.56,2.17-0.95,4.38-1.39,6.58
			C222.1,237.67,222.2,237.9,222.23,238.1z M264.55,22.46c-0.2-0.1-0.32-0.21-0.42-0.19c-1.79,0.26-3.56,0.54-5.29,1.17
			c-1.8,0.66-3.2,1.92-4.83,2.82c-1.43,0.8-2.54,2.01-3.8,3.03c-0.84,0.68-1.58,1.42-2.21,2.26c-0.86,1.15-1.59,2.39-2.39,3.59
			c-0.82,1.21-1.28,2.57-1.71,3.95c-0.62,2.02-1.15,4.08-1.89,6.06c-0.78,2.1-1.7,4.16-2.65,6.19c-1.73,3.68-3.85,7.14-6.17,10.49
			c-0.89,1.28-1.76,2.59-2.9,3.68c-0.23,0.22-0.59,0.46-0.4,1.1c1.23-1.04,2.49-1.91,3.44-3.14c1.22-1.58,2.43-3.18,3.63-4.78
			c0.49-0.65,1.02-1.29,1.4-2c1.71-3.2,3.29-6.48,4.24-9.99c0.63-2.31,1.48-4.51,2.47-6.66c0.62-1.36,1.35-2.68,2.19-3.91
			c0.84-1.23,1.94-2.29,2.83-3.49c1.78-2.38,4.15-4.15,6.27-6.18c0.18-0.17,0.4-0.3,0.61-0.43c1.88-1.12,3.81-2.14,5.94-2.73
			c0.36-0.1,0.73-0.2,1.06-0.36C264.19,22.84,264.34,22.64,264.55,22.46z M203.68,194.32c1.65-3.91,1.61-9.29,1.6-13.34
			c0-0.06-0.02-0.12-0.02-0.19c-0.17-1.24-0.34-2.48-0.5-3.72c-0.36-2.91-0.99-5.77-1.88-8.57c-0.45-1.43-0.91-2.85-1.44-4.25
			c-0.58-1.52-1.11-3.08-1.91-4.48c-1.09-1.91-1.87-3.93-2.77-5.91c-0.49-1.08-1-2.15-1.53-3.21c-0.12-0.24-0.32-0.56-0.71-0.32
			c-0.01,0.13-0.06,0.25-0.03,0.36c0.79,3.3,2.08,6.41,3.57,9.44c0.72,1.46,1.58,2.87,2.08,4.4c0.73,2.25,1.5,4.49,2.1,6.79
			c0.78,2.98,1.27,5.97,1.38,9.04c0.02,0.69,0.14,1.37,0.19,2.05c0.2,2.8,0.46,5.61,0.07,8.42
			C203.73,191.89,203.75,192.96,203.68,194.32z M282.1,33.63c0.05,0.07,0.1,0.14,0.15,0.21c0.12,0,0.24,0.02,0.36,0
			c2.69-0.53,5.39-1,8.16-0.98c2.88,0.02,5.72,0.35,8.54,0.98c1.04,0.23,1.91,0.97,3.02,0.93c1.65,0.73,3.4,1.26,4.78,2.49
			c1.21,1.08,2.43,2.14,3.65,3.21c0.12,0.1,0.3,0.12,0.45,0.18c0.04-0.11,0.09-0.18,0.07-0.21c-1.01-2.14-2.76-3.67-4.43-5.26
			c-0.26-0.25-0.65-0.37-0.98-0.53c-0.85-0.4-1.75-0.7-2.53-1.19c-0.81-0.51-1.74-0.58-2.6-0.89c-3.44-1.25-6.97-1.89-10.63-1.07
			c-0.18,0.04-0.37,0.05-0.56,0.04c-2.12-0.1-4.01,0.8-5.96,1.41C283.07,33.1,282.59,33.4,282.1,33.63z M238.41,38.03
			c-1.37,1.15-2.11,2.23-2.73,3.37c-1.49,2.75-2.51,5.68-3.11,8.76c-0.41,2.08-0.91,4.13-1.86,6.05c-0.18,0.36-0.23,0.78-0.44,1.55
			C234.97,51.85,237.48,45.48,238.41,38.03z M275.93,5.64c1.17,0.15,2.33,0.29,3.5,0.46c0.8,0.12,1.59,0.24,2.37,0.43
			c0.79,0.19,1.54,0.54,2.33,0.69c3.17,0.58,5.58,2.37,7.68,4.68c0.82,0.91,1.67,1.8,2.61,2.81c0.03-0.34,0.14-0.6,0.06-0.78
			c-1.06-2.44-2.39-4.73-4.76-6.08c-1.72-0.98-3.63-1.65-5.45-2.45c-0.11-0.05-0.24-0.07-0.36-0.08c-1.86-0.15-3.73-0.34-5.6-0.42
			C277.54,4.87,276.71,4.87,275.93,5.64z M260.25,16.15c1.26-0.14,2.26-0.19,3.23-0.37c2.74-0.51,5.46-0.43,8.19,0.11
			c2.11,0.42,4.15,0.92,5.76,2.48c0.3,0.29,0.74,0.44,1.14,0.61c0.27,0.11,0.63-0.26,0.56-0.56c-0.22-0.96-0.81-1.68-1.52-2.31
			c-1.51-1.34-3.34-1.95-5.3-2.12c-3.86-0.33-7.58,0.46-11.24,1.59C260.86,15.65,260.68,15.85,260.25,16.15z M288.93,56.53
			c1.08-1.44,1.97-2.63,2.87-3.81c1.8-2.37,4.86-3.99,7.85-4.14c0.71-0.03,1.42-0.01,2.12-0.01c-1.21-0.38-2.43-0.46-3.64-0.65
			c-1.43-0.23-2.73,0.11-3.96,0.77c-0.59,0.32-1.25,0.64-1.67,1.14c-0.96,1.14-1.82,2.37-2.68,3.58
			C289.24,54.25,288.97,55.19,288.93,56.53z M281.78,50.63c0.21-0.28,0.33-0.37,0.33-0.46c0.04-1.54,0.12-3.09,0.08-4.62
			c-0.03-0.86-0.32-1.71-0.41-2.57c-0.09-0.83-0.41-1.54-0.86-2.21c-1.66,0.8-1.73,0.92-1.4,2.52c0.12,0.61,0.25,1.22,0.47,1.8
			c0.44,1.17,0.75,2.35,0.9,3.59C280.97,49.35,281.24,49.97,281.78,50.63z M222.66,60.13c-0.1-0.06-0.19-0.13-0.29-0.19
			c-0.17,0.17-0.34,0.34-0.51,0.5c-1.05,0.97-1.98,2.12-3.17,2.87c-1.82,1.14-3.3,2.64-4.85,4.07c-0.56,0.52-1.12,1.1-1.52,2.17
			c0.52-0.29,0.79-0.4,1.01-0.57c1.8-1.33,3.64-2.62,5.37-4.03c1.35-1.1,2.57-2.37,3.48-3.88
			C222.37,60.78,222.51,60.45,222.66,60.13z M279.74,11.21c1.91,1.37,3.54,2.98,4.81,4.94c0.17,0.26,0.37,0.52,0.62,0.68
			c0.17,0.11,0.51,0.13,0.68,0.03c0.54-0.34,0.76-0.96,0.5-1.45c-1.32-2.56-3.32-4.16-6.28-4.37
			C279.98,11.04,279.88,11.13,279.74,11.21z M204.14,91.86c-1.49,3.25-2.3,6.26-2.73,9.39c-0.02,0.13,0.12,0.28,0.2,0.44
			c1.13-1.01,1.22-0.99,1.42-1.94c0.48-2.36,0.86-4.74,1.28-7.12C204.33,92.51,204.26,92.39,204.14,91.86z M242.94,25.31
			c-1.12,0.06-1.58,0.52-2.05,0.89c-0.83,0.65-1.72,1.28-2.4,2.08c-1.12,1.33-2.1,2.79-3.12,4.21c-0.04,0.06,0.05,0.21,0.12,0.51
			c1.47-1.25,2.96-2.36,4.1-3.85c0.53-0.69,1.05-1.36,1.78-1.9C241.94,26.85,242.3,26.14,242.94,25.31z M306.65,58.04
			c1.21-1.71,1.19-2.61,0-4.87c-0.96-1.82-2.55-2.47-4.89-2.65c0.78,0.47,1.21,0.71,1.62,0.97c1.78,1.13,2.95,2.64,3.06,4.83
			C306.48,56.86,306.57,57.41,306.65,58.04z M286.82,50.88c1.19-4.11,0.85-7.49-0.89-9.39c0.12,0.81,0.27,1.53,0.33,2.26
			c0.07,0.81,0.06,1.62,0.07,2.43c0.02,0.75-0.13,1.54,0.07,2.23C286.62,49.15,286.09,49.98,286.82,50.88z M239.22,228.85
			c-0.15-0.97-0.39-1.68-0.72-2.32c-0.82-1.58-1.11-3.29-1.34-5.02c-0.1-0.74-0.22-1.48-0.38-2.2c-0.05-0.22,0.03-0.62-0.49-0.6
			c-0.2,2.66,0.18,5.23,1.05,7.71c0.24,0.69,0.7,1.3,1.1,1.92C238.56,228.51,238.81,228.59,239.22,228.85z M217.7,87.21
			c2.45-1.58,4.89-3.17,7.34-4.76c0.08-0.05,0.1-0.21,0.21-0.44c-1.69,0.24-3.16,0.86-4.47,1.78
			C219.52,84.66,218.18,85.49,217.7,87.21z M294.66,44.67c0.65-1.33,0.69-1.4,0.64-2.44c-0.09-1.82-0.72-3.41-2.11-4.64
			c-0.23-0.2-0.51-0.39-0.79,0.12C293.88,39.61,294.13,41.99,294.66,44.67z M232.16,227.74c-0.14,2.96,0.22,4,1.57,4.73
			C233.79,230.78,233.29,229.34,232.16,227.74z M300.79,15.45c0.15-1.15-0.1-2.07-0.66-2.9c-0.11-0.16-0.35-0.22-0.67-0.4
			C299.45,13.51,299.64,14.59,300.79,15.45z M298.24,58.36c0.89-0.4,1.43-1.02,1.81-1.78c0.08-0.16-0.01-0.5-0.14-0.66
			c-0.19-0.22-0.46-0.09-0.61,0.12c-0.39,0.55-0.76,1.11-1.1,1.68C298.13,57.84,298.21,58.05,298.24,58.36z M309.59,49.62
			c-0.03-0.47-0.03-0.88-0.1-1.27c-0.02-0.11-0.27-0.28-0.39-0.26c-0.13,0.02-0.3,0.2-0.35,0.34
			C308.56,49.04,308.64,49.13,309.59,49.62z M300.01,42.45c-0.25,0.81-0.43,1.24-0.49,1.69c-0.02,0.15,0.26,0.34,0.41,0.51
			c0.16-0.15,0.46-0.31,0.45-0.45C300.34,43.74,300.2,43.29,300.01,42.45z M299.29,50.14c0,0.07,0,0.15,0,0.22
			c0.36-0.02,0.72-0.04,1.08-0.06c0-0.04,0-0.07,0-0.11C300,50.18,299.64,50.16,299.29,50.14z M215.45,252.32
			c0.47-0.88,0.49-1.49-0.07-2.28C215.07,250.86,215.18,251.47,215.45,252.32z M215.61,253.27c-0.02,0.1-0.08,0.21-0.05,0.28
			c0.04,0.07,0.16,0.1,0.25,0.15c0.02-0.1,0.09-0.22,0.05-0.3C215.84,253.34,215.7,253.32,215.61,253.27z M203.53,195.83l-0.12-0.02
			l0.04,0.16L203.53,195.83z"/>
		<path d="M320.1,199.29c0.55,0.93,0.54,0.93,0.5,1.81c-2.86,0.33-5.52,1.24-8.11,2.54c-1.87,0.94-3.32,2.05-4.18,4.01
			c-0.86,1.97-2.37,3.57-3.98,4.92c-1.4,1.19-2.68,2.61-4.53,3.25c-1.72,0.6-3.43,1.16-5.25,1.32c-0.81,0.07-1.62,0.14-2.42,0.31
			c-1.64,0.36-3.23,0.08-4.83-0.19c-0.55-0.1-1.1-0.24-1.66-0.3c-2.3-0.25-4.3-1.28-6.26-2.38c-0.54-0.31-1.07-0.64-1.61-0.96
			c-1.79-1.08-3.3-2.47-4.49-4.19c-0.86-1.24-1.88-2.33-2.98-3.36c-0.72-0.67-1.25-1.56-1.97-2.23c-0.73-0.67-1.61-1.18-2.39-1.79
			c-0.34-0.27-0.61-0.63-0.92-0.93c-1.44-1.42-1.81-1.54-3.83-1.29c-0.27-0.77-0.05-1.44,0.36-2.04c0.2-0.02,0.39-0.08,0.43-0.03
			c0.56,0.71,1.28,0.9,2.15,0.73c2.27-0.43,4.56-0.71,6.77-1.43c2.84-0.93,5.73-1.76,8.62-2.54c1.5-0.4,3.04-0.63,4.58-0.87
			c0.33-0.05,0.74,0.11,1.05,0.28c0.76,0.43,1.51,0.89,2.21,1.4c2.26,1.65,4.64,1.61,7.1,0.55c0.46-0.2,0.96-0.38,1.32-0.7
			c0.95-0.85,2.1-1.05,3.28-1.15c1.56-0.13,3.14-0.15,4.65,0.31c2.69,0.82,5.37,1.66,8.04,2.54c0.77,0.25,1.49,0.63,2.24,0.95
			c0.92,0.39,1.81,0.91,2.77,1.13C317.83,199.21,318.96,199.19,320.1,199.29z M283.78,209.74c0.93-0.2,2.21-0.46,3.48-0.78
			c0.61-0.15,1.22-0.41,1.33-1.14c0.12-0.84-0.48-1.28-1.1-1.56c-1.13-0.52-2.32-0.89-3.46-1.38c-1.87-0.8-3.67-0.33-5.48,0.18
			c-0.61,0.17-0.91,0.61-1.06,1.19c-0.2,0.77,0.13,1.33,0.68,1.81C279.67,209.37,281.52,209.59,283.78,209.74z M299.98,199.03
			c1.76-0.15,2.96-0.51,3.88-1.27c0.58-0.48,0.61-1.08,0.06-1.59c-0.18-0.16-0.39-0.31-0.61-0.41c-2.28-1.04-4.47-0.51-6.64,0.38
			c-0.11,0.05-0.21,0.13-0.3,0.21c-0.3,0.24-0.41,0.73-0.14,0.99c0.44,0.42,0.9,0.89,1.44,1.11
			C298.39,198.76,299.2,198.85,299.98,199.03z M299.1,207.79c1.14,0.18,2.09-0.29,3.01-0.85c0.67-0.41,0.71-0.99,0.19-1.55
			c-1.45-1.55-3.57-1.76-5.62-0.55c-0.92,0.55-1.01,1.45-0.18,2.12C297.26,207.57,298.15,207.79,299.1,207.79z M284.24,198.46
			c0.59-0.09,1.4-0.15,2.17-0.35c0.53-0.14,0.63-0.82,0.25-1.23c-0.57-0.62-1.29-1.02-2.12-1.09c-1.06-0.09-2.12-0.09-3.18-0.1
			c-0.65-0.01-1.22,0.26-1.73,0.63c-0.32,0.23-0.38,0.77-0.05,0.97c0.52,0.33,1.07,0.68,1.65,0.81
			C282.13,198.31,283.08,198.34,284.24,198.46z"/>
		<path d="M228.67,123.44c-1.05-0.53-2.11-1.05-3.16-1.6c-0.44-0.23-0.87-0.48-1.25-0.8c-0.15-0.12-0.25-0.47-0.18-0.64
			c0.05-0.13,0.42-0.26,0.6-0.21c0.96,0.26,1.91,0.58,2.87,0.87c1.68,0.51,3.41,0.76,5.16,0.78c3,0.05,5.99-0.04,8.98-0.43
			c1.17-0.15,2.37-0.11,3.55-0.07c2.24,0.07,4.49,0.2,6.73,0.3c0.31,0.01,0.63,0.08,0.93,0.02c0.88-0.17,1.74-0.02,2.6,0.12
			c1.72,0.28,3.48,0.41,5.16,0.84c2.77,0.7,5.56,1.41,8.02,3.01c1.15,0.75,2.43,1.27,3.62,1.96c2.17,1.27,4,2.98,5.77,4.76
			c0.04,0.04,0.11,0.1,0.11,0.15c-0.01,0.22,0.04,0.54-0.08,0.65c-0.13,0.11-0.49,0.09-0.65-0.02c-0.35-0.25-0.63-0.61-0.96-0.89
			c-1.1-0.93-2.2-1.85-3.32-2.75c-0.23-0.18-0.54-0.26-0.82-0.39c-0.49,0.65-0.14,1.17,0.1,1.63c0.23,0.43,0.62,0.78,0.92,1.17
			c0.35,0.44,0.73,0.87,1.02,1.34c0.65,1.07,0.11,2.2-1.14,2.31c-1.12,0.1-2.25,0.06-3.37,0.13c-0.99,0.06-1.99,0.15-2.98,0.27
			c-0.61,0.07-1.2,0.25-1.85,0.12c-0.39-0.08-0.85,0.09-1.26,0.23c-3.5,1.21-7.06,1.51-10.72,0.95c-0.62-0.09-1.24-0.11-1.87-0.16
			c-1.87-0.14-3.7-0.44-5.53-0.92c-1.57-0.41-3.16-0.72-4.7-1.25c-2.01-0.68-4-1.4-5.84-2.5c-0.13-0.08-0.33-0.05-0.51-0.07
			c-0.13,0.51,0.23,0.73,0.51,0.9c1.23,0.74,2.45,1.51,3.73,2.13c1.57,0.76,3.19,1.4,4.81,2.04c0.57,0.22,1.21,0.27,1.82,0.39
			c1.83,0.35,3.63,0.85,5.45,1.21c1.6,0.31,3.24,0.2,4.86,0c1.04-0.13,2.09-0.24,3.11-0.35c0.19,0.57-0.14,0.66-0.43,0.7
			c-0.93,0.13-1.86,0.28-2.79,0.32c-2.12,0.09-4.24,0.24-6.33-0.35c-1.2-0.34-2.45-0.47-3.66-0.79c-1.32-0.35-2.65-0.72-3.92-1.24
			c-1.96-0.79-3.96-1.51-5.83-2.55c-1.4-0.78-2.54-1.85-3.55-3.02c-1.21-1.42-2.29-2.97-2.76-4.84
			C229.41,125.82,229.06,124.75,228.67,123.44z M262.65,125.41c-0.04,0.59-0.05,0.9-0.09,1.19c-0.15,0.99-0.25,1.98-0.49,2.95
			c-0.39,1.58-1.35,2.76-2.75,3.63c-1.31,0.81-2.76,1.14-4.23,1.39c-0.58,0.1-1.24-0.05-1.84-0.21c-2.29-0.61-3.98-2.05-5.23-4
			c-1.03-1.62-1.66-3.36-1.12-5.34c0.07-0.27,0.05-0.57,0.07-0.97c-0.75,0-1.36-0.02-1.97,0c-1.93,0.06-3.86,0.17-5.8,0.19
			c-1.68,0.02-3.37-0.05-5.05-0.08c-0.68-0.01-1.37-0.03-2.05-0.02c-0.29,0-0.58,0.07-0.89,0.11c0.02,1.21,0.58,2.13,0.99,3.1
			c0.95,2.22,2.61,3.8,4.73,4.87c1.16,0.59,2.41,1.05,3.65,1.46c3.92,1.3,7.95,2.11,12.07,2.46c2.24,0.19,4.45,0.38,6.71,0.01
			c1.99-0.32,3.93-0.79,5.73-1.66c1.92-0.93,3.66-2.13,4.81-4.03c0.51-0.83,0.85-1.65,0.58-2.67c-0.3-0.2-0.58-0.49-0.92-0.6
			c-1.49-0.47-2.98-0.91-4.49-1.32C264.35,125.69,263.61,125.6,262.65,125.41z M259.33,126.07c-0.38,0.82-0.64,1.37-0.89,1.92
			c-0.86,1.89-3.05,2.6-4.89,2.16c-0.24-0.06-0.47-0.17-0.67-0.32c-0.66-0.49-1.24-1.07-1.41-1.92c-0.18-0.89-0.76-1.76-0.12-2.7
			c0.13-0.18,0.19-0.46-0.15-0.58c-1.36,1.1-1.62,1.66-1.37,3.16c0.09,0.55,0.23,1.1,0.41,1.63c0.69,1.93,2.45,3.23,4.41,3.16
			c1.33-0.05,2.54-0.56,3.65-1.3c0.2-0.13,0.37-0.34,0.5-0.54C259.63,129.39,260.24,127.98,259.33,126.07z M271.23,130.99
			c-0.98,1.09-1.81,2-2.61,2.92c-0.11,0.12-0.14,0.31-0.2,0.45c0.13,0.1,0.22,0.23,0.31,0.23c1.42,0.01,2.83,0.02,4.25-0.01
			c0.6-0.01,0.89-0.59,0.51-1.04C272.82,132.73,272.11,131.97,271.23,130.99z M256.25,124.29c-0.94-0.07-1.48,0.3-1.8,1.22
			c-0.21,0.6,0.24,1.45,0.95,1.81c0.66,0.34,1.19,0.01,1.72-0.31c0.59-0.36,1-1.24,0.83-1.9c-0.17-0.67-0.77-0.71-1.33-0.77
			C256.5,124.32,256.38,124.3,256.25,124.29z M233.87,131.64c-0.13-0.11-0.25-0.22-0.38-0.32c-0.03,0.05-0.11,0.13-0.1,0.14
			c0.1,0.12,0.21,0.23,0.31,0.35C233.75,131.76,233.79,131.72,233.87,131.64z"/>
		<path d="M279.33,177.45c1.39,0.23,2.8,0.57,3.88,1.81c2.73,3.12,6.29,4.15,10.31,3.81c1.53-0.13,2.89-0.81,4.17-1.6
			c1.17-0.72,2.27-1.55,3.41-2.32c0.75-0.51,1.55-0.79,2.48-0.57c0.95,0.22,1.68,0.8,2.33,1.49c0.24,0.25,0.2,0.62-0.05,0.85
			c-0.85,0.76-1.83,1.52-3,1.08c-1.95-0.73-3.6-0.36-5.25,0.78c-1.18,0.82-2.53,1.24-4,1.45c-3.19,0.44-6.07-0.25-8.7-2.05
			c-0.1-0.07-0.21-0.14-0.3-0.22c-1.11-1.02-2.32-1.53-3.91-1.3c-1.18,0.18-2.27-0.56-3.4-0.88c-0.45-0.13-0.53-0.91-0.18-1.3
			C277.66,177.84,278.35,177.45,279.33,177.45z"/>
		<path d="M272.55,168.76c0.55,0.4,0.84,0.62,1.1,0.81c-0.02,0.19,0.01,0.35-0.06,0.41c-1.15,1.24-1.8,2.75-1.89,4.39
			c-0.14,2.46,0.67,4.67,2.39,6.47c0.6,0.63,1.44,0.97,2.3,1.19c0.26,0.07,0.25,0.12,0.24,0.83c-2.09-0.16-3.64-1.11-4.61-2.96
			c-0.75-1.44-1.25-2.98-1.44-4.6c-0.11-0.94-0.11-1.86,0.3-2.75C271.44,171.37,271.94,170.17,272.55,168.76z"/>
		<path d="M263.64,112.76c-0.07,0.09-0.14,0.19-0.29,0.38c-0.5-0.44-0.98-0.9-1.51-1.31c-0.51-0.4-0.89-1.02-1.87-1.24
			c0.58,0.86,1.2,1.34,1.72,1.9c0.55,0.6,1.12,1.17,1.69,1.74c0.4,0.4,0.83,0.75,1.21,1.17c0.12,0.14,0.09,0.41,0.2,0.98
			c-3.43-2.94-6.03-6.25-9.49-8.56c0.01-0.47,0.25-0.55,0.59-0.37c0.49,0.26,0.97,0.56,1.46,0.82c0.45,0.24,0.81,0.88,1.46,0.39
			c0.57,0.36,1.21,0.64,1.7,1.09c0.91,0.84,1.73,1.79,2.6,2.67c0.16,0.16,0.39,0.26,0.59,0.39L263.64,112.76z"/>
		<path d="M251.03,107.24c1.27,0.67,2.2,1.92,3.83,2.55c-0.34-1.13-1.38-1.5-1.6-2.46c2.52,2.16,5.01,4.29,7.49,6.44
			c0.06,0.05,0.02,0.22,0.04,0.44c-1.26-0.03-1.7-1.43-2.81-1.66c-0.18,0.15-0.38,0.29-0.56,0.44c-0.07,0-0.16,0.03-0.19,0
			c-2.01-2-4.54-3.41-6.4-5.59C250.88,107.35,250.93,107.32,251.03,107.24z"/>
		<path d="M283.57,135.89c-0.85-2.28-1.08-4.38-1.32-6.48c-0.23-2.01-0.89-3.88-1.67-5.73c-0.14-0.32-0.24-0.66-0.35-0.97
			c0.5-0.3,0.68,0.01,0.84,0.25c1.16,1.75,1.86,3.7,2.09,5.75C283.43,130.99,283.44,133.3,283.57,135.89z"/>
		<path d="M263.71,112.82c-0.27-1.1-0.99-1.96-1.54-2.9c-0.09-0.15-0.17-0.31-0.25-0.44c0.18-0.33,0.4-0.35,0.61-0.15
			c0.86,0.81,1.79,1.56,2.52,2.48c0.87,1.11,1.67,2.27,2.21,3.61c0.27,0.67,0.88,1.2,1.34,1.78c0.38,0.48,0.81,0.92,0.81,1.59
			c-0.47,0.16-0.56-0.2-0.73-0.41c-1.38-1.68-2.76-3.37-4.14-5.05c-0.23-0.27-0.43-0.63-0.89-0.57
			C263.64,112.76,263.71,112.82,263.71,112.82z"/>
		<path d="M299.15,131.13c0.14-1.57,0.23-3,0.39-4.41c0.18-1.62,0.98-2.94,2.11-4.08c0.1-0.1,0.32-0.1,0.63-0.18
			c-0.04,0.33,0,0.6-0.11,0.77c-1.23,1.86-1.89,3.92-2.2,6.12C299.88,129.93,299.8,130.59,299.15,131.13z"/>
		<path d="M239.64,109.8c-0.88-0.93-2.19-0.73-3.47-1.24c0.82-0.21,1.42-0.39,2.03-0.5c0.22-0.04,0.51,0,0.71,0.1
			c1.49,0.8,3.07,1.36,4.69,1.85c0.77,0.23,1.48,0.66,2.2,1.03c0.14,0.07,0.21,0.28,0.31,0.43c-0.46,0.39-0.84,0.12-1.23-0.04
			c-0.98-0.39-1.98-0.75-2.94-1.2c-0.76-0.35-1.55-0.38-2.35-0.45C239.59,109.77,239.64,109.8,239.64,109.8z"/>
		<path d="M234.76,109.79c0.62,0.84,1.6,1.08,2.47,1.4c0,0.42-0.22,0.5-0.48,0.51c-0.18,0.01-0.38,0.02-0.55-0.02
			c-1.84-0.47-3.68-0.94-5.65-1.45c0.54-0.44,1.26-0.02,1.56-0.69c0.06-0.12,0.58-0.08,0.88-0.04c0.61,0.09,1.21,0.23,1.82,0.35
			L234.76,109.79z"/>
		<path d="M292.47,194.82c-0.32,0.12-0.63,0.34-0.95,0.33c-0.57-0.02-1.08-0.28-1.48-0.72c-0.86-0.95-1.49-2-1.44-3.34
			c0.02-0.55,0-1.1,0-1.65c0.42-0.02,0.5,0.19,0.55,0.45c0.11,0.55,0.22,1.1,0.33,1.65C289.81,193.14,290.61,194.29,292.47,194.82z"
			/>
		<path d="M246.8,107.19c0.63-0.01,1,0.47,1.43,0.81c1.27,1.02,2.61,1.93,4.07,2.65c0.89,0.45,1.66,1.06,2.39,1.63
			c-0.11,0.48-0.38,0.43-0.58,0.31c-1.13-0.66-2.25-1.33-3.36-2.03c-1.48-0.93-2.86-2-3.91-3.43L246.8,107.19z"/>
		<path d="M270.79,114.76c0.15,0.09,0.37,0.13,0.45,0.26c1.35,2.23,2.69,4.46,4,6.71c0.16,0.27,0.45,0.63,0.04,1.03
			c-0.13-0.11-0.3-0.19-0.38-0.33c-1.3-2.33-2.6-4.67-3.88-7.01c-0.11-0.21-0.12-0.48-0.18-0.72L270.79,114.76z"/>
		<path d="M242.67,107.58c0.06,0,0.13-0.03,0.18,0c2.41,1.11,4.9,2.08,6.91,3.9c0.08,0.07,0.1,0.22,0.18,0.38
			c-0.19,0.02-0.41,0.11-0.51,0.04c-1.74-1.32-3.72-2.21-5.66-3.18c-0.16-0.08-0.27-0.25-0.41-0.38c0,0,0.06,0.06,0.06,0.06
			c-0.23-0.29-0.47-0.58-0.7-0.88L242.67,107.58z"/>
		<path d="M234.81,109.84c0.11-0.39,0.28-0.71,0.77-0.62c0.74,0.13,1.48,0.27,2.22,0.37c0.61,0.09,1.23,0.14,1.85,0.2
			c0,0-0.06-0.03-0.06-0.03c0.85,0.44,1.71,0.89,2.55,1.32c-0.18,0.6-0.51,0.43-0.77,0.32c-1.83-0.79-3.78-1.11-5.69-1.59
			c-0.29-0.07-0.61-0.02-0.91-0.03C234.76,109.79,234.81,109.84,234.81,109.84z"/>
		<path d="M268.31,113.52c1.77,2.24,3.15,4.72,4.84,7.3c-0.42-0.08-0.65-0.05-0.7-0.14c-1.35-2.1-2.69-4.2-4-6.32
			c-0.14-0.23-0.06-0.58-0.09-0.88L268.31,113.52z"/>
		<path d="M233.05,111.99c-0.17,0.11-0.3,0.27-0.45,0.28c-1.62,0.16-3.16-0.41-4.99-0.5c1.28-0.5,1.8-0.55,3.75-0.38
			C232.17,111.46,232.17,111.46,233.05,111.99z"/>
		<path d="M277.24,123.13c-1.24-1.65-2.3-3.36-2.94-5.35c0.64,0.37,0.65,0.37,1.33,1.53c0.34,0.59,0.71,1.17,1,1.79
			C276.94,121.74,277.41,122.33,277.24,123.13z"/>
		<path d="M225.78,113.48c0.46-0.76,1.11-0.77,1.68-0.91c0.44-0.11,0.95,0.18,0.86,0.43c-0.13,0.36-0.45,0.37-0.76,0.38
			C227.02,113.42,226.48,113.44,225.78,113.48z"/>
		<path d="M241.82,108.39c-0.78-0.42-1.72-0.51-2.38-1.18c0.85,0.05,1.63,0.29,2.27,0.88c0.07,0.06,0.04,0.22,0.06,0.33
			C241.77,108.43,241.82,108.39,241.82,108.39z"/>
		<path d="M245.69,107.91c-0.91-0.13-1.74-0.4-2.42-1.17c0.22-0.04,0.36-0.12,0.42-0.08c0.66,0.42,1.31,0.86,1.96,1.29
			L245.69,107.91z"/>
		<path d="M247.69,106.14c0.61,0.14,1.07,0.49,1.3,1.19c-0.49-0.28-0.98-0.56-1.47-0.85C247.58,106.37,247.63,106.26,247.69,106.14z
			"/>
		<path d="M243.42,108.41c0,0-0.06-0.06-0.06-0.06c0,0.32-0.17,0.45-0.46,0.38c-0.36-0.09-0.71-0.22-1.07-0.33
			c-0.01,0.01-0.05,0.04-0.06,0.04C242.31,108.43,242.87,108.42,243.42,108.41z"/>
		<path d="M242.72,107.53c-0.11-0.02-0.23-0.01-0.33-0.06c-0.06-0.03-0.09-0.14-0.13-0.22c0.1,0.01,0.24-0.02,0.31,0.03
			c0.07,0.06,0.08,0.19,0.11,0.29C242.67,107.58,242.72,107.53,242.72,107.53z"/>
		<path d="M246.85,107.15c-0.2-0.04-0.4-0.08-0.79-0.15c0.52-0.23,0.75-0.24,0.75,0.2C246.8,107.19,246.85,107.15,246.85,107.15z"/>
		<path d="M245.64,107.96c0.11,0.05,0.22,0.1,0.34,0.15c-0.04,0.02-0.11,0.05-0.12,0.04c-0.06-0.07-0.11-0.16-0.17-0.24
			C245.69,107.91,245.64,107.96,245.64,107.96z"/>
		<polygon points="249.17,105.87 249.03,105.9 249.04,105.79 		"/>
		<path d="M247.4,108.82c-0.02,0.03-0.03,0.07-0.05,0.1c-0.02-0.05-0.05-0.1-0.07-0.15C247.32,108.79,247.36,108.8,247.4,108.82z"/>
		<path d="M268.36,113.49c-0.1-0.02-0.19-0.03-0.29-0.05c0.04,0,0.08-0.01,0.11,0c0.04,0.02,0.08,0.06,0.12,0.09
			C268.31,113.52,268.36,113.49,268.36,113.49z"/>
		<path d="M270.84,114.72c-0.06-0.08-0.13-0.15-0.19-0.23c0.05,0.09,0.1,0.18,0.14,0.27C270.79,114.76,270.84,114.72,270.84,114.72z
			"/>
	</g>
</g>
<g id="Layer_7">
	<text transform="matrix(1 0 0 1 192.9366 413.1379)"><tspan x="0" y="0" class="st5 st6">DAY</tspan><tspan x="8.08" y="74.53" class="st5 st6">11-28</tspan></text>
</g>
</svg>
