<?xml version="1.0" encoding="utf-8"?>
<!-- Generator: Adobe Illustrator 26.4.1, SVG Export Plug-In . SVG Version: 6.00 Build 0)  -->
<svg version="1.1" xmlns="http://www.w3.org/2000/svg" xmlns:xlink="http://www.w3.org/1999/xlink" x="0px" y="0px"
	 viewBox="0 0 504 504" style="enable-background:new 0 0 504 504;" xml:space="preserve">
<style type="text/css">
	.st0{display:none;}
	.st1{display:inline;fill:#85D0CB;}
	.st2{display:inline;}
	.st3{fill:#FFFFFF;}
	.st4{fill:none;stroke:#000000;stroke-linecap:round;stroke-linejoin:round;stroke-miterlimit:10;}
	.st5{font-family:'CarolGothic';}
	.st6{font-size:62.1064px;}
</style>
<g id="Layer_2" class="st0">
</g>
<g id="Layer_2_copy" class="st0">
</g>
<g id="Layer_1" class="st0">
</g>
<g id="Layer_3">
</g>
<g id="Layer_4">
</g>
<g id="Layer_1_copy">
</g>
<g id="Layer_6">
</g>
<g id="Layer_7">
	<g>
		<path d="M260.66,12.43c1.12-0.8,2.21-1.61,3.33-2.38c1.4-0.97,2.79-1.96,4.22-2.88c1.56-1,3.19-1.8,5.07-2.1
			c1.48-0.24,2.92-0.67,4.38-1.01c0.47-0.11,0.84-0.34,1.2-0.71c1.57-1.61,3.51-2.53,5.73-2.9c4.57-0.76,9.11-0.51,13.64,0.34
			c1.88,0.35,3.74,0.76,5.59,1.23c2.8,0.71,5.44,1.8,7.68,3.69c0.83,0.7,1.81,1.25,2.6,1.99c2.4,2.25,3.99,5.01,4.84,8.18
			c0.28,1.04,0.32,2.15,0.46,3.23c0.04,0.33,0.06,0.67,0.09,1.11c0.43,0.18,0.84,0.41,1.28,0.51c3.95,0.89,7.34,2.85,10.47,5.36
			c1.94,1.55,3.54,3.4,5.07,5.32c0.42,0.53,0.75,1.15,1.03,1.76c1.45,3.12,2.41,6.38,2.77,9.8c0.27,2.61-0.01,5.18-0.66,7.71
			c-0.19,0.72-0.46,1.44-0.84,2.08c-1.46,2.48-3.15,4.79-5.3,6.74c-1.33,1.21-2.91,2.01-4.45,2.89c-0.81,0.47-1.72,0.38-2.59,0.15
			c-0.58-0.16-1.15-0.39-1.77-0.6c-0.39,0.42-0.7,0.9-1.14,1.19c-1.3,0.86-2.59,1.83-4.34,1.23c-0.56-0.19-1.04,0.12-1.39,0.63
			c-0.61,0.9-1.21,1.82-1.89,2.67c-0.88,1.12-1.93,1.73-3.52,1.64c-1.34-0.08-2.54-0.34-3.73-0.89c-0.43-0.2-0.85-0.46-1.31-0.56
			c-1.24-0.28-1.99-1.09-2.64-2.1c-0.39-0.61-0.58-1.38-1.36-1.85c-0.57,1.05-0.87,2.08-0.98,3.16c-0.33,3.06,0.14,6.01,1.45,8.78
			c0.76,1.6,1.68,3.12,2.56,4.66c1.25,2.2,2.32,4.47,2.97,6.93c0.12,0.46,0.28,0.92,0.49,1.34c1.5,2.94,2.32,6.1,3.15,9.26
			c0.02,0.07,0.03,0.14,0.03,0.2c0.01,4.03-0.08,8.02-1.87,11.79c-1.06,2.24-2.31,4.32-3.97,6.15c-0.74,0.82-1.58,1.48-2.62,1.9
			c-1.2,0.49-2.33,1.15-3.55,1.59c-1.21,0.44-2.48,0.75-3.74,1.01c-1.09,0.22-1.97-0.19-2.59-1.13c0.44-0.71,1.05-0.02,1.53-0.34
			c0.44-0.29,1.02-0.37,1.53-0.56c1.79-0.68,3.53-1.43,4.97-2.77c1.03-0.96,1.69-2.1,2.2-3.39c0.91-2.31,0.91-4.68,0.64-7.07
			c-0.43-3.8-1.84-7.24-3.89-10.46c-1.77-2.79-3.78-5.34-6.3-7.49c-2.68-2.29-4.61-5.2-6.47-8.14c-0.54-0.85-0.92-1.84-1.19-2.82
			c-0.75-2.72-1.02-5.51-0.72-8.31c0.18-1.68,0.46-3.39,1.19-4.96c0.29-0.61,0.51-1.26,0.76-1.9c-0.88-0.26-1.73-0.42-2.51-0.76
			c-0.8-0.35-1.52-0.87-2.2-1.27c-0.88,0.39-1.58,0.89-2.35,1.01c-0.75,0.11-1.56-0.16-2.42-0.27c-0.54,0.4-0.69,1.1-0.87,1.73
			c-0.55,2.04-1.06,4.09-1.53,6.15c-1.05,4.52-2.47,8.93-4.09,13.28c-0.59,1.6-1.16,3.2-1.63,4.84c-0.72,2.56-1.82,4.99-3.41,7.16
			c-0.73,0.99-1.39,2.03-2.12,3.01c-2.12,2.88-4.85,5.16-7.4,7.62c-0.29,0.28-0.63,0.52-0.99,0.73c-4.13,2.4-8.17,4.95-12.71,6.57
			c-1.07,0.38-2.18,0.74-3.21,1.27c-1.87,0.97-3.73,1.98-5.62,2.89c-1.67,0.81-3.19,1.81-4.61,2.99c-0.73,0.61-1.42,1.27-2.13,1.91
			c-0.45,0.41-0.9,0.82-1.34,1.24c-1.46,1.43-2.97,2.81-3.88,4.7c-0.29,0.6-0.75,1.14-1.18,1.66c-1.2,1.47-1.57,3.13-1.23,4.98
			c0.83,4.57,1.56,9.15,2.48,13.7c0.47,2.33,1.25,4.61,1.9,6.9c0.77,2.7,1.88,5.26,3.05,7.81c0.8,1.73,1.42,3.54,2.23,5.27
			c0.69,1.48,1.53,2.89,2.32,4.32c1.55,2.81,3.22,5.54,5.22,8.07c0.4,0.51,0.86,1.04,0.77,1.89c-0.28-0.08-0.52-0.06-0.61-0.18
			c-2.25-2.84-4.27-5.84-6.07-8.99c-0.64-1.11-1.23-2.25-1.85-3.39c-0.52,0.26-0.32,0.61-0.26,0.89c0.99,4.61,2.45,9.09,3.74,13.62
			c1.46,5.12,3.25,10.14,4.91,15.19c0.23,0.71,0.56,1.39,0.84,2.08c1.74,4.3,2.88,8.81,4.63,13.11c0.85,2.08,1.88,4.09,2.82,6.13
			c0.43,0.93,0.82,1.87,1.27,2.79c0.86,1.78,1.73,3.56,2.63,5.32c0.74,1.46,1.5,2.91,2.3,4.34c0.64,1.13,1.31,2.24,2.04,3.31
			c1.71,2.54,3.35,5.14,5.18,7.61c1.72,2.31,3.67,4.4,5.62,6.5c3.31,3.57,7.07,6.61,11.14,9.26c2.29,1.49,4.76,2.67,7.26,3.77
			c2.75,1.21,5.56,2.26,8.47,3.02c3.16,0.83,6.29,1.81,9.46,2.59c1.65,0.4,3.37,0.53,5.06,0.71c1.63,0.18,3.26,0.33,4.9,0.39
			c1.36,0.04,2.73-0.08,4.09-0.12c0.51-0.02,1.03-0.13,1.84,0.31c-1.09,0.24-1.85,0.51-2.62,0.56c-1.29,0.08-2.59,0.06-3.89,0.02
			c-1.16-0.04-2.31-0.25-3.47-0.25c-2.48-0.01-4.87-0.45-7.25-1.12c-3.02-0.84-6.07-1.57-9.09-2.42c-1.64-0.46-3.25-1.02-4.85-1.6
			c-6.3-2.25-11.97-5.58-17.07-9.92c-3.5-2.98-6.59-6.34-9.52-9.85c-1.08-1.3-1.91-2.82-2.86-4.24c-0.83-1.25-1.64-2.52-2.52-3.73
			c-1.69-2.33-3.07-4.83-4.28-7.44c-0.62-1.35-1.44-2.6-2.19-3.94c-0.12,0.16-0.26,0.26-0.24,0.33c0.74,3.39,1.38,6.82,2.28,10.17
			c2.05,7.58,3.79,15.23,5.38,22.92c0.61,2.94,1.29,5.87,1.88,8.81c0.35,1.74,0.54,3.51,1.2,5.18c0.19,0.48,0.04,0.92-0.47,1.39
			c-0.25-0.41-0.54-0.71-0.62-1.06c-0.62-2.87-1.19-5.74-1.78-8.62c-0.18-0.87-0.35-1.74-0.54-2.61c-0.93-4.34-1.84-8.68-2.8-13.01
			c-0.25-1.12-0.65-2.21-1.03-3.5c-0.38,0.27-0.68,0.39-0.86,0.62c-0.43,0.53-0.84,1.08-1.19,1.66c-0.34,0.57-0.52,1.25-1.34,1.36
			c-0.17,0.02-0.32,0.25-0.45,0.4c-2.65,2.96-5.8,5.38-8.7,8.06c-2.65,2.45-5.37,4.83-8.03,7.27c-0.8,0.74-1.54,1.54-2.29,2.33
			c-0.71,0.74-1.42,1.46-2.51,1.48c-0.56,1.21-0.3,2.36-0.19,3.5c0.28,2.8,1.07,5.49,1.75,8.2c0.65,2.58,1.45,5.12,2.15,7.68
			c0.17,0.63,0.57,1.25,0.37,1.95c-1.27,0.15-1.47,0.11-1.75-0.79c-0.47-1.5-0.88-3.01-1.3-4.52c-0.62-2.23-1.21-4.47-1.82-6.71
			c-0.05-0.2-0.13-0.39-0.17-0.59c-0.49-2.82-0.98-5.62-1.04-8.51c-0.11-5.63,0.8-11.16,1.47-16.71c0.11-0.95,0.23-1.9,0.39-2.84
			c0.22-1.28,0.36-2.58,0.74-3.82c1.39-4.51,2.32-9.13,3.24-13.75c0.36-1.81,0.76-3.61,1.22-5.39c0.62-2.39,0.97-4.81,1.25-7.25
			c0.19-1.63,0.44-3.25,0.6-4.88c0.33-3.34,0.17-6.67,0.04-10.02c-0.15-3.74-1.29-7.24-2.12-10.81c-0.01-0.05-0.1-0.09-0.27-0.23
			c-0.16,0.67-0.21,1.27-0.16,1.9c0.15,1.77,0.34,3.53,0.38,5.3c0.03,1.43-0.2,2.86-0.21,4.29c-0.03,3.9-0.65,7.74-1.25,11.58
			c-0.45,2.89-1.12,5.75-1.7,8.63c-0.05,0.27-0.15,0.53-0.17,0.8c-0.27,3.56-1.51,6.92-2.18,10.4c-0.4,2.07-1.15,4.07-1.66,6.12
			c-0.56,2.25-1.31,4.45-1.53,6.78c-0.16,1.69-0.54,3.36-0.82,5.04c-0.05,0.34-0.08,0.68-0.08,1.02c0.02,3.41-0.15,6.83,0.12,10.22
			c0.27,3.32,0.59,6.65,1.64,9.87c0.57,1.73,0.76,3.58,1.18,5.36c0.54,2.33,1.18,4.63,2.26,6.77c0.43,0.85,0.77,1.72,0.97,2.64
			c-1.39,0.4-3.76,0.45-5.89,0.16c-0.08-0.1-0.21-0.2-0.25-0.31c-0.76-2.48-1.51-4.96-2.25-7.44c-0.18-0.59-0.35-1.18-0.47-1.78
			c-0.2-1-0.36-2.01-0.53-3.02c-0.17-1.01-0.3-2.03-0.48-3.03c-0.56-3.02-0.72-6.09-1.09-9.13c-0.15-1.21-0.03-2.46-0.07-3.68
			c-0.03-1.16-0.15-2.31-0.16-3.47c-0.01-0.95,0.12-1.9,0.15-2.85c0.05-1.7,0.07-3.41,0.11-5.12c0.01-0.34,0.03-0.68,0.09-1.02
			c1.01-5.71,2.24-11.37,3.78-16.96c0.71-2.56,1.52-5.1,1.96-7.73c0.38-2.22,0.71-4.45,1.1-6.67c0.32-1.81,0.62-3.63,1.03-5.43
			c0.58-2.54,0.71-5.14,0.96-7.72c0.41-4.22,0.23-8.46-0.06-12.69c-0.07-1.02-0.22-2.04-0.45-3.03c-0.57-2.53-1.12-5.07-1.84-7.55
			c-1.03-3.54-2.23-7.02-3.32-10.54c-1.23-3.97-2.41-7.95-3.62-11.94c-0.05,0.06-0.18,0.14-0.18,0.22c0.1,4.1,0.53,8.15,1.41,12.16
			c0.76,3.46,1.58,6.93,2.02,10.44c0.53,4.13,1.6,8.17,2.03,12.3c0.33,3.12,0.6,6.24,0.75,9.37c0.07,1.56-0.06,3.16-0.33,4.69
			c-0.42,2.36-0.56,4.74-0.68,7.13c-0.02,0.34-0.04,0.69-0.12,1.01c-0.52,2.12-1.05,4.24-1.59,6.36c-0.86,3.37-1.91,6.68-2.51,10.12
			c-0.2,1.14-0.55,2.25-0.9,3.36c-0.71,2.21-1.18,4.48-1.59,6.76c-0.25,1.41-0.69,2.78-0.96,4.18c-0.81,4.23-1.36,8.49-1.29,12.81
			c0.03,1.77-0.22,3.54,0.01,5.31c0.21,1.62,0.26,3.26,0.52,4.87c0.47,2.9,1.45,5.67,2.23,8.49c0.62,2.24,1.43,4.41,2.31,6.55
			c0.46,1.13,1.09,2.2,1.64,3.29c0.24,0.48,0.48,0.95,0.8,1.56c-0.35,0.11-0.58,0.25-0.81,0.25c-3.48,0.02-6.97,0-10.45,0.02
			c-1,0.01-1.68-0.37-2.09-1.31c-1.38-3.2-2.79-6.37-4.18-9.57c-1.23-2.83-2.12-5.76-2.7-8.78c-0.19-1-0.33-2.02-0.51-3.02
			c-0.36-2.02-0.27-4.05-0.26-6.09c0.01-2.87-0.12-5.74,0.19-8.6c0.15-1.42,0.39-2.83,0.59-4.25c0.04-0.27,0.1-0.54,0.13-0.81
			c0.57-4.85,2.1-9.46,3.53-14.09c1.21-3.92,2.21-7.88,2.65-11.96c0.03-0.27,0.04-0.55,0.12-0.81c0.75-2.33,0.43-4.69,0.27-7.05
			c-0.15-2.18-0.34-4.36-0.37-6.55c-0.04-2.82-0.56-5.55-1.3-8.25c-0.71-2.56-1.32-5.16-2.48-7.57c-0.06-0.12-0.16-0.21-0.33-0.44
			c-0.2,0.27-0.46,0.48-0.53,0.75c-0.31,1.05-0.6,2.1-0.82,3.17c-0.55,2.76-1.55,5.38-2.53,7.99c-1.12,2.99-2.15,6.03-3.69,8.85
			c-0.13,0.24-0.25,0.49-0.39,0.72c-1.47,2.53-2.97,5.04-4.4,7.59c-0.73,1.3-1.35,2.67-2.01,4c-0.85,1.71-1.79,3.38-2.53,5.13
			c-1.11,2.64-2.02,5.35-2.28,8.23c-0.04,0.47-0.22,0.93-0.35,1.38c-0.33,1.11-0.57,2.24-0.56,3.41c0.03,3.01-0.66,5.95-0.69,8.96
			c-0.04,3.91,0.38,7.75,1.09,11.59c0.49,2.65,1.49,5.08,2.59,7.51c1.33,2.94,2.78,5.79,4.71,8.37c1.47,1.97,2.95,3.93,4.76,5.61
			c1.65,1.54,3.13,3.23,4.51,5.02c0.11,0.14,0.13,0.36,0.21,0.6c-1.12,0.49-2.03,0-2.91-0.48c-0.81-0.44-1.57-0.96-2.74-1.68
			c0.33,0.69,0.47,0.97,0.6,1.25c0.14,0.29,0.27,0.58,0.47,0.99c-0.79,0.27-1.46,0.17-2.12,0.17c-0.61,0-1.24,0.02-1.84-0.1
			c-0.38-0.07-0.74-0.33-1.07-0.56c-4.7-3.26-8.67-7.27-12.15-11.79c-0.12-0.16-0.23-0.34-0.37-0.49c-2.69-2.87-4.54-6.31-6.38-9.73
			c-1.72-3.18-3.45-6.37-4.42-9.89c-0.69-2.5-1.28-5.02-1.91-7.53c-0.54-2.12-0.93-4.27-1.03-6.45c-0.06-1.23-0.11-2.46-0.07-3.68
			c0.08-2.32,0.32-4.64,0.35-6.96c0.04-4.33,0.63-8.56,1.91-12.7c0.38-1.24,0.71-2.5,1-3.76c0.88-3.73,2.22-7.29,3.67-10.84
			c1.65-4.05,3.47-8.03,5.44-11.92c1.09-2.15,2.02-4.32,2.67-6.62c0.34-1.18,0.57-2.38,0.85-3.58c0.09-0.4,0.11-0.82,0.25-1.2
			c0.69-1.78,0.58-3.62,0.41-5.46c-0.4-4.22-1.12-8.38-1.9-12.54c-0.51-2.75-0.86-5.53-1.34-8.29c-0.57-3.3-1.2-6.58-1.77-9.87
			c-0.18-1.01-0.27-2.03-0.36-3.05c-0.18-1.97-0.42-3.95-0.45-5.92c-0.02-1.7,0.14-3.41,0.36-5.1c0.26-1.96,0.61-3.92,1.05-5.84
			c0.39-1.65,0.95-3.27,1.48-4.88c0.28-0.84,0.66-1.65,0.97-2.48c0.2-0.54,0.12-1.02-0.18-1.55c-1.7-3.05-2.41-6.37-2.35-9.83
			c0.08-4.74,0.89-9.38,2.54-13.83c0.87-2.36,2.01-4.63,3.16-6.88c2.28-4.46,5.18-8.5,8.46-12.28c0.75-0.87,1.35-1.88,1.98-2.86
			c2.15-3.32,4.25-6.67,6.43-9.97c0.83-1.25,1.89-2.33,2.75-3.57c1.2-1.74,2.31-3.54,3.43-5.33c0.94-1.5,1.89-3,2.73-4.56
			c1.31-2.39,2.5-4.84,3.79-7.24c1.55-2.88,3.21-5.69,5.08-8.38c0.5-0.72,1.13-1.36,1.72-2.02c1.01-1.11,2.05-2.19,3.05-3.31
			c0.87-0.97,1.77-1.87,2.79-2.69c2.29-1.83,4.51-3.74,6.75-5.62c1.58-1.33,3.38-2.27,5.23-3.18c2.96-1.46,6.12-2.31,9.25-3.27
			c2.29-0.7,4.63-1.24,7.02-1.4c2.67-0.17,5.32,0.03,7.79,1.27C259.99,12.23,260.19,12.27,260.66,12.43z M302.02,7.25
			c-0.11,0.02-0.22,0.04-0.32,0.06c0.11-0.01,0.23-0.03,0.34-0.04c-0.27,0.66,0.49,0.79,0.64,1.22c0.12-0.02,0.23-0.05,0.35-0.07
			c-0.12,0.02-0.24,0.04-0.36,0.05C303.09,7.73,302.32,7.61,302.02,7.25z M242.07,77.3c0.25-0.04,0.57,0.01,0.72-0.12
			c0.41-0.35,0.73-0.79,0.67-1.39c0.53,0.15,0.7-0.3,0.93-0.6c1.86-2.3,3.19-4.92,4.39-7.6c1.17-2.62,2.32-5.24,3.47-7.86
			c0.41-0.93,0.81-1.87,1.22-2.81c1.33-3.06,2.57-6.17,4-9.18c1.32-2.77,2.83-5.45,4.26-8.17c0.12-0.23,0.27-0.47-0.28-0.77
			c-0.11,0.18-0.24,0.42-0.4,0.64c-1.28,1.76-2.62,3.48-3.83,5.28c-0.68,1.01-1.11,2.19-1.78,3.22c-1.09,1.68-1.83,3.5-2.51,5.36
			c-0.54,1.47-0.9,3.01-1.51,4.45c-1.41,3.32-2.6,6.72-3.87,10.1c-0.72,1.92-1.53,3.79-2.73,5.48c-0.54,0.77-0.89,1.67-1.32,2.52
			c-0.47,0.5-0.94,0.99-1.39,1.51c0,0.31-0.4,0.55-0.25,1.04C242.31,77.98,242.36,77.66,242.07,77.3z M210.49,58.89
			c-0.34,0.32-0.76,0.58-0.99,0.96c-0.4,0.63-0.72,1.32-1,2.01c-0.56,1.4-1.23,2.73-2.1,3.96c-0.23,0.33-0.38,0.72-0.58,1.08
			c-1.56,2.8-3.3,5.49-5.38,7.93c-2.75,3.22-5.3,6.58-7.41,10.25c-0.75,1.29-1.32,2.69-1.99,4.03c-0.87,1.71-1.41,3.54-1.88,5.39
			c-0.24,0.97-0.34,1.98-0.33,3c0.18-0.03,0.29-0.01,0.31-0.05c0.99-1.78,2.04-3.53,2.95-5.34c0.98-1.96,2.15-3.79,3.51-5.49
			c1.4-1.76,2.75-3.55,3.89-5.5c1.03-1.76,2.24-3.43,3.16-5.24c0.89-1.75,1.85-3.47,2.71-5.24c1.19-2.45,2.34-4.91,3.47-7.39
			c0.65-1.42,1.1-2.93,1.62-4.41c0.02-0.06,0.04-0.12,0.04-0.18c0-0.04-0.03-0.09-0.05-0.13C210.46,58.63,210.47,58.76,210.49,58.89
			z M212.99,207.6c0.59-0.53,0.68-1.07,0.71-1.61c0.04-0.75,0.03-1.5,0.07-2.25c0.19-4.3,0.39-8.59,0.58-12.89
			c0.01-0.2,0.01-0.41-0.03-0.61c-0.48-2.63-0.74-5.27-0.68-7.94c0-0.2-0.04-0.41-0.09-0.61c-0.39-1.73-0.07-3.56-0.69-5.27
			c-0.07-0.18,0.02-0.41,0.01-0.61c-0.05-0.68-0.05-1.36-0.18-2.02c-0.97-4.76-1.34-9.6-1.77-14.42c-0.27-2.98-0.14-6.01,0.03-9.01
			c0.24-4.43,0.79-8.83,2.16-13.09c0.1-0.32,0.16-0.67,0.17-1.01c0.04-2.06,1.12-3.78,1.92-5.56c0.41-0.9,0.99-1.77,1.42-2.7
			c0.31-0.67,0.74-1.29,1.12-1.93c0.37-0.65,0.78-1.29,1.1-1.96c0.88-1.85,1.84-3.62,3.47-4.97c1.1-0.91,2-2.06,3.08-2.99
			c1.71-1.47,3.47-2.87,5.25-4.24c1.45-1.12,2.89-2.27,4.65-2.95c2.48-0.96,4.94-1.99,7.41-2.98c2.74-1.09,5.34-2.41,7.58-4.37
			c0.46-0.4,1-0.71,1.54-1c2.25-1.18,4.19-2.79,6.1-4.44c0.98-0.85,1.92-1.76,2.72-2.77c1.23-1.55,2.42-3.14,3.43-4.83
			c0.97-1.63,1.68-3.42,2.52-5.13c1.53-3.12,2.81-6.36,3.77-9.7c1.13-3.93,2.06-7.92,3.06-11.89c0.13-0.53,0.16-1.08,0.33-1.6
			c1.06-3.31,2.15-6.62,3.21-9.93c0.07-0.23,0.05-0.49,0.08-0.8c-0.24,0.11-0.42,0.13-0.48,0.22c-1.12,1.71-2.33,3.37-3.32,5.14
			c-2.09,3.72-3.12,7.85-4.29,11.91c-0.57,1.96-1.01,3.96-1.7,5.89c-1.24,3.48-2.44,6.97-4.41,10.11c-1.78,2.83-3.65,5.6-5.49,8.38
			c-0.22,0.34-0.54,0.62-0.84,0.89c-1.75,1.62-3.51,3.24-5.26,4.85c-1.46,1.35-3.04,2.52-4.82,3.43c-1.15,0.59-2.28,1.23-3.39,1.89
			c-2.23,1.32-4.46,2.65-6.67,4c-1.69,1.03-3.36,2.09-5.02,3.17c-0.97,0.63-1.87,1.38-2.85,1.98c-0.99,0.61-1.9,1.29-2.81,2.03
			c-2.05,1.68-4.25,3.18-5.95,5.27c-0.64,0.79-1.45,1.44-2.11,2.22c-1.31,1.57-2.43,3.27-3.53,5c-2.72,4.24-4.61,8.82-5.9,13.64
			c-0.79,2.95-1.41,5.96-1.75,9.02c-0.29,2.65-0.54,5.29-0.66,7.95c-0.13,2.82,0.5,5.57,0.51,8.37c0,1.78,0.18,3.53,0.61,5.26
			c0.08,0.33,0.07,0.68,0.11,1.02c0.16,1.15,0.28,2.3,0.49,3.44c0.31,1.67,0.7,3.33,1.04,5c0.43,2.14,0.78,4.3,1.28,6.42
			c0.52,2.19,0.99,4.38,1.19,6.63c0.14,1.56,0.44,3.1,0.66,4.65c0.16,1.14,0.32,2.29,0.46,3.44
			C212.39,202.99,212.27,205.26,212.99,207.6z M202.07,169.81c0-0.41,0.04-0.8-0.01-1.19c-0.06-0.54-0.25-1.07-0.28-1.61
			c-0.22-4.56-0.69-9.11-0.5-13.7c0.13-3.15,0.49-6.26,1-9.36c0.35-2.15,0.97-4.26,1.36-6.4c0.26-1.43,0.77-2.75,1.33-4.07
			c0.64-1.51,1.25-3.02,1.91-4.52c0.41-0.93,0.79-1.9,1.36-2.74c1.69-2.48,3.02-5.18,4.75-7.64c0.67-0.96,1.37-1.86,2.21-2.63
			c1.77-1.6,3.59-3.14,5.42-4.67c1.15-0.96,2.33-1.89,3.54-2.77c1.04-0.76,2.17-1.39,3.22-2.15c1.94-1.39,3.82-2.87,5.78-4.23
			c1.01-0.7,2.05-1.31,2.76-2.38c0.33-0.49,0.9-0.82,1.4-1.18c2.09-1.53,4.3-2.89,6.23-4.65c0.85-0.78,1.84-1.41,2.79-2.07
			c2.61-1.81,4.76-4.08,6.74-6.53c2.46-3.04,4.1-6.6,6.05-9.96c0.31-0.53,0.62-1.07,0.82-1.65c1.32-3.87,2.96-7.64,3.98-11.62
			c0.78-3.04,1.48-6.09,2.52-9.06c0.09-0.26,0.25-0.64-0.28-0.89c-0.3,0.53-0.64,1.03-0.89,1.58c-0.91,1.98-1.79,3.98-2.69,5.97
			c-1.9,4.23-3.79,8.46-5.7,12.69c-0.17,0.37-0.41,0.71-0.62,1.06c-0.8,1.35-1.6,2.7-2.41,4.04c-1.49,2.45-2.95,4.93-5.05,6.93
			c-1.68,1.6-3.4,3.15-5.13,4.7c-1.47,1.32-2.96,2.63-4.47,3.9c-1.62,1.36-3.21,2.77-4.93,3.98c-3.13,2.19-6.33,4.27-9.53,6.35
			c-2.75,1.79-5.46,3.63-7.93,5.79c-0.87,0.76-1.61,1.68-2.53,2.37c-1.78,1.34-3.11,3.05-4.41,4.81c-1.54,2.08-2.63,4.44-4.07,6.59
			c-1.36,2.04-2.1,4.42-3.05,6.68c-0.53,1.25-1.07,2.51-1.47,3.81c-0.82,2.67-1.43,5.39-1.68,8.19c-0.19,2.03-0.63,4.04-0.87,6.07
			c-0.17,1.42-0.26,2.86-0.25,4.29c0.03,2.59-0.12,5.19,0.61,7.73c0.39,1.37,0.68,2.8,0.83,4.22c0.21,2.08,1.08,3.92,1.86,5.8
			C201.81,169.78,201.92,169.77,202.07,169.81z M276.69,20.61c-2.04,0.09-3.87,0.21-5.7,0.24c-1.32,0.03-2.57,0.35-3.77,0.83
			c-2.54,1.01-4.98,2.21-7.28,3.7c-3.74,2.43-6.64,5.66-8.78,9.53c-1.74,3.16-3.56,6.3-4.64,9.78c-0.44,1.43-0.98,2.84-1.31,4.29
			c-0.61,2.66-1.26,5.31-2.16,7.88c-0.91,2.57-2,5.07-3.17,7.54c-1.24,2.64-2.92,4.91-4.96,6.96c-0.57,0.58-1.08,1.22-1.63,1.81
			c-1.3,1.4-2.56,2.84-3.93,4.16c-1.12,1.08-2.39,2-3.59,3c-2.04,1.7-4.07,3.39-6.61,4.33c-0.32,0.12-0.62,0.3-0.9,0.48
			c-2.29,1.48-4.57,2.96-6.87,4.41c-2.23,1.41-4.56,2.73-6.43,4.66c-0.18,0.19-0.44,0.32-0.67,0.46c-2.51,1.44-4.56,3.45-6.65,5.4
			c-0.79,0.74-1.05,1.22-1.46,2.33c0.28-0.17,0.52-0.29,0.74-0.45c2.35-1.64,4.74-3.22,7.02-4.95c1.87-1.42,4.2-1.96,6.07-3.36
			c0.2-0.15,0.53-0.12,0.78-0.22c1.91-0.73,3.78-1.51,5.56-2.57c2.04-1.22,4.08-2.44,6.26-3.44c2.04-0.94,4.03-2.05,5.85-3.35
			c1.76-1.26,3.32-2.82,4.9-4.32c3.34-3.18,5.66-7.13,8.21-10.91c0.19-0.28,0.31-0.6,0.45-0.92c0.65-1.5,1.23-3.03,1.94-4.5
			c0.83-1.73,1.44-3.53,1.98-5.37c0.98-3.33,1.77-6.73,3.33-9.88c0.7-1.4,1.09-2.96,1.84-4.32c2.02-3.64,4.4-7.08,7-10.32
			c2.74-3.42,5.83-6.5,9.64-8.77c1.93-1.15,3.81-2.39,6.12-2.74c0.78-0.12,1.51-0.57,2.26-0.9
			C276.27,21.05,276.39,20.88,276.69,20.61z M185.43,144.16c0.56-0.92,0.64-1.66,0.77-2.38c0.58-3.21,0.96-6.45,2.01-9.58
			c1.47-4.4,2.98-8.76,5.23-12.83c1.22-2.21,2.41-4.45,3.85-6.51c1.79-2.57,3.81-4.97,5.74-7.44c0.5-0.64,1.05-1.26,1.54-1.9
			c0.14-0.18,0.42-0.41,0.04-0.75c-0.33,0.16-0.72,0.3-1.03,0.53c-1.7,1.26-3.47,2.43-5.04,3.83c-3.52,3.14-6.75,6.57-9.37,10.5
			c-1.01,1.52-1.94,3.15-2.6,4.85c-1.01,2.6-1.6,5.35-2.02,8.12c-0.26,1.68-0.49,3.35-0.43,5.08
			C184.23,138.47,185.14,141.11,185.43,144.16z M270.97,35.73c1,0.07,1.66-0.26,2.2-0.78c2.42-2.34,5.2-4.15,8.13-5.79
			c1.44-0.8,2.96-1.37,4.48-1.95c2.24-0.86,4.58-1.28,6.94-1.7c2.31-0.41,4.62-0.48,6.92-0.42c3.33,0.08,6.67,0.16,10,0.21
			c0.4,0.01,0.82-0.01,1.21,0.08c1.06,0.25,2.11,0.53,3.23,0.44c0.32-0.03,0.68,0.09,0.99,0.21c1.71,0.65,3.45,1.19,5.11,2.03
			c2.48,1.24,4.65,2.8,6.66,4.69c2.05,1.93,3.23,4.36,4.28,6.88c0.42,1,0.66,2.08,1.08,3.08c0.47,1.14,0.92,2.26,0.89,3.54
			c-0.01,0.32,0.03,0.83,0.71,0.87c0.07-0.76,0.14-1.49,0.21-2.23c0.21-2.22-0.22-4.36-0.97-6.41c-0.69-1.87-1.87-3.45-3.28-4.89
			c-1.62-1.67-3.24-3.35-5.24-4.56c-1.81-1.1-3.66-2.13-5.54-3.09c-1.89-0.96-3.84-1.79-5.94-2.18c-1.4-0.26-2.81-0.49-4.22-0.65
			c-1.35-0.15-2.7-0.25-4.06-0.29c-1.9-0.06-3.81-0.08-5.71-0.07c-2.45,0.01-4.91,0.03-7.31,0.62c-1.78,0.44-3.56,0.93-5.33,1.42
			c-2.44,0.68-4.79,1.56-6.91,3.02c-1.39,0.96-2.59,2.22-4.2,2.87c-0.12,0.05-0.21,0.18-0.3,0.28c-1.07,1.15-2.16,2.28-3.2,3.45
			C271.47,34.79,271.25,35.28,270.97,35.73z M216.83,206.02c-0.13-0.04-0.26-0.08-0.39-0.12c-0.13,0.28-0.31,0.55-0.38,0.84
			c-0.76,3.04-1.49,6.08-2.25,9.13c-0.26,1.06-0.54,2.11-0.83,3.16c-0.31,1.11-0.66,2.22-0.97,3.33c-0.18,0.65-0.35,1.32-0.47,1.98
			c-0.2,1.07-0.33,2.16-0.56,3.22c-0.26,1.2-0.63,2.38-0.89,3.58c-0.73,3.33-1.4,6.67-2.16,9.99c-0.7,3.07-1.3,6.14-1.41,9.29
			c-0.01,0.41-0.04,0.82-0.09,1.22c-0.36,2.65-0.35,5.31-0.09,7.97c0.12,1.22,0.15,2.45,0.26,3.67c0.23,2.52,0.69,5,1.43,7.43
			c0.08,0.25,0.11,0.69,0.65,0.54c0-0.68,0.07-1.36-0.01-2.03c-0.28-2.31-0.44-4.62-0.3-6.95c0.06-1.02,0.11-2.08-0.09-3.07
			c-0.51-2.61,0.1-5.17,0.2-7.75c0.06-1.49,0.43-2.97,0.53-4.46c0.15-2.26,0.56-4.47,1.14-6.65c0.35-1.32,0.83-2.61,1.1-3.94
			c0.67-3.35,1.77-6.58,2.6-9.88c0.43-1.71,1.31-3.32,1.01-5.17c0.61-2.1,0.78-4.28,1.1-6.44c0.28-1.89,0.67-3.76,0.68-5.68
			c0-0.68,0.13-1.36,0.18-2.04C216.85,206.82,216.83,206.42,216.83,206.02z M175.82,231.17c0.32-0.9,0.64-1.8,0.96-2.69
			c0.46-1.28,0.84-2.61,1.42-3.83c1.26-2.66,2.23-5.42,3.22-8.18c0.62-1.73,1.37-3.42,1.96-5.16c1.58-4.65,2.97-9.36,3.9-14.19
			c0.3-1.54,0.61-3.07,0.96-4.6c0.78-3.32,1.44-6.66,1.29-10.1c-0.05-1.02,0-2.05,0-3.07c-0.01-2.73,0.01-5.46-0.05-8.18
			c-0.02-0.95-0.18-1.9-0.31-2.85c-0.14-1.01-0.29-2.02-0.47-3.03c-0.24-1.41-0.51-2.81-0.78-4.21c-0.05-0.26-0.2-0.5-0.39-0.92
			c-0.09,0.37-0.15,0.5-0.16,0.64c-0.27,4.35,0.32,8.71,0.03,13.06c0.41,3.32,0.08,6.64-0.09,9.96c-0.13,2.38-0.55,4.74-0.69,7.12
			c-0.13,2.2-0.63,4.31-1.1,6.43c-0.52,2.33-1.21,4.62-1.63,6.96c-0.34,1.91-0.97,3.69-1.81,5.41c-0.87,1.78-1.46,3.66-2.07,5.54
			c-0.48,1.49-1.17,2.9-1.71,4.38c-0.37,1.02-0.53,2.12-0.95,3.12C176.24,225.44,175.93,228.26,175.82,231.17z M226.47,44.5
			c-0.59,0.58-0.88,0.76-1.02,1.02c-1.09,2.05-2.23,4.07-3.19,6.17c-1.63,3.6-3.04,7.3-3.75,11.22c-0.23,1.28-0.61,2.51-1.13,3.71
			c-0.76,1.75-1.59,3.48-2.18,5.29c-0.49,1.49-0.99,2.96-1.79,4.31c-0.04,0.07,0.07,0.22,0.11,0.36c0.64-0.32,1.04-0.87,1.43-1.43
			c0.47-0.67,0.95-1.33,1.42-2c0.86-1.23,1.85-2.39,2.55-3.7c1.21-2.28,2.27-4.65,3.05-7.12c1.23-3.91,2.01-7.93,2.76-11.95
			c0.25-1.35,0.56-2.67,1.15-3.91C226.11,46,226.19,45.47,226.47,44.5z M241.32,36.73c-0.85,0.62-1.71,1.22-2.53,1.87
			c-2.6,2.05-4.79,4.51-6.28,7.45c-1.66,3.28-2.97,6.73-3.73,10.35c-0.46,2.2-1.08,4.37-1.48,6.58c-0.6,3.41-2.18,6.43-3.51,9.56
			c-0.09,0.2-0.1,0.44-0.15,0.66c0.67-0.41,1.09-0.93,1.49-1.46c1.33-1.74,2.34-3.65,3.18-5.67c1.24-2.96,2.28-5.97,2.76-9.17
			c0.21-1.41,0.63-2.78,1.03-4.16c0.65-2.23,1.61-4.34,2.74-6.37c1.3-2.33,2.81-4.5,4.45-6.6
			C240.02,38.82,240.88,37.96,241.32,36.73z M169.65,241.81c0.06-0.45,0.15-0.78,0.13-1.1c-0.15-2.39,0.11-4.76,0.4-7.13
			c0.28-2.29,0.44-4.63,1.01-6.86c0.7-2.76,1.26-5.57,2.34-8.23c0.56-1.38,0.96-2.82,1.5-4.2c0.8-2.09,1.67-4.16,2.49-6.24
			c0.12-0.31,0.18-0.66,0.21-1c0.02-0.22-0.05-0.46-0.11-0.88c-0.28,0.32-0.43,0.44-0.53,0.6c-1.67,2.57-3.11,5.27-4.42,8.04
			c-1.56,3.28-2.6,6.72-3.51,10.21c-0.62,2.39-0.7,4.83-0.77,7.29c-0.08,2.68,0.16,5.3,0.63,7.92
			C169.1,240.74,169.14,241.31,169.65,241.81z M249.25,22.16c-2.78-1.01-5.58-1.33-8.36-0.14c-1.19,0.51-2.41,0.96-3.58,1.51
			c-0.67,0.32-1.29,0.76-1.91,1.18c-0.68,0.46-1.34,0.94-1.98,1.44c-1.01,0.8-2.03,1.6-3,2.46c-2.46,2.19-4.5,4.74-6.37,7.44
			c-0.54,0.78-0.93,1.66-1.35,2.51c-0.07,0.15,0.02,0.38,0.04,0.66c0.83-0.28,1.17-0.96,1.61-1.54c2.42-3.17,5.33-5.83,8.52-8.19
			c1.26-0.93,2.67-1.65,3.91-2.61c2.32-1.78,4.88-2.94,7.74-3.54C246.11,23.02,247.67,22.56,249.25,22.16z M240.91,213.32
			c-0.06,0.17-0.15,0.33-0.17,0.5c-0.36,2.91-0.67,5.82-1.1,8.72c-0.22,1.48-0.59,2.95-1.05,4.37c-0.67,2.07-1.49,4.09-2.21,6.14
			c-0.25,0.7-0.44,1.44-0.6,2.17c-0.4,1.79-0.7,3.6-1.05,5.4c-0.55,2.91-0.69,5.82-0.6,8.74c0.06,1.96,0.44,3.93,0.78,5.87
			c0.17,0.99,0.56,1.94,1.44,2.72c0.54-0.49,1.03-0.93,1.57-1.42c-1.25-1.7-1.68-3.53-1.79-5.47c-0.11-1.97-0.23-3.94-0.33-5.91
			c-0.01-0.27-0.01-0.55,0.03-0.82c0.31-2.3,0.66-4.59,0.94-6.88c0.47-3.82,1.6-7.47,2.86-11.07c0.86-2.47,1.45-4.98,1.81-7.55
			c0.21-1.53,0.03-3.13-0.01-4.69C241.43,213.84,241.4,213.45,240.91,213.32z M189.84,209.24c0.5-0.67,0.75-0.91,0.89-1.2
			c0.84-1.7,1.71-3.4,2.48-5.14c1.42-3.25,2.31-6.69,3.23-10.1c0.75-2.78,1-5.62,0.85-8.5c-0.17-3.39-0.3-6.78-0.45-10.16
			c-0.01-0.19-0.13-0.36-0.21-0.57c-0.1,0.14-0.23,0.23-0.23,0.32c-0.03,0.54-0.02,1.09-0.03,1.63c-0.03,1.29,0.1,2.61-0.11,3.87
			c-0.59,3.42-0.71,6.9-1.49,10.3c-0.78,3.38-1.44,6.78-2.44,10.11c-0.74,2.48-1.44,4.97-2.14,7.45
			C190.04,207.74,190.01,208.25,189.84,209.24z M299.9,56.03c-1.18,0.21-1.89,0.78-2.52,1.47c-2.76,3.04-4.21,6.65-4.63,10.69
			c-0.31,2.97,0.27,5.86,1.27,8.63c0.6,1.65,1.42,3.24,2.83,4.44c0.62,0.52,1.21,1.12,1.67,1.79c0.93,1.36,2.2,2.4,3.25,3.65
			c0.18,0.22,0.45,0.26,0.67-0.17c-0.47-0.68-0.96-1.41-1.48-2.12c-1.32-1.82-2.67-3.61-3.96-5.45c-0.99-1.4-1.73-2.94-2.07-4.64
			c-0.48-2.41-0.72-4.87-0.56-7.32c0.23-3.58,1.48-6.76,4.09-9.32C298.93,57.21,299.33,56.67,299.9,56.03z M307.83,18.39
			c-0.84-1.78-1.24-2.3-2.44-3.21c-0.27-0.2-0.48-0.47-0.74-0.69c-0.46-0.4-0.9-0.82-1.4-1.15c-0.56-0.38-1.17-0.7-1.77-1.01
			c-2.29-1.17-4.42-2.75-7.12-2.96c-0.19-0.01-0.37-0.17-0.56-0.23c-1.3-0.39-2.6-0.79-3.91-1.14c-0.2-0.05-0.45,0.1-0.86,0.21
			c1,0.79,2.03,0.91,2.96,1.25c1.21,0.44,2.48,0.76,3.64,1.31c1.48,0.7,2.85,1.61,4.3,2.38c0.98,0.53,1.83,1.18,2.55,2.02
			c0.92,1.08,1.85,2.15,2.82,3.29C306.09,18.38,306.95,18.74,307.83,18.39z M310.71,38.91c-0.42,0.38-0.31,0.67-0.12,0.98
			c1.32,2.22,2.49,4.51,3.26,7c0.3,0.97,0.64,1.95,1.13,2.84c0.86,1.54,1.17,3.17,1.18,4.89c0,0.54-0.05,1.1,0.05,1.62
			c0.09,0.45,0.32,0.92,1.11,0.69c0.09-1.29,0.35-2.65,0.23-3.97c-0.13-1.33-0.52-2.68-1.01-3.93c-1.32-3.37-2.93-6.59-5.16-9.46
			C311.19,39.32,310.94,39.13,310.71,38.91z M322.48,55.8c0.95-2.09,1.19-4.1,0.91-6.14c-0.52-3.64-2.01-6.91-4.15-9.87
			c-0.55-0.75-1.37-1.31-2.08-1.93c-0.12-0.1-0.35-0.07-0.85-0.15c1.05,1.69,1.76,3.27,2.76,4.7c0.74,1.06,1.38,2.18,1.66,3.47
			c0.09,0.39,0.25,0.77,0.42,1.15c0.93,2.1,1.2,4.29,0.85,6.56C321.89,54.28,321.91,54.93,322.48,55.8z M299,18.44
			c-1.03-1.43-1.47-1.76-2.49-2.14c-0.76-0.28-1.6-0.5-2.23-0.98c-1.5-1.17-3.24-1.69-5.02-2.18c-0.59-0.16-1.23-0.23-1.76-0.5
			c-1.09-0.56-2.23-0.58-3.39-0.53c-0.16,0.01-0.3,0.18-0.54,0.33c0.26,0.15,0.41,0.28,0.58,0.33c1.74,0.59,3.46,1.22,5.23,1.73
			c1.22,0.35,2.24,1.02,3.18,1.8c0.72,0.6,1.29,1.38,1.99,2.15C295.9,18.44,297.32,18.44,299,18.44z M288.03,47.72
			c-0.14,1.68,0.71,3.15,0.68,4.82c-0.03,1.6,0.28,3.21,0.44,4.86c0.85-0.8,1.07-1.32,1.09-2.91
			C290.29,51.99,289.83,49.64,288.03,47.72z M241.74,242.7c-0.17,0.31-0.31,0.44-0.33,0.59c-0.3,2.18-0.26,4.34,0.52,6.42
			c0.22,0.6,0.4,1.13,0.1,1.75c-0.18,0.38,0.03,0.64,0.57,0.74c0.48-0.54,1.23-0.92,1.68-1.83c-0.3-0.58-0.55-1.3-0.99-1.87
			c-0.87-1.13-1.23-2.4-1.34-3.78C241.89,244.13,241.82,243.52,241.74,242.7z M306.68,10.7c0.12,0.15,0.22,0.34,0.38,0.44
			c1.64,0.96,2.7,2.49,3.72,4c0.67,0.98,1.42,1.98,1.66,3.23c0.14,0.7,0.37,0.73,1.42,0.43c0.19-1.37-0.23-2.49-1.31-3.41
			c-0.72-0.61-1.33-1.36-2.02-2.02C309.42,12.29,308.39,11.08,306.68,10.7z M302.15,49.57c0.13-0.07,0.4-0.12,0.43-0.24
			c0.13-0.51,0.36-1.09,0.25-1.57c-0.34-1.46-0.88-2.86-2.04-3.91c-0.7-0.63-1.36-1.32-2.09-1.92c-0.39-0.32-0.89-0.49-1.34-0.72
			c-0.03,0.41,0.09,0.62,0.25,0.81c0.64,0.79,1.34,1.54,1.94,2.36c1.12,1.53,2.33,3.02,2.39,5.05
			C301.94,49.46,302.03,49.49,302.15,49.57z M182.36,110.61c0.14-0.17,0.37-0.32,0.38-0.48c0.12-1.15,0.28-2.3,0.25-3.45
			c-0.04-1.79,0.02-3.6-0.29-5.64c-1.07,1.27-1.1,2.63-1.16,3.84C181.44,106.79,181.06,108.83,182.36,110.61z M248.34,235.39
			c-0.11-0.01-0.23-0.02-0.34-0.02c-0.08,0.31-0.22,0.62-0.23,0.94c-0.02,1.83-0.07,3.67,0.01,5.5c0.03,0.65,0.38,1.29,0.64,1.91
			c0.07,0.18,0.36,0.27,0.71,0.51c-0.29-1.62-0.64-2.99-0.76-4.38C248.24,238.37,248.34,236.88,248.34,235.39z M309.58,60.06
			c-0.44-0.06-0.75-0.09-1.06-0.13c-0.33,1.65-0.32,2,0.16,3.5C309.42,62.38,309.1,61.18,309.58,60.06z M308.45,47.38
			c-0.56,0.75-0.61,1.49-0.57,2.24c0.03,0.58,0.37,0.73,1.46,0.64C309.31,49.25,309.06,48.34,308.45,47.38z M269.56,37.7
			c-0.34,0.26-0.5,0.34-0.61,0.47c-0.07,0.08-0.08,0.22-0.11,0.33c0.12-0.02,0.28,0,0.34-0.07C269.3,38.29,269.36,38.11,269.56,37.7
			z"/>
		<path d="M332.25,223.89c-0.41-0.58-0.67-1.04-1.03-1.43c-0.31-0.34-0.7-0.64-1.1-0.86c-0.66-0.36-1.29-0.33-1.85,0.27
			c-1.55,1.64-3.14,3.23-4.67,4.88c-1.35,1.45-2.66,2.94-3.94,4.44c-0.9,1.05-1.97,1.89-3.15,2.59c-2.18,1.29-4.42,2.42-6.97,2.85
			c-1.21,0.2-2.41,0.49-3.59,0.82c-1.34,0.37-2.69,0.4-4.06,0.33c-3.16-0.17-6.23-0.83-9.18-1.93c-2.71-1.01-5.12-2.58-7.13-4.67
			c-1.41-1.47-2.66-3.11-3.95-4.7c-1.11-1.38-2.22-2.72-3.74-3.73c-1.02-0.68-1.83-0.42-2.62,0.15c-0.6,0.43-1.07,1.05-1.58,1.6
			c-0.7,0.76-1.28,1.03-1.48,0.65c-0.33-0.61,0.19-0.99,0.47-1.42c0.83-1.28,1.95-2.16,3.29-2.91c1.8-1.01,3.08-2.66,4.43-4.2
			c0.99-1.13,2.02-2.22,3.05-3.3c1.15-1.2,2.5-2.12,4.02-2.78c1.95-0.84,3.99-1.43,6.08-1.66c1.41-0.15,2.82,0.38,4.03,1.2
			c0.85,0.57,1.66,1.19,2.53,1.74c1.79,1.14,3.18,1.08,4.91-0.2c0.44-0.32,0.88-0.67,1.22-1.09c1.83-2.25,4.28-2.71,6.84-2.01
			c3.6,0.99,7.25,2.04,10.24,4.46c1.53,1.24,2.95,2.64,4.42,3.95c1.22,1.09,2.41,2.22,3.71,3.2c0.99,0.75,1.25,1.74,1.35,2.83
			C332.87,223.21,332.53,223.48,332.25,223.89z M288.73,220.71c0.02,0.27-0.03,0.51,0.07,0.65c0.97,1.42,2.08,2.65,3.73,3.36
			c1.22,0.52,2.46,0.75,3.75,0.89c1.56,0.17,3.16,0.17,4.66,0.55c2.11,0.52,4.05,0.24,5.96-0.61c1.37-0.61,2.77-1.11,4.26-1.39
			c1.06-0.2,2.1-0.56,3.14-0.89c1.11-0.35,1.77-1.14,2.2-2.2c-0.26-0.19-0.41-0.37-0.58-0.4c-0.87-0.18-1.75-0.3-2.61-0.48
			c-1.25-0.27-2.4-0.06-3.59,0.39c-1.52,0.58-3.08,1.12-4.67,1.45c-3.02,0.63-5.96,0.45-8.61-1.4c-0.74-0.52-1.57-0.86-2.48-0.8
			C292.18,219.93,290.43,220.12,288.73,220.71z M292.38,228.92c2.87,2.33,5.88,2.39,9.05,0.94c0.18-0.08,0.35-0.21,0.51-0.34
			c0.43-0.36,0.47-1.11-0.01-1.43c-0.44-0.29-0.97-0.51-1.48-0.58c-1.48-0.22-2.97-0.38-4.47-0.51c-0.61-0.05-1.23-0.03-1.84,0.04
			C293.16,227.16,292.52,227.68,292.38,228.92z M305.24,228.43c0.76,0.91,1.67,1.04,2.51,1.05c2.12,0.02,4.2-0.3,6.12-1.3
			c0.24-0.12,0.5-0.23,0.72-0.38c0.67-0.49,1.08-1.44,0.8-1.94c-0.39-0.71-1.14-0.74-1.8-0.65c-1.21,0.15-2.43,0.33-3.6,0.67
			C308.3,226.35,306.64,226.97,305.24,228.43z M311.52,210.12c-0.01,0.05-0.02,0.1-0.03,0.15c-0.48,0-0.96-0.07-1.42,0.02
			c-0.83,0.16-1.53,0.56-1.77,1.47c-0.26,1,0.4,2.18,1.45,2.31c1,0.13,2.04,0.13,3.04-0.02c0.86-0.13,1.7-0.46,2.49-0.84
			c0.69-0.33,0.75-1.21,0.19-1.73c-0.34-0.31-0.75-0.63-1.18-0.76C313.38,210.45,312.44,210.31,311.52,210.12z M292.8,213.68
			c1.12-0.23,2.26-0.39,3.35-0.7c0.77-0.22,0.97-0.97,0.56-1.63c-0.46-0.73-1.1-1.19-2-1.19c-0.61,0-1.22,0-1.82,0.05
			c-1.05,0.09-1.96,0.49-2.73,1.21c-0.54,0.51-0.47,1.11,0.09,1.55C291.02,213.57,291.9,213.55,292.8,213.68z M290.59,228.28
			c0.25-0.84-0.15-1.24-0.55-1.59c-0.51-0.45-1.11-0.77-1.84-0.73c-0.37,0.02-0.65,0.56-0.51,0.94c0.18,0.49,0.55,0.77,1.02,0.92
			C289.29,228,289.88,228.11,290.59,228.28z"/>
		<path d="M235.04,134.98c1.61,2.1,3.14,4.27,4.99,6.19c1.32,1.38,2.67,2.71,4.2,3.87c1.66,1.25,3.45,2.16,5.42,2.75
			c1.89,0.56,3.76,1.21,5.66,1.77c0.65,0.19,1.34,0.22,2.01,0.33c0.39,0.07,0.77,0.15,1.55,0.3c-0.55,0.24-0.77,0.44-0.95,0.4
			c-1.2-0.21-2.4-0.47-3.6-0.71c-0.32-0.07-0.64-0.14-1.04-0.22c-0.81,1.98-1.05,3.99-1.18,6.01c-0.01,0.13-0.01,0.28,0.02,0.41
			c0.77,2.71,0.75,5.54,1.31,8.27c0.12,0.6,0.35,1.18,0.52,1.77c0.67,2.3,0.62,4.58-0.3,6.82c-0.37,0.91-0.95,1.67-1.94,1.98
			c-1.66,0.51-3.28-0.53-3.61-2.37c-0.26-1.42-0.22-2.86,0.11-4.27c0.57-2.39,1.11-4.78,1.73-7.15c0.78-3.01,0.95-6.05,0.67-9.13
			c-0.04-0.41-0.07-0.82-0.13-1.22c-0.2-1.36-0.71-2.28-2.23-2.79c-3.24-1.08-5.8-3.22-7.98-5.84c-0.56-0.68-1.27-1.24-1.85-1.91
			c-0.63-0.72-1.17-1.5-1.77-2.24c-1.5-1.85-2.92-3.78-5-5.07c-0.23-0.14-0.42-0.34-0.61-0.53c-0.23-0.24-0.06-0.78,0.28-0.81
			c0.68-0.06,1.37-0.16,2.04-0.09c2.74,0.28,5.45-0.16,8.17-0.34c2.11-0.14,4.21-0.42,6.31-0.62c0.54-0.05,1.09-0.04,1.63-0.05
			c1.36-0.04,2.73-0.06,4.09-0.11c2.79-0.1,5.59-0.26,8.38-0.29c3.78-0.05,7.47,0.62,11.04,1.85c1.08,0.38,2.17,0.88,3.1,1.54
			c2.44,1.74,4.88,3.48,7.43,5.07c0.28,0.18,0.54,0.42,0.74,0.69c0.09,0.13,0.1,0.46,0.01,0.55c-0.18,0.16-0.51,0.33-0.68,0.26
			c-0.36-0.16-0.66-0.48-0.99-0.7c-0.28-0.18-0.58-0.33-0.88-0.49c-0.04-0.02-0.11,0.02-0.18,0.04c-0.18,0.45,0.15,0.75,0.33,1.09
			c0.28,0.54,0.6,1.08,0.78,1.66c0.37,1.19,0.02,2.02-1.13,2.5c-1.13,0.47-2.31,0.83-3.48,1.22c-0.91,0.3-1.81,0.62-2.73,0.85
			c-5.49,1.4-11.01,2.7-16.73,2.1c-1.96-0.2-3.88-0.72-5.82-1.11c-2.03-0.41-3.84-1.34-5.66-2.31c-2.55-1.36-4.91-2.94-6.88-5.08
			c-0.88-0.95-1.69-1.97-2.57-2.91c-0.74-0.78-1.55-1.5-2.33-2.24C235.23,134.78,235.14,134.88,235.04,134.98z M263.61,131.43
			c0.43,0.29,0.62,0.51,0.86,0.57c1.47,0.34,2.53,1.26,3.52,2.33c1.9,2.05,2.28,5.3,0.68,7.52c-0.62,0.86-1.51,1.57-2.38,2.21
			c-1.83,1.34-3.92,1.37-6.07,1.1c-2.11-0.26-3.72-1.31-4.97-2.93c-1.79-2.34-1.51-5.67-0.04-7.44c1.04-1.24,2.17-2.25,3.76-2.67
			c0.44-0.12,0.93-0.18,1.1-0.88c-0.67,0-1.28-0.03-1.88,0.01c-2.52,0.17-5.03,0.33-7.55,0.54c-1.22,0.1-2.44,0.25-3.65,0.48
			c-3.14,0.6-6.28,1.25-9.42,1.9c-0.09,0.02-0.16,0.19-0.33,0.4c0.56,0.79,1.26,1.52,1.87,2.32c1.85,2.41,4.06,4.42,6.71,5.9
			c2.14,1.19,4.27,2.36,6.66,3.07c2.92,0.86,5.86,1.19,8.87,1.28c3.8,0.11,7.45-0.55,10.99-1.92c2.16-0.84,3.86-2.28,5.41-3.93
			c0.42-0.44,0.71-1,1.03-1.52c0.56-0.92,0.46-1.76-0.22-2.62c-1.47-1.87-3.28-3.27-5.52-4.04
			C270.09,132.07,267.04,131.45,263.61,131.43z M251.73,159.21c-0.12,0-0.23,0-0.35,0c-0.14,0.3-0.34,0.58-0.41,0.9
			c-0.68,2.84-1.37,5.68-1.98,8.53c-0.19,0.92-0.2,1.89-0.17,2.84c0.02,0.52,0.2,1.08,0.45,1.54c0.7,1.34,2.23,1.45,3.16,0.23
			c0.54-0.71,0.91-1.52,0.98-2.43c0.12-1.5,0.14-2.98-0.29-4.45c-0.5-1.69-0.93-3.4-1.01-5.19
			C252.07,160.52,251.86,159.86,251.73,159.21z M259.73,135.43c-0.41,0.03-0.62-0.02-0.76,0.06c-2,1.14-2.86,3.19-2.29,5.37
			c0.43,1.63,2.32,3.18,3.9,3.05c1.99-0.16,3.67-1.01,4.81-2.7c0.49-0.72,0.71-1.56,0.15-2.58c-0.29,0.48-0.49,0.82-0.7,1.14
			c-1,1.55-2.72,1.6-3.97,1.28c-1.6-0.41-3.28-2.81-1.78-4.72C259.28,136.11,259.44,135.85,259.73,135.43z M280.36,140.32
			c-1.04,1.15-1.95,2.15-2.85,3.16c-0.17,0.19-0.44,0.37-0.1,0.71c1.39-0.56,3.06-0.5,4.25-1.82
			C281.41,141.6,281.28,140.81,280.36,140.32z M263.79,135.31c-0.91-0.03-1.46,0.33-1.89,0.89c-0.25,0.33-0.49,0.75-0.2,1.11
			c0.23,0.29,0.65,0.61,0.97,0.59c0.5-0.03,1.04-0.26,1.48-0.54c0.43-0.27,0.53-0.99,0.25-1.48
			C264.24,135.62,263.94,135.44,263.79,135.31z M251.85,150.99c0.35-0.5,0.35-0.96,0.1-1.44c-0.05-0.09-0.22-0.16-0.33-0.15
			c-0.11,0-0.29,0.1-0.3,0.18C251.25,150.09,251.26,150.6,251.85,150.99z"/>
		<path d="M315.71,191.88c0.94,0.5,1.73,0.76,2.31,1.56c-0.12,0.38-0.2,0.85-0.41,1.25c-0.42,0.81-0.97,0.96-1.84,0.58
			c-0.31-0.14-0.61-0.31-0.93-0.41c-0.76-0.23-1.41-0.14-2.09,0.4c-0.95,0.76-1.99,1.43-3.06,2.02c-3.42,1.91-6.99,1.98-10.65,0.79
			c-1.9-0.62-3.64-1.52-5.18-2.79c-0.96-0.79-1.96-1.18-3.18-0.6c-0.49,0.23-1.03,0.36-1.56,0.48c-0.7,0.16-1.25-0.24-1.51-1.04
			c-0.25-0.75-0.03-1.45,0.58-1.77c0.83-0.44,1.71-0.47,2.58-0.17c1.23,0.42,2.41,0.93,3.44,1.76c1.17,0.94,2.42,1.76,3.77,2.43
			c4.09,2.03,8.04,1.6,11.86-0.68c1.11-0.66,2.09-1.52,3.17-2.23C313.86,192.9,314.76,192.43,315.71,191.88z"/>
		<path d="M287.94,198.29c-0.21,0.13-0.41,0.33-0.64,0.39c-0.97,0.23-1.93,0.03-2.75-0.46c-1.23-0.73-2.39-1.59-3.03-2.94
			c-0.53-1.1-1.02-2.22-1.54-3.33c-0.93-1.98-0.75-4.03-0.09-5.98c0.65-1.94,1.84-3.61,3.47-4.91c0.81,0.7,0.87,0.91,0.35,1.42
			c-1.82,1.78-2.9,3.91-3.04,6.48c-0.01,0.27-0.05,0.55,0,0.81c0.51,2.75,1.62,5.17,3.83,6.99c0.7,0.58,1.53,0.85,2.42,0.97
			c0.32,0.04,0.63,0.11,0.95,0.17C287.89,198.02,287.92,198.15,287.94,198.29z"/>
		<path d="M291.64,144.77c-0.07-1.13-0.12-2.27-0.23-3.4c-0.14-1.49-0.29-2.98-0.52-4.46c-0.23-1.44-0.85-2.71-1.91-3.76
			c-0.38-0.38-0.72-0.82-1.01-1.28c-0.11-0.18-0.09-0.57,0.04-0.72c0.11-0.13,0.56-0.17,0.69-0.06c1.24,1.06,2.45,2.12,2.95,3.79
			c0.98,3.27,0.77,6.55,0.42,9.85C291.93,144.74,291.79,144.76,291.64,144.77z"/>
		<path d="M314.45,131.32c-0.1,0.54-0.1,0.88-0.23,1.15c-0.2,0.43-0.5,0.81-0.74,1.22c-0.69,1.18-1.19,2.42-1.25,3.83
			c-0.07,1.85-0.84,3.51-1.27,5.22c-0.62,0.04-0.54-0.32-0.52-0.53c0.14-1.62,0.29-3.24,0.49-4.86c0.08-0.66,0.17-1.38,0.48-1.96
			c0.7-1.31,1.54-2.55,2.34-3.8C313.81,131.5,313.99,131.49,314.45,131.32z"/>
		<path d="M261.71,119.16c-1.39,0.59-1.64,0.61-2.65,0.33c-1.11-0.31-2.22-0.62-3.33-0.91c-1.74-0.45-3.28-1.29-4.62-2.48
			c-0.12-0.11-0.16-0.3-0.38-0.74C254.24,117.66,257.78,119,261.71,119.16z"/>
		<path d="M303.74,210.66c-2.13,0.5-3.67-0.44-4.01-2.46c-0.07-0.4-0.12-0.81-0.11-1.21c0.02-0.6,0.1-1.21,0.15-1.8
			c0.55-0.05,0.58,0.3,0.61,0.63c0.07,0.6,0.05,1.23,0.19,1.81c0.32,1.35,1.02,2.36,2.58,2.43
			C303.55,210.07,303.81,210.2,303.74,210.66z"/>
		<path d="M261,114.86c0.47,0.05,0.94,0.08,1.4,0.17c0.93,0.17,1.85,0.41,2.78,0.56c2.61,0.44,2.69,0.48,4.61,2.61
			c-0.1,0.03-0.23,0.1-0.26,0.06c-1.3-1.3-2.86-1.94-4.68-2.18c-1.32-0.17-2.61-0.62-3.91-0.95
			C260.95,115.04,260.98,114.95,261,114.86z"/>
		<path d="M280.48,121.81c1.74,1.15,3.34,3.97,3.97,6.82c-0.66-0.49-0.83-1.13-1.12-1.66c-0.3-0.53-0.55-1.09-0.82-1.64
			c-0.31-0.61-0.61-1.22-0.94-1.81C281.27,123.02,280.94,122.54,280.48,121.81z"/>
		<path d="M247.63,117.12c-2.5,0.4-4.8-0.94-7.32-0.35c0.09-0.32,0.11-0.52,0.16-0.52C242.93,115.98,245.3,116.52,247.63,117.12z"/>
		<path d="M278.41,124.66c-0.27-0.18-0.59-0.32-0.8-0.56c-1.3-1.46-2.58-2.95-3.91-4.47c0.63-0.18,0.76,0.32,1,0.57
			c1.07,1.13,2.11,2.28,3.13,3.46c0.25,0.29,0.36,0.7,0.54,1.05L278.41,124.66z"/>
		<path d="M278.36,124.71c1.14,0.38,1.61,1.53,2.59,2.17c-0.41,0.41-0.67,0.09-0.83-0.1c-0.58-0.7-1.59-1.05-1.72-2.11
			C278.41,124.66,278.36,124.71,278.36,124.71z"/>
		<path d="M237.6,118.76c-0.99,0-1.99,0-2.98,0c0-0.03,0-0.06,0-0.08c0.99,0,1.99,0,2.98,0C237.6,118.7,237.6,118.73,237.6,118.76z"
			/>
		<path d="M193.09,284.5c1.04,1.42,2.14,2.79,3.35,4.08c0.7,0.75,1.52,1.36,2.34,1.95c0.72,0.53,1.48,1.01,2.23,1.51
			c0.34,0.22,0.69,0.41,1.03,0.62c0.95,0.58,1.9,1.17,2.85,1.74c1.6,0.95,3.23,1.82,4.92,2.6c0.95,0.44,2.01,0.59,2.91,1.14
			c-0.05,0.25-0.26,0.27-0.43,0.27c-0.77,0-1.56,0.06-2.32-0.04c-1.07-0.15-2.14-0.32-3.18-0.67c-1.61-0.54-3.24-1.04-4.85-1.59
			c-0.49-0.17-0.93-0.48-1.41-0.71c-0.36-0.17-0.74-0.31-1.11-0.46c-0.14-0.06-0.3-0.1-0.43-0.17c-1.28-0.68-2.62-1.26-3.8-2.13
			c-0.47-0.35-0.99-0.63-1.5-0.93c-2.03-1.2-3.87-2.66-5.63-4.22"/>
		<path d="M228.12,288.63c0.9,2.06,1.36,4.64,2.38,6.63c1.25,2.42,2.61,4.79,4.04,7.11c0.71,1.15,1.69,2.13,2.53,3.2
			c1.68,2.15,3.29,4.35,5.18,6.34c1.69,1.79,3.45,3.49,5.46,4.93c0.22,0.16,0.48,0.29,0.65,0.49c1.02,1.26,2.41,1.99,3.83,2.68
			c0.87,0.43,1.69,0.92,2.22,1.75c0.12,0.18,0.08,0.46,0.14,0.94c-4.19-1.91-7.9-4.13-11.42-6.6c-0.42,0.27-0.27,0.52-0.1,0.71
			c0.9,1.03,1.79,2.06,2.72,3.06c1.16,1.25,2.34,2.49,3.56,3.69c1.02,1,2.13,1.91,3.18,2.89c1.85,1.73,3.72,3.39,5.95,4.64
			c1.24,0.7,2.25,1.77,3.48,2.49c2.12,1.23,4.33,2.3,6.51,3.45c0.24,0.12,0.46,0.28,0.68,0.42c-0.14,0.49-0.51,0.49-0.82,0.4
			c-2.17-0.61-4.36-1.15-6.48-1.91c-3.15-1.13-6.23-2.42-9.35-3.63c-0.42-0.16-0.86-0.25-1.58-0.46c1.36,2.13,3.53,2.95,4.99,4.82
			c-0.44,0.09-0.69,0.22-0.9,0.17c-0.94-0.2-1.83-0.5-2.57-1.19c-0.55-0.51-1.18-0.93-1.81-1.34c-3.56-2.33-6.68-5.2-9.8-8.06
			c-0.6-0.55-1.16-1.17-1.81-1.66c-2.48-1.86-4.5-4.18-6.6-6.42c-2.33-2.49-4.68-4.97-6.9-7.56c-1.86-2.17-3.53-4.51-5.34-6.74
			c-1.98-2.44-10.43-11.87-12.32-14.37"/>
	</g>
	<text transform="matrix(1 0 0 1 192.9369 413.1384)"><tspan x="0" y="0" class="st5 st6">DAY</tspan><tspan x="17.58" y="74.53" class="st5 st6">8-10</tspan></text>
</g>
</svg>
