<?xml version="1.0" encoding="utf-8"?>
<!-- Generator: Adobe Illustrator 26.4.1, SVG Export Plug-In . SVG Version: 6.00 Build 0)  -->
<svg version="1.1" xmlns="http://www.w3.org/2000/svg" xmlns:xlink="http://www.w3.org/1999/xlink" x="0px" y="0px"
	 viewBox="0 0 504 504" style="enable-background:new 0 0 504 504;" xml:space="preserve">
<style type="text/css">
	.st0{display:none;}
	.st1{display:inline;fill:#85D0CB;}
	.st2{display:inline;}
	.st3{fill:#FFFFFF;}
	.st4{fill:none;stroke:#000000;stroke-linecap:round;stroke-linejoin:round;stroke-miterlimit:10;}
	.st5{font-family:'CarolGothic';}
	.st6{font-size:62.1064px;}
</style>
<g id="Layer_2" class="st0">
</g>
<g id="Layer_2_copy" class="st0">
</g>
<g id="Layer_1" class="st0">
</g>
<g id="Layer_3">
</g>
<g id="Layer_4">
</g>
<g id="Layer_1_copy">
</g>
<g id="Layer_6">
</g>
<g id="Layer_7">
	<g>
		<g>
			<path d="M232.73,261.94c0.39,2.12,1,4.14,1.9,6.11c0.84,1.84,1.55,3.73,2.32,5.6c0.07,0.17,0.14,0.34,0.24,0.5
				c1.25,2.03,2.29,4.2,3.88,6.02c1.01,1.15,1.91,2.4,2.85,3.6c0.87,1.11,1.75,2.22,3.07,2.86c0.32,0.16,0.59,0.44,0.87,0.67
				c2.52,2.1,5.4,3.58,8.42,4.81c0.5,0.21,1.05,0.3,1.55,0.44c0.06,0.37-0.16,0.47-0.41,0.47c-0.85-0.02-1.73,0.04-2.56-0.13
				c-1.62-0.34-3.22-0.79-4.81-1.26c-0.52-0.15-1-0.45-1.49-0.71c-0.65-0.34-1.28-0.71-2.11-1.17c0.05,0.38,0.01,0.63,0.12,0.78
				c0.28,0.4,0.58,0.8,0.94,1.12c2.25,1.99,4.52,3.95,6.78,5.93c0.14,0.12,0.28,0.24,0.44,0.33c2.54,1.41,4.25,3.67,5.97,5.91
				c1.73,2.26,2.42,4.9,2.89,7.64c-0.44,0.07-0.43-0.24-0.53-0.43c-0.91-1.76-2.11-3.31-3.39-4.79c-1.45-1.67-3.06-3.18-4.87-4.45
				c-0.65-0.45-1.34-0.85-2.01-1.28c-0.3-0.19-0.6-0.39-0.89-0.6c-0.15-0.11-0.25-0.27-0.4-0.38c-2.52-1.74-5.04-3.49-7.57-5.21
				c-0.45-0.3-0.97-0.51-1.43-0.74c-0.37,0.35-0.16,0.65-0.04,0.89c0.39,0.83,0.81,1.65,1.25,2.46c0.82,1.51,1.67,3,2.49,4.51
				c0.11,0.21,0.17,0.44,0.26,0.65c-0.35,0.33-0.5,0-0.59-0.15c-1.58-2.48-3.71-4.59-5.07-7.23c-0.14-0.27-0.32-0.53-0.53-0.75
				c-2.18-2.33-4.01-4.95-6.27-7.22c-1.51-1.52-3.01-3.05-4.6-4.48c-0.77-0.7-1.52-1.42-1.97-2.4c-0.12-0.27-0.33-0.52-0.54-0.74
				c-3.35-3.58-8.09-12.44-10.5-16.64"/>
			<path d="M256.33,244.84c-0.38-0.11-0.64-0.35-0.77-0.73c-0.25-0.76-0.54-1.5-0.73-2.27c-0.97-3.93-1.94-7.86-2.87-11.8
				c-0.46-1.97-0.83-3.96-1.25-5.93c-0.1-0.48-0.23-0.95-0.34-1.43c-0.09-0.37-0.2-0.78-0.63-0.78c-0.26,0-0.62,0.2-0.75,0.43
				c-1.31,2.3-3.53,3.73-5.31,5.58c-1.91,2-4.03,3.77-6.31,5.33c-0.3,0.21-0.58,0.47-0.91,0.61c-1.71,0.73-3.12,1.94-4.62,3
				c-0.55,0.39-1.04,0.86-1.62,1.21c-1.18,0.71-1.66,1.73-1.57,3.09c0.06,0.79,0.02,1.59,0.08,2.39c0.34,4.79,1.01,9.51,2.55,14.08
				c0.47,1.39,0.95,2.79,1.41,4.18c0.09,0.28,0.1,0.58,0.17,0.95c-0.92,0.48-1.85,0.24-2.74,0.32c-0.88,0.08-1.69-0.17-2.49-0.49
				c0.01-0.61,0.15-1.25,0-1.81c-0.66-2.49-1.31-4.98-2.16-7.41c-0.69-1.98-1.12-4.01-1.55-6.04c-0.47-2.21-1.11-4.4-1.15-6.68
				c0-0.12-0.05-0.24-0.08-0.36c-0.66-2.57-0.69-5.22-0.86-7.85c-0.17-2.63-0.2-5.27-0.22-7.9c-0.02-2.08,0.02-4.16,0.37-6.23
				c0.19-1.14,0.28-2.3,0.4-3.46c0.04-0.36,0.03-0.73,0.08-1.1c0.19-1.58,0.43-3.15,0.59-4.74c0.11-1.1,0.21-2.2,0.18-3.3
				c-0.05-1.53-0.19-3.06,0-4.59c0.04-0.34-0.05-0.69-0.1-1.34c-0.31,0.4-0.54,0.56-0.56,0.73c-0.1,1.3-0.59,2.5-0.89,3.74
				c-0.18,0.77-0.1,1.62-0.38,2.35c-0.65,1.68-0.82,3.46-1.16,5.2c-0.71,3.6-1.61,7.19-1.12,10.92c0.02,0.18-0.03,0.37-0.07,0.54
				c-0.4,1.94-0.36,3.88-0.27,5.86c0.15,3.56,0.63,7.08,1.16,10.59c0.11,0.72,0.35,1.43,0.53,2.14c0.12,0.47,0.24,0.94,0.35,1.42
				c0.18,0.78,0.31,1.56,0.52,2.33c0.55,2.01,1.1,4.02,1.72,6.01c0.55,1.75,1.14,3.5,1.83,5.2c0.64,1.59,1.43,3.12,2.18,4.66
				c0.18,0.38,0.46,0.71,0.7,1.07c-0.28,0.36-0.65,0.53-1.12,0.53c-2.95,0-5.9-0.01-8.85,0.02c-0.8,0.01-1.21-0.42-1.57-1.05
				c-1.72-2.98-3.36-6.01-4.67-9.19c-1.12-2.72-2.13-5.5-3.06-8.29c-0.6-1.8-1.03-3.66-1.43-5.52c-0.59-2.76-1.15-5.53-1.23-8.37
				c0-0.18,0-0.38-0.06-0.55c-0.59-1.68-0.38-3.4-0.29-5.11c0.06-1.17,0.11-2.33,0.18-3.5c0.08-1.41,0.25-2.81,0.7-4.17
				c0.12-0.35,0.21-0.71,0.27-1.07c0.53-3.1,1.6-6.05,2.47-9.05c0.68-2.35,1.29-4.74,1.84-7.13c0.51-2.21,0.96-4.44,1.36-6.67
				c0.32-1.81,0.49-3.64,0.78-5.46c0.59-3.71,0.79-7.44,0.74-11.2c-0.03-2.22-0.28-4.41-0.7-6.58c-0.04-0.21-0.16-0.4-0.35-0.85
				c-0.21,0.43-0.36,0.61-0.4,0.81c-0.16,0.84-0.35,1.69-0.4,2.54c-0.1,1.55-0.46,3.03-1.04,4.45c-0.44,1.09-0.6,2.24-0.94,3.34
				c-0.57,1.8-1.45,3.49-2.42,5.11c-0.25,0.42-0.45,0.87-0.66,1.31c-0.27,0.55-0.51,1.11-0.81,1.65c-0.56,1.01-1.28,1.96-1.71,3.02
				c-0.96,2.41-2.46,4.52-3.59,6.82c-0.38,0.77-0.68,1.57-1.02,2.36c-0.12,0.28-0.19,0.59-0.34,0.85c-1.33,2.24-2.01,4.72-2.84,7.16
				c-0.37,1.1-0.87,2.16-1.17,3.28c-0.52,1.95-0.96,3.92-1.37,5.9c-0.4,1.98-0.73,3.97-1.06,5.96c-0.11,0.66-0.16,1.34-0.19,2.02
				c-0.1,1.65-0.19,3.31-0.25,4.96c-0.03,0.91,0,1.83,0.04,2.75c0.08,1.65,0.2,3.3,0.31,4.95c0.11,1.59,0.24,3.18,0.35,4.76
				c0.02,0.24-0.02,0.5,0.04,0.73c0.43,1.71,0.88,3.41,1.13,5.17c0.25,1.75,0.74,3.5,1.37,5.15c0.95,2.52,1.72,5.12,3.15,7.45
				c0.15,0.24,0.2,0.55,0.33,0.95c-0.36,0.1-0.64,0.23-0.92,0.23c-3.38,0.02-6.76,0.01-10.14,0.04c-0.89,0.01-1.54-0.31-2.02-1.04
				c-2.25-3.44-4.68-6.77-6.1-10.69c-0.73-2.02-1.6-3.99-2.29-6.01c-1.34-3.89-2.56-7.82-3.38-11.85c-0.49-2.4-0.75-4.85-1.07-7.28
				c-0.4-3.05-0.43-6.12-0.42-9.19c0.01-2.02,0.04-4.05,0.17-6.07c0.26-4.11,0.9-8.17,1.62-12.22c0.42-2.35,0.78-4.72,1.16-7.08
				c0.07-0.42,0.12-0.85,0.24-1.26c0.55-1.95,1.12-3.89,1.67-5.83c0.25-0.88,0.43-1.79,0.71-2.66c0.42-1.34,0.85-2.69,1.35-4
				c1.31-3.44,2.7-6.84,3.37-10.49c0.49-2.65,1.19-5.26,1.66-7.91c0.31-1.75,0.44-3.53,0.53-5.31c0.2-3.92,0.2-7.86-0.09-11.77
				c-0.18-2.38-0.03-4.79-0.56-7.14c-0.05-0.24-0.06-0.49-0.07-0.73c-0.05-3.56-0.26-7.12,0.13-10.67c0.28-2.56,0.64-5.11,1.21-7.63
				c0.37-1.68,0.68-3.36,1.31-4.97c0.11-0.29,0.21-0.58,0.29-0.88c0.5-1.88,0.53-1.9-0.51-3.6c-0.69-1.13-1.05-2.38-1.18-3.64
				c-0.23-2.38-0.22-4.77,0.05-7.17c0.49-4.36,1.61-8.54,2.98-12.69c0.91-2.76,2.31-5.28,3.45-7.92c0.49-1.12,1.11-2.19,1.61-3.31
				c1.13-2.54,2.71-4.8,4.33-7.04c0.58-0.79,1.08-1.65,1.72-2.39c1.73-1.99,3.47-3.97,5.27-5.9c2.85-3.06,5.65-6.17,7.56-9.93
				c0.66-1.29,1.09-2.71,1.57-4.09c0.18-0.53,0.28-1.04,0.77-1.41c0.28-0.21,0.5-0.55,0.64-0.88c1.17-2.7,2.31-5.41,3.46-8.12
				c0.1-0.22,0.12-0.49,0.25-0.69c1.1-1.69,2.12-3.45,3.36-5.04c1.2-1.54,2.64-2.9,3.97-4.34c1.13-1.22,2.44-2.24,3.76-3.24
				c0.78-0.59,1.49-1.27,2.21-1.93c1.47-1.33,3.2-2.26,4.97-3.1c2.95-1.41,6.03-2.43,9.27-2.93c0.54-0.09,1.1-0.1,1.65-0.14
				c0.92-0.07,1.84-0.08,2.75-0.22c1.31-0.19,2.59-0.01,3.83,0.3c0.93,0.23,1.6-0.01,2.07-0.74c1.19-1.82,2.97-2.88,4.81-3.89
				c0.8-0.45,1.57-0.97,2.35-1.45c2.69-1.67,5.61-2.74,8.69-3.41c1.68-0.36,3.35-0.77,5.04-1.05c3.29-0.54,6.61-0.45,9.92-0.27
				c2.57,0.14,5.14,0.41,7.64,1.09c0.83,0.22,1.66,0.48,2.42,0.87c1.81,0.91,3.61,1.85,5.33,2.9c0.82,0.5,1.52,1.23,2.18,1.94
				c1.42,1.54,2.57,3.29,3.65,5.08c0.37,0.62,0.59,1.34,0.81,2.03c0.29,0.9,0.61,1.7,1.65,2.04c0.63,0.2,1.18,0.62,1.77,0.93
				c0.38,0.2,0.78,0.36,1.16,0.57c1.55,0.87,3.09,1.75,4.63,2.63c0.21,0.12,0.48,0.2,0.62,0.38c0.84,1.1,2.06,1.72,3.13,2.54
				c1.33,1.01,2.51,2.16,3.33,3.65c0.65,1.18,1.41,2.3,2.07,3.47c1.21,2.17,1.7,4.59,2.44,6.93c0.11,0.34,0.14,0.73,0.12,1.09
				c-0.06,1.84-0.13,3.68-0.21,5.51c-0.1,2.18-0.76,4.23-1.51,6.24c-0.31,0.83-0.94,1.61-1.6,2.21c-0.94,0.87-1.98,1.67-3.09,2.31
				c-1.73,1-3.66,1.02-5.55,0.56c-0.9-0.22-1.66-0.17-2.46,0.3c-0.9,0.53-1.85,0.95-2.92,1.06c-0.34,0.03-0.78,0.19-0.96,0.44
				c-0.83,1.16-2.01,1.54-3.33,1.72c-0.11,0.02-0.22,0.1-0.34,0.17c-0.35,0.56-0.69,1.14-1.08,1.68c-1.19,1.63-3.24,1.95-4.83,0.7
				c-0.62-0.48-1.12-1.12-1.78-1.81c-1.14-0.23-2.28-0.75-3.14-1.82c-0.2-0.24-0.63-0.35-0.97-0.41c-0.6-0.11-1.23-0.06-1.81-0.2
				c-0.53-0.13-1.01-0.42-1.56-0.65c-0.86,0.54-1.19,1.46-1.37,2.31c-0.4,1.85-0.99,3.67-0.98,5.61c0,0.86-0.01,1.71,0.19,2.55
				c0.42,1.79,0.82,3.57,1.54,5.29c0.8,1.92,1.38,3.94,1.94,5.95c0.31,1.11,0.46,2.29,0.54,3.45c0.12,1.71,0.19,3.43,0.14,5.15
				c-0.08,2.64-1.2,4.98-2.28,7.33c-0.82,1.78-1.51,3.6-1.95,5.54c-0.47,2.09-0.46,4.13-0.01,6.2c0.1,0.46,0.28,0.92-0.07,1.33
				c-0.46,0.03-0.59-0.3-0.69-0.56c-0.9-2.36-1.6-4.73-1.78-7.29c-0.24-3.47,0.14-6.86,0.73-10.26c0.24-1.39,0.42-2.78,0.29-4.21
				c-0.21-2.24-0.96-4.3-2-6.27c-1.32-2.5-2.65-4.98-3.77-7.58c-0.68-1.59-1.11-3.23-1.36-4.95c-0.24-1.65-0.41-3.28-0.41-4.94
				c0-1.62,0.21-3.18,0.78-4.69c0.19-0.5,0.43-1.01,0.23-1.58c-0.7-0.07-1.35-0.18-2.01-0.19c-0.6-0.01-1.21,0.15-1.8,0.1
				c-0.92-0.07-1.84-0.19-2.73-0.41c-0.45-0.11-0.83-0.5-1.23-0.76c-0.35-0.22-0.69-0.44-1.02-0.65c-0.77,0.51-0.91,1.25-1.18,1.93
				c-1.02,2.58-1.53,5.29-2.25,7.95c-1.02,3.74-2.47,7.34-4.48,10.66c-1.37,2.25-2.98,4.36-4.62,6.42c-1.52,1.92-3.12,3.8-4.89,5.5
				c-1.9,1.82-3.98,3.47-6.06,5.08c-1.84,1.42-3.78,2.72-5.73,4.01c-1.64,1.08-3.33,2.06-5.01,3.07c-1.58,0.95-3.17,1.87-4.75,2.82
				c-0.31,0.19-0.62,0.41-0.89,0.65c-3.49,3.09-7.09,6.05-10.22,9.53c-0.89,0.99-1.4,2.15-2.12,3.21c-0.17,0.26-0.13,0.71-0.07,1.06
				c0.67,3.99,1.32,7.98,2.07,11.96c0.84,4.46,1.82,8.89,3.06,13.26c0.82,2.9,1.92,5.68,3.15,8.44c1.28,2.86,2.57,5.71,4.08,8.45
				c1.51,2.74,3.3,5.32,5.07,7.89c0.62,0.9,1.31,1.76,1.89,2.98c-0.34-0.12-0.5-0.13-0.58-0.22c-1.32-1.46-2.6-2.95-3.55-4.69
				c-0.21-0.38-0.42-0.75-0.68-1.09c-2.11-2.75-3.54-5.88-5.07-8.95c-0.46-0.92-0.89-1.85-1.48-2.64c-0.47,0.08-0.43,0.36-0.38,0.59
				c0.32,1.43,0.67,2.86,1,4.29c0.1,0.42,0.21,0.83,0.29,1.25c0.85,4.27,1.82,8.51,3.13,12.67c0.86,2.75,1.47,5.58,2.35,8.32
				c1.04,3.27,1.95,6.59,3.37,9.73c0.1,0.22,0.21,0.45,0.28,0.68c1.05,3.62,2.72,6.98,4.39,10.32c1.29,2.57,2.42,5.23,3.89,7.7
				c1.81,3.06,3.84,5.99,5.73,9c2.06,3.29,4.65,6.17,7.12,9.13c0.24,0.28,0.45,0.59,0.72,0.84c2.16,2,4.12,4.23,6.46,6.02
				c3.07,2.34,6.08,4.79,9.88,5.95c0.76,0.23,1.49,0.59,2.18,0.99c1.29,0.74,2.65,1.27,4.06,1.72c1.52,0.48,3.02,1.01,4.53,1.54
				c2.93,1.02,5.99,1.29,9.05,1.52c0.98,0.07,1.91,0.3,2.87,0.51c-0.11,0.47-0.4,0.31-0.59,0.3c-3.01-0.13-6-0.39-8.96-0.95
				c-0.66-0.12-1.31-0.31-1.96-0.5c-1.88-0.56-3.77-1.1-5.64-1.71c-0.99-0.33-1.93-0.79-2.88-1.21c-1.34-0.6-2.68-1.21-4.02-1.82
				c-1.78-0.81-3.6-1.56-5.13-2.84c-1.98-1.65-4.15-3.09-6.01-4.86c-2.3-2.2-4.77-4.26-6.67-6.86c-0.47-0.64-1.06-1.19-1.57-1.8
				c-2.83-3.41-5.26-7.1-7.61-10.85c-0.68-1.09-1.36-2.19-2.06-3.27c-0.09-0.14-0.27-0.23-0.39-0.34c-0.45,0.06-0.49,0.4-0.45,0.69
				c0.17,1.15,0.33,2.31,0.58,3.44c0.92,4.13,1.78,8.28,2.83,12.38c1.05,4.11,1.61,8.31,2.57,12.43c0.67,2.87,1.44,5.71,2.2,8.56
				C255.84,243.99,256.13,244.41,256.33,244.84L256.33,244.84z M290.85,32.12c0.05-0.02,0.11-0.03,0.15-0.06
				c0.04-0.02,0.06-0.06,0.09-0.09c-0.07,0.07-0.13,0.13-0.2,0.19c-0.13,0.04-0.26,0.08-0.39,0.11c0.04,0.02,0.1,0.06,0.11,0.05
				C290.7,32.27,290.77,32.19,290.85,32.12z M256.19,68.66c-0.86,0.29-1.4,0.98-1.93,1.63c-0.86,1.05-1.82,1.98-2.89,2.81
				c-0.39,0.3-0.74,0.64-1.11,0.96c-1.73,1.53-3.15,3.44-5.3,4.48c-0.11,0.05-0.2,0.15-0.28,0.24c-1.49,1.67-3.49,2.66-5.29,3.91
				c-0.7,0.49-1.43,0.95-2.12,1.45c-0.79,0.57-1.57,1.16-2.35,1.75c-0.37,0.28-0.88,0.42-0.94,1.06c0.4,0.14,0.71-0.01,1.03-0.2
				c2.21-1.31,4.41-2.64,6.63-3.92c2.78-1.6,5.23-3.64,7.67-5.67c2.55-2.13,4.53-4.79,6.39-7.53c0.2-0.3,0.3-0.66,0.44-1
				c0.13-0.08,0.27-0.16,0.4-0.25c0.03-0.02,0.01-0.1,0.01-0.16c-0.09,0-0.26-0.03-0.27,0C256.23,68.34,256.21,68.5,256.19,68.66z
				 M279.56,5.77c0.24,0.04,0.48,0.11,0.72,0.13c1.46,0.12,2.93,0.19,4.39,0.36c1.21,0.15,2.41,0.41,3.62,0.64
				c0.72,0.14,1.43,0.35,2.15,0.47c2.26,0.38,4.43,1.13,6.4,2.22c1.67,0.92,3.45,1.58,5.08,2.56c0.36,0.22,0.79,0.34,1.2,0.44
				c0.15,0.04,0.39-0.04,0.49-0.16c0.09-0.11,0.08-0.34,0.03-0.5c-0.05-0.16-0.18-0.32-0.31-0.44c-1.5-1.43-2.88-3.01-4.89-3.81
				c-0.68-0.27-1.29-0.7-1.95-1.02c-0.49-0.24-1-0.57-1.52-0.63c-1.76-0.21-3.44-0.9-5.25-0.88c-0.67,0.01-1.34-0.11-2.01-0.23
				c-2.59-0.45-5.13,0.02-7.68,0.34c-0.16,0.02-0.29,0.33-0.44,0.5c-0.12-0.01-0.23-0.02-0.35-0.03
				C279.34,5.75,279.45,5.76,279.56,5.77z M219.91,123.8c-0.47,0.78-0.53,1.32-0.55,1.86c-0.05,1.41-0.04,2.82-0.14,4.23
				c-0.36,5.27,0.74,10.38,1.65,15.51c0.04,0.24,0.15,0.47,0.22,0.7c0.68,2.29,1.35,4.58,2.02,6.87c0.03,0.12,0.08,0.24,0.09,0.36
				c0.29,2.83,1.39,5.45,2.1,8.17c0.78,2.96,1.73,5.88,2.6,8.81c0.32,1.08,0.03,2.21,0.23,3.28c0.22,1.14,0.68,2.22,0.63,3.42
				c-0.03,0.67,0,1.35,0.06,2.02c0.18,2.02,0.2,4.03-0.02,6.05c-0.08,0.79-0.12,1.59-0.06,2.38c0.14,1.79-0.07,3.55-0.3,5.31
				c-0.05,0.36-0.15,0.74-0.1,1.1c0.33,2.3-0.45,4.49-0.59,6.74c-0.14,2.14-0.46,4.26-0.66,6.39c-0.22,2.32-0.24,4.66-0.62,6.95
				c-0.44,2.67-0.69,5.33-0.7,8.04c-0.01,1.96-0.2,3.91,0.01,5.87c0.07,0.67-0.02,1.35,0.02,2.02c0.14,2.07,0.31,4.13,0.49,6.2
				c0.02,0.18,0.2,0.35,0.31,0.53c0.25-0.6,0.34-1.15,0.23-1.66c-0.38-1.76-0.24-3.53-0.13-5.29c0.1-1.65,0.28-3.29,0.45-4.94
				c0.09-0.85,0.22-1.69,0.35-2.54c0.06-0.36,0.18-0.71,0.24-1.07c0.39-2.23,0.76-4.46,1.18-6.69c0.34-1.81,0.74-3.6,1.1-5.41
				c0.2-1.02,0.29-2.07,0.55-3.07c0.91-3.58,1.32-7.22,1.29-10.91c0-0.49,0.02-0.98,0.09-1.47c0.53-3.92,0.33-7.86-0.17-11.74
				c-0.4-3.15-1.2-6.26-2.04-9.33c-1.37-5.02-2.93-9.98-4.38-14.98c-0.34-1.17-0.57-2.38-0.82-3.58c-0.63-3.05-1.28-6.11-1.86-9.17
				c-0.51-2.71-0.98-5.43-1.41-8.15c-0.42-2.66-0.82-5.33-0.85-8.04C220.4,127.1,220.11,125.61,219.91,123.8z M201.5,130.1
				c-0.08-0.02-0.17-0.03-0.25-0.05c-0.09,0.4-0.23,0.8-0.24,1.21c-0.02,0.86,0.06,1.71,0.07,2.57c0.04,3.37,0.05,6.74,0.11,10.12
				c0.02,1.1,0.27,2.2,0.26,3.29c-0.03,3.8-0.17,7.61-0.68,11.38c-0.59,4.39-1.82,8.62-3.36,12.77c-0.89,2.41-1.74,4.82-2.8,7.17
				c-1.9,4.18-3.63,8.44-5.4,12.68c-0.8,1.92-1.65,3.84-2.24,5.83c-0.78,2.64-1.56,5.29-2.02,8.02c-0.21,1.27-0.65,2.5-0.81,3.77
				c-0.33,2.55-0.54,5.11-0.8,7.67c-0.07,0.67-0.11,1.34-0.15,2.02c-0.1,1.59-0.18,3.18-0.28,4.77c-0.19,3.01-0.12,6.01,0.34,8.99
				c0.02,0.13,0.2,0.24,0.43,0.52c0.07-0.53,0.16-0.87,0.16-1.22c0.01-0.49-0.09-0.98-0.06-1.47c0.3-4.96,0.6-9.92,1.38-14.84
				c0.1-0.61,0.24-1.22,0.23-1.83c-0.06-2.86,0.72-5.6,1.38-8.33c0.64-2.61,1.63-5.15,2.64-7.65c1.2-2.95,2.75-5.75,3.97-8.7
				c1.03-2.49,2.41-4.83,3.54-7.28c1.18-2.56,2.45-5.11,3.32-7.78c1.12-3.44,1.97-6.97,2.75-10.5c0.63-2.88,0.92-5.83,0.68-8.79
				c-0.29-3.48-0.59-6.97-1.04-10.44c-0.6-4.5-1.16-9-1.01-13.56C201.6,130.33,201.53,130.21,201.5,130.1z M178.87,218.81
				c0.41-0.73,0.48-1.35,0.41-2.04c-0.06-0.67-0.13-1.37,0.02-2.01c0.61-2.63,0.67-5.33,1.16-7.98c0.45-2.41,0.92-4.81,1.47-7.19
				c0.7-3,2.04-5.77,3.02-8.66c0.8-2.37,1.8-4.68,2.69-7.03c0.89-2.35,1.66-4.75,2.67-7.05c1.13-2.55,1.71-5.25,2.36-7.92
				c0.81-3.35,0.82-6.8,0.89-10.24c0.08-4.18-0.36-8.32-0.86-12.46c-0.07-0.58-0.1-1.18-0.63-1.86c-0.34,2-0.41,3.83-0.55,5.64
				c-0.19,2.56-0.24,5.13-0.67,7.68c-0.68,4.05-1.18,8.12-2.09,12.13c-0.69,3.05-1.24,6.12-2.41,9.04c-0.14,0.34-0.2,0.71-0.31,1.06
				c-0.44,1.34-0.86,2.68-1.35,4c-0.45,1.21-0.99,2.37-1.46,3.57c-1.63,4.19-2.58,8.56-3.41,12.95c-0.31,1.62-0.65,3.26-0.72,4.9
				c-0.14,3.55-0.67,7.08-0.51,10.65C178.64,216.88,178.45,217.8,178.87,218.81z M269.55,21.63c-1.14-0.12-1.76,0.31-2.4,0.64
				c-0.98,0.5-1.88,1.16-2.88,1.62c-3.15,1.46-5.52,3.88-7.68,6.45c-2.21,2.63-3.97,5.59-5.14,8.86c-0.18,0.51-0.45,1-0.7,1.48
				c-0.7,1.36-1.48,2.68-2.11,4.07c-1.07,2.35-2.41,4.53-3.87,6.65c-2.06,2.98-4.43,5.68-7.11,8.14c-2.53,2.33-5.21,4.46-7.91,6.58
				c-1.88,1.48-3.79,2.91-5.7,4.35c-2.1,1.59-4.13,3.26-6.04,5.08c-2.04,1.94-4.22,3.75-6.33,5.62c-0.27,0.24-0.52,0.52-0.76,0.8
				c-1.02,1.23-2.05,2.44-3.04,3.7c-0.76,0.96-1.47,1.96-2.17,2.97c-0.15,0.21-0.35,0.51,0.05,0.85c0.62-0.58,1.24-1.15,1.85-1.74
				c1.28-1.24,2.52-2.51,3.82-3.72c1.26-1.17,2.57-2.28,3.88-3.39c1.08-0.91,2.16-1.81,3.3-2.65c2.23-1.64,4.38-3.36,6.41-5.24
				c1.39-1.3,2.8-2.57,4.2-3.85c1.22-1.11,2.39-2.31,3.7-3.3c1.57-1.18,3.09-2.4,4.6-3.67c2.45-2.07,4.65-4.38,6.53-6.96
				c0.89-1.22,1.83-2.44,2.44-3.87c0.26-0.61,0.75-1.11,1.07-1.7c0.76-1.38,1.98-2.52,2.24-4.18c0.03-0.23,0.19-0.45,0.32-0.65
				c1.41-2.29,2.85-4.57,4.24-6.88c1.43-2.37,2.88-4.71,4.92-6.61c0.31-0.29,0.57-0.64,0.82-1c1.15-1.68,2.72-2.98,4.03-4.52
				c0.31-0.36,0.78-0.59,1.17-0.88C266.64,23.72,267.98,22.76,269.55,21.63z M218.92,256.48c0.13-0.06,0.25-0.12,0.38-0.19
				c-0.44-1.58-0.82-3.18-1.34-4.73c-1.01-3.03-1.77-6.13-2.34-9.26c-0.42-2.29-0.66-4.61-0.95-6.92c-0.26-2.07-0.42-4.15-0.29-6.24
				c0.11-1.83,0.12-3.68,0.23-5.51c0.13-2.32,0.29-4.64,0.49-6.96c0.18-2.01,0.56-4,0.95-5.99c0.43-2.22,0.61-4.49,0.97-6.72
				c0.19-1.2,0.56-2.38,0.81-3.57c0.48-2.22,0.95-4.43,1.38-6.66c0.11-0.56,0.3-1.16-0.06-1.92c-0.45,0.54-0.59,1.05-0.75,1.56
				c-0.52,1.7-1,3.41-1.57,5.09c-1.01,2.95-2.08,5.88-3.13,8.82c-0.1,0.29-0.17,0.59-0.24,0.89c-0.55,2.51-1.09,5.02-1.64,7.54
				c-0.18,0.84-0.45,1.67-0.5,2.52c-0.18,2.63-0.3,5.26-0.38,7.89c-0.05,1.53-0.05,3.06,0.05,4.59c0.3,4.56,1.43,8.94,2.84,13.27
				c0.59,1.81,1.27,3.58,1.8,5.41c0.57,1.96,1.48,3.75,2.44,5.54C218.35,255.44,218.64,255.96,218.92,256.48z M211.19,125.14
				c0.35-0.47,0.5-0.6,0.56-0.76c0.57-1.56,1.14-3.11,1.67-4.68c0.67-2,1.64-3.84,2.96-5.48c1.01-1.25,1.88-2.56,2.6-3.99
				c1.14-2.26,2.55-4.31,4.52-5.96c1.54-1.3,2.79-2.93,4.59-3.94c1.97-1.99,4.5-3.15,6.81-4.62c1.19-0.76,2.41-1.47,3.61-2.21
				c3.56-2.19,6.94-4.63,10.27-7.14c1.61-1.22,3.33-2.28,4.73-3.76c0.93-0.98,1.96-1.84,2.7-2.99c0.36-0.56,0.8-1.08,1.28-1.55
				c0.98-0.94,1.84-1.96,2.49-3.16c0.32-0.59,0.58-1.24,0.99-1.75c1.84-2.28,2.84-5,4.04-7.6c0.41-0.89,0.8-1.79,1.18-2.7
				c0.1-0.25,0.27-0.57-0.23-0.8c-0.17,0.22-0.37,0.45-0.52,0.7c-1.13,1.89-2.2,3.82-3.38,5.68c-1.15,1.81-2.37,3.58-3.61,5.34
				c-0.81,1.15-1.6,2.35-2.58,3.35c-2.92,2.98-5.98,5.83-9.42,8.22c-0.96,0.67-1.91,1.36-2.94,1.89c-2,1.04-3.97,2.14-5.95,3.21
				c-2.3,1.23-4.17,2.99-6.21,4.54c-1.5,1.14-2.79,2.56-4.19,3.84c-0.72,0.66-1.56,1.21-2.21,1.93c-2.87,3.18-5.65,6.44-7.93,10.08
				c-1.2,1.92-2.29,3.9-3.42,5.86c-0.34,0.58-0.73,1.15-0.95,1.78C212,120.51,211.52,122.6,211.19,125.14z M195.97,136.2
				c0.02-0.72,0.06-1.44,0.07-2.17c0.03-1.9-0.09-3.81,0.11-5.68c0.35-3.28,0.85-6.55,1.39-9.81c0.36-2.17,0.88-4.33,1.86-6.32
				c0.76-1.54,1.59-3.04,2.39-4.55c0.58-1.08,1.34-2.1,1.71-3.24c0.73-2.25,1.92-4.25,3.26-6.11c1.26-1.75,2.01-3.79,3.44-5.41
				c0.3-0.34,0.25-0.49,0.08-1.27c-1.23,0.94-2.29,2.03-3.23,3.24c-1.31,1.68-2.37,3.57-4.04,4.96c-0.09,0.08-0.17,0.18-0.23,0.29
				c-1.08,1.84-2.58,3.38-3.61,5.3c-1.18,2.21-2.55,4.32-3.45,6.66c-0.75,1.94-1.41,3.92-1.32,6.06c0.02,0.48-0.07,0.97-0.1,1.46
				c-0.04,0.61-0.09,1.22-0.09,1.83c0,1.1,0.02,2.19,0.07,3.29c0.1,2.32,0.11,4.64,0.54,6.94c0.18,0.96,0.3,1.93,0.47,2.89
				C195.39,135.12,195.51,135.7,195.97,136.2z M294.27,85.08c0.11,0.01,0.22,0.01,0.33,0.02c0.08-0.15,0.22-0.3,0.22-0.44
				c-0.02-1.04-0.05-2.08-0.12-3.11c-0.04-0.61-0.2-1.21-0.21-1.82c-0.02-2.01-0.55-3.88-1.47-5.64c-0.51-0.98-1.1-1.92-1.56-2.92
				c-0.51-1.11-1.03-2.25-1.32-3.42c-0.64-2.57-0.86-5.18-0.4-7.83c0.32-1.85,0.91-3.57,1.99-5.09c1.53-2.15,3.5-3.62,6.25-3.69
				c1.97-0.05,3.78,0.58,5.35,1.69c1.75,1.22,2.37,3.72,1.64,5.78c-0.08,0.23-0.22,0.44-0.28,0.68c-0.04,0.16-0.03,0.43,0.07,0.5
				c0.18,0.12,0.45,0.22,0.65,0.18c0.29-0.06,0.64-0.17,0.81-0.39c0.77-0.97,1.43-1.96,1.34-3.32c-0.23-3.7-2.96-6.45-6.68-6.53
				c-1.65-0.04-3.31,0.11-4.96,0.18c-0.18,0.01-0.36,0.07-0.53,0.13c-2.12,0.83-3.85,2.1-4.89,4.22c-0.68,1.39-1.18,2.83-1.53,4.33
				c-0.85,3.65-0.9,7.31,0.25,10.9c0.5,1.57,1.22,3.08,1.97,4.55c1.26,2.48,2.08,5.09,2.56,7.83C293.95,82.92,294.1,84,294.27,85.08
				z M190.16,214.53c0.59,0.04,0.63-0.37,0.72-0.71c0.87-3.06,1.74-6.12,2.62-9.18c0.12-0.41,0.26-0.82,0.44-1.2
				c0.54-1.17,1.12-2.32,1.65-3.49c0.38-0.83,0.55-1.8,1.06-2.53c1.14-1.61,1.77-3.48,2.8-5.14c0.19-0.31,0.42-0.64,0.49-0.98
				c0.23-1.12,0.9-2,1.46-2.95c0.43-0.74,0.8-1.53,1.33-2.19c0.56-0.7,0.54-1.67,1.1-2.29c0.99-1.1,1.17-2.53,1.74-3.79
				c0.62-1.39,1.06-2.86,1.51-4.31c0.34-1.08,0.67-2.17,0.64-3.59c-0.3,0.39-0.52,0.55-0.57,0.75c-0.61,2.54-1.93,4.77-3.17,7.01
				c-2.14,3.86-4.52,7.57-6.75,11.38c-1.46,2.49-2.73,5.08-3.67,7.8c-1.06,3.06-1.91,6.2-2.82,9.31c-0.15,0.52-0.32,1.1-0.26,1.61
				c0.11,0.83-0.07,1.58-0.24,2.35C190.08,213.09,189.94,213.81,190.16,214.53z M288.84,50.67c-1.86,0.82-2.91,1.99-3.66,3.41
				c-1.4,2.66-1.98,5.49-1.76,8.53c0.31,4.23,1.37,8.21,3.43,11.93c1.04,1.87,2.05,3.75,2.79,5.79c1.04,2.84,1.46,5.67,0.95,8.66
				c-0.21,1.2-0.28,2.43-0.4,3.65c0,0.05,0.06,0.1,0.1,0.16c0.53,0.19,0.64-0.24,0.72-0.56c0.54-2.21,1.09-4.42,1.14-6.71
				c0.07-2.94-0.48-5.75-2-8.31c-1.29-2.17-2.28-4.48-3.19-6.83c-0.51-1.32-0.78-2.7-1.03-4.1c-0.37-2.15-0.13-4.29-0.09-6.43
				c0.03-1.8,0.4-3.53,1.17-5.17C287.57,53.47,288.12,52.25,288.84,50.67z M210.15,67.1c0.09,0.07,0.17,0.14,0.26,0.21
				c0.18-0.16,0.36-0.31,0.54-0.47c1.4-1.3,2.44-2.9,3.63-4.38c1.79-2.22,3.11-4.69,4.37-7.2c0.52-1.04,1.07-2.07,1.49-3.15
				c0.49-1.25,0.89-2.54,1.24-3.84c0.62-2.24,1.41-4.42,2.33-6.55c0.61-1.4,1.26-2.81,2.1-4.08c1.37-2.1,2.62-4.28,4.35-6.13
				c2.17-2.32,4.08-4.91,7.06-6.32c0.05-0.03,0.09-0.09,0.14-0.11c1.77-0.96,3.43-2.11,5.39-2.73c0.82-0.26,1.64-0.64,2.5-1.16
				c-0.81-0.31-1.39-0.03-1.94,0.18c-1.09,0.4-2.19,0.8-3.23,1.32c-1.48,0.73-3.02,1.37-4.31,2.43c-0.52,0.43-0.99,0.94-1.56,1.26
				c-2.01,1.14-3.51,2.86-5.06,4.5c-1.42,1.5-2.63,3.2-3.92,4.83c-0.26,0.33-0.51,0.7-0.69,1.08c-0.76,1.66-1.61,3.29-2.22,5
				c-0.75,2.13-1.54,4.24-2.42,6.32c-1.03,2.41-1.93,4.88-2.97,7.29c-0.99,2.3-2.07,4.56-3.55,6.61c-1.04,1.44-2.06,2.89-3.09,4.34
				C210.42,66.59,210.29,66.85,210.15,67.1z M237.82,30.61c-0.28,0.13-0.52,0.18-0.68,0.32c-0.32,0.27-0.58,0.62-0.91,0.89
				c-2.66,2.15-4.58,4.9-6.33,7.79c-0.38,0.63-0.77,1.26-1.05,1.93c-1.11,2.71-2.17,5.44-3.24,8.17c-0.09,0.22-0.13,0.47-0.17,0.71
				c-0.14,0.79-0.36,1.53-0.74,2.25c-0.34,0.65-0.59,1.34-0.84,2.03c-0.08,0.22-0.26,0.54,0.2,0.79c0.11-0.15,0.21-0.3,0.33-0.44
				c2-2.26,3.44-4.88,4.84-7.53c0.88-1.67,1.77-3.35,2.6-5.04c0.83-1.7,1.65-3.41,2.37-5.16c0.61-1.47,2.06-4.08,3.12-5.31
				C237.62,31.64,237.95,31.28,237.82,30.61z M227.42,61.78c0.59,0.31,1.09,0.29,1.47-0.06c1.44-1.33,3.22-2.23,4.57-3.66
				c0.97-1.02,1.9-2.07,3.11-2.83c0.2-0.13,0.34-0.35,0.52-0.52c1.21-1.15,2.1-2.54,3.09-3.86c1.36-1.82,2.59-3.72,3.69-5.69
				c1.16-2.08,2.19-4.23,3.27-6.35c0.59-1.14,1.22-2.26,1.74-3.43c0.65-1.46,1.35-2.88,2.24-4.21c0.31-0.46,0.55-0.95,0.8-1.44
				c0.24-0.47,0.76-0.79,0.77-1.38c-0.08-0.01-0.15-0.05-0.18-0.03c-0.26,0.16-0.53,0.31-0.76,0.5c-3.33,2.87-5.69,6.43-6.97,10.61
				c-0.74,2.43-1.8,4.69-2.96,6.91c-0.81,1.57-1.72,3.11-2.99,4.39c-0.95,0.96-1.87,1.94-2.79,2.92c-0.84,0.88-1.61,1.83-2.51,2.64
				c-1.82,1.64-3.71,3.2-5.56,4.81C227.78,61.29,227.63,61.54,227.42,61.78z M231.15,73.84c0.07,0.06,0.13,0.12,0.2,0.17
				c1.33-0.95,2.66-1.91,4.01-2.86c3.02-2.13,5.78-4.56,8.41-7.13c1.53-1.5,2.93-3.14,4.36-4.74c2.68-2.99,4.93-6.27,6.58-9.93
				c1.38-3.07,2.73-6.16,3.78-9.37c0.05-0.14,0.01-0.31,0.01-0.68c-0.73,1.07-1.42,1.93-1.96,2.87c-1.47,2.54-2.77,5.17-4.19,7.73
				c-1.19,2.14-2.35,4.3-3.76,6.3c-1.76,2.49-3.26,5.21-5.83,7.03c-0.2,0.14-0.37,0.33-0.52,0.52c-1.41,1.71-3.22,2.99-4.86,4.44
				c-1.84,1.62-3.8,3.08-5.52,4.84C231.6,73.29,231.39,73.57,231.15,73.84z M257.32,57.46c-0.47,0.36-0.58,0.42-0.66,0.51
				c-1.86,2.19-3.46,4.59-5.6,6.56c-2.21,2.03-4.27,4.22-6.47,6.26c-1.39,1.29-2.9,2.45-4.39,3.62c-1.93,1.51-3.93,2.93-5.83,4.47
				c-2.05,1.66-4.02,3.4-6.02,5.12c-0.97,0.84-1.92,1.71-2.87,2.58c-0.17,0.16-0.34,0.37,0.03,0.75c2.14-2.37,5.21-3.6,7.33-6.03
				c2.19-1.58,4.3-3.27,6.58-4.7c3.03-1.9,5.82-4.08,8.58-6.33c0.43-0.35,0.86-0.72,1.17-1.17c0.36-0.51,0.78-0.92,1.27-1.31
				c0.38-0.3,0.71-0.67,1.05-1.03c1.41-1.47,2.55-3.14,3.6-4.87C255.88,60.62,256.62,59.29,257.32,57.46z M318.65,43.23
				c0.09-0.18,0.19-0.29,0.19-0.4c0.01-0.24,0.01-0.49-0.03-0.73c-0.5-2.95-2.06-5.34-4.03-7.49c-1.85-2.03-4.16-3.39-6.7-4.39
				c-1.04-0.41-2.1-0.66-3.23-0.61c-1.96,0.09-3.93,0.1-5.88,0.29c-1.52,0.14-3.02,0.48-4.53,0.76c-0.2,0.04-0.38,0.23-0.78,0.48
				c0.48,0.08,0.71,0.17,0.93,0.15c1.03-0.1,2.07-0.21,3.09-0.36c2.53-0.37,5.02-0.13,7.49,0.43c1.69,0.39,3.26,1.05,4.67,2.1
				c1.58,1.17,3.03,2.48,4.21,4.08c1.16,1.58,2.49,3.03,3.41,4.78C317.68,42.74,317.94,43.2,318.65,43.23z M235.12,208.74
				c-0.3,0.51-0.46,0.69-0.53,0.9c-0.16,0.53-0.22,1.09-0.42,1.6c-1.14,2.83-1.53,5.8-1.86,8.8c-0.32,2.93-0.56,5.86-0.46,8.81
				c0.03,0.92,0.1,1.84,0.23,2.75c0.09,0.66,0.29,1.32,0.5,1.96c0.06,0.17,0.34,0.26,0.52,0.38c0.13-0.19,0.3-0.37,0.38-0.58
				c0.06-0.16,0.01-0.36,0-0.55c-0.15-2.39-0.16-4.78,0.02-7.17c0.12-1.59,0.18-3.19,0.22-4.78c0.06-2.76,0.28-5.51,0.93-8.2
				c0.22-0.89,0.36-1.8,0.51-2.71C235.2,209.67,235.14,209.38,235.12,208.74z M324.15,45.07c0.75-1.18,0.69-2.4,0.38-3.58
				c-0.66-2.55-1.51-5.01-3-7.25c-1.43-2.16-3.01-4.15-5.06-5.75c-0.22-0.17-0.46-0.45-0.87-0.04c0.33,0.48,0.68,0.97,1.03,1.47
				c1.42,2,3.07,3.84,4.15,6.06c1.23,2.54,2.22,5.17,2.61,7.99C323.44,44.37,323.44,44.83,324.15,45.07z M232.67,50.57
				c1.38-1.14,2.44-2.02,3.08-3.33c0.37-0.76,0.89-1.46,1.35-2.18c1.05-1.65,1.99-3.34,2.48-5.26c0.06-0.23,0.09-0.5,0.22-0.69
				c1.11-1.51,1.37-3.4,2.25-5.01c0.08-0.15,0.01-0.39,0.01-0.73c-0.3,0.22-0.48,0.29-0.58,0.43c-1.34,1.89-2.85,3.68-3.46,6
				c-0.05,0.17-0.19,0.31-0.27,0.47c-1.43,2.7-2.86,5.39-4.28,8.1C233.18,48.94,232.76,49.48,232.67,50.57z M241.92,228.09
				c-0.4-1.14-0.82-2.14-1.1-3.19c-0.24-0.87-0.36-1.79-0.47-2.69c-0.23-2.01-0.44-4.02-0.27-6.04c0.15-1.7,0.29-3.41,0.41-5.12
				c0.02-0.25,0.02-0.62-0.47-0.56c-0.06,0.24-0.13,0.48-0.16,0.72c-0.18,1.27-0.27,2.56-0.56,3.8c-0.62,2.66-0.61,5.34-0.47,8.04
				c0.09,1.81,0.79,3.45,1.72,4.99c0.13,0.22,0.48,0.43,0.72,0.43C241.52,228.47,241.76,228.19,241.92,228.09z M236.98,20.31
				c0.56-0.2,1.15-0.35,1.68-0.61c2.1-1.03,4.34-1.63,6.63-2.04c2.04-0.36,4.05-0.96,6.18-0.69c0.54,0.07,0.88-0.33,0.85-1.06
				c-0.46-0.06-0.93-0.18-1.4-0.16c-3.19,0.11-6.35,0.53-9.39,1.52C239.77,17.84,238.23,18.84,236.98,20.31z M309.35,53.16
				c0.6-0.59,0.52-1.21,0.45-1.8c-0.06-0.54-0.13-1.08-0.27-1.6c-0.38-1.53-0.61-3.13-1.46-4.5c-0.67-1.09-1.44-2.11-2.19-3.14
				c-0.16-0.22-0.39-0.48-0.77-0.31c-0.15,0.79,0.29,1.4,0.62,2.03c0.63,1.19,1.18,2.4,1.54,3.7c0.4,1.46,0.82,2.92,1.3,4.36
				C308.72,52.33,309.06,52.7,309.35,53.16z M313.11,48.21c0.62-0.65,0.46-1.14,0.39-1.61c-0.21-1.52-0.71-2.97-1.25-4.4
				c-0.68-1.81-1.73-3.35-3.34-4.46c-0.35-0.24-0.69-0.5-1.05-0.74c-0.16-0.11-0.34-0.39-0.57-0.03
				C309.9,40.31,311.47,44.19,313.11,48.21z M210.3,59.43c-0.57,0.46-1.07,0.77-1.46,1.19c-1.08,1.17-2.19,2.31-3.13,3.59
				c-1.71,2.31-3.3,4.7-4.93,7.06c-0.18,0.26-0.47,0.52-0.29,0.99c1.43-1.51,2.81-2.96,3.94-4.63c0.24-0.35,0.5-0.69,0.77-1.01
				c1.19-1.39,2.38-2.78,3.58-4.15C209.61,61.53,209.91,60.98,210.3,59.43z M211.84,74.49c0.34-0.21,0.7-0.39,1.01-0.64
				c1.62-1.3,3.19-2.66,4.85-3.91c2.69-2.01,5.44-3.95,8.16-5.92c0.15-0.11,0.32-0.21,0.42-0.35c0.1-0.15,0.46-0.19,0.28-0.51
				C223.6,64.04,216.81,69.1,211.84,74.49z M245.55,224.01c0.68-0.18,0.95-0.54,0.86-1.11c-0.09-0.54-0.19-1.08-0.33-1.62
				c-0.53-2.12-1.08-4.24-1.72-6.72c0.06,2.64-0.23,4.94,0.26,7.23C244.79,222.56,244.86,223.35,245.55,224.01z M302.96,47.15
				c0.13-0.36,0.24-0.5,0.21-0.58c-0.72-1.67-1.43-3.36-2.58-4.8c-0.12-0.15-0.36-0.2-0.78-0.42c0.44,1.89,0.82,3.52,1.23,5.29
				C301.62,46.8,302.25,46.97,302.96,47.15z M274.62,13.99c1.74,0.34,3.35,0.01,4.92,0.21c1.61,0.2,3.2,0.29,4.81,0.01
				c-2.14-0.88-4.38-0.94-6.63-0.85C276.71,13.4,275.66,13.3,274.62,13.99z M290.26,42.2c-0.09,0.27-0.19,0.44-0.19,0.61
				c0.04,1.53,0.54,2.96,1.01,4.38c0.04,0.12,0.34,0.28,0.42,0.23c0.17-0.1,0.41-0.32,0.4-0.48c-0.1-1.51-0.51-2.96-1.03-4.37
				C290.8,42.41,290.49,42.34,290.26,42.2z M295.42,42.54c-0.03,0.18-0.11,0.36-0.08,0.52c0.15,0.9,0.32,1.79,0.49,2.69
				c0.14,0.75,0.28,0.82,1.29,0.58C297.25,44.3,296.78,43.22,295.42,42.54z M282.84,49.2c-0.28,0.98-0.52,2.84-0.41,3.3
				c0.03,0.14,0.22,0.27,0.36,0.35c0.07,0.04,0.27-0.03,0.31-0.1c0.2-0.36,0.53-0.75,0.5-1.11
				C283.56,50.83,283.36,50.02,282.84,49.2z M300.65,54.38c0.74,1.38,0.74,1.38,1.73,1.14C301.91,54.38,301.74,54.26,300.65,54.38z
				 M247.41,20.91c-0.01-0.04-0.02-0.12-0.03-0.12c-0.12,0-0.23,0.02-0.35,0.03c0.01,0.04,0.02,0.11,0.03,0.11
				C247.18,20.93,247.29,20.92,247.41,20.91z M249.66,20.56c-0.01-0.04-0.01-0.1-0.03-0.12c-0.04-0.03-0.1-0.02-0.16-0.03
				c0.01,0.07,0.03,0.13,0.04,0.2C249.56,20.59,249.61,20.57,249.66,20.56z M240.47,208.78l0.06-0.11l-0.1-0.01L240.47,208.78z"/>
			<path d="M323.42,201.86c0.13,0.28,0.3,0.6,0.43,0.94c0.06,0.15,0.01,0.34,0.01,0.58c-1.94-0.29-3.9-0.07-5.78-0.64
				c-0.45-0.13-1-0.11-1.45,0.02c-1.29,0.39-2.6,0.78-3.72,1.57c-1.2,0.84-2.38,1.74-3.56,2.6c-0.64,0.47-1.32,0.9-1.94,1.4
				c-2.17,1.76-4.76,2.51-7.42,3.03c-1.76,0.34-3.55,0.17-5.32,0.04c-0.55-0.04-1.1-0.14-1.65-0.15c-3.72-0.11-7.06-1.44-10.25-3.23
				c-2.09-1.17-4.02-2.58-5.87-4.11c-0.62-0.51-1.27-0.96-1.89-1.47c-2.27-1.88-5.13-1.34-7.19,0.04c-0.3,0.2-0.55,0.5-0.86,0.69
				c-0.12,0.07-0.38,0.05-0.49-0.04c-0.11-0.09-0.18-0.36-0.12-0.47c0.35-0.65,0.73-1.27,1.15-1.97c2.1,0.18,3.34-1.33,4.61-2.6
				c1.7-1.71,3.57-3.17,5.54-4.54c2.94-2.03,6.22-3.16,9.71-3.72c1.4-0.23,2.77-0.15,4.07,0.67c0.87,0.55,1.87,0.91,2.83,1.29
				c0.89,0.35,1.82,0.32,2.7-0.04c1.02-0.41,2.05-0.82,3.02-1.33c0.62-0.33,1.23-0.54,1.92-0.5c0.55,0.03,1.11,0.02,1.65,0.13
				c1.38,0.28,2.75,0.63,4.12,0.93c2.76,0.61,4.91,2.23,6.74,4.26c1.44,1.6,2.88,3.18,4.55,4.53c0.76,0.62,1.57,1.19,2.43,1.64
				C321.93,201.68,322.58,201.68,323.42,201.86z M295.24,210.42c2.51,0.09,4.52-0.54,5.63-1.54c0.67-0.6,0.84-1.19,0.57-1.96
				c-0.26-0.75-0.85-1.01-1.58-1.01c-0.92,0-1.84-0.01-2.75,0.07c-1.79,0.14-3.54,0.09-5.23-0.62c-0.28-0.12-0.59-0.18-0.89-0.21
				c-1.28-0.12-2.43,0.18-3.37,1.1c-0.51,0.49-0.51,1.13,0.02,1.6c0.14,0.12,0.29,0.23,0.45,0.32
				C290.52,209.51,293.02,210.61,295.24,210.42z M290.66,198.26c0.43,0.83,0.91,1.24,1.49,1.41c2.05,0.59,4.09,0.54,6.08-0.31
				c0.43-0.18,0.8-0.52,0.89-1.17c-0.29-0.03-0.53-0.11-0.73-0.06c-1.59,0.41-3.13,0.23-4.69-0.17c-0.58-0.15-1.21-0.2-1.8-0.16
				C291.51,197.81,291.15,198.06,290.66,198.26z M287.03,193.52c0.99-0.11,1.78-0.19,2.56-0.3c0.29-0.04,0.61-0.12,0.85-0.28
				c0.24-0.15,0.52-0.42,0.54-0.66c0.02-0.22-0.24-0.53-0.46-0.69c-1.93-1.35-3.82-0.72-5.67,0.19c-0.49,0.24-0.44,0.95,0.09,1.15
				C285.67,193.22,286.45,193.37,287.03,193.52z M299.04,192.48c0.38,0.27,0.64,0.55,0.95,0.67c1.28,0.49,2.62,0.56,3.97,0.41
				c0.24-0.03,0.51-0.07,0.69-0.21c0.22-0.17,0.5-0.45,0.5-0.69c0.01-0.23-0.25-0.59-0.47-0.69c-1.25-0.51-2.56-0.82-3.92-0.75
				C300.05,191.27,299.51,191.66,299.04,192.48z M305.74,195.48c0.27,0.23,0.38,0.39,0.54,0.45c1.1,0.38,2.2,0.78,3.32,1.08
				c0.58,0.16,1.21,0.17,1.81,0.17c0.19,0,0.48-0.21,0.55-0.39c0.07-0.17-0.02-0.5-0.16-0.64
				C310.45,194.72,307.67,194.38,305.74,195.48z M281.54,196.33c0.34,0.31,0.45,0.47,0.6,0.54c0.21,0.11,0.46,0.2,0.69,0.21
				c1.05,0.06,2.05-0.17,2.97-0.7c0.13-0.07,0.27-0.32,0.24-0.44c-0.06-0.2-0.23-0.47-0.41-0.52c-1.01-0.29-2.05-0.28-3.04,0.04
				C282.23,195.59,281.96,195.97,281.54,196.33z"/>
			<path d="M244.61,131.69c-0.96-0.45-1.76-1.09-2.51-1.83c-1.81-1.76-3.48-3.63-4.92-5.7c-0.53-0.75-0.94-1.58-1.38-2.38
				c-0.27-0.48-0.52-0.98-0.75-1.48c-0.39-0.82-1-1.31-1.86-1.66c-1.07-0.43-2.07-1.05-3.06-1.66c-0.33-0.2-0.55-0.6-0.95-1.06
				c0.85-0.22,1.47-0.15,2.09,0.09c2.73,1.05,5.57,1.4,8.47,1.47c0.12,0,0.25,0.01,0.37,0.03c2.78,0.56,5.62,0.5,8.42,0.84
				c4.2,0.51,8.4,1.07,12.61,1.4c2.21,0.17,4.39,0.36,6.54,0.9c3.1,0.77,6.15,1.71,8.99,3.2c1.9,0.99,3.73,2.14,5.35,3.56
				c0.22,0.19,0.35,0.47,0.51,0.72c0.02,0.03-0.02,0.11-0.04,0.16c-0.24,0.25-0.44,0.09-0.64-0.05c-1.15-0.81-2.29-1.64-3.45-2.44
				c-0.25-0.17-0.54-0.3-0.83-0.38c-0.15-0.04-0.39,0.01-0.49,0.12c-0.09,0.1-0.12,0.34-0.06,0.48c0.09,0.22,0.23,0.43,0.4,0.6
				c0.52,0.52,1.09,1,1.59,1.53c0.37,0.4,0.74,0.82,0.99,1.3c0.34,0.66-0.02,1.42-0.76,1.58c-0.59,0.12-1.24,0.19-1.82,0.08
				c-1.59-0.29-3.04,0.05-4.45,0.76c-2.37,1.19-4.95,1.32-7.52,1.47c-2.38,0.14-4.77,0.32-7.16,0.31c-1.39,0-2.79-0.29-4.18-0.53
				c-1.33-0.23-2.64-0.54-3.94-0.89c-0.88-0.24-1.76-0.55-2.59-0.93c-2.42-1.12-4.51-2.72-6.43-4.55c-0.88-0.84-1.78-1.66-2.8-2.62
				c0.48,1.48,0.61,1.72,1.32,2.47c1.42,1.52,2.75,3.14,4.48,4.34c0.21,0.15,0.29,0.51,0.42,0.77L244.61,131.69z M237.03,120.31
				c0.11,0.8,0.54,1.32,0.97,1.83c1.21,1.46,2.51,2.85,3.86,4.2c1.95,1.94,4.24,3.32,6.71,4.44c0.5,0.23,1.04,0.36,1.58,0.49
				c1.01,0.25,2.03,0.46,3.04,0.69c0.66,0.15,1.31,0.38,1.97,0.45c2.87,0.28,5.73,0.5,8.62,0.05c2.37-0.37,4.68-0.82,6.93-1.72
				c1.53-0.61,2.78-1.54,4.01-2.56c0.93-0.77,1.19-1.82,1.1-2.98c-0.03-0.39-0.22-0.71-0.56-0.9c-1.41-0.76-2.86-1.41-4.44-1.73
				c-0.78-0.16-1.12,0.04-1.41,0.8c-0.18,0.46-0.26,0.94-0.42,1.41c-0.73,2.13-1.99,3.75-4.16,4.62c-1.54,0.62-3.13,0.78-4.7,0.55
				c-2.1-0.31-3.95-1.17-5.39-2.88c-1.43-1.7-2.03-3.6-1.95-5.77c0.01-0.28-0.02-0.57-0.04-0.92c-1.12-0.25-2.16-0.18-3.19-0.23
				c-3.99-0.19-7.97,0.27-11.95,0.05C237.46,120.18,237.34,120.24,237.03,120.31z M256.15,123.13c-0.05,0.61-0.16,0.97-0.09,1.28
				c0.82,3.62,4.67,4.82,7.33,3.78c1.52-0.59,2.36-1.87,2.66-3.47c0.01-0.05-0.16-0.13-0.31-0.25c-0.23,0.26-0.45,0.54-0.7,0.79
				c-0.58,0.56-1.2,1.06-2.04,1.14c-2.6,0.24-4.89-0.27-6.34-2.72C256.6,123.59,256.49,123.51,256.15,123.13z M274.34,129.86
				c1.12,0.12,1.96,0.23,2.79,0.3c0.48,0.04,0.97,0.03,1.45-0.03c0.21-0.03,0.48-0.21,0.55-0.38c0.06-0.17-0.04-0.5-0.18-0.63
				c-0.54-0.49-1.1-0.95-1.69-1.38c-0.42-0.31-0.82-0.27-1.15,0.08C275.55,128.42,275.02,129.06,274.34,129.86z M262.98,121.12
				c-0.18,0-0.3-0.01-0.42,0c-0.63,0.05-1.16,0.53-1.23,1.12c-0.07,0.56,0.38,1.19,0.99,1.36c0.7,0.19,1.33,0.02,1.84-0.49
				c0.3-0.31,0.51-0.68,0.4-1.15c-0.11-0.46-0.45-0.72-1.08-0.8C263.29,121.14,263.11,121.13,262.98,121.12z"/>
			<path d="M271.23,108.32c0.22-1.83-0.42-3.56,0.26-5.2c0.39-0.09,0.38,0.23,0.44,0.44c0.1,0.35,0.19,0.71,0.25,1.07
				c0.62,3.64,2.69,6.38,5.45,8.68c0.32,0.27,0.66,0.57,1.14,0.38c0.11-1.1,0.05-1.28-1.1-3.14c-0.61-0.98-1.24-1.96-1.85-2.94
				c1.29,0.66,2.15,1.45,2.96,2.71c0.37,0.57,0.7,1.16,1.12,1.68c0.24,0.31,0.62,0.5,1.07,0.84c0.73-1.47-0.05-3.06,0.78-4.43
				c0.18,0.24,0.34,0.36,0.39,0.52c0.51,1.71,0.87,3.43,0.82,5.24c-0.06,1.78-0.08,3.56,0.59,5.27c0.07,0.17-0.03,0.51-0.17,0.63
				c-0.25,0.22-0.61,0.19-0.83-0.07c-0.38-0.47-0.75-0.97-1.05-1.49c-0.48-0.85-1.03-1.46-2.14-1.44c-0.86,0.02-1.67-0.33-2.39-0.86
				c-0.45-0.33-0.93-0.6-1.38-0.92c-1.49-1.07-2.99-2.13-4.46-3.23c-0.95-0.7-1.99-1.18-3.06-1.66c-2.31-1.03-4.75-1.57-7.19-2.16
				c-2.05-0.5-4.09-0.79-6.19-0.64c-1.91,0.13-3.79,0.03-5.67-0.4c-0.93-0.21-1.96-0.2-2.92-0.09c-2.5,0.29-4.97,0.78-7.47,1.02
				c-2.32,0.23-4.65,0.27-6.98,0.35c-0.32,0.01-0.65-0.18-1.08-0.31c0.78-0.53,1.02-0.61,2.05-0.82c0.64-0.13,1.36,0.01,1.93-0.54
				c-0.43-0.71-1.51-0.06-1.79-0.94c0.19-0.46,0.6-0.36,0.95-0.33c1.16,0.12,2.34,0.16,3.47,0.41c1.95,0.44,3.88,0.22,6.06,0.1
				c-1.08-0.97-2.51-0.66-3.5-1.56c0.86-0.76,1.82-0.82,2.78-0.73c0.96,0.09,1.91,0.3,2.83,0.45c0.35-0.32,0.23-0.61,0.09-0.88
				c-0.23-0.48-0.49-0.95-0.74-1.42c0.53-0.35,0.8-0.04,1.02,0.22c0.88,1.05,2.01,1.79,3.09,2.61c0.93,0.71,2,0.9,3.13,0.78
				c0.16-0.02,0.3-0.15,0.54-0.27c-0.39-1.28-2.06-1.65-2.15-3.17c1.34-0.21,1.88,1.34,3.12,1.33c0.15-1.25-1.31-2-1.13-3.52
				c1.72,1.52,2.84,3.36,4.68,4.36c1.79,0.97,3.39,2.41,5.8,2.65c-1.26-1.92-2.89-3.23-4.05-4.89c0.16-0.48,0.48-0.39,0.76-0.28
				c0.28,0.12,0.55,0.27,0.79,0.46c1.64,1.29,3.24,2.6,4.63,4.19c1.11,1.27,2.46,2.35,4.15,3.08c0.26-0.75-0.13-1.17-0.48-1.55
				c-1.11-1.22-2.26-2.42-3.39-3.63c-0.24-0.26-0.46-0.53-0.91-1.05c0.54,0.12,0.81,0.11,0.96,0.23c0.63,0.48,1.25,0.99,1.84,1.52
				c1.05,0.94,2.06,1.93,3.12,2.86C270.44,108.08,270.81,108.14,271.23,108.32z"/>
			<path d="M283.71,175.59c-0.49-0.64-0.52-1.17-0.2-1.69c0.29-0.49,0.71-0.82,1.29-0.94c0.94-0.18,1.83-0.13,2.61,0.51
				c0.24,0.2,0.48,0.38,0.73,0.57c3.02,2.29,6.48,3.11,10.2,2.9c0.78-0.04,1.58-0.26,2.29-0.57c1.23-0.54,2.39-1.25,3.59-1.85
				c0.71-0.35,1.45-0.65,2.18-0.96c1.05-0.45,2.05-0.19,3.03,0.23c0.64,0.27,0.96,0.96,0.76,1.49c-0.22,0.58-0.81,0.93-1.48,0.81
				c-0.48-0.09-0.94-0.27-1.41-0.42c-1.28-0.42-2.51-0.44-3.7,0.33c-0.77,0.49-1.64,0.83-2.43,1.29c-0.98,0.58-2.04,0.84-3.16,0.84
				c-2.66-0.01-5.26-0.38-7.73-1.4c-0.51-0.21-0.99-0.48-1.45-0.78c-1.37-0.89-2.79-1.23-4.35-0.53
				C284.26,175.52,284.01,175.53,283.71,175.59z"/>
			<path d="M282.24,178.19c-1.19,0.11-2.11-0.18-2.97-0.85c-1.32-1.04-1.97-2.53-2.44-4.03c-0.89-2.83-0.83-5.67,0.7-8.33
				c0.53-0.92,1.15-1.74,2.15-2.18c0.15-0.06,0.33-0.05,0.51-0.07c0.28,0.58-0.19,0.82-0.46,1.08c-0.84,0.83-1.52,1.73-2,2.82
				c-0.69,1.55-0.96,3.12-0.63,4.81c0.29,1.53,0.95,2.9,1.7,4.23c0.47,0.85,1.28,1.28,2.17,1.59c0.39,0.14,0.77,0.33,1.14,0.51
				C282.15,177.79,282.15,177.87,282.24,178.19z"/>
			<path d="M247.01,132.64c3.08,0.98,6.17,1.92,9.44,2.03c0.96,0.03,1.91,0.23,3.04,0.37c-0.3,0.1-0.41,0.17-0.52,0.16
				c-3.17-0.21-6.35-0.42-9.43-1.29c-0.91-0.26-1.92-0.38-2.49-1.31C247.05,132.61,247.01,132.64,247.01,132.64z"/>
			<path d="M284.71,117.34c1.83,1.13,2.78,3.91,2.38,6.33c-0.44-0.2-0.26-0.61-0.34-0.93c-0.1-0.41-0.15-0.84-0.25-1.25
				c-0.09-0.35-0.2-0.7-0.33-1.04c-0.13-0.34-0.28-0.67-0.42-1.01c-0.17-0.39-0.33-0.78-0.52-1.17
				C285.07,117.95,284.88,117.65,284.71,117.34z"/>
			<path d="M307.18,119.33c-0.33,0.57-0.66,1.13-0.97,1.67c0.02-1.05,0.02-1.05,0.96-1.65L307.18,119.33z"/>
			<path d="M244.56,131.72c0.67-0.1,1.15,0.12,1.41,0.77l0.04-0.02c-0.47-0.26-0.93-0.53-1.4-0.79
				C244.61,131.69,244.56,131.72,244.56,131.72z"/>
			<path d="M294.98,189.36c0.36,0.08,0.71,0.15,1.1,0.23c-0.58,0.17-0.58,0.17-1.07-0.26L294.98,189.36z"/>
			<path d="M256.33,244.85c-0.02,0.22-0.03,0.44-0.05,0.65c-0.03-0.01-0.07-0.01-0.1-0.02
				C256.23,245.26,256.28,245.05,256.33,244.85C256.33,244.84,256.33,244.85,256.33,244.85z"/>
			<path d="M295.01,189.34c-0.1,0.02-0.2,0.04-0.29,0.06c0.03-0.02,0.06-0.04,0.1-0.05c0.05,0,0.1,0.01,0.15,0.01
				C294.98,189.36,295.01,189.34,295.01,189.34z"/>
			<path d="M245.97,132.49c0.35,0.05,0.69,0.11,1.04,0.16c0,0,0.04-0.04,0.05-0.04c-0.34-0.05-0.68-0.1-1.04-0.15
				C246.01,132.47,245.97,132.49,245.97,132.49z"/>
			<path d="M307.17,119.34c-0.02-0.1-0.03-0.2-0.04-0.24c0.01,0.03,0.03,0.13,0.05,0.23C307.18,119.33,307.17,119.34,307.17,119.34z
				"/>
		</g>
		<path d="M196.73,257.82c1.38,3.21,2.9,6.35,4.65,9.39c1.02,1.77,2.33,3.3,3.65,4.83c1.16,1.34,2.41,2.62,3.64,3.91
			c0.55,0.58,1.15,1.11,1.72,1.66c1.58,1.55,3.14,3.11,4.74,4.64c2.66,2.54,5.43,4.96,8.34,7.22c1.64,1.28,3.61,2.04,5.12,3.49
			c-0.2,0.47-0.62,0.4-0.95,0.32c-1.49-0.34-3.04-0.57-4.45-1.12c-2-0.77-4-1.57-5.84-2.7c-2.87-1.77-5.8-3.45-8.65-5.24
			c-0.87-0.55-1.58-1.35-2.4-2c-0.62-0.49-1.29-0.93-1.94-1.38c-0.25-0.18-0.53-0.32-0.76-0.52c-2.18-1.89-4.51-3.6-6.39-5.82
			c-0.75-0.89-1.64-1.66-2.48-2.47c-3.39-3.23-6.28-6.87-8.99-10.68"/>
	</g>
	<text transform="matrix(1 0 0 1 192.9373 413.1386)"><tspan x="0" y="0" class="st5 st6">DAY</tspan><tspan x="26.21" y="74.53" class="st5 st6">5-7</tspan></text>
</g>
</svg>
