<?xml version="1.0" encoding="utf-8"?>
<!-- Generator: Adobe Illustrator 26.4.1, SVG Export Plug-In . SVG Version: 6.00 Build 0)  -->
<svg version="1.1" xmlns="http://www.w3.org/2000/svg" xmlns:xlink="http://www.w3.org/1999/xlink" x="0px" y="0px"
	 viewBox="0 0 457.04 435.13" style="enable-background:new 0 0 457.04 435.13;" xml:space="preserve">
<style type="text/css">
	.st0{display:none;}
	.st1{display:inline;fill:#85D0CB;}
	.st2{display:inline;}
	.st3{fill:#FFFFFF;}
	.st4{fill:none;stroke:#000000;stroke-linecap:round;stroke-linejoin:round;stroke-miterlimit:10;}
	.st5{font-family:'CarolGothic';}
	.st6{font-size:62.1064px;}
</style>
<g id="Layer_2" class="st0">
</g>
<g id="Layer_2_copy" class="st0">
</g>
<g id="Layer_1" class="st0">
</g>
<g id="Layer_3">
</g>
<g id="Layer_4">
</g>
<g id="Layer_1_copy">
</g>
<g id="Layer_6">
</g>
<g id="Layer_7">
	<g>
		<path d="M229.94,21.21c1.09-0.94,2.27-1.94,3.44-2.96c1.69-1.48,3.73-2.34,5.75-3.25c0.21-0.1,0.47-0.09,0.7-0.15
			c1.04-0.26,2.11-0.46,3.12-0.82c1.31-0.48,2.66-0.74,4.02-0.84c3.28-0.24,6.55-0.44,9.85-0.27c1.48,0.08,2.99,0.14,4.43-0.46
			c0.42-0.18,0.94-0.19,1.42-0.17c2.78,0.12,5.47,0.63,7.95,1.95c1.37,0.73,2.69,1.55,4.05,2.3c3.32,1.85,5.82,4.56,7.95,7.63
			c0.71,1.02,1.14,2.23,1.82,3.58c0.53,0.23,1.29,0.56,2.06,0.88c1,0.41,1.95,0.92,2.73,1.69c1.91,1.9,3.84,3.78,5.68,5.73
			c1.28,1.36,2.11,3.04,2.9,4.72c0.46,0.97,0.9,1.96,1.18,2.99c0.36,1.32,0.6,2.68,0.8,4.03c0.72,4.8,0.42,9.54-1.09,14.17
			c-0.58,1.77-1.67,3.17-3.39,3.98c-0.93,0.44-1.88,0.78-2.93,0.32c-0.52-0.23-1.05-0.14-1.51,0.24c-0.23,0.19-0.5,0.34-0.77,0.45
			c-1.15,0.44-2.11,0.12-2.92-0.91c-0.37,0.25-0.74,0.44-1.03,0.71c-1.1,1.02-2.37,1.31-3.81,0.97c-0.64-0.15-1.28-0.28-2.03-0.45
			c-0.18,0.31-0.4,0.65-0.57,1.01c-0.62,1.35-1.37,2.53-3.01,2.79c-0.34,0.05-0.65,0.28-1,0.44c-0.51-0.22-0.99-0.44-1.51-0.66
			c-0.36,0.14-0.75,0.31-1.14,0.43c-1.24,0.37-2.04,0.09-2.8-0.96c-0.1-0.15-0.23-0.29-0.29-0.45c-0.59-1.65-1.9-2-3.46-1.92
			c-2.05,0.1-3.82,0.92-5.43,2.13c-1.16,0.87-1.62,2.22-2.05,3.5c-0.6,1.81-1.03,3.68-1.53,5.52c-0.08,0.29-0.09,0.61-0.24,0.85
			c-1.33,2.14-2.13,4.53-3.17,6.81c-0.55,1.21-1.17,2.36-2.04,3.36c-1.64,1.9-3.21,3.87-4.97,5.66c-1.54,1.57-3.28,2.97-5.17,4.13
			c-1.88,1.16-3.77,2.31-5.7,3.4c-1.52,0.86-2.89,1.93-4.22,3.02c-0.99,0.82-1.7,1.98-2.55,2.98c-0.21,0.24-0.49,0.43-0.84,0.73
			c-0.04-0.35-0.13-0.55-0.07-0.67c0.28-0.59,0.54-1.21,0.92-1.74c1.52-2.15,3.01-4.32,4.64-6.38c1.3-1.64,2.88-3.03,4.6-4.24
			c1.72-1.21,3.36-2.5,4.68-4.15c1.49-1.86,2.96-3.75,4.1-5.86c1.36-2.53,1.8-5.3,1.91-8.12c0.04-1.13,0.05-2.28-0.06-3.41
			c-0.18-1.87,0.07-3.71,0.38-5.53c0.17-0.99,0.57-1.94,0.9-2.9c0.21-0.6,0.52-1.17,0.63-2.01c-1.54,0.58-2.92,1.04-4.45,0.52
			c-1.36-0.46-2.8-0.69-3.73-2.13c-0.26,0.38-0.5,0.64-0.62,0.94c-0.91,2.14-1.84,4.28-2.68,6.45c-0.77,2.01-1.73,3.93-2.73,5.83
			c-0.7,1.32-1.36,2.66-2.08,3.96c-0.78,1.41-1.54,2.83-2.45,4.16c-0.87,1.28-1.9,2.46-2.88,3.66c-1.25,1.53-2.52,3.04-3.78,4.56
			c-3.44,4.11-7.36,7.68-11.96,10.47c-1.33,0.81-2.71,1.52-4.06,2.28c-2.65,1.51-5.28,3.05-7.94,4.54c-2.16,1.21-3.97,2.86-5.8,4.5
			c-0.58,0.52-0.83,1.13-0.77,1.91c0.11,1.37,0.09,2.76,0.26,4.12c0.32,2.61,0.74,5.21,1.11,7.81c0.02,0.12,0.04,0.24,0.04,0.36
			c0.09,4.45,1.19,8.76,1.99,13.1c0.68,3.69,1.83,7.3,3.35,10.76c1,2.3,1.93,4.63,3.14,6.83c1.47,2.69,3.17,5.2,5.25,7.45
			c1.01,1.1,2.01,2.21,3.03,3.31c0.34,0.37,0.58,0.75,0.29,1.26c-0.97-0.42-1.05-0.52-4.92-5.05c-1.6-1.87-2.91-3.92-4.14-6.06
			c-1.19-2.06-2.09-4.26-3.1-6.37c-0.62,0.13-0.54,0.49-0.5,0.73c0.1,0.65,0.23,1.29,0.4,1.93c0.89,3.54,1.8,7.06,2.68,10.6
			c0.33,1.33,0.63,2.68,0.88,4.03c0.42,2.3,1.17,4.5,1.93,6.71c0.93,2.71,1.83,5.44,2.7,8.17c0.7,2.22,1.33,4.47,2.19,6.64
			c0.55,1.38,0.97,2.82,1.54,4.2c0.92,2.2,2,4.34,2.85,6.57c0.88,2.31,2.16,4.4,3.37,6.52c2.09,3.68,4.15,7.4,6.89,10.68
			c0.96,1.15,1.85,2.34,2.78,3.51c0.19,0.23,0.43,0.43,0.58,0.68c1.39,2.27,3.29,4.09,5.16,5.94c0.55,0.55,1.08,1.12,1.62,1.68
			c2.25,2.33,4.81,4.3,7.37,6.25c0.62,0.47,1.19,1,1.79,1.49c0.28,0.23,0.54,0.49,0.85,0.66c2.1,1.13,4.16,2.37,6.35,3.33
			c3.83,1.68,7.81,2.91,11.92,3.79c3.23,0.69,6.49,0.97,9.74,1.44c0.71,0.1,1.01,0.3,0.85,0.61c-0.23,0.45-0.61,0.25-0.94,0.22
			c-1.25-0.13-2.49-0.32-3.74-0.42c-5.17-0.38-10.11-1.75-14.96-3.5c-3.17-1.14-6.12-2.7-9.02-4.37c-0.16-0.09-0.32-0.16-0.46-0.27
			c-1.79-1.4-3.58-2.79-5.36-4.21c-0.94-0.74-1.9-1.47-2.76-2.29c-1.35-1.27-2.62-2.62-3.93-3.93c-3.69-3.69-6.86-7.82-9.92-12.02
			c-1.19-1.63-2.43-3.26-3.28-5.12c-0.12-0.26-0.29-0.54-0.77-0.43c0.04,0.57,0.03,1.16,0.14,1.74c0.31,1.7,0.66,3.4,1,5.1
			c0.72,3.63,1.44,7.25,2.18,10.88c0.55,2.69,1.19,5.37,1.65,8.08c0.48,2.83,1.18,5.61,1.93,8.37c0.17,0.63,0.43,1.24,0.63,1.86
			c0.12,0.39,0,0.7-0.38,0.9c-0.56-0.17-0.61-0.7-0.72-1.13c-0.71-2.84-1.48-5.67-2.07-8.54c-1.18-5.74-2.26-11.5-3.39-17.24
			c-0.03-0.17-0.13-0.32-0.25-0.6c-0.21,0.15-0.46,0.22-0.54,0.38c-1.31,2.57-3.04,4.87-4.75,7.16c-1.42,1.91-3.07,3.66-4.82,5.29
			c-0.74,0.69-1.56,1.29-2.33,1.94c-1.28,1.08-2.73,2.01-3.78,3.28c-1.53,1.85-3.65,2.86-5.42,4.35c-0.92,0.77-1.83,1.53-2.57,2.6
			c0.17,1.65,0.43,3.36,0.88,5.02c0.7,2.59,1.52,5.16,2.29,7.73c0.05,0.17,0.14,0.33,0.21,0.49c0.76,2.07,1.57,4.12,2.28,6.21
			c0.75,2.22,1.81,4.29,2.82,6.38c0.99,2.06,2.54,3.76,3.68,5.72c0.42,0.72,0.89,1.41,1.36,2.1c1.41,2.07,2.85,4.09,4.78,5.76
			c3.43,2.96,7.3,5.18,11.41,7.02c1.31,0.58,2.67,1.03,4.01,1.57c0.18,0.07,0.32,0.26,0.64,0.54c-1.13,0.19-1.98,0.11-2.82-0.23
			c-1.66-0.67-3.33-1.33-5-1.99c-0.53-0.21-1.01-0.62-1.78-0.39c0.38,0.36,0.66,0.66,0.97,0.92c0.69,0.57,1.38,1.13,2.09,1.67
			c0.28,0.22,0.6,0.39,0.92,0.56c4.39,2.24,8.95,4,13.9,4.51c0.17,0.02,0.32,0.13,0.47,0.19c0.06,0.45-0.27,0.53-0.54,0.53
			c-0.9,0.03-1.8,0.08-2.69-0.01c-1.72-0.16-3.46-0.3-5.15-0.65c-3.27-0.68-6.59-1.27-9.67-2.62c-3.61-1.58-7.2-3.23-10.71-5.01
			c-2.57-1.3-4.85-3.06-6.87-5.13c-0.79-0.81-1.67-1.54-2.48-2.33c-2.61-2.54-5.24-5.07-7.8-7.66c-0.96-0.97-1.75-2.11-2.6-3.2
			c-1.18-1.51-2.33-3.03-3.5-4.55c-1.85-2.39-3.06-5.12-4.23-7.88c-0.72-1.71-1.3-3.46-1.68-5.28c-0.13-0.64-0.28-1.3-0.53-1.9
			c-0.87-2.07-1.13-4.27-1.47-6.45c-0.39-2.48-0.65-4.98-1.06-7.46c-0.47-2.85-0.42-5.72-0.46-8.59c-0.03-2.21,0.07-4.42,0.38-6.62
			c0.46-3.19,0.79-6.4,1.14-9.61c0.29-2.73,0.48-5.48,0.81-8.2c0.26-2.13,0.31-4.29,0.79-6.4c0.08-0.35,0.09-0.71,0.13-1.07
			c0.34-3.45,0.7-6.89,1-10.34c0.11-1.25,0.07-2.51,0.1-3.77c0.05-1.67,0.12-3.35,0.16-5.02c0-0.15-0.11-0.29-0.17-0.45
			c-0.15,0.08-0.3,0.11-0.33,0.19c-0.9,2.59-1.7,5.23-2.71,7.78c-1.21,3.05-2.66,6-4.54,8.73c-1.73,2.51-3.21,5.16-4.62,7.87
			c-1.44,2.77-2.39,5.73-3.73,8.53c-0.64,1.33-0.98,2.82-1.4,4.25c-0.6,2.06-1.21,4.13-1.72,6.21c-0.74,3.08-1.44,6.17-2.07,9.27
			c-0.38,1.87-0.79,3.75-0.58,5.69c0.03,0.24,0.06,0.49,0.01,0.72c-0.35,1.65,0.19,3.19,0.5,4.77c0.51,2.6,1.45,5.06,2.45,7.48
			c0.91,2.2,2.03,4.33,3.63,6.16c0.74,0.85,1.38,1.8,2.05,2.71c0.47,0.63,1.01,1.16,1.66,1.62c1.36,0.96,2.62,2.09,4.2,2.72
			c0.11,0.04,0.23,0.1,0.3,0.18c0.26,0.28,0.37,0.61,0.21,0.98c-0.14,0.33-0.51,0.46-0.91,0.28c-1.25-0.58-2.49-1.16-3.73-1.75
			c-0.81-0.38-1.6-0.8-2.42-1.17c-0.98-0.45-1.97-0.88-2.74-1.67c-0.11-0.12-0.31-0.14-0.63-0.28c0.04,0.32,0,0.57,0.11,0.72
			c2.26,3.15,4.37,6.42,7.26,9.07c1.58,1.46,3.19,2.88,4.95,4.12c0.1,0.07,0.21,0.12,0.29,0.21c1.38,1.51,3.25,2.38,4.81,3.65
			c0.18,0.15,0.34,0.31,0.64,0.61c-0.9,0.08-1.53-0.18-2.16-0.47c-2.84-1.27-5.59-2.71-8.19-4.44c-0.22-0.15-0.42-0.46-0.77-0.25
			c-0.01,0.06-0.05,0.13-0.03,0.16c0.83,0.93,1.58,1.94,2.5,2.77c1.96,1.76,4.14,3.23,6.38,4.63c1.06,0.66,2.07,1.4,3.02,2.31
			c-0.25-0.04-0.51-0.04-0.74-0.12c-1.88-0.63-3.57-1.65-5.26-2.65c-0.87-0.51-1.69-1.13-2.51-1.72c-0.97-0.7-1.91-1.43-2.87-2.15
			c-1.63-1.23-2.96-2.78-4.45-4.16c-2.09-1.94-3.54-4.33-5.22-6.58c-2.15-2.89-3.78-6.09-5.66-9.14c-1.82-2.97-3.26-6.12-4.66-9.3
			c-0.72-1.64-1.51-3.26-2.19-4.91c-1.2-2.88-1.93-5.9-2.49-8.96c-0.56-3.05-1.05-6.12-1.52-9.19c-0.64-4.2-0.85-8.42-0.82-12.66
			c0-0.65-0.1-1.31-0.15-1.96c-0.02-0.24-0.07-0.48-0.04-0.71c0.26-2.37,0.28-4.76,0.82-7.11c0.68-2.98,1.52-5.89,2.72-8.7
			c0.05-0.11,0.12-0.22,0.13-0.33c0.19-1.39,0.92-2.58,1.35-3.88c1.57-4.77,3.58-9.39,4.79-14.27c0.78-3.13,1.53-6.27,2.13-9.44
			c0.34-1.81,0.43-3.68,0.48-5.53c0.09-3.35,0.08-6.7,0.09-10.05c0.01-1.19-0.04-2.39-0.04-3.58c-0.01-3.78,0.25-7.54,1.29-11.19
			c0.67-2.38,1.11-4.81,1.03-7.24c-0.07-2.29,0.5-4.49,0.49-6.75c0-0.71,0.09-1.45-0.07-2.13c-0.81-3.44-0.65-6.9-0.23-10.35
			c0.13-1.12,0.43-2.23,0.74-3.32c1.05-3.76,2.42-7.38,4.82-10.53c0.88-1.16,1.35-2.48,1.69-3.91c0.8-3.34,2.15-6.45,4.16-9.26
			c0.66-0.92,1.3-1.86,1.98-2.77c0.39-0.52,0.82-1.03,1.3-1.48c2.07-1.93,3.71-4.22,5.39-6.48c1.11-1.5,1.75-3.26,2.17-5.08
			c0.16-0.7,0.34-1.39,0.59-2.06c0.54-1.48,0.54-3.05,0.87-4.57c0.4-1.87,0.74-3.75,1.31-5.57c0.75-2.39,1.72-4.71,2.9-6.93
			c0.25-0.48,0.45-0.99,0.78-1.41c1.28-1.61,2.1-3.47,3.12-5.23c1.42-2.44,3.17-4.63,5.13-6.66c1.07-1.12,2.15-2.22,3.44-3.12
			c0.62-0.43,1.04-1.15,1.63-1.65c1.14-0.96,2.36-1.82,3.49-2.79c1.6-1.36,3.37-2.47,5.22-3.44c1.37-0.72,2.73-1.44,4.24-1.89
			c1.94-0.58,3.83-1.35,5.78-1.9c1.37-0.39,2.8-0.62,4.22-0.78C227.24,21.2,228.56,21.25,229.94,21.21z M237.39,27.03
			c-0.26,0.11-0.52,0.22-0.78,0.33c-0.08,0.06-0.15,0.13-0.23,0.19c0.06,0.02,0.13,0.05,0.19,0.07c0-0.1,0-0.19,0.01-0.28
			c0.32,0.02,0.63,0.01,0.78-0.35c0.34,0.11,0.65,0.1,0.83-0.28c0.3-0.01,0.63,0.05,0.69-0.38c0.35-0.01,0.73,0.06,1.05-0.05
			c1.48-0.5,3-0.72,4.53-0.96c2.5-0.39,4.85,0.01,7.12,1.08c0.65,0.31,1.3,0.61,1.96,0.88c0.87,0.35,0.98,0.29,1.74-0.67
			c-0.48-0.85-1.21-1.46-2.06-1.9c-2.12-1.13-4.38-1.52-6.76-1.15c-2.38,0.37-4.56,1.38-6.82,2.12c-0.33,0.11-0.67,0.28-0.73,0.7
			c-0.32-0.04-0.57,0.05-0.68,0.39C237.89,26.68,237.58,26.69,237.39,27.03z M187.03,72.52c0.46-0.27,0.59-0.62,0.29-1.09
			c0.36,0.11,0.56-0.08,0.71-0.37c0.49-0.95,0.99-1.9,1.47-2.86c0.27-0.53,0.57-1.06,0.77-1.61c0.92-2.58,1.81-5.18,2.72-7.77
			c0.24-0.67,0.46-1.35,0.72-2.02c0.67-1.72,1.45-3.41,2-5.17c0.36-1.17,0.87-2.2,1.62-3.15c0.62-0.8,1.25-1.59,1.57-2.59
			c0.16-0.5,0.45-1.01,0.83-1.37c1.04-0.99,1.82-2.2,2.77-3.25c2.11-2.33,4.28-4.61,6.96-6.37c1.3-0.85,2.55-1.76,3.92-2.49
			c1.58-0.84,3.12-1.8,4.78-2.45c2.36-0.92,4.8-1.64,7.42-2.14c-0.19-0.18-0.3-0.36-0.42-0.38c-0.77-0.11-1.55-0.17-2.31-0.28
			c-1.21-0.17-2.39-0.04-3.55,0.28c-0.63,0.18-1.25,0.42-1.88,0.6c-3.03,0.86-5.71,2.43-8.35,4.07c-0.35,0.22-0.69,0.47-1.01,0.75
			c-1.34,1.19-2.7,2.36-4,3.59c-1.04,0.98-2.1,1.96-2.99,3.08c-2.19,2.76-4.18,5.67-5.67,8.89c-0.2,0.43-0.46,0.84-0.69,1.25
			c-0.37,0.68-0.79,1.34-1.1,2.05c-0.5,1.15-0.99,2.31-1.39,3.49c-0.66,1.97-1.43,3.91-1.82,5.98c-0.36,1.87-0.79,3.73-1.33,5.56
			c-0.47,1.6-1.12,3.15-1.68,4.73c-0.11,0.36-0.22,0.72-0.31,1.08c0,0.1-0.01,0.19-0.01,0.29
			C187.05,72.75,187.04,72.63,187.03,72.52z M207.09,42.78c-0.21-0.03-0.5-0.16-0.63-0.07c-0.46,0.31-0.93,0.66-0.87,1.33
			c-0.64,0.12-0.71,0.22-0.79,1.06c-0.6-0.12-0.84,0.38-1.1,0.73c-0.7,0.95-1.28,2-2.02,2.92c-0.98,1.23-1.48,2.67-2.01,4.11
			c-0.36,0.55-0.36,0.55-0.39,1.18c0.46-0.34,0.42-0.78,0.34-1.23c0.19-0.12,0.45-0.19,0.56-0.36c1.41-2.07,2.81-4.15,4.17-6.25
			c0.22-0.33,0.28-0.76,0.41-1.15c0.26-0.35,0.52-0.7,0.78-1.06c0.51-0.42,1.02-0.83,1.52-1.27c0.14-0.31,0.28-0.63,0.46-1.03
			C206.86,41.97,206.99,42.38,207.09,42.78z M274.75,22.5c-0.06-0.24,0.07-0.61-0.42-0.61c0.17,0.21,0.31,0.39,0.45,0.58
			c0.07,1.06,0.82,1.78,1.35,2.6c0.23,0.36,0.75,0.5,1.32,0.13c-0.2-0.38-0.35-0.75-0.57-1.08
			C276.49,23.54,275.41,22.75,274.75,22.5z M208.92,47.46c-0.37-0.21-0.7-0.13-0.93,0.21c-0.72,1.09-1.43,2.19-2.14,3.29
			c-0.71,1.1-1.51,2.14-2.11,3.3c-1.01,1.95-1.93,3.95-2.81,5.96c-0.86,1.96-1.55,3.99-2.73,5.8c-0.11,0.17-0.07,0.45-0.1,0.68
			c1.14-1.16,2.12-2.36,2.85-3.73c0.73-1.36,1.4-2.76,2.08-4.15c0.84-1.71,1.67-3.42,2.49-5.14c0.67-1.4,1.28-2.82,1.99-4.19
			c0.38-0.73,0.92-1.37,1.38-2.07c0.09-0.3,0.17-0.59,0.29-1.01C208.59,46.73,208.79,47.1,208.92,47.46z M194.59,172.95
			c-0.08,0.3-0.15,0.61-0.23,0.91c0.06,0.01,0.12,0.02,0.18,0.04C194.56,173.58,194.57,173.27,194.59,172.95
			c-0.21-1.54-0.43-3.07-0.62-4.61c-0.31-2.43-0.46-4.87-0.98-7.27c-0.19-0.87-0.28-1.77-0.41-2.66c-0.29-1.95-0.58-3.89-0.87-5.84
			c-0.09-0.59-0.23-1.17-0.27-1.76c-0.17-2.27-0.65-4.49-1.11-6.71c-0.27-1.29-0.5-2.56-0.4-3.89c0.04-0.53,0-1.07-0.03-1.61
			c-0.12-2.15,0.13-4.29,0.23-6.43c0.03-0.65,0.22-1.29,0.31-1.94c0.16-1.18,0.27-2.37,0.44-3.55c0.18-1.3,0.4-2.6,0.59-3.9
			c0.02-0.14-0.09-0.29-0.18-0.56c-0.22,0.26-0.41,0.41-0.5,0.61c-0.7,1.46-1.31,2.95-1.53,4.57c-0.15,1.07-0.23,2.15-0.45,3.2
			c-0.62,3.01-0.75,6.05-0.68,9.11c0.04,1.97,0.17,3.94,0.41,5.89c0.29,2.31,0.77,4.59,1.11,6.89c0.46,3.06,1.07,6.1,1.7,9.13
			c0.75,3.62,2.06,7.1,2.67,10.75C194.06,172.74,194.33,172.84,194.59,172.95z M157.62,216.8c0.6-0.68,0.73-1.23,0.9-1.79
			c0.4-1.37,0.61-2.78,1.28-4.08c0.79-1.53,1.35-3.18,2.03-4.77c0.94-2.19,1.57-4.52,2.9-6.54c0.23-0.35,0.37-0.75,0.54-1.13
			c0.42-0.92,0.84-1.84,1.27-2.76c0.15-0.32,0.39-0.61,0.49-0.95c0.29-0.93,0.82-1.71,1.35-2.51c0.75-1.14,1.56-2.27,1.74-3.7
			c0.05-0.4,0.29-0.78,0.46-1.16c0.92-2,1.86-3.99,2.78-6c0.12-0.26,0.11-0.58,0.21-0.86c0.19-0.56,0.39-1.12,0.61-1.67
			c0.22-0.55,0.53-1.08,0.69-1.65c0.46-1.61,0.87-3.23,1.3-4.84c0.58-2.19,1.16-4.38,1.72-6.58c0.1-0.4,0.12-0.81,0.16-1.22
			c0.03-0.35-0.02-0.71,0.04-1.06c0.59-3.62,0.58-7.25,0.19-10.88c-0.06-0.59-0.03-1.19-0.04-1.79c-0.05-2.99-0.02-5.98-0.17-8.97
			c-0.09-1.8-0.1-3.58,0.09-5.37c0.17-1.66,0.25-3.34,0.52-4.99c0.34-2.12,0.59-4.26,1.41-6.28c1.03-2.56,2.37-4.96,3.73-7.34
			c1.13-1.96,2.33-3.89,3.84-5.6c1.46-1.66,2.78-3.44,4.25-5.09c1.63-1.83,3.36-3.57,5.07-5.33c0.58-0.6,1.2-1.17,1.85-1.69
			c2.23-1.81,4.49-3.58,6.72-5.38c0.6-0.49,1.1-1.12,1.74-1.55c2.78-1.89,5.28-4.13,7.72-6.42c2.1-1.97,3.86-4.25,5.38-6.69
			c0.08-0.14,0.03-0.36,0.06-0.8c-0.55,0.52-0.91,0.83-1.23,1.18c-1.03,1.18-2.18,2.22-3.45,3.12c-0.39,0.28-0.73,0.62-1.1,0.92
			c-1.8,1.48-3.6,2.97-5.41,4.43c-0.84,0.67-1.66,1.39-2.6,1.9c-1.39,0.76-2.54,1.78-3.65,2.87c-0.47,0.46-0.98,0.88-1.49,1.29
			c-1.06,0.88-2.16,1.71-3.19,2.62c-2.73,2.42-5.44,4.86-8.13,7.32c-0.93,0.85-1.86,1.7-2.67,2.66c-3.19,3.81-6.22,7.74-8.19,12.35
			c-0.68,1.59-1.55,3.1-1.88,4.83c-0.22,1.17-0.53,2.33-0.83,3.48c-0.67,2.6-1.29,5.21-1.5,7.91c-0.2,2.56-0.45,5.12-0.26,7.69
			c0.11,1.49,0.2,2.98,0.26,4.46c0.08,2.03,0.12,4.06,0.19,6.09c0.01,0.18,0.02,0.37,0.08,0.53c0.23,0.59,0.12,1.17,0,1.76
			c-0.07,0.35-0.12,0.72-0.09,1.07c0.23,2.15-0.04,4.29-0.07,6.44c-0.01,1.13-0.21,2.25-0.33,3.38c-0.1,0.89-0.2,1.78-0.35,2.66
			c-0.22,1.35-0.44,2.71-0.73,4.05c-0.31,1.4-0.72,2.77-1.09,4.15c-0.06,0.23-0.18,0.44-0.27,0.66c-0.27,0.72-0.53,1.44-0.81,2.16
			c-0.32,0.83-0.61,1.68-0.97,2.49c-1.14,2.57-2.46,5.04-3.77,7.52c-0.75,1.42-1.38,2.92-2.16,4.32c-1.31,2.36-2.22,4.89-3.24,7.37
			c-1.3,3.15-2.27,6.41-3.12,9.71c-0.27,1.04-0.55,2.08-0.81,3.12C157.54,216.09,157.6,216.3,157.62,216.8z M192.66,194.52
			c-0.08,0.89-0.13,1.78-0.23,2.66c-0.51,4.45-1.04,8.89-1.56,13.34c-0.17,1.42-0.32,2.84-0.52,4.26c-0.09,0.65-0.29,1.28-0.37,1.93
			c-0.37,2.9-0.73,5.79-1.05,8.7c-0.43,3.86-0.8,7.73-0.8,11.62c0,2.69,0.18,5.37,0.62,8.02c0.48,2.89,1.07,5.75,1.57,8.64
			c0.71,4.07,2.06,7.97,3.25,11.91c0.63,2.07,1.66,3.96,2.56,5.91c0.35,0.76,0.74,1.5,1.1,2.25c0.89,1.84,2.07,3.48,3.21,5.16
			c2.5,3.66,5.23,7.12,8.39,10.23c0.67,0.66,1.52,1.14,2.31,1.67c0.16,0.11,0.4,0.09,0.7,0.14c-0.17-0.9-0.67-1.4-1.14-1.93
			c-1-1.11-2.03-2.18-2.69-3.55c-0.26-0.53-0.67-0.99-1.01-1.48c-1.19-1.71-2.43-3.4-3.57-5.15c-0.88-1.35-1.64-2.76-2.44-4.16
			c-0.18-0.31-0.3-0.65-0.43-0.98c-1.3-3.33-2.64-6.65-3.89-10.01c-0.77-2.07-1.49-4.16-2.09-6.28c-1.01-3.56-1.73-7.2-2.27-10.86
			c-0.66-4.5-0.92-9.03-0.73-13.58c0.08-1.79,0.17-3.58,0.4-5.35c0.19-1.41,0.48-2.81,0.61-4.24c0.41-4.4,0.71-8.81,0.77-13.24
			C193.43,204.95,193.25,199.77,192.66,194.52z M196.97,158.54c0,0.71-0.06,1.24,0.01,1.74c0.45,3.25,0.97,6.49,1.4,9.74
			c0.39,3.01,0.74,6.04,1.02,9.06c0.2,2.19,0.57,4.37,0.49,6.59c-0.04,1.25,0.09,2.5,0.09,3.76c0,1.85-0.12,3.7-0.07,5.55
			c0.08,2.99-0.07,5.96-0.41,8.93c-0.05,0.41-0.12,0.83-0.1,1.24c0.1,2.65-0.27,5.23-1.02,7.77c-0.2,0.68-0.34,1.39-0.44,2.1
			c-0.31,2.19-0.53,4.39-0.9,6.56c-0.6,3.53-1.24,7.05-1.31,10.65c-0.04,2.03-0.13,4.06-0.07,6.09c0.05,1.96,0.26,3.91,0.41,5.87
			c0.07,0.87,0.18,1.74,0.59,2.59c1.21-0.39,2.02-1.13,2.77-1.92c-0.8-2.06-1.22-4.11-1.4-6.2c-0.35-4.24-0.18-8.48,0.48-12.69
			c0.65-4.13,1.38-8.24,2.01-12.37c0.54-3.54,1.01-7.1,1.11-10.69c0.04-1.43,0.12-2.87,0.37-4.27c0.48-2.72,0.46-5.46,0.53-8.2
			c0.09-3.3-0.43-6.55-0.7-9.82c-0.09-1.07-0.33-2.12-0.52-3.18c-0.41-2.35-0.87-4.68-1.24-7.04c-0.42-2.71-0.77-5.44-1.54-8.08
			C198.15,161.08,197.89,159.78,196.97,158.54z M172.01,130.19c-0.11,0-0.21-0.01-0.32-0.01c-0.21,0.67-0.41,1.35-0.65,2.01
			c-1.21,3.41-1.72,6.96-1.87,10.55c-0.17,4.31,0.14,8.61,0.42,12.9c0.31,4.79,0.29,9.55-0.56,14.29
			c-0.88,4.87-2.59,9.42-4.96,13.76c-1.69,3.08-3.76,5.96-5,9.28c-0.04,0.11-0.11,0.21-0.15,0.32c-0.4,0.93-0.86,1.84-1.2,2.79
			c-0.84,2.36-1.62,4.75-2.43,7.12c-1.18,3.46-1.94,7.02-2.35,10.65c-0.18,1.6-0.4,3.19-0.61,4.79c-0.1,0.8-0.04,1.53,0.25,2.49
			c0.42-1.29,0.72-2.55,0.85-3.86c0.09-0.94,0.37-1.87,0.59-2.8c0.17-0.7,0.39-1.38,0.57-2.07c0.41-1.61,0.67-3.26,1.5-4.74
			c0.2-0.36,0.29-0.78,0.4-1.19c0.84-3.23,2.14-6.29,3.4-9.36c0.57-1.37,1.32-2.67,2-4c0.88-1.69,1.74-3.4,2.68-5.06
			c0.74-1.3,1.44-2.61,1.87-4.05c0.19-0.63,0.41-1.25,0.72-1.83c1.17-2.17,1.72-4.56,2.52-6.87c0.06-0.17,0.12-0.34,0.15-0.52
			c0.4-2.78,0.83-5.55,1.17-8.33c0.38-3.09,0.47-6.2,0.2-9.31c-0.04-0.47-0.02-0.96,0.02-1.43c0.27-3.17,0.14-6.33-0.12-9.49
			c-0.16-1.97-0.15-3.94,0.1-5.91c0.22-1.72,0.34-3.45,0.46-5.18c0.1-1.42-0.03-2.86,0.33-4.26
			C172.06,130.66,172.01,130.42,172.01,130.19z M289.99,39.93c0.23-0.52-0.07-0.79-0.27-1.05c-0.95-1.24-1.94-2.45-3.26-3.31
			c-2.05-1.34-4.13-2.64-6.22-3.93c-0.61-0.37-1.26-0.75-1.94-0.92c-1.85-0.46-3.72-0.96-5.61-1.18c-2.61-0.3-5.25-0.43-7.88-0.48
			c-1.24-0.02-2.52,0.18-3.72,0.5c-2.37,0.62-4.7,1.38-7.03,2.12c-0.68,0.21-1.35,0.49-1.97,0.85c-1.49,0.88-2.99,1.77-4.4,2.77
			c-1.7,1.21-3.42,2.4-4.86,3.95c-1.7,1.84-3.49,3.61-4.58,5.92c-0.12,0.25-0.2,0.51-0.44,1.15c0.6-0.42,0.89-0.59,1.13-0.81
			c0.95-0.9,1.92-1.78,2.83-2.73c2.25-2.34,4.7-4.4,7.6-5.9c1.75-0.9,3.47-1.86,5.14-2.9c0.77-0.48,1.54-0.98,2.42-1.13
			c1.92-0.34,3.85-0.68,5.77-1.03c0.06-0.01,0.12,0,0.18,0c1.25-0.11,2.5-0.2,3.75-0.35c2.22-0.28,4.41-0.23,6.58,0.35
			c1.67,0.45,3.33,0.94,5.02,1.27c1.91,0.38,3.64,1.11,5.25,2.17c0.2,0.13,0.41,0.25,0.61,0.38c1.24,0.81,2.56,1.5,3.63,2.59
			C288.37,38.9,289.22,39.36,289.99,39.93z M187.23,259.82c0.47-0.7,0.06-1.28-0.05-1.9c-0.65-3.58-1.36-7.16-1.99-10.74
			c-0.35-2-0.72-4.01-0.79-6.03c-0.1-2.97-0.51-5.97,0.11-8.94c0.04-0.17,0.01-0.36,0.02-0.54c0.07-1.37,0.08-2.75,0.22-4.12
			c0.27-2.61,0.61-5.22,0.93-7.82c0.07-0.59,0.17-1.18,0.27-1.77c0.22-1.35,0.62-2.69,0.65-4.05c0.08-3.23,0.59-6.4,1-9.58
			c0.58-4.52,0.74-9.05,0.69-13.59c-0.01-0.57-0.09-1.14-0.14-1.82c-0.15,0.21-0.25,0.29-0.27,0.39c-0.55,2.63-1.2,5.24-1.62,7.89
			c-0.54,3.36-0.96,6.74-1.3,10.12c-0.41,4.09-0.69,8.2-1.04,12.3c-0.04,0.53-0.16,1.06-0.24,1.59c-0.29,2.01-0.73,4-0.82,6.02
			c-0.16,3.51-0.14,7.04,0.1,10.55c0.07,1.07,0.04,2.16,0.24,3.21c0.77,3.92,1.18,7.9,2.2,11.77
			C186.02,255.12,186.62,257.47,187.23,259.82z M225.85,51.36c-0.77,1.44-1.38,2.66-2.06,3.84c-0.71,1.23-1.14,2.58-1.74,3.85
			c-0.99,2.11-2.08,4.15-3.43,6.05c-0.41,0.58-0.83,1.17-1.33,1.67c-0.79,0.81-1.73,1.48-2.16,2.6c-0.06,0.16-0.21,0.29-0.34,0.4
			c-1.98,1.72-3.9,3.52-5.98,5.12c-2.88,2.23-5.88,4.31-8.83,6.44c-2.82,2.03-5.56,4.17-7.94,6.7c-2,2.13-3.84,4.41-5.74,6.64
			c-0.52,0.62-0.99,1.28-1.48,1.92c0.33,0.06,0.53-0.03,0.68-0.16c1.66-1.54,3.33-3.08,4.98-4.64c0.87-0.82,1.62-1.77,2.57-2.47
			c2.44-1.82,4.68-3.89,7.05-5.79c0.79-0.64,1.6-1.27,2.48-1.77c2.1-1.18,3.98-2.64,5.81-4.17c2.05-1.73,3.99-3.58,6.07-5.28
			c1.91-1.56,3.44-3.49,5.26-5.13c0.21-0.19,0.34-0.49,0.51-0.73c1.73-2.59,2.94-5.44,4.16-8.28c0.8-1.87,1.22-3.87,1.57-5.87
			C225.96,52.08,225.9,51.86,225.85,51.36z M181.89,171.77c-0.24,0.61-0.41,0.91-0.49,1.24c-0.59,2.62-1.18,5.24-2.22,7.73
			c-0.37,0.88-0.62,1.81-0.93,2.71c-0.21,0.62-0.42,1.24-0.66,1.85c-1.04,2.68-2.53,5.15-3.81,7.71c-0.72,1.44-1.46,2.89-2.33,4.24
			c-1.24,1.91-2.45,3.82-3.48,5.86c-1.05,2.08-2.31,4.05-3.09,6.26c-0.47,1.35-1.04,2.67-1.56,4c-0.17,0.45-0.34,0.89-0.47,1.35
			c-0.39,1.38-0.74,2.77-1.12,4.15c-1.1,3.98-2.08,7.98-2.21,12.14c-0.03,0.83-0.21,1.65-0.3,2.48c-0.04,0.38-0.01,0.78-0.01,1.16
			c0.25-0.32,0.35-0.66,0.4-1c0.12-0.89,0.09-1.82,0.36-2.66c0.77-2.34,1.16-4.75,1.63-7.16c0.09-0.47,0.23-0.93,0.38-1.38
			c0.73-2.21,1.31-4.46,2.18-6.64c1-2.49,1.81-5.04,3.05-7.45c2.1-4.09,4.18-8.2,6.57-12.13c2.12-3.48,3.75-7.21,5.43-10.91
			c0.15-0.33,0.26-0.67,0.34-1.02c0.72-2.96,1.45-5.92,2.14-8.89c0.2-0.87,0.27-1.77,0.38-2.66
			C182.1,172.55,182,172.32,181.89,171.77z M292.42,52.14c-0.1-0.55-0.11-0.9-0.23-1.2c-1.6-3.88-4.02-7.16-7.18-9.9
			c-0.77-0.67-1.55-1.29-2.5-1.7c-0.49-0.21-0.92-0.55-1.37-0.83c-0.35-0.22-0.69-0.48-1.07-0.64c-3.43-1.44-7-2.31-10.69-2.75
			c-0.92-0.11-1.79,0.21-2.67,0.16c-1.65-0.11-3.22,0.29-4.77,0.7c-2.14,0.56-4.27,1.18-6.13,2.45c-0.18,0.12-0.44,0.21-0.3,0.64
			c0.2-0.06,0.43-0.09,0.62-0.19c0.69-0.38,1.38-0.69,2.2-0.61c0.23,0.02,0.48-0.03,0.7-0.11c2.4-0.86,4.92-0.94,7.41-1.12
			c1.54-0.11,3.09-0.34,4.63,0.08c0.75,0.2,1.54,0.22,2.29,0.41c1.38,0.33,2.78,0.6,4.05,1.34c1.02,0.6,2.07,1.25,3.28,1.39
			c1.32,0.16,2.35,0.8,3.27,1.68c0.94,0.9,1.89,1.79,2.83,2.69c0.25,0.25,0.49,0.52,0.69,0.81c1.44,2.12,2.87,4.25,4.31,6.37
			C291.86,51.89,292,51.92,292.42,52.14z M225.18,83.58c-0.08,0.02-0.16,0.01-0.19,0.04c-0.27,0.32-0.56,0.62-0.8,0.96
			c-2.05,2.91-4.66,5.28-7.4,7.48c-3.54,2.83-7.2,5.51-10.87,8.18c-2.18,1.59-4.2,3.35-6.23,5.11c-0.3,0.26-0.6,0.51-0.62,1.19
			c0.56-0.39,0.94-0.64,1.3-0.92c0.43-0.33,0.8-0.72,1.26-1.01c2.78-1.75,5.58-3.45,8.35-5.21c1.76-1.12,3.53-2.23,5.12-3.6
			c1.67-1.45,3.19-3.05,4.75-4.6c1.97-1.96,3.58-4.15,5-6.51C225.05,84.36,225.4,84.05,225.18,83.58z M263.36,24.42
			c-0.66-1.06-1.58-1.89-2.6-2.62c-0.97-0.69-2.01-1.3-2.96-2.02c-1.38-1.05-2.96-1.58-4.62-1.82c-1.99-0.28-4.01-0.6-6,0.07
			c-2.9,0.16-5.35,1.58-7.86,2.83c-0.19,0.1-0.34,0.29-0.78,0.66c0.79-0.08,1.21-0.18,1.63-0.43c0.46-0.27,0.95-0.51,1.45-0.69
			c2.27-0.84,4.65-1.09,7.04-1.12c1.18-0.01,2.39,0.14,3.54,0.42c1.21,0.29,2.37,0.82,3.55,1.26c1.43,0.54,2.62,1.4,3.55,2.63
			c0.39,0.52,0.85,0.98,1.32,1.51C261.5,24.87,262.54,25.35,263.36,24.42z M191.24,80.34c-1.97,1.59-3.79,3.11-5.36,4.91
			c-0.94,1.08-1.81,2.22-2.75,3.29c-2.25,2.55-4.19,5.35-6.19,8.09c-0.66,0.91-1.19,1.92-1.78,2.89c-0.31,0.51-0.62,1.02-0.94,1.52
			c-1.01,1.55-2.15,3.02-2.75,4.8c-0.07,0.22-0.03,0.47-0.06,1.02c0.44-0.52,0.68-0.78,0.88-1.07c1.84-2.57,3.67-5.15,5.5-7.73
			c0.42-0.58,0.86-1.15,1.26-1.74c1.1-1.63,2.18-3.27,3.28-4.9c0.17-0.25,0.38-0.46,0.57-0.68c0.51-0.58,1.03-1.15,1.54-1.72
			c1.3-1.47,2.59-2.96,3.9-4.43c0.87-0.98,1.76-1.94,2.64-2.91C191.28,81.36,191.5,81.02,191.24,80.34z M205.1,216.51
			c-0.09-0.01-0.17-0.02-0.26-0.03c-0.06,0.21-0.15,0.41-0.18,0.63c-0.56,3.17-1.12,6.34-1.32,9.56c-0.08,1.31-0.08,2.63-0.22,3.93
			c-0.22,2.04,0.05,4.05,0.23,6.07c0.08,0.88,0.37,1.75,0.64,2.6c0.11,0.36,0.41,0.66,0.66,1.04c0.85-0.45,1.44-0.99,1.84-1.74
			c-0.17-0.68-0.27-1.33-0.49-1.94c-1.19-3.19-1.44-6.51-1.31-9.87c0.12-2.98,0.33-5.96,0.49-8.94
			C205.18,217.39,205.12,216.95,205.1,216.51z M232.38,45.83c0.19-0.35,0.38-0.7,0.57-1.05c1.06-1.93,2.07-3.9,3.21-5.78
			c1.63-2.7,3.92-4.77,6.57-6.47c0.96-0.62,1.97-1.11,3.1-1.34c0.43-0.09,0.97-0.14,1.03-0.87c-1.57-0.24-3.06-0.03-4.53,0.51
			c-1.73,0.63-3.11,1.74-4.4,3c-2.63,2.56-4.3,5.68-5.38,9.15C232.27,43.87,232.08,44.8,232.38,45.83z M206.31,84.28
			c-0.73,0.41-1.47,0.79-2.18,1.23c-0.51,0.31-1,0.66-1.46,1.03c-2.14,1.71-4.34,3.36-6.36,5.23c-1.88,1.74-3.79,3.45-5.66,5.21
			c-1.39,1.31-2.7,2.7-4.08,4.01c-1.77,1.69-3.5,3.42-5.02,5.35c-0.51,0.65-1.09,1.25-1.63,1.88c-0.43,0.5-0.72,1.05-0.82,1.94
			c0.74-0.39,1.05-0.88,1.39-1.33c1.36-1.82,2.92-3.46,4.54-5.04c0.55-0.54,1.13-1.06,1.65-1.62c1.47-1.57,2.91-3.15,4.71-4.38
			c0.87-0.6,1.59-1.43,2.35-2.19c0.63-0.63,1.18-1.35,1.85-1.94c1.33-1.19,2.69-2.36,4.1-3.48c1.54-1.22,3.14-2.36,4.71-3.56
			C205.19,86.01,205.98,85.39,206.31,84.28z M163.57,170.7c0.21-0.53,0.37-0.84,0.45-1.17c0.1-0.4,0.16-0.82,0.17-1.24
			c0.03-1.55,0.46-3.08,0.14-4.64c-0.02-0.11-0.03-0.24,0-0.36c0.58-2.43,0.23-4.88,0.23-7.33c0-2.5-0.16-5.01-0.19-7.51
			c-0.01-1.07,0.17-2.14,0.16-3.21c-0.01-2.15-0.02-4.3,0.31-6.44c0.03-0.17-0.1-0.37-0.22-0.76c-0.18,0.37-0.3,0.51-0.32,0.67
			c-0.17,1.24-0.35,2.48-0.49,3.73c-0.31,2.73-0.73,5.45-0.66,8.21c0.03,1.31,0.11,2.62,0.14,3.93c0.06,2.69,0.11,5.37,0.15,8.06
			c0.02,1.67-0.01,3.34,0,5.01C163.43,168.6,163.22,169.54,163.57,170.7z M257.04,73.54c0.15-0.08,0.33-0.12,0.34-0.19
			c0.23-1.26,0.87-2.34,1.48-3.43c1.01-1.81,2.48-3.18,4.26-4.23c0.74-0.43,1.54-0.62,2.4-0.54c1.31,0.11,2.61,0.23,3.83,0.78
			c0.2,0.09,0.42,0.11,1.03,0.27c-1.16-1.53-2.19-2.45-3.84-2.49c-1.89-0.05-3.69,0.34-5.4,1.05c-0.63,0.26-1.23,0.74-1.7,1.26
			c-1.09,1.21-1.73,2.72-2.22,4.24C256.9,71.29,256.68,72.41,257.04,73.54z M208.55,58.68c1.56-1.25,2.72-2.83,3.78-4.46
			c0.84-1.3,1.71-2.56,2.62-3.81c0.59-0.81,1.14-1.67,1.57-2.57c0.48-0.99,0.82-2.05,1.22-3.09c-0.37-0.16-0.55,0.17-0.7,0.36
			c-0.71,0.89-1.55,1.63-2.36,2.42c-0.47,0.45-0.89,0.97-1.23,1.52c-0.79,1.26-1.45,2.59-2.28,3.83
			C209.98,54.65,209.45,56.74,208.55,58.68z M210.02,216.19c-0.14,0.2-0.24,0.27-0.24,0.36c-0.02,0.3-0.04,0.6-0.01,0.89
			c0.24,3.04,0.61,6.07,1.47,9c0.27,0.91,0.61,1.82,1.04,2.67c0.34,0.68,0.84,1.3,1.34,1.88c0.13,0.15,0.64,0.2,0.79,0.08
			c0.63-0.53,1.3-1.08,1.29-2c-0.08-0.14-0.13-0.25-0.2-0.34c-0.12-0.13-0.25-0.26-0.39-0.36c-1.31-0.94-2.13-2.24-2.77-3.68
			c-0.78-1.76-1.31-3.59-1.7-5.47c-0.1-0.47-0.2-0.93-0.3-1.4C210.23,217.31,210.14,216.8,210.02,216.19z M210.29,235.49
			c-0.44-0.69-0.84-1.27-1.18-1.89c-0.31-0.57-0.55-1.18-0.82-1.77c-0.29-0.65-0.61-1.29-0.85-1.96c-0.22-0.61-0.34-1.26-0.51-1.89
			c-0.17-0.65-0.06-1.39-0.73-2.12c-0.06,0.55-0.15,0.89-0.14,1.23c0.04,1.01,0.12,2.02,0.16,3.03c0.07,1.56,0.4,3.07,1.04,4.49
			c0.35,0.79,0.7,1.65,1.73,2.08C209.4,236.32,209.82,235.93,210.29,235.49z M248.71,49.6c0.17,0.06,0.24,0.11,0.26,0.09
			c0.26-0.23,0.55-0.44,0.77-0.7c2.15-2.66,4.97-4.42,7.97-5.91c1.46-0.73,3.07-0.95,4.63-1.32c0.37-0.09,0.83-0.05,1.03-0.65
			c-1.77,0.12-3.47,0.35-5.14,0.74c-0.34,0.08-0.68,0.23-0.99,0.4c-1.46,0.8-2.95,1.56-4.37,2.43
			C250.95,45.83,249.8,47.68,248.71,49.6z M274.88,67.72c0.94-1.31,1.11-1.91,0.85-3.06c-0.1-0.46-0.33-0.9-0.41-1.36
			c-0.19-1.09-0.88-1.81-1.72-2.39c-0.63-0.44-1.34-0.78-2.03-1.11c-0.36-0.17-0.78-0.3-1.23,0.13c0.39,0.36,0.78,0.7,1.15,1.07
			c1.6,1.58,2.86,3.34,3.16,5.65C274.68,66.98,274.78,67.3,274.88,67.72z M258.32,57.37c0.75,0.04,1.19-0.36,1.7-0.78
			c0.11-1.93-0.24-3.77-1.36-5.4c-0.39-0.57-0.84-1.1-1.71-1.21c0.01,0.96,0.26,1.76,0.56,2.52c0.48,1.18,0.67,2.4,0.67,3.67
			C258.18,56.55,258.27,56.96,258.32,57.37z M265.95,55.38c-0.03-1.95-0.8-3.44-1.65-4.88c-0.28-0.48-0.87-0.78-1.34-1.13
			c-0.1-0.07-0.31,0.03-0.59,0.06c1.07,1.92,0.98,4.02,1.29,6.16C264.44,55.52,265.13,55.46,265.95,55.38z M217.84,223.89
			c0.06-0.09,0.13-0.16,0.12-0.19c-0.36-0.87-0.76-1.73-1.08-2.61c-0.97-2.75-1.62-5.59-2.24-8.43c-0.01-0.05-0.06-0.1-0.11-0.13
			c-0.05-0.03-0.11-0.03-0.27-0.07c0.07,0.6,0.17,1.17,0.2,1.73c0.14,2.39,0.85,4.66,1.44,6.96c0.26,0.99,0.81,1.85,1.5,2.6
			C217.5,223.86,217.71,223.85,217.84,223.89z M276.03,52.53c0.07,0.22,0.13,0.45,0.23,0.66c0.92,2,1.57,4.09,2.08,6.23
			c0.16,0.65,0.38,1.24,0.74,1.78c0.12,0.19,0.22,0.43,0.51,0.23C279.4,57.65,278.16,54.36,276.03,52.53z M286.88,61.47
			c0.26-1.45,0.2-2.85-0.28-4.24c-0.76-2.23-2.13-4.13-3.36-6.1c-0.16-0.25-0.37-0.57-0.92-0.47c0.97,1.8,1.92,3.51,2.81,5.24
			C286.03,57.65,286.51,59.54,286.88,61.47z M270.68,24.51c-0.59-1.32-1.11-2.31-2.01-3.02c-0.69-0.55-1.44-1.04-2.18-1.53
			c-0.14-0.09-0.38-0.04-0.68-0.06c1,1.51,1.9,2.89,2.93,4.45C269.17,24.38,269.8,24.44,270.68,24.51z M283.73,56.55
			c-0.12,0.05-0.24,0.09-0.36,0.14c0.28,1.5,0.73,2.98,0.66,4.54c-0.07,1.49-0.05,2.99-0.07,4.64c0.28-0.24,0.45-0.32,0.52-0.46
			c0.68-1.3,0.96-2.69,0.64-4.14c-0.28-1.27-0.61-2.54-0.95-3.8C284.08,57.14,283.88,56.85,283.73,56.55z M270.22,52.25
			c0.43,1.47,0.86,2.94,1.3,4.4c0.02,0.06,0.19,0.08,0.34,0.13c0.08-0.13,0.25-0.29,0.23-0.42c-0.14-0.76-0.28-1.52-0.5-2.26
			C271.37,53.36,270.97,52.7,270.22,52.25z M248.99,58.46c-0.18,0.09-0.26,0.11-0.27,0.15c-0.26,1.15-0.39,2.33-0.99,3.38
			c-0.05,0.09-0.08,0.26-0.03,0.34c0.11,0.18,0.26,0.35,0.44,0.47c0.03,0.02,0.32-0.18,0.35-0.3c0.19-0.87,0.36-1.73,0.49-2.61
			C249.04,59.44,248.99,58.98,248.99,58.46z M254.13,57.57c-0.16,1.25-0.28,2.18-0.38,3.12c0,0.03,0.08,0.08,0.13,0.12
			C254.45,60.15,254.49,59.81,254.13,57.57z M210.69,44.82c-0.02-0.05-0.03-0.09-0.05-0.14c-0.09,0.05-0.19,0.08-0.26,0.15
			c-0.03,0.03,0.04,0.14,0.06,0.21C210.53,44.96,210.61,44.89,210.69,44.82z"/>
		<path d="M296.57,202.08c-0.93,0.66-1.54,0.39-2.03,0.16c-0.72-0.33-1.28-0.16-1.83,0.25c-1.86,1.4-3.8,2.69-5.35,4.47
			c-1.77,2.05-3.83,3.78-6.16,5.16c-1.07,0.63-2.2,1.22-3.37,1.64c-1.9,0.69-3.84,1.3-5.8,1.81c-2.46,0.64-5,0.55-7.48,0.19
			c-2.72-0.4-5.35-1.19-7.89-2.31c-1.72-0.76-3.18-1.89-4.67-2.98c-2.17-1.59-4.34-3.17-6.73-4.42c-0.79-0.41-1.6-0.8-2.39-0.87
			c-0.81,0.41-0.68,1.23-1.1,1.71c-0.13,0.15-0.42,0.31-0.58,0.26c-0.17-0.05-0.3-0.32-0.41-0.51c-0.05-0.09-0.02-0.24,0.02-0.35
			c0.35-1.01,0.19-2-0.13-2.98c-0.04-0.11-0.08-0.23-0.09-0.34c-0.05-0.41,0.3-0.87,0.73-0.82c1.56,0.17,2.75-0.63,3.95-1.42
			c0.35-0.23,0.69-0.48,1-0.75c2.5-2.11,5.4-3.49,8.41-4.69c1.39-0.56,2.79-1.04,4.27-1.31c1.01-0.19,1.88-0.11,2.64,0.65
			c0.46,0.46,1,0.85,1.49,1.29c2.14,1.93,4.77,1.43,6.68-0.14c0.18-0.15,0.34-0.34,0.49-0.52c1.82-2.23,4.22-2.75,6.93-2.35
			c2.44,0.36,4.76,1.1,7,2.14c2.11,0.98,4.22,1.96,6.34,2.92c0.54,0.25,1.11,0.47,1.68,0.61c0.57,0.14,1.17,0.17,1.88,0.27
			C294.72,199.92,295.1,201.3,296.57,202.08z M284.79,204.96c-0.2-0.26-0.26-0.37-0.35-0.44c-0.14-0.11-0.29-0.22-0.46-0.28
			c-2.51-0.89-5.04-0.83-7.55-0.04c-0.43,0.14-0.84,0.46-1.18,0.78c-0.63,0.6-0.6,1.26,0,1.87c0.75,0.75,1.66,1.18,2.71,1.25
			c0.83,0.05,1.69,0.08,2.5-0.04C282.4,207.78,283.91,206.84,284.79,204.96z M256.59,204.68c-0.59,0.05-1.19,0.04-1.78,0.15
			c-0.7,0.13-1.39,0.33-1.93,0.86c-0.46,0.45-0.53,0.97-0.05,1.39c0.44,0.38,0.93,0.79,1.47,0.96c1.94,0.63,3.94,0.89,5.99,0.73
			c0.47-0.04,0.94-0.16,1.39-0.31c0.78-0.26,1.32-0.94,1.27-1.55c-0.05-0.71-0.6-0.96-1.16-1.22
			C260.14,204.95,258.4,204.66,256.59,204.68z M276.58,198.68c0.73-0.09,1.57-0.13,2.37-0.31c0.57-0.13,1.11-0.41,1.62-0.71
			c0.47-0.28,0.57-0.72,0.39-1.25c-0.29-0.83-0.77-1.49-1.65-1.73c-1.86-0.51-3.75-0.61-5.64-0.2c-0.44,0.1-0.87,0.38-1.25,0.65
			c-0.48,0.35-0.6,0.94-0.34,1.44c0.45,0.88,1.1,1.57,2.11,1.77C274.93,198.49,275.7,198.55,276.58,198.68z M260.99,213.42
			c0.4,0.26,0.52,0.39,0.67,0.43c1.73,0.51,3.52,0.6,5.29,0.73c1.66,0.12,3.33,0.07,4.98-0.32c0.92-0.22,1.6-0.79,2.23-1.4
			c0.66-0.63,0.26-1.55-0.67-1.68c-0.84-0.12-1.7-0.08-2.42,0.39c-0.72,0.47-1.54,0.62-2.29,0.96c-2.08,0.94-4.24,1.1-6.47,0.89
			C261.97,213.4,261.62,213.42,260.99,213.42z M259.48,198.84c0.14-0.01,0.56-0.05,0.97-0.1c0.17-0.02,0.35-0.07,0.51-0.14
			c0.71-0.3,1.22-1.22,0.86-1.72c-0.56-0.78-1.27-1.48-2.31-1.48c-1.14,0.01-2.24,0.3-3.24,0.85c-0.77,0.42-0.77,1.14-0.07,1.72
			C257.08,198.7,258.11,198.87,259.48,198.84z M271.44,204.28c-0.17-0.08-0.22-0.14-0.27-0.13c-2.29,0.1-4.51-0.25-6.68-0.97
			c-0.33-0.11-0.71-0.13-1.05-0.09c-0.19,0.02-0.45,0.25-0.48,0.42c-0.03,0.16,0.16,0.43,0.33,0.55c0.24,0.16,0.54,0.25,0.82,0.33
			c2.29,0.63,4.59,0.64,6.9,0.13C271.12,204.51,271.21,204.42,271.44,204.28z"/>
		<path d="M241.32,116.19c0.03-0.51,0.07-1.02,0.11-1.61c1.5,0.26,2.18,1.56,3.3,2.18c0.6-0.55,0.14-1.32,0.56-1.93
			c0.81-0.04,1.4,0.45,1.88,1.05c0.53,0.65,0.98,1.35,1.48,2.03c0.27,0.37,0.56,0.73,0.96,1.26c0.18-0.51,0.33-0.82,0.39-1.14
			c0.1-0.53,0.11-1.07,0.2-1.59c0.02-0.13,0.24-0.3,0.38-0.32c0.15-0.02,0.35,0.09,0.47,0.2c0.12,0.11,0.23,0.29,0.27,0.45
			c0.76,3.69,1.39,7.39,1.35,11.17c0,0.17-0.07,0.34-0.12,0.58c-0.22,0.04-0.46,0.17-0.66,0.12c-1.1-0.24-2.19-0.45-3.26-0.87
			c-2.83-1.13-5.72-2.08-8.68-2.82c-2.72-0.68-5.4-1.54-8.13-2.18c-3.61-0.84-7.22-1.74-10.87-2.26c-3.78-0.54-7.6-0.93-11.44-0.87
			c-2.03,0.03-4.07-0.06-6.1-0.04c-0.77,0.01-1.54,0.16-2.31,0.25c-0.77,0.08-1.54,0.17-2.32,0.23c-0.23,0.02-0.53,0.02-0.69-0.11
			c-0.21-0.16-0.39-0.45-0.43-0.71c-0.03-0.16,0.19-0.46,0.37-0.53c1.54-0.64,3.07-1.34,4.65-1.85c1.41-0.46,2.89-0.71,4.35-1.03
			c2.56-0.57,5.11-1.22,7.7-1.64c2.47-0.4,4.99-0.55,7.5-0.5c0.83,0.02,1.67-0.01,2.5-0.02c2.27-0.02,4.54,0.16,6.79,0.41
			c0.95,0.1,1.9,0.17,2.85,0.27c1.48,0.15,2.97,0.28,4.45,0.47c0.38,0.05,0.76,0.3,1.1,0.51
			C240.38,115.61,240.62,116.19,241.32,116.19z"/>
		<path d="M207.53,127.61c-1.34-0.94-3.18-0.84-4.28-2.47c0.5,0.02,0.82-0.04,1.06,0.07c1.35,0.58,2.78,0.68,4.2,0.8
			c1.43,0.12,2.86,0.17,4.3,0.24c0.3,0.01,0.61,0.04,0.9-0.02c1.48-0.31,2.96-0.4,4.45-0.13c2.57-0.52,5.12,0.22,7.69,0.12
			c1.49-0.06,2.99,0.02,4.48,0.01c2.3-0.02,4.52,0.46,6.67,1.22c2.7,0.95,5.4,1.93,8.07,2.95c2.69,1.03,5.13,2.56,7.58,4.05
			c0.1,0.06,0.24,0.12,0.28,0.21c0.1,0.2,0.21,0.42,0.22,0.64c0,0.21-0.48,0.24-0.77,0.07c-1.07-0.65-2.14-1.3-3.22-1.94
			c-0.23-0.14-0.52-0.19-0.99-0.35c0.13,0.44,0.16,0.66,0.27,0.83c0.49,0.75,1.01,1.48,1.5,2.23c0.19,0.3,0.37,0.62,0.47,0.96
			c0.19,0.59-0.07,1.1-0.67,1.26c-0.51,0.14-1.06,0.26-1.58,0.25c-1.51-0.04-2.96,0.21-4.43,0.58c-1.62,0.41-3.28,0.64-4.92,0.94
			c-0.23,0.04-0.48,0.02-0.71,0.08c-4.37,1.13-8.79,0.78-13.19,0.36c-2.52-0.24-4.89-1.13-7.07-2.43c-1.23-0.73-2.38-1.6-3.57-2.39
			c-0.28-0.18-0.57-0.34-0.85-0.51c-0.24,0.37-0.04,0.56,0.12,0.7c1.4,1.2,2.66,2.55,4.26,3.54c2.07,1.29,4.18,2.26,6.66,2.31
			c1.43,0.03,2.85,0.21,4.27,0.32c0.05,0.48-0.24,0.54-0.54,0.52c-1.73-0.11-3.47-0.17-5.19-0.37c-1.63-0.19-3.09-0.91-4.48-1.74
			c-3.6-2.14-6.61-4.92-8.89-8.45c-0.61-0.95-1.08-1.99-1.57-3.01C207.84,128.56,207.69,128.04,207.53,127.61z M209.14,128.03
			c-0.03,0.18-0.08,0.31-0.05,0.41c0.04,0.17,0.12,0.34,0.21,0.49c1.51,2.23,3.11,4.38,5.41,5.9c0.99,0.66,1.94,1.4,2.94,2.04
			c2.19,1.4,4.59,2.33,7.17,2.63c4.22,0.49,8.45,0.78,12.65-0.24c0.17-0.04,0.36-0.04,0.53-0.06c2.69-0.35,5.05-1.39,6.84-3.47
			c0.84-0.98,1.68-1.99,1.95-3.29c-1.93-1.34-4.78-2.36-6.73-2.41c0.02,0.35,0.05,0.7,0.04,1.04c-0.01,0.9-0.08,1.8-0.6,2.58
			c-1.19,1.79-2.7,3.17-4.84,3.76c-2.14,0.59-4.13,0.37-5.97-0.94c-1.34-0.95-2.34-2.19-3.22-3.56c-0.66-1.03-1.1-2.11-1.09-3.35
			c0-0.39-0.12-0.79-0.2-1.28c-0.68,0-1.27,0-1.86,0c-2.69,0.01-5.38,0.02-8.07,0.04c-1.5,0.01-2.99,0-4.46-0.31
			C209.6,127.95,209.36,128.02,209.14,128.03z M236.97,130.25c-0.33,0.7-0.57,1.24-0.83,1.76c-0.85,1.67-2.56,2.45-4.34,2
			c-0.99-0.25-1.63-0.95-2.23-1.71c-0.32-0.4-0.48-0.93-0.93-1.32c-0.33,1.34-0.37,1.69,0.01,2.29c0.61,0.94,1.22,1.91,2.36,2.35
			c2.52,0.98,4.93-0.35,6.01-2.23C237.57,132.43,237.51,131.41,236.97,130.25z M247.38,134.44c-1.45,1.53-2.08,2.43-2.3,3.29
			c1.14-0.36,2.25-0.39,3.37-0.21c0.27,0.04,0.59-0.21,0.9-0.34C248.99,136,248.19,135.3,247.38,134.44z M232.45,130.47
			c0.26,0.24,0.41,0.43,0.6,0.55c0.63,0.4,1.24,0.3,1.81-0.16c0.47-0.38,0.67-1.17,0.4-1.79c-0.24-0.56-0.78-0.71-1.33-0.71
			c-0.33,0-0.67,0.13-1,0.2C232.76,129.2,232.62,129.77,232.45,130.47z"/>
		<path d="M256.17,179.34c0.99-0.16,1.96,0.49,2.82,1.39c0.49,0.52,0.96,1.07,1.47,1.57c1.66,1.65,3.62,2.46,6,2.27
			c1.61-0.13,3.22-0.23,4.74-0.85c1.35-0.55,2.51-1.36,3.59-2.33c0.48-0.43,1.05-0.77,1.59-1.13c1.11-0.73,2.17-0.37,3.2,0.22
			c0.39,0.22,0.59,0.59,0.52,1.06c-0.07,0.46-0.47,0.92-0.93,0.97c-0.47,0.05-0.99,0.1-1.42-0.04c-1.23-0.4-2.25-0.01-3.15,0.76
			c-1.02,0.87-2.17,1.46-3.42,1.88c-2.25,0.76-4.57,0.89-6.9,0.58c-1.52-0.21-2.8-1.01-3.94-2.01c-0.45-0.39-0.88-0.81-1.32-1.22
			c-0.56-0.51-1.16-0.79-1.95-0.58c-0.58,0.15-1.18,0.24-1.77,0.28c-0.93,0.06-1.57-0.54-1.67-1.49c-0.08-0.75,0.2-1.12,0.97-1.22
			C254.99,179.39,255.41,179.39,256.17,179.34z"/>
		<path d="M249.31,170c0.46,0.55,0.25,0.95,0.02,1.39c-0.54,1.06-1.06,2.13-1.56,3.2c-1.07,2.31-0.17,5.83,1.79,7.76
			c0.6,0.59,1.36,0.97,2.19,1.16c0.35,0.08,0.7,0.16,1.02,0.3c0.11,0.05,0.22,0.3,0.19,0.43c-0.03,0.13-0.23,0.32-0.35,0.31
			c-1.21-0.03-2.4-0.23-3.32-1.1c-2.33-2.21-3.26-4.93-2.84-8.11c0.03-0.24,0.06-0.48,0.16-0.69c0.29-0.65,0.56-1.32,0.92-1.92
			C248.08,171.84,248.2,170.67,249.31,170z"/>
		<path d="M258.45,139.43c-0.79-2.12-1.04-4.24-1.22-6.37c-0.09-1.07-0.25-2.13-0.45-3.18c-0.27-1.42-0.86-2.72-1.75-3.87
			c-0.22-0.28-0.46-0.56-0.59-0.89c-0.07-0.17,0.03-0.51,0.17-0.61c0.13-0.1,0.52-0.07,0.61,0.05c0.61,0.8,1.23,1.6,1.74,2.47
			c0.61,1.04,0.91,2.22,1.03,3.4c0.27,2.78,0.73,5.56,0.55,8.37C258.53,139.02,258.48,139.23,258.45,139.43z"/>
		<path d="M274.29,137.12c-0.05-0.2-0.15-0.41-0.15-0.61c0.04-1.67,0.07-3.34,0.15-5c0.08-1.72,0.84-3.21,1.73-4.63
			c0.09-0.14,0.4-0.14,0.6-0.21c0.06,0.21,0.13,0.42,0.16,0.64c0.01,0.1-0.07,0.22-0.12,0.33c-0.12,0.27-0.24,0.54-0.37,0.81
			c-0.79,1.64-1.11,3.37-1.17,5.18c-0.04,1.18-0.28,2.34-0.43,3.51C274.55,137.13,274.42,137.12,274.29,137.12z"/>
		<path d="M263.84,189.09c0.41,0.26,0.45,0.68,0.42,1.1c-0.04,0.65-0.14,1.3-0.17,1.96c-0.06,1.75,0.57,2.46,2.36,2.69
			c0.47,0.06,0.94,0.09,1.38,0.13c0.31,0.41,0.24,0.73-0.23,0.82c-1.17,0.22-2.25-0.1-3.21-0.77c-0.62-0.43-0.99-1.1-1-1.82
			c-0.01-1.3,0.12-2.6,0.21-3.9C263.61,189.22,263.76,189.16,263.84,189.09z"/>
	</g>
	<text transform="matrix(1 0 0 1 163.3256 345.3868)"><tspan x="0" y="0" class="st5 st6">DAY</tspan><tspan x="21.52" y="74.53" class="st5 st6">2-4</tspan></text>
</g>
</svg>
