<?xml version="1.0" encoding="utf-8"?>
<!-- Generator: Adobe Illustrator 26.4.1, SVG Export Plug-In . SVG Version: 6.00 Build 0)  -->
<svg version="1.1" xmlns="http://www.w3.org/2000/svg" xmlns:xlink="http://www.w3.org/1999/xlink" x="0px" y="0px"
	 viewBox="0 0 504 504" style="enable-background:new 0 0 504 504;" xml:space="preserve">
<style type="text/css">
	.st0{display:none;}
	.st1{display:inline;fill:#85D0CB;}
	.st2{display:inline;}
	.st3{fill:#FFFFFF;}
	.st4{fill:none;stroke:#000000;stroke-linecap:round;stroke-linejoin:round;stroke-miterlimit:10;}
	.st5{font-family:'CarolGothic';}
	.st6{font-size:62.1064px;}
</style>
<g id="Layer_2" class="st0">
</g>
<g id="Layer_2_copy" class="st0">
	<rect x="-1026.76" y="-1369.53" class="st1" width="1076.43" height="1678.4"/>
</g>
<g id="Layer_1" class="st0">
</g>
<g id="Layer_3">
</g>
<g id="Layer_4">
</g>
<g id="Layer_1_copy">
</g>
<g id="Layer_6">
</g>
<g id="Layer_7">
	<g>
		<path d="M259.97,10.36c1.26-1.09,2.63-2.26,3.99-3.44c1.96-1.72,4.33-2.72,6.67-3.77c0.25-0.11,0.54-0.11,0.81-0.18
			c1.21-0.31,2.45-0.53,3.61-0.95c1.52-0.55,3.09-0.85,4.67-0.97c3.8-0.28,7.6-0.52,11.42-0.32c1.72,0.09,3.47,0.16,5.14-0.54
			c0.49-0.2,1.1-0.22,1.64-0.2c3.22,0.13,6.34,0.73,9.22,2.26c1.59,0.85,3.12,1.8,4.7,2.67c3.85,2.14,6.76,5.29,9.22,8.85
			c0.82,1.18,1.32,2.58,2.11,4.15c0.62,0.27,1.5,0.65,2.39,1.02c1.16,0.48,2.26,1.07,3.16,1.96c2.21,2.2,4.45,4.38,6.59,6.65
			c1.49,1.57,2.44,3.53,3.36,5.47c0.53,1.12,1.05,2.28,1.37,3.47c0.42,1.53,0.7,3.11,0.93,4.68c0.83,5.57,0.49,11.07-1.26,16.44
			c-0.67,2.05-1.94,3.68-3.93,4.62c-1.07,0.51-2.18,0.91-3.4,0.37c-0.6-0.26-1.21-0.17-1.76,0.28c-0.26,0.22-0.58,0.4-0.9,0.52
			c-1.34,0.51-2.45,0.14-3.39-1.05c-0.43,0.29-0.86,0.51-1.19,0.83c-1.27,1.19-2.74,1.52-4.42,1.13c-0.74-0.17-1.48-0.33-2.36-0.52
			c-0.21,0.36-0.46,0.75-0.66,1.17c-0.72,1.56-1.59,2.94-3.49,3.24c-0.39,0.06-0.75,0.33-1.16,0.51c-0.59-0.26-1.15-0.51-1.75-0.77
			c-0.42,0.16-0.87,0.36-1.33,0.5c-1.43,0.43-2.37,0.1-3.25-1.12c-0.12-0.17-0.26-0.34-0.33-0.53c-0.69-1.92-2.21-2.32-4.01-2.23
			c-2.38,0.12-4.43,1.07-6.3,2.47c-1.35,1.01-1.88,2.57-2.38,4.07c-0.7,2.1-1.19,4.27-1.77,6.41c-0.09,0.33-0.1,0.71-0.27,0.99
			c-1.55,2.48-2.48,5.25-3.67,7.9c-0.63,1.4-1.36,2.73-2.37,3.9c-1.91,2.2-3.73,4.49-5.76,6.56c-1.79,1.83-3.8,3.45-5.99,4.79
			c-2.19,1.35-4.38,2.68-6.61,3.95c-1.76,1-3.35,2.24-4.9,3.51c-1.15,0.95-1.97,2.3-2.95,3.46c-0.24,0.28-0.57,0.5-0.97,0.84
			c-0.05-0.4-0.15-0.63-0.08-0.78c0.32-0.69,0.63-1.4,1.06-2.02c1.76-2.49,3.5-5.01,5.38-7.41c1.5-1.91,3.34-3.51,5.33-4.91
			c1.99-1.4,3.9-2.9,5.43-4.81c1.73-2.16,3.43-4.35,4.75-6.8c1.58-2.94,2.09-6.14,2.21-9.42c0.05-1.32,0.06-2.64-0.07-3.95
			c-0.2-2.17,0.09-4.3,0.45-6.42c0.2-1.15,0.66-2.25,1.04-3.37c0.24-0.7,0.61-1.36,0.73-2.33c-1.79,0.67-3.39,1.2-5.16,0.6
			c-1.57-0.53-3.25-0.8-4.33-2.47c-0.3,0.44-0.58,0.74-0.72,1.09c-1.06,2.49-2.14,4.96-3.11,7.48c-0.9,2.33-2.01,4.56-3.17,6.77
			c-0.81,1.53-1.58,3.08-2.42,4.6c-0.9,1.63-1.79,3.29-2.84,4.83c-1.01,1.49-2.2,2.85-3.34,4.25c-1.45,1.77-2.92,3.53-4.39,5.28
			c-3.99,4.77-8.54,8.91-13.87,12.14c-1.54,0.93-3.15,1.76-4.71,2.65c-3.07,1.75-6.13,3.54-9.21,5.26c-2.51,1.4-4.61,3.32-6.73,5.22
			c-0.67,0.6-0.96,1.31-0.89,2.22c0.12,1.59,0.11,3.2,0.3,4.78c0.37,3.03,0.86,6.04,1.29,9.06c0.02,0.14,0.04,0.27,0.04,0.41
			c0.11,5.17,1.38,10.17,2.31,15.2c0.79,4.29,2.13,8.47,3.88,12.49c1.17,2.66,2.24,5.37,3.64,7.93c1.71,3.12,3.68,6.03,6.09,8.64
			c1.18,1.28,2.33,2.57,3.51,3.84c0.4,0.43,0.67,0.87,0.33,1.46c-1.12-0.48-1.22-0.6-5.71-5.85c-1.86-2.17-3.38-4.55-4.81-7.03
			c-1.38-2.39-2.43-4.94-3.59-7.39c-0.72,0.15-0.62,0.57-0.58,0.85c0.11,0.75,0.27,1.5,0.46,2.24c1.03,4.1,2.09,8.19,3.11,12.3
			c0.38,1.55,0.73,3.11,1.02,4.67c0.49,2.67,1.35,5.23,2.24,7.78c1.08,3.15,2.13,6.31,3.13,9.48c0.81,2.58,1.54,5.18,2.54,7.7
			c0.64,1.61,1.12,3.27,1.79,4.87c1.06,2.56,2.32,5.04,3.3,7.62c1.02,2.68,2.5,5.11,3.9,7.57c2.43,4.27,4.82,8.59,7.99,12.39
			c1.11,1.33,2.15,2.72,3.22,4.07c0.22,0.27,0.49,0.5,0.67,0.79c1.61,2.64,3.82,4.75,5.99,6.89c0.64,0.63,1.25,1.3,1.88,1.95
			c2.6,2.71,5.58,4.98,8.55,7.25c0.72,0.54,1.38,1.16,2.07,1.73c0.32,0.27,0.62,0.57,0.98,0.77c2.44,1.31,4.83,2.75,7.36,3.86
			c4.45,1.94,9.06,3.37,13.83,4.4c3.74,0.8,7.53,1.12,11.3,1.67c0.82,0.12,1.17,0.35,0.99,0.71c-0.26,0.52-0.71,0.29-1.09,0.25
			c-1.45-0.15-2.89-0.37-4.34-0.48c-6-0.45-11.72-2.03-17.36-4.06c-3.67-1.32-7.1-3.13-10.47-5.07c-0.18-0.1-0.37-0.19-0.54-0.32
			c-2.08-1.62-4.15-3.24-6.22-4.88c-1.09-0.86-2.2-1.7-3.21-2.65c-1.56-1.47-3.04-3.04-4.56-4.56c-4.28-4.28-7.96-9.07-11.51-13.95
			c-1.38-1.89-2.82-3.78-3.8-5.94c-0.14-0.3-0.33-0.63-0.89-0.5c0.05,0.66,0.04,1.35,0.16,2.02c0.36,1.98,0.76,3.95,1.16,5.92
			c0.84,4.21,1.68,8.41,2.53,12.62c0.63,3.12,1.38,6.23,1.92,9.37c0.56,3.29,1.37,6.5,2.24,9.71c0.2,0.73,0.5,1.44,0.73,2.16
			c0.14,0.45,0,0.81-0.44,1.05c-0.65-0.2-0.71-0.81-0.84-1.32c-0.83-3.29-1.71-6.58-2.4-9.9c-1.37-6.66-2.62-13.33-3.93-20
			c-0.04-0.19-0.15-0.37-0.29-0.69c-0.25,0.17-0.53,0.26-0.63,0.45c-1.52,2.98-3.52,5.64-5.5,8.3c-1.65,2.21-3.56,4.24-5.59,6.14
			c-0.85,0.8-1.81,1.5-2.71,2.25c-1.48,1.25-3.17,2.33-4.39,3.8c-1.78,2.14-4.24,3.32-6.29,5.05c-1.07,0.9-2.12,1.77-2.99,3.01
			c0.2,1.91,0.5,3.89,1.02,5.82c0.82,3.01,1.76,5.98,2.65,8.97c0.06,0.2,0.17,0.38,0.24,0.57c0.89,2.4,1.82,4.78,2.64,7.21
			c0.87,2.57,2.1,4.97,3.27,7.4c1.15,2.39,2.95,4.36,4.27,6.63c0.49,0.84,1.03,1.64,1.58,2.44c1.64,2.4,3.3,4.75,5.55,6.69
			c3.98,3.44,8.46,6.01,13.23,8.14c1.52,0.68,3.1,1.2,4.65,1.82c0.21,0.08,0.37,0.31,0.74,0.63c-1.31,0.22-2.3,0.13-3.27-0.26
			c-1.93-0.77-3.87-1.54-5.8-2.31c-0.61-0.25-1.17-0.72-2.07-0.46c0.44,0.42,0.76,0.77,1.13,1.07c0.8,0.66,1.6,1.31,2.43,1.93
			c0.33,0.25,0.69,0.46,1.06,0.65c5.1,2.6,10.38,4.63,16.13,5.23c0.19,0.02,0.37,0.15,0.55,0.22c0.07,0.52-0.31,0.61-0.62,0.62
			c-1.04,0.03-2.09,0.09-3.12-0.01c-2-0.19-4.02-0.34-5.98-0.75c-3.79-0.79-7.64-1.47-11.21-3.04c-4.19-1.84-8.35-3.75-12.43-5.82
			c-2.98-1.51-5.62-3.54-7.97-5.95c-0.92-0.94-1.93-1.78-2.87-2.7c-3.03-2.95-6.08-5.88-9.05-8.89c-1.11-1.13-2.03-2.45-3.01-3.71
			c-1.37-1.75-2.7-3.52-4.06-5.27c-2.14-2.77-3.55-5.94-4.9-9.14c-0.84-1.99-1.51-4.02-1.95-6.13c-0.15-0.75-0.32-1.5-0.61-2.2
			c-1.01-2.4-1.31-4.95-1.7-7.48c-0.45-2.88-0.76-5.78-1.23-8.65c-0.55-3.31-0.49-6.64-0.53-9.97c-0.03-2.57,0.08-5.12,0.44-7.68
			c0.53-3.7,0.92-7.43,1.32-11.15c0.34-3.17,0.55-6.35,0.94-9.52c0.3-2.47,0.36-4.98,0.92-7.42c0.09-0.4,0.11-0.82,0.15-1.24
			c0.39-4,0.81-8,1.16-12c0.13-1.45,0.08-2.91,0.12-4.37c0.06-1.94,0.13-3.88,0.19-5.82c0-0.17-0.12-0.34-0.2-0.52
			c-0.17,0.09-0.35,0.13-0.38,0.22c-1.05,3.01-1.98,6.06-3.15,9.02c-1.41,3.54-3.08,6.96-5.27,10.12c-2.01,2.91-3.72,5.99-5.36,9.13
			c-1.67,3.21-2.77,6.65-4.33,9.9c-0.74,1.55-1.13,3.27-1.62,4.93c-0.7,2.39-1.41,4.79-1.99,7.21c-0.86,3.57-1.67,7.15-2.4,10.75
			c-0.44,2.17-0.91,4.35-0.67,6.6c0.03,0.28,0.07,0.57,0.01,0.83c-0.41,1.91,0.22,3.7,0.58,5.53c0.59,3.02,1.68,5.87,2.84,8.68
			c1.06,2.56,2.36,5.02,4.21,7.14c0.86,0.99,1.6,2.09,2.38,3.15c0.54,0.73,1.17,1.35,1.92,1.88c1.58,1.12,3.04,2.42,4.87,3.15
			c0.13,0.05,0.26,0.12,0.35,0.21c0.31,0.33,0.43,0.7,0.24,1.14c-0.16,0.38-0.6,0.54-1.05,0.32c-1.45-0.67-2.89-1.35-4.33-2.03
			c-0.94-0.45-1.86-0.93-2.8-1.36c-1.13-0.53-2.28-1.02-3.18-1.93c-0.13-0.13-0.36-0.17-0.73-0.32c0.05,0.37,0,0.66,0.12,0.83
			c2.62,3.65,5.07,7.45,8.42,10.53c1.84,1.69,3.7,3.34,5.74,4.78c0.11,0.08,0.25,0.14,0.34,0.24c1.6,1.76,3.77,2.76,5.58,4.24
			c0.21,0.17,0.39,0.36,0.75,0.7c-1.05,0.09-1.77-0.21-2.5-0.54c-3.3-1.48-6.49-3.15-9.5-5.16c-0.26-0.17-0.49-0.54-0.89-0.29
			c-0.02,0.07-0.06,0.16-0.04,0.18c0.96,1.08,1.83,2.25,2.9,3.21c2.27,2.04,4.81,3.75,7.4,5.37c1.23,0.77,2.4,1.62,3.5,2.68
			c-0.29-0.04-0.59-0.04-0.86-0.13c-2.18-0.73-4.14-1.91-6.1-3.07c-1.01-0.6-1.96-1.31-2.91-2c-1.12-0.81-2.22-1.66-3.33-2.5
			c-1.89-1.43-3.44-3.22-5.16-4.82c-2.42-2.25-4.11-5.03-6.06-7.63c-2.5-3.35-4.39-7.06-6.56-10.61c-2.11-3.44-3.78-7.1-5.4-10.78
			c-0.84-1.9-1.75-3.78-2.55-5.7c-1.39-3.34-2.24-6.85-2.89-10.4c-0.65-3.54-1.22-7.1-1.76-10.66c-0.75-4.87-0.98-9.77-0.95-14.69
			c0-0.76-0.11-1.51-0.17-2.27c-0.02-0.27-0.08-0.55-0.05-0.82c0.3-2.75,0.33-5.52,0.95-8.25c0.79-3.46,1.77-6.84,3.16-10.1
			c0.05-0.13,0.13-0.25,0.15-0.39c0.21-1.61,1.07-2.99,1.56-4.5c1.82-5.53,4.15-10.89,5.55-16.56c0.9-3.63,1.78-7.28,2.47-10.95
			c0.4-2.1,0.5-4.27,0.56-6.42c0.11-3.88,0.09-7.77,0.11-11.66c0.01-1.38-0.05-2.77-0.05-4.15c-0.01-4.38,0.29-8.74,1.49-12.98
			c0.78-2.76,1.28-5.58,1.19-8.4c-0.09-2.66,0.58-5.21,0.57-7.83c0-0.83,0.11-1.69-0.08-2.47c-0.94-3.99-0.75-8-0.27-12.01
			c0.16-1.3,0.5-2.59,0.86-3.85c1.22-4.36,2.8-8.56,5.59-12.22c1.02-1.34,1.57-2.88,1.96-4.53c0.92-3.87,2.5-7.49,4.83-10.74
			c0.77-1.07,1.5-2.16,2.29-3.21c0.46-0.61,0.95-1.2,1.51-1.72c2.4-2.24,4.31-4.9,6.25-7.51c1.29-1.74,2.03-3.78,2.52-5.89
			c0.19-0.81,0.4-1.62,0.68-2.4c0.63-1.72,0.63-3.54,1.01-5.3c0.46-2.16,0.86-4.35,1.52-6.46c0.87-2.77,2-5.46,3.36-8.04
			c0.29-0.55,0.53-1.15,0.91-1.63c1.48-1.86,2.44-4.03,3.62-6.07c1.64-2.83,3.68-5.37,5.95-7.73c1.25-1.3,2.5-2.58,4-3.62
			c0.72-0.5,1.21-1.34,1.89-1.92c1.32-1.12,2.74-2.12,4.05-3.24c1.86-1.58,3.91-2.86,6.06-3.99c1.59-0.83,3.17-1.67,4.91-2.19
			c2.25-0.67,4.44-1.56,6.71-2.2c1.59-0.45,3.24-0.72,4.89-0.9C256.84,10.35,258.36,10.41,259.97,10.36z M268.6,17.11
			c-0.3,0.13-0.6,0.26-0.9,0.39c-0.09,0.07-0.18,0.15-0.27,0.22c0.07,0.03,0.15,0.05,0.22,0.08c0-0.11,0-0.22,0.01-0.33
			c0.37,0.02,0.73,0.01,0.9-0.4c0.4,0.13,0.75,0.12,0.96-0.32c0.34-0.01,0.73,0.06,0.8-0.44c0.41-0.01,0.84,0.06,1.21-0.06
			c1.71-0.58,3.48-0.83,5.26-1.11c2.9-0.45,5.63,0.01,8.26,1.25c0.75,0.36,1.5,0.71,2.28,1.02c1.01,0.4,1.13,0.34,2.02-0.78
			c-0.56-0.98-1.41-1.69-2.39-2.21c-2.46-1.31-5.08-1.76-7.84-1.34c-2.76,0.42-5.29,1.6-7.92,2.46c-0.38,0.13-0.77,0.32-0.85,0.81
			c-0.37-0.04-0.67,0.06-0.79,0.45C269.18,16.72,268.83,16.72,268.6,17.11z M210.2,69.89c0.54-0.31,0.68-0.72,0.33-1.26
			c0.41,0.12,0.65-0.09,0.82-0.43c0.57-1.1,1.15-2.21,1.71-3.32c0.31-0.62,0.67-1.22,0.9-1.87c1.07-3,2.1-6.01,3.15-9.01
			c0.27-0.78,0.54-1.57,0.84-2.34c0.78-2,1.69-3.95,2.31-6c0.42-1.36,1.01-2.55,1.87-3.66c0.72-0.93,1.45-1.84,1.82-3
			c0.18-0.58,0.53-1.18,0.96-1.59c1.21-1.15,2.11-2.55,3.22-3.77c2.45-2.71,4.97-5.35,8.07-7.4c1.5-0.99,2.96-2.05,4.55-2.89
			c1.84-0.97,3.62-2.08,5.55-2.84c2.74-1.07,5.57-1.9,8.6-2.48c-0.23-0.21-0.34-0.42-0.49-0.44c-0.89-0.13-1.79-0.2-2.68-0.32
			c-1.4-0.2-2.77-0.04-4.12,0.33c-0.73,0.2-1.45,0.49-2.18,0.7c-3.51,1-6.62,2.82-9.69,4.72c-0.41,0.26-0.81,0.55-1.17,0.87
			c-1.56,1.38-3.13,2.74-4.64,4.17c-1.2,1.14-2.44,2.28-3.46,3.57c-2.55,3.2-4.85,6.58-6.58,10.31c-0.23,0.5-0.54,0.97-0.8,1.46
			c-0.43,0.79-0.91,1.56-1.28,2.38c-0.58,1.33-1.15,2.68-1.61,4.05c-0.77,2.29-1.66,4.54-2.12,6.93c-0.42,2.17-0.92,4.33-1.54,6.45
			c-0.54,1.86-1.3,3.65-1.95,5.49c-0.13,0.41-0.25,0.83-0.36,1.26c-0.01,0.11-0.01,0.22-0.02,0.33
			C210.21,70.15,210.21,70.02,210.2,69.89z M233.46,35.39c-0.25-0.03-0.58-0.19-0.73-0.08c-0.53,0.37-1.08,0.77-1.01,1.54
			c-0.74,0.14-0.83,0.26-0.91,1.23c-0.7-0.14-0.97,0.44-1.27,0.85c-0.82,1.11-1.49,2.32-2.34,3.39c-1.14,1.43-1.72,3.1-2.34,4.77
			c-0.41,0.64-0.41,0.64-0.45,1.37c0.54-0.39,0.48-0.91,0.4-1.43c0.22-0.14,0.52-0.22,0.65-0.42c1.63-2.4,3.25-4.82,4.84-7.25
			c0.25-0.38,0.32-0.88,0.47-1.33c0.3-0.41,0.61-0.82,0.91-1.23c0.59-0.48,1.18-0.97,1.76-1.48c0.16-0.37,0.32-0.73,0.53-1.2
			C233.19,34.45,233.34,34.93,233.46,35.39z M311.94,11.86c-0.07-0.28,0.08-0.7-0.49-0.71c0.19,0.25,0.36,0.46,0.52,0.67
			c0.08,1.23,0.95,2.07,1.56,3.02c0.27,0.42,0.88,0.58,1.53,0.16c-0.23-0.44-0.41-0.87-0.66-1.26
			C313.96,13.07,312.71,12.16,311.94,11.86z M235.59,40.81c-0.43-0.25-0.81-0.15-1.08,0.25c-0.84,1.27-1.66,2.55-2.49,3.82
			c-0.82,1.27-1.75,2.49-2.45,3.82c-1.17,2.26-2.24,4.58-3.26,6.91c-1,2.27-1.8,4.63-3.17,6.73c-0.13,0.2-0.08,0.52-0.12,0.79
			c1.32-1.35,2.46-2.74,3.31-4.33c0.85-1.58,1.62-3.2,2.41-4.82c0.97-1.98,1.94-3.97,2.89-5.96c0.78-1.62,1.48-3.27,2.31-4.86
			c0.44-0.84,1.07-1.59,1.6-2.4c0.1-0.34,0.2-0.69,0.34-1.18C235.2,39.97,235.44,40.4,235.59,40.81z M218.96,186.39
			c-0.09,0.35-0.18,0.7-0.27,1.06c0.07,0.01,0.14,0.03,0.21,0.04C218.92,187.12,218.94,186.75,218.96,186.39
			c-0.24-1.78-0.5-3.56-0.72-5.34c-0.36-2.82-0.53-5.65-1.13-8.44c-0.22-1.01-0.32-2.05-0.47-3.08c-0.34-2.26-0.67-4.51-1.01-6.77
			c-0.1-0.68-0.26-1.36-0.31-2.04c-0.2-2.63-0.75-5.21-1.29-7.78c-0.32-1.49-0.57-2.97-0.46-4.51c0.05-0.62,0-1.25-0.03-1.87
			c-0.14-2.49,0.15-4.97,0.26-7.46c0.03-0.76,0.26-1.5,0.36-2.25c0.18-1.37,0.32-2.75,0.51-4.12c0.21-1.51,0.47-3.01,0.68-4.52
			c0.02-0.16-0.11-0.34-0.21-0.65c-0.25,0.3-0.47,0.47-0.58,0.71c-0.81,1.69-1.52,3.43-1.78,5.3c-0.17,1.24-0.27,2.49-0.52,3.71
			c-0.72,3.49-0.87,7.02-0.79,10.56c0.05,2.28,0.19,4.57,0.47,6.84c0.33,2.68,0.89,5.32,1.29,7.99c0.53,3.56,1.24,7.07,1.97,10.59
			c0.87,4.19,2.39,8.23,3.1,12.47C218.35,186.15,218.65,186.26,218.96,186.39z M176.08,237.25c0.7-0.78,0.85-1.43,1.04-2.08
			c0.46-1.59,0.71-3.22,1.49-4.73c0.91-1.78,1.56-3.69,2.35-5.53c1.09-2.54,1.83-5.24,3.37-7.59c0.26-0.4,0.43-0.87,0.63-1.31
			c0.49-1.07,0.98-2.14,1.47-3.2c0.18-0.37,0.45-0.71,0.57-1.1c0.34-1.08,0.96-1.98,1.57-2.91c0.87-1.33,1.81-2.63,2.02-4.29
			c0.06-0.46,0.34-0.91,0.54-1.35c1.07-2.32,2.16-4.63,3.22-6.96c0.14-0.31,0.13-0.68,0.24-1c0.22-0.65,0.45-1.3,0.71-1.94
			c0.26-0.64,0.61-1.25,0.8-1.91c0.53-1.86,1.01-3.74,1.5-5.62c0.67-2.54,1.34-5.08,1.99-7.63c0.12-0.46,0.14-0.94,0.18-1.42
			c0.03-0.41-0.02-0.83,0.04-1.23c0.68-4.2,0.67-8.41,0.22-12.62c-0.07-0.69-0.03-1.39-0.04-2.08c-0.05-3.47-0.03-6.94-0.19-10.4
			c-0.1-2.09-0.11-4.15,0.1-6.23c0.2-1.93,0.29-3.88,0.6-5.79c0.4-2.46,0.69-4.94,1.63-7.29c1.2-2.97,2.74-5.76,4.33-8.51
			c1.31-2.27,2.71-4.51,4.46-6.5c1.69-1.93,3.23-3.99,4.94-5.9c1.89-2.12,3.9-4.14,5.88-6.18c0.67-0.69,1.39-1.35,2.15-1.96
			c2.59-2.1,5.21-4.15,7.8-6.25c0.7-0.57,1.28-1.3,2.01-1.8c3.23-2.19,6.12-4.79,8.95-7.44c2.44-2.28,4.48-4.93,6.25-7.77
			c0.1-0.16,0.04-0.41,0.07-0.92c-0.63,0.61-1.06,0.96-1.42,1.37c-1.2,1.36-2.53,2.57-4.01,3.62c-0.45,0.32-0.85,0.72-1.28,1.07
			c-2.09,1.72-4.17,3.44-6.28,5.14c-0.97,0.78-1.93,1.62-3.01,2.21c-1.61,0.88-2.94,2.07-4.24,3.33c-0.55,0.53-1.14,1.02-1.73,1.5
			c-1.23,1.02-2.51,1.98-3.7,3.04c-3.17,2.81-6.31,5.64-9.43,8.49c-1.08,0.98-2.16,1.97-3.09,3.08c-3.7,4.42-7.21,8.98-9.5,14.33
			c-0.79,1.84-1.8,3.59-2.18,5.6c-0.25,1.36-0.61,2.7-0.96,4.04c-0.78,3.02-1.49,6.04-1.74,9.17c-0.24,2.97-0.52,5.94-0.31,8.92
			c0.12,1.72,0.23,3.45,0.3,5.18c0.09,2.35,0.14,4.71,0.22,7.07c0.01,0.21,0.02,0.43,0.09,0.61c0.27,0.69,0.14,1.36,0,2.05
			c-0.09,0.4-0.14,0.83-0.1,1.24c0.26,2.49-0.05,4.98-0.08,7.47c-0.02,1.31-0.24,2.61-0.39,3.92c-0.12,1.03-0.23,2.06-0.4,3.08
			c-0.26,1.57-0.51,3.14-0.85,4.69c-0.36,1.62-0.83,3.21-1.27,4.82c-0.07,0.26-0.21,0.51-0.31,0.77c-0.31,0.84-0.62,1.68-0.94,2.51
			c-0.37,0.97-0.7,1.95-1.12,2.89c-1.32,2.98-2.85,5.85-4.37,8.73c-0.87,1.65-1.6,3.38-2.51,5.02c-1.52,2.74-2.57,5.68-3.76,8.55
			c-1.51,3.65-2.64,7.44-3.62,11.27c-0.31,1.21-0.64,2.41-0.94,3.62C175.99,236.43,176.05,236.68,176.08,237.25z M216.72,211.41
			c-0.09,1.03-0.15,2.06-0.27,3.09c-0.59,5.16-1.2,10.32-1.81,15.48c-0.19,1.65-0.38,3.3-0.6,4.94c-0.1,0.75-0.33,1.49-0.43,2.24
			c-0.42,3.36-0.85,6.72-1.22,10.09c-0.5,4.48-0.93,8.96-0.93,13.48c0,3.12,0.21,6.23,0.72,9.31c0.56,3.35,1.24,6.67,1.82,10.02
			c0.82,4.73,2.39,9.24,3.77,13.81c0.73,2.4,1.93,4.6,2.97,6.86c0.4,0.88,0.86,1.73,1.28,2.61c1.03,2.13,2.4,4.04,3.73,5.98
			c2.9,4.25,6.07,8.26,9.74,11.86c0.78,0.76,1.77,1.32,2.68,1.94c0.18,0.12,0.47,0.1,0.81,0.16c-0.19-1.04-0.77-1.62-1.33-2.24
			c-1.16-1.28-2.36-2.53-3.13-4.12c-0.3-0.62-0.78-1.15-1.17-1.72c-1.38-1.99-2.81-3.94-4.14-5.97c-1.02-1.56-1.91-3.21-2.83-4.82
			c-0.21-0.36-0.35-0.75-0.5-1.14c-1.51-3.87-3.06-7.72-4.52-11.61c-0.89-2.4-1.73-4.82-2.42-7.28c-1.17-4.13-2.01-8.35-2.63-12.6
			c-0.77-5.21-1.07-10.48-0.85-15.75c0.09-2.07,0.19-4.16,0.47-6.21c0.22-1.64,0.55-3.26,0.71-4.92c0.47-5.11,0.83-10.22,0.89-15.35
			C217.62,223.51,217.41,217.49,216.72,211.41z M221.73,169.68c0,0.83-0.07,1.43,0.01,2.02c0.53,3.77,1.13,7.53,1.62,11.3
			c0.46,3.5,0.86,7,1.18,10.51c0.23,2.54,0.66,5.07,0.57,7.64c-0.05,1.45,0.11,2.91,0.11,4.36c0,2.14-0.14,4.29-0.08,6.43
			c0.09,3.47-0.09,6.92-0.47,10.36c-0.05,0.48-0.14,0.96-0.12,1.44c0.11,3.07-0.31,6.07-1.19,9.01c-0.24,0.79-0.4,1.61-0.51,2.43
			c-0.36,2.54-0.62,5.09-1.05,7.61c-0.7,4.1-1.43,8.18-1.52,12.35c-0.05,2.35-0.15,4.71-0.08,7.06c0.06,2.27,0.3,4.54,0.47,6.81
			c0.08,1.01,0.2,2.01,0.68,3.01c1.41-0.46,2.35-1.32,3.22-2.22c-0.93-2.39-1.42-4.77-1.62-7.19c-0.41-4.92-0.21-9.84,0.55-14.72
			c0.75-4.79,1.6-9.56,2.33-14.35c0.62-4.11,1.17-8.23,1.28-12.4c0.04-1.66,0.14-3.33,0.43-4.96c0.55-3.16,0.53-6.34,0.61-9.52
			c0.1-3.82-0.5-7.6-0.82-11.39c-0.1-1.24-0.38-2.46-0.6-3.69c-0.48-2.72-1.01-5.43-1.44-8.16c-0.49-3.15-0.89-6.31-1.79-9.37
			C223.09,172.62,222.79,171.11,221.73,169.68z M192.77,136.78c-0.12,0-0.25-0.01-0.37-0.01c-0.25,0.78-0.48,1.56-0.75,2.33
			c-1.4,3.96-2,8.07-2.17,12.24c-0.2,5,0.16,9.99,0.49,14.97c0.36,5.56,0.34,11.08-0.65,16.58c-1.02,5.65-3,10.93-5.76,15.96
			c-1.96,3.58-4.36,6.91-5.8,10.77c-0.05,0.13-0.12,0.25-0.18,0.37c-0.47,1.08-1,2.13-1.39,3.24c-0.97,2.74-1.88,5.51-2.82,8.26
			c-1.36,4.02-2.25,8.14-2.73,12.35c-0.21,1.86-0.47,3.71-0.71,5.56c-0.12,0.93-0.04,1.78,0.29,2.88c0.49-1.49,0.84-2.95,0.98-4.48
			c0.1-1.09,0.43-2.17,0.68-3.25c0.19-0.81,0.46-1.6,0.66-2.4c0.48-1.87,0.78-3.78,1.74-5.5c0.23-0.42,0.34-0.91,0.46-1.38
			c0.97-3.75,2.48-7.3,3.95-10.86c0.66-1.59,1.53-3.1,2.32-4.64c1.02-1.97,2.02-3.95,3.11-5.87c0.86-1.51,1.67-3.03,2.17-4.7
			c0.22-0.73,0.47-1.46,0.83-2.12c1.36-2.52,2-5.29,2.92-7.97c0.07-0.2,0.14-0.4,0.17-0.6c0.46-3.22,0.96-6.43,1.36-9.66
			c0.45-3.59,0.54-7.19,0.23-10.8c-0.05-0.55-0.02-1.11,0.02-1.66c0.32-3.68,0.16-7.34-0.14-11.01c-0.19-2.28-0.17-4.57,0.12-6.85
			c0.25-1.99,0.39-4,0.54-6.01c0.12-1.65-0.04-3.32,0.39-4.94C192.83,137.33,192.77,137.05,192.77,136.78z M329.63,32.08
			c0.26-0.6-0.08-0.92-0.31-1.22c-1.1-1.43-2.25-2.84-3.78-3.83c-2.38-1.55-4.79-3.06-7.21-4.55c-0.7-0.43-1.46-0.87-2.25-1.07
			c-2.15-0.54-4.31-1.11-6.51-1.36c-3.03-0.35-6.09-0.5-9.14-0.56c-1.44-0.03-2.92,0.21-4.31,0.58c-2.74,0.72-5.45,1.6-8.16,2.46
			c-0.79,0.25-1.57,0.57-2.28,0.99c-1.73,1.03-3.46,2.06-5.1,3.22c-1.98,1.4-3.97,2.79-5.63,4.59c-1.98,2.14-4.05,4.19-5.32,6.87
			c-0.14,0.29-0.23,0.6-0.51,1.34c0.69-0.49,1.03-0.68,1.31-0.94c1.11-1.04,2.23-2.07,3.28-3.17c2.61-2.72,5.45-5.11,8.82-6.85
			c2.03-1.05,4.03-2.16,5.97-3.37c0.9-0.56,1.79-1.13,2.8-1.31c2.23-0.4,4.47-0.79,6.7-1.2c0.07-0.01,0.14,0,0.21,0
			c1.45-0.13,2.9-0.23,4.34-0.41c2.57-0.32,5.11-0.27,7.63,0.41c1.93,0.52,3.86,1.09,5.82,1.48c2.21,0.44,4.22,1.28,6.09,2.52
			c0.23,0.15,0.47,0.29,0.71,0.44c1.44,0.94,2.97,1.74,4.21,3C327.75,30.89,328.73,31.42,329.63,32.08z M210.43,287.16
			c0.55-0.81,0.07-1.48-0.06-2.2c-0.76-4.16-1.58-8.3-2.3-12.46c-0.4-2.32-0.84-4.65-0.92-6.99c-0.12-3.45-0.59-6.92,0.13-10.36
			c0.04-0.2,0.02-0.42,0.03-0.62c0.08-1.59,0.09-3.19,0.26-4.77c0.31-3.03,0.7-6.05,1.07-9.07c0.08-0.69,0.2-1.37,0.31-2.05
			c0.26-1.57,0.72-3.13,0.76-4.7c0.09-3.74,0.69-7.43,1.16-11.12c0.67-5.25,0.86-10.5,0.8-15.77c-0.01-0.66-0.1-1.32-0.16-2.11
			c-0.17,0.25-0.29,0.34-0.31,0.46c-0.64,3.05-1.39,6.08-1.88,9.15c-0.62,3.89-1.12,7.81-1.51,11.74c-0.48,4.75-0.8,9.51-1.2,14.27
			c-0.05,0.62-0.18,1.23-0.27,1.84c-0.33,2.33-0.85,4.65-0.95,6.98c-0.19,4.08-0.16,8.16,0.12,12.24c0.09,1.24,0.04,2.51,0.28,3.72
			c0.89,4.54,1.37,9.17,2.55,13.66C209.02,281.7,209.72,284.43,210.43,287.16z M255.23,45.34c-0.89,1.67-1.61,3.09-2.39,4.46
			c-0.82,1.43-1.32,2.99-2.02,4.47c-1.15,2.44-2.42,4.81-3.98,7.01c-0.48,0.67-0.96,1.35-1.54,1.94c-0.92,0.94-2.01,1.72-2.51,3.01
			c-0.07,0.18-0.24,0.33-0.4,0.47c-2.3,1.99-4.53,4.08-6.93,5.94c-3.34,2.58-6.82,5-10.25,7.47c-3.27,2.36-6.45,4.83-9.21,7.77
			c-2.32,2.47-4.46,5.12-6.65,7.7c-0.61,0.71-1.15,1.49-1.72,2.23c0.39,0.07,0.61-0.03,0.78-0.19c1.93-1.79,3.86-3.58,5.77-5.38
			c1-0.95,1.88-2.05,2.98-2.87c2.84-2.11,5.43-4.51,8.17-6.72c0.92-0.74,1.86-1.47,2.88-2.05c2.43-1.37,4.62-3.06,6.73-4.84
			c2.38-2,4.63-4.16,7.04-6.12c2.22-1.81,3.99-4.05,6.1-5.95c0.25-0.23,0.4-0.56,0.59-0.85c2-3,3.41-6.32,4.82-9.61
			c0.93-2.16,1.42-4.49,1.82-6.81C255.35,46.18,255.28,45.92,255.23,45.34z M204.23,185.02c-0.28,0.71-0.48,1.06-0.56,1.44
			c-0.69,3.04-1.37,6.07-2.58,8.96c-0.43,1.02-0.72,2.1-1.08,3.15c-0.25,0.72-0.49,1.44-0.77,2.15c-1.21,3.11-2.93,5.97-4.42,8.95
			c-0.83,1.67-1.69,3.35-2.71,4.91c-1.44,2.21-2.84,4.44-4.04,6.79c-1.22,2.41-2.68,4.69-3.58,7.27c-0.55,1.57-1.21,3.09-1.81,4.64
			c-0.2,0.52-0.4,1.04-0.55,1.57c-0.45,1.6-0.86,3.21-1.3,4.81c-1.27,4.62-2.41,9.26-2.56,14.08c-0.03,0.96-0.25,1.92-0.35,2.88
			c-0.05,0.45-0.01,0.9-0.01,1.35c0.29-0.37,0.41-0.76,0.47-1.16c0.14-1.03,0.1-2.11,0.42-3.08c0.89-2.71,1.35-5.51,1.89-8.3
			c0.11-0.54,0.27-1.08,0.44-1.6c0.85-2.57,1.52-5.18,2.53-7.7c1.16-2.89,2.1-5.84,3.54-8.64c2.44-4.75,4.84-9.51,7.62-14.07
			c2.46-4.04,4.36-8.36,6.3-12.65c0.17-0.38,0.3-0.78,0.4-1.18c0.84-3.43,1.69-6.87,2.48-10.31c0.23-1.01,0.32-2.05,0.44-3.08
			C204.47,185.92,204.36,185.66,204.23,185.02z M332.44,46.24c-0.12-0.64-0.13-1.04-0.27-1.39c-1.85-4.5-4.66-8.3-8.33-11.48
			c-0.89-0.77-1.8-1.5-2.9-1.97c-0.56-0.25-1.06-0.64-1.59-0.96c-0.41-0.25-0.8-0.56-1.24-0.74c-3.98-1.66-8.12-2.68-12.4-3.19
			c-1.07-0.13-2.08,0.25-3.09,0.18c-1.92-0.12-3.73,0.34-5.53,0.81c-2.48,0.65-4.95,1.37-7.11,2.84c-0.21,0.14-0.51,0.24-0.34,0.74
			c0.24-0.07,0.5-0.1,0.71-0.22c0.8-0.44,1.6-0.8,2.56-0.71c0.27,0.03,0.56-0.03,0.82-0.12c2.78-0.99,5.7-1.09,8.6-1.3
			c1.78-0.12,3.58-0.39,5.37,0.09c0.87,0.23,1.78,0.26,2.66,0.47c1.6,0.39,3.23,0.7,4.7,1.56c1.19,0.7,2.4,1.45,3.8,1.62
			c1.53,0.19,2.72,0.93,3.79,1.95c1.09,1.04,2.19,2.07,3.28,3.12c0.29,0.29,0.57,0.6,0.8,0.94c1.67,2.46,3.33,4.93,5,7.39
			C331.79,45.96,331.95,45.99,332.44,46.24z M254.45,82.72c-0.09,0.02-0.19,0.01-0.22,0.05c-0.32,0.37-0.65,0.72-0.93,1.12
			c-2.38,3.37-5.41,6.13-8.59,8.67c-4.11,3.28-8.36,6.39-12.61,9.49c-2.53,1.84-4.87,3.88-7.22,5.93c-0.35,0.3-0.7,0.6-0.72,1.38
			c0.64-0.45,1.09-0.74,1.51-1.07c0.49-0.38,0.93-0.84,1.46-1.17c3.22-2.03,6.47-4.01,9.69-6.04c2.05-1.29,4.09-2.58,5.94-4.18
			c1.94-1.68,3.7-3.54,5.52-5.34c2.28-2.27,4.15-4.81,5.8-7.55C254.3,83.63,254.7,83.26,254.45,82.72z M298.73,14.08
			c-0.77-1.23-1.83-2.2-3.02-3.03c-1.13-0.8-2.33-1.5-3.43-2.34c-1.6-1.21-3.43-1.84-5.36-2.11c-2.31-0.32-4.65-0.7-6.96,0.09
			c-3.37,0.19-6.21,1.84-9.12,3.29c-0.23,0.11-0.4,0.33-0.9,0.77c0.92-0.09,1.4-0.21,1.89-0.49c0.53-0.31,1.1-0.59,1.68-0.8
			c2.63-0.97,5.39-1.27,8.17-1.3c1.37-0.01,2.78,0.16,4.11,0.48c1.41,0.34,2.75,0.95,4.11,1.47c1.65,0.63,3.04,1.63,4.11,3.05
			c0.45,0.6,0.99,1.14,1.53,1.75C296.58,14.62,297.79,15.17,298.73,14.08z M215.08,78.96c-2.28,1.84-4.39,3.61-6.22,5.7
			c-1.09,1.25-2.1,2.57-3.19,3.81c-2.61,2.96-4.86,6.2-7.18,9.39c-0.77,1.06-1.38,2.23-2.06,3.35c-0.36,0.59-0.71,1.19-1.09,1.76
			c-1.18,1.79-2.5,3.5-3.19,5.57c-0.08,0.25-0.04,0.55-0.07,1.18c0.51-0.61,0.79-0.91,1.02-1.24c2.13-2.99,4.26-5.98,6.39-8.96
			c0.48-0.68,0.99-1.33,1.46-2.02c1.28-1.89,2.53-3.79,3.81-5.68c0.19-0.28,0.44-0.54,0.67-0.79c0.59-0.67,1.2-1.33,1.79-2
			c1.51-1.71,3.01-3.43,4.52-5.14c1.01-1.14,2.04-2.25,3.06-3.38C215.13,80.14,215.38,79.74,215.08,78.96z M231.15,236.91
			c-0.1-0.01-0.2-0.02-0.3-0.03c-0.07,0.24-0.17,0.48-0.21,0.73c-0.65,3.68-1.29,7.36-1.53,11.09c-0.1,1.52-0.09,3.05-0.26,4.56
			c-0.26,2.36,0.06,4.7,0.26,7.04c0.09,1.02,0.43,2.03,0.74,3.01c0.13,0.42,0.48,0.77,0.76,1.21c0.99-0.52,1.67-1.15,2.13-2.02
			c-0.2-0.79-0.31-1.55-0.57-2.25c-1.38-3.7-1.67-7.55-1.52-11.45c0.14-3.46,0.39-6.91,0.57-10.37
			C231.24,237.93,231.17,237.42,231.15,236.91z M262.8,38.93c0.22-0.41,0.44-0.82,0.67-1.22c1.24-2.24,2.4-4.52,3.72-6.71
			c1.89-3.14,4.55-5.54,7.62-7.51c1.11-0.72,2.28-1.28,3.6-1.55c0.5-0.1,1.13-0.17,1.2-1.01c-1.82-0.27-3.55-0.03-5.26,0.59
			c-2,0.73-3.61,2.02-5.1,3.48c-3.05,2.97-4.99,6.59-6.24,10.61C262.67,36.65,262.45,37.73,262.8,38.93z M232.55,83.53
			c-0.84,0.47-1.7,0.92-2.53,1.42c-0.59,0.36-1.15,0.77-1.69,1.2c-2.49,1.99-5.04,3.9-7.38,6.07c-2.18,2.02-4.4,4-6.56,6.05
			c-1.61,1.52-3.13,3.13-4.73,4.66c-2.06,1.96-4.06,3.97-5.82,6.21c-0.59,0.76-1.26,1.45-1.89,2.18c-0.5,0.58-0.84,1.22-0.95,2.26
			c0.85-0.45,1.22-1.02,1.62-1.54c1.57-2.12,3.39-4.01,5.27-5.85c0.64-0.63,1.31-1.23,1.92-1.88c1.7-1.82,3.38-3.65,5.46-5.08
			c1.01-0.7,1.84-1.66,2.72-2.54c0.74-0.73,1.37-1.56,2.14-2.25c1.55-1.38,3.13-2.74,4.75-4.04c1.79-1.42,3.65-2.74,5.46-4.13
			C231.25,85.54,232.18,84.82,232.55,83.53z M182.98,183.77c0.24-0.61,0.43-0.97,0.52-1.35c0.11-0.47,0.18-0.96,0.19-1.44
			c0.04-1.79,0.53-3.57,0.16-5.38c-0.03-0.13-0.03-0.28,0-0.41c0.68-2.81,0.26-5.67,0.27-8.5c0.01-2.9-0.18-5.81-0.22-8.71
			c-0.02-1.24,0.19-2.48,0.19-3.72c-0.01-2.5-0.02-4.99,0.36-7.47c0.03-0.2-0.12-0.43-0.25-0.88c-0.21,0.43-0.35,0.59-0.38,0.78
			c-0.2,1.44-0.4,2.88-0.56,4.33c-0.35,3.17-0.84,6.32-0.77,9.53c0.04,1.52,0.13,3.04,0.16,4.56c0.07,3.12,0.13,6.23,0.17,9.35
			c0.02,1.94-0.01,3.87,0,5.81C182.81,181.34,182.57,182.43,182.98,183.77z M291.4,71.07c0.18-0.09,0.38-0.14,0.39-0.22
			c0.27-1.46,1.01-2.71,1.71-3.98c1.17-2.1,2.88-3.69,4.94-4.9c0.86-0.5,1.78-0.72,2.78-0.63c1.52,0.13,3.03,0.26,4.45,0.9
			c0.23,0.1,0.49,0.13,1.2,0.31c-1.34-1.77-2.53-2.84-4.45-2.89c-2.19-0.06-4.27,0.39-6.27,1.22c-0.74,0.31-1.43,0.86-1.97,1.46
			c-1.27,1.41-2.01,3.15-2.57,4.92C291.24,68.45,290.99,69.76,291.4,71.07z M235.16,53.83c1.82-1.45,3.16-3.29,4.38-5.17
			c0.98-1.51,1.99-2.97,3.04-4.42c0.69-0.94,1.32-1.94,1.83-2.99c0.56-1.15,0.95-2.38,1.41-3.59c-0.43-0.18-0.64,0.2-0.81,0.42
			c-0.82,1.03-1.8,1.89-2.74,2.8c-0.54,0.52-1.03,1.12-1.43,1.76c-0.91,1.46-1.68,3.01-2.64,4.44
			C236.81,49.16,236.2,51.58,235.16,53.83z M236.86,236.54c-0.16,0.23-0.27,0.32-0.28,0.42c-0.03,0.34-0.04,0.69-0.02,1.04
			c0.28,3.53,0.71,7.04,1.71,10.44c0.31,1.06,0.71,2.11,1.2,3.1c0.4,0.79,0.97,1.51,1.55,2.18c0.15,0.18,0.75,0.23,0.92,0.09
			c0.73-0.61,1.51-1.25,1.5-2.32c-0.09-0.16-0.15-0.3-0.24-0.4c-0.14-0.15-0.29-0.3-0.46-0.42c-1.52-1.09-2.47-2.59-3.21-4.27
			c-0.91-2.04-1.52-4.17-1.97-6.34c-0.11-0.54-0.24-1.08-0.35-1.63C237.1,237.84,236.99,237.25,236.86,236.54z M237.17,258.94
			c-0.51-0.81-0.98-1.48-1.37-2.19c-0.36-0.66-0.64-1.37-0.95-2.06c-0.34-0.75-0.71-1.5-0.99-2.27c-0.25-0.71-0.4-1.46-0.59-2.2
			c-0.2-0.75-0.08-1.62-0.84-2.45c-0.08,0.64-0.17,1.04-0.16,1.43c0.04,1.17,0.14,2.34,0.19,3.51c0.08,1.81,0.46,3.56,1.2,5.21
			c0.41,0.92,0.81,1.92,2,2.42C236.14,259.89,236.63,259.44,237.17,258.94z M281.74,43.3c0.19,0.07,0.28,0.12,0.3,0.1
			c0.31-0.26,0.64-0.51,0.89-0.82c2.49-3.08,5.76-5.12,9.25-6.86c1.69-0.84,3.56-1.1,5.37-1.53c0.43-0.1,0.96-0.06,1.19-0.76
			c-2.05,0.14-4.02,0.4-5.96,0.86c-0.4,0.09-0.79,0.26-1.15,0.46c-1.7,0.92-3.42,1.81-5.07,2.82
			C284.34,38.93,283.01,41.07,281.74,43.3z M312.1,64.31c1.09-1.52,1.29-2.22,0.99-3.54c-0.12-0.54-0.38-1.04-0.48-1.58
			c-0.22-1.26-1.02-2.1-2-2.78c-0.73-0.51-1.55-0.91-2.36-1.29c-0.42-0.2-0.91-0.35-1.43,0.16c0.45,0.42,0.9,0.82,1.33,1.24
			c1.85,1.83,3.32,3.88,3.67,6.56C311.86,63.46,311.98,63.83,312.1,64.31z M292.89,52.31c0.87,0.04,1.38-0.42,1.97-0.91
			c0.13-2.24-0.28-4.37-1.58-6.27c-0.45-0.66-0.98-1.28-1.98-1.41c0.01,1.11,0.3,2.04,0.65,2.92c0.56,1.37,0.77,2.79,0.77,4.26
			C292.72,51.37,292.83,51.84,292.89,52.31z M301.74,50c-0.03-2.27-0.93-4-1.92-5.66c-0.33-0.55-1.01-0.91-1.56-1.31
			c-0.11-0.08-0.36,0.03-0.69,0.07c1.24,2.23,1.14,4.67,1.49,7.15C299.99,50.17,300.79,50.09,301.74,50z M245.94,245.47
			c0.07-0.11,0.16-0.18,0.14-0.21c-0.41-1.01-0.89-2-1.25-3.03c-1.13-3.19-1.88-6.48-2.6-9.77c-0.01-0.06-0.07-0.11-0.13-0.15
			c-0.05-0.03-0.13-0.03-0.32-0.08c0.08,0.7,0.19,1.35,0.23,2.01c0.16,2.77,0.99,5.41,1.67,8.07c0.3,1.15,0.94,2.14,1.74,3.01
			C245.53,245.44,245.78,245.43,245.94,245.47z M313.43,46.69c0.09,0.26,0.15,0.52,0.26,0.77c1.06,2.32,1.82,4.75,2.42,7.22
			c0.18,0.76,0.44,1.43,0.86,2.07c0.14,0.22,0.25,0.5,0.6,0.27C317.34,52.63,315.9,48.82,313.43,46.69z M326.02,57.06
			c0.3-1.68,0.23-3.31-0.32-4.92c-0.88-2.59-2.47-4.79-3.9-7.08c-0.18-0.29-0.43-0.66-1.07-0.54c1.12,2.09,2.22,4.07,3.26,6.08
			C325.03,52.64,325.59,54.83,326.02,57.06z M307.22,14.2c-0.68-1.53-1.29-2.68-2.33-3.51c-0.81-0.64-1.67-1.21-2.53-1.77
			c-0.16-0.11-0.44-0.05-0.79-0.07c1.16,1.76,2.21,3.35,3.4,5.16C305.47,14.05,306.21,14.11,307.22,14.2z M322.36,51.36
			c-0.14,0.05-0.28,0.11-0.41,0.16c0.32,1.75,0.85,3.46,0.76,5.26c-0.08,1.73-0.06,3.47-0.08,5.38c0.32-0.28,0.52-0.38,0.61-0.54
			c0.79-1.51,1.12-3.11,0.75-4.8c-0.33-1.48-0.71-2.95-1.1-4.41C322.77,52.05,322.53,51.71,322.36,51.36z M306.69,46.37
			c0.5,1.7,0.99,3.41,1.51,5.11c0.02,0.07,0.22,0.09,0.4,0.15c0.09-0.16,0.29-0.34,0.27-0.48c-0.16-0.88-0.33-1.76-0.58-2.62
			C308.03,47.66,307.56,46.9,306.69,46.37z M282.06,53.57c-0.2,0.11-0.3,0.13-0.31,0.17c-0.3,1.33-0.45,2.7-1.14,3.92
			c-0.06,0.11-0.09,0.3-0.04,0.39c0.13,0.21,0.3,0.41,0.51,0.55c0.04,0.03,0.37-0.2,0.41-0.35c0.22-1,0.42-2.01,0.57-3.03
			C282.12,54.71,282.06,54.18,282.06,53.57z M288.03,52.55c-0.18,1.45-0.32,2.53-0.45,3.62c0,0.04,0.1,0.09,0.15,0.14
			C288.4,55.54,288.44,55.14,288.03,52.55z M237.64,37.75c-0.02-0.05-0.04-0.11-0.06-0.16c-0.1,0.05-0.23,0.09-0.3,0.17
			c-0.03,0.03,0.05,0.16,0.07,0.24C237.45,37.92,237.54,37.84,237.64,37.75z"/>
		<path d="M337.26,220.18c-1.08,0.77-1.79,0.46-2.36,0.19c-0.83-0.38-1.49-0.19-2.12,0.29c-2.15,1.62-4.41,3.12-6.2,5.19
			c-2.06,2.38-4.44,4.38-7.15,5.98c-1.25,0.74-2.55,1.41-3.91,1.9c-2.21,0.8-4.46,1.51-6.73,2.1c-2.86,0.74-5.8,0.64-8.68,0.22
			c-3.16-0.46-6.2-1.38-9.15-2.68c-2-0.89-3.69-2.19-5.42-3.46c-2.52-1.84-5.04-3.68-7.81-5.13c-0.91-0.48-1.85-0.92-2.78-1.01
			c-0.93,0.48-0.79,1.42-1.27,1.99c-0.15,0.18-0.48,0.36-0.67,0.31c-0.2-0.05-0.35-0.37-0.48-0.59c-0.06-0.1-0.02-0.28,0.02-0.41
			c0.41-1.17,0.22-2.32-0.15-3.46c-0.04-0.13-0.09-0.26-0.11-0.4c-0.06-0.48,0.35-1.01,0.85-0.95c1.81,0.2,3.19-0.73,4.58-1.65
			c0.4-0.27,0.8-0.56,1.17-0.87c2.9-2.45,6.27-4.05,9.75-5.45c1.61-0.65,3.24-1.2,4.96-1.52c1.18-0.22,2.18-0.13,3.06,0.76
			c0.54,0.54,1.16,0.99,1.73,1.5c2.48,2.24,5.53,1.66,7.75-0.16c0.21-0.17,0.4-0.39,0.57-0.6c2.11-2.59,4.89-3.19,8.04-2.73
			c2.83,0.42,5.53,1.28,8.12,2.48c2.45,1.14,4.9,2.27,7.36,3.39c0.63,0.29,1.28,0.55,1.95,0.71c0.66,0.17,1.36,0.2,2.18,0.31
			C335.12,217.68,335.56,219.27,337.26,220.18z M323.59,223.52c-0.23-0.3-0.3-0.43-0.41-0.51c-0.16-0.13-0.34-0.26-0.53-0.32
			c-2.91-1.03-5.84-0.96-8.76-0.04c-0.5,0.16-0.98,0.53-1.37,0.91c-0.73,0.7-0.7,1.46,0.01,2.17c0.86,0.87,1.93,1.37,3.14,1.45
			c0.96,0.06,1.96,0.1,2.91-0.05C320.82,226.78,322.58,225.7,323.59,223.52z M290.88,223.19c-0.69,0.05-1.39,0.05-2.06,0.18
			c-0.81,0.15-1.61,0.38-2.24,1c-0.54,0.53-0.61,1.12-0.06,1.61c0.51,0.45,1.08,0.91,1.7,1.11c2.25,0.73,4.58,1.04,6.94,0.85
			c0.54-0.04,1.09-0.18,1.61-0.36c0.9-0.3,1.53-1.09,1.47-1.8c-0.06-0.82-0.69-1.12-1.34-1.41
			C295,223.51,292.98,223.17,290.88,223.19z M314.06,216.23c0.85-0.1,1.82-0.15,2.75-0.36c0.66-0.15,1.29-0.48,1.88-0.82
			c0.55-0.32,0.66-0.84,0.45-1.44c-0.34-0.96-0.89-1.73-1.92-2.01c-2.16-0.59-4.35-0.7-6.54-0.23c-0.52,0.11-1.01,0.44-1.45,0.76
			c-0.55,0.4-0.7,1.09-0.4,1.67c0.53,1.02,1.28,1.82,2.45,2.05C312.16,216.01,313.05,216.09,314.06,216.23z M295.99,233.34
			c0.46,0.3,0.6,0.45,0.78,0.5c2,0.59,4.08,0.69,6.14,0.85c1.93,0.14,3.86,0.09,5.77-0.37c1.07-0.25,1.86-0.92,2.59-1.62
			c0.77-0.74,0.3-1.8-0.78-1.95c-0.98-0.14-1.97-0.09-2.81,0.45c-0.83,0.54-1.79,0.72-2.66,1.11c-2.41,1.08-4.92,1.28-7.51,1.03
			C297.12,233.3,296.72,233.34,295.99,233.34z M294.23,216.42c0.17-0.02,0.65-0.05,1.13-0.12c0.2-0.03,0.41-0.08,0.6-0.16
			c0.82-0.34,1.41-1.42,1-2c-0.65-0.91-1.47-1.72-2.68-1.71c-1.32,0.01-2.6,0.34-3.76,0.98c-0.89,0.49-0.9,1.32-0.08,1.99
			C291.45,216.26,292.65,216.45,294.23,216.42z M308.11,222.73c-0.19-0.1-0.26-0.16-0.32-0.16c-2.65,0.12-5.23-0.29-7.75-1.12
			c-0.38-0.13-0.82-0.15-1.22-0.1c-0.22,0.03-0.52,0.29-0.56,0.49c-0.03,0.19,0.19,0.5,0.38,0.64c0.28,0.19,0.63,0.3,0.96,0.39
			c2.65,0.73,5.33,0.74,8.01,0.16C307.73,222.99,307.84,222.89,308.11,222.73z"/>
		<path d="M273.17,120.54c0.04-0.59,0.08-1.18,0.13-1.87c1.74,0.3,2.52,1.8,3.83,2.53c0.7-0.64,0.16-1.53,0.65-2.24
			c0.94-0.04,1.62,0.53,2.19,1.22c0.61,0.75,1.14,1.57,1.72,2.35c0.32,0.43,0.65,0.85,1.12,1.46c0.2-0.59,0.38-0.95,0.45-1.32
			c0.11-0.61,0.12-1.24,0.24-1.85c0.03-0.15,0.27-0.34,0.44-0.37c0.17-0.02,0.4,0.1,0.54,0.23c0.14,0.13,0.27,0.33,0.31,0.53
			c0.88,4.28,1.62,8.57,1.57,12.96c0,0.2-0.08,0.4-0.13,0.68c-0.26,0.05-0.53,0.19-0.77,0.14c-1.27-0.28-2.54-0.52-3.78-1.01
			c-3.28-1.31-6.64-2.41-10.07-3.27c-3.16-0.79-6.26-1.78-9.43-2.52c-4.18-0.98-8.37-2.02-12.61-2.62
			c-4.38-0.62-8.81-1.08-13.27-1.01c-2.36,0.04-4.72-0.07-7.07-0.05c-0.89,0.01-1.79,0.19-2.68,0.29c-0.89,0.1-1.79,0.2-2.69,0.26
			c-0.27,0.02-0.62,0.02-0.8-0.12c-0.24-0.19-0.45-0.52-0.5-0.82c-0.03-0.18,0.22-0.53,0.42-0.61c1.79-0.75,3.56-1.55,5.4-2.14
			c1.64-0.53,3.36-0.83,5.05-1.2c2.97-0.66,5.93-1.41,8.93-1.9c2.87-0.47,5.79-0.63,8.7-0.58c0.97,0.02,1.93-0.02,2.9-0.02
			c2.64-0.02,5.26,0.19,7.88,0.48c1.1,0.12,2.2,0.2,3.3,0.31c1.72,0.17,3.45,0.32,5.16,0.55c0.45,0.06,0.88,0.34,1.28,0.59
			C272.08,119.87,272.36,120.54,273.17,120.54z"/>
		<path d="M233.97,133.79c-1.56-1.09-3.69-0.97-4.97-2.87c0.58,0.03,0.95-0.05,1.23,0.08c1.56,0.67,3.22,0.79,4.88,0.93
			c1.66,0.14,3.32,0.2,4.98,0.28c0.35,0.02,0.7,0.04,1.04-0.03c1.72-0.36,3.43-0.47,5.17-0.15c2.98-0.6,5.94,0.26,8.92,0.14
			c1.73-0.07,3.46,0.02,5.2,0.01c2.67-0.02,5.24,0.53,7.74,1.41c3.13,1.11,6.26,2.23,9.37,3.42c3.13,1.19,5.95,2.97,8.8,4.7
			c0.12,0.07,0.27,0.13,0.33,0.24c0.12,0.23,0.25,0.49,0.25,0.74c0,0.24-0.56,0.28-0.9,0.08c-1.24-0.75-2.48-1.51-3.74-2.25
			c-0.27-0.16-0.6-0.22-1.15-0.41c0.16,0.5,0.18,0.77,0.31,0.97c0.57,0.87,1.18,1.72,1.74,2.59c0.22,0.34,0.42,0.72,0.55,1.11
			c0.22,0.68-0.08,1.27-0.77,1.47c-0.59,0.17-1.23,0.3-1.84,0.29c-1.75-0.05-3.44,0.25-5.13,0.67c-1.88,0.47-3.8,0.74-5.71,1.09
			c-0.27,0.05-0.56,0.02-0.83,0.09c-5.07,1.31-10.2,0.91-15.3,0.42c-2.93-0.28-5.67-1.31-8.2-2.81c-1.43-0.85-2.76-1.85-4.14-2.78
			c-0.32-0.21-0.66-0.4-0.99-0.59c-0.28,0.43-0.05,0.65,0.14,0.81c1.63,1.39,3.09,2.95,4.94,4.1c2.4,1.49,4.85,2.62,7.73,2.67
			c1.66,0.03,3.31,0.24,4.96,0.37c0.06,0.56-0.28,0.63-0.62,0.61c-2.01-0.13-4.02-0.2-6.01-0.43c-1.89-0.22-3.59-1.06-5.2-2.02
			c-4.17-2.49-7.67-5.71-10.31-9.8c-0.71-1.1-1.25-2.31-1.82-3.49C234.33,134.89,234.16,134.29,233.97,133.79z M235.84,134.28
			c-0.03,0.21-0.09,0.36-0.06,0.48c0.05,0.2,0.13,0.4,0.25,0.56c1.75,2.59,3.61,5.08,6.27,6.85c1.15,0.77,2.25,1.62,3.42,2.37
			c2.54,1.63,5.33,2.7,8.32,3.05c4.9,0.57,9.81,0.9,14.68-0.28c0.2-0.05,0.41-0.05,0.62-0.07c3.12-0.4,5.85-1.61,7.94-4.02
			c0.98-1.13,1.95-2.31,2.26-3.82c-2.23-1.55-5.54-2.74-7.81-2.8c0.02,0.41,0.06,0.81,0.05,1.21c-0.01,1.04-0.09,2.09-0.7,2.99
			c-1.38,2.07-3.13,3.67-5.61,4.36c-2.48,0.68-4.79,0.42-6.92-1.09c-1.56-1.11-2.72-2.54-3.74-4.13c-0.77-1.2-1.27-2.44-1.27-3.88
			c0-0.46-0.14-0.92-0.23-1.49c-0.79,0-1.47,0-2.16,0c-3.12,0.01-6.24,0.02-9.36,0.04c-1.73,0.01-3.47,0-5.18-0.36
			C236.37,134.18,236.09,134.27,235.84,134.28z M268.12,136.86c-0.38,0.81-0.66,1.44-0.97,2.05c-0.99,1.93-2.98,2.84-5.04,2.32
			c-1.14-0.29-1.89-1.1-2.59-1.98c-0.37-0.47-0.56-1.07-1.08-1.54c-0.38,1.55-0.43,1.96,0.02,2.65c0.71,1.1,1.41,2.21,2.74,2.73
			c2.92,1.14,5.72-0.4,6.97-2.59C268.82,139.38,268.75,138.2,268.12,136.86z M280.2,141.71c-1.68,1.78-2.41,2.81-2.66,3.82
			c1.32-0.41,2.6-0.45,3.91-0.24c0.31,0.05,0.68-0.25,1.04-0.39C282.06,143.52,281.13,142.71,280.2,141.71z M262.87,137.1
			c0.3,0.28,0.47,0.5,0.7,0.64c0.74,0.47,1.44,0.34,2.09-0.19c0.54-0.44,0.77-1.36,0.46-2.08c-0.28-0.65-0.91-0.82-1.54-0.83
			c-0.39,0-0.77,0.15-1.16,0.23C263.24,135.63,263.07,136.29,262.87,137.1z"/>
		<path d="M290.39,193.79c1.15-0.18,2.28,0.56,3.27,1.62c0.57,0.61,1.11,1.24,1.7,1.83c1.92,1.91,4.2,2.86,6.96,2.63
			c1.87-0.15,3.73-0.27,5.5-0.98c1.56-0.63,2.92-1.57,4.17-2.7c0.56-0.5,1.22-0.9,1.85-1.31c1.29-0.85,2.52-0.43,3.71,0.25
			c0.45,0.26,0.69,0.68,0.6,1.22c-0.08,0.53-0.54,1.07-1.08,1.12c-0.54,0.06-1.14,0.11-1.65-0.05c-1.43-0.46-2.61-0.01-3.65,0.88
			c-1.18,1.01-2.52,1.69-3.97,2.18c-2.61,0.88-5.3,1.03-8,0.67c-1.76-0.24-3.25-1.18-4.57-2.33c-0.52-0.46-1.02-0.94-1.53-1.41
			c-0.65-0.59-1.35-0.91-2.27-0.67c-0.67,0.18-1.36,0.28-2.05,0.33c-1.08,0.07-1.82-0.63-1.93-1.73c-0.09-0.87,0.23-1.29,1.12-1.41
			C289.03,193.86,289.51,193.85,290.39,193.79z"/>
		<path d="M282.44,182.97c0.54,0.63,0.29,1.1,0.03,1.61c-0.63,1.23-1.23,2.47-1.81,3.72c-1.24,2.68-0.2,6.77,2.08,9
			c0.7,0.68,1.57,1.12,2.54,1.35c0.4,0.09,0.81,0.18,1.18,0.35c0.13,0.06,0.25,0.35,0.22,0.5c-0.03,0.15-0.27,0.37-0.41,0.36
			c-1.41-0.03-2.79-0.27-3.85-1.27c-2.7-2.56-3.78-5.72-3.3-9.41c0.04-0.27,0.07-0.56,0.18-0.81c0.33-0.76,0.64-1.53,1.07-2.23
			C281,185.09,281.15,183.74,282.44,182.97z"/>
		<path d="M293.04,147.51c-0.92-2.46-1.21-4.91-1.42-7.39c-0.1-1.24-0.29-2.47-0.52-3.69c-0.31-1.65-1-3.15-2.03-4.49
			c-0.25-0.33-0.53-0.65-0.68-1.03c-0.08-0.19,0.04-0.59,0.2-0.71c0.15-0.11,0.61-0.08,0.71,0.06c0.71,0.93,1.43,1.86,2.02,2.87
			c0.71,1.2,1.06,2.57,1.19,3.94c0.32,3.23,0.85,6.44,0.63,9.71C293.13,147.03,293.07,147.27,293.04,147.51z"/>
		<path d="M311.41,144.82c-0.06-0.24-0.18-0.47-0.17-0.71c0.04-1.93,0.08-3.87,0.17-5.8c0.09-2,0.97-3.72,2.01-5.37
			c0.1-0.16,0.46-0.17,0.7-0.24c0.06,0.25,0.16,0.49,0.18,0.74c0.01,0.12-0.08,0.26-0.14,0.38c-0.14,0.32-0.28,0.63-0.43,0.94
			c-0.91,1.9-1.28,3.9-1.36,6c-0.05,1.36-0.33,2.72-0.5,4.08C311.72,144.83,311.56,144.83,311.41,144.82z"/>
		<path d="M299.29,205.1c0.48,0.31,0.52,0.79,0.48,1.28c-0.05,0.76-0.16,1.51-0.19,2.27c-0.08,2.02,0.67,2.86,2.74,3.12
			c0.54,0.07,1.09,0.1,1.6,0.15c0.35,0.48,0.27,0.85-0.27,0.95c-1.36,0.26-2.61-0.11-3.73-0.89c-0.72-0.5-1.15-1.27-1.16-2.11
			c-0.01-1.51,0.14-3.02,0.24-4.53C299.02,205.26,299.2,205.19,299.29,205.1z"/>
	</g>
	<text transform="matrix(1 0 0 1 192.9371 413.1382)"><tspan x="0" y="0" class="st5 st6">DAY</tspan><tspan x="21.52" y="74.53" class="st5 st6">2-4</tspan></text>
</g>
</svg>
