<?xml version="1.0" encoding="utf-8"?>
<!-- Generator: Adobe Illustrator 26.4.1, SVG Export Plug-In . SVG Version: 6.00 Build 0)  -->
<svg version="1.1" xmlns="http://www.w3.org/2000/svg" xmlns:xlink="http://www.w3.org/1999/xlink" x="0px" y="0px"
	 viewBox="0 0 441.39 488.35" style="enable-background:new 0 0 441.39 488.35;" xml:space="preserve">
<style type="text/css">
	.st0{display:none;}
	.st1{display:inline;fill:#85D0CB;}
	.st2{display:inline;}
	.st3{fill:#FFFFFF;}
	.st4{fill:none;stroke:#000000;stroke-linecap:round;stroke-linejoin:round;stroke-miterlimit:10;}
	.st5{font-family:'CarolGothic';}
	.st6{font-size:62.1064px;}
</style>
<g id="Layer_2" class="st0">
</g>
<g id="Layer_2_copy" class="st0">
</g>
<g id="Layer_1" class="st0">
</g>
<g id="Layer_3">
</g>
<g id="Layer_4">
</g>
<g id="Layer_1_copy">
</g>
<g id="Layer_6">
</g>
<g id="Layer_7">
	<g>
		<path d="M228.27,236.24c-0.31-0.3-0.69-0.55-0.93-0.9c-2.05-3-4.04-6.04-5.64-9.36c-0.1-0.2-0.3-0.35-0.65-0.75
			c-0.01,0.61-0.06,0.92-0.02,1.21c0.33,2.31,0.68,4.62,1.01,6.93c0.44,3.04,0.86,6.07,1.29,9.11c0.26,1.85,0.48,3.7,0.77,5.54
			c0.49,3.16,0.95,6.33,1.53,9.47c0.42,2.29,0.98,4.55,1.53,6.81c0.14,0.57,0.48,1.07,0.71,1.62c0.1,0.23,0.19,0.49,0.2,0.75
			c0.01,0.14-0.15,0.31-0.26,0.43c-0.04,0.03-0.23-0.05-0.29-0.14c-0.11-0.16-0.19-0.34-0.23-0.53c-0.09-0.39-0.08-0.82-0.23-1.17
			c-1.22-2.82-1.44-5.92-2.12-8.89c-0.8-3.5-1.43-7.05-1.88-10.63c-0.18-1.39-0.39-2.77-0.62-4.15c-0.07-0.44-0.24-0.86-0.41-1.43
			c-0.36,0.15-0.66,0.21-0.88,0.38c-1.97,1.47-3.84,3.07-5.24,5.23c-0.21,0.32-0.47,0.63-0.77,0.84c-1.56,1.1-2.74,2.63-4,4.08
			c-0.21,0.24-0.43,0.47-0.67,0.68c-1.57,1.37-3.13,2.76-4.71,4.1c-1.22,1.03-2.28,2.22-3.26,3.51c-0.54,0.7-0.69,1.57-0.76,2.43
			c-0.22,2.8-0.44,5.61,0.04,8.39c0.49,2.82,0.99,5.64,1.65,8.41c0.33,1.41,1,2.72,1.54,4.07c0.8,2.02,1.54,4.08,2.46,6.03
			c1.11,2.37,2.34,4.69,3.61,6.97c0.63,1.13,1.51,2.09,2.27,3.14c1.5,2.11,2.95,4.26,4.63,6.21c1.52,1.75,3.09,3.42,4.88,4.83
			c0.2,0.16,0.43,0.28,0.58,0.48c0.92,1.23,2.16,1.95,3.42,2.63c0.78,0.42,1.51,0.9,1.99,1.71c0.1,0.18,0.07,0.46,0.13,0.92
			c-3.75-1.87-7.07-4.05-10.22-6.47c-0.38,0.26-0.25,0.51-0.09,0.7c0.8,1.01,1.6,2.02,2.43,3c1.04,1.22,2.09,2.44,3.18,3.61
			c0.92,0.98,1.91,1.87,2.85,2.83c1.65,1.69,3.33,3.32,5.33,4.55c1.11,0.68,2.02,1.74,3.12,2.43c1.9,1.2,3.88,2.26,5.82,3.38
			c0.21,0.12,0.41,0.27,0.61,0.41c-0.12,0.48-0.45,0.48-0.74,0.39c-1.94-0.6-3.9-1.13-5.79-1.87c-2.82-1.1-5.58-2.37-8.37-3.56
			c-0.37-0.16-0.77-0.25-1.42-0.45c1.21,2.08,3.16,2.89,4.47,4.72c-0.39,0.09-0.61,0.22-0.8,0.17c-0.84-0.2-1.64-0.49-2.3-1.16
			c-0.49-0.5-1.06-0.91-1.62-1.31c-3.19-2.28-5.98-5.09-8.77-7.89c-0.54-0.54-1.04-1.14-1.62-1.62c-2.22-1.82-4.03-4.09-5.91-6.28
			c-2.09-2.44-4.19-4.87-6.17-7.41c-1.67-2.13-3.16-4.42-4.77-6.6c-1.77-2.39-3.17-5.07-4.87-7.51c-2.29-3.32-4.19-6.9-6.03-10.52
			c-1.16-2.27-2.07-4.69-3-7.08c-0.96-2.46-1.78-4.98-2.33-7.59c-0.24-1.17-0.52-2.34-0.67-3.53c-0.28-2.25-0.9-4.42-1.14-6.69
			c-0.29-2.75-0.34-5.46-0.03-8.2c0.28-2.45,0.62-4.89,0.77-7.34c0.13-2.15,0.64-4.21,0.91-6.32c0.5-3.84,1.31-7.61,2.19-11.37
			c0.73-3.17,1.35-6.38,2.04-9.56c0.67-3.1,0.56-6.23,0.36-9.38c-0.32-5.08-1.33-10.05-2.2-15.03c-0.17-0.98-0.47-1.94-0.8-2.87
			c-0.53-1.49-1.13-2.96-1.74-4.42c-0.17-0.41-0.45-0.76-0.68-1.14c-0.46,0.24-0.32,0.62-0.28,0.88c0.34,2.27,0.26,4.53-0.02,6.79
			c-0.09,0.73-0.16,1.46-0.16,2.2c-0.01,2.02-0.19,4-0.83,5.91c-0.1,0.31-0.18,0.64-0.25,0.97c-0.38,1.62-0.8,3.2-1.63,4.65
			c-0.58,1.01-0.89,2.2-1.42,3.25c-1.24,2.45-2.58,4.85-3.81,7.3c-0.94,1.87-1.78,3.79-2.41,5.81c-0.22,0.69-0.5,1.36-0.81,2.02
			c-0.99,2.08-1.78,4.24-2.44,6.47c-0.41,1.39-0.82,2.79-1.29,4.16c-0.9,2.59-1.3,5.27-1.49,8.02c-0.13,1.86-0.5,3.69-0.58,5.57
			c-0.06,1.47-0.2,2.93,0,4.4c0.08,0.59,0.06,1.2,0.05,1.8c-0.06,3.01-0.01,6,0.61,8.96c0.24,1.17,0.23,2.41,0.55,3.54
			c0.57,2.04,1.22,4.07,1.99,6.03c1.38,3.5,2.88,6.92,4.63,10.23c1.02,1.93,2.32,3.6,3.64,5.26c1.16,1.47,2.4,2.85,3.62,4.26
			c0.55,0.63,1.14,1.21,1.71,1.81c1.57,1.68,3.13,3.39,4.72,5.05c2.65,2.77,5.4,5.41,8.31,7.87c1.64,1.39,3.6,2.23,5.1,3.81
			c-0.2,0.51-0.62,0.43-0.95,0.35c-1.49-0.37-3.02-0.62-4.43-1.22c-1.99-0.84-3.98-1.71-5.81-2.95c-2.86-1.93-5.77-3.76-8.62-5.71
			c-0.87-0.6-1.58-1.47-2.39-2.18c-0.62-0.54-1.29-1.01-1.94-1.51c-0.25-0.19-0.53-0.35-0.76-0.57c-2.17-2.06-4.49-3.92-6.36-6.34
			c-0.75-0.97-1.63-1.81-2.47-2.69c-3.38-3.52-6.25-7.48-8.96-11.64c-2.1-3.22-4.09-6.5-5.74-10.01c-2.04-4.34-4.01-8.73-5.31-13.41
			c-0.56-2.03-0.78-4.19-1.03-6.31c-0.33-2.78-0.54-5.58-0.77-8.38c-0.05-0.6-0.04-1.21,0.01-1.8c0.11-1.13,0.24-2.26,0.42-3.38
			c0.45-2.83,0.82-5.67,1.44-8.46c0.57-2.59,1.34-5.14,2.17-7.65c1.04-3.14,2.21-6.22,3.39-9.3c0.75-1.97,1.6-3.9,2.44-5.83
			c1.55-3.58,2.74-7.29,3.62-11.12c0.12-0.52,0.26-1.03,0.4-1.54c0.45-1.68,0.72-3.38,0.77-5.13c0.05-1.73,0.18-3.47,0.29-5.2
			c0.26-4.17-0.19-8.29-0.83-12.38c-0.65-4.15-1.52-8.26-2.25-12.39c-0.44-2.49-0.81-5-1.2-7.5c-0.09-0.59-0.15-1.2-0.14-1.8
			c0.09-3.81,0.18-7.61,0.58-11.4c0.32-3.06,0.93-6.06,1.22-9.11c0.88-2.49,1-5.24,2.2-7.62c0.2-0.4,0.29-0.87,0.42-1.32
			c0.11-0.38,0.17-0.79,0.33-1.14c1.27-2.73,2.56-5.46,3.85-8.18c0.26-0.54,0.42-1.04,0.37-1.7c-0.11-1.62,0.24-3.16,0.76-4.69
			c0.6-1.75,1.37-3.42,2.11-5.09c0.61-1.37,1.45-2.63,2.22-3.91c0.67-1.12,1.38-2.21,2.06-3.32c1.7-2.77,3.26-5.64,4.68-8.6
			c0.86-1.79,1.58-3.6,2.09-5.54c0.55-2.08,0.74-4.19,0.88-6.33c0.18-2.73,0.26-5.48,0.52-8.21c0.23-2.39,0.54-4.78,1-7.13
			c0.34-1.75,0.91-3.47,1.51-5.14c1.21-3.36,2.63-6.62,4.23-9.78c1.54-3.06,3.48-5.8,5.84-8.18c2.25-2.27,4.62-4.33,7.25-6.08
			c2.89-1.92,5.97-3.31,9.14-4.5c0.63-0.24,1.3-0.41,1.9-0.72c2.46-1.26,5.06-1.98,7.76-2.26c2.49-0.26,5-0.46,7.5-0.58
			c1.27-0.06,2.54,0.12,4.05,0.2c1.76-2.07,4.4-3.1,6.76-4.62c0.94-0.6,2.01-0.99,3.06-1.33c3.57-1.15,7.12-2.4,10.87-2.74
			c4.72-0.43,9.38-0.23,14.01,1.04c2.59,0.71,4.91,1.97,7.24,3.3c2.29,1.3,4.3,3.05,6.37,4.68c1.98,1.56,3.23,3.75,3.85,6.39
			c0.68,2.92,0.22,2.21,2.67,3.2c3.26,1.32,6.18,3.3,8.55,6.05c2.04,2.37,3.82,4.98,5.11,8.01c0.78,1.85,1.34,3.76,1.71,5.68
			c0.58,2.99,0.86,6.05-0.33,9.03c-0.49,1.22-0.78,2.53-1.18,3.79c-0.82,2.59-2.18,4.75-4.19,6.43c-0.65,0.54-1.31,0.94-2.12,1.12
			c-1.08,0.24-2.14,0.55-3.22,0.83c-0.64,0.81-1.24,1.65-1.92,2.41c-0.55,0.62-1.16,1.21-1.82,1.67c-0.5,0.35-1.11,0.57-1.7,0.66
			c-1.55,0.23-3.16-0.29-4.57-1.4c-0.49,0.24-1.03,0.54-1.59,0.77c-0.68,0.29-1.34,0.54-2.12,0.42c-1.34-0.2-2.14-1.05-2.4-2.38
			c-0.22-1.11-0.58-2.06-1.41-2.71c-1.04-0.83-2.14-1.56-3.49-1.63c-3.56-0.17-6.9,1.63-8.38,5.77c-0.81,2.25-1.41,4.54-1.28,7.02
			c0.11,2.07,0.04,4.15,0.07,6.22c0.08,4.39-0.87,8.51-2.92,12.25c-0.93,1.7-2.21,3.19-3.41,4.71c-0.42,0.54-1.04,0.93-1.62,1.27
			c-1.86,1.09-3.33,2.71-4.87,4.22c-0.22,0.22-0.39,0.52-0.53,0.81c-1.15,2.37-2.16,4.8-2.68,7.43c-0.15,0.75-0.16,1.54-0.24,2.31
			c-0.18-0.02-0.35,0.02-0.4-0.05c-0.76-1-1.16-2.14-1.25-3.46c-0.25-3.71,0.55-7.01,2.94-9.78c1.89-2.19,3.68-4.48,5.58-6.64
			c1.06-1.2,1.76-2.55,2.13-4.14c0.57-2.48,0.81-5,0.55-7.56c-0.21-2.06-0.42-4.12-0.56-6.18c-0.26-3.8,0.3-7.46,1.71-10.96
			c0.07-0.17,0.08-0.38,0.13-0.6c-1.13-0.52-2.24-1.03-3.47-1.6c-0.81,0.53-1.73,1.04-2.54,1.71c-0.34,0.29-0.49,0.9-0.65,1.4
			c-0.51,1.64-1,3.3-1.47,4.95c-0.35,1.21-0.7,2.42-0.98,3.65c-0.51,2.29-1.38,4.42-2.29,6.54c-0.6,1.39-1.23,2.77-1.76,4.19
			c-0.49,1.31-1.13,2.51-1.82,3.7c-2.29,3.95-4.88,7.68-7.49,11.38c-2.72,3.84-6.02,6.97-9.92,9.35c-2.25,1.37-4.58,2.53-6.9,3.72
			c-2.54,1.31-5.05,2.7-7.58,4.04c-2.15,1.14-4.29,2.28-6.22,3.82c-0.93,0.74-1.76,1.64-2.61,2.49c-0.34,0.34-0.4,0.81-0.36,1.3
			c0.37,4.93,0.7,9.86,1.8,14.68c0.44,1.93,0.69,3.92,1.07,5.87c0.15,0.78,0.42,1.53,0.63,2.29c1.16,4.15,2.2,8.35,3.51,12.44
			c0.95,2.95,2.27,5.76,3.42,8.63c0.49,1.22,0.92,2.48,1.5,3.65c1.22,2.48,2.69,4.78,4.53,6.77c0.17,0.18,0.41,0.29,0.62,0.44
			c-0.22,0.54-0.36,0.87-0.52,1.26c-0.25-0.17-0.45-0.23-0.54-0.37c-1.05-1.55-2.11-3.11-3.13-4.69c-1.64-2.52-2.69-5.39-3.96-8.13
			c-0.27-0.58-0.38-1.3-1.1-1.48c-0.01-0.13-0.02-0.25-0.03-0.37c0.01,0.11,0.03,0.22,0.04,0.33c0.58,3.28,1.31,6.5,2.21,9.69
			c0.83,2.93,1.49,5.91,2.23,8.86c0.92,3.66,1.74,7.35,2.79,10.98c1.13,3.88,2.6,7.61,3.87,11.43c1.1,3.32,2.17,6.65,3.35,9.94
			c0.91,2.54,1.93,5.05,2.97,7.53c0.84,2,1.77,3.95,2.68,5.91c0.3,0.65,0.66,1.28,1.03,1.89c1.17,1.95,2.37,3.88,3.51,5.85
			c0.35,0.61,0.54,1.33,0.8,2L228.27,236.24z M188.68,169.51c0,0.15,0,0.31,0,0.13c0.04,0.19,0.01,0.05-0.02-0.09
			c-0.06-0.47-0.11-0.94-0.17-1.41c-0.27-0.67-0.62-1.31-0.78-2.01c-0.57-2.46-1.07-4.94-1.59-7.41c-0.3-1.43-0.65-2.86-0.83-4.31
			c-0.5-4.13-0.37-8.27,0.19-12.39c0.27-1.98,0.71-3.94,0.94-5.92c0.35-2.93,0.71-5.84,2.07-8.46c0.06-0.11,0.07-0.26,0.11-0.38
			c0.72-2.29,1.81-4.36,3.03-6.38c0.89-1.47,2.18-2.53,3.17-3.88c1.8-2.45,4.24-4.01,6.61-5.65c1.49-1.03,3.12-1.83,4.69-2.71
			c1.3-0.73,2.62-1.43,3.92-2.16c0.81-0.46,1.55-1.1,2.4-1.42c2.1-0.81,4.02-2.02,5.73-3.49c2.2-1.9,4.4-3.79,6.39-6
			c2.64-2.94,4.8-6.25,6.65-9.78c1.91-3.65,3.7-7.39,5.08-11.33c0.8-2.31,1.74-4.56,2.31-6.96c0.32-1.35,0.77-2.68,1.24-3.98
			c0.98-2.73,1.93-5.47,3.05-8.15c0.74-1.77,1.54-3.48,2.48-5.12c0.55-0.96,1.22-1.83,1.78-2.77c0.8-1.35,1.52-2.74,2.32-4.09
			c1.49-2.49,3.36-4.64,5.62-6.25c2.25-1.59,4.71-2.84,7.28-3.75c2.45-0.87,5.03-1.1,7.52-1.74c0.12-0.03,0.24-0.02,0.36-0.03
			c2.23-0.1,4.4,0.24,6.41,1.32c1.04,0.56,2.13,1.08,3.01,1.86c1.89,1.7,3.4,3.75,4.59,6.16c1.53,3.11,2.62,6.31,3.05,9.8
			c0.03,0.22,0.15,0.43,0.27,0.72c0.55-0.97,0.65-1.29,0.56-2.31c-0.1-1.2-0.23-2.39-0.41-3.57c-0.11-0.71-0.3-1.43-0.56-2.09
			c-0.37-0.91-0.91-1.73-1.26-2.64c-0.47-1.22-1.2-2.14-2.17-2.9c-0.69-0.54-1.4-1.12-1.9-1.85c-0.99-1.44-2.41-2.27-3.73-3.18
			c-1.26-0.87-2.75-1.42-4.2-1.88c-2.06-0.67-4.2-0.84-6.34-0.45c-1.38,0.25-2.76,0.57-4.11,0.98c-3.37,1.04-6.6,2.46-9.37,4.85
			c-1.19,1.03-2.25,2.25-3.28,3.47c-2.99,3.53-5.72,7.25-7.53,11.71c-1.84,4.52-3.75,8.99-5.27,13.66c-0.9,2.76-1.96,5.47-3.04,8.16
			c-0.69,1.71-1.6,3.31-2.33,5c-1.47,3.38-3.13,6.65-4.91,9.84c-0.35,0.62-0.75,1.23-1.2,1.76c-1,1.17-2.09,2.25-3.07,3.43
			c-2.03,2.46-4.37,4.46-7.03,6.04c-0.21,0.13-0.41,0.29-0.61,0.44c-2.52,1.91-5.22,3.46-8.03,4.81c-0.5,0.24-0.97,0.57-1.45,0.86
			c-0.85,0.53-1.69,1.09-2.55,1.58c-2.55,1.46-4.95,3.18-7.2,5.14c-3.13,2.74-5.89,5.88-7.89,9.67c-1.42,2.69-2.9,5.4-3.75,8.42
			c-0.45,1.59-0.95,3.17-1.33,4.77c-0.32,1.35-0.5,2.75-0.77,4.12c-0.48,2.43-0.77,4.91-0.65,7.36c0.17,3.45,0.49,6.89,1.47,10.26
			c1.13,3.89,2.73,7.54,4.21,11.21c0.26,0,0.44,0,0.61,0.02C188.16,169,188.16,169.01,188.68,169.51z M199.46,21.36
			c-0.35,0.31-0.69,0.62-1.04,0.93c0.52-0.12,1.16-0.15,1.02-0.97c0.09,0.06,0.18,0.14,0.28,0.15c0.06,0.01,0.12-0.12,0.18-0.18
			c-0.05-0.02-0.1-0.06-0.13-0.05C199.66,21.27,199.56,21.32,199.46,21.36z M213.58,94.61c0.63-0.19,1.17-0.52,1.46-1.21
			c0.23-0.08,0.48-0.1,0.68-0.24c2.8-1.96,4.99-4.68,7.31-7.22c2.53-2.78,4.11-6.26,5.52-9.81c0.63-1.58,1.09-3.27,1.87-4.75
			c0.72-1.37,1.06-2.83,1.44-4.3c0.05-0.21-0.03-0.46-0.07-1.04c-0.36,0.6-0.59,0.9-0.73,1.24c-0.39,0.98-0.71,1.99-1.1,2.97
			c-0.61,1.53-1.26,3.03-1.9,4.55c-0.15,0.36-0.32,0.72-0.49,1.07c-1.04,2.2-2.38,4.19-3.76,6.15c-0.78,1.11-1.55,2.23-2.32,3.35
			c-0.51,0.74-0.97,1.55-1.55,2.22c-1.54,1.8-3.13,3.54-4.7,5.32c-0.11,0.12-0.12,0.35-0.18,0.52c-0.7,0.1-1.29,0.35-1.45,1.22
			c-0.38-0.07-0.66,0.04-0.81,0.67C213.19,95.12,213.46,94.99,213.58,94.61z M202.17,78.55c0.37-0.2,0.8-0.32,1.1-0.61
			c1.64-1.59,3.29-3.16,4.85-4.85c1.87-2.02,3.48-4.27,4.75-6.8c0.13-0.26,0.22-0.56,0.36-0.94c-0.59-0.1-0.79,0.21-0.99,0.53
			c-0.65,1.04-1.23,2.15-1.97,3.11c-1.25,1.63-2.57,3.19-3.92,4.72c-1.18,1.34-2.44,2.6-3.66,3.89c-0.26,0.27-0.58,0.5-0.49,0.98
			c-0.4-0.13-0.64-0.01-0.62,0.66C201.83,78.95,202,78.75,202.17,78.55z M277.36,42.88c-0.05-0.09-0.1-0.18-0.15-0.27
			c0.06,0.08,0.13,0.16,0.19,0.23c0.01,0.59-0.03,1.2,0.05,1.78c0.21,1.51,0.43,3.02,0.72,4.51c0.38,1.97,0.13,3.82-0.66,5.62
			c-0.15,0.34-0.26,0.79-0.17,1.13c0.16,0.6,0.48,1.16,0.75,1.77c0.87-0.91,0.97-1.08,1.15-2.03c0.77-4.04,0.31-7.94-1.13-11.72
			C277.96,43.51,277.88,42.97,277.36,42.88z M210.13,45.5c0.52,0.07,0.55-0.43,0.69-0.75c1.02-2.28,2.13-4.49,3.48-6.57
			c1.06-1.63,2.03-3.33,3.03-5c0.22-0.37,0.56-0.73,0.2-1.31c-1.82,0.83-3.12,2.3-4.18,4.03c-1.16,1.89-1.95,3.99-2.64,6.13
			c-0.36,1.13-0.62,2.29-0.53,3.52c-0.29,0.34-0.36,0.71-0.17,1.23C210.37,46.3,210.34,45.91,210.13,45.5z M180.46,70.05
			c0.17-0.17,0.38-0.32,0.5-0.53c0.9-1.54,1.39-3.26,1.8-5.01c0.54-2.34,0.77-4.73,1.05-7.11c0.47-3.98,1.04-7.94,1.51-11.91
			c0.11-0.94,0.29-1.83,0.65-2.69c0.82-1.94,1.75-3.84,2.37-5.86c0.55-1.82,1.38-3.44,2.42-4.91c2.02-2.84,3.8-5.92,6.48-8.14
			c0.14-0.12,0.44-0.29,0.21-0.61c-0.13,0.01-0.27-0.02-0.35,0.04c-2.27,1.83-4.25,3.98-6.03,6.36c-0.85,1.14-1.47,2.45-2.21,3.67
			c-1.65,2.69-2.57,5.74-3.76,8.65c-0.57,1.39-0.85,2.92-1.4,4.32c-0.66,1.68-0.98,3.42-1.12,5.23c-0.27,3.32-0.36,6.65-0.59,9.97
			c-0.15,2.18-0.24,4.39-1.14,6.44c-0.28,0.63-0.23,1.43-0.34,2.15c-0.09,0.05-0.21,0.08-0.26,0.17c-0.02,0.04,0.07,0.17,0.12,0.26
			c0.04-0.04,0.1-0.09,0.1-0.13C180.48,70.28,180.47,70.16,180.46,70.05z M156.76,216.38c-0.74,0.03-0.77,0.78-0.97,1.26
			c-1.34,3.16-2.08,6.54-2.87,9.89c-0.41,1.74-0.55,3.55-0.93,5.3c-0.65,3.08-0.93,6.18-0.83,9.33c0.02,0.53-0.03,1.07,0.04,1.6
			c0.36,2.7,0.72,5.39,1.27,8.07c0.82,4.01,2.23,7.74,3.91,11.37c0.21,0.45,0.53,0.85,0.82,1.31c0.1-0.16,0.17-0.23,0.16-0.27
			c-0.23-1.17-0.45-2.34-0.71-3.5c-0.53-2.4-1.13-4.78-1.62-7.19c-0.33-1.63-0.67-3.28-0.76-4.93c-0.22-3.99-0.66-7.97-0.57-11.99
			c0.07-3.01,0.18-6.01,0.73-8.97c0.39-2.09,0.97-4.13,1.4-6.22c0.35-1.69,0.6-3.4,0.89-5.11c0.15-0.24,0.37-0.47-0.07-0.95
			C156.7,215.85,156.73,216.11,156.76,216.38z M236.58,31.68c-0.08-0.11-0.15-0.22-0.23-0.33c-0.42,0.22-0.86,0.42-1.27,0.67
			c-0.32,0.2-0.61,0.45-0.89,0.71c-1.41,1.29-2.68,2.71-3.91,4.21c-1.84,2.26-3.31,4.8-4.79,7.33c-0.29,0.5-0.49,1.07-0.7,1.63
			c-1.08,2.91-2.03,5.88-2.55,8.98c-0.04,0.26-0.14,0.51-0.22,0.76c-0.75,2.54-1.51,5.08-2.26,7.62c-0.11,0.38-0.22,0.77-0.39,1.12
			c-1.79,3.9-3.79,7.64-6.69,10.71c-1.32,1.39-2.67,2.75-3.99,4.14c-2.21,2.33-4.76,4.18-7.33,5.98c-2.77,1.94-5.68,3.66-8.5,5.52
			c-3.8,2.49-7.15,5.59-10.17,9.13c-2.53,2.97-4.32,6.48-5.87,10.12c-1.13,2.65-2.16,5.36-3,8.15c-0.49,1.65-1.09,3.26-1.51,4.93
			c-0.5,2-0.62,4.08-0.63,6.16c0,0.08,0.14,0.15,0.31,0.33c0.22-0.6,0.5-1.11,0.6-1.67c0.31-1.72,0.9-3.31,1.58-4.89
			c0.85-1.98,1.53-4.05,2.46-6c1.28-2.66,2.73-5.2,4.27-7.68c0.99-1.6,2.02-3.19,3.16-4.66c1.66-2.14,3.39-4.21,5.17-6.24
			c1.31-1.49,2.73-2.87,4.13-4.26c0.54-0.53,1.18-0.96,1.77-1.42c2.03-1.6,4.03-3.25,6.11-4.78c2.03-1.49,4.15-2.82,6.2-4.25
			c1.08-0.76,2.15-1.54,3.15-2.41c1.38-1.21,2.65-2.58,4.04-3.77c2.26-1.94,3.78-4.51,5.35-7.07c1.08-1.76,1.71-3.67,2.24-5.67
			c0.68-2.56,1.38-5.12,2.08-7.68c0.21-0.77,0.51-1.51,0.68-2.28c0.6-2.74,1.61-5.33,2.59-7.92c1.57-4.15,3.94-7.83,6.13-11.61
			c0.26-0.44,0.66-0.78,0.98-1.19C235.33,33.29,235.95,32.48,236.58,31.68z M199.95,72.79c-1.3,0.48-2.48,1.16-3.59,1.96
			c-2.08,1.5-4.03,3.23-6.37,4.27c-0.33,0.15-0.6,0.45-0.91,0.67c-1.06,0.78-2.12,1.56-3.19,2.32c-2.05,1.45-4.12,2.86-6.15,4.34
			c-1.72,1.25-3.47,2.45-4.99,4.03c-1.14,1.19-2.42,2.22-3.66,3.28c-0.83,0.72-1.44,1.63-2,2.58c-0.62,1.06-1.23,2.14-1.84,3.21
			c-0.32,0.57-0.67,1.12-0.94,1.72c-1.55,3.4-3.06,6.83-4.63,10.22c-1.34,2.9-1.89,6.05-2.47,9.18c-0.44,2.34-0.64,4.74-0.93,7.11
			c-0.14,1.12-0.33,2.25-0.38,3.38c-0.09,1.99-0.01,3.99-0.14,5.98c-0.16,2.49,0.33,4.92,0.52,7.37c0.12,1.45,0.45,2.87,0.72,4.3
			c0.05,0.26,0.07,0.67,0.55,0.63c-0.03-3.47-0.08-6.94-0.1-10.4c-0.01-1.2-0.07-2.42,0.11-3.6c0.47-2.96,1.04-5.89,1.61-8.83
			c0.35-1.83,0.79-3.63,1.14-5.46c0.57-3.01,1.27-6.01,2.27-8.86c1.35-3.86,3.04-7.58,5.15-11.04c1.25-2.05,2.58-4.04,4.04-5.94
			c1.1-1.43,2.29-2.75,3.49-4.08c1.51-1.67,3.16-3.1,4.95-4.38c1.64-1.16,3.19-2.47,4.82-3.64c2.91-2.08,5.87-4.08,8.78-6.18
			C197.36,75.83,198.87,74.58,199.95,72.79z M202.13,183.89c-0.11,0.04-0.23,0.08-0.34,0.11c0,0.39-0.03,0.79,0,1.18
			c0.18,2.06,0.44,4.11,0.55,6.18c0.19,3.46,0.51,6.93,0.06,10.4c-0.18,1.39-0.37,2.79-0.43,4.18c-0.13,3.31-0.96,6.44-1.83,9.57
			c-0.67,2.43-1.37,4.85-2.05,7.27c-0.13,0.45-0.29,0.89-0.36,1.35c-0.39,2.5-1.18,4.89-1.55,7.41c-0.56,3.82-1.43,7.59-1.93,11.42
			c-0.59,4.43-0.98,8.89-1.35,13.34c-0.31,3.8-0.21,7.61,0.34,11.39c0.05,0.34-0.04,0.82,0.57,0.96c0.07-0.31,0.18-0.61,0.2-0.92
			c0.28-3.06,0.61-6.11,0.79-9.17c0.28-4.94,0.55-9.87,1.15-14.78c0.28-2.32,0.44-4.67,0.95-6.94c1.63-7.26,3.47-14.47,5.48-21.62
			c0.56-1.98,1.08-3.97,1.54-5.98c0.97-4.24,1.41-8.55,1.22-12.92c-0.04-0.8-0.15-1.59-0.25-2.38c-0.37-2.86-1.32-5.56-2.03-8.32
			C202.71,185.03,202.38,184.47,202.13,183.89z M185.13,259.04c0.12,0,0.23-0.01,0.35-0.01c0.05-0.24,0.12-0.48,0.14-0.73
			c0.03-0.6,0.07-1.21,0.03-1.8c-0.13-1.87-0.07-3.74-0.07-5.61c-0.01-4.87,1.04-9.55,2.09-14.22c0.23-1.03,0.69-1.99,0.85-3.05
			c0.22-1.46,0.72-2.82,1.19-4.2c0.45-1.31,0.73-2.68,1.09-4.03c0.15-0.57,0.29-1.15,0.48-1.71c0.42-1.25,0.91-2.48,1.28-3.75
			c0.58-2.04,1.11-4.1,1.61-6.17c0.3-1.23,0.52-2.47,0.73-3.72c0.18-1.05,0.24-2.12,0.42-3.17c0.72-4.09,1.06-8.2,0.66-12.36
			c-0.11-1.13-0.11-2.28-0.31-3.39c-0.49-2.75-1.02-5.48-1.88-8.15c-0.91-2.84-1.84-5.66-3.07-8.36c-0.21-0.45-0.28-1.03-0.89-1.24
			c-0.04,0.64,0.05,1.2,0.31,1.75c0.22,0.47,0.42,0.97,0.53,1.49c0.55,2.6,1.17,5.18,1.84,7.75c0.78,3.01,1.38,6.07,1.91,9.15
			c0.27,1.56,0.37,3.2,0.26,4.78c-0.2,2.72-0.6,5.43-0.98,8.14c-0.3,2.18-0.89,4.29-1.52,6.39c-0.86,2.92-1.67,5.87-2.39,8.84
			c-0.69,2.84-1.44,5.66-2.37,8.42c-0.27,0.81-0.68,1.56-0.98,2.36c-0.79,2.11-1.16,4.36-1.59,6.57c-0.61,3.14-0.76,6.36-0.84,9.57
			c-0.07,2.68,0.36,5.32,0.54,7.97C184.61,257.39,184.93,258.21,185.13,259.04z M165.92,157.93c0.17,2.11,0.29,4.03,0.5,5.95
			c0.26,2.38,0.48,4.78,0.93,7.12c0.55,2.9,0.77,5.79,0.57,8.75c-0.09,1.33-0.17,2.66-0.47,3.96c-0.24,1.03-0.47,2.07-0.7,3.11
			c-0.63,2.78-1.39,5.52-2.53,8.12c-0.31,0.72-0.51,1.5-0.75,2.25c-0.89,2.71-1.26,5.55-1.87,8.33c-0.08,0.37-0.09,0.76-0.16,1.47
			c0.42-0.43,0.68-0.6,0.82-0.85c1.89-3.2,3.54-6.53,4.85-10.06c0.05-0.12,0.1-0.25,0.13-0.37c0.62-2.51,1.28-5,1.84-7.52
			c0.34-1.55,0.7-3.14,0.75-4.72c0.13-3.79,0.23-7.6-0.51-11.36c-0.2-1.03-0.24-2.1-0.56-3.13c-0.37-1.2-0.65-2.43-0.94-3.65
			C167.26,162.89,166.96,160.39,165.92,157.93z M220.07,78.12c-0.3,0.4-0.59,0.81-0.89,1.21c-0.34,0.47-0.68,0.94-0.99,1.43
			c-0.86,1.34-2.1,2.2-3.23,3.22c-2.84,2.56-5.93,4.7-9.07,6.76c-4.07,2.68-8.16,5.31-11.71,8.86c-1.66,1.67-3.36,3.27-4.8,5.17
			c-0.58,0.77-1.28,1.43-1.87,2.19c-0.67,0.86-1.27,1.79-1.9,2.69c-0.44,0.63-0.91,1.24-1.31,1.9c-0.6,1-1.08,2.1-1.73,3.05
			c-1.14,1.66-1.96,3.51-2.78,5.37c-0.07,0.17-0.33,0.44,0.03,0.62c0.57-0.26,0.71-0.88,1.01-1.37c1.09-1.85,2.11-3.76,3.29-5.54
			c1.18-1.78,2.51-3.45,3.79-5.15c1.36-1.8,2.76-3.56,4.44-5.04c0.9-0.79,1.85-1.56,2.64-2.47c1.51-1.72,3.41-2.82,5.2-4.07
			c3.24-2.25,6.63-4.24,9.92-6.4c1.68-1.1,3.25-2.38,4.54-4.02c1.43-1.82,2.87-3.64,4.26-5.5
			C219.51,80.23,220.05,79.35,220.07,78.12z M203.5,32.55c-0.1-0.07-0.19-0.14-0.29-0.21c-0.25,0.28-0.52,0.54-0.74,0.83
			c-1.33,1.76-2.34,3.74-3.29,5.77c-2.01,4.3-3.62,8.77-4.62,13.48c-1.09,5.15-2.35,10.23-4.45,15.02c-0.39,0.9-0.67,1.84-0.75,3.02
			c0.44-0.27,0.78-0.41,1.04-0.65c1.1-0.99,1.96-2.21,2.66-3.55c1.19-2.27,2.19-4.63,2.86-7.15c0.26-0.96,0.52-1.92,0.82-2.87
			c0.65-2.03,1.07-4.1,1.3-6.24c0.33-2.98,0.73-5.97,1.73-8.79c0.93-2.62,1.95-5.19,3.23-7.64
			C203.19,33.25,203.34,32.89,203.5,32.55z M168.39,206.84c0.24-0.06,0.39-0.05,0.43-0.12c1.1-1.69,2.09-3.47,2.71-5.43
			c0.68-2.14,1.29-4.32,1.82-6.51c0.81-3.36,1.48-6.75,1.61-10.25c0.1-2.74,0.19-5.46-0.19-8.2c-0.26-1.92-0.39-3.84-1.06-5.67
			c-0.29-0.8-0.45-1.68-0.52-2.54c-0.25-2.99-0.64-5.96-1.01-8.93c-0.64-5.24-1.38-10.45-2.26-15.64c-0.05-0.28,0.04-0.68-0.49-0.73
			c-0.37,0.93-0.42,1.91-0.36,2.91c0.08,1.46,0.35,2.94,0.25,4.38c-0.09,1.3,0.1,2.53,0.31,3.77c0.36,2.16,0.56,4.35,1.18,6.47
			c0.6,2.09,0.91,4.28,1.44,6.4c0.65,2.58,1.11,5.2,1.39,7.84c0.33,3.12,0.29,6.27,0.23,9.41c-0.02,0.73-0.12,1.47-0.28,2.18
			c-0.82,3.7-1.63,7.4-2.52,11.08c-0.57,2.39-1.18,4.77-2.07,7.05C168.69,205.07,168.59,205.94,168.39,206.84z M199.73,266.61
			c0.06-0.38,0.12-0.57,0.12-0.76c-0.08-2.47-0.22-4.94-0.23-7.41c-0.01-1.19,0.19-2.39,0.35-3.58c0.28-2.11,0.55-4.24,0.93-6.33
			c0.48-2.69,1.04-5.36,1.62-8.02c0.36-1.69,0.82-3.35,1.23-5.03c0.31-1.29,0.57-2.6,0.9-3.89c0.63-2.44,1.39-4.85,1.92-7.32
			c1.15-5.4,1.97-10.88,2.51-16.4c0.06-0.63,0.01-1.28,0.01-2.02c-0.49,0.41-0.55,0.88-0.64,1.32c-0.62,3.06-1.18,6.14-1.89,9.17
			c-0.84,3.55-1.76,7.08-2.77,10.58c-1.1,3.82-1.81,7.75-2.6,11.65c-0.14,0.72-0.14,1.47-0.29,2.18c-0.56,2.68-0.91,5.38-1.06,8.12
			c-0.06,1.06-0.18,2.13-0.37,3.18c-0.7,3.83-0.58,7.7-0.49,11.57c0.02,0.73,0.18,1.46,0.33,2.17
			C199.34,266.04,199.53,266.24,199.73,266.61z M148.01,232.37c0.39-0.94,0.55-1.85,0.59-2.79c0.1-2.56,0.67-5.02,1.32-7.46
			c1.75-6.54,4.05-12.87,6.5-19.13c0.5-1.29,1.15-2.51,1.56-3.83c0.9-2.91,1.7-5.85,2.51-8.79c0.16-0.57,0.2-1.18,0.24-1.78
			c0.02-0.21,0.11-0.55-0.36-0.59c-0.11,0.18-0.31,0.37-0.37,0.6c-0.57,2.04-1.62,3.9-1.95,6.03c-0.03,0.19-0.08,0.41-0.18,0.57
			c-1.04,1.67-1.59,3.6-2.36,5.4c-1.26,2.96-2.41,5.98-3.62,8.96c-0.47,1.17-0.59,2.46-0.99,3.62c-0.87,2.51-1.4,5.1-1.96,7.7
			c-0.28,1.3-0.58,2.59-0.77,3.91c-0.24,1.58-0.44,3.17-0.53,4.77C147.6,230.47,147.51,231.43,148.01,232.37z M188.29,58.96
			c0.38-1.04,0.66-1.63,0.81-2.25c0.5-2.06,0.94-4.14,1.42-6.21c0.23-0.97,0.48-1.93,0.75-2.88c0.3-1.08,0.7-2.14,0.94-3.24
			c0.32-1.5,0.75-2.96,1.37-4.34c0.93-2.1,1.82-4.25,3.01-6.17c1.78-2.86,3.61-5.7,5.73-8.29c0.16-0.19,0.31-0.41,0.03-0.64
			c-0.06,0.01-0.13,0.01-0.18,0.04c-3.07,2.25-5.44,5.3-7.87,8.28c-0.08,0.1-0.13,0.23-0.19,0.34c-1.34,2.55-2.36,5.26-3.47,7.93
			c-0.42,1.02-0.68,2.15-0.86,3.25c-0.42,2.55-0.78,5.11-1.11,7.67c-0.19,1.45-0.13,2.92-0.44,4.36
			C188.1,57.34,188.24,57.93,188.29,58.96z M251.83,76.58c0.46-0.6,0.43-1.17,0.42-1.66c-0.05-2.07,0.11-4.13,0.22-6.19
			c0.17-3.2,0.94-6.14,2.7-8.76c1.66-2.47,3.62-4.46,6.24-5.68c3.67-1.71,7.14-1.26,10.52,0.82c0.52,0.32,0.95,0.83,1.35,1.32
			c1.07,1.31,1.74,2.85,2.1,4.81c0.73-1.35,0.74-2.51,0.11-3.58c-0.56-0.94-1.2-1.91-2-2.59c-1.64-1.41-3.55-2.37-5.52-3.02
			c-1.96-0.65-3.99-0.38-5.92,0.42c-0.79,0.33-1.62,0.65-2.32,1.16c-1.27,0.92-2.49,1.91-3.66,2.98c-2.58,2.38-4.02,5.44-4.46,9.12
			c-0.39,3.27-0.07,6.52-0.02,9.78C251.61,75.81,251.72,76.11,251.83,76.58z M190.29,141.2c-0.52,0.05-0.59,0.39-0.65,0.72
			c-0.42,2.5-0.81,4.98-0.65,7.55c0.2,3.19,0.21,6.39,1.08,9.5c1.13,4.03,2.55,7.93,4.37,11.65c1.44,2.94,2.89,5.88,4.34,8.81
			c0.07,0.14,0.22,0.23,0.55,0.55c-0.1-0.6-0.11-0.93-0.22-1.21c-1.02-2.71-2.08-5.41-3.09-8.13c-1.04-2.78-2.53-5.34-3.35-8.22
			c-0.4-1.4-0.73-2.83-1.08-4.24c-0.99-3.95-1.45-7.98-1.36-12.08c0.02-1.07,0.13-2.13,0.16-3.2
			C190.41,142.34,190.33,141.77,190.29,141.2z M237.94,10.51c0.37,0.19,0.57,0.38,0.78,0.39c0.55,0.03,1.11,0.04,1.64-0.05
			c2.99-0.53,5.98-0.27,8.94,0.15c2.24,0.32,4.45,0.86,6.66,1.38c1.01,0.24,2.12,0.44,2.94,1.06c1.23,0.94,2.69,1.62,3.51,3.14
			c0.36,0.67,0.98,0.78,1.61,0.6c0.4-0.11,0.77-0.36,1.24-0.58c-0.22-0.41-0.33-0.82-0.58-1.07c-1.37-1.35-2.85-2.51-4.62-3.19
			c-1.26-0.49-2.53-1-3.75-1.59c-1.3-0.63-2.68-0.93-4.06-1.13c-1.69-0.25-3.4-0.31-5.1-0.48C244.04,8.82,241.07,9.44,237.94,10.51z
			 M249.56,34.5c0.11-0.03,0.25-0.01,0.31-0.08c1.63-1.66,3.7-2.59,5.59-3.77c2.5-1.57,5.24-2.53,8.09-3.09
			c1.38-0.27,2.75-0.59,4.13-0.88c0.3-0.06,0.6-0.14,0.9-0.13c3.05,0.1,6.09,0.32,9.02,1.38c0.64,0.23,1.32,0.35,1.9,0.7
			c2.25,1.34,4.49,2.71,6.28,4.78c0.65,0.76,1.35,1.48,2.07,2.28c-0.28-1.29-0.47-1.75-1-2.28c-0.9-0.89-1.76-1.86-2.74-2.64
			c-1.27-1-2.54-1.99-4.05-2.65c-1.82-0.79-3.8-1-5.56-1.94c-0.15-0.08-0.36-0.03-0.54-0.07c-2.48-0.45-4.97-0.42-7.46-0.32
			c-0.96,0.04-1.95,0.13-2.88,0.4c-1.59,0.46-3.13,1.11-4.7,1.62c-1.48,0.48-2.75,1.44-4.17,2.04
			C252.56,30.78,251.02,32.54,249.56,34.5z M218.66,241.47c-2.38-3.17-3.23-6.96-4.34-10.62c-1.11-3.67-1.41-7.48-1.76-11.31
			c-0.21,1.31-0.39,2.62-0.45,3.93c-0.15,3.5,0.31,6.93,1.01,10.34c0.47,2.29,1.08,4.52,2.21,6.55c0.52,0.93,1.14,1.73,2.17,2.25
			C217.87,242.24,218.26,241.86,218.66,241.47z M159.37,246c0.07-1.31,0.15-2.62,0.21-3.93c0.06-1.13,0.03-2.28,0.18-3.39
			c0.39-2.96,0.83-5.91,1.32-8.85c0.31-1.89,0.66-3.78,1.54-5.5c0.29-0.58,0.48-1.22,0.69-1.85c0.66-1.93,1.31-3.86,2.26-5.65
			c0.48-0.9,0.78-1.93,0.75-3.1c-0.2,0.14-0.39,0.2-0.47,0.34c-0.89,1.59-1.88,3.14-2.6,4.82c-0.87,2.05-1.5,4.22-2.24,6.34
			c-1.11,3.21-1.48,6.59-1.89,9.96c-0.26,2.18-0.42,4.37-0.6,6.56C158.4,243.19,158.68,244.61,159.37,246z M253.06,1.14
			c0.76,0.61,1.46,0.83,2.18,0.85c1.55,0.05,2.99,0.6,4.44,1.14c0.87,0.32,1.73,0.67,2.59,1.01c2.88,1.12,5.67,2.47,8.16,4.45
			c1.9,1.5,3.57,3.24,4.69,5.53c0.34,0.69,0.57,1.44,0.85,2.15c1.06-0.22,1.28-0.42,1.08-1.14c-0.15-0.57-0.29-1.21-0.63-1.64
			c-1.28-1.61-2.41-3.38-4.02-4.64c-2.79-2.17-5.62-4.24-8.81-5.69c-2.52-1.15-5.13-1.71-7.81-1.99
			C254.94,1.06,254.09,1.14,253.06,1.14z M217.5,216.88c-0.12,0.04-0.23,0.07-0.35,0.11c-0.03,0.32-0.1,0.65-0.08,0.97
			c0.12,1.66,0.21,3.32,0.4,4.97c0.31,2.71,0.82,5.37,1.66,7.96c0.45,1.39,1.13,2.61,2.03,3.78c-0.18-1.23-0.06-2.45-0.31-3.66
			c-0.28-1.29-0.45-2.62-0.67-3.92c-0.36-2.09-0.7-4.19-1.09-6.28c-0.11-0.58-0.32-1.14-0.55-1.69
			C218.22,218.36,217.85,217.63,217.5,216.88z M202.78,57.3c0.17-0.19,0.4-0.34,0.46-0.55c0.48-1.51,1.04-3,1.36-4.55
			c0.54-2.53,0.89-5.1,1.38-7.64c0.52-2.73,0.84-5.53,2.21-7.99c0.09-0.16,0.04-0.42,0.08-0.91c-1.12,1.29-1.86,2.51-2.3,3.9
			c-0.43,1.38-0.78,2.79-1.08,4.21c-0.41,1.93-1.02,3.82-0.99,5.85c0.01,0.45-0.19,0.9-0.27,1.36c-0.34,2.02-0.68,4.04-1.01,6.07
			C202.63,57.1,202.7,57.16,202.78,57.3z M271.48,16.05c-0.13-0.34-0.15-0.49-0.22-0.58c-2.11-2.65-4.64-4.77-7.52-6.25
			c-2.85-1.47-5.8-2.8-8.95-3.32c-1.62-0.26-3.27-0.31-4.91-0.44c-0.17-0.01-0.34,0.09-0.68,0.19c0.77,0.48,1.47,0.6,2.19,0.69
			c0.96,0.13,1.94,0.2,2.89,0.44c2.13,0.54,4.35,0.74,6.35,1.79c1.7,0.89,3.35,1.9,5.04,2.81c1.37,0.74,2.27,1.98,3.07,3.33
			c0.29,0.49,0.53,1.02,0.76,1.47C270.21,16.38,270.79,16.34,271.48,16.05z M204.09,173.58c-0.3-1.23-0.46-2.07-0.71-2.88
			c-0.55-1.78-1.42-3.38-2.28-4.99c-1.1-2.07-2.27-4.11-2.93-6.42c-0.54-1.9-1.02-3.83-1.51-5.75c-0.08-0.32-0.11-0.66-0.55-0.69
			c-0.05,0.18-0.15,0.37-0.14,0.55c0.1,2.28,0.95,4.39,1.27,6.63c0.01,0.06,0.05,0.12,0.08,0.18c1.26,2.65,2.31,5.42,3.7,8.01
			c0.65,1.2,1.23,2.45,1.78,3.71C203.03,172.48,203.3,172.97,204.09,173.58z M269.06,38.15c0.13,0.39,0.19,0.7,0.33,0.97
			c1.61,3.28,2.6,6.74,2.61,10.5c0,0.2,0.01,0.4,0.04,0.6c0.09,0.64,0.24,0.75,1.17,0.89c0.84-1.5,0.47-3.08,0.24-4.65
			c-0.33-2.25-0.79-4.45-2.16-6.28C270.19,38.68,270.12,38.59,269.06,38.15z M184.02,171.69c-0.09-1.23-0.62-2.26-1.06-3.34
			c-0.45-1.09-0.8-2.22-1.2-3.34c-0.4-1.11-0.85-2.21-1.22-3.34c-0.37-1.13-0.67-2.28-0.98-3.42c-0.31-1.15-0.53-2.33-0.9-3.45
			c-0.35-1.09-0.31-2.32-1.18-3.73c0.12,4.42,1.17,8.15,2.26,11.87C180.66,166.12,182.26,168.95,184.02,171.69z M283.17,61.11
			c1.24-0.93,2.07-2.1,2.39-3.77c0.55-2.86,0.42-5.69-0.05-8.53c-0.07-0.44-0.13-0.93-0.63-1.13c-0.42,0.51-0.3,1.13-0.24,1.68
			c0.24,2.41-0.19,4.78-0.38,7.16c-0.11,1.31-0.31,2.64-1.06,3.77C283.07,60.49,282.92,60.76,283.17,61.11z M257.66,51.07
			c0.15-0.09,0.22-0.11,0.25-0.16c0.07-0.1,0.16-0.21,0.19-0.33c0.63-2.87,0.5-5.7-0.42-8.47c-0.1-0.3-0.3-0.57-0.49-0.83
			c-0.17-0.23-0.7-0.06-0.75,0.24c-0.04,0.25-0.07,0.56,0.03,0.76c0.63,1.22,0.65,2.56,0.72,3.89c0.07,1.34,0.15,2.67,0.25,4
			C257.48,50.46,257.59,50.75,257.66,51.07z M205.12,245.52c0.28,2.78,0.67,5.16,2,7.23c1.04-0.56,1.12-0.68,0.88-1.46
			c-0.15-0.5-0.36-0.99-0.57-1.47c-0.54-1.19-1.09-2.38-1.66-3.56C205.68,246.07,205.49,245.93,205.12,245.52z M266.3,46.66
			c0.3-2.05-0.31-3.5-0.81-4.96c-0.39-1.14-0.41-1.13-1.34-1.93c0.43,1.26,0.81,2.29,1.13,3.33
			C265.61,44.15,265.89,45.22,266.3,46.66z M250.75,52.55c-0.08,1.23-0.26,2.11,0,3.02c0.15-0.07,0.32-0.08,0.35-0.16
			c0.12-0.29,0.27-0.6,0.27-0.9C251.36,53.95,251.45,53.34,250.75,52.55z M203.1,256.74c0.17-0.2,0.46-0.38,0.45-0.54
			c-0.05-0.75-0.18-1.49-0.93-2C202.41,255.18,202.4,255.99,203.1,256.74z M205.03,100.46c1.69-0.34,2.03-0.61,2.52-1.72
			C206.65,99.35,205.84,99.91,205.03,100.46z"/>
		<path d="M295,207.73c0.63,0.41,0.87,0.94,1.04,1.52c0.12,0.4-0.16,0.81-0.55,0.85c-0.06,0.01-0.12-0.01-0.18-0.01
			c-0.97,0.03-2.02-0.18-2.9,0.16c-0.87,0.34-1.55,1.26-2.35,1.87c-1.48,1.12-2.7,2.5-3.67,4.14c-0.13,0.22-0.29,0.43-0.42,0.66
			c-2.24,3.8-5.46,6.25-9.22,7.92c-0.72,0.32-1.52,0.45-2.29,0.64c-0.36,0.09-0.73,0.1-1.08,0.19c-3.08,0.78-6.2,0.71-9.31,0.52
			c-2.56-0.16-5.08-0.76-7.54-1.58c-1.67-0.56-2.98-1.79-4.41-2.83c-2.4-1.75-3.97-4.33-5.73-6.7c-1.37-1.85-3.12-3.17-4.75-4.67
			c-0.21-0.2-0.57-0.21-0.86-0.3c-0.53-0.15-1.06-0.29-1.7-0.46c-0.18,0.19-0.41,0.49-0.69,0.72c-0.11,0.09-0.37,0.11-0.49,0.04
			c-0.13-0.08-0.26-0.31-0.27-0.48c-0.01-0.25,0.05-0.54,0.17-0.76c0.39-0.71,0.91-1.25,1.7-1.31c1.35,1.18,1.64,1.3,2.77,1.28
			c0.96-0.01,1.8-0.35,2.53-1.03c0.51-0.48,1.02-0.96,1.47-1.51c0.71-0.87,1.58-1.51,2.51-1.97c1.73-0.85,3.49-1.6,5.41-1.81
			c2.07-0.23,4.14-0.36,6.23-0.27c1.01,0.05,1.88,0.32,2.71,1.02c2.57,2.18,5.31,2.82,8.93,0.05c1.36-1.04,2.92-1.34,4.51-1.41
			c1.9-0.09,3.79,0.19,5.63,0.68c2.58,0.7,4.91,2.01,7.05,3.73c0.49,0.39,0.97,0.82,1.48,1.19c0.35,0.26,0.74,0.48,1.14,0.64
			C293.19,209.02,293.82,208.87,295,207.73z M273.03,221.09c1.26-0.01,2.48-0.35,3.62-1.03c0.72-0.44,1.23-1.07,1.47-1.94
			c0.26-0.98-0.32-2.06-1.24-2.3c-0.58-0.16-1.17-0.31-1.76-0.42c-2.05-0.37-3.84,0.27-5.4,1.72c-0.27,0.25-0.46,0.61-0.65,0.95
			c-0.28,0.51-0.22,1.05,0.14,1.47c0.28,0.33,0.61,0.68,0.98,0.85C271.08,220.8,272,221.18,273.03,221.09z M257.35,204.09
			c-1.06,0.18-2.15,0.32-3.22,0.58c-0.58,0.15-1.14,0.48-1.67,0.81c-0.28,0.17-0.36,0.57-0.15,0.88c0.21,0.31,0.47,0.62,0.76,0.83
			c1.79,1.28,3.69,1.18,5.62,0.46c0.29-0.11,0.56-0.28,0.81-0.47c0.47-0.35,0.87-0.79,0.79-1.47c-0.08-0.69-0.59-1.02-1.11-1.21
			C258.62,204.29,258,204.23,257.35,204.09z M276.47,203.4c-0.24,0.06-0.86,0.12-1.39,0.39c-0.86,0.44-0.96,1.25-0.24,1.92
			c1.81,1.68,3.93,1.97,6.19,1.46c0.12-0.03,0.23-0.1,0.33-0.16c0.63-0.37,0.9-1.16,0.61-1.87c-0.32-0.78-0.85-1.31-1.66-1.39
			C279.16,203.63,278,203.54,276.47,203.4z M272.67,212.6c-0.89,0-1.49,0.01-2.09,0c-2.5-0.04-4.99-0.16-7.35-1.22
			c-0.33-0.15-0.71-0.23-1.07-0.23c-0.62,0.01-1.22,0.15-1.47,0.97c0.23,0.65,0.74,1.04,1.3,1.29c0.79,0.35,1.6,0.72,2.43,0.83
			c2.19,0.3,4.38,0.2,6.54-0.36C271.53,213.73,272.12,213.56,272.67,212.6z M257.51,218.49c1.13,0.02,2.39-0.34,3.26-0.86
			c0.62-0.36,0.91-1.18,0.62-1.87c-0.32-0.77-0.83-1.34-1.67-1.32c-1.04,0.02-2.08,0.09-3.05,0.55c-0.38,0.18-0.77,0.41-1.07,0.72
			c-0.8,0.82-0.62,1.96,0.41,2.4C256.56,218.35,257.18,218.41,257.51,218.49z"/>
		<path d="M218.25,143.22c-2.26-0.6-4.14-2.01-5.86-3.6c-2.71-2.5-4.66-5.64-5.74-9.36c-0.26-0.88-0.7-1.32-1.45-1.6
			c-1.04-0.38-2.06-0.84-3.08-1.27c-0.31-0.13-0.31-0.13-0.87-1.09c0.28-0.02,0.5-0.11,0.69-0.05c1.12,0.33,2.22,0.71,3.34,1.04
			c0.53,0.15,1.07,0.28,1.61,0.32c1.77,0.15,3.54,0.28,5.31,0.36c1.16,0.05,2.32,0.01,3.48,0c1.16-0.01,2.32-0.03,3.48-0.06
			c1.22-0.03,2.44-0.08,3.66-0.13c0.18-0.01,0.37-0.02,0.55-0.01c4.5,0.4,9.03,0.51,13.41,1.96c3.57,1.18,7.08,2.51,10.47,4.22
			c0.39,0.2,0.77,0.41,1.14,0.64c1.23,0.74,2.47,1.47,3.68,2.23c0.25,0.16,0.51,0.39,0.63,0.66c0.08,0.18-0.03,0.51-0.14,0.72
			c-0.05,0.1-0.36,0.13-0.49,0.05c-0.59-0.35-1.15-0.77-1.74-1.11c-0.79-0.45-1.56-0.97-2.57-1.1c0.09,0.88,0.63,1.27,0.96,1.81
			c0.3,0.5,0.65,0.98,0.86,1.52c0.34,0.87,0.01,1.58-0.82,1.89c-0.34,0.13-0.71,0.18-1.07,0.21c-0.49,0.03-0.98,0.03-1.47,0
			c-1.99-0.12-3.87,0.44-5.73,1.12c-1.62,0.59-3.24,1.24-4.95,1.42c-4.89,0.52-9.76,0.66-14.46-1.38c-1.93-0.84-3.95-1.45-5.7-2.71
			c-1.27-0.92-2.49-1.92-3.73-2.9c-0.39-0.31-0.76-0.66-1.13-1c-0.42,0.49-0.04,0.79,0.16,1.05c1.66,2.2,3.7,3.86,6.04,5.09
			c0.53,0.28,1.19,0.36,1.47,1.07L218.25,143.22z M240.57,132.8c-0.13,0.27-0.28,0.49-0.35,0.73c-0.87,2.81-2.85,4.41-5.16,5.64
			c-1.43,0.76-2.92,0.84-4.46,0.32c-2.22-0.75-3.79-2.36-5.01-4.44c-0.84-1.42-1.29-2.98-1.3-4.79c-0.71-0.05-1.31-0.16-1.9-0.13
			c-2.99,0.15-5.98,0.28-8.97,0.1c-1.58-0.1-3.14-0.42-4.72-0.63c-0.29-0.04-0.59-0.01-0.89-0.01c-0.13,0.79,0.29,1.32,0.6,1.86
			c1.85,3.26,4.49,5.61,7.46,7.53c2.6,1.68,5.51,2.52,8.39,3.37c0.93,0.28,1.92,0.38,2.88,0.54c2.5,0.4,4.99,0.22,7.5-0.01
			c2.29-0.21,4.46-0.85,6.46-2.04c0.95-0.56,1.88-1.28,2.63-2.13c0.91-1.04,1.84-2.15,2.06-3.66c-0.46-0.95-1.38-0.9-2.06-1.28
			C242.77,133.25,241.72,132.88,240.57,132.8z M228.42,131.93c-0.65,0.97-0.59,1.98-0.37,3.03c0.2,0.95,0.59,1.74,1.39,2.24
			c0.37,0.23,0.71,0.53,1.09,0.73c1.89,0.98,3.97,0.65,5.38-1.04c0.83-0.99,1.37-2.22,1.13-3.66c-0.05-0.27-0.28-0.5-0.44-0.78
			c-0.61,0.89-1.07,1.77-1.71,2.45c-1.6,1.7-4.6,1.2-5.69-0.91C228.87,133.37,228.69,132.66,228.42,131.93z M248.83,140.2
			c-0.43-1.49-1.21-2.36-2.1-3.13c-0.96,0.79-1.84,2.07-2.26,3.32C245.87,140.19,247.26,140.61,248.83,140.2z M232.7,131.64
			c0.02,0.66,0.62,1.23,1.24,1.16c0.59-0.07,1.05-0.64,0.97-1.21c-0.07-0.5-0.61-0.91-1.26-0.93
			C233.16,130.63,232.69,131.13,232.7,131.64z"/>
		<path d="M226.86,112.84c0.11-0.23,0.23-0.46,0.36-0.73c1.08,0.43,2.07,1.05,3.04,1.73c0.9,0.63,1.69,1.52,2.87,1.72
			c-0.3-1.11-0.3-1.11-2.28-3.11c1.14,0.27,1.68,0.6,3.07,1.88c2.08,1.91,2.08,1.91,2.87,1.81c-0.55-1.48-2.02-2.1-2.65-3.48
			c1.24,0.55,2.16,1.31,2.97,2.42c0.38,0.52,0.77,1.04,1.18,1.53c0.61,0.73,1.24,1.44,1.83,2.13c0.44-0.18,0.32-0.44,0.18-0.64
			c-0.76-1.13-1.54-2.23-2.29-3.37c-0.31-0.46-0.55-0.97-0.65-1.6c0.54,0.59,1.15,1.12,1.61,1.77c1.93,2.74,3.82,5.51,5.73,8.28
			c0.03,0.04-0.01,0.13-0.03,0.34c-0.22-0.05-0.45-0.04-0.63-0.15c-2.07-1.15-4.09-2.42-6.21-3.44c-2.01-0.97-4.09-1.78-6.19-2.48
			c-2.45-0.82-4.99-1.26-7.56-1.29c-1.71-0.02-3.43-0.07-5.13,0.02c-1.89,0.1-3.77,0.31-5.65,0.54c-1.45,0.18-2.89,0.49-4.34,0.7
			c-2.38,0.34-4.62,1.23-6.91,1.94c-0.64,0.2-1.24,0.56-1.88,0.78c-0.32,0.11-0.67,0.1-1.29,0.17c0.35-0.48,0.5-0.78,0.72-0.97
			c1.01-0.86,2.06-1.66,3.25-2.23c1.45-0.69,2.85-1.51,4.3-2.21c1.23-0.59,2.47-1.17,3.74-1.62c0.98-0.34,2.02-0.51,3.04-0.7
			c1.32-0.23,2.65-0.45,3.99-0.59c1.45-0.15,2.91-0.36,4.38-0.08c0.84,0.15,1.7,0.17,2.56,0.21c0.75,0.04,1.46,0.13,2.03,0.73
			c0.04-0.04,0.08-0.09,0.12-0.11c0.03-0.01,0.08,0.03,0.12,0.05C227.03,112.83,226.94,112.84,226.86,112.84z"/>
		<path d="M228.23,236.29c1.07,1.27,2.1,2.59,3.23,3.8c2.45,2.61,4.91,5.21,7.45,7.7c1.08,1.06,2.33,1.93,3.59,2.75
			c2.36,1.53,4.79,2.92,7.17,4.42c3.36,2.11,6.97,3.51,10.65,4.75c1.38,0.47,2.74,1.04,4.43,1.69c-1.51,0.33-2.62-0.01-3.67-0.35
			c-4.15-1.37-8.23-2.93-12.04-5.28c-1.91-1.17-3.89-2.23-5.74-3.52c-1.65-1.15-3.29-2.3-4.73-3.77c-0.53-0.54-1.15-0.99-1.73-1.48
			c-1.94-1.64-3.6-3.6-5.21-5.61c-0.72-0.91-1.48-1.78-2.18-2.71c-0.54-0.71-1.12-1.42-1.19-2.42
			C228.27,236.24,228.23,236.29,228.23,236.29z"/>
		<path d="M257.77,187.64c-0.76,0.35-1.31,0.65-1.89,0.84c-0.39,0.13-0.83,0.14-1.24,0.11c-0.39-0.02-0.67-0.28-0.77-0.73
			c-0.1-0.44,0.07-0.79,0.35-1.07c0.17-0.17,0.41-0.32,0.63-0.39c0.64-0.2,1.29-0.37,1.95-0.51c0.63-0.14,1.16,0.06,1.69,0.5
			c0.92,0.77,1.88,1.49,2.88,2.12c1.98,1.24,4.14,2.04,6.42,2.06c3.43,0.04,6.65-0.74,9.32-3.36c0.57-0.56,1.34-0.91,2.07-1.23
			c0.85-0.37,1.68-0.07,2.44,0.44c0.39,0.26,0.59,1,0.41,1.42c-0.17,0.39-0.48,0.6-0.88,0.59c-0.91-0.03-1.84-0.01-2.74-0.16
			c-0.61-0.1-1.07,0.04-1.51,0.45c-2.36,2.18-5.18,2.82-8.16,2.97c-2.57,0.13-4.94-0.67-7.2-1.91
			C260.27,189.12,259.05,188.38,257.77,187.64z"/>
		<path d="M248.59,116.64c0.92,0.93,1.46,2.12,1.99,3.32c0.49,1.13,1.05,2.22,1.74,3.68c0.11-0.88,0.18-1.37,0.29-2.22
			c0.42,1.43,0.75,2.53,1.07,3.62c1.19,0.16,1.32,0.2,1.9,0.96c1.95,2.56,3,5.46,2.78,8.84c-0.07,1.11-0.12,2.23-0.18,3.5
			c-0.51-0.94-0.43-1.82-0.44-2.67c-0.03-1.68-0.31-3.31-0.81-4.9c-0.44-1.41-1.21-2.62-1.97-3.82c-0.26-0.41-0.58-0.86-1.27-0.83
			c0,0.62,0.04,1.22-0.03,1.8c-0.01,0.14-0.37,0.35-0.54,0.33c-0.52-0.06-0.84-0.49-1.12-0.95c-0.6-1.01-1.24-1.99-1.77-3.04
			c-1.33-2.6-2.61-5.24-4-8.03c0.97,0.68,0.97,0.68,1.99,2.6c0.55,1.04,1.07,2.09,1.64,3.11c0.53,0.94,0.77,2.09,1.86,2.86
			C250.95,121.84,249.42,119.41,248.59,116.64z"/>
		<path d="M253.31,191.66c-1.56,0.13-2.87-0.46-3.95-1.6c-2.51-2.65-3.07-6.92-1.43-10.35c0.51-1.06,1.02-2.13,1.55-3.18
			c0.17-0.34,0.42-0.64,0.66-0.93c0.06-0.07,0.27-0.11,0.32-0.06c0.12,0.13,0.27,0.34,0.24,0.47c-0.07,0.32-0.23,0.62-0.37,0.91
			c-0.59,1.24-1.24,2.46-1.78,3.73c-1.04,2.42-0.84,4.81,0.35,7.1c0.78,1.5,1.87,2.62,3.51,2.97
			C252.79,190.8,253.28,190.93,253.31,191.66z"/>
		<path d="M277.21,127.14c0.33,0.52,0.1,1.04-0.1,1.49c-1.01,2.21-1.15,4.6-1.34,6.99c-0.07,0.84-0.19,1.68-0.51,2.51
			c-0.1-1.45-0.23-2.91-0.28-4.36c-0.08-2.2,0.63-4.18,1.49-6.11c0.08-0.17,0.23-0.31,0.37-0.43
			C276.94,127.16,277.08,127.17,277.21,127.14z"/>
		<path d="M250.5,126.61c-0.22,0.02-0.39,0.08-0.43,0.03c-2.41-3.33-4.62-6.8-6.2-10.78c0.2,0.19,0.43,0.35,0.58,0.57
			c0.51,0.75,1,1.51,1.48,2.29c1.08,1.77,2.16,3.54,3.23,5.32c0.2,0.33,0.4,0.67,0.58,1.02C250,125.55,250.24,126.06,250.5,126.61z"
			/>
		<path d="M239.98,113.35c2.58,3.62,4.92,7.39,7.55,11.21c-0.45,0-0.61,0.05-0.66-0.01C244.18,121.11,241.66,117.53,239.98,113.35z"
			/>
		<path d="M264.72,195.49c0.35,0.96,0.42,1.72,0.32,2.53c-0.09,0.72-0.05,1.46-0.12,2.19c-0.16,1.66,0.65,2.62,1.91,3.27
			c0.37,0.19,0.76,0.31,1.14,0.47c-0.21,0.55-0.62,0.5-0.95,0.43c-1.49-0.29-2.75-1.8-2.8-3.49c-0.03-1.12,0.11-2.26,0.21-3.38
			C264.47,196.93,264.59,196.34,264.72,195.49z"/>
		<path d="M218.21,143.26c0.76-0.12,1.26,0.27,1.63,0.95l0.02-0.01c-0.54-0.33-1.07-0.66-1.61-0.98
			C218.25,143.22,218.21,143.26,218.21,143.26z"/>
		<path d="M219.84,144.21c0.58-0.19,1.13-0.19,1.6,0.31l0.04-0.02c-0.53-0.1-1.06-0.21-1.61-0.31
			C219.87,144.19,219.84,144.21,219.84,144.21z"/>
		<polygon points="252.31,120.15 252.25,120.23 252.25,120.07 		"/>
		<path d="M223.12,145.02c0.02-0.04,0.05-0.11,0.07-0.11c0.1,0.02,0.2,0.05,0.3,0.08c-0.02,0.04-0.05,0.12-0.07,0.12
			C223.32,145.09,223.22,145.05,223.12,145.02z"/>
		<path d="M221.45,144.52c0.1-0.02,0.19-0.03,0.29-0.05c-0.03,0.01-0.06,0.03-0.09,0.03c-0.05,0-0.09-0.01-0.15-0.01
			C221.49,144.5,221.45,144.52,221.45,144.52z"/>
	</g>
	<text transform="matrix(1 0 0 1 160.9487 398.604)"><tspan x="0" y="0" class="st5 st6">DAY</tspan><tspan x="51.77" y="74.53" class="st5 st6">1</tspan></text>
</g>
</svg>
