<?xml version="1.0" encoding="utf-8"?>
<!-- Generator: Adobe Illustrator 26.4.1, SVG Export Plug-In . SVG Version: 6.00 Build 0)  -->
<svg version="1.1" id="Layer_1" xmlns="http://www.w3.org/2000/svg" xmlns:xlink="http://www.w3.org/1999/xlink" x="0px" y="0px"
	 viewBox="0 0 928 325" style="enable-background:new 0 0 928 325;" xml:space="preserve">
<style type="text/css">
	.st0{fill:#FFFFFF;}
	.st1{fill:#231F20;}
</style>
<rect x="-23" y="-19" class="st0" width="969" height="367"/>
<g>
	<g>
		<path d="M851.02,231.36c-0.25-3.23-0.55-6.45-0.75-9.69c-0.14-2.21-0.64-4.33-1.31-6.42c-0.4-1.25-0.84-2.49-1.25-3.74
			c-0.78-2.35-2.23-4.19-4.39-5.35c-3.03-1.63-6.22-2.8-9.72-2.88c-1.49-0.03-2.98-0.06-4.46-0.16c-0.6-0.04-1.19-0.21-1.76-0.41
			c-0.17-0.06-0.35-0.43-0.32-0.63c0.03-0.2,0.3-0.5,0.48-0.51c1.74-0.16,3.48-0.25,5.22-0.38c3.82-0.29,7.38-1.44,10.62-3.45
			c1.66-1.03,2.98-2.48,3.67-4.35c0.58-1.55,1.17-3.13,1.49-4.74c0.97-4.82,1.29-9.72,1.49-14.62c0.08-1.83-0.23-3.67-0.3-5.5
			c-0.03-0.77,0.12-1.55,0.22-2.32c0.02-0.13,0.25-0.33,0.37-0.31c0.22,0.02,0.55,0.13,0.61,0.28c0.19,0.47,0.35,0.98,0.39,1.49
			c0.23,3.32,0.39,6.64,0.63,9.96c0.35,4.92,1.43,9.7,3.17,14.31c1.06,2.81,2.94,5.02,5.72,6.22c3.88,1.67,7.94,2.72,12.19,2.8
			c1.22,0.03,2.44-0.21,3.66-0.27c1.08-0.05,1.68,0.32,1.58,0.9c-0.14,0.79-0.81,0.82-1.41,0.92c-3.45,0.57-6.91,1.11-10.36,1.71
			c-0.95,0.16-1.88,0.41-2.8,0.71c-3.22,1.05-5.68,2.91-7.11,6.14c-1.8,4.05-3.01,8.2-3.13,12.66c-0.09,3.24-0.3,6.47-0.41,9.71
			c-0.06,1.57-0.01,3.15-0.04,4.73c-0.01,0.52-0.05,1.04-0.17,1.54c-0.05,0.19-0.36,0.39-0.58,0.43c-0.22,0.03-0.61-0.06-0.69-0.22
			c-0.26-0.53-0.55-1.11-0.59-1.68c-0.09-1.22-0.04-2.45-0.04-3.68c0-1.05,0-2.1,0-3.15C850.96,231.37,850.99,231.37,851.02,231.36z
			 M867.03,202.16c-0.03-0.07-0.05-0.19-0.09-0.21c-0.83-0.24-1.66-0.49-2.5-0.69c-4.46-1.04-8.17-3.12-10.28-7.41
			c-0.46-0.94-0.82-1.93-1.15-2.93c-0.64-1.89-1.22-3.8-1.93-6.01c-0.57,1.48-0.67,2.68-0.85,3.87c-0.55,3.55-1.77,6.83-4.63,9.16
			c-1.89,1.54-3.93,2.94-6.47,3.29c-0.4,0.06-0.89,0.11-0.78,0.9c1.46,0.59,2.98,1.26,4.53,1.83c3.3,1.21,5.3,3.66,6.38,6.87
			c0.78,2.32,1.32,4.71,1.98,7.07c0.13,0.46-0.01,1.1,0.87,1.24c0.18-0.54,0.37-1.1,0.55-1.66c0.93-2.83,1.81-5.67,3.26-8.3
			c0.7-1.27,1.57-2.29,2.69-3.16c2.12-1.64,4.52-2.64,7.12-3.22C866.2,202.7,866.8,202.79,867.03,202.16z"/>
		<path d="M872.31,183.2c0.28,1.3-0.36,1.8-0.92,2.32c-1.29,1.18-2.6,2.34-3.91,3.5c-1.43,1.28-2.85,2.58-4.32,3.82
			c-0.52,0.44-1.15,0.78-1.79,1.04c-0.23,0.1-0.75-0.08-0.9-0.3c-0.15-0.22-0.07-0.65,0.02-0.96c0.07-0.23,0.28-0.44,0.47-0.61
			c2.67-2.26,5.35-4.5,8.01-6.76C869.92,184.46,870.96,183.85,872.31,183.2z"/>
		<path d="M860.6,212.21c0.83-0.77,1.43-0.8,1.94-0.33c2.77,2.54,5.67,4.97,7.88,8.05c0.35,0.49,0.59,1.07,0.8,1.64
			c0.06,0.16-0.17,0.43-0.25,0.63c-0.24-0.03-0.47,0.01-0.57-0.09c-0.7-0.65-1.44-1.28-2.06-2.01
			C865.98,217.3,862.97,215.14,860.6,212.21z"/>
		<path d="M843.18,211.3c-0.02,0.32,0.03,0.53-0.06,0.65c-0.19,0.28-0.41,0.58-0.69,0.77c-3.06,2.22-5.69,4.91-8.39,7.52
			c-0.62,0.6-1.36,1.07-2.09,1.54c-0.13,0.09-0.55-0.05-0.67-0.21c-0.11-0.16-0.1-0.57,0.03-0.7c1.03-1.07,2.08-2.13,3.17-3.14
			c2.38-2.19,4.78-4.36,7.19-6.52c0.18-0.16,0.48-0.32,0.7-0.29C842.67,210.97,842.95,211.19,843.18,211.3z"/>
		<path d="M833.61,184.06c1.19-0.02,1.67,0.71,2.18,1.24c2.25,2.3,4.45,4.65,6.64,7.02c0.71,0.77,0.79,1.55,0.3,1.78
			c-0.74,0.35-1.13-0.25-1.54-0.66c-2.63-2.66-5.1-5.48-7.37-8.45C833.69,184.81,833.71,184.51,833.61,184.06z"/>
		<path class="st0" d="M867.03,202.16c-0.24,0.63-0.83,0.54-1.32,0.64c-2.6,0.58-5,1.58-7.12,3.22c-1.12,0.87-2,1.9-2.69,3.16
			c-1.45,2.64-2.33,5.47-3.26,8.3c-0.18,0.56-0.37,1.12-0.55,1.66c-0.88-0.14-0.74-0.78-0.87-1.24c-0.66-2.36-1.2-4.75-1.98-7.07
			c-1.08-3.21-3.08-5.66-6.38-6.87c-1.55-0.57-3.06-1.24-4.53-1.83c-0.11-0.79,0.38-0.84,0.78-0.9c2.54-0.35,4.58-1.75,6.47-3.29
			c2.87-2.33,4.08-5.61,4.63-9.16c0.18-1.19,0.28-2.39,0.85-3.87c0.71,2.21,1.29,4.12,1.93,6.01c0.33,0.99,0.69,1.99,1.15,2.93
			c2.11,4.28,5.82,6.37,10.28,7.41c0.84,0.2,1.67,0.45,2.5,0.69C866.98,201.97,867,202.09,867.03,202.16z"/>
	</g>
	<g>
		<path d="M82.12,163.88c-0.34-4.36-0.74-8.72-1.01-13.09c-0.18-2.99-0.86-5.85-1.77-8.67c-0.54-1.69-1.14-3.36-1.69-5.05
			c-1.05-3.18-3.01-5.66-5.94-7.24c-4.09-2.21-8.4-3.79-13.14-3.89c-2.01-0.04-4.02-0.08-6.03-0.21c-0.81-0.05-1.61-0.29-2.38-0.56
			c-0.23-0.08-0.47-0.58-0.44-0.85c0.03-0.27,0.4-0.67,0.65-0.7c2.35-0.21,4.7-0.34,7.05-0.51c5.16-0.39,9.97-1.95,14.36-4.67
			c2.24-1.39,4.02-3.35,4.96-5.88c0.78-2.1,1.58-4.23,2.02-6.41c1.31-6.51,1.74-13.14,2.02-19.77c0.1-2.47-0.32-4.96-0.4-7.44
			c-0.04-1.04,0.16-2.1,0.3-3.14c0.02-0.17,0.34-0.44,0.49-0.43c0.3,0.03,0.74,0.17,0.83,0.38c0.26,0.64,0.48,1.33,0.52,2.01
			c0.31,4.49,0.53,8.98,0.85,13.46c0.48,6.65,1.93,13.11,4.29,19.34c1.44,3.79,3.97,6.78,7.73,8.4c5.24,2.26,10.73,3.67,16.48,3.79
			c1.65,0.03,3.3-0.28,4.95-0.36c1.46-0.07,2.27,0.43,2.13,1.21c-0.19,1.06-1.09,1.11-1.9,1.24c-4.67,0.77-9.34,1.51-14,2.31
			c-1.28,0.22-2.55,0.55-3.78,0.95c-4.35,1.42-7.68,3.94-9.61,8.3c-2.43,5.48-4.06,11.09-4.24,17.11c-0.13,4.38-0.4,8.75-0.56,13.12
			c-0.08,2.13-0.02,4.26-0.06,6.39c-0.01,0.7-0.07,1.41-0.24,2.08c-0.06,0.25-0.49,0.53-0.79,0.57c-0.3,0.05-0.83-0.08-0.94-0.3
			c-0.36-0.72-0.74-1.5-0.8-2.27c-0.12-1.65-0.05-3.31-0.05-4.97c0-1.42,0-2.84,0-4.26C82.03,163.89,82.08,163.88,82.12,163.88z
			 M103.76,124.4c-0.04-0.1-0.06-0.26-0.13-0.28c-1.13-0.32-2.25-0.67-3.39-0.93c-6.03-1.4-11.04-4.22-13.89-10.01
			c-0.62-1.27-1.11-2.61-1.56-3.95c-0.86-2.55-1.65-5.13-2.61-8.12c-0.77,2-0.9,3.62-1.15,5.22c-0.74,4.8-2.39,9.23-6.26,12.38
			c-2.56,2.08-5.32,3.97-8.75,4.45c-0.54,0.08-1.21,0.14-1.06,1.22c1.98,0.8,4.02,1.71,6.12,2.48c4.46,1.64,7.16,4.94,8.62,9.29
			c1.05,3.13,1.78,6.37,2.68,9.55c0.17,0.62-0.02,1.49,1.17,1.68c0.24-0.73,0.5-1.48,0.75-2.24c1.25-3.82,2.44-7.66,4.4-11.22
			c0.94-1.71,2.13-3.1,3.64-4.28c2.86-2.22,6.11-3.58,9.62-4.36C102.63,125.13,103.44,125.25,103.76,124.4z"/>
		<path d="M110.9,98.76c0.38,1.76-0.49,2.44-1.25,3.13c-1.75,1.59-3.52,3.16-5.28,4.74c-1.94,1.73-3.85,3.49-5.84,5.17
			c-0.71,0.6-1.56,1.06-2.41,1.41c-0.32,0.13-1.01-0.11-1.21-0.41c-0.2-0.29-0.09-0.88,0.03-1.3c0.09-0.31,0.38-0.6,0.64-0.82
			c3.6-3.05,7.23-6.08,10.83-9.13C107.67,100.47,109.07,99.65,110.9,98.76z"/>
		<path d="M95.07,137.98c1.12-1.04,1.93-1.08,2.62-0.45c3.74,3.44,7.66,6.71,10.65,10.88c0.47,0.66,0.8,1.44,1.08,2.21
			c0.08,0.22-0.22,0.58-0.34,0.85c-0.32-0.04-0.63,0.01-0.77-0.12c-0.95-0.88-1.95-1.73-2.78-2.71
			C102.34,144.87,98.27,141.94,95.07,137.98z"/>
		<path d="M71.52,136.76c-0.03,0.44,0.03,0.72-0.08,0.88c-0.26,0.38-0.56,0.78-0.93,1.05c-4.13,3-7.69,6.64-11.35,10.17
			c-0.83,0.81-1.84,1.44-2.82,2.08c-0.18,0.12-0.75-0.07-0.9-0.29c-0.15-0.21-0.14-0.77,0.04-0.95c1.39-1.45,2.8-2.88,4.28-4.24
			c3.21-2.97,6.47-5.89,9.72-8.82c0.24-0.22,0.65-0.43,0.94-0.39C70.83,136.31,71.21,136.61,71.52,136.76z"/>
		<path d="M58.58,99.93c1.61-0.02,2.26,0.96,2.95,1.67c3.05,3.11,6.02,6.29,8.97,9.49c0.96,1.04,1.07,2.09,0.4,2.41
			c-1,0.48-1.53-0.33-2.08-0.89c-3.56-3.6-6.89-7.4-9.96-11.43C58.69,100.94,58.71,100.54,58.58,99.93z"/>
		<path class="st0" d="M103.76,124.4c-0.32,0.85-1.13,0.72-1.78,0.87c-3.51,0.78-6.76,2.14-9.62,4.36c-1.51,1.18-2.7,2.56-3.64,4.28
			c-1.96,3.56-3.15,7.4-4.4,11.22c-0.25,0.76-0.5,1.51-0.75,2.24c-1.19-0.19-1-1.06-1.17-1.68c-0.89-3.18-1.63-6.42-2.68-9.55
			c-1.46-4.34-4.16-7.65-8.62-9.29c-2.1-0.77-4.14-1.67-6.12-2.48c-0.15-1.07,0.52-1.14,1.06-1.22c3.43-0.48,6.19-2.37,8.75-4.45
			c3.87-3.15,5.52-7.58,6.26-12.38c0.25-1.61,0.38-3.23,1.15-5.22c0.95,2.99,1.75,5.57,2.61,8.12c0.45,1.34,0.93,2.69,1.56,3.95
			c2.85,5.79,7.86,8.61,13.89,10.01c1.14,0.26,2.26,0.61,3.39,0.93C103.7,124.14,103.72,124.3,103.76,124.4z"/>
	</g>
	<g>
		<g>
			<path class="st1" d="M133.5,235.39c-0.11-1.24,0.25-2.48,0.59-3.67c0.37-1.19,0.85-2.33,1.32-3.48c0.97-2.28,2.11-4.46,3.28-6.62
				c2.36-4.31,4.96-8.45,7.66-12.52c5.42-8.12,11.25-15.89,17.32-23.48c6.17-7.59,12.7-14.85,19.83-21.59
				c3.57-3.36,7.29-6.58,11.22-9.54c1.99-1.46,3.98-2.89,6.1-4.18c2.07-1.35,4.41-2.46,6.84-2.87c-1.09,0.56-2.08,1.24-3.01,2
				c-0.95,0.73-1.8,1.53-2.64,2.41c-1.69,1.7-3.36,3.45-4.99,5.2c-3.26,3.53-6.42,7.13-9.54,10.78
				c-6.23,7.28-12.3,14.75-18.36,22.19c-6.03,7.53-12.2,14.96-18.37,22.37c-3.09,3.7-6.18,7.4-9.21,11.14
				c-1.52,1.87-3,3.76-4.45,5.68c-0.71,0.97-1.41,1.94-2.04,2.96C134.41,233.17,133.79,234.2,133.5,235.39z"/>
		</g>
		<g>
			<g>
				<path class="st1" d="M115.01,220.11c-7.13,2.74-13.87,6.37-20.49,10.14c-6.6,3.8-13.02,7.92-19.1,12.46
					c-6.06,4.53-11.9,9.45-16.6,15.2c-2.33,2.87-4.28,6.03-5.36,9.33c-0.12,0.41-0.2,0.83-0.31,1.24c-0.05,0.21-0.11,0.41-0.14,0.62
					l-0.07,0.62c-0.12,0.85-0.14,1.61-0.01,2.34c0.25,1.45,0.97,2.76,2.16,3.84c2.39,2.17,5.88,3.46,9.39,4.35
					c3.39,0.9,7.22,1.08,10.88,1.27c3.72,0.1,7.43-0.09,11.18-0.41c3.74-0.32,7.48-0.78,11.21-1.35
					c14.92-2.3,29.64-6.13,44.09-10.66c14.44-4.56,28.64-9.97,42.3-16.42c6.82-3.24,13.52-6.7,19.97-10.52
					c6.43-3.84,12.66-8.03,18.21-12.84c2.76-2.41,5.4-4.95,7.63-7.72c2.25-2.75,4.15-5.71,5.29-8.8c0.59-1.54,0.94-3.1,1.07-4.65
					c0.01-0.19,0.05-0.4,0.04-0.57l-0.02-0.5c-0.03-0.32,0.04-0.68-0.07-0.98c-0.07-0.31-0.13-0.63-0.18-0.94
					c-0.13-0.3-0.24-0.6-0.35-0.9c-0.55-1.18-1.41-2.32-2.54-3.37c-1.17-1.02-2.54-1.94-4.03-2.76c-3.03-1.6-6.42-2.83-9.94-3.75
					c-1.76-0.5-3.53-0.87-5.33-1.14l-2.68-0.46c-0.9-0.12-1.81-0.24-2.72-0.33c-3.64-0.37-7.33-0.52-11-0.42
					c-1.85,0.05-3.63,0.16-5.49,0.34l-2.82,0.27l-1.39,0.15l-0.67,0.08l-0.31,0.04l-0.13,0.02l-0.03,0.01
					c0.08-0.02-0.16,0.04,0.29-0.07l-1.91-6.48c4.71-1.43,9.46-3.5,14.09-5.7c4.65-2.2,9.21-4.66,13.68-7.24
					c8.89-5.23,17.53-11.05,24.98-17.94c1.86-1.72,3.61-3.53,5.18-5.42c1.58-1.89,2.99-3.87,4-5.91c1.02-2.07,1.47-4.01,1.34-6.12
					c-0.1-1.02-0.32-2.02-0.69-2.99c-0.4-0.96-0.94-1.88-1.59-2.76c-0.68-0.87-1.46-1.68-2.33-2.45c-0.89-0.75-1.82-1.47-2.85-2.11
					c-2.02-1.31-4.26-2.37-6.57-3.3c-4.65-1.82-9.63-3.04-14.64-3.7c-1.26-0.16-2.48-0.31-3.76-0.35l-3.85-0.15
					c-1.28-0.04-2.57-0.13-3.85-0.12c-1.29,0.04-2.57,0.03-3.86,0.1c-5.15,0.22-10.29,0.8-15.38,1.69
					c-10.18,1.8-20.17,4.84-29.68,9.02c-4.76,2.08-9.35,4.52-13.76,7.26c-4.38,2.77-8.6,5.85-12.29,9.47
					c-1.85,1.81-3.54,3.77-4.95,5.91c-1.39,2.14-2.51,4.51-2.83,7.03c-0.16,1.25-0.1,2.54,0.26,3.76c0.36,1.21,0.97,2.38,1.78,3.36
					c0.82,0.98,1.91,1.74,3.13,2.17c1.22,0.48,2.56,0.46,3.86,0.48c-1.3,0.04-2.65,0.15-3.93-0.28c-1.28-0.37-2.47-1.1-3.39-2.08
					c-0.92-0.99-1.62-2.16-2.08-3.45c-0.45-1.29-0.59-2.68-0.5-4.03c0.19-2.73,1.26-5.31,2.62-7.61c1.38-2.31,3.04-4.42,4.86-6.37
					c7.34-7.79,16.49-13.54,25.99-18.23c4.78-2.33,9.7-4.36,14.74-6.09c5.04-1.7,10.19-3.1,15.42-4.18
					c5.23-1.08,10.53-1.83,15.87-2.22c1.33-0.11,2.67-0.14,4.01-0.22c1.34-0.04,2.68,0.01,4.02,0.01l4.03,0.04
					c1.34,0.01,2.74,0.14,4.09,0.29c5.42,0.6,10.74,1.78,15.92,3.67c2.58,0.97,5.13,2.11,7.56,3.61c2.43,1.48,4.75,3.32,6.68,5.7
					c0.94,1.21,1.77,2.55,2.41,4.01c0.62,1.47,1.01,3.05,1.18,4.64c0.13,1.6,0.08,3.15-0.25,4.76c-0.12,0.81-0.41,1.51-0.62,2.27
					c-0.24,0.73-0.57,1.4-0.85,2.11c-1.26,2.7-2.92,5.02-4.67,7.19c-1.76,2.16-3.65,4.16-5.62,6.03
					c-7.9,7.49-16.73,13.56-25.86,19.1c-4.59,2.73-9.25,5.33-14.07,7.68c-2.4,1.19-4.86,2.29-7.35,3.34
					c-2.5,1.04-5.04,2.02-7.72,2.83l-1.91-6.48c0.5-0.13,0.33-0.07,0.46-0.1l0.14-0.02l0.23-0.03l0.4-0.05l0.75-0.09l1.46-0.16
					l2.88-0.29c1.94-0.2,3.97-0.34,5.94-0.39c3.97-0.12,7.93,0.01,11.89,0.4c7.96,0.91,15.77,2.5,23.27,6.37
					c1.86,1.01,3.69,2.21,5.4,3.7c1.68,1.54,3.24,3.44,4.27,5.74c1.1,2.27,1.3,5,1.13,7.31c-0.19,2.26-0.72,4.45-1.5,6.48
					c-1.54,4.08-3.88,7.6-6.47,10.75c-2.59,3.17-5.49,5.93-8.49,8.53c-6.03,5.17-12.55,9.51-19.25,13.47
					c-6.7,3.95-13.61,7.47-20.64,10.67c-14.06,6.42-28.56,11.73-43.31,16.18c-14.76,4.4-29.81,7.9-45.14,9.96
					c-7.66,0.97-15.42,1.69-23.28,1.26c-1.97-0.16-3.95-0.3-5.88-0.57c-1.93-0.25-3.98-0.6-5.92-1.18c-1.91-0.54-3.82-1.2-5.69-2.08
					c-1.86-0.88-3.7-1.98-5.29-3.54c-1.61-1.53-2.83-3.74-3.13-6.08c-0.17-1.16-0.09-2.33,0.09-3.36l0.12-0.8
					c0.05-0.26,0.13-0.51,0.2-0.77c0.14-0.51,0.27-1.03,0.43-1.52c1.43-3.93,3.75-7.27,6.33-10.23
					c5.21-5.91,11.35-10.67,17.68-15.05c6.36-4.33,13.02-8.17,19.82-11.7C100.76,225.71,107.74,222.47,115.01,220.11z"/>
			</g>
		</g>
	</g>
	<g>
		<g>
			<path class="st1" d="M266.4,195.1c-0.85,0.75-1.5,1.71-2.21,2.6c-0.69,0.91-1.37,1.83-2.03,2.75c-1.35,1.84-2.67,3.7-3.97,5.58
				c-2.6,3.75-5.2,7.49-7.68,11.31c-2.52,3.79-4.98,7.6-7.29,11.48c-2.27,3.87-4.6,7.8-6.14,11.72c-0.37,0.96-0.67,1.94-0.76,2.67
				c-0.05,0.33,0.02,0.64-0.01,0.39c-0.01-0.04-0.02-0.07-0.04-0.11c-0.02-0.04-0.04-0.13-0.08-0.18c-0.08-0.1-0.17-0.26-0.32-0.38
				c-0.15-0.1-0.24-0.21-0.39-0.25c-0.08-0.05-0.16-0.08-0.23-0.08c-0.01-0.02-0.02-0.02-0.04-0.02c-0.2-0.04-0.51,0.03-0.66,0.1
				c-0.05,0-0.1,0.02-0.13,0.05c0,0,0.06-0.06,0.09-0.09c0.17-0.14,0.51-0.5,0.81-0.86c0.63-0.75,1.28-1.63,1.93-2.52
				c2.58-3.64,5.2-7.48,7.96-11.18c2.75-3.73,5.68-7.35,8.72-10.87c3.07-3.51,6.29-6.89,9.65-10.13c3.38-3.23,6.92-6.29,10.59-9.18
				c0.93-0.71,1.85-1.43,2.79-2.12l2.86-2.07c2.11-1.47,4.38-2.68,6.77-3.57c1.2-0.45,2.44-0.83,3.75-1.11
				c0.65-0.14,1.33-0.26,2.06-0.33c0.73-0.07,1.48-0.12,2.43-0.01c0.5,0.08,1,0.15,1.71,0.45c0.31,0.12,0.76,0.38,1.14,0.68
				c0.45,0.38,0.86,0.85,1.15,1.51c0.57,1.31,0.32,2.53,0.07,3.19c-0.13,0.35-0.26,0.6-0.41,0.88c-0.13,0.22-0.28,0.44-0.42,0.64
				c-0.27,0.35-0.55,0.69-0.84,0.98l-0.7,0.68l-1.31,1.2c-3.4,3.08-6.76,6.05-9.93,9.2c-1.58,1.57-3.1,3.18-4.5,4.85
				c-1.37,1.66-2.67,3.42-3.44,5.08c-0.37,0.81-0.53,1.61-0.45,1.87c0.04,0.05,0,0.14,0.06,0.17c0.02,0.02,0.02,0.05,0.03,0.09
				c0.05,0.04,0.09,0.09,0.13,0.14c0.2,0.19,0.46,0.35,0.79,0.48c0.67,0.26,1.61,0.34,2.62,0.29c0.51-0.03,1.03-0.08,1.57-0.15
				c0.54-0.07,0.99-0.19,1.5-0.26c2-0.45,4.05-1.34,6.02-2.34c1.98-1.01,3.9-2.18,5.82-3.38c1.91-1.21,3.77-2.52,5.6-3.88
				c1.84-1.34,3.63-2.76,5.39-4.23c-2.97,3.5-6.29,6.7-9.84,9.67c-1.77,1.49-3.64,2.88-5.61,4.17c-1.98,1.28-4.04,2.48-6.43,3.3
				c-0.61,0.17-1.26,0.37-1.84,0.5c-0.58,0.12-1.19,0.24-1.82,0.32c-1.26,0.16-2.64,0.24-4.17-0.16c-0.76-0.21-1.54-0.56-2.23-1.09
				l-0.5-0.43c-0.17-0.18-0.33-0.39-0.49-0.59c-0.34-0.39-0.52-0.87-0.71-1.34c-0.15-0.46-0.23-0.94-0.27-1.39
				c0-0.42-0.02-0.89,0.04-1.26c0.1-0.8,0.29-1.49,0.52-2.16c0.94-2.59,2.34-4.57,3.74-6.54c1.43-1.92,2.95-3.73,4.5-5.48
				c3.1-3.5,6.41-6.78,9.67-9.95l1.17-1.17l0.5-0.53c0.1-0.12,0.18-0.23,0.26-0.33c0.01-0.03,0.02-0.06,0.04-0.08
				c-0.03,0.02-0.02,0.02-0.06,0.11c-0.05,0.13-0.25,0.74,0.1,1.52c0.18,0.39,0.4,0.65,0.64,0.84c0.15,0.14,0.36,0.24,0.4,0.26
				c0.19,0.07,0.12,0.05,0.06,0.04c-0.19-0.02-0.59,0-0.99,0.06c-0.41,0.05-0.86,0.14-1.32,0.26c-0.92,0.23-1.86,0.54-2.79,0.93
				c-1.85,0.77-3.64,1.74-5.25,2.92l-2.65,2l-2.63,2.08c-3.48,2.79-6.84,5.73-10.05,8.83c-6.47,6.16-12.39,12.88-17.95,19.97
				c-2.81,3.53-5.43,7.18-8.31,10.86c-0.73,0.93-1.48,1.86-2.36,2.82c-0.46,0.49-0.91,0.97-1.64,1.53c-0.2,0.15-0.35,0.27-0.6,0.42
				c-0.29,0.16-0.59,0.32-0.89,0.44c-0.41,0.15-1.02,0.26-1.49,0.28c-0.3-0.02-0.6-0.04-0.89-0.08c-0.34-0.07-0.71-0.17-1.05-0.31
				c-0.39-0.2-0.77-0.38-1.12-0.7c-0.35-0.31-0.66-0.66-0.86-1.03c-0.24-0.39-0.37-0.73-0.46-1.07c-0.35-1.35-0.18-2.21-0.06-3
				c0.31-1.52,0.8-2.7,1.31-3.85c1.04-2.26,2.23-4.3,3.46-6.3c1.23-1.99,2.52-3.93,3.87-5.81c2.69-3.77,5.48-7.43,8.36-11.01
				c2.91-3.55,5.86-7.08,8.93-10.49c1.54-1.7,3.09-3.39,4.68-5.05c0.8-0.82,1.61-1.64,2.43-2.44
				C264.62,196.55,265.42,195.7,266.4,195.1z"/>
		</g>
	</g>
	<g>
		<g>
			<path class="st1" d="M501.62,168.27c-0.85,0.75-1.5,1.71-2.21,2.6c-0.69,0.91-1.37,1.83-2.03,2.75c-1.35,1.84-2.67,3.7-3.97,5.58
				c-2.6,3.75-5.2,7.49-7.68,11.31c-2.52,3.79-4.98,7.6-7.29,11.48c-2.27,3.87-4.6,7.8-6.14,11.72c-0.37,0.96-0.67,1.94-0.76,2.67
				c-0.05,0.33,0.02,0.64-0.01,0.39c-0.01-0.04-0.02-0.07-0.04-0.11c-0.02-0.04-0.04-0.13-0.08-0.18c-0.08-0.1-0.17-0.26-0.32-0.38
				c-0.15-0.1-0.24-0.21-0.39-0.25c-0.08-0.05-0.16-0.08-0.23-0.08c-0.01-0.02-0.02-0.02-0.04-0.02c-0.2-0.04-0.51,0.03-0.66,0.1
				c-0.05,0-0.1,0.02-0.13,0.05c0,0,0.06-0.06,0.09-0.09c0.17-0.14,0.51-0.5,0.81-0.86c0.63-0.75,1.28-1.63,1.93-2.52
				c2.58-3.64,5.2-7.48,7.96-11.18c2.75-3.73,5.68-7.35,8.72-10.87c3.07-3.51,6.29-6.89,9.65-10.13c3.38-3.23,6.92-6.29,10.59-9.18
				c0.93-0.71,1.85-1.43,2.79-2.12l2.86-2.07c2.11-1.47,4.38-2.68,6.77-3.57c1.2-0.45,2.44-0.83,3.75-1.11
				c0.65-0.14,1.33-0.26,2.06-0.33c0.73-0.07,1.48-0.12,2.43-0.01c0.5,0.08,1,0.15,1.71,0.45c0.31,0.12,0.76,0.38,1.14,0.68
				c0.45,0.38,0.86,0.85,1.15,1.51c0.57,1.31,0.32,2.53,0.07,3.19c-0.13,0.35-0.26,0.6-0.41,0.88c-0.13,0.22-0.28,0.44-0.42,0.64
				c-0.27,0.35-0.55,0.69-0.84,0.98l-0.7,0.68l-1.31,1.2c-3.4,3.08-6.76,6.05-9.93,9.2c-1.58,1.57-3.1,3.18-4.5,4.85
				c-1.37,1.66-2.67,3.42-3.44,5.08c-0.37,0.81-0.53,1.61-0.45,1.87c0.04,0.05,0,0.14,0.06,0.17c0.02,0.02,0.02,0.05,0.03,0.09
				c0.05,0.04,0.09,0.09,0.13,0.14c0.2,0.19,0.46,0.35,0.79,0.48c0.67,0.26,1.61,0.34,2.62,0.29c0.51-0.03,1.03-0.08,1.57-0.15
				c0.54-0.07,0.99-0.19,1.5-0.26c2-0.45,4.05-1.34,6.02-2.34c1.98-1.01,3.9-2.18,5.82-3.38c1.91-1.21,3.77-2.52,5.6-3.88
				c1.84-1.34,3.63-2.76,5.39-4.23c-2.97,3.5-6.29,6.7-9.84,9.67c-1.77,1.49-3.64,2.88-5.61,4.17c-1.98,1.28-4.04,2.48-6.43,3.3
				c-0.61,0.17-1.26,0.37-1.84,0.5c-0.58,0.12-1.19,0.24-1.82,0.32c-1.26,0.16-2.64,0.24-4.17-0.16c-0.76-0.21-1.54-0.56-2.23-1.09
				l-0.5-0.43c-0.17-0.18-0.33-0.39-0.49-0.59c-0.34-0.39-0.52-0.87-0.71-1.34c-0.15-0.46-0.23-0.94-0.27-1.39
				c0-0.42-0.02-0.89,0.04-1.26c0.1-0.8,0.29-1.49,0.52-2.16c0.94-2.59,2.34-4.57,3.74-6.54c1.43-1.92,2.95-3.73,4.5-5.48
				c3.1-3.5,6.41-6.78,9.67-9.95l1.17-1.17l0.5-0.53c0.1-0.12,0.18-0.23,0.26-0.33c0.01-0.03,0.02-0.06,0.04-0.08
				c-0.03,0.02-0.02,0.02-0.06,0.11c-0.05,0.13-0.25,0.74,0.1,1.52c0.18,0.39,0.4,0.65,0.64,0.84c0.15,0.14,0.36,0.24,0.4,0.26
				c0.19,0.07,0.12,0.05,0.06,0.04c-0.19-0.02-0.59,0-0.99,0.06c-0.41,0.05-0.86,0.14-1.32,0.26c-0.92,0.23-1.86,0.54-2.79,0.93
				c-1.85,0.77-3.64,1.74-5.25,2.92l-2.65,2l-2.63,2.08c-3.48,2.79-6.84,5.73-10.05,8.83c-6.47,6.16-12.39,12.88-17.95,19.97
				c-2.81,3.53-5.43,7.18-8.31,10.86c-0.73,0.93-1.48,1.86-2.36,2.82c-0.46,0.49-0.91,0.97-1.64,1.53c-0.2,0.15-0.35,0.27-0.6,0.42
				c-0.29,0.16-0.59,0.32-0.89,0.44c-0.41,0.15-1.02,0.26-1.49,0.28c-0.3-0.02-0.6-0.04-0.89-0.08c-0.34-0.07-0.71-0.17-1.05-0.31
				c-0.39-0.2-0.77-0.38-1.12-0.7c-0.35-0.31-0.66-0.66-0.86-1.03c-0.24-0.39-0.37-0.73-0.46-1.07c-0.35-1.35-0.18-2.21-0.06-3
				c0.31-1.52,0.8-2.7,1.31-3.85c1.04-2.26,2.23-4.3,3.46-6.3c1.23-1.99,2.52-3.93,3.87-5.81c2.69-3.77,5.48-7.43,8.36-11.01
				c2.91-3.55,5.86-7.08,8.93-10.49c1.54-1.7,3.09-3.39,4.68-5.05c0.8-0.82,1.61-1.64,2.43-2.44
				C499.83,169.73,500.63,168.88,501.62,168.27z"/>
		</g>
	</g>
	<g>
		<g>
			<path class="st1" d="M670.48,165.46c0.69-1.25,1.23-2.61,1.32-3.97c0.07-1.35-0.26-2.74-0.98-3.76c-0.74-1.02-1.86-1.7-3.1-2.02
				c-1.24-0.35-2.55-0.36-3.9-0.24c-2.69,0.18-5.36,0.98-7.91,1.98c-2.55,1.02-5.02,2.26-7.39,3.7c-2.37,1.43-4.64,3.04-6.81,4.76
				c-2.19,1.71-4.3,3.51-6.24,5.44c-3.9,3.87-7.35,8.24-10.16,12.87c-1.38,2.3-2.62,4.74-3.35,7.03c-0.34,1.1-0.53,2.25-0.42,2.88
				c0.03,0.32,0.15,0.45,0.05,0.28c-0.05-0.07-0.19-0.21-0.39-0.31c-0.2-0.09-0.43-0.15-0.62-0.13c-0.04,0-0.09,0-0.13,0.02
				c0.01-0.01,0.04-0.03,0.06-0.04c0.05-0.02,0.09-0.04,0.15-0.04l0.7-0.31c0.54-0.29,1.08-0.56,1.66-0.91
				c1.13-0.66,2.29-1.42,3.44-2.19c2.3-1.55,4.6-3.18,6.86-4.86c2.27-1.68,4.5-3.41,6.71-5.15c1.1-0.87,2.19-1.75,3.31-2.67
				c1.17-0.9,2.34-1.82,3.5-2.69c2.33-1.75,4.72-3.44,7.22-5.06c1.25-0.81,2.53-1.59,3.91-2.34c0.68-0.38,1.41-0.73,2.22-1.07
				c0.44-0.17,0.82-0.34,1.41-0.5c0.16-0.04,0.24-0.08,0.45-0.12c0.2-0.04,0.4-0.07,0.61-0.1l0.15-0.02l0.28-0.01
				c0.2,0,0.39,0.01,0.59,0.03l0.29,0.04c0.02,0,0.14,0.03,0.26,0.06c0.11,0.03,0.23,0.07,0.34,0.11c0.46,0.17,0.9,0.45,1.24,0.76
				c0.06,0.06,0.12,0.12,0.17,0.18l0.07,0.08c0.44,0.51,0.77,1.32,0.8,2c0.01,0.33-0.01,0.62-0.07,0.93
				c-0.02,0.13-0.08,0.34-0.1,0.39l-0.06,0.17c-0.04,0.11-0.09,0.23-0.14,0.34c-0.11,0.23-0.14,0.26-0.22,0.4
				c-0.07,0.13-0.13,0.21-0.18,0.28c-0.11,0.16-0.2,0.29-0.29,0.4l-0.25,0.32c-0.32,0.39-0.61,0.72-0.89,1.04l-1.65,1.86
				c-1.07,1.22-2.1,2.44-3.09,3.68c-1.98,2.47-3.79,5.14-5.3,7.79c-0.33,0.55-0.71,1.41-1.07,2.1c-0.35,0.72-0.67,1.4-0.9,2
				c-0.29,0.8-0.54,1.49-0.75,2.2c-0.2,0.69-0.36,1.38-0.42,1.93c-0.03,0.27-0.03,0.52-0.02,0.61c0,0.02,0,0.04,0,0.07
				c0,0.01,0-0.04-0.02-0.05c-0.03,0.01-0.08-0.16-0.2-0.23c-0.09-0.09-0.26-0.21-0.38-0.22c-0.03-0.02-0.07-0.03-0.1-0.03
				c-0.04,0-0.09,0.02-0.05,0.01c0.05-0.02,0.04,0.01,0.14,0.01l0.38-0.06c1.15-0.27,2.58-0.91,3.93-1.66
				c2.73-1.52,5.41-3.43,8.02-5.39c2.6-1.99,5.21-4.02,7.75-6.14c5.09-4.23,10.1-8.6,15.13-12.97c-4.24,5.14-8.65,10.14-13.32,14.93
				c-4.69,4.79-9.45,9.45-15.22,13.43c-1.49,0.97-3.01,1.92-5.07,2.54l-0.84,0.19c-0.32,0.05-0.74,0.07-1.11,0.08
				c-0.17,0.02-0.42-0.02-0.66-0.07c-0.24-0.05-0.48-0.1-0.71-0.17c-0.48-0.18-1.04-0.5-1.42-0.88c-0.39-0.4-0.74-0.86-0.89-1.26
				c-0.09-0.2-0.2-0.43-0.25-0.62l-0.13-0.54c-0.15-0.73-0.15-1.31-0.14-1.87c0.05-1.1,0.23-2.05,0.43-2.97
				c0.2-0.9,0.47-1.79,0.7-2.57c0.3-0.98,0.64-1.82,0.97-2.62c0.35-0.8,0.6-1.49,1.05-2.4c1.58-3.23,3.45-6.13,5.48-8.94
				c1.02-1.4,2.08-2.76,3.17-4.06l1.59-1.92c0.26-0.31,0.5-0.61,0.7-0.87l0.13-0.18c0.04-0.06,0.07-0.1,0.07-0.11
				c0.01-0.02,0.02-0.02-0.01,0.01l-0.07,0.13c-0.03,0.06-0.06,0.13-0.08,0.2l-0.03,0.1c-0.01,0.03-0.07,0.21-0.08,0.31
				c-0.05,0.26-0.07,0.49-0.05,0.77c0.02,0.63,0.32,1.39,0.75,1.85l0.24,0.26c0.26,0.27,0.62,0.51,1,0.65
				c0.09,0.03,0.19,0.06,0.28,0.09l0.19,0.04l0.16,0.03c0.11,0.02,0.21,0.02,0.32,0.02l0.15-0.01l0.02,0c0.03,0,0.05,0,0.08-0.01
				c0.04-0.02-0.05,0.02-0.06,0.03c-0.1,0.02-0.38,0.15-0.6,0.24c-0.51,0.24-1.06,0.53-1.62,0.85c-1.13,0.63-2.28,1.37-3.42,2.13
				c-2.28,1.53-4.53,3.21-6.76,4.91c-1.13,0.85-2.2,1.7-3.3,2.56c-1.08,0.91-2.21,1.83-3.35,2.74c-2.27,1.82-4.59,3.57-6.93,5.29
				c-2.35,1.71-4.72,3.4-7.2,5.01c-1.25,0.8-2.5,1.59-3.85,2.35c-0.65,0.38-1.39,0.75-2.13,1.12l-1.27,0.54
				c-0.29,0.09-0.59,0.18-0.88,0.26l-0.45,0.11c-0.22,0.03-0.44,0.06-0.66,0.07c-0.89,0.05-1.86-0.1-2.7-0.53
				c-0.84-0.4-1.55-1.02-2.02-1.66c-0.97-1.32-1.24-2.62-1.35-3.72c-0.1-1.12,0-2.1,0.17-3c0.08-0.46,0.18-0.9,0.3-1.31
				c0.11-0.43,0.24-0.83,0.38-1.23c1.11-3.15,2.62-5.78,4.29-8.31c3.32-5.05,7.33-9.49,11.8-13.43c4.5-3.94,9.39-7.23,14.71-9.88
				c2.66-1.31,5.4-2.49,8.28-3.27c2.88-0.78,5.85-1.34,8.89-1.23c1.51,0.01,3.1,0.24,4.56,0.86c1.46,0.59,2.83,1.66,3.59,3.09
				c0.76,1.44,0.85,3.06,0.55,4.53C672.14,163.07,671.37,164.35,670.48,165.46z"/>
		</g>
	</g>
	<g>
		<g>
			<path class="st1" d="M557.15,159.36c-0.77,0.45-1.41,1.07-2.02,1.7c-0.61,0.64-1.17,1.32-1.7,2.02c-1.03,1.42-2.04,2.9-3,4.37
				c-1.94,2.95-3.79,5.97-5.57,9.03c-3.56,6.12-6.91,12.31-10.05,18.67c-1.58,3.12-3.07,6.29-4.33,9.51
				c-0.63,1.6-1.22,3.24-1.64,4.81c-0.11,0.39-0.2,0.78-0.26,1.13c-0.03,0.18-0.06,0.34-0.07,0.48c0,0.05-0.01,0.14-0.01,0.16
				l0,0.05c0-0.01,0.01-0.03,0-0.05c0,0.01-0.01-0.11-0.03-0.18c-0.01-0.02-0.08-0.29-0.21-0.48c-0.04-0.06-0.17-0.25-0.34-0.4
				c-0.17-0.15-0.36-0.25-0.56-0.35c-0.2-0.09-0.43-0.14-0.65-0.15c-0.21-0.02-0.67,0.02-0.96,0.17c-0.25,0.12-0.16,0.08-0.26,0.14
				c-0.05,0.03-0.12,0.09-0.1,0.07c0,0-0.02,0.01-0.01,0l0.13-0.15c0.22-0.25,0.48-0.59,0.73-0.92c4.1-5.63,8.37-11.48,12.88-17.03
				c4.51-5.58,9.28-10.99,14.49-16.02c5.2-5.03,10.79-9.76,17.05-13.74l1.18-0.73c0.39-0.24,0.79-0.48,1.25-0.74
				c0.9-0.5,1.86-0.97,3.04-1.34c0.59-0.18,1.23-0.35,2.07-0.41c0.82-0.03,1.92-0.06,3.27,0.73c0.66,0.4,1.26,1.03,1.62,1.69
				c0.19,0.33,0.3,0.63,0.42,0.96c0.08,0.28,0.15,0.59,0.19,0.86c0.14,1.07,0.01,1.83-0.13,2.49c-0.29,1.34-0.73,2.31-1.18,3.26
				c-0.46,0.94-0.95,1.81-1.46,2.63c-1.09,1.71-1.94,2.95-2.83,4.46c-3.52,5.88-6.69,12.18-8.98,18.47
				c-0.56,1.55-1.05,3.16-1.25,4.43c-0.03,0.16-0.02,0.25-0.03,0.38l-0.02,0.18l-0.01,0.04l0-0.04c0-0.03,0-0.06-0.01-0.09
				c-0.03-0.18-0.03-0.15-0.09-0.26c-0.06-0.09-0.25-0.33-0.64-0.48c-0.41-0.15-0.75-0.14-0.86-0.08c-0.16,0.06,0.31-0.15,0.72-0.56
				c0.11-0.1,0.22-0.23,0.33-0.34c0.12-0.12,0.21-0.21,0.37-0.4l0.88-0.99l3.53-4c4.74-5.32,9.52-10.64,14.65-15.71
				c2.57-2.53,5.21-5.01,8.02-7.37c1.41-1.18,2.87-2.33,4.41-3.43c1.56-1.09,3.17-2.14,5.14-3c0.96-0.43,2.1-0.8,3.42-0.98
				c0.74-0.04,1.42-0.09,2.35,0.11c0.25,0.06,0.5,0.14,0.74,0.22c0.29,0.13,0.58,0.28,0.85,0.44c0.29,0.2,0.58,0.45,0.84,0.71
				c0.24,0.28,0.46,0.61,0.64,0.93c0.14,0.31,0.27,0.64,0.35,0.95c0.06,0.28,0.1,0.56,0.13,0.84c0.02,0.48-0.01,0.95-0.07,1.3
				c-0.12,0.77-0.31,1.34-0.52,1.88c-0.41,1.06-0.87,1.95-1.36,2.79c-1.96,3.32-4.12,6.15-6.27,9.02
				c-4.29,5.68-8.72,11.21-12.36,17.01c-0.89,1.45-1.72,2.92-2.34,4.39c-0.31,0.73-0.56,1.46-0.7,2.13
				c-0.15,0.67-0.14,1.26-0.05,1.6c0.07,0.16,0.09,0.29,0.21,0.4c0.03,0.07,0.13,0.11,0.19,0.18c0.1,0.06,0.24,0.15,0.34,0.2
				c0.39,0.25,0.83,0.26,1.46,0.2c1.27-0.17,2.78-0.9,4.18-1.75c2.84-1.76,5.53-4.03,8.12-6.38c2.59-2.36,5.07-4.88,7.55-7.39
				c4.94-5.06,9.69-10.36,14.66-15.43l-6.54,8.41c-2.19,2.79-4.41,5.57-6.68,8.32c-2.27,2.75-4.62,5.44-7.1,8.03
				c-2.49,2.59-5.07,5.12-8.13,7.32c-1.55,1.07-3.23,2.09-5.46,2.56c-0.27,0.07-0.57,0.1-0.88,0.11c-0.31,0.01-0.6,0.06-0.94,0
				c-0.33-0.04-0.66-0.08-0.98-0.15c-0.31-0.1-0.62-0.22-0.93-0.34c-0.3-0.13-0.55-0.27-0.83-0.43c-0.29-0.21-0.58-0.39-0.84-0.66
				c-0.55-0.5-0.93-1.17-1.2-1.83c-0.48-1.35-0.42-2.59-0.27-3.66c0.17-1.08,0.46-2.04,0.79-2.97c0.67-1.84,1.5-3.51,2.39-5.13
				c1.76-3.24,3.78-6.23,5.8-9.19l6.11-8.73c1.99-2.88,4.02-5.8,5.55-8.66c0.37-0.71,0.71-1.41,0.92-2.01
				c0.1-0.29,0.18-0.57,0.18-0.68c0.02-0.08-0.01-0.05,0.01-0.02c-0.01,0.06,0,0.13,0.03,0.18c0.02,0.1,0.06,0.23,0.12,0.33
				c0.06,0.14,0.15,0.28,0.26,0.39c0.08,0.12,0.22,0.22,0.33,0.29c0.07,0.06,0.16,0.11,0.26,0.14c0.03,0.02,0.07,0.04,0.1,0.04
				c0.06,0-0.15,0.03-0.3,0.03c-0.43,0.1-1.01,0.24-1.65,0.56c-1.27,0.59-2.64,1.49-3.96,2.47c-1.32,0.99-2.63,2.06-3.91,3.19
				c-2.56,2.27-5.05,4.7-7.47,7.21c-4.86,5.01-9.58,10.23-14.22,15.56l-3.48,4.01l-0.88,1.01c-0.13,0.15-0.34,0.38-0.53,0.58
				c-0.2,0.21-0.37,0.41-0.59,0.61c-0.88,0.79-1.86,1.7-3.72,2.26c-0.96,0.24-2.23,0.33-3.47-0.18c-1.21-0.49-2.08-1.35-2.62-2.19
				c-0.54-0.86-0.86-1.68-0.99-2.74l-0.03-0.42l-0.01-0.21l0.01-0.12l0.03-0.49c0.02-0.31,0.04-0.67,0.09-0.95
				c0.35-2.24,0.92-4.03,1.56-5.81c1.29-3.54,2.81-6.85,4.43-10.12c1.63-3.26,3.39-6.44,5.31-9.56c0.92-1.54,2.08-3.22,2.9-4.5
				c0.43-0.68,0.81-1.36,1.14-2.01c0.32-0.64,0.59-1.31,0.67-1.71c0.06-0.2,0.04-0.34,0.05-0.15c0.01,0.05,0.02,0.14,0.05,0.21
				c0.03,0.13,0.08,0.21,0.15,0.36c0.15,0.27,0.43,0.57,0.71,0.74c0.6,0.32,0.76,0.23,0.7,0.25c-0.05,0-0.28,0.04-0.53,0.12
				c-0.52,0.15-1.17,0.45-1.83,0.79c-0.32,0.17-0.69,0.38-1.05,0.59l-1.09,0.64c-5.81,3.5-11.22,7.84-16.32,12.55
				c-5.08,4.73-9.91,9.8-14.54,15.08c-2.31,2.64-4.57,5.34-6.79,8.07c-2.24,2.74-4.36,5.5-6.7,8.31c-0.3,0.36-0.6,0.71-0.98,1.11
				l-0.33,0.33l-0.26,0.23c-0.02,0.02-0.14,0.11-0.24,0.17c-0.14,0.08-0.1,0.08-0.4,0.22c-0.34,0.16-0.85,0.24-1.11,0.21
				c-0.27-0.02-0.56-0.08-0.82-0.19c-0.25-0.1-0.48-0.25-0.69-0.44c-0.22-0.19-0.39-0.41-0.45-0.53c-0.18-0.29-0.31-0.65-0.33-0.79
				c-0.05-0.18-0.08-0.41-0.09-0.51l-0.02-0.38l0.01-0.29c0.01-0.21,0.04-0.33,0.06-0.5c0.05-0.3,0.1-0.57,0.16-0.83
				c0.12-0.51,0.26-0.99,0.41-1.44c0.6-1.82,1.31-3.49,2.07-5.15c1.52-3.3,3.19-6.49,5.02-9.59c3.58-6.13,7.35-12.23,11.42-18.07
				c2.04-2.92,4.14-5.81,6.34-8.61c1.12-1.39,2.25-2.75,3.44-4.1C554.24,161.43,555.54,160.13,557.15,159.36z"/>
		</g>
	</g>
	<g>
		<g>
			<path class="st1" d="M800.23,138.4c-1.73,1.32-3.12,3-4.56,4.62c-1.43,1.63-2.82,3.29-4.16,4.98c-1.33,1.7-2.67,3.39-3.89,5.13
				c-1.18,1.73-2.35,3.6-3.48,5.42c-2.28,3.66-4.51,7.36-6.52,11.12c-0.99,1.89-1.97,3.77-2.87,5.68c-0.88,1.9-1.72,3.85-2.27,5.69
				c-0.13,0.45-0.24,0.89-0.29,1.22c-0.02,0.14-0.02,0.31-0.01,0.21c0-0.03,0-0.11-0.01-0.16c-0.01-0.06-0.02-0.13-0.04-0.2
				c-0.02-0.07-0.03-0.11-0.09-0.27c-0.05-0.13-0.12-0.25-0.2-0.37c-0.12-0.18-0.27-0.36-0.44-0.5c-0.17-0.14-0.4-0.31-0.64-0.4
				c-0.26-0.1-0.42-0.15-0.63-0.18c-0.1-0.01-0.2-0.02-0.3-0.02c-0.18-0.01-0.47,0.02-0.7,0.08c-0.2,0.04-0.56,0.22-0.58,0.23
				l-0.11,0.06c-0.06,0.03-0.17,0.12-0.17,0.12l-0.02,0.01c-0.02,0.02,0-0.01,0.03-0.04l0.08-0.09l0.43-0.51l0.96-1.21l4-5.12
				c2.69-3.45,5.49-6.84,8.4-10.16c5.85-6.61,12.1-12.99,19.64-18.25c3.8-2.56,7.95-4.93,12.92-6.06c0.6-0.13,1.31-0.26,1.95-0.32
				c0.65-0.07,1.31-0.11,2.01-0.12c0.41,0.02,0.72,0,1.21,0.07l0.71,0.11c0.32,0.08,0.63,0.17,0.94,0.28
				c0.15,0.05,0.43,0.19,0.63,0.3c0.23,0.13,0.4,0.23,0.65,0.43c0.55,0.49,1.01,1.01,1.29,1.83c0.14,0.39,0.23,0.8,0.23,1.09
				c0.02,0.32,0.01,0.65-0.03,0.96c-0.04,0.22-0.09,0.43-0.15,0.64c-0.06,0.22-0.14,0.43-0.19,0.55c-0.54,1.18-1.04,1.7-1.49,2.24
				c-0.24,0.26-0.43,0.48-0.69,0.75l-0.37,0.37l-0.27,0.26c-0.75,0.68-1.43,1.41-2.12,2.15c-2.76,3.06-5.37,6.44-7.82,9.88
				c-1.22,1.73-2.41,3.48-3.52,5.27c-1.14,1.77-2.19,3.58-3.11,5.39l-0.66,1.36l-0.55,1.34c-0.18,0.44-0.26,0.85-0.4,1.27
				c-0.09,0.23-0.07,0.37-0.1,0.54l-0.09,0.49c-0.01,0.22,0.02,0.27-0.02,0.23c-0.04-0.04-0.12-0.04,0.01,0.03
				c0.23,0.14,1.03,0.17,1.53,0c1.68-0.6,3.54-1.74,5.28-2.86c1.77-1.13,3.49-2.41,5.22-3.68c6.9-5.14,13.49-10.82,20.1-16.49
				c-5.51,6.77-11.48,13.14-17.91,19.14c-1.64,1.48-3.3,2.93-5.08,4.3c-1.8,1.37-3.55,2.73-5.88,3.83c-0.76,0.33-1.5,0.51-2.3,0.59
				c-0.79,0.08-1.63,0.04-2.55-0.25c-0.9-0.28-1.92-0.92-2.55-1.87c-0.65-0.95-0.87-1.99-0.91-2.86c0.01-0.39,0.04-0.75,0.06-1.13
				c0.03-0.36,0.05-0.78,0.13-1.07c0.15-0.62,0.27-1.29,0.46-1.87l0.58-1.72l0.66-1.62c1.81-4.25,4.07-8.08,6.48-11.84
				c2.41-3.76,5.02-7.33,7.97-10.83c0.77-0.87,1.55-1.75,2.39-2.55l0.31-0.31l0.2-0.21c0.12-0.12,0.28-0.32,0.41-0.46
				c0.26-0.28,0.44-0.63,0.34-0.44c0.01,0-0.03,0.08-0.06,0.16c-0.03,0.08-0.04,0.16-0.05,0.25c-0.07,0.4-0.05,0.66,0.12,1.25
				c0.22,0.53,0.46,0.89,0.83,1.17c0.14,0.11,0.19,0.15,0.3,0.22c0.08,0.05,0.25,0.11,0.26,0.12c0.05,0.03,0.1,0.05,0.15,0.05
				c-0.03,0-0.07,0-0.1,0c-0.05-0.02-0.29,0-0.42-0.01c-0.39,0.02-0.81,0.04-1.24,0.1c-0.44,0.05-0.8,0.13-1.25,0.24
				c-3.53,0.81-7.12,2.78-10.47,5.08c-3.38,2.3-6.59,5.02-9.68,7.88c-3.11,2.86-6.08,5.91-8.99,9.04c-2.92,3.12-5.74,6.36-8.56,9.63
				l-4.26,4.96l-1.15,1.27c-0.2,0.22-0.41,0.44-0.66,0.69l-0.21,0.2c-0.07,0.07-0.14,0.14-0.27,0.24l-0.17,0.14
				c-0.05,0.05-0.22,0.16-0.34,0.23l-0.19,0.12c-0.04,0.03-0.44,0.21-0.67,0.26c-0.26,0.07-0.58,0.11-0.8,0.11
				c-0.13,0-0.27-0.02-0.4-0.03c-0.28-0.05-0.51-0.09-0.83-0.23c-0.29-0.13-0.6-0.32-0.81-0.51c-0.22-0.19-0.41-0.41-0.58-0.65
				c-0.11-0.18-0.21-0.36-0.29-0.55c-0.09-0.21-0.12-0.33-0.16-0.46c-0.03-0.13-0.07-0.27-0.09-0.4c-0.02-0.19-0.04-0.39-0.05-0.56
				c0-0.64,0.08-1.01,0.15-1.41c0.16-0.74,0.36-1.33,0.57-1.92c0.85-2.28,1.87-4.26,2.94-6.25c1.07-1.97,2.21-3.88,3.43-5.73
				c2.43-3.71,4.98-7.26,7.65-10.75c1.36-1.74,2.69-3.42,4.16-5.14c1.48-1.67,3-3.25,4.58-4.77c1.58-1.52,3.19-3,4.85-4.43
				c0.83-0.71,1.68-1.4,2.55-2.07C798.35,139.54,799.23,138.86,800.23,138.4z"/>
		</g>
	</g>
	<g>
		<g>
			<path class="st1" d="M336.63,191.86c-5.08,0.69-9.62,2.86-13.69,5.6c-4.08,2.75-7.74,6.06-10.99,9.69
				c-3.25,3.63-6.09,7.61-8.32,11.8c-1.09,2.1-2.05,4.25-2.73,6.43c-0.66,2.2-1.12,4.36-0.92,6.12c0.09,0.86,0.34,1.61,0.58,1.88
				c0.11,0.16,0.18,0.23,0.27,0.26c0.1,0.04,0.16,0.1,0.44,0.1c0.49,0.05,1.41-0.08,2.34-0.37c0.96-0.33,1.97-0.72,2.98-1.22
				c4.07-2.04,8.04-4.98,11.74-8.11c3.71-3.16,7.22-6.61,10.38-10.31c3.11-3.7,6.01-7.72,7.52-11.99l0.15-0.43
				c0.36-1.02,1.48-1.56,2.51-1.2c0.41,0.15,0.75,0.42,0.98,0.76c0.28,0.41,0.94,0.92,1.71,1.35c0.79,0.44,1.58,0.8,2.4,1.05
				c1.66,0.53,3.36,0.54,5.27,0.16c1.87-0.36,3.74-0.92,5.53-1.76c1.79-0.82,3.52-1.85,5.18-3.01c-1.32,1.53-2.81,2.97-4.5,4.18
				c-1.68,1.21-3.54,2.26-5.55,2.98c-0.5,0.2-1.02,0.33-1.53,0.5c-0.54,0.15-1.1,0.27-1.67,0.34c-1.13,0.15-2.31,0.14-3.46-0.04
				c-1.15-0.17-2.26-0.51-3.3-0.92c-1.04-0.43-2.18-0.93-3.25-2.03l3.64-0.87c-0.59,2.77-1.64,5.32-2.88,7.7
				c-1.23,2.39-2.67,4.63-4.22,6.77c-3.1,4.28-6.64,8.17-10.5,11.75c-3.91,3.54-8.05,6.84-13.03,9.39
				c-1.25,0.63-2.59,1.21-4.04,1.66c-1.49,0.42-3.11,0.79-5.15,0.6c-0.99-0.07-2.16-0.43-3.16-1.01c-1.03-0.58-1.88-1.43-2.48-2.31
				c-1.23-1.81-1.55-3.63-1.7-5.28c-0.12-1.66,0.04-3.2,0.33-4.67c0.3-1.49,0.72-2.78,1.18-4.11c0.95-2.63,2.18-5.07,3.59-7.38
				c2.81-4.61,6.29-8.67,10.19-12.22c3.91-3.54,8.26-6.59,13.03-8.81c2.38-1.11,4.86-2.01,7.42-2.54
				C331.46,191.76,334.09,191.56,336.63,191.86z"/>
		</g>
	</g>
	<g>
		<g>
			<path class="st1" d="M466.54,177.33c-5.08,0.69-9.62,2.86-13.69,5.6c-4.08,2.75-7.74,6.06-10.99,9.69
				c-3.25,3.63-6.09,7.61-8.32,11.8c-1.09,2.1-2.05,4.25-2.73,6.43c-0.66,2.2-1.12,4.36-0.92,6.12c0.09,0.86,0.34,1.61,0.58,1.88
				c0.11,0.16,0.18,0.23,0.27,0.26c0.1,0.04,0.16,0.1,0.44,0.1c0.49,0.05,1.41-0.08,2.34-0.37c0.96-0.33,1.97-0.72,2.98-1.22
				c4.07-2.04,8.04-4.98,11.74-8.11c3.71-3.16,7.22-6.61,10.38-10.31c3.11-3.7,6.01-7.72,7.52-11.99l0.15-0.43
				c0.36-1.02,1.48-1.56,2.51-1.2c0.41,0.15,0.75,0.42,0.98,0.76c0.28,0.41,0.94,0.92,1.71,1.35c0.79,0.44,1.58,0.8,2.4,1.05
				c1.66,0.53,3.36,0.54,5.27,0.16c1.87-0.36,3.74-0.92,5.53-1.76c1.79-0.82,3.52-1.85,5.18-3.01c-1.32,1.53-2.81,2.97-4.5,4.18
				c-1.68,1.21-3.54,2.26-5.55,2.98c-0.5,0.2-1.02,0.33-1.53,0.5c-0.54,0.15-1.1,0.27-1.67,0.34c-1.13,0.15-2.31,0.14-3.46-0.04
				c-1.15-0.17-2.26-0.51-3.3-0.92c-1.04-0.43-2.18-0.93-3.25-2.03l3.64-0.87c-0.59,2.77-1.64,5.32-2.88,7.7
				c-1.23,2.39-2.67,4.63-4.22,6.77c-3.1,4.28-6.64,8.17-10.5,11.75c-3.91,3.54-8.05,6.84-13.03,9.39
				c-1.25,0.63-2.59,1.21-4.04,1.66c-1.49,0.42-3.11,0.79-5.15,0.6c-0.99-0.07-2.16-0.43-3.16-1.01c-1.03-0.58-1.88-1.43-2.48-2.31
				c-1.23-1.81-1.55-3.63-1.7-5.28c-0.12-1.66,0.04-3.2,0.33-4.67c0.3-1.49,0.72-2.78,1.18-4.11c0.95-2.63,2.18-5.07,3.59-7.38
				c2.81-4.61,6.29-8.67,10.19-12.22c3.91-3.54,8.26-6.59,13.03-8.81c2.38-1.11,4.86-2.01,7.42-2.54
				C461.37,177.24,464.01,177.03,466.54,177.33z"/>
		</g>
	</g>
	<g>
		<g>
			<path class="st1" d="M764.37,142.68c-5.08,0.69-9.62,2.86-13.69,5.6c-4.08,2.75-7.74,6.06-10.99,9.69
				c-3.25,3.63-6.09,7.61-8.32,11.8c-1.09,2.1-2.05,4.25-2.73,6.43c-0.66,2.2-1.12,4.36-0.92,6.12c0.09,0.86,0.34,1.61,0.58,1.88
				c0.11,0.16,0.18,0.23,0.27,0.26c0.1,0.04,0.16,0.1,0.44,0.1c0.49,0.05,1.41-0.08,2.34-0.37c0.96-0.33,1.97-0.72,2.98-1.22
				c4.07-2.04,8.04-4.98,11.74-8.11c3.71-3.16,7.22-6.61,10.38-10.31c3.11-3.7,6.01-7.72,7.52-11.99l0.15-0.43
				c0.36-1.02,1.48-1.56,2.51-1.2c0.41,0.15,0.75,0.42,0.98,0.76c0.28,0.41,0.94,0.92,1.71,1.35c0.79,0.44,1.58,0.8,2.4,1.05
				c1.66,0.53,3.36,0.54,5.27,0.16c1.87-0.36,3.74-0.92,5.53-1.76c1.79-0.82,3.52-1.85,5.18-3.01c-1.32,1.53-2.81,2.97-4.5,4.18
				c-1.68,1.21-3.54,2.26-5.55,2.98c-0.5,0.2-1.02,0.33-1.53,0.5c-0.54,0.15-1.1,0.27-1.67,0.34c-1.13,0.15-2.31,0.14-3.46-0.04
				c-1.15-0.17-2.26-0.51-3.3-0.92c-1.04-0.43-2.18-0.93-3.25-2.03l3.64-0.87c-0.59,2.77-1.64,5.32-2.88,7.7
				c-1.23,2.39-2.67,4.63-4.22,6.77c-3.1,4.28-6.64,8.17-10.5,11.75c-3.91,3.54-8.05,6.84-13.03,9.39
				c-1.25,0.63-2.59,1.21-4.04,1.66c-1.49,0.42-3.11,0.79-5.15,0.6c-0.99-0.07-2.16-0.43-3.16-1.01c-1.03-0.58-1.88-1.43-2.48-2.31
				c-1.23-1.81-1.55-3.63-1.7-5.28c-0.12-1.66,0.04-3.2,0.33-4.67c0.3-1.49,0.72-2.78,1.18-4.11c0.95-2.63,2.18-5.07,3.59-7.38
				c2.81-4.61,6.29-8.67,10.19-12.22c3.91-3.54,8.26-6.59,13.03-8.81c2.38-1.11,4.86-2.01,7.42-2.54
				C759.2,142.59,761.83,142.38,764.37,142.68z"/>
		</g>
	</g>
	<g>
		<g>
			<g>
				<path class="st1" d="M725.57,118.82c-2.36,1.49-3.74,3.89-5.31,6.15l-4.54,6.92l-4.58,6.91c-1.57,2.3-3.04,4.52-4.51,6.83
					l-17.38,27.96c-1.44,2.32-2.84,4.64-4.16,6.97c-0.67,1.16-1.3,2.32-1.88,3.46c-0.55,1.12-1.1,2.32-1.37,3.22
					c-0.27,0.85-0.44,2.25-0.39,2.84c0.01,0.06,0.01,0.15,0.01,0.15c0,0.01,0,0.03,0,0.03c0-0.02-0.01-0.04-0.02-0.06
					c-0.01,0-0.03-0.05-0.07-0.11c-0.04-0.06-0.07-0.08-0.13-0.16c-0.13-0.17-0.31-0.3-0.58-0.45c-0.07-0.03-0.13-0.06-0.2-0.08
					c-0.03-0.01-0.01,0-0.02,0c-0.01,0,0.02,0.01,0.02,0.01c0.02,0.01,0.03,0.02,0.04,0.03c0.03,0.02,0.07,0.03,0.16,0.03
					c0.09,0,0.21-0.03,0.37-0.08c0.17-0.06,0.44-0.22,0.66-0.31c0.45-0.17,1-0.57,1.52-0.86c1.06-0.66,2.15-1.41,3.22-2.22
					c4.3-3.18,8.52-6.74,12.76-10.25l6.38-5.28c2.14-1.76,4.28-3.52,6.48-5.23c-3.3,4.49-6.81,8.78-10.46,12.98
					c-3.68,4.18-7.46,8.24-11.69,12.06c-1.06,0.95-2.17,1.88-3.37,2.79c-0.65,0.45-1.19,0.9-1.99,1.32
					c-0.39,0.22-0.72,0.42-1.17,0.64c-0.48,0.21-1.01,0.4-1.61,0.52c-0.59,0.12-1.24,0.17-1.9,0.11c-0.33-0.03-0.66-0.08-0.98-0.16
					c-0.16-0.04-0.31-0.08-0.48-0.13l-0.27-0.09c-0.14-0.06-0.29-0.13-0.43-0.2c-0.6-0.3-1-0.68-1.38-1.1
					c-0.18-0.21-0.28-0.39-0.42-0.59c-0.13-0.21-0.24-0.41-0.3-0.57c-0.08-0.18-0.15-0.36-0.22-0.54l-0.14-0.47
					c-0.1-0.33-0.13-0.59-0.18-0.87c-0.15-1.08-0.12-1.95-0.06-2.8c0.08-0.86,0.16-1.62,0.4-2.55c0.44-1.78,1.06-3.09,1.67-4.47
					c0.62-1.34,1.27-2.62,1.95-3.88c1.37-2.5,2.79-4.91,4.25-7.29c2.94-4.74,5.99-9.36,9.11-13.93c1.56-2.26,3.13-4.6,4.77-6.82
					c1.61-2.25,3.27-4.49,4.98-6.7c1.71-2.2,3.54-4.4,5.36-6.46c1.81-2.08,3.64-4.16,5.51-6.22c1.87-2.05,3.76-4.09,5.76-6.05
					c1-0.98,2.01-1.95,3.09-2.86c0.57-0.46,1.16-0.86,1.77-1.21C724.24,119.3,724.88,118.96,725.57,118.82z"/>
			</g>
			<g>
				<path class="st1" d="M687.13,143.53c-0.02-1.2,0.76-2.37,1.58-3.25c0.84-0.92,1.82-1.63,2.82-2.29
					c2.01-1.29,4.16-2.25,6.34-3.03c2.18-0.78,4.43-1.35,6.65-1.8c2.21-0.45,4.45-0.77,6.68-1.01c4.47-0.46,8.94-0.52,13.41-0.21
					c4.47,0.34,8.92,0.96,13.34,2.4c-4.39,1.5-8.75,2.35-13.09,3.1c-4.34,0.72-8.66,1.25-12.96,1.68l-6.44,0.6
					c-2.14,0.18-4.24,0.37-6.35,0.58c-2.11,0.22-4.21,0.48-6.28,0.85c-1.03,0.19-2.06,0.41-3.04,0.74
					C688.84,142.24,687.85,142.6,687.13,143.53z"/>
			</g>
		</g>
	</g>
	<g>
		<g>
			<path class="st1" d="M368.84,185.74c-1.44,1.64-2.72,3.38-3.89,5.2c-1.19,1.8-2.3,3.65-3.37,5.54c-2.14,3.73-4.03,7.58-5.7,11.55
				c-1.7,3.94-3.28,7.95-4.58,11.99c-0.33,1.01-0.62,2.02-0.9,3.01c-0.28,0.98-0.52,2.02-0.56,2.66c-0.05,0.34,0.08,0.5,0,0.27
				c-0.03-0.05-0.06-0.11-0.13-0.22c-0.08-0.08-0.15-0.15-0.24-0.23c-0.11-0.06-0.17-0.1-0.23-0.13c-0.09-0.02-0.09-0.03-0.11-0.04
				c-0.04-0.02,0.23-0.03,0.54-0.15c0.33-0.12,0.69-0.26,1.07-0.47c0.37-0.19,0.77-0.44,1.13-0.68c0.26-0.18,0.69-0.52,1.06-0.83
				c0.77-0.65,1.56-1.34,2.32-2.05c1.54-1.42,3.06-2.89,4.48-4.4l1.05-1.14l1.04-1.19c0.72-0.84,1.45-1.65,2.19-2.47
				c1.47-1.63,2.95-3.24,4.44-4.84c1.49-1.61,3.01-3.19,4.57-4.76c0.78-0.79,1.57-1.57,2.4-2.36c0.42-0.4,0.84-0.79,1.32-1.21
				c0.25-0.21,0.49-0.42,0.88-0.7l0.32-0.22c0.23-0.13,0.37-0.22,0.69-0.36c0.38-0.16,0.81-0.26,1.23-0.28
				c-0.21-0.05,1.43-0.05,2.25,0.65c0.74,0.56,0.99,1.02,1.26,1.67c0.15,0.44,0.14,0.5,0.19,0.78c0.03,0.27,0.03,0.42,0.03,0.48
				c0,0.17-0.02,0.43-0.03,0.5c-0.06,0.48-0.11,0.63-0.16,0.87l-0.15,0.54l-0.29,0.9l-0.57,1.62l-1.15,3.09
				c-0.77,2.03-1.52,4.04-2.24,6.05c-0.72,2-1.42,4-2.01,5.97c-0.29,0.98-0.55,1.96-0.75,2.88c-0.1,0.46-0.18,0.91-0.23,1.31
				c-0.03,0.2-0.04,0.38-0.05,0.54c-0.01,0.13,0,0.34-0.01,0.28c0-0.02,0.04,0.03,0.02,0.05c-0.01,0.04,0.01-0.05-0.04-0.04
				c-0.02-0.04-0.08-0.13-0.15-0.15c-0.01-0.07-0.16-0.07-0.13-0.09c-0.1,0,0.52,0.11,1.24-0.04c1.51-0.26,3.36-1.06,5.07-1.94
				c3.32-1.77,6.65-4.57,9.87-7.29c3.22-2.77,6.37-5.68,9.46-8.66c3.11-2.97,6.06-6.09,9.04-9.21c1.5-1.54,2.92-3.16,4.39-4.74
				l4.26-4.87c5.62-6.55,10.89-13.39,15.47-20.81c-3.19,8.13-7.81,15.68-12.75,22.91c-5.05,7.17-10.54,14.03-16.48,20.51
				c-1.46,1.65-3,3.22-4.51,4.83c-1.57,1.55-3.1,3.14-4.75,4.63c-1.6,1.53-3.3,3-5.03,4.45c-0.91,0.7-1.8,1.41-2.73,2.11
				c-1.01,0.65-1.98,1.39-3.03,1.96c-2.11,1.16-4.25,2.21-7.01,2.79c-0.34,0.08-0.7,0.13-1.09,0.17l-0.57,0.06l-0.64,0l-0.64-0.02
				l-0.72-0.1c-0.45-0.05-0.99-0.23-1.51-0.43c-0.5-0.16-1.05-0.57-1.54-0.9c-0.45-0.39-0.9-0.88-1.23-1.36
				c-0.28-0.48-0.6-1.01-0.74-1.5c-0.15-0.5-0.3-0.97-0.38-1.53c-0.07-0.6-0.06-0.94-0.05-1.35c0.01-0.39,0.05-0.74,0.09-1.08
				c0.08-0.68,0.19-1.3,0.31-1.91c0.25-1.2,0.55-2.33,0.87-3.43c0.64-2.2,1.36-4.31,2.11-6.39c0.76-2.08,1.54-4.13,2.32-6.15
				l1.15-3.01l0.52-1.45l0.22-0.65l0.07-0.25c0.01-0.03,0.03-0.13,0,0.07c0,0-0.02,0.19-0.01,0.29c0,0.02,0,0.14,0.03,0.38
				c0.04,0.24,0.03,0.26,0.17,0.68c0.25,0.62,0.49,1.04,1.2,1.59c0.79,0.69,2.39,0.66,2.15,0.63c0.35-0.01,0.72-0.09,1.03-0.23
				c0.19-0.08,0.22-0.1,0.33-0.17l-0.01,0.01c-0.06,0.04-0.24,0.18-0.4,0.31c-0.35,0.29-0.73,0.63-1.1,0.97
				c-0.76,0.69-1.53,1.43-2.29,2.17c-1.53,1.48-3.04,3.01-4.56,4.54c-1.52,1.53-3.02,3.07-4.51,4.62l-2.22,2.33l-1.16,1.22
				l-1.21,1.21c-1.63,1.58-3.29,3.07-5.03,4.5c-0.87,0.71-1.76,1.41-2.7,2.1c-0.49,0.35-0.93,0.68-1.58,1.07
				c-0.57,0.33-1.12,0.62-1.73,0.89c-0.59,0.27-1.25,0.51-1.97,0.7c-0.73,0.17-1.56,0.34-2.68,0.2c-0.28-0.04-0.56-0.09-0.9-0.22
				c-0.32-0.11-0.63-0.25-0.95-0.49c-0.32-0.21-0.6-0.46-0.84-0.77c-0.26-0.3-0.43-0.6-0.56-0.9c-0.51-1.21-0.46-2.19-0.37-2.92
				c0.21-1.52,0.6-2.57,0.97-3.66c0.37-1.08,0.8-2.12,1.23-3.15c1.74-4.1,3.67-8.05,5.8-11.91c2.16-3.83,4.48-7.6,7.16-11.1
				C362.63,191.94,365.41,188.47,368.84,185.74z"/>
		</g>
	</g>
	<g>
		<g>
			<path class="st1" d="M723.12,153.64c-3.66,6.3-7.5,12.32-11.04,18.4c-1.76,3.04-3.48,6.07-4.97,9.13l-1.06,2.29
				c-0.35,0.76-0.61,1.53-0.93,2.29c-0.31,0.75-0.53,1.47-0.59,1.87l-0.02,0.12c0.01,0,0.01,0.01,0,0.01c0-0.05,0.02-0.15-0.1-0.54
				l-0.05-0.13c-0.03-0.07-0.06-0.14-0.09-0.21c-0.07-0.14-0.16-0.26-0.25-0.38c-0.2-0.31-0.57-0.56-0.83-0.72
				c-0.15-0.08-0.31-0.15-0.47-0.19c-0.1-0.04-0.2-0.07-0.31-0.08c-0.26-0.03-0.29-0.04-0.41-0.03c-0.29,0.03-0.06,0.01,0.14-0.07
				c0.25-0.11,0.54-0.23,0.85-0.41c0.63-0.34,1.31-0.77,1.99-1.22c1.38-0.89,2.77-1.93,4.16-2.97c2.79-2.08,5.55-4.29,8.36-6.47
				c5.63-4.36,11.26-8.81,17.44-12.73c-4.13,6.01-8.74,11.57-13.74,16.81c-2.5,2.62-5.11,5.14-7.89,7.56
				c-1.4,1.21-2.85,2.36-4.41,3.5c-0.79,0.56-1.62,1.1-2.56,1.63c-0.46,0.26-0.98,0.52-1.56,0.77c-0.63,0.23-1.25,0.52-2.44,0.6
				c-0.34,0.01-0.59,0.03-1.08-0.06c-0.22-0.04-0.43-0.08-0.64-0.14c-0.26-0.09-0.52-0.2-0.77-0.33c-0.48-0.23-0.98-0.69-1.35-1.13
				c-0.15-0.21-0.3-0.43-0.42-0.67c-0.06-0.12-0.12-0.23-0.17-0.35c-0.05-0.11-0.07-0.19-0.1-0.29c-0.27-0.82-0.27-1.37-0.27-1.87
				l0.04-0.66l0.09-0.54c0.26-1.35,0.64-2.33,1.03-3.23c0.4-0.88,0.78-1.78,1.21-2.63c0.44-0.84,0.87-1.69,1.34-2.51
				c1.88-3.26,4.01-6.27,6.3-9.14C712.15,163.23,717.27,158.04,723.12,153.64z"/>
		</g>
	</g>
	<g>
		<g>
			<g>
				<path class="st1" d="M386.75,166.86c-1.33,0.06-2.67-0.08-3.99-0.26c-1.33-0.17-2.64-0.45-3.95-0.76
					c-2.6-0.67-5.18-1.61-7.57-3.01c-2.38-1.39-4.61-3.35-6-6l-0.5-1c-0.15-0.34-0.23-0.71-0.35-1.07l-0.32-1.09l-0.14-1.12
					l-0.12-1.12l0.04-1.09c0.03-0.73,0.03-1.47,0.2-2.18c0.14-0.71,0.22-1.45,0.45-2.13l0.68-2.06c0.58-1.3,1.13-2.65,1.9-3.84
					c0.68-1.26,1.53-2.37,2.35-3.52c0.41-0.57,0.89-1.08,1.33-1.62c0.46-0.53,0.89-1.09,1.38-1.57c3.81-4.06,8.22-7.39,12.78-10.37
					c4.58-2.97,9.38-5.54,14.3-7.79c4.92-2.27,9.95-4.25,15.05-6.01c5.09-1.78,10.28-3.26,15.49-4.58
					c5.21-1.35,10.47-2.46,15.76-3.45c21.18-3.7,42.74-4.87,64.13-3.14l4,0.34l3.99,0.41c2.66,0.26,5.31,0.61,7.95,0.96
					c5.28,0.77,10.56,1.58,15.79,2.58c5.23,1.04,10.45,2.12,15.61,3.48c2.58,0.68,5.15,1.4,7.69,2.2c2.52,0.87,5.09,1.65,7.43,2.95
					c-2.49-0.93-5.1-1.41-7.69-1.93c-2.6-0.5-5.2-0.93-7.82-1.32c-5.23-0.78-10.47-1.44-15.73-1.98
					c-10.5-1.16-21.03-1.89-31.53-2.24c-10.5-0.31-20.97-0.11-31.44,0.7c-10.46,0.71-20.87,1.99-31.15,3.88
					c-5.15,0.91-10.28,1.94-15.35,3.19c-2.55,0.59-5.06,1.3-7.58,1.97c-2.5,0.74-5.01,1.45-7.49,2.25
					c-9.95,3.07-19.61,7.1-28.58,12.16c-4.46,2.57-8.67,5.53-12.39,8.95c-0.49,0.41-0.9,0.88-1.34,1.32
					c-0.43,0.46-0.9,0.88-1.29,1.36c-0.79,0.96-1.63,1.9-2.28,2.93c-0.75,0.99-1.27,2.09-1.86,3.16l-0.68,1.68
					c-0.23,0.56-0.32,1.15-0.51,1.72c-0.57,2.35-0.64,4.71,0.27,6.86c0.87,2.17,2.6,4.03,4.62,5.55c2.04,1.52,4.39,2.68,6.83,3.62
					C381.57,165.76,384.12,166.53,386.75,166.86z"/>
			</g>
			<g>
				<path class="st1" d="M483.04,120.89c-1.61,0.31-2.95,1.23-4.21,2.2c-1.27,0.97-2.46,2.05-3.62,3.16
					c-2.3,2.24-4.53,4.56-6.65,6.99l-3.2,3.63c-1.05,1.25-2.16,2.46-3.22,3.67c-2.11,2.42-4.23,4.83-6.24,7.32
					c-4.02,5-7.91,10.1-11.69,15.31c-1.86,2.58-3.71,5.22-5.54,7.89c-1.84,2.65-3.68,5.31-5.48,7.98
					c-7.26,10.68-14.38,21.45-21.24,32.38c-1.72,2.73-3.35,5.51-5,8.27c-1.66,2.76-3.23,5.56-4.72,8.4
					c-1.53,2.82-2.93,5.71-4.05,8.67c-0.55,1.48-1.04,3-1.19,4.53c-0.08,0.71,0.07,1.47,0.43,2.14c0.36,0.65,0.96,1.26,1.78,1.37
					c-0.83,0.09-1.68-0.4-2.23-1.06c-0.57-0.67-0.94-1.52-1.04-2.43c-0.16-1.74,0.09-3.41,0.38-5.06c0.61-3.3,1.67-6.45,2.78-9.56
					c1.16-3.09,2.45-6.12,3.79-9.12c1.35-3,2.84-5.92,4.32-8.84c6-11.66,12.86-22.81,20.2-33.63c3.71-5.4,7.46-10.69,11.52-15.93
					c4.07-5.15,8.31-10.19,12.9-14.92c2.3-2.36,4.61-4.71,7.06-6.92c2.45-2.15,4.77-4.39,7.29-6.54c2.52-2.11,5.08-4.19,7.83-6.04
					c1.38-0.91,2.79-1.8,4.27-2.55C479.76,121.5,481.38,120.79,483.04,120.89z"/>
			</g>
			<g>
				<path class="st1" d="M392.09,191.04c0.02,0.06-0.07,0.03-0.08,0.01c-0.03-0.02-0.05-0.05-0.08-0.08l-0.14-0.17
					c-0.09-0.12-0.17-0.23-0.25-0.36c-0.16-0.24-0.3-0.5-0.44-0.76c-0.27-0.52-0.51-1.06-0.7-1.63c-0.19-0.57-0.31-1.18-0.34-1.84
					c-0.01-0.33,0-0.67,0.06-1.02c0.06-0.34,0.16-0.63,0.24-0.96c0.83-2.5,2.62-4.35,4.4-5.96c3.68-3.16,7.89-5.35,12.13-7.27
					c8.54-3.75,17.48-6.22,26.5-7.96c4.51-0.87,9.05-1.58,13.65-2.05c2.3-0.22,4.61-0.42,6.92-0.49c2.31-0.1,4.58-0.1,6.89-0.11
					c4.63,0.05,9.24,0.36,13.81,1.05c2.29,0.36,4.56,0.79,6.8,1.39c2.23,0.6,4.45,1.31,6.51,2.33c-4.55-0.52-9.03-0.46-13.5-0.28
					c-4.48,0.19-8.93,0.53-13.35,1.01l-6.66,0.77c-2.2,0.29-4.39,0.57-6.58,0.93c-2.19,0.34-4.39,0.7-6.58,1.11
					c-2.19,0.38-4.39,0.79-6.58,1.23c-8.76,1.69-17.45,3.61-25.88,6.22c-4.19,1.32-8.36,2.8-12.07,4.91
					c-1.82,1.07-3.57,2.31-4.65,3.97c-0.11,0.21-0.26,0.44-0.35,0.63c-0.09,0.2-0.17,0.42-0.22,0.66c-0.1,0.48-0.13,1.01-0.11,1.54
					c0.01,0.54,0.08,1.09,0.18,1.64c0.05,0.27,0.12,0.55,0.19,0.82c0.04,0.14,0.07,0.27,0.12,0.41l0.07,0.2
					C392.01,190.97,392.06,191.11,392.09,191.04z"/>
			</g>
		</g>
	</g>
	<g>
		<g>
			<g>
				<path class="st1" d="M374.18,67.66c1.92-0.45,3.59-1.42,5.18-2.49c1.57-1.09,3.06-2.28,4.43-3.59c1.39-1.29,2.7-2.66,3.81-4.12
					c0.27-0.37,0.55-0.73,0.78-1.1l0.36-0.55l0.29-0.54c0.11-0.18,0.19-0.36,0.24-0.52c0.05-0.16,0.15-0.35,0.18-0.48
					c0.06-0.27,0.08-0.5,0.03-0.65c-0.03-0.16-0.1-0.26-0.18-0.33c-0.03-0.03-0.09-0.06-0.1-0.06c0-0.01,0.03,0.06,0.07,0.08
					c0.04,0.03,0.11,0.02,0.08,0.04c0,0.01,0,0.02,0,0.01c-0.04,0.01-0.08,0.03-0.12,0.03c-0.06-0.01-0.23,0.07-0.36,0.09
					c-0.29,0.1-0.63,0.25-0.99,0.44c-1.43,0.77-2.94,1.89-4.37,3.07c-1.42,1.18-2.89,2.46-4.18,3.75c-1.32,1.28-2.54,2.64-3.64,4.09
					c-1.12,1.44-2.14,2.98-3.09,4.59c-0.49,0.79-0.88,1.51-1.2,2.26c-0.31,0.74-0.51,1.47-0.56,2.02c-0.02,0.27,0,0.5,0.01,0.53
					c0.01,0.05-0.09-0.06-0.09-0.04c-0.01,0.02,0.18,0.1,0.46,0.15c0.14,0.02,0.31,0.04,0.49,0.05l0.5-0.03
					c1.39-0.09,3.12-0.75,4.75-1.52c3.3-1.62,6.55-3.74,9.72-5.97c3.2-2.19,6.31-4.57,9.54-6.83c-2.47,3.07-5.15,5.95-7.98,8.73
					c-2.88,2.71-5.85,5.37-9.4,7.53c-1.8,1.04-3.68,2.08-6.18,2.45l-0.96,0.1c-0.31,0.01-0.63,0-0.97-0.03
					c-0.68-0.07-1.47-0.2-2.32-0.69c-0.85-0.47-1.6-1.38-1.91-2.25c-0.34-0.88-0.39-1.65-0.38-2.35c0.03-1.4,0.39-2.57,0.79-3.65
					c0.41-1.06,0.92-2.07,1.44-2.96c1.02-1.76,2.13-3.5,3.4-5.15c1.28-1.64,2.68-3.2,4.19-4.61c1.53-1.41,3.03-2.68,4.68-3.91
					c1.65-1.21,3.33-2.4,5.42-3.33c0.53-0.23,1.09-0.44,1.74-0.6c0.35-0.07,0.65-0.16,1.08-0.17c0.2-0.01,0.4-0.02,0.61-0.02
					c0.24,0.02,0.48,0.06,0.72,0.1c0.45,0.07,1.12,0.39,1.49,0.68c0.38,0.3,0.67,0.62,0.92,0.99c0.5,0.72,0.76,1.57,0.8,2.38
					c0.05,0.82-0.12,1.57-0.38,2.22c-0.13,0.34-0.28,0.57-0.42,0.86c-0.14,0.29-0.3,0.54-0.46,0.76c-0.63,0.97-1.35,1.73-2.08,2.48
					c-1.48,1.47-3.07,2.74-4.74,3.88c-1.69,1.11-3.44,2.12-5.3,2.89C378.16,67.15,376.16,67.77,374.18,67.66z"/>
			</g>
		</g>
		<g>
			<g>
				<path class="st1" d="M368.36,28.91c-1.09,1.31-2.11,2.67-3.14,4.02c-1.03,1.35-2.06,2.7-3.07,4.06c-1,1.37-2.02,2.73-2.96,4.1
					c-0.9,1.36-1.81,2.85-2.69,4.28c-1.78,2.87-3.54,5.76-5.22,8.69c-1.67,2.93-3.36,5.85-4.88,8.83c-1.54,2.97-2.9,5.98-4.2,9.07
					c-0.64,1.54-1.25,3.08-1.78,4.62c-0.26,0.77-0.51,1.54-0.71,2.28c-0.1,0.36-0.18,0.73-0.23,1.01c-0.02,0.12-0.03,0.29-0.02,0.19
					l0-0.08l-0.02-0.16l-0.03-0.12l-0.05-0.18c-0.03-0.1-0.08-0.19-0.13-0.28c-0.06-0.1-0.07-0.14-0.23-0.35
					c-0.29-0.34-0.62-0.58-1.14-0.74c-0.56-0.13-0.88-0.09-1.27,0.01c-0.19,0.06-0.37,0.15-0.53,0.25c-0.2,0.14-0.25,0.2-0.22,0.17
					l-0.04,0.03l2.69-3.8c0.98-1.4,1.99-2.79,3.01-4.18c2.05-2.77,4.19-5.49,6.48-8.11c2.33-2.6,4.79-5.1,7.56-7.37
					c1.41-1.14,2.8-2.18,4.48-3.17c0.84-0.48,1.72-0.9,2.67-1.25c0.48-0.18,0.98-0.33,1.54-0.45c0.6-0.09,1.13-0.24,2.14-0.09
					l0.17,0.03l0.25,0.07c0.17,0.05,0.33,0.11,0.49,0.18c0.13,0.04,0.37,0.19,0.58,0.35c0.21,0.17,0.4,0.34,0.56,0.55
					c0.34,0.46,0.58,1.16,0.57,1.53c0.01,0.22,0.01,0.45-0.01,0.67c-0.03,0.21-0.06,0.29-0.1,0.44c-0.17,0.61-0.36,0.86-0.55,1.21
					l-0.4,0.59l-1.47,2.1l-2.9,4.16c-1.9,2.79-3.82,5.57-5.64,8.38c-0.89,1.41-1.79,2.82-2.56,4.24c-0.38,0.7-0.74,1.42-0.99,2.05
					c-0.26,0.71-0.5,1.48-0.56,2.03c-0.04,0.28,0,0.47-0.03,0.44c-0.01-0.03-0.08-0.07-0.13-0.1c-0.02-0.01,0.11,0.06,0.16,0.1
					c0.28,0.12,0.84,0.11,1.47-0.13c1.28-0.46,2.62-1.45,3.86-2.49c2.52-2.09,4.8-4.61,7.03-7.14c2.23-2.54,4.37-5.18,6.55-7.8
					l-2.65,4.37c-0.91,1.44-1.84,2.87-2.81,4.28c-1.94,2.82-4.01,5.56-6.47,8.09c-0.62,0.63-1.28,1.23-2,1.8
					c-0.71,0.57-1.5,1.11-2.43,1.53c-0.92,0.41-2.12,0.77-3.49,0.4c-0.34-0.13-0.61-0.22-0.99-0.44c-0.41-0.25-0.74-0.66-0.95-1.05
					c-0.4-0.8-0.42-1.49-0.41-2.05c0.05-1.14,0.28-2.03,0.55-2.92c0.31-0.97,0.68-1.79,1.06-2.61c0.76-1.61,1.6-3.12,2.44-4.63
					c1.69-3,3.48-5.92,5.33-8.79l2.78-4.29l1.38-2.12l0.3-0.47c0.01-0.03,0.06-0.14-0.02,0.06c-0.01,0.05,0,0.03-0.02,0.13
					c-0.02,0.11-0.03,0.23-0.02,0.35c0.02,0.15,0.11,0.67,0.37,0.94c0.1,0.13,0.19,0.25,0.32,0.34c0.13,0.1,0.29,0.17,0.31,0.19
					c0.06,0.03,0.12,0.06,0.19,0.08l0.09,0.02l0.02,0.01c0.17,0.01-0.16,0.03-0.38,0.09c-0.27,0.07-0.58,0.16-0.89,0.28
					c-0.63,0.24-1.29,0.56-1.92,0.93c-1.24,0.75-2.57,1.74-3.78,2.76c-2.46,2.06-4.75,4.44-6.93,6.92c-2.21,2.46-4.3,5.06-6.32,7.73
					c-1.01,1.33-2,2.68-2.99,4.05l-1.49,2.07l-0.78,1.05l-0.43,0.55l-0.25,0.31c-0.1,0.11-0.16,0.2-0.39,0.43l-0.15,0.14
					c0.01-0.01-0.06,0.06-0.28,0.21c-0.18,0.12-0.39,0.22-0.6,0.29c-0.44,0.13-0.8,0.2-1.42,0.05c-0.58-0.16-0.94-0.45-1.27-0.82
					c-0.18-0.22-0.2-0.29-0.27-0.41c-0.06-0.12-0.11-0.24-0.16-0.36c-0.05-0.15-0.06-0.18-0.08-0.25l-0.04-0.2
					c-0.03-0.15-0.03-0.24-0.04-0.31l-0.01-0.24c0.01-0.52,0.07-0.77,0.12-1.07c0.11-0.55,0.24-1.01,0.38-1.46
					c0.27-0.89,0.58-1.73,0.89-2.56c0.63-1.65,1.32-3.24,2.04-4.82c0.73-1.58,1.45-3.11,2.26-4.67c0.81-1.54,1.66-3.05,2.54-4.53
					c3.49-5.94,7.41-11.54,11.48-17.02c1.05-1.37,2.05-2.69,3.17-4.06c1.12-1.33,2.26-2.59,3.44-3.82
					C363.44,33.63,365.83,31.19,368.36,28.91z"/>
			</g>
		</g>
		<g>
			<g>
				<g>
					<path class="st1" d="M343.54,39.16c-1.43,0.94-2.25,2.41-3.2,3.81l-2.75,4.26l-2.79,4.25c-0.95,1.42-1.85,2.77-2.74,4.19
						l-10.69,17.09c-0.89,1.41-1.76,2.83-2.57,4.24c-0.41,0.7-0.8,1.4-1.16,2.09c-0.34,0.67-0.68,1.4-0.84,1.9
						c-0.16,0.47-0.27,1.33-0.25,1.61c0,0.05,0.01,0.11-0.04-0.02c-0.02-0.02-0.08-0.16-0.17-0.24c-0.11-0.13-0.24-0.24-0.45-0.36
						c-0.05-0.02-0.1-0.05-0.16-0.06l-0.03-0.01c-0.01,0-0.01,0-0.01,0l-0.02,0.01c-0.02,0.01-0.02,0.02,0.01,0.02
						c0.03,0,0.08,0,0.16-0.02c0.09-0.03,0.25-0.12,0.38-0.17c0.26-0.09,0.6-0.33,0.91-0.5c0.65-0.39,1.31-0.84,1.97-1.32
						c2.64-1.91,5.3-4.02,7.92-6.14c2.66-2.09,5.28-4.25,8.05-6.27c-1.97,2.8-4.14,5.43-6.35,8.04c-2.26,2.56-4.54,5.09-7.16,7.43
						c-0.65,0.59-1.34,1.16-2.08,1.73c-0.4,0.28-0.74,0.55-1.25,0.83c-0.25,0.14-0.45,0.27-0.75,0.4c-0.31,0.14-0.66,0.26-1.05,0.33
						c-0.39,0.08-0.82,0.11-1.25,0.07c-0.22-0.02-0.43-0.06-0.64-0.11c-0.11-0.03-0.2-0.05-0.32-0.09l-0.18-0.06
						c-0.1-0.04-0.2-0.09-0.29-0.14c-0.41-0.21-0.69-0.47-0.94-0.76c-0.2-0.25-0.39-0.57-0.48-0.79c-0.23-0.51-0.28-0.88-0.35-1.24
						c-0.1-0.7-0.07-1.25-0.03-1.79c0.05-0.54,0.1-1.01,0.26-1.61c0.28-1.13,0.68-1.94,1.06-2.8c0.39-0.83,0.8-1.62,1.21-2.39
						c0.85-1.53,1.74-3.01,2.64-4.47c1.83-2.9,3.72-5.72,5.66-8.49c1.94-2.79,3.95-5.54,6.09-8.23c2.17-2.72,4.51-5.16,6.8-7.67
						c1.19-1.22,2.36-2.46,3.61-3.64c0.63-0.59,1.26-1.17,1.94-1.72c0.36-0.28,0.73-0.51,1.11-0.72
						C342.71,39.44,343.12,39.24,343.54,39.16z"/>
				</g>
				<g>
					<path class="st1" d="M319.88,54.14c-0.05-0.75,0.43-1.5,0.93-2.06c0.51-0.6,1.11-1.05,1.72-1.48c1.24-0.83,2.56-1.44,3.9-1.94
						c2.71-0.98,5.47-1.47,8.21-1.74c2.75-0.26,5.5-0.26,8.24,0c2.74,0.28,5.48,0.77,8.18,1.81c-2.7,1.04-5.37,1.63-8.02,2.12
						c-2.65,0.47-5.3,0.8-7.93,1.05c-2.63,0.25-5.25,0.39-7.82,0.59c-1.29,0.09-2.57,0.21-3.85,0.39c-0.63,0.09-1.27,0.2-1.88,0.36
						C320.98,53.41,320.37,53.6,319.88,54.14z"/>
				</g>
			</g>
		</g>
	</g>
</g>
</svg>
