<?xml version="1.0" encoding="utf-8"?>
<!-- Generator: Adobe Illustrator 26.4.1, SVG Export Plug-In . SVG Version: 6.00 Build 0)  -->
<svg version="1.1" xmlns="http://www.w3.org/2000/svg" xmlns:xlink="http://www.w3.org/1999/xlink" x="0px" y="0px"
	 viewBox="0 0 420.34 314.61" style="enable-background:new 0 0 420.34 314.61;" xml:space="preserve">
<style type="text/css">
	.st0{display:none;}
	.st1{display:inline;fill:#85D0CB;}
	.st2{display:inline;}
	.st3{fill:#FFFFFF;}
	.st4{fill:none;stroke:#000000;stroke-linecap:round;stroke-linejoin:round;stroke-miterlimit:10;}
</style>
<g id="Layer_2" class="st0">
</g>
<g id="Layer_2_copy" class="st0">
</g>
<g id="Layer_1" class="st0">
</g>
<g id="Layer_3">
	<g>
		<path d="M313.46,131.5c-2.09,5.93-5.84,10.86-9.54,15.82c-0.96,1.29-2.02,2.51-3.22,4c2.28,1.71,4.36,1.72,6.47,0.52
			c0.98-0.56,1.82-1.37,2.67-2.13c4.26-3.8,8.35-7.77,11.95-12.23c0.68-0.85,1.51-1.58,2.64-2.73c-0.92,3.46-1.08,3.84-3.48,6.72
			c-1.46,1.75-2.99,3.44-4.53,5.13c-1.64,1.79-3.32,3.53-4.86,5.15c0.3,1.37,1.15,1.42,1.95,1.51c3.02,0.33,5.83-0.3,8.45-1.82
			c6.91-4.02,13.76-8.1,19.45-13.85c1.89-1.91,3.99-3.6,6.59-4.75c-0.56,0.72-1.05,1.49-1.68,2.14c-2.15,2.23-4.41,4.36-6.52,6.62
			c-2.35,2.52-4.9,4.77-7.73,6.72c-1.86,1.28-3.63,2.66-5.05,5.14c1.36,0.07,2.28,0.27,3.15,0.14c6.43-0.96,12.97-1.43,18.92-4.47
			c0.88-0.45,2.02-1.3,3.05-0.07c-0.05,0.33,0.03,0.75-0.15,0.91c-3.14,2.81-6.2,5.64-9.91,7.84c-8.47,5-15.85,11.4-22.01,19.12
			c-0.38,0.48-0.65,1.05-1.1,1.77c1.32,0.99,2.63,0.55,3.85,0.54c1.14-0.01,2.28-0.09,3.42-0.13c1.3-0.05,2.61-0.1,3.91-0.12
			c1.14-0.02,2.3-0.13,3.41,0.05c1.21,0.2,2.59-0.09,4.18,1.22c-4.72,0.35-8.88,0.7-13.05,0.94c-3.32,0.19-6.43,1.08-9.35,2.6
			c-1.28,0.67-2.43,1.6-3.54,2.54c-0.43,0.36-0.57,1.06-1,1.93c6.27,2.3,12.8,2.77,18.74,5.57c-1.2-0.05-2.41-0.01-3.59-0.18
			c-3.39-0.5-6.75-1.21-10.15-1.58c-2.08-0.23-4.22-0.12-6.3,0.13c-1.02,0.12-1.97,0.9-2.87,1.34c0.16,1.45,1.12,1.34,1.85,1.45
			c5.66,0.89,11.19,2.22,16.43,4.58c1.01,0.46,1.98,1.01,3.54,1.81c-2.36,0.67-3.73-0.36-5.12-0.92c-4.93-1.96-10.03-2.67-15.3-2.68
			c-5.15-0.02-8.48,2.5-10.76,6.93c11.79,3.33,13.2,3.9,17.59,7.34c-3.41-0.82-6-1.66-8.58-2.52c-0.62-0.21-1.19-0.55-1.8-0.77
			c-5.44-1.98-12.32-2.25-17.49,4.71c0.63,0.47,1.26,0.95,1.92,1.45c-0.14,0.17-0.27,0.47-0.46,0.52c-0.47,0.12-0.97,0.2-1.45,0.16
			c-2.92-0.24-5.42,0.66-7.64,2.56c-0.73,0.63-1.67,1.01-2.67,1.6c0,0.71,0,1.48,0,2.23c-6.54,0.45-11.33,2.26-14.75,5.6
			c1.41,1.27,2.82,2.54,4.23,3.81l0.08-0.01c-0.46-0.17-0.94-0.31-1.37-0.53c-5.51-2.85-10.77-1.18-16.01,0.87
			c-0.43,0.17-0.84,0.52-1.13,0.89c-0.29,0.37-0.43,0.86-0.76,1.58c-3.04-1.37-5.92-0.46-9.04,1.11c0.05,0.65,0.11,1.4,0.17,2.16
			c-0.26,0.04-0.6,0.22-0.77,0.11c-0.69-0.43-1.3-0.99-1.99-1.41c-1.58-0.96-3.16-0.44-4.69,0.17c-1.68,0.66-1.74,2.19-1.66,4.47
			c-1.18-1.46-1.9-2.35-2.78-3.44c-0.84,0.09-1.8,0.13-2.72,0.32c-1.73,0.36-3.85,0.33-5.05,1.36c-1.19,1.02-1.44,3.14-2.16,4.91
			c-0.97-0.36-0.56-1.25-0.71-1.87c-0.15-0.62-0.25-1.25-0.41-2.06c-1.04,0-2,0.09-2.92-0.02c-3.13-0.37-5.88,1.54-9.07,1.25
			c-2.88-0.26-5.83,0.22-8.74,0.46c-1.62,0.13-3.19,0.18-4.83-0.15c-1.57-0.31-3.4-0.54-4.83-0.02c-2.59,0.93-5.06,0.8-7.62,0.33
			c-0.16-0.03-0.34,0.01-0.49-0.03c-2.28-0.73-4.46,1.29-6.64,0.39c-2.08-0.86-4.16-0.66-6.26-0.63c-1.29,0.02-2.58,0.2-3.87,0.23
			c-1.11,0.03-2.22-0.01-3.33-0.09c-1.29-0.1-2.59-0.22-3.86-0.43c-2.9-0.48-4.87,2.79-7.73,2.02c-2.72-0.73-5.17-0.04-7.63,0.83
			c-2.61,0.93-5.18,1.98-7.74,3.05c-2.11,0.88-4.13,1.98-6.26,2.77c-4.69,1.75-9.28,1.55-13.61-1.14c-0.33-0.2-0.41-0.8-0.61-1.21
			c0.53-0.24,1.22-0.82,1.56-0.66c5.65,2.7,10.75,1.13,15.81-1.72c7.54-4.25,15.82-6.04,24.34-6.6c5.02-0.33,10.09,0.03,15.14,0.07
			c9.62,0.08,19.26,0.59,28.86,0.13c11.71-0.56,23.33-2.26,34.77-4.96c4.28-1.01,8.64-1.73,12.87-2.9
			c10.42-2.88,20.12-7.51,29.81-12.25c7.56-3.7,14.13-8.7,20.54-14c0.36-0.3,0.64-0.7,0.95-1.05c-0.54-0.89-1.14-0.43-1.62-0.14
			c-4.9,2.92-9.76,5.91-14.68,8.8c-2.24,1.32-4.53,2.6-6.88,3.72c-9,4.29-18.25,7.9-28.05,9.94c-2.71,0.56-5.37,1.36-8.03,2.16
			c-6.9,2.07-14.02,3.03-21.11,4.04c-8.06,1.16-16.18,1.92-24.28,2.83c-1.13,0.13-2.28,0.15-3.42,0.07
			c-6.83-0.47-13.66-0.87-20.47-1.51c-7.71-0.73-15.33-0.29-22.85,1.39c-3.97,0.89-7.85,2.19-11.78,3.25
			c-2.2,0.59-4.42,1.12-6.65,1.59c-0.78,0.17-1.63,0.17-2.43,0.09c-3.64-0.34-4.66-2.38-2.35-5.22c1.94-2.39,4.16-4.6,6.52-6.57
			c3.64-3.05,6.03-6.77,7.16-11.36c0.27-1.09,0.69-2.13,1.09-3.18c0.29-0.76,0.84-1.46,0.96-2.24c0.51-3.32,1.92-6.13,4.33-8.48
			c0.25-0.24,0.12-0.87,0.2-1.65c-1.56,0.13-2.94,0.24-4.83,0.39c9.16-4.57,9.16-4.57,13.63-10.69c-0.55-0.44-1.1-0.9-1.96-1.59
			c6.39-1.44,11.01-5.45,16.22-9.53c-1.2-0.63-1.94-1.25-2.77-1.4c-2.02-0.36-3.87,0.3-5.55,1.41c-3.27,2.15-6.75,4.05-9.74,6.54
			c-5.99,4.98-12.1,9.81-17.27,15.73c-3.33,3.81-6.78,7.48-9.34,11.89c-0.34,0.59-0.4,0.55-2.75,1.16c0.29-1.07,0.36-2.06,0.81-2.82
			c3.06-5.2,6.15-10.34,10.23-14.89c3.16-3.53,6.22-7.12,9.97-10.02c3.22-2.5,6.6-4.78,9.77-7.34c4.09-3.3,8.84-5.49,13.24-8.26
			c0.41-0.26,0.93-0.35,1.32-0.64c6.63-4.95,14.6-7.13,21.98-10.52c2.91-1.34,6.35-1.48,9.39-2.59c5.38-1.98,11-2.89,16.52-4.24
			c10.44-2.56,21.07-3.85,31.76-4.93c9.58-0.97,19.17-0.93,28.76-0.73c2.42,0.05,4.82,0.71,7.23,1.11c2.72,0.46,5.44,0.95,8.17,1.41
			c1.8,0.3,3.17-0.34,4.13-1.93c2.19-3.63,4.41-7.24,6.62-10.86c0.49-0.8,0.98-1.6,1.49-2.43c1.01,0.76,0.48,1.41,0.23,1.89
			c-1.64,3.19-3.35,6.34-5.03,9.51c-0.59,1.13-1.14,2.28-1.69,3.37c3.16,2.21,5.83,2.32,8.05,0.12c2.42-2.41,4.7-4.98,6.84-7.64
			c1.94-2.41,3.55-5.08,5.42-7.55c0.96-1.28,2.16-2.39,3.24-3.57L313.46,131.5z M230.16,156.86c0.97,1.45,1.94,2.9,3.1,4.63
			c1.63,0,3.39,0.14,5.12-0.03c4.04-0.4,4.56-1.26,3.55-5.42c-0.07-0.28-0.35-0.51-0.7-0.98c-3.07-0.22-6.26,0.02-9.4,0.84
			c-0.58,0.15-1.06,0.69-1.59,1.05c-3.32-1.47-6.52-0.05-9.73,0.48c-1.12,0.19-1.02,1.43-1.1,2.37c-1.33-0.87-2.54-2.12-4.33-1.85
			c-3.34,0.51-6.67,1.04-10,1.63c-1,0.18-1.75,0.81-1.97,1.89c-0.6-0.21-1.19-0.57-1.8-0.6c-3.77-0.18-7.13,1.34-10.51,2.7
			c-0.36,0.14-0.52,0.77-0.78,1.17c-1.89-0.69-3.8-0.6-5.62,0.11c-3.41,1.33-6.78,2.78-10.15,4.22c-0.39,0.17-0.67,0.6-1.16,1.07
			c0.46,0.52,0.86,0.98,1.27,1.43c-3.5-0.9-6.66-0.28-9.57,1.92c-1.15,0.87-2.53,1.41-3.76,2.18c-0.47,0.3-0.8,0.82-1.51,1.57
			c6.23,1.21,11.14-0.77,16.13-3.62c-0.56-0.86-0.97-1.5-1.39-2.13c2.25,0.01,4.51,0.22,6.73-0.04c2.05-0.24,4.07-0.89,6.06-1.52
			c2.06-0.66,4.32-0.82,6.29-2.02c-0.57-0.95-0.97-1.63-1.37-2.31c5.81,2.22,10.44,2.01,15.49-0.73c-0.61-0.74-1.22-1.46-1.82-2.19
			c1.67,0.6,3.31,1.57,5.02,1.71c1.7,0.15,3.49-0.45,5.2-0.87c1.62-0.4,3.52-0.13,4.93-1.62c-0.57-0.86-1.01-1.53-1.45-2.2
			c0.45,0.2,0.97,0.3,1.32,0.61c3.14,2.65,6.51,2.35,10.14,0.97C230.59,159.71,230.38,158.29,230.16,156.86z M195.02,196.96
			c-0.87,1.66-2.39,2.6-3.89,3.59c-1.49,0.98-2.96,2.01-4.32,3.15c-0.31,0.26-0.16,1.06-0.23,1.66c2.05,0.02,2.79-1.48,3.94-2.3
			c2.1-1.5,2.4-1.66,5.46-2.05c-1.35,1.29-2.38,2.28-3.43,3.26c-1.31,1.21-2.67,2.38-3.95,3.63c-0.51,0.5-0.6,1.23,0.04,1.67
			c0.27,0.19,1.01,0.11,1.27-0.13c2.83-2.66,5.62-5.37,8.39-8.09c0.2-0.2,0.21-0.59,0.33-0.97c-0.88-1.47-1.5-3.26-3.7-3.36
			c0.26-0.74,0.87-1.56,0.72-2.22c-0.62-2.79-1.45-5.53-2.22-8.33c-2.55,0.17-4.73,0.35-6.49,2.87c1.6,0.39,2.74,0.66,4.43,1.07
			c-1.02,0.73-1.6,1.23-2.25,1.6c-0.79,0.45-2.01,0.18-2.35,1.62c1.75,1.11,3.65-0.82,5.74,0.17c-0.61,0.59-0.98,1.1-1.48,1.41
			c-1.65,1.03-3.37,1.94-5,2.99c-0.83,0.53-0.83,1.29,0.14,2.19c1.22-0.54,2.52-1.16,3.86-1.68
			C191.67,198.1,193.35,197.55,195.02,196.96z M257.62,156.87c-0.05,0.9-0.09,1.81-0.16,3.1c3.05-0.15,5.79-0.13,8.49-0.46
			c2.42-0.3,3.93-1.89,4.78-4.38c-3.5-1.76-6.99-1.37-10.43-1.05c-0.97,1.03-1.86,1.96-2.75,2.89c-0.13-0.9-0.26-1.79-0.44-3.08
			c-4.4,0.34-8.55-0.57-12.66,0.71c-0.86,1.99-0.95,3.78,0.08,5.8c1.34,0.06,2.59,0.16,3.85,0.16
			C253.87,160.57,253.87,160.56,257.62,156.87z M175.34,181.43c-1.09,0.31-1.87,0.42-2.56,0.74c-4.14,1.89-8.24,3.87-12.4,5.72
			c-3.63,1.62-6.79,3.94-9.48,6.78c-5.05,5.32-9.67,10.98-12.65,17.81c-0.82,1.87-0.9,3.4,0.5,4.92c0.66,0.72,1.22,1.55,1.97,2.17
			c4.92,4.06,10.25,7.49,16.23,9.8c2.9,1.12,5.88,1.82,9.01,2.02c5.68,0.35,11.36,0.82,17.04,1.29c1.66,0.14,3.23,0,4.83-0.92
			c1.24-2.91,2.07-6.01,2.48-9.09c-2-1.98-4.07-3.61-5.63-5.63c-7.11-9.28-10.59-19.7-9.36-31.5
			C175.45,184.3,175.34,183.05,175.34,181.43z M246.96,222.18c1.66-0.39,2.27-0.47,2.84-0.67c4.46-1.56,8.97-2.99,13.34-4.77
			c5.13-2.09,10.17-4.44,14.55-7.91c2.03-1.61,3.8-3.57,5.89-5.09c4.94-3.58,9.16-7.86,12.54-12.9c2.17-3.23,3.76-6.8,4.63-10.86
			c-0.94-0.48-1.73-1.07-2.62-1.31c-4.09-1.08-8.19-2.15-12.32-3.05c-5.73-1.24-11.48-2.4-17.25-3.43c-1.9-0.34-3.9-0.2-5.85-0.16
			c-0.59,0.01-1.16,0.42-1.52,0.55c0.25,5.44,0.64,10.63,0.67,15.82c0.02,3.07-0.14,6.24-0.85,9.21
			c-1.93,8.02-5.25,15.42-11.2,21.38C249.07,219.75,248.39,220.58,246.96,222.18z M211.3,175.73c-1.25,3.74-1.39,7.09,1.29,10.21
			c0.8,0.93,1.13,2.25,1.61,3.23c-3.6,4.45-7.31,8.4-10.26,12.85c-3.04,4.6-5.59,9.57-7.88,14.59c-4.8,10.54-4.85,11.16-4.84,15.06
			c3.8,0.49,12.7-0.55,16.43-1.98c1.57-6.98,3.24-14.1,4.75-21.25c0.87-4.14,1.35-8.35,2.23-12.49c0.39-1.86,1.33-3.61,2.04-5.48
			c1.55-0.15,2.83-0.39,4.1-0.37c2.83,0.05,4.92-1.32,6.91-3.15c1.96-1.81,2.31-4.22,2.89-6.58c0.73-2.98-0.05-5.44-2.68-7.57
			C222.44,173.68,216.79,174.09,211.3,175.73z M120.77,236.74c1.5,0.11,2.44,0.34,3.33,0.21c4.54-0.64,8.76-2.43,12.96-4.13
			c2.03-0.82,3.73-2.57,5.44-4.07c1.19-1.04,1.11-2.31-0.08-3.39c-1.33-1.2-2.72-2.34-4.2-3.34c-1.33-0.89-2.79-0.83-4.08,0.21
			c-0.76,0.61-1.48,1.27-2.18,1.96c-2.09,2.05-4.2,4.08-6.22,6.19C124.07,232.13,122.11,233.66,120.77,236.74z M214.53,213.35
			c1.47,2.24,1.41,4.49,1.22,6.76c-0.14,1.62-0.27,3.25-0.35,4.88c-0.05,0.93,0.43,1.53,1.38,1.68c1.13,0.18,2.05-0.37,2.25-1.35
			c0.48-2.29,0.31-10.67-0.29-13.63c-0.38-0.2-0.78-0.55-1.23-0.63c-2.78-0.48-3.65-0.07-4.37,2.51c-0.88,3.14-1.58,6.33-2.28,9.51
			c-0.17,0.78-0.09,1.66,1.5,1.47C213.07,220.89,213.8,217.12,214.53,213.35z M241.36,199.93c1.85,2.14,4.37,2.49,6.52,3.49
			c1.12,0.52,2,0.09,2.36-0.88c0.33-0.89,0.04-1.65-0.68-2.11c-1.46-0.94-2.99-1.77-4.75-2.8c2.37-1.14,4.4,1.14,6.32-0.22
			c0.41-2.8,0.25-3.32-1.52-3.79c-1.68-0.45-3.41-1.05-5-0.24C243.54,195.57,242.54,197.56,241.36,199.93z M229.39,210.29
			c0.47,4.04,2.98,6.97,4.51,10.3c0.31,0.67,1,1.16,1.62,1.85c1.11-0.61,2.05-1.13,3.23-1.78c-1.83-3.8-3.53-7.42-5.32-10.99
			c-0.4-0.81-1.31-0.98-2.11-0.63C230.63,209.34,230.02,209.87,229.39,210.29z M237.02,205.27c-1.55,0.64-2.54,1.56-1.91,3.04
			c1.39,3.25,2.97,6.42,5.88,8.98c0.75-0.6,1.42-1.03,1.93-1.6c0.41-0.45,0.63-1.08,1.09-1.91
			C241.41,211.13,239.86,207.66,237.02,205.27z M225.96,210.47c-0.6,0.68-1.16,1.05-1.33,1.56c-0.19,0.58-0.16,1.31,0.01,1.91
			c0.85,2.97,1.77,5.91,2.67,8.86c0.09,0.31,0.23,0.61,0.38,0.89c0.45,0.83,1.68,1.22,2.55,0.78c0.87-0.44,1.02-1.22,0.77-2.06
			c-0.51-1.71-1.09-3.41-1.62-5.11c-0.53-1.71-0.96-3.46-1.62-5.11C227.52,211.57,226.72,211.16,225.96,210.47z M270.61,159.33
			c2.34,0,4.1,0.04,5.86-0.02c0.96-0.03,1.95-0.12,2.88-0.38c1.1-0.3,2.14-0.79,1.77-2.5c-1.93-0.36-3.81-0.76-5.71-1.05
			C272.97,155.01,272.42,155.44,270.61,159.33z M224.51,223.88c-0.51-3.45-1.01-7.11-1.64-10.75c-0.07-0.42-0.87-0.71-1.33-1.06
			c-0.26,0.5-0.78,1.03-0.74,1.51c0.28,3.36,0.66,6.72,1.04,10.07c0.07,0.63,0.11,1.31,0.39,1.85c0.16,0.31,0.77,0.48,1.2,0.53
			c0.22,0.03,0.6-0.28,0.71-0.53C224.34,225.08,224.36,224.59,224.51,223.88z M245.81,211.41c2.24-2.33,2.31-2.99,0.52-4.31
			c-1.82-1.34-3.65-2.67-5.53-3.93c-0.3-0.2-0.85-0.03-1.5-0.03C240.32,207.05,243.52,208.84,245.81,211.41z M192.37,217.88
			c1.67-2.24,4.71-8.87,5.51-12.27c-1.3,1.76-2.3,3.18-3.37,4.55c-1.09,1.39-2.3,2.68-3.35,4.1
			C189.97,215.86,190.14,216.25,192.37,217.88z M245.22,190.34c2.08,0.96,4.04,1.1,5.97,0.23c0.41-1.46,0.11-2.54-1.21-2.9
			c-1.53-0.43-3.15-0.79-4.76,0.29C245.22,188.71,245.22,189.49,245.22,190.34z M195.51,177.97c-1.74-0.26-2.85,0.23-2.74,1.84
			c0.07,0.99-0.04,1.47-0.99,1.69c-1.26,0.28-2.05,0.9-1.54,2.4c1.38,0.43,2.75,0.68,4.18-0.42
			C194.77,181.72,195.13,179.89,195.51,177.97z M243.49,175.86c-0.51,1.5-0.51,2.98,0.88,3.82c1.02,0.61,2.16,0.16,2.69-1.25
			C246.45,176.93,245.72,175.57,243.49,175.86z M246.9,185.37c0.74-0.1,1.29-0.03,1.68-0.26c0.48-0.29,1.15-0.82,1.13-1.23
			c-0.01-0.49-0.63-1.3-1.05-1.36c-1.06-0.13-2.19,0-3.25,0.21c-0.65,0.13-0.68,1.76-0.05,2.07
			C245.91,185.08,246.52,185.23,246.9,185.37z M284.67,158.62c1.46,0,2.39,0.01,3.31-0.01c0.14,0,0.4-0.2,0.39-0.22
			c-0.12-0.27-0.2-0.65-0.43-0.78C286.95,157.05,285.91,156.62,284.67,158.62z"/>
		<path d="M189.84,65.6c0.13,1.78-0.89,3.06-1.88,4.37c-2.37,3.11-4.75,6.21-7.07,9.35c-1.04,1.4-1.95,2.9-2.69,4.55
			c1.24-0.47,1.99-1.44,2.75-2.38c0.72-0.88,1.42-1.78,2.11-2.69c5.26-6.89,11.23-13.07,18.12-18.35c1.89-1.45,3.86-2.69,6.32-3.25
			c-1.56,1.34-3.17,2.62-4.66,4.03c-1.41,1.34-2.72,2.81-4.04,4.25c-0.86,0.94-2,1.75-1.85,3.27c-1.47,0.06-2.34,1.09-3.14,2.09
			c-2.14,2.71-4.91,5.01-5.7,8.64c3.03-3.52,6.69-6.51,8.76-10.82c0.85-0.72,1.69-1.44,2.54-2.15c5.76-4.82,11.71-9.37,18.5-12.69
			c0.93-0.45,0.92-0.48,3.37-0.37c-0.17,1.95-1.96,2.43-3.07,3.44c-1.32,1.21-2.79,2.26-4.12,3.46c-1.15,1.03-2.2,2.18-2.86,3.78
			c3.53-2.23,7-4.56,10.6-6.67c3.65-2.14,7.41-4.1,11.16-6.07c3.72-1.96,7.49-3.85,11.53-5.92c0.06,1.03,0.1,1.6,0.15,2.44
			c2.04-0.26,3.33-1.88,5.02-2.64c1.59-0.72,3.05-1.77,5.32-2.12c-1.5,3-4.88,3.59-6.62,7.07c7.14-3.69,13.7-6.27,21.25-8.8
			c-2.08,2.72-4.99,3.03-6.76,5.62c4.26-0.62,7.72-2.11,11.37-2.77c3.66-0.67,7.36-1.16,11.29-1.18c-0.68,0.49-1.3,1.12-2.06,1.43
			c-2.39,0.99-4.82,1.86-8.29,3.18c6.03,0.09,10.95,0.1,15.87,0.26c4.87,0.16,9.74,0.46,14.61,0.71c4.96,0.25,10-0.15,14.81,1.63
			c-2.8,1.62-5.8,1.39-8.76,1.49c-2.93,0.1-5.85,0.38-9.8,0.65c5.95,0.53,10.85,1.06,15.77,1.38c4.11,0.27,8.03,1.33,11.89,2.61
			c0.86,0.28,1.56,1.03,2.34,1.57l0.06-0.08c-2.43-0.11-4.85-0.19-7.28-0.35c-1.75-0.12-3.5-0.35-6.24-0.63
			c5.15,2.24,9.64,2.93,14.08,3.77c5.77,1.09,11.26,2.96,16.84,5.68c-1.15,0.87-1.97,0.14-2.75,0.06c-0.8-0.08-1.59-0.33-2.4-0.43
			c-0.97-0.12-1.94-0.18-2.91-0.22c-0.81-0.04-1.62-0.01-2.44-0.02c-0.25-0.1-0.51-0.2-0.76-0.3c0.28,0.07,0.55,0.15,0.83,0.22
			c2.19,0.99,4.29,2.25,6.57,2.91c3.14,0.91,5.97,2.41,8.77,3.99c1.5,0.84,3.07,1.57,3.62,3.61c0.23,0.84,1.59,1.48,2.55,2
			c1.65,0.91,3.41,1.62,5.28,3.64c-2.94-0.58-5.1-1.01-7.26-1.43c-0.42-0.24-0.84-0.49-1.25-0.73c-0.07,0.18-0.14,0.36-0.21,0.54
			c0.51,0.04,1.02,0.08,1.53,0.12c0.64,1.43,1.97,2.02,3.28,2.6c2.47,1.11,5.03,2.04,7.42,3.32c2.47,1.32,5.37,2.15,6.73,5
			l0.07-0.08c-1.43-0.17-2.86-0.35-4.35-0.52c-0.51,0.84,0.31,1.03,0.77,1.29c2.4,1.38,4.83,2.71,7.23,4.09
			c0.52,0.3,0.94,0.75,1.9,1.54c-1.54,0-2.43,0-3.33,0c-0.02,0.33-0.16,0.8-0.05,0.88c3.25,2.17,6.52,4.3,9.79,6.44
			c0.79,0.51,1.55,1.04,1.74,2.44c-2.38-0.88-4.43-1.63-6.97-2.57c0.22,1.95,1.49,2.55,2.28,3.37c0.89,0.93,1.98,1.66,2.86,2.38
			c-0.69,1.34-1.36,0.98-1.82,0.66c-6.77-4.82-14.09-8.83-20.5-14.17c-1.12-0.93-2.4-1.68-3.62-2.48c-3.68-2.4-7.37-4.8-11.08-7.17
			c-1.78-1.14-3.55-2.33-5.43-3.3c-3.32-1.72-6.49-3.62-9.59-5.76c-6.83-4.73-14.27-8.35-22.31-10.69
			c-5.3-1.55-10.48-3.51-15.82-4.89c-4.54-1.17-9.2-2.06-13.86-2.57c-7.78-0.85-15.65-0.93-23.41-0.05
			c-7.91,0.89-15.74,2.6-23.6,3.95c-8.33,3.67-17.39,5.64-25.01,10.93c-5.41,1.96-9.86,5.73-14.97,8.14
			c-10.33,4.87-19.84,11.2-30.13,16.1c-1.74,0.83-3.3,2.06-4.86,3.21c-4.19,3.1-8.25,6.39-13,8.67c-0.58,0.28-1.17,0.61-1.66,1.02
			c-6.69,5.6-14.77,8.84-22.22,13.16c-0.56,0.33-1.16,0.59-1.77,0.84c-3.72,1.51-4.84,0.65-4.67-3.6l-0.05,0.12
			c0.35-0.69,0.7-1.38,1.05-2.08l-0.09,0.09c1.57-0.92,1.73-2.65,2.35-4.11c3.26-7.63,6.87-15.06,11.88-21.73
			c0.67-0.89,1.41-1.72,2.19-2.66c0.78,1.13-0.04,1.72-0.38,2.33c-2.98,5.46-4.54,11.41-6.18,17.35c-2.33,2.65-2.33,2.65-2.29,5.61
			c1.49-1.69,2.39-3.47,2.21-5.68c1.95-1.79,3.1-4.07,3.96-6.51c0.87-2.47,2.13-4.67,3.69-6.77c1.24-1.67,2.11-3.62,3.15-5.44
			c1.36-2.38,2.68-4.79,4.13-7.11c0.39-0.63,1.19-1.01,1.8-1.5c0,0-0.05-0.05-0.05-0.05c-0.53,1.51-1.11,3.01-1.58,4.55
			c-0.52,1.7-0.93,3.43-1.39,5.15c-0.62,1.34-1.25,2.68-1.87,4.03c-0.31,0.68-0.63,1.37-0.94,2.05c-0.88,0.36-1.03,1.1-0.99,1.93
			c-0.22,0.15-0.45,0.31-0.67,0.46c0.15,0.1,0.3,0.21,0.45,0.31c0.05-0.28,0.1-0.56,0.14-0.84c0.33-0.64,0.67-1.28,1-1.93
			c0.31-0.69,0.62-1.37,0.93-2.06c1.7-0.85,1.78-2.44,1.88-4.03c1.82-2.58,3.58-5.21,5.49-7.73c1.03-1.36,2.33-2.52,3.5-3.77
			l-0.08-0.07c-0.24,0.75-0.39,1.56-0.74,2.25c-2.18,4.28-3.9,8.73-5.11,13.38c-0.07,0.24-0.14,0.48-0.21,0.72
			c0.05-0.26,0.1-0.52,0.15-0.78c2.03-1.29,2.68-3.57,3.9-5.43c2.39-3.66,4.66-7.39,7.1-11.02c0.97-1.45,2.26-2.68,3.42-4.03
			c0.97,0.93,0.17,1.36-0.12,1.79c-1.57,2.28-2.83,4.66-3.46,7.42c-0.39,1.7-1.4,3.25-2.1,4.89c-0.63,1.48-1.21,2.98-1.82,4.47
			c-0.28,0.73-0.57,1.46-0.85,2.18c-0.88,0.33-1.06,1.05-1.03,1.88c-1.06,0.13-1.48,0.68-1.12,2.46c0.52-1.24,0.78-1.88,1.05-2.53
			c0.35-0.63,0.69-1.26,1.04-1.89c0.28-0.72,0.57-1.45,0.86-2.17c1.77-0.81,2.39-2.58,3.24-4.09c2.66-4.67,6.05-8.8,9.46-12.92
			c0.29-0.35,0.74-0.57,1.1-0.84c0.78,0.67,0.27,1.23-0.06,1.71c-2.78,4.05-4.11,8.73-5.9,13.21c-0.27,0.73-0.54,1.46-0.82,2.19
			c-0.16,0.22-0.31,0.45-0.47,0.67c0.13-0.25,0.27-0.49,0.4-0.74c0.27-0.74,0.54-1.47,0.81-2.21c2.09-0.36,2.59-2.31,3.59-3.7
			c5.03-6.98,10.36-13.71,16.34-19.9c1.05,0.62,0.38,1.16,0.1,1.58c-1.68,2.6-3.44,5.14-5.08,7.75c-0.51,0.8-0.74,1.78-1.1,2.67
			c-0.07,0.22-0.14,0.43-0.21,0.65c0.04-0.24,0.08-0.47,0.13-0.71c1.97-1.84,4.01-3.62,5.91-5.55c3.28-3.33,6.47-6.75,9.7-10.13
			L189.84,65.6z M233.1,55.01c-0.84,0.11-1.78,0.1-1.89,1.96c0.87-0.96,1.35-1.5,1.83-2.03c0.2-0.16,0.4-0.32,0.59-0.48
			C233.45,54.64,233.27,54.82,233.1,55.01z M242.01,49.71l0.03-0.26l-0.31,0.11L242.01,49.71z"/>
		<path d="M100.99,132.37c-1.42,2.16-2.87,4.3-4.26,6.48c-0.75,1.17-1.6,2-3.12,1.95c-0.59-0.02-1.42,0.15-1.74,0.55
			c-1.39,1.76-3.16,1.3-4.83,0.86c-1.57,3.72-1.57,3.72-5.02,3.09c-0.13,0.58-0.16,1.22-0.42,1.74c-0.34,0.69-0.72,1.6-1.32,1.86
			c-1.21,0.51-2.44,0.79-3.13,2.1c-0.18,0.34-0.85,0.69-1.22,0.62c-1.44-0.24-2.38,0.32-3.41,1.32c-1.06,1.04-2.6,0.72-3.3-0.55
			c-0.78-1.41-1.33-2.94-2.03-4.52c-0.91,1.69,0.43,3.08,0.38,4.57c-0.02,0.5-0.53,1.27-0.97,1.4c-0.41,0.12-1.39-0.37-1.48-0.75
			c-1.44-6.32-4.1-12.44-3.23-19.14c0.08-0.6,0.19-1.19,0.39-2.45c1.67,2.34,1.2,4.55,1.74,6.48c0.55,1.95,0.59,4.14,2.64,6.38
			c0.1-2.47,0.09-4.2,0.25-5.91c0.17-1.78,0.44-3.55,0.76-5.31c0.31-1.68,0.14-3.53,1.78-5.83c-0.3,6.81,1.5,12.38,2.21,18.37
			c1.96-1.44,0.8-3.07,1.02-4.47c0.26-1.61,0.44-3.22,0.74-4.82c0.29-1.6,0.6-3.21,1.04-4.77c0.44-1.56,1.08-3.07,1.59-4.62
			c0.51-1.53,0.96-3.08,1.67-4.59c-0.15,6.29-1.69,12.54-0.19,19.41c1.46-4.6,2.7-8.66,4.04-12.67c1.37-4.09,2.12-8.45,5.32-11.81
			c-0.85,2.91-1.89,5.78-2.5,8.74c-0.57,2.79-0.69,5.67-0.54,8.6c1.57-3.36,3.06-6.77,4.73-10.08c1.54-3.05,3.25-6.02,4.95-8.99
			c0.39-0.68,1.06-1.19,1.6-1.78l-0.08-0.07c-0.54,1.69-1.01,3.4-1.65,5.06c-1.68,4.4-3.74,8.67-4.29,13.44
			c-0.22,0.46-0.44,0.91-0.66,1.36c0.19,0.05,0.39,0.09,0.58,0.14c0-0.52,0-1.05,0-1.57c0.64-1.1,1.41-2.14,1.91-3.31
			c2.59-6.04,6.18-11.47,9.91-16.83c0.26-0.38,0.67-0.65,1.77-1.68c-2.2,4.82-4.26,8.64-5.69,12.69c-1.39,3.93-2.81,7.91-3.5,12.28
			c1.85-0.53,1.98-2,2.62-3.06c5.09-8.35,10.14-16.73,15.25-25.07c0.31-0.51,0.95-0.82,1.44-1.22l-0.09-0.07
			c-1.73,5.25-3.97,10.28-6.78,15.06c-1.32,2.24-2.62,4.5-3.7,6.86c-0.66,1.44-0.87,3.08-1.28,4.63
			C100.91,132.47,100.99,132.37,100.99,132.37z M82.74,140.03c0.16-0.18,0.35-0.31,0.33-0.39c-0.07-0.31-0.22-0.61-0.33-0.92
			C82.74,139.14,82.74,139.55,82.74,140.03z"/>
		<path d="M122.51,96.17c-1.92,4.79-3.82,9.59-5.77,14.38c-1.46,3.59-3.05,7.12-4.42,10.74c-1.73,4.58-4.22,8.71-6.93,12.75
			c-0.36,0.53-0.79,1.03-1.26,1.47c-1.21,1.15-2.83,0.56-3.22-1.22c-0.13-0.61,0.03-1.28,0.06-1.92c0,0-0.08,0.1-0.08,0.1
			c3.55-4.29,6.04-9.23,8.64-14.11c3.53-6.61,7.12-13.19,10.76-19.73c0.52-0.93,1.5-1.6,2.26-2.39L122.51,96.17z"/>
		<path d="M118.59,122.51c-1.2,2.29-2.36,4.6-3.64,6.85c-0.38,0.66-1.05,1.26-1.73,1.58c-0.46,0.21-1.24-0.01-1.74-0.28
			c-0.33-0.18-0.58-0.81-0.56-1.23c0.03-0.62,0.24-1.27,0.51-1.85c4.2-8.96,8.36-17.95,12.68-26.85c1.4-2.89,3.26-5.55,4.92-8.34
			c0.41,0.29,0.59,0.36,0.62,0.47c0.04,0.13-0.03,0.31-0.08,0.45c-1.7,4.21-3.35,8.44-5.12,12.62c-2.02,4.78-3.81,9.64-4.94,14.72
			c0,0,0.09-0.09,0.09-0.09c-0.35,0.69-0.7,1.38-1.05,2.08C118.54,122.63,118.59,122.51,118.59,122.51z"/>
		<path d="M151.91,82.49c0.17-0.67,0.35-1.33,0.79-3.02c0.07,2.05,0.07,2.05-0.87,2.94C151.83,82.41,151.91,82.49,151.91,82.49z"/>
		<path d="M146.01,84.4c0.19-0.53,0.36-1.07,0.57-1.59c0.04-0.09,0.37-0.18,0.38-0.15c0.13,0.2,0.35,0.56,0.28,0.63
			c-0.4,0.39-0.85,0.72-1.29,1.07C145.96,84.35,146.01,84.4,146.01,84.4z"/>
		<path d="M331.91,58c0.31,0,0.64-0.05,0.93,0.04c0.14,0.04,0.21,0.34,0.31,0.52c-0.15-0.01-0.34,0.02-0.46-0.05
			c-0.26-0.16-0.48-0.39-0.72-0.58C331.97,57.92,331.91,58,331.91,58z"/>
		<polygon points="313.5,131.58 313.57,131.16 313.45,131.5 		"/>
		<path d="M266.18,231.4c0.11,0.04,0.21,0.09,0.32,0.13c-0.08-0.05-0.16-0.1-0.24-0.15C266.26,231.39,266.18,231.4,266.18,231.4z"/>
		<path d="M95.15,113.83c0.13-0.3,0.25-0.59,0.38-0.89c0.04,0.11,0.15,0.27,0.12,0.31c-0.17,0.19-0.38,0.35-0.58,0.52
			C95.06,113.77,95.15,113.83,95.15,113.83z"/>
		<path d="M112.76,105.99c0.07-0.24,0.13-0.48,0.2-0.72c-0.09,0.21-0.19,0.43-0.28,0.65C112.67,105.92,112.76,105.99,112.76,105.99z
			"/>
		<path d="M122.58,96.23c0.09-0.25,0.18-0.5,0.26-0.75c0.01,0.12,0.06,0.27,0,0.35c-0.08,0.13-0.23,0.23-0.34,0.34
			C122.51,96.17,122.58,96.23,122.58,96.23z"/>
		<path d="M375.96,91.28c0.22,0.12,0.45,0.23,0.67,0.35c-0.12-0.01-0.27,0.01-0.35-0.05c-0.11-0.09-0.17-0.25-0.25-0.38
			C376.03,91.2,375.96,91.28,375.96,91.28z"/>
		<path d="M189.91,65.67c0.23-0.07,0.46-0.14,0.68-0.21c-0.1,0.06-0.2,0.15-0.31,0.17c-0.14,0.02-0.29-0.01-0.44-0.03
			C189.84,65.6,189.91,65.67,189.91,65.67z"/>
		<path class="st3" d="M175.34,181.43c0,1.62,0.11,2.87-0.02,4.1c-1.22,11.8,2.26,22.21,9.36,31.5c1.55,2.03,3.63,3.66,5.63,5.63
			c-0.42,3.09-1.25,6.18-2.48,9.09c-1.61,0.92-3.17,1.06-4.83,0.92c-5.68-0.47-11.35-0.94-17.04-1.29c-3.13-0.19-6.12-0.9-9.01-2.02
			c-5.98-2.31-11.31-5.73-16.23-9.8c-0.74-0.61-1.31-1.45-1.97-2.17c-1.4-1.52-1.32-3.05-0.5-4.92c2.98-6.84,7.6-12.49,12.65-17.81
			c2.69-2.84,5.85-5.16,9.48-6.78c4.16-1.85,8.26-3.84,12.4-5.72C173.47,181.85,174.25,181.74,175.34,181.43z"/>
		<path class="st3" d="M246.96,222.18c1.43-1.6,2.11-2.43,2.86-3.19c5.95-5.97,9.26-13.36,11.2-21.38c0.72-2.97,0.88-6.13,0.85-9.21
			c-0.04-5.19-0.42-10.38-0.67-15.82c0.36-0.14,0.94-0.54,1.52-0.55c1.95-0.04,3.95-0.18,5.85,0.16c5.77,1.02,11.52,2.18,17.25,3.43
			c4.13,0.9,8.23,1.97,12.32,3.05c0.89,0.23,1.68,0.83,2.62,1.31c-0.87,4.06-2.46,7.63-4.63,10.86c-3.38,5.04-7.6,9.32-12.54,12.9
			c-2.09,1.52-3.86,3.48-5.89,5.09c-4.38,3.47-9.43,5.82-14.55,7.91c-4.37,1.78-8.88,3.21-13.34,4.77
			C249.23,221.71,248.62,221.8,246.96,222.18z"/>
		<path class="st3" d="M211.3,175.73c5.48-1.64,11.14-2.06,16.59-2.94c2.63,2.13,3.41,4.59,2.68,7.57
			c-0.58,2.36-0.94,4.78-2.89,6.58c-1.98,1.83-4.07,3.2-6.91,3.15c-1.28-0.02-2.56,0.22-4.1,0.37c-0.71,1.87-1.65,3.62-2.04,5.48
			c-0.88,4.13-1.36,8.35-2.23,12.49c-1.5,7.15-3.18,14.27-4.75,21.25c-3.73,1.44-12.63,2.47-16.43,1.98
			c-0.01-3.9,0.04-4.52,4.84-15.06c2.29-5.02,4.84-9.99,7.88-14.59c2.94-4.45,6.65-8.4,10.26-12.85c-0.47-0.99-0.81-2.31-1.61-3.23
			C209.92,182.83,210.05,179.48,211.3,175.73z"/>
		<path class="st3" d="M120.77,236.74c1.35-3.08,3.3-4.61,4.97-6.35c2.02-2.11,4.13-4.14,6.22-6.19c0.7-0.68,1.42-1.35,2.18-1.96
			c1.29-1.04,2.75-1.1,4.08-0.21c1.48,0.99,2.88,2.14,4.2,3.34c1.2,1.08,1.27,2.34,0.08,3.39c-1.71,1.49-3.41,3.24-5.44,4.07
			c-4.19,1.7-8.41,3.49-12.96,4.13C123.21,237.08,122.27,236.85,120.77,236.74z"/>
		<path class="st3" d="M214.53,213.35c-0.73,3.77-1.46,7.54-2.17,11.21c-1.59,0.19-1.67-0.7-1.5-1.47c0.7-3.18,1.4-6.38,2.28-9.51
			c0.72-2.58,1.59-2.99,4.37-2.51c0.45,0.08,0.85,0.43,1.23,0.63c0.6,2.96,0.77,11.34,0.29,13.63c-0.21,0.98-1.12,1.53-2.25,1.35
			c-0.95-0.15-1.43-0.75-1.38-1.68c0.08-1.63,0.21-3.26,0.35-4.88C215.94,217.85,216,215.59,214.53,213.35z"/>
		<path class="st3" d="M174.37,171.58c-0.4-0.45-0.8-0.91-1.27-1.43c0.5-0.47,0.77-0.91,1.16-1.07c3.37-1.44,6.73-2.89,10.15-4.22
			c1.82-0.71,3.73-0.8,5.62-0.11c0,0-0.05-0.08-0.05-0.08c0.69,0.35,1.38,0.69,2.08,1.04l-0.08-0.09c0.4,0.68,0.81,1.36,1.37,2.31
			c-1.97,1.2-4.23,1.37-6.29,2.02c-1.98,0.63-4.01,1.29-6.06,1.52c-2.21,0.26-4.48,0.04-6.73,0.04L174.37,171.58z"/>
		<path class="st3" d="M257.62,156.87c-3.75,3.69-3.75,3.7-9.24,3.69c-1.26,0-2.51-0.1-3.85-0.16c-1.02-2.02-0.94-3.82-0.08-5.8
			c4.11-1.27,8.25-0.36,12.66-0.71c0.18,1.29,0.31,2.18,0.44,3.08L257.62,156.87z"/>
		<path class="st3" d="M203.12,161.47c0.22-1.08,0.97-1.71,1.97-1.89c3.33-0.59,6.66-1.12,10-1.63c1.79-0.27,2.99,0.98,4.33,1.85
			c0,0-0.07-0.08-0.07-0.08c0.44,0.67,0.89,1.34,1.45,2.2c-1.41,1.49-3.31,1.22-4.93,1.62c-1.71,0.42-3.5,1.01-5.2,0.87
			c-1.71-0.15-3.35-1.11-5.02-1.71c0,0,0.1,0.07,0.1,0.07c-0.81-0.35-1.63-0.71-2.44-1.06L203.12,161.47z"/>
		<path class="st3" d="M203.12,161.47c0,0,0.2,0.23,0.2,0.23c0.82,0.35,1.63,0.71,2.44,1.06c0,0-0.1-0.07-0.1-0.07
			c0.6,0.72,1.2,1.45,1.82,2.19c-5.06,2.74-9.68,2.95-15.49,0.73c0,0,0.08,0.09,0.08,0.09c-0.69-0.35-1.38-0.69-2.08-1.04
			c0,0,0.05,0.08,0.05,0.08c0.25-0.4,0.42-1.03,0.78-1.17c3.38-1.36,6.74-2.87,10.51-2.7C201.93,160.89,202.52,161.26,203.12,161.47
			z"/>
		<path class="st3" d="M195.02,196.96c-1.67,0.59-3.35,1.14-5,1.78c-1.34,0.52-2.64,1.15-3.86,1.68c-0.97-0.9-0.96-1.66-0.14-2.19
			c1.63-1.05,3.36-1.96,5-2.99c0.5-0.31,0.87-0.82,1.48-1.41c-2.09-0.99-3.99,0.94-5.74-0.17c0.34-1.44,1.57-1.18,2.35-1.62
			c0.65-0.37,1.23-0.87,2.25-1.6c-1.69-0.41-2.83-0.69-4.43-1.07c1.77-2.52,3.94-2.71,6.49-2.87c0.77,2.8,1.61,5.54,2.22,8.33
			c0.14,0.65-0.46,1.48-0.72,2.22L195.02,196.96z"/>
		<path class="st3" d="M241.36,199.93c1.18-2.36,2.17-4.36,3.27-6.56c1.59-0.81,3.32-0.2,5,0.24c1.77,0.47,1.93,0.98,1.52,3.79
			c-1.92,1.36-3.95-0.92-6.32,0.22c1.76,1.03,3.29,1.86,4.75,2.8c0.72,0.46,1.01,1.22,0.68,2.11c-0.36,0.97-1.24,1.41-2.36,0.88
			C245.74,202.41,243.22,202.07,241.36,199.93z"/>
		<path class="st3" d="M230.25,156.95c0.53-0.36,1-0.9,1.59-1.05c3.14-0.82,6.33-1.06,9.4-0.84c0.35,0.47,0.63,0.7,0.7,0.98
			c1.01,4.16,0.48,5.02-3.55,5.42c-1.73,0.17-3.5,0.03-5.12,0.03c-1.16-1.73-2.13-3.18-3.1-4.63
			C230.16,156.86,230.25,156.95,230.25,156.95z"/>
		<path class="st3" d="M229.39,210.29c0.64-0.42,1.24-0.94,1.94-1.24c0.8-0.35,1.71-0.17,2.11,0.63c1.78,3.57,3.49,7.18,5.32,10.99
			c-1.18,0.65-2.12,1.17-3.23,1.78c-0.62-0.69-1.31-1.18-1.62-1.85C232.36,217.25,229.86,214.33,229.39,210.29z"/>
		<path class="st3" d="M257.55,156.97c0.89-0.93,1.77-1.87,2.75-2.89c3.44-0.32,6.93-0.71,10.43,1.05
			c-0.85,2.49-2.36,4.08-4.78,4.38c-2.7,0.33-5.44,0.31-8.49,0.46c0.07-1.29,0.11-2.19,0.16-3.09
			C257.62,156.87,257.55,156.97,257.55,156.97z"/>
		<path class="st3" d="M174.27,171.5c0.41,0.64,0.83,1.27,1.39,2.13c-4.99,2.85-9.89,4.83-16.13,3.62c0.71-0.75,1.04-1.27,1.51-1.57
			c1.23-0.77,2.61-1.31,3.76-2.18c2.91-2.2,6.07-2.83,9.57-1.92C174.37,171.58,174.27,171.5,174.27,171.5z"/>
		<path class="st3" d="M194.93,197.02c2.2,0.1,2.82,1.89,3.7,3.36c-0.12,0.38-0.13,0.77-0.33,0.97c-2.77,2.72-5.56,5.43-8.39,8.09
			c-0.26,0.24-1,0.32-1.27,0.13c-0.63-0.44-0.55-1.17-0.04-1.67c1.28-1.24,2.64-2.41,3.95-3.63c1.05-0.97,2.08-1.97,3.43-3.26
			c-3.06,0.39-3.36,0.55-5.46,2.05c-1.15,0.82-1.89,2.31-3.94,2.3c0.07-0.61-0.08-1.41,0.23-1.66c1.37-1.14,2.83-2.17,4.32-3.15
			c1.5-0.99,3.01-1.93,3.89-3.59C195.02,196.96,194.93,197.02,194.93,197.02z"/>
		<path class="st3" d="M237.02,205.27c2.84,2.39,4.39,5.85,6.99,8.51c-0.46,0.84-0.68,1.46-1.09,1.91c-0.52,0.57-1.19,1-1.93,1.6
			c-2.91-2.56-4.48-5.74-5.88-8.98C234.47,206.84,235.47,205.91,237.02,205.27z"/>
		<path class="st3" d="M230.16,156.86c0.21,1.43,0.42,2.86,0.65,4.43c-3.63,1.38-7,1.69-10.14-0.97c-0.36-0.3-0.88-0.41-1.33-0.61
			c0,0,0.07,0.08,0.07,0.08c0.07-0.94-0.03-2.18,1.1-2.37c3.21-0.53,6.41-1.96,9.73-0.48C230.25,156.95,230.16,156.86,230.16,156.86
			z"/>
		<path class="st3" d="M225.96,210.47c0.76,0.69,1.55,1.1,1.81,1.72c0.67,1.65,1.09,3.4,1.62,5.11c0.54,1.71,1.11,3.4,1.62,5.11
			c0.25,0.84,0.1,1.62-0.77,2.06c-0.86,0.44-2.09,0.05-2.55-0.78c-0.15-0.28-0.29-0.58-0.38-0.89c-0.9-2.95-1.83-5.9-2.67-8.86
			c-0.17-0.6-0.2-1.33-0.01-1.91C224.8,211.52,225.36,211.15,225.96,210.47z"/>
		<path class="st3" d="M270.61,159.33c1.81-3.89,2.37-4.31,4.81-3.94c1.9,0.29,3.78,0.69,5.71,1.05c0.37,1.7-0.68,2.2-1.77,2.5
			c-0.93,0.25-1.91,0.34-2.88,0.38C274.71,159.37,272.95,159.33,270.61,159.33z"/>
		<path class="st3" d="M224.51,223.88c-0.14,0.71-0.17,1.2-0.36,1.63c-0.11,0.25-0.49,0.56-0.71,0.53c-0.43-0.06-1.04-0.22-1.2-0.53
			c-0.28-0.54-0.32-1.22-0.39-1.85c-0.37-3.35-0.76-6.71-1.04-10.07c-0.04-0.48,0.48-1.01,0.74-1.51c0.46,0.35,1.26,0.64,1.33,1.06
			C223.5,216.77,224,220.43,224.51,223.88z"/>
		<path class="st3" d="M245.81,211.41c-2.29-2.58-5.49-4.36-6.51-8.27c0.66,0,1.2-0.17,1.5,0.03c1.88,1.26,3.71,2.59,5.53,3.93
			C248.12,208.42,248.05,209.09,245.81,211.41z"/>
		<path class="st3" d="M192.37,217.88c-2.23-1.64-2.4-2.02-1.22-3.61c1.05-1.42,2.27-2.71,3.35-4.1c1.07-1.37,2.07-2.79,3.37-4.55
			C197.08,209.01,194.04,215.64,192.37,217.88z"/>
		<path class="st3" d="M245.22,190.34c0-0.85,0-1.63,0-2.38c1.62-1.08,3.23-0.72,4.76-0.29c1.32,0.37,1.62,1.44,1.21,2.9
			C249.26,191.45,247.3,191.31,245.22,190.34z"/>
		<path class="st3" d="M195.51,177.97c-0.38,1.92-0.74,3.75-1.08,5.5c-1.44,1.1-2.81,0.86-4.18,0.42c-0.51-1.5,0.27-2.11,1.54-2.4
			c0.95-0.21,1.07-0.69,0.99-1.69C192.66,178.2,193.77,177.71,195.51,177.97z"/>
		<path class="st3" d="M243.49,175.86c2.23-0.28,2.96,1.07,3.58,2.57c-0.53,1.41-1.67,1.87-2.69,1.25
			C242.97,178.83,242.98,177.35,243.49,175.86z"/>
		<path class="st3" d="M246.9,185.37c-0.38-0.13-0.99-0.29-1.55-0.56c-0.62-0.31-0.6-1.93,0.05-2.07c1.06-0.22,2.19-0.34,3.25-0.21
			c0.43,0.05,1.04,0.87,1.05,1.36c0.01,0.41-0.65,0.95-1.13,1.23C248.2,185.34,247.64,185.27,246.9,185.37z"/>
		<path class="st3" d="M284.67,158.62c1.24-2,2.27-1.57,3.28-1.01c0.22,0.12,0.31,0.5,0.43,0.78c0.01,0.02-0.26,0.22-0.39,0.22
			C287.06,158.63,286.13,158.62,284.67,158.62z"/>
		<path class="st3" d="M358.54,80.36c-0.51-0.04-1.02-0.08-1.53-0.12c0.07-0.18,0.14-0.36,0.21-0.54c0.42,0.24,0.84,0.49,1.25,0.73
			C358.48,80.43,358.54,80.36,358.54,80.36z"/>
		<path class="st3" d="M118.54,122.63c0.35-0.69,0.7-1.38,1.05-2.08C119.24,121.24,118.89,121.93,118.54,122.63z"/>
		<path class="st3" d="M139.1,102c-0.05,0.28-0.1,0.56-0.14,0.84c-0.15-0.1-0.3-0.21-0.45-0.31c0.22-0.15,0.45-0.31,0.67-0.46
			L139.1,102z"/>
		<path class="st3" d="M150.94,100.13c-0.03-0.83,0.15-1.55,1.03-1.88c0,0-0.07-0.07-0.07-0.07c-0.35,0.63-0.69,1.26-1.04,1.89
			C150.87,100.06,150.94,100.13,150.94,100.13z"/>
		<path class="st3" d="M145.91,97.98c-0.05,0.26-0.1,0.52-0.15,0.78c0.07-0.24,0.14-0.48,0.21-0.72
			C145.98,98.04,145.91,97.98,145.91,97.98z"/>
		<path class="st3" d="M152.76,96c-0.29,0.72-0.57,1.44-0.86,2.17c0,0,0.07,0.07,0.07,0.07c0.29-0.72,0.57-1.45,0.85-2.18
			C152.82,96.07,152.76,96,152.76,96z"/>
		<path class="st3" d="M159.72,95.21c-0.13,0.25-0.27,0.49-0.4,0.74c0.16-0.22,0.31-0.45,0.47-0.67L159.72,95.21z"/>
		<path class="st3" d="M159.79,95.27c0.27-0.73,0.55-1.46,0.82-2.19c0,0-0.07-0.07-0.07-0.08c-0.27,0.73-0.55,1.47-0.82,2.2
			C159.72,95.21,159.79,95.27,159.79,95.27z"/>
		<path class="st3" d="M174.3,81.35c-0.04,0.24-0.08,0.47-0.13,0.71c0.07-0.21,0.14-0.43,0.21-0.65
			C174.38,81.41,174.3,81.35,174.3,81.35z"/>
		<path class="st3" d="M338.95,65.71c-0.28-0.07-0.55-0.15-0.83-0.22c0.25,0.1,0.5,0.2,0.76,0.3
			C338.88,65.79,338.95,65.71,338.95,65.71z"/>
		<path class="st3" d="M233.1,55.01c0.18-0.19,0.35-0.37,0.53-0.56c-0.2,0.16-0.4,0.32-0.6,0.48
			C233.03,54.93,233.1,55.01,233.1,55.01z"/>
		<polygon class="st3" points="242.01,49.71 241.73,49.56 242.04,49.45 		"/>
		<path class="st3" d="M141.04,98.01c-0.31,0.69-0.62,1.37-0.93,2.06c0,0,0.07,0.06,0.07,0.06c0.31-0.68,0.63-1.37,0.94-2.05
			C141.12,98.08,141.04,98.01,141.04,98.01z"/>
		<path class="st3" d="M82.74,140.03c0-0.48,0-0.89,0-1.3c0.12,0.3,0.26,0.6,0.33,0.92C83.09,139.72,82.9,139.85,82.74,140.03z"/>
		<path class="st3" d="M89.05,132.19c0,0.52,0,1.05,0,1.57c-0.19-0.05-0.39-0.09-0.58-0.14c0.22-0.45,0.44-0.9,0.66-1.36
			C89.12,132.26,89.05,132.19,89.05,132.19z"/>
		<path d="M189.98,164.65c0.69,0.35,1.38,0.69,2.08,1.04C191.36,165.35,190.67,165,189.98,164.65z"/>
		<path d="M205.76,162.76c-0.81-0.35-1.63-0.71-2.44-1.06C204.13,162.05,204.95,162.4,205.76,162.76z"/>
	</g>
</g>
<g id="Layer_4">
</g>
<g id="Layer_1_copy">
</g>
<g id="Layer_6">
</g>
<g id="Layer_7">
</g>
</svg>
