<?xml version="1.0" encoding="utf-8"?>
<!-- Generator: Adobe Illustrator 26.4.1, SVG Export Plug-In . SVG Version: 6.00 Build 0)  -->
<svg version="1.1" xmlns="http://www.w3.org/2000/svg" xmlns:xlink="http://www.w3.org/1999/xlink" x="0px" y="0px"
	 viewBox="0 0 414.06 309.91" style="enable-background:new 0 0 414.06 309.91;" xml:space="preserve">
<style type="text/css">
	.st0{display:none;}
	.st1{display:inline;fill:#85D0CB;}
	.st2{display:inline;}
	.st3{fill:#FFFFFF;}
	.st4{fill:none;stroke:#000000;stroke-linecap:round;stroke-linejoin:round;stroke-miterlimit:10;}
</style>
<g id="Layer_2" class="st0">
</g>
<g id="Layer_2_copy" class="st0">
</g>
<g id="Layer_1" class="st0">
</g>
<g id="Layer_3">
	<g>
		<path d="M127.24,267.37c0.39-2.55,2.4-4.13,3.7-6.13c0.57-0.88,1.35-1.63,1.95-2.34c-0.24-1.1-0.96-1.06-1.61-1.1
			c-2.2-0.12-4.26,0.38-6.25,1.29c-2.32,1.07-4.68,2.06-7,3.11c-2.84,1.28-5.78,2.28-8.92,2.34c-4.56,0.09-8.82-0.87-12.19-4.27
			c-0.17-0.17-0.22-0.45-0.52-1.09c0.99,0.42,1.71,0.66,2.37,1c5.34,2.81,10.76,3.11,16.31,0.63c2.33-1.04,4.77-1.88,7.02-3.07
			c5.47-2.9,11.13-2.89,16.81-1.1c4.22,1.32,8.37,2.94,12.46,4.64c3.73,1.55,7.44,3.04,11.48,3.68c3.84,0.61,7.65,1.47,11.44,2.35
			c4.91,1.15,9.89,1,14.86,1c6.47,0.01,12.88-0.71,19.21-2.12c1.31-0.29,2.65-0.42,3.99-0.54c4.05-0.35,7.99-1.24,11.75-2.75
			c6.86-2.75,13.71-5.51,20.06-9.39c6.67-4.08,13.05-8.53,18.89-13.73c0.7-0.62,1.46-1.19,2.21-1.76c3.58-2.69,6.66-5.85,9.09-9.63
			c1.6-2.49,3.34-4.89,5.01-7.33c2-2.92,3.08-6.26,4.33-9.52c0.47-1.21,0.52-2.59,0.34-4.02c-0.57,1.15-1.24,2.27-1.7,3.46
			c-2.63,6.73-6.81,12.43-11.59,17.77c-3.15,3.52-6.44,6.87-10.13,9.81c-1.89,1.5-3.83,2.96-5.87,4.24
			c-3.87,2.43-7.38,5.39-11.53,7.39c-3.39,1.63-6.67,3.49-10.08,5.08c-5.51,2.58-11.46,3.81-17.33,5.29
			c-2.34,0.59-4.75,0.95-7.08,1.59c-5.35,1.46-10.81,2.03-16.33,2.27c-2.95,0.13-5.88,0.59-8.83,0.81c-1.2,0.09-2.43,0.1-3.61-0.11
			c-7.02-1.22-14.09-2.26-20.84-4.63c-3.55-1.25-7.05-2.63-10.54-4.03c-2.74-1.1-5.4-2.4-8.14-3.48c-3.83-1.5-7.74-1.99-11.86-1.08
			c-3.96,0.88-7.8,2.01-11.51,3.63c-1.35,0.59-2.81,0.94-4.16,1.52c-1.95,0.84-3.71,0.22-5.41-0.61c-2.03-0.98-2.51-2.94-1.1-4.67
			c1.1-1.34,2.39-2.55,3.68-3.72c3.28-2.98,6.62-5.91,9.91-8.88c0.47-0.42,0.78-1.01,1.36-1.77c-1.35-0.76-2.52-0.33-3.65-0.31
			c-1.21,0.02-2.42,0.05-3.62-0.01c-1.21-0.06-2.41-0.19-3.61-0.35c-1.2-0.16-2.4-0.33-3.57-0.62c-1.17-0.29-2.31-0.72-3.46-1.09
			c-1.13-0.37-2.27-0.75-3.63-1.2c-1.37,1.54-2.68,3.05-4.04,4.51c-0.86,0.92-0.89,0.89-2.95,0.44c0.53-2.53,3.38-3.42,4.15-5.98
			c-0.86-0.84-1.78-1.75-2.7-2.66l-0.05,0.05c1.44,0.22,2.89,0.44,4.52,0.69c2.42-2.78,5.45-5.04,7.65-8.41
			c-0.6-0.56-1.13-1.08-1.69-1.57c-0.78-0.69-1.58-1.37-2.37-2.06l-0.05,0.06c1.94,0.45,3.88,0.9,5.89,1.36
			c1.88-1.82,3.66-3.59,5.03-5.95c-0.61-0.87-1.2-1.7-2.12-3c1.39,0.62,2.31,1.03,3.17,1.41c0.33-0.1,0.64-0.1,0.83-0.26
			c0.82-0.68,1.67-1.35,2.39-2.14c1.17-1.27,2.24-2.63,3.5-4.14c-0.59-0.65-1.07-1.23-1.6-1.77c-0.84-0.84-1.7-1.66-2.56-2.49
			l-0.05,0.05c0.77,0.18,1.58,0.24,2.28,0.55c1.21,0.55,2.35,1.25,3.62,1.95c0.95-0.74,1.82-1.34,2.61-2.04
			c0.79-0.71,1.5-1.51,2.39-2.43c-0.95-1.02-1.81-1.95-2.67-2.88c0.08-0.12,0.17-0.25,0.25-0.37c1.31,0.55,2.63,1.09,4.21,1.75
			c3.55-2.21,6.72-5.02,9.8-7.45c0.06-2.28-1.85-2.68-2.52-4.27c1.11-0.07,1.66,0.81,2.44,1.08c0.75,0.26,1.48,0.57,2.39,0.93
			c2.46-1.83,4.92-3.66,7.24-5.38c0.14-2.21-2.13-2.91-2.29-5.07c1.67,1.27,2.83,2.86,5,3.2c1.93-1.3,4.38-2.14,6.27-4.22
			c-0.28-0.73-0.47-1.5-0.84-2.16c-1.47-2.57-3-5.1-4.49-7.64c-0.46-0.78-0.88-1.57-1.33-2.37c0.93-0.4,1.15,0.21,1.43,0.58
			c1.68,2.26,3.32,4.56,5,6.82c0.56,0.75,1.16,1.47,1.82,2.14c0.61,0.62,1.43,0.8,2.23,0.42c2.04-0.96,4.06-1.98,6.38-3.12
			c-0.58-0.75-0.88-1.32-1.34-1.69c-4.04-3.33-8.14-6.59-12.16-9.95c-2.78-2.32-5.47-4.75-8.19-7.14c-0.3-0.26-0.55-0.59-0.74-0.94
			c-0.11-0.21-0.15-0.59-0.02-0.75c0.22-0.29,0.61-0.7,0.87-0.67c0.78,0.1,1.58,0.29,2.28,0.63c5.31,2.57,10.61,5.17,15.9,7.78
			c1.16,0.57,2.26,1.02,2.74-0.76c0.49,0.38,0.79,0.5,0.88,0.71c1.49,3.43,4.86,4.44,7.77,6.04c0.44,0.24,1.05,0.34,1.55,0.28
			c2.39-0.31,4.72-0.87,6.82-2.07c0.18-2.93-1.16-5.63-0.23-8.63c0.62,2.18,1.13,4.1,1.72,6c0.15,0.48,0.55,0.89,0.91,1.45
			c3.13-0.25,5.94-1.44,8.68-2.29c1.14-1.82-0.03-3.61,0.67-5.83c0.32,1.31,0.47,2.16,0.74,2.97c0.25,0.75,0.64,1.46,1.03,2.34
			c3.16,0.45,6.08-0.8,9.08-1.25c0.65-0.1,1.2-0.92,1.78-1.4c0.86,0.3,1.74,0.88,2.57,0.83c2.77-0.19,5.63,0.25,8.2-0.87
			c1.13-2.08,0.01-4.51,1.53-6.32l-0.05-0.06c0.04,1.61,0.02,3.23,0.14,4.83c0.09,1.12,0.67,1.71,1.82,1.78
			c1.59,0.1,3.19,0.02,5.02,0.02c0.25-0.69,0.62-1.39,0.76-2.13c0.69-3.68,1.32-7.37,2.22-11c-0.09,4-0.2,8.01-0.25,12.01
			c0,0.35,0.32,0.71,0.54,1.14c1.66,0.71,3.38,0.43,4.98,0.29c2.13-1.16,2.61-3.13,2.93-5.14c0.53-3.3,0.97-6.61,1.51-10.35
			c0.72,2.99-0.05,5.71,0.78,8.53c1.49-0.65,2.24-1.74,3.09-2.72c2.65-3.03,5.29-6.07,7.97-9.08c0.62-0.7,1.29-1.42,2.08-1.86
			c0.6-0.33,1.44-0.23,2.45-0.35c-0.99,4.7-4.14,7.86-6.07,11.64c-1.87,3.67-4.08,7.17-6.27,10.96c2.68,1.2,5.15,2.07,7.92,2.37
			c1.34-1.41,2.02-3.16,2.82-4.84c0.87-1.81,1.71-3.64,2.67-5.4c0.88-1.6,1.4-3.41,2.72-5.32c0.89,2.4,0.2,4.06-0.58,5.72
			c-1.31,2.79-2.61,5.59-3.88,8.4c-0.27,0.6-0.38,1.26-0.55,1.87c1.1,1.58,2.89,1.52,4.33,2.15c1.46,0.64,3.02,1.06,4.52,1.56
			c3.71-2.82,5.06-7.25,8.12-10.79c-0.01,3.69-0.29,4.36-4.63,11.43c0.56,0.45,1.08,1.06,1.75,1.35c1.84,0.81,3.73,1.52,5.62,2.2
			c3.54,1.29,3.63,1.33,6.15-1.65c2.17-2.56,4.15-5.27,6.17-7.95c0.72-0.96,1.27-2.07,2.52-2.49l-0.07-0.07
			c-0.27,0.74-0.42,1.54-0.82,2.19c-1.83,2.96-3.73,5.87-5.59,8.8c-0.64,1-1.25,2.03-1.96,3.18c2.37,1.88,5.01,2.75,7.68,3.58
			c0.85,0.27,1.59-0.07,2.15-0.72c0.87-1.02,1.69-2.07,2.54-3.11c1.34-1.65,2.68-3.3,4.13-5.09c0.62,1.15-0.24,1.62-0.56,2.21
			c-0.38,0.7-0.94,1.3-1.41,1.95c-0.39,0.54-0.77,1.09-1.14,1.65c-0.44,0.67-0.9,1.34-1.28,2.04c-0.38,0.7-0.67,1.44-1.07,2.33
			c2.49,1.93,5.35,2.97,8.11,4.32c2.01-1.11,2.99-3.11,4.49-4.6c1.12-1.11,2.24-2.23,3.37-3.34l-0.06-0.06
			c-0.28,2.1-1.78,3.54-2.87,5.18c-2.77,4.16-2.71,4.46,1.72,6.82c1.73,0.92,3.4,1.96,5.44,3.15c0.76-0.52,1.83-1.28,2.95-1.98
			c2.7-1.7,5.41-3.37,8.12-5.05l-0.06-0.07c-0.39,0.53-0.7,1.16-1.19,1.56c-3.55,2.89-7.11,5.75-10.71,8.57
			c-4.81,3.76-10.29,6.31-15.89,8.62c-0.82,0.34-1.66,0.66-3.32,1.31c1.76,0.3,2.65,0.6,3.54,0.58c3.23-0.06,6.45-0.24,9.56-1.25
			c0.77-0.25,1.53-0.57,2.32-0.69c5.6-0.87,10.32-3.69,15.03-6.59c4.37-2.69,8.63-5.47,12.14-9.28c0.26-0.28,0.66-0.44,1.01-0.63
			c0.09-0.05,0.24,0.02,0.63,0.06c-0.2,0.51-0.32,0.99-0.56,1.39c-2.25,3.8-5.51,6.56-9.22,8.84c-2.18,1.34-4.35,2.68-6.53,4.01
			c-5.23,3.19-10.99,4.91-16.92,6.26c-4.53,1.03-9.1,0.59-13.65,0.81c-0.92,0.04-1.83,0.12-2.83,0.18c-0.18,0.65-0.4,1.15-0.43,1.65
			c-0.06,1.06-0.02,2.13-0.02,3.45c0.74,0.1,1.5,0.32,2.25,0.29c5.77-0.2,11.19,1.33,16.46,3.43c1.34,0.53,2.51,1.49,3.75,2.25
			l0.06-0.06c-1.56-0.37-3.15-0.66-4.68-1.13c-5.61-1.71-11.28-2.51-17.11-1.36c-2.47,0.48-2.92,1.19-2.75,4.55
			c3.96,0.29,8.04,0.15,11.83,1.74c1.73,0.73,3.45,1.49,5.18,2.24c0.34,0.15,0.69,0.27,0.59,0.94c-2.45-0.58-4.88-1.39-7.36-1.67
			c-3.19-0.36-6.43-0.42-9.64-0.38c-2.92,0.03-4.57,1.83-5.58,4.81c2.77,0.48,5.45-0.02,7.94,1.03c2.8,1.18,4.64,2.21,6.48,4.34
			c-2.03-0.6-3.7-1.01-5.3-1.59c-3.72-1.35-7.43-0.81-11.15-0.1c-1.4,0.27-1.84,1.37-2.07,2.73c4.53,1.94,9.42,3.09,13.36,6.39
			c-0.97,0.8-1.6,0.01-2.22-0.25c-3.37-1.37-6.8-2.44-10.44-2.94c-3.81-0.52-5.96,1.48-7.88,4.37c3.77,2.07,7.77,3.38,10.66,6.7
			c-0.47-0.11-0.95-0.16-1.39-0.33c-2.26-0.86-4.51-1.76-6.76-2.64c-0.5-0.19-1.02-0.34-1.54-0.49c-3.57-1.06-6.62-0.54-8.87,3.12
			c1.43,1.34,3.47,1.78,5,2.95c1.56,1.19,2.98,2.59,5.06,4.42c-2.08-0.2-2.92-1.13-3.94-1.64c-0.96-0.48-1.89-1.03-2.88-1.44
			c-1.11-0.46-2.28-0.78-3.42-1.18c-1-0.35-1.99-0.72-3.19-1.15c-1.42,1.01-2.94,2.08-4.6,3.26c0.58,1.38,1.8,1.85,2.73,2.4
			c2.03,1.19,3.58,2.79,5.03,4.63c-0.84,0.72-1.25-0.07-1.65-0.39c-2.26-1.81-4.8-2.88-7.64-3.45c-1.85-0.37-3.45-0.13-4.96,0.96
			c-0.84,0.61-1.69,1.21-2.73,1.95c2.67,2.24,4.76,4.6,6.17,7.6c-0.48-0.38-0.94-0.78-1.43-1.14c-1.52-1.11-3.01-2.26-4.59-3.28
			c-2.05-1.32-4.17-1.75-6.38-0.22c-0.97,0.67-2.05,1.18-3.19,1.82c0.94,3.15,3.44,5.34,3.86,8.72c-1.33-0.64-1.73-1.82-2.49-2.67
			c-1.07-1.2-2.11-2.44-3.27-3.55c-1.05-1-2.35-1.28-3.74-0.67c-1.21,0.54-2.41,1.1-3.8,1.74c0.69,2.71,2.97,4.36,3.63,6.82
			c0.65,2.44,1.28,4.89,1.41,7.53c-0.33-0.62-0.72-1.23-0.98-1.88c-1.31-3.26-2.93-6.31-5.11-9.11c-1.56-2.01-3.26-2.62-5.59-1.73
			c-0.74,0.28-1.51,0.47-2.17,0.67c-1.04,3-0.09,5.72,0.14,8.56c-1.05-2.64-2.09-5.29-3.22-8.13c-1.54,0.2-2.85,0.42-4.17,0.54
			c-2.43,0.21-3.54,1.76-3.93,3.92c-0.23,1.31-0.2,2.68-0.29,4.02c-0.04,0.61-0.08,1.23-0.4,1.82c-0.14-2.66-0.27-5.32-0.41-8
			c-3.04-1.42-5.68-0.15-8.31,0.19c-1.96,3.07-1.81,6.54-2.99,9.64c-0.86-3.02-0.01-6.07-0.37-9.22c-2.99-0.56-5.88-0.64-9.07,0
			c-1.26,5.15-3.91,9.93-4.51,15.36c-0.57-5.18,1.56-10.09,1.62-15.3c-0.61-0.24-1.08-0.48-1.58-0.61
			c-4.71-1.24-5.16-1.04-7.78,3.22c-1.33,2.16-2.71,4.3-4.06,6.44c0,0,0.06,0.05,0.06,0.05c0.58-1.92,1.02-3.9,1.77-5.75
			c0.7-1.72,1.72-3.31,2.7-5.13c-2.55-1.44-5.28-1.24-7.69-1.95c-3.12,2.69-4.61,5.06-7.55,11.86c-0.14-2.65,0.06-3.21,4.24-11.86
			c-1.72-0.87-4.56-1.84-5.93-1.79c-0.75,0.03-1.65,0.25-2.19,0.72c-1.2,1.05-2.27,2.27-3.3,3.51c-0.75,0.91-1.34,1.95-2.22,2.81
			c0.73-3.14,2.55-5.72,4.42-8.3c-1.41-1.79-3.33-1.94-5.11-2.56c-4.32,3.24-7.34,7.52-10.47,11.79c-0.52-0.82,0.13-1.3,0.32-1.84
			c0.17-0.5,0.46-0.97,0.77-1.41c1.63-2.3,3.3-4.57,4.9-6.89c0.51-0.73,0.85-1.58,1.29-2.43c-2.44-2.37-4.98-2.46-7.45-0.79
			c-1.76,1.19-3.24,2.79-4.81,4.25c-1.06,0.99-1.7,2.45-3.29,2.83L127.24,267.37z M161.33,215.66c-1.99-0.04-2.99,0.96-4.13,1.62
			c-3.73,2.13-7.45,4.27-11.14,6.47c-3.23,1.92-6.38,3.97-9.61,5.88c-3.08,1.83-5.38,4.9-9.16,5.65c-0.92,0.18-1.28,1.58-0.74,2.35
			c0.46,0.66,1.02,1.24,1.53,1.86c5.03,6.15,11.65,10.25,18.32,14.31c3.49,2.12,7.34,3.35,11.15,4.61
			c9.33,3.08,18.75,5.82,28.78,4.79c0.67-0.07,1.35-0.09,2.01-0.05c6.5,0.35,12.85-0.56,19.12-2.19c1.82-0.47,3.61-1.09,5.45-1.43
			c7.7-1.42,15.14-3.68,22.19-7.09c3.99-1.93,7.98-3.91,11.73-6.26c4.78-2.99,9.31-6.37,13.94-9.59c0.44-0.31,0.88-0.63,1.26-1
			c4.66-4.47,9.15-9.12,12.83-14.44c2.83-4.09,5.47-8.32,6.72-13.22c0.26-1,0.34-2.04,0.53-3.19c-8.98-4.21-17.95-7.75-27.35-10.01
			c-5.82-1.4-11.67-2.89-17.99-2.89c0.15,0.94,0.13,1.64,0.38,2.21c1.8,4.16,2.29,8.59,2.3,13.02c0.01,2.71,0.88,4.64,2.89,6.25
			c0.84,0.67,1.6,1.44,2.4,2.16c4.29,3.87,8.59,7.74,12.86,11.62c0.49,0.44,0.94,0.96,1.25,1.53c0.15,0.27,0.04,0.83-0.16,1.1
			c-0.2,0.26-0.71,0.49-1.01,0.42c-0.77-0.19-1.52-0.51-2.24-0.87c-5.05-2.5-10.09-5.04-15.15-7.53c-0.67-0.33-1.43-0.47-2.12-0.69
			c-1.49,3-2.95,5.7-4.2,8.51c-2.45,5.53-6.82,9.3-11.62,12.55c-5.91,4.01-12.71,5.64-19.71,6.42c-1.84,0.2-3.73-0.07-5.6-0.17
			c-0.94-0.05-1.87-0.29-2.8-0.25c-2.48,0.09-4.79-0.52-7.06-1.4c-1.72-0.67-3.46-1.3-5.36-2.01c-2.85,3.23-5.6,6.35-8.36,9.46
			c-0.53,0.6-1,1.33-1.66,1.72c-0.49,0.3-1.4,0.4-1.84,0.13c-0.42-0.26-0.66-1.13-0.63-1.71c0.03-0.63,0.43-1.26,0.75-1.84
			c0.91-1.65,1.89-3.26,2.79-4.91c1.21-2.23,2.58-4.38,3.38-6.91C169.49,233.39,163.2,225.9,161.33,215.66z M247.7,222.43
			c0.12-0.21,0.24-0.42,0.36-0.63c-2.39-1.94-4.75-3.91-7.17-5.8c-3.71-2.89-7.44-5.74-10.57-9.3c-1.05-1.2-2.43-2.11-3.66-3.15
			c-1.84-1.57-3.76-3.06-5.47-4.75c-1.65-1.63-1.69-2.68-0.59-4.69c1.94-3.54,3.89-7.06,5.88-10.57
			c3.65-6.42,7.26-12.87,11.04-19.22c2.33-3.92,4.96-7.67,7.43-11.5c0.4-0.62,0.72-1.3,1.48-2.71c-1.02,0.75-1.39,0.91-1.61,1.19
			c-3.25,4.1-6.43,8.26-9.72,12.33c-6.51,8.04-13.12,16-19.61,24.05c-2.14,2.65-3.3,2.92-6.51,0.98c-0.23-0.14-0.46-0.28-0.69-0.42
			c-6.72-3.94-13.44-7.88-20.16-11.83c-3.7-2.18-7.39-4.39-11.1-6.57c-5.21-3.06-10.43-6.1-15.67-9.12
			c-0.45-0.26-1.01-0.93-1.64-0.07c0.28,0.32,0.51,0.66,0.82,0.9c3.86,3.13,7.76,6.21,11.58,9.38c6.32,5.23,12.62,10.46,19.26,15.28
			c3.8,2.76,7.28,5.95,10.86,9c1.22,1.04,2.44,2.13,2.85,3.98c-1.38,3.38-3.42,6.54-5.4,9.72c-3.7,5.93-7.45,11.83-11.13,17.77
			c-3.4,5.47-6.74,10.98-10.09,16.49c-0.09,0.15,0.09,0.46,0.21,0.92c1.55-1.19,2.78-2.56,3.97-3.96c2.53-2.96,5.01-5.97,7.62-8.86
			c5.67-6.29,11.41-12.52,17.13-18.76c1.45-1.59,2.94-3.14,4.44-4.68c1.32-1.37,2.92-1.86,4.78-1.35c0.65,0.18,1.34,0.25,1.94,0.53
			c3.28,1.55,6.6,3.04,9.78,4.77c5.43,2.95,10.76,6.07,16.15,9.09C245.53,221.47,246.63,221.92,247.7,222.43z M162.24,203.57
			c-3.62-1.74-7.15-3.28-10.52-5.1c-3.39-1.84-6.63-3.96-10.07-6.04c-3.04,1.94-6.02,3.94-8.6,6.48c-0.25,0.24-0.28,0.71-0.5,1.35
			c0.92,0.51,1.77,1.24,2.74,1.47c3.16,0.75,6,2.27,8.98,3.44c2.11,0.83,4.26,1.7,6.47,2.14c6.27,1.25,5.13,2.34,11.06-2.87
			C161.87,204.34,161.91,204.19,162.24,203.57z M288.22,178c-2.33-1.44-4.58-2.3-6.77-3.26c-1.25-0.55-2.33-0.17-3.3,0.74
			c-4.5,4.26-9.77,7.47-14.87,10.92c-0.5,0.34-0.88,0.85-1.38,1.34c1.73,1.58,3.65,2.24,5.59,2.68c0.97,0.22,2.18,0.12,3.1-0.27
			c6.24-2.59,11.82-6.23,16.78-10.81C287.66,179.07,287.8,178.67,288.22,178z M266.07,168.96c-1.48,1.54-3.16,2.8-4.18,4.46
			c-1.64,2.68-3.82,4.82-5.84,7.15c-1.07,1.23-2.54,2.3-3,4.03c4.43,2.13,4.54,2.29,7.95,0.11c4.63-2.96,9.1-6.18,13.59-9.35
			c0.7-0.49,1.16-1.31,1.89-2.16C273.08,171.49,269.93,170.07,266.07,168.96z M213.35,181.63c1.55-0.34,2.75-0.46,3.84-0.88
			c1.58-0.6,2.87-2.62,2.58-4.11c-0.9-4.77-0.83-9.57-0.63-14.39c0.04-0.87-0.29-1.75-0.43-2.54c-3.67-0.61-5.7-0.36-8.97,1.11
			C210.36,167.64,211.27,174.47,213.35,181.63z M146.56,216.65c-2.87-0.74-4.79-1.19-6.69-1.75c-5.12-1.52-10.35-2.79-14.68-6.21
			c-0.58-0.46-1.4-0.62-2.02-0.87c-3.89,3.43-4.36,4.01-5.41,6.48c0.16,0.21,0.27,0.51,0.47,0.61c6.86,3.14,14.13,4.9,21.55,6.04
			c0.59,0.09,1.35-0.16,1.86-0.51C143.06,219.46,144.37,218.36,146.56,216.65z M101.76,231.7c2.04,1.63,4.05,2.03,6.02,2.2
			c3.34,0.3,6.7,0.43,10.05,0.41c2-0.02,3.99-0.48,5.98-0.74c1.66-0.22,3.05-1,4.21-2.19c0.45-0.46,1.06-0.86,0.56-1.69
			c-3.24-0.73-6.56-1.31-9.77-2.25c-3.32-0.98-6.54-2.32-10-3.57C106.46,226.29,103.78,228.49,101.76,231.7z M272.95,192.48
			c1.79,0.86,3.2,1.52,4.59,2.22c1.18,0.6,2.34,0.45,3.49-0.04c6.04-2.58,11.91-5.47,16.66-10.17c0.43-0.42,0.7-1,1.13-1.63
			c-0.88-0.58-1.51-1.07-2.21-1.43c-1.19-0.61-2.43-1.12-3.64-1.69c-1.42-0.67-2.52-0.28-3.57,0.83c-1.1,1.16-2.24,2.33-3.54,3.24
			c-3.49,2.44-7.08,4.75-10.63,7.11C274.6,191.36,273.97,191.8,272.95,192.48z M150.89,184.92c-2.45,2.17-5.81,2.74-7.11,5.94
			c0.43,0.38,0.69,0.7,1.03,0.89c3.28,1.83,6.51,3.77,9.88,5.43c2.88,1.42,5.9,2.55,8.89,3.74c1.21,0.49,2.4,0.26,3.4-0.6
			c0.7-0.6,1.35-1.25,2.15-1.99c-1.87-1.91-4.48-2.16-6.36-3.66c-2-1.59-4.11-3.02-6.09-4.63
			C154.81,188.51,153.06,186.85,150.89,184.92z M162.7,177.49c0.56,1.85,1.59,2.89,2.66,3.91c4.27,4.04,8.51,8.12,13.27,11.32
			c3.06-0.98,3.06-0.97,4.09-2.54c-2.05-2.63-4.17-5.23-6.16-7.94c-2.05-2.79-3.56-5.97-6.13-8.5
			C167.53,174.26,165.14,175.63,162.7,177.49z M283.65,196.79c0.31,0.39,0.49,0.77,0.8,0.97c1.96,1.25,4.08,1.13,6.2,0.56
			c6.24-1.67,11.94-4.68,17.84-7.2c0.75-0.32,1.77-0.66,1.79-1.91c-2.74-1.93-5.69-3.4-8.57-4.71c-3.03,2.37-5.76,4.74-8.73,6.75
			C290.02,193.26,286.83,194.92,283.65,196.79z M153.8,210.48c-8.81-1.53-16.17-5.65-23.88-8.91c-1.82,1.33-3.68,2.36-4.51,4.36
			c0.31,0.41,0.42,0.69,0.63,0.82c0.91,0.56,1.84,1.1,2.79,1.6c5.89,3.09,12.4,4.25,18.7,6.04c0.48,0.14,1.15,0.17,1.55-0.06
			C150.66,213.42,152.23,212.46,153.8,210.48z M198.24,162.29c0.27,1.49,0.32,2.57,0.67,3.55c1.81,5.21,4.06,10.22,7.01,14.89
			c0.21,0.34,0.43,0.68,0.7,0.98c0.63,0.7,2.05,0.9,2.98,0.38c0.85-0.48,0.8-1.31,0.68-2.12c-0.04-0.27-0.09-0.53-0.16-0.79
			c-1.44-5.21-1.91-10.55-2.2-15.93c-0.04-0.77-0.34-1.52-0.52-2.3C204.22,160.36,201.49,161.55,198.24,162.29z M110.94,255.26
			c0.94-0.29,2.24-0.59,3.46-1.08c4.97-2,9.92-4.05,14.87-6.08c0.37-0.15,0.74-0.32,1.08-0.52c0.68-0.41,0.92-1.45,0.47-2.13
			c-0.29-0.44-0.62-0.89-1.01-1.24c-1.85-1.64-4.01-2.02-6.39-1.47c-5.11,1.19-9.29,4.05-13.22,7.34c-0.82,0.68-1.56,1.48-2.22,2.31
			c-0.7,0.9-0.16,2.26,0.97,2.56C109.47,255.08,110.01,255.11,110.94,255.26z M152.99,183.64c5.32,5.55,11.14,9.45,17.73,12.19
			c0.69,0.29,1.6,0.4,2.31,0.21c0.98-0.26,1.93-0.8,2.21-1.88c-5.23-4.96-10.33-9.81-15.51-14.72
			C157.26,180.29,155.34,181.91,152.99,183.64z M115.54,216.04c-3.22,2.99-3.72,3.67-4.38,6.02c5.75,2.63,11.89,3.85,18.09,4.81
			c0.79,0.12,1.61,0.1,2.41,0.03c0.78-0.06,1.68-0.06,2.3-0.45c1.19-0.75,2.54-1.46,3.15-3.17c-3.79-0.93-7.47-1.59-10.98-2.77
			C122.61,219.33,119.26,217.63,115.54,216.04z M254.52,164.98c-1.89,1.88-2.5,4.12-3.49,6.14c-0.95,1.93-2,3.8-2.93,5.74
			c-0.95,1.99-2.81,3.54-3.1,5.91c2.47,0.5,2.53,0.58,3.21,0.08c1.84-1.34,3.8-2.58,5.39-4.18c2.94-2.94,5.66-6.09,8.45-9.19
			c0.32-0.36,0.44-0.9,0.81-1.71C260.11,166.6,257.48,165.78,254.52,164.98z M202.98,182c-0.32-1.37-0.32-1.8-0.5-2.11
			c-2.77-4.69-4.36-9.79-5.42-15.1c-0.15-0.74-0.65-1.4-1.01-2.15c-2.97,0.26-5.66,0.73-7.9,2.92c1.27,3.24,2.53,6.34,4.46,9.1
			c0.68,0.98,1.47,1.98,2.45,2.63C197.39,178.83,199.85,180.16,202.98,182z M251.47,164.33c-2.94-1.3-5.57-2.08-8.32-2.36
			c-1.62,1.26-2.03,2.84-2.21,4.66c-0.33,3.18-0.86,6.35-1.3,9.52c-0.27,1.95-0.51,3.91-0.79,5.99c2.18-0.9,2.2-0.89,3.03-2.04
			c1.25-1.73,2.46-3.51,3.73-5.22C247.95,171.75,249.59,168.25,251.47,164.33z M222.07,174.93c2.61-2.1,4.13-4.42,5.67-6.71
			c0.07-0.11,0.15-0.25,0.15-0.37c0.02-2.75,0.44-5.53-0.35-8.27c-2.25-0.68-4.28-0.9-6.2,0.26
			C220.8,163.1,221.1,169.99,222.07,174.93z M179.13,180.4c-0.2,0.23-0.41,0.46-0.61,0.69c1.58,1.96,3.13,3.94,4.77,5.85
			c0.6,0.7,1.34,1.32,2.12,1.81c1.12,0.71,1.93,0.45,3.49-0.95c-0.49-0.45-0.93-0.93-1.45-1.32
			C184.67,184.44,181.9,182.42,179.13,180.4z M185.67,166.42c-2.55,0.03-2.56,0-4.75,1.67c0.72,0.61,1.35,1.25,2.07,1.75
			c0.87,0.61,1.79,1.15,2.72,1.66c0.72,0.39,1.31,1.39,2.58,0.55C187.42,170.21,186.59,168.42,185.67,166.42z M205.25,233.72
			c0.44,2.8-0.09,5.39,1.57,7.57c1.57-0.78,1.66-0.78,1.67-1.45c0.02-1.99-0.01-3.98-0.07-5.97c-0.01-0.2-0.31-0.39-0.63-0.76
			C207.14,233.27,206.4,233.45,205.25,233.72z M211.91,239.7c2.76-1.61,3.05-2.04,2.23-3.82c-0.55-1.2-1.34-2.3-2.11-3.38
			c-0.15-0.22-0.77-0.29-1.06-0.17c-0.29,0.13-0.61,0.57-0.63,0.89C210.17,235.44,211.15,237.36,211.91,239.7z M231.82,181.22
			c1.49,0.71,2.52,0.75,3-0.23c1.32-2.68,2.51-5.43,2.18-9.46C235.04,175.21,233.48,178.12,231.82,181.22z M198.86,233.36
			c-0.88,0.68-1.35,0.86-1.4,1.12c-0.49,2.44-0.92,4.9-1.3,7.36c-0.03,0.23,0.52,0.8,0.68,0.76c0.44-0.11,1.05-0.4,1.16-0.75
			C198.84,239.33,198.94,236.71,198.86,233.36z M200.77,242.39c1.65,0.3,2.26-0.28,2.19-1.4c-0.12-1.84-0.34-3.67-0.59-5.5
			c-0.05-0.39,0-1.12-1.04-0.94C200.64,237.04,200.77,239.61,200.77,242.39z M219.2,232.08c-0.91-1.46-1.86-2.69-3.7-3.43
			c-0.28,0.59-0.84,1.19-0.74,1.65c0.32,1.6,1.22,2.9,2.58,3.9c0.43-0.28,0.83-0.43,1.06-0.71
			C218.72,233.1,218.91,232.6,219.2,232.08z M176.79,231.24c2.28-1.46,3.6-2.95,4.98-4.37c0.18-0.18,0.35-0.47,0.34-0.7
			c-0.01-0.37-0.08-0.85-0.31-1.06c-0.23-0.2-0.88-0.3-1.06-0.13c-1.44,1.36-2.86,2.76-4.17,4.25
			C176.34,229.48,176.65,230.2,176.79,231.24z M193.9,232.94c-1.55,2.92-1.88,5.36-1.82,8.84
			C193.87,238.69,194.56,236.33,193.9,232.94z M230.73,163.86c2.84-2.18,3.44-2.99,2.93-4.22c-0.9,0.16-1.87,0.32-2.93,0.51
			C230.73,161.47,230.73,162.58,230.73,163.86z M183.58,228.57c-1.06,1.32-1.76,2.08-2.33,2.92c-0.81,1.2-1.55,2.45-2.28,3.71
			c-0.05,0.09,0.23,0.38,0.35,0.57C181.82,233.02,182.44,232.02,183.58,228.57z M220.6,229.26c0.31-0.35,0.72-0.6,0.79-0.91
			c0.29-1.45-1.11-3.2-2.58-3.2c-0.22,0-0.67,0.56-0.63,0.81C218.38,227.45,219.03,228.66,220.6,229.26z M175.25,223.97
			c2.15-0.53,3.33-1.01,4.11-1.77c0.14-0.14,0.18-0.5,0.12-0.72c-0.06-0.22-0.29-0.54-0.46-0.55
			C177.31,220.83,176.1,221.83,175.25,223.97z M223.33,223.79c-0.37-0.51-0.62-1.17-1.09-1.43c-0.49-0.27-1.21-0.23-1.81-0.17
			c-0.14,0.01-0.39,0.7-0.3,0.99c0.32,1.09,1.46,1.85,2.34,1.57C222.76,224.67,222.95,224.23,223.33,223.79z M174.25,218.92
			c0.2,0.23,0.4,0.46,0.59,0.69c0.97-0.57,1.96-1.12,2.9-1.73c0.14-0.09,0.19-0.49,0.12-0.69c-0.07-0.19-0.38-0.46-0.53-0.43
			C175.95,217.01,174.73,217.51,174.25,218.92z M177,212.95c-0.81-0.68-1.39-0.52-1.91-0.09c-0.15,0.13-0.25,0.48-0.18,0.66
			c0.07,0.17,0.45,0.39,0.57,0.33C175.98,213.62,176.44,213.29,177,212.95z M177.1,208.01c-0.19-0.29-0.32-0.49-0.46-0.68
			c-0.26,0.24-0.63,0.45-0.72,0.75c-0.05,0.17,0.36,0.48,0.56,0.73C176.7,208.53,176.91,208.26,177.1,208.01z M223.52,217.77
			c-0.45-0.23-0.73-0.44-1.03-0.48c-0.11-0.01-0.44,0.44-0.39,0.57c0.11,0.3,0.4,0.53,0.61,0.79
			C222.93,218.41,223.15,218.16,223.52,217.77z M188.19,239.03c-0.07-0.1-0.14-0.21-0.21-0.31c-0.2,0.14-0.4,0.27-0.61,0.41
			c0.12,0.15,0.24,0.29,0.36,0.44C187.88,239.39,188.04,239.21,188.19,239.03z"/>
		<path d="M165.17,114.75c1.59-1.43,3.17-2.87,4.78-4.28c0.46-0.4,0.99-0.72,1.57-1.14c0.68,1.84-1.2,2.77-0.94,4.57
			c2.17-1.36,4.03-2.81,5.67-4.55c0.91-0.97,1.66-0.34,2.58,0.32c1.55-0.87,3.17-1.79,4.77-2.69c0.84,0.46,1.32,1.8,2.62,0.88
			c0.98-0.7,2.03-1.3,2.55-1.62c2-0.15,3.45-0.19,4.87-0.38c3.06-0.41,6.1-0.95,9.15-1.36c9.07-1.23,18.16-2.05,27.33-1.87
			c0.13,0,0.27,0.02,0.4-0.01c3.87-0.86,7.77-0.2,11.65-0.23c8.39-0.05,16.67,1.24,24.67,3.54c7.47,2.15,15.16,3.63,22.31,6.85
			c0.22,0.1,0.52,0.01,0.77,0.01c2.31-2.82,5.3-8.53,6.38-12.29c-0.62-0.65-1.26-1.5-2.07-2.15c-5.86-4.72-11.74-9.42-17.65-14.08
			c-3.38-2.67-6.86-5.19-10.2-7.91c-1.77-1.44-3.33-3.13-4.96-4.72c-0.28-0.27-0.56-0.63-0.65-1c-0.09-0.35-0.04-0.85,0.16-1.12
			c0.2-0.27,0.68-0.48,1.02-0.46c0.52,0.03,1.05,0.23,1.53,0.46c6.34,2.94,12.68,5.86,18.99,8.86c6.43,3.06,12.81,6.22,19.22,9.32
			c0.72,0.35,1.47,0.63,2.31,0.99c2.03-0.97,3.27-2.76,4.62-4.38c4.56-5.46,9.08-10.97,13.6-16.47c3.83-4.67,7.61-9.39,11.49-14.01
			c1.36-1.62,2.59-3.43,4.4-4.51c0.95,0.18,1.36,0.72,1.04,1.46c-1.06,2.47-2.2,4.9-3.34,7.33c-2.84,6.09-5.59,12.23-8.57,18.24
			c-2.93,5.9-6.11,11.66-9.16,17.5c-0.42,0.81-0.72,1.69-1.11,2.61c0.66,0.67,1.15,1.32,1.78,1.78c3.35,2.47,6.73,4.9,10.1,7.35
			c0.44,0.32,0.89,0.61,1.31,0.94c3.82,2.97,7.72,5.82,11.79,8.46c2.92,1.89,5.54,4.25,8.35,6.32c6.59,4.87,12.73,10.35,19.72,14.68
			c1.58,0.98,2.45,2.36,3.07,4.39c-1.11,0.02-2.04,0.21-2.87,0.01c-1.03-0.25-1.99-0.79-2.96-1.27
			c-14.67-7.33-29.34-14.67-44.01-22.01c-3.73-1.86-7.43-3.77-11.16-5.63c-0.59-0.29-1.23-0.48-1.76-0.67
			c-2.85,1.94-6.36,5.7-8.04,8.61c1.61,1.45,3.68,2.16,5.58,3.07c6.67,3.19,13.26,6.48,19.5,10.51c3.48,2.25,7.38,3.85,11.04,5.84
			c2.11,1.15,4.13,2.49,6.18,3.76c0.8,0.49,1.57,1.03,2.36,1.54c2.57,1.69,5.15,3.37,7.72,5.07c0.22,0.15,0.5,0.33,0.57,0.55
			c0.15,0.48,0.38,1.1,0.2,1.48c-0.17,0.36-0.81,0.66-1.26,0.7c-0.5,0.04-1.04-0.2-1.53-0.4c-11.05-4.63-22.33-8.57-33.83-11.9
			c-5.94-1.72-11.79-3.72-17.7-5.56c-3.33-1.04-6.64-2.16-10.34-2.53c-2.48,2.14-4.65,4.7-6.88,7.19
			c-3.04,3.41-6.08,6.83-9.16,10.21c-0.62,0.68-1.37,1.3-2.17,1.75c-0.35,0.2-1.13,0.08-1.45-0.2c-0.32-0.28-0.52-0.98-0.42-1.42
			c0.18-0.77,0.6-1.48,0.97-2.2c2.76-5.38,5.54-10.76,8.3-16.14c0.24-0.46,0.35-0.99,0.6-1.72c-0.59-0.36-1.09-0.86-1.67-0.97
			c-5.53-1.11-11.05-2.34-16.62-3.15c-5.58-0.81-11.22-1.3-16.84-1.68c-3.06-0.2-6.16,0.06-9.23,0.23
			c-10.61,0.6-21.12,2.08-31.67,3.26c-5.78,0.64-11.28,2.4-16.98,3.31c-6.64,1.05-13.25,2.39-19.56,4.76
			c-5.91,2.23-11.99,3.9-17.97,5.9c-4.07,1.36-7.8,3.57-11.52,5.75c-4.06,2.38-7.81,5.22-11.61,7.97c-1.96,1.41-3.78,3-6.32,3.3
			c-0.47,0.06-1.01,0.45-1.3,0.84c-1.48,2-3.61,3.19-5.56,4.61c-0.76,0.55-1.55,1.08-2.24,1.71c-1.09,1.01-2.21,1.89-3.62,2.49
			c-1.21,0.52-2.28,1.39-3.39,2.15c-0.44,0.3-0.75,0.87-1.22,1.03c-3.4,1.16-5.86,3.72-8.66,5.76c-0.42,0.31-0.93,0.51-1.43,0.67
			c-0.58,0.2-1.51-0.37-1.52-0.95c-0.01-1.07,0.07-2.14,0.11-3.21c0,0-0.07,0.08-0.07,0.08c0.74-1.25,1.58-2.46,2.19-3.77
			c2.77-5.97,5.29-12.06,8.27-17.93c2.43-4.78,5.37-9.3,8.1-13.92c0.19-0.31,0.57-0.51,1.2-1.04c0.06,1.57-0.73,2.51-1.12,3.54
			c-0.48,1.26-1.03,2.48-1.54,3.72c-0.46,1.12-0.88,2.26-1.39,3.35c-0.57,1.22-1.24,2.38-1.84,3.58c-0.54,1.08-1.05,2.18-1.55,3.28
			c-0.51,1.1-0.98,2.21-1.49,3.3c-0.57,1.21-1.15,2.42-1.77,3.61c-0.54,1.04-0.99,2.09-1.01,3.3c2.68-2.75,3.87-6.36,5.8-9.52
			c1.89-3.09,3.37-6.42,5.13-9.59c1.79-3.24,2.97-6.83,5.33-9.83c0.24,0.26,0.41,0.37,0.4,0.46c-0.02,0.26-0.08,0.53-0.18,0.78
			c-1.43,3.91-2.85,7.82-4.3,11.72c-0.28,0.75-0.64,1.48-0.96,2.22c-0.01,0.2-0.02,0.4-0.02,0.61c-0.01-0.22-0.02-0.45-0.03-0.67
			c1.79-0.9,2.53-2.7,3.46-4.27c1.92-3.22,3.7-6.52,5.53-9.79c1.17-2.08,2.28-4.2,4.11-6.27c0.4,1.36-0.33,2.06-0.61,2.85
			c-0.31,0.88-0.69,1.74-1.04,2.61c-0.34,0.85-0.7,1.69-1.06,2.56c1.04,0.45,1.29-0.4,1.6-0.83c1.01-1.41,2.01-2.85,2.84-4.37
			c1.98-3.6,4.97-6.27,7.89-9.02c0.15-0.14,0.46-0.09,0.92-0.17c-0.75,2.49-3,4.15-3.28,6.72c-1.14,0.43-1.6,1.29-1.59,2.46
			c-1.97,0.99-2.59,2.9-3.25,4.79c-0.74,0.35-0.84,0.99-0.76,1.71c-1.37,0.25-1.91,1.4-2.5,2.43c-1.59,2.8-3.12,5.63-4.66,8.46
			c-0.25,0.47-0.48,0.97-0.62,1.49c-0.16,0.58-0.87,1.07-0.33,1.8c2.09-2.52,6.88-11,8.04-14.23c0.25-0.57,0.5-1.14,0.75-1.71
			c1.54-1.29,2.81-2.76,3.25-4.79c1.08-0.45,1.6-1.27,1.63-2.42c1.02-1.21,2.04-2.43,3.08-3.63c1.3-1.5,2.62-2.98,4.38-4.98
			c0.01,1.69-0.72,2.31-1.16,3.03c-0.49,0.8-1.04,1.56-1.52,2.36c-0.41,0.69-0.79,1.4-1.13,2.12c-0.39,0.83-0.73,1.69-1.08,2.54
			c1.08,0.79,1.63,0.01,2.02-0.57c1.19-1.78,2.21-3.67,3.41-5.43c1.4-2.06,2.73-4.21,5.29-6.08c-1.36,3.37-2.5,6.17-3.63,8.97
			c-0.07,0.1-0.15,0.19-0.21,0.29c-0.03,0.07-0.02,0.16-0.03,0.25c0.06-0.2,0.12-0.4,0.18-0.6c0.64-0.65,1.35-1.25,1.91-1.97
			c1.49-1.9,2.9-3.86,4.37-5.78c0.28-0.37,0.69-0.64,1.39-0.68c-0.78,1.66-1.57,3.31-2.35,4.96c0.61,0.73,0.96,0.13,1.22-0.22
			c0.64-0.86,1.22-1.76,1.79-2.68c1.58-2.55,3.62-4.64,6.3-6.33c0.46,0.99-0.45,1.4-0.7,2.01c-0.25,0.6-0.55,1.17-0.81,1.7
			c0.73,0.79,1.08,0.18,1.4-0.14c1.14-1.13,2.24-2.31,3.36-3.46c0.74-0.76,1.41-1.64,2.75-1.05c0.27,0.12,0.92-0.38,1.27-0.73
			c1.14-1.14,2.19-2.36,3.32-3.51c0.33-0.34,0.78-0.56,1.8-1.27c-1.13,2.32-1.92,3.93-2.71,5.55c-0.71,0.27-1.02,0.75-0.59,1.6
			C164.75,115.8,164.96,115.28,165.17,114.75z M279.34,138.88c0.59-0.2,0.9-0.22,1.04-0.38c7.08-7.92,14.46-15.57,21.09-23.9
			c1.59-2,3.19-4,4.88-5.91c1.48-1.67,3.07-1.9,5.05-0.94c0.48,0.23,0.92,0.55,1.4,0.8c5.6,2.92,11.16,5.92,16.82,8.73
			c7.46,3.71,15.03,7.18,22.31,11.26c0.82,0.46,1.66,0.89,2.54,1.22c0.51,0.19,1.06,0.82,1.77,0.09
			c-14.2-10.67-28.35-21.3-42.53-31.95c0.09-0.64,0.07-1.2,0.27-1.68c0.41-0.99,0.86-1.97,1.41-2.9
			c5.25-8.94,9.79-18.24,13.83-27.79c0.27-0.65,0.99-1.26,0.34-2.29c-4.66,5.67-9.25,11.27-13.87,16.85
			c-2.83,3.41-5.68,6.81-8.57,10.17c-1.52,1.76-2.1,1.9-4.19,0.9c-7.41-3.51-14.79-7.07-22.18-10.62c-1.82-0.87-3.62-1.78-5.45-2.62
			c-0.42-0.19-0.99-0.43-1.3,0.5c0.54,0.49,1.1,1.05,1.71,1.54c4.4,3.54,8.8,7.08,13.22,10.6c2.84,2.26,5.74,4.45,8.58,6.71
			c2.71,2.16,2.81,2.36,1.42,5.38c-1.18,2.55-2.54,5.02-3.88,7.5c-4.48,8.28-8.69,16.71-13.68,24.71
			C280.6,136.08,279.91,137.32,279.34,138.88z"/>
		<path d="M90.07,140.6c0.17,3.79-0.57,7.49-1.39,11.15c-1.41,6.28-3,12.52-4.51,18.78c-0.15,0.61-0.26,1.23-0.56,2.65
			c1.7-1.98,2.22-3.64,2.77-5.24c0.87-2.54,1.68-5.1,2.41-7.68c1.9-6.74,4.61-13.17,7.67-19.44c0.64-1.31,1.4-2.56,2.13-3.88
			c0.95,0.61,0.43,1.27,0.26,1.77c-1.79,5.33-3.63,10.65-5.47,15.97c-1.01,2.91-2.15,5.78-3.04,8.72c-0.54,1.78-0.73,3.67-1.07,5.51
			c0,0,0.05-0.11,0.05-0.11c-0.28,0.84-0.57,1.69-0.85,2.53l0.04-0.1c-0.89,1.24-1.7,2.52-1.66,4.14l0.06-0.1
			c-0.29,0.57-0.58,1.14-0.87,1.71l0.07-0.08c-1.02,1.55-2.04,3.1-3.08,4.68c-1.01,0.34-2,0.74-3.03,1.01
			c-1.9,0.49-2.87-0.04-3.23-1.92c-0.45-2.37-0.83-4.77-1.03-7.18c-0.45-5.51-0.42-11.01,0.82-16.45c0.02-0.08,0.2-0.13,0.49-0.3
			c-0.02,4.79,0.39,9.44,1.15,14.13c1.24-0.55,1.03-1.59,1.17-2.46c0.63-3.98,1.19-7.97,1.86-11.95c0.2-1.18,0.63-2.31,1.14-4.1
			c0.6,3.24-0.36,5.74-0.37,8.29c-0.01,2.49-0.9,4.96-0.21,7.82c1.14-1.22,1.32-2.58,1.64-3.8c1.75-6.62,3.4-13.28,5.15-19.9
			c0.37-1.41,1.05-2.74,1.58-4.11L90.07,140.6z"/>
		<path d="M91.76,172.78c-0.97,0.39-1.16,1.31-1.55,2.15c-0.72,1.54-1.54,3.04-2.42,4.49c-0.21,0.35-0.82,0.45-1.62,0.84
			c-0.04-1.37-0.07-2.37-0.09-3.37c0,0-0.07,0.08-0.07,0.08c0.29-0.57,0.58-1.14,0.87-1.71l-0.06,0.1c1.43-1.03,1.52-2.59,1.66-4.14
			l-0.04,0.1c0.28-0.84,0.57-1.69,0.85-2.53c0,0-0.05,0.11-0.05,0.11c1.88-4.13,3.74-8.27,5.63-12.4
			c2.62-5.72,4.61-11.71,7.88-17.14c0.97-1.6,2.01-3.09,3.35-4.35c0.85,0.54,0.38,1.05,0.15,1.42c-1.6,2.66-2.84,5.45-3.54,8.49
			c-0.18,0.78-0.54,1.51-0.86,2.25c-2.91,6.76-5.88,13.51-8.71,20.3c-0.71,1.7-0.99,3.58-1.47,5.38
			C91.69,172.86,91.76,172.78,91.76,172.78z"/>
		<path d="M308.86,172.91c0.19-1.76,1.66-2.38,2.89-3.21c-0.66,1.35-1.29,2.73-2.95,3.15C308.8,172.86,308.86,172.91,308.86,172.91z
			"/>
		<path d="M220.98,150.44c0-1.03,0-2.06,0-3.09c0.15,0.02,0.31,0.03,0.46,0.05c-0.17,0.99-0.34,1.99-0.51,2.98
			C220.94,150.38,220.98,150.44,220.98,150.44z"/>
		<path d="M195.56,150.06c0,0.38,0,0.76,0,1.13c-0.06,0-0.11,0-0.17,0c0-0.38,0-0.76,0-1.13
			C195.44,150.06,195.5,150.06,195.56,150.06z"/>
		<path d="M324.17,180.98c0.24-0.27,0.46-0.55,0.71-0.8c0.08-0.08,0.23-0.08,0.35-0.12c-0.03,0.19,0,0.49-0.09,0.54
			c-0.32,0.15-0.68,0.22-1.03,0.31C324.11,180.91,324.17,180.98,324.17,180.98z"/>
		<path d="M116.78,201.92c-0.5-0.23-1.01-0.46-1.51-0.69c0.1-0.15,0.2-0.29,0.29-0.44c0.39,0.39,0.78,0.79,1.17,1.18
			C116.73,201.98,116.78,201.92,116.78,201.92z"/>
		<path d="M290.3,157.58c0.04-0.24,0.02-0.51,0.14-0.7c0.09-0.14,0.34-0.19,0.52-0.28c-0.03,0.21,0.02,0.49-0.1,0.62
			c-0.14,0.16-0.42,0.2-0.63,0.29C290.23,157.52,290.3,157.58,290.3,157.58z"/>
		<path d="M166.7,280.2c-0.04,0.4-0.07,0.79-0.11,1.19c-0.15-0.05-0.29-0.1-0.44-0.16c0.2-0.33,0.41-0.65,0.61-0.98
			C166.76,280.25,166.7,280.2,166.7,280.2z"/>
		<path d="M90.13,140.65c0.06-0.2,0.11-0.4,0.17-0.61c-0.08,0.18-0.15,0.37-0.23,0.55C90.07,140.6,90.13,140.65,90.13,140.65z"/>
		<path d="M309.53,215.74c0.18,0.08,0.36,0.16,0.54,0.24c-0.08-0.01-0.18-0.01-0.24-0.05c-0.09-0.06-0.16-0.16-0.24-0.25
			C309.59,215.69,309.53,215.74,309.53,215.74z"/>
		<path d="M102.29,218.83c-0.2-0.08-0.39-0.16-0.59-0.24c0.09,0,0.21-0.03,0.28,0.02c0.1,0.07,0.17,0.19,0.26,0.28
			C102.24,218.89,102.29,218.83,102.29,218.83z"/>
		<polygon points="92.43,229.43 92.15,229.26 92.37,229.49 		"/>
		<path d="M94.24,230.13c-0.6-0.23-1.2-0.47-1.8-0.7c0,0-0.06,0.06-0.06,0.06c0.6,0.23,1.21,0.46,1.81,0.69
			C94.19,230.18,94.24,230.13,94.24,230.13z"/>
		<path d="M127.16,267.31c-0.05,0.22-0.1,0.45-0.16,0.67c0.08-0.2,0.16-0.41,0.23-0.61C127.24,267.37,127.16,267.31,127.16,267.31z"
			/>
		<path class="st3" d="M161.33,215.66c1.87,10.24,8.15,17.73,14.94,25c-0.8,2.52-2.17,4.68-3.38,6.91c-0.9,1.65-1.88,3.26-2.79,4.91
			c-0.32,0.58-0.71,1.21-0.75,1.84c-0.03,0.58,0.21,1.45,0.63,1.71c0.44,0.27,1.35,0.16,1.84-0.13c0.66-0.4,1.13-1.12,1.66-1.72
			c2.76-3.11,5.51-6.23,8.36-9.46c1.9,0.71,3.64,1.34,5.36,2.01c2.27,0.88,4.59,1.49,7.06,1.4c0.93-0.03,1.87,0.21,2.8,0.25
			c1.87,0.09,3.76,0.37,5.6,0.17c7-0.78,13.8-2.42,19.71-6.42c4.81-3.26,9.17-7.02,11.62-12.55c1.24-2.81,2.71-5.52,4.2-8.51
			c0.69,0.22,1.45,0.36,2.12,0.69c5.06,2.49,10.1,5.03,15.15,7.53c0.72,0.35,1.47,0.67,2.24,0.87c0.3,0.07,0.81-0.16,1.01-0.42
			c0.2-0.27,0.31-0.83,0.16-1.1c-0.31-0.57-0.77-1.09-1.25-1.53c-4.28-3.89-8.57-7.75-12.86-11.62c-0.8-0.72-1.56-1.48-2.4-2.16
			c-2.01-1.61-2.89-3.54-2.89-6.25c-0.01-4.43-0.5-8.86-2.3-13.02c-0.25-0.58-0.23-1.27-0.38-2.21c6.32,0.01,12.18,1.49,17.99,2.89
			c9.4,2.26,18.37,5.8,27.35,10.01c-0.18,1.14-0.27,2.19-0.53,3.19c-1.26,4.9-3.9,9.13-6.72,13.22c-3.68,5.32-8.17,9.97-12.83,14.44
			c-0.39,0.37-0.82,0.7-1.26,1c-4.63,3.22-9.16,6.6-13.94,9.59c-3.75,2.35-7.74,4.33-11.73,6.26c-7.05,3.41-14.49,5.66-22.19,7.09
			c-1.84,0.34-3.63,0.96-5.45,1.43c-6.27,1.63-12.62,2.54-19.12,2.19c-0.67-0.04-1.35-0.01-2.01,0.05
			c-10.03,1.03-19.45-1.71-28.78-4.79c-3.81-1.26-7.67-2.49-11.15-4.61c-6.67-4.06-13.29-8.16-18.32-14.31
			c-0.51-0.62-1.07-1.21-1.53-1.86c-0.54-0.77-0.18-2.17,0.74-2.35c3.78-0.75,6.08-3.82,9.16-5.65c3.23-1.92,6.38-3.96,9.61-5.88
			c3.69-2.2,7.41-4.34,11.14-6.47C158.34,216.63,159.34,215.62,161.33,215.66z"/>
		<path class="st3" d="M247.7,222.43c-1.07-0.51-2.17-0.96-3.2-1.54c-5.39-3.02-10.72-6.15-16.15-9.09
			c-3.18-1.73-6.5-3.21-9.78-4.77c-0.6-0.28-1.29-0.36-1.94-0.53c-1.87-0.51-3.46-0.01-4.78,1.35c-1.5,1.54-2.98,3.1-4.44,4.68
			c-5.72,6.24-11.46,12.47-17.13,18.76c-2.61,2.89-5.09,5.9-7.62,8.86c-1.2,1.4-2.42,2.77-3.97,3.96c-0.11-0.47-0.29-0.78-0.21-0.92
			c3.35-5.51,6.69-11.01,10.09-16.49c3.69-5.94,7.43-11.84,11.13-17.77c1.99-3.18,4.02-6.34,5.4-9.72
			c-0.41-1.85-1.64-2.94-2.85-3.98c-3.58-3.05-7.06-6.24-10.86-9c-6.64-4.82-12.95-10.06-19.26-15.28
			c-3.83-3.17-7.73-6.25-11.58-9.38c-0.3-0.25-0.53-0.58-0.82-0.9c0.62-0.85,1.19-0.18,1.64,0.07c5.24,3.02,10.46,6.06,15.67,9.12
			c3.71,2.17,7.39,4.39,11.1,6.57c6.71,3.95,13.44,7.88,20.16,11.83c0.23,0.14,0.46,0.28,0.69,0.42c3.21,1.93,4.37,1.67,6.51-0.98
			c6.49-8.05,13.1-16.01,19.61-24.05c3.29-4.07,6.47-8.23,9.72-12.33c0.22-0.28,0.59-0.44,1.61-1.19c-0.77,1.4-1.08,2.08-1.48,2.71
			c-2.48,3.84-5.1,7.58-7.43,11.5c-3.78,6.35-7.39,12.8-11.04,19.22c-1.99,3.5-3.95,7.03-5.88,10.57c-1.1,2.01-1.05,3.06,0.59,4.69
			c1.71,1.7,3.64,3.18,5.47,4.75c1.22,1.05,2.6,1.96,3.66,3.15c3.13,3.56,6.87,6.4,10.57,9.3c2.42,1.89,4.78,3.86,7.17,5.8
			C247.94,222.01,247.82,222.22,247.7,222.43z"/>
		<path class="st3" d="M162.24,203.57c-0.33,0.62-0.36,0.77-0.45,0.85c-5.93,5.21-4.79,4.12-11.06,2.87
			c-2.21-0.44-4.35-1.31-6.47-2.14c-2.98-1.17-5.82-2.69-8.98-3.44c-0.97-0.23-1.82-0.96-2.74-1.47c0.23-0.63,0.26-1.1,0.5-1.35
			c2.58-2.54,5.56-4.54,8.6-6.48c3.44,2.08,6.67,4.2,10.07,6.04C155.09,200.29,158.62,201.83,162.24,203.57z"/>
		<path class="st3" d="M288.22,178c-0.42,0.67-0.57,1.07-0.85,1.33c-4.96,4.59-10.55,8.23-16.78,10.81
			c-0.92,0.38-2.13,0.49-3.1,0.27c-1.94-0.44-3.86-1.09-5.59-2.68c0.5-0.49,0.88-1,1.38-1.34c5.1-3.45,10.37-6.66,14.87-10.92
			c0.97-0.91,2.05-1.29,3.3-0.74C283.64,175.7,285.89,176.56,288.22,178z"/>
		<path class="st3" d="M266.07,168.96c3.86,1.11,7.02,2.53,10.41,4.23c-0.73,0.85-1.2,1.67-1.89,2.16
			c-4.49,3.17-8.96,6.39-13.59,9.35c-3.41,2.18-3.52,2.02-7.95-0.11c0.46-1.73,1.93-2.79,3-4.03c2.02-2.32,4.2-4.47,5.84-7.15
			C262.91,171.76,264.58,170.51,266.07,168.96z"/>
		<path class="st3" d="M213.35,181.63c-2.08-7.16-2.99-13.99-3.61-20.79c3.27-1.47,5.31-1.73,8.97-1.11
			c0.14,0.78,0.46,1.67,0.43,2.54c-0.2,4.82-0.27,9.61,0.63,14.39c0.28,1.49-1.01,3.51-2.58,4.11
			C216.1,181.16,214.91,181.28,213.35,181.63z"/>
		<path class="st3" d="M146.56,216.65c-2.19,1.7-3.5,2.81-4.92,3.78c-0.51,0.35-1.27,0.6-1.86,0.51
			c-7.42-1.14-14.68-2.89-21.55-6.04c-0.21-0.09-0.32-0.4-0.47-0.61c1.05-2.46,1.53-3.04,5.41-6.48c0.61,0.26,1.43,0.41,2.02,0.87
			c4.33,3.43,9.56,4.69,14.68,6.21C141.77,215.47,143.69,215.91,146.56,216.65z"/>
		<path class="st3" d="M101.76,231.7c2.02-3.21,4.7-5.4,7.05-7.83c3.46,1.25,6.68,2.59,10,3.57c3.21,0.95,6.53,1.52,9.77,2.25
			c0.51,0.83-0.11,1.24-0.56,1.69c-1.16,1.19-2.55,1.96-4.21,2.19c-1.99,0.27-3.98,0.72-5.98,0.74c-3.35,0.03-6.71-0.11-10.05-0.41
			C105.81,233.73,103.8,233.33,101.76,231.7z"/>
		<path class="st3" d="M272.95,192.48c1.01-0.69,1.64-1.12,2.28-1.55c3.55-2.36,7.13-4.67,10.63-7.11c1.3-0.91,2.44-2.08,3.54-3.24
			c1.05-1.11,2.15-1.5,3.57-0.83c1.21,0.57,2.45,1.08,3.64,1.69c0.7,0.36,1.33,0.85,2.21,1.43c-0.43,0.63-0.7,1.21-1.13,1.63
			c-4.74,4.71-10.61,7.59-16.66,10.17c-1.15,0.49-2.3,0.63-3.49,0.04C276.16,194,274.75,193.35,272.95,192.48z"/>
		<path class="st3" d="M150.89,184.92c2.17,1.93,3.92,3.6,5.79,5.12c1.98,1.61,4.09,3.04,6.09,4.63c1.88,1.5,4.49,1.75,6.36,3.66
			c-0.8,0.74-1.45,1.4-2.15,1.99c-1.01,0.86-2.19,1.08-3.4,0.6c-2.98-1.2-6.01-2.32-8.89-3.74c-3.37-1.66-6.6-3.59-9.88-5.43
			c-0.34-0.19-0.6-0.51-1.03-0.89C145.08,187.66,148.43,187.08,150.89,184.92z"/>
		<path class="st3" d="M162.7,177.49c2.44-1.85,4.83-3.22,7.74-3.75c2.57,2.53,4.08,5.71,6.13,8.5c1.98,2.7,4.1,5.3,6.16,7.94
			c-1.03,1.56-1.03,1.56-4.09,2.54c-4.76-3.21-9-7.28-13.27-11.32C164.29,180.38,163.26,179.34,162.7,177.49z"/>
		<path class="st3" d="M283.65,196.79c3.17-1.86,6.37-3.53,9.32-5.54c2.96-2.02,5.69-4.38,8.73-6.75c2.88,1.31,5.84,2.79,8.57,4.71
			c-0.01,1.25-1.04,1.59-1.79,1.91c-5.9,2.52-11.6,5.52-17.84,7.2c-2.12,0.57-4.24,0.69-6.2-0.56
			C284.14,197.56,283.96,197.17,283.65,196.79z"/>
		<path class="st3" d="M153.8,210.48c-1.57,1.98-3.14,2.94-4.72,3.85c-0.4,0.23-1.07,0.19-1.55,0.06
			c-6.31-1.79-12.82-2.96-18.7-6.04c-0.95-0.5-1.87-1.04-2.79-1.6c-0.21-0.13-0.32-0.41-0.63-0.82c0.82-2,2.69-3.03,4.51-4.36
			C137.63,204.84,144.99,208.95,153.8,210.48z"/>
		<path class="st3" d="M198.24,162.29c3.24-0.73,5.97-1.93,9.16-1.34c0.18,0.78,0.48,1.54,0.52,2.3c0.29,5.37,0.76,10.71,2.2,15.93
			c0.07,0.26,0.12,0.52,0.16,0.79c0.11,0.82,0.16,1.65-0.68,2.12c-0.92,0.52-2.35,0.32-2.98-0.38c-0.27-0.3-0.48-0.64-0.7-0.98
			c-2.95-4.67-5.2-9.68-7.01-14.89C198.57,164.86,198.51,163.78,198.24,162.29z"/>
		<path class="st3" d="M110.94,255.26c-0.93-0.14-1.47-0.18-1.99-0.31c-1.13-0.3-1.67-1.66-0.97-2.56c0.66-0.84,1.4-1.63,2.22-2.31
			c3.93-3.29,8.11-6.16,13.22-7.34c2.38-0.55,4.53-0.17,6.39,1.47c0.39,0.35,0.72,0.8,1.01,1.24c0.45,0.68,0.21,1.71-0.47,2.13
			c-0.34,0.21-0.71,0.37-1.08,0.52c-4.95,2.04-9.9,4.09-14.87,6.08C113.18,254.66,111.88,254.97,110.94,255.26z"/>
		<path class="st3" d="M152.99,183.64c2.36-1.73,4.28-3.34,6.75-4.19c5.17,4.91,10.28,9.76,15.51,14.72
			c-0.28,1.07-1.23,1.62-2.21,1.88c-0.71,0.19-1.62,0.08-2.31-0.21C164.13,193.08,158.31,189.19,152.99,183.64z"/>
		<path class="st3" d="M115.54,216.04c3.72,1.6,7.07,3.3,10.59,4.48c3.51,1.18,7.19,1.84,10.98,2.77c-0.61,1.71-1.96,2.42-3.15,3.17
			c-0.62,0.39-1.52,0.39-2.3,0.45c-0.8,0.07-1.62,0.09-2.41-0.03c-6.2-0.96-12.34-2.18-18.09-4.81
			C111.82,219.71,112.32,219.02,115.54,216.04z"/>
		<path class="st3" d="M254.52,164.98c2.96,0.81,5.6,1.62,8.34,2.8c-0.37,0.8-0.49,1.35-0.81,1.71c-2.78,3.09-5.51,6.25-8.45,9.19
			c-1.6,1.6-3.55,2.84-5.39,4.18c-0.69,0.5-0.75,0.42-3.21-0.08c0.29-2.37,2.15-3.92,3.1-5.91c0.93-1.94,1.98-3.81,2.93-5.74
			C252.02,169.1,252.62,166.85,254.52,164.98z"/>
		<path class="st3" d="M202.98,182c-3.13-1.84-5.59-3.17-7.92-4.71c-0.97-0.64-1.76-1.65-2.45-2.63c-1.94-2.76-3.2-5.86-4.46-9.1
			c2.24-2.19,4.93-2.67,7.9-2.92c0.36,0.74,0.86,1.41,1.01,2.15c1.06,5.31,2.65,10.41,5.42,15.1
			C202.67,180.2,202.67,180.63,202.98,182z"/>
		<path class="st3" d="M251.47,164.33c-1.89,3.92-3.53,7.41-5.85,10.55c-1.27,1.72-2.48,3.49-3.73,5.22
			c-0.83,1.15-0.84,1.14-3.03,2.04c0.27-2.09,0.52-4.04,0.79-5.99c0.43-3.17,0.97-6.34,1.3-9.52c0.19-1.81,0.59-3.4,2.21-4.66
			C245.9,162.25,248.53,163.04,251.47,164.33z"/>
		<path class="st3" d="M222.07,174.93c-0.97-4.94-1.27-11.83-0.72-15.09c1.92-1.16,3.95-0.94,6.2-0.26
			c0.79,2.74,0.37,5.52,0.35,8.27c0,0.12-0.08,0.26-0.15,0.37C226.2,170.51,224.68,172.83,222.07,174.93z"/>
		<path class="st3" d="M179.13,180.4c2.77,2.02,5.55,4.03,8.3,6.07c0.52,0.38,0.96,0.87,1.45,1.32c-1.55,1.4-2.36,1.66-3.49,0.95
			c-0.78-0.49-1.52-1.11-2.12-1.81c-1.63-1.91-3.18-3.9-4.77-5.85C178.72,180.86,178.92,180.63,179.13,180.4z"/>
		<path class="st3" d="M185.67,166.42c0.92,1.99,1.75,3.78,2.61,5.64c-1.26,0.84-1.86-0.16-2.58-0.55
			c-0.93-0.51-1.85-1.05-2.72-1.66c-0.72-0.51-1.35-1.14-2.07-1.75C183.11,166.43,183.12,166.46,185.67,166.42z"/>
		<path class="st3" d="M205.25,233.72c1.16-0.27,1.9-0.45,2.54-0.6c0.32,0.37,0.62,0.56,0.63,0.76c0.06,1.99,0.09,3.98,0.07,5.97
			c-0.01,0.67-0.1,0.67-1.67,1.45C205.15,239.12,205.69,236.52,205.25,233.72z"/>
		<path class="st3" d="M211.91,239.7c-0.76-2.34-1.74-4.26-1.57-6.47c0.03-0.33,0.34-0.77,0.63-0.89c0.29-0.12,0.9-0.05,1.06,0.17
			c0.77,1.08,1.56,2.18,2.11,3.38C214.96,237.66,214.67,238.09,211.91,239.7z"/>
		<path class="st3" d="M231.82,181.22c1.66-3.11,3.22-6.01,5.18-9.69c0.33,4.03-0.85,6.78-2.18,9.46
			C234.34,181.97,233.31,181.93,231.82,181.22z"/>
		<path class="st3" d="M198.86,233.36c0.08,3.35-0.02,5.96-0.85,8.49c-0.12,0.36-0.73,0.64-1.16,0.75
			c-0.16,0.04-0.72-0.53-0.68-0.76c0.37-2.46,0.81-4.92,1.3-7.36C197.51,234.22,197.98,234.05,198.86,233.36z"/>
		<path class="st3" d="M200.77,242.39c0-2.78-0.13-5.35,0.56-7.83c1.04-0.19,0.98,0.54,1.04,0.94c0.25,1.82,0.48,3.66,0.59,5.5
			C203.03,242.11,202.43,242.69,200.77,242.39z"/>
		<path class="st3" d="M219.2,232.08c-0.29,0.53-0.48,1.02-0.8,1.41c-0.23,0.29-0.63,0.44-1.06,0.71c-1.37-1.01-2.26-2.31-2.58-3.9
			c-0.09-0.46,0.46-1.06,0.74-1.65C217.34,229.39,218.29,230.62,219.2,232.08z"/>
		<path class="st3" d="M176.79,231.24c-0.14-1.05-0.45-1.76-0.23-2.01c1.31-1.48,2.73-2.88,4.17-4.25c0.18-0.17,0.83-0.07,1.06,0.13
			c0.24,0.21,0.3,0.69,0.31,1.06c0.01,0.23-0.17,0.52-0.34,0.7C180.39,228.3,179.07,229.78,176.79,231.24z"/>
		<path class="st3" d="M193.9,232.94c0.65,3.39-0.03,5.74-1.82,8.84C192.03,238.3,192.36,235.87,193.9,232.94z"/>
		<path class="st3" d="M230.73,163.86c0-1.28,0-2.39,0-3.71c1.06-0.18,2.03-0.35,2.93-0.51
			C234.17,160.87,233.57,161.68,230.73,163.86z"/>
		<path class="st3" d="M183.58,228.57c-1.14,3.44-1.76,4.45-4.26,7.2c-0.12-0.2-0.4-0.48-0.35-0.57c0.73-1.25,1.47-2.51,2.28-3.71
			C181.83,230.65,182.52,229.9,183.58,228.57z"/>
		<path class="st3" d="M220.6,229.26c-1.56-0.6-2.21-1.82-2.42-3.3c-0.04-0.25,0.41-0.81,0.63-0.81c1.47-0.01,2.87,1.74,2.58,3.2
			C221.32,228.67,220.91,228.91,220.6,229.26z"/>
		<path class="st3" d="M175.25,223.97c0.85-2.14,2.06-3.14,3.76-3.04c0.17,0.01,0.4,0.33,0.46,0.55c0.06,0.22,0.03,0.58-0.12,0.72
			C178.58,222.96,177.4,223.44,175.25,223.97z"/>
		<path class="st3" d="M223.33,223.79c-0.38,0.44-0.57,0.87-0.86,0.97c-0.88,0.28-2.02-0.49-2.34-1.57
			c-0.09-0.29,0.16-0.98,0.3-0.99c0.6-0.06,1.31-0.11,1.81,0.17C222.71,222.62,222.96,223.28,223.33,223.79z"/>
		<path class="st3" d="M174.25,218.92c0.47-1.41,1.7-1.91,3.09-2.16c0.16-0.03,0.46,0.24,0.53,0.43c0.07,0.2,0.02,0.6-0.12,0.69
			c-0.95,0.61-1.93,1.16-2.9,1.73C174.65,219.38,174.45,219.15,174.25,218.92z"/>
		<path class="st3" d="M177,212.95c-0.56,0.35-1.01,0.68-1.52,0.91c-0.12,0.06-0.51-0.16-0.57-0.33c-0.07-0.18,0.03-0.54,0.18-0.66
			C175.6,212.43,176.19,212.27,177,212.95z"/>
		<path class="st3" d="M177.1,208.01c-0.19,0.25-0.41,0.52-0.62,0.8c-0.2-0.25-0.61-0.56-0.56-0.73c0.09-0.29,0.46-0.5,0.72-0.75
			C176.78,207.52,176.91,207.72,177.1,208.01z"/>
		<path class="st3" d="M223.52,217.77c-0.36,0.4-0.58,0.64-0.8,0.88c-0.22-0.26-0.5-0.49-0.61-0.79c-0.05-0.13,0.28-0.58,0.39-0.57
			C222.79,217.33,223.07,217.54,223.52,217.77z"/>
		<path class="st3" d="M188.19,239.03c-0.15,0.18-0.3,0.36-0.45,0.54c-0.12-0.15-0.24-0.29-0.36-0.44c0.2-0.14,0.4-0.27,0.61-0.41
			C188.05,238.82,188.12,238.92,188.19,239.03z"/>
		<path class="st3" d="M279.34,138.88c0.57-1.56,1.26-2.8,2.02-4.01c4.99-8,9.19-16.43,13.68-24.71c1.34-2.48,2.7-4.95,3.88-7.5
			c1.39-3.01,1.29-3.22-1.42-5.38c-2.84-2.26-5.74-4.45-8.58-6.71c-4.42-3.51-8.82-7.06-13.22-10.6c-0.61-0.49-1.17-1.06-1.71-1.54
			c0.31-0.93,0.88-0.69,1.3-0.5c1.83,0.84,3.63,1.75,5.45,2.62c7.39,3.55,14.78,7.11,22.18,10.62c2.09,0.99,2.68,0.86,4.19-0.9
			c2.89-3.36,5.74-6.76,8.57-10.17c4.62-5.58,9.21-11.18,13.87-16.85c0.64,1.02-0.07,1.64-0.34,2.29
			c-4.04,9.55-8.57,18.85-13.83,27.79c-0.54,0.92-1,1.91-1.41,2.9c-0.19,0.47-0.17,1.03-0.27,1.68
			c14.19,10.66,28.34,21.29,42.53,31.95c-0.71,0.73-1.26,0.1-1.77-0.09c-0.88-0.33-1.72-0.76-2.54-1.22
			c-7.27-4.08-14.85-7.55-22.31-11.26c-5.66-2.81-11.22-5.81-16.82-8.73c-0.48-0.25-0.92-0.57-1.4-0.8
			c-1.98-0.96-3.58-0.73-5.05,0.94c-1.69,1.91-3.29,3.91-4.88,5.91c-6.62,8.33-14.01,15.98-21.09,23.9
			C280.23,138.66,279.92,138.68,279.34,138.88z"/>
		<path class="st3" d="M165.17,114.75c-0.21,0.52-0.41,1.05-0.62,1.57c-0.43-0.85-0.13-1.34,0.59-1.6
			C165.13,114.72,165.17,114.75,165.17,114.75z"/>
		<path class="st3" d="M140.83,128.32c-0.06,0.2-0.12,0.4-0.18,0.6c0.01-0.08,0-0.18,0.03-0.25c0.05-0.11,0.14-0.2,0.21-0.29
			C140.89,128.38,140.83,128.32,140.83,128.32z"/>
		<path class="st3" d="M125.66,139.04c-0.08-0.72,0.01-1.36,0.76-1.71c0,0-0.06-0.05-0.06-0.05c-0.25,0.57-0.5,1.14-0.75,1.71
			C125.6,138.99,125.66,139.04,125.66,139.04z"/>
		<path class="st3" d="M110.9,150.07c0.01,0.22,0.02,0.45,0.03,0.67c0.01-0.2,0.02-0.4,0.02-0.61
			C110.95,150.13,110.9,150.07,110.9,150.07z"/>
		<path class="st3" d="M89.3,168.78c-0.28,0.84-0.57,1.69-0.85,2.53C88.73,170.47,89.01,169.63,89.3,168.78z"/>
		<path class="st3" d="M86.88,175.25c-0.29,0.57-0.58,1.14-0.87,1.71C86.3,176.39,86.59,175.82,86.88,175.25z"/>
	</g>
</g>
<g id="Layer_4">
</g>
<g id="Layer_1_copy">
</g>
<g id="Layer_6">
</g>
<g id="Layer_7">
</g>
</svg>
