<?xml version="1.0" encoding="utf-8"?>
<!-- Generator: Adobe Illustrator 26.4.1, SVG Export Plug-In . SVG Version: 6.00 Build 0)  -->
<svg version="1.1" xmlns="http://www.w3.org/2000/svg" xmlns:xlink="http://www.w3.org/1999/xlink" x="0px" y="0px"
	 viewBox="0 0 504 504" style="enable-background:new 0 0 504 504;" xml:space="preserve">
<style type="text/css">
	.st0{display:none;}
	.st1{display:inline;fill:#85D0CB;}
	.st2{display:inline;}
	.st3{fill:#FFFFFF;}
	.st4{fill:none;stroke:#000000;stroke-linecap:round;stroke-linejoin:round;stroke-miterlimit:10;}
	.st5{font-family:'CarolGothic';}
	.st6{font-size:62.1064px;}
</style>
<g id="Layer_2" class="st0">
</g>
<g id="Layer_2_copy" class="st0">
</g>
<g id="Layer_1" class="st0">
</g>
<g id="Layer_3">
</g>
<g id="Layer_4">
</g>
<g id="Layer_1_copy">
</g>
<g id="Layer_6">
</g>
<g id="Layer_7">
	<g>
		<path d="M257.57,241.84c-0.32-0.3-0.7-0.56-0.95-0.92c-2.1-3.07-4.14-6.18-5.78-9.58c-0.1-0.21-0.31-0.36-0.67-0.76
			c-0.01,0.62-0.06,0.94-0.02,1.24c0.34,2.37,0.69,4.73,1.03,7.09c0.45,3.11,0.88,6.22,1.32,9.32c0.27,1.89,0.5,3.79,0.79,5.68
			c0.5,3.24,0.98,6.48,1.57,9.69c0.43,2.34,1.01,4.66,1.57,6.97c0.14,0.58,0.49,1.1,0.73,1.66c0.1,0.24,0.19,0.51,0.2,0.76
			c0.01,0.15-0.15,0.32-0.27,0.44c-0.04,0.04-0.24-0.06-0.29-0.14c-0.11-0.16-0.19-0.35-0.24-0.55c-0.09-0.4-0.08-0.84-0.24-1.2
			c-1.25-2.89-1.48-6.06-2.17-9.11c-0.82-3.59-1.46-7.22-1.92-10.88c-0.18-1.42-0.4-2.84-0.64-4.25c-0.07-0.45-0.25-0.88-0.42-1.46
			c-0.37,0.16-0.67,0.22-0.9,0.39c-2.02,1.51-3.93,3.14-5.37,5.35c-0.21,0.33-0.49,0.65-0.79,0.86c-1.6,1.12-2.81,2.69-4.09,4.18
			c-0.21,0.25-0.44,0.48-0.68,0.7c-1.6,1.41-3.2,2.82-4.82,4.2c-1.25,1.06-2.33,2.28-3.34,3.59c-0.55,0.72-0.71,1.6-0.78,2.49
			c-0.22,2.86-0.45,5.74,0.04,8.59c0.5,2.89,1.02,5.77,1.69,8.61c0.34,1.44,1.02,2.79,1.57,4.17c0.82,2.07,1.58,4.17,2.52,6.18
			c1.14,2.43,2.39,4.8,3.7,7.13c0.65,1.15,1.55,2.14,2.32,3.21c1.54,2.16,3.02,4.36,4.74,6.36c1.55,1.79,3.16,3.5,5,4.95
			c0.2,0.16,0.44,0.29,0.6,0.49c0.94,1.26,2.21,1.99,3.51,2.69c0.8,0.43,1.54,0.92,2.03,1.75c0.11,0.18,0.07,0.47,0.13,0.95
			c-3.83-1.92-7.24-4.14-10.46-6.62c-0.39,0.27-0.25,0.52-0.1,0.71c0.82,1.03,1.64,2.07,2.49,3.07c1.07,1.25,2.14,2.5,3.26,3.7
			c0.94,1,1.96,1.91,2.91,2.89c1.69,1.73,3.41,3.4,5.45,4.66c1.13,0.7,2.06,1.78,3.19,2.49c1.94,1.23,3.97,2.31,5.96,3.46
			c0.22,0.12,0.42,0.28,0.62,0.42c-0.12,0.49-0.46,0.49-0.76,0.4c-1.98-0.62-3.99-1.15-5.93-1.91c-2.88-1.13-5.71-2.43-8.57-3.64
			c-0.38-0.16-0.79-0.25-1.45-0.46c1.24,2.13,3.23,2.96,4.57,4.83c-0.4,0.09-0.63,0.22-0.82,0.18c-0.86-0.2-1.67-0.5-2.35-1.19
			c-0.5-0.51-1.08-0.93-1.66-1.34c-3.26-2.33-6.12-5.21-8.98-8.08c-0.55-0.56-1.06-1.17-1.66-1.66c-2.27-1.86-4.12-4.19-6.05-6.43
			c-2.14-2.5-4.28-4.99-6.32-7.58c-1.71-2.18-3.24-4.52-4.89-6.75c-1.81-2.45-3.25-5.19-4.98-7.69c-2.35-3.39-4.29-7.07-6.17-10.77
			c-1.18-2.32-2.12-4.8-3.08-7.25c-0.98-2.52-1.82-5.1-2.38-7.77c-0.25-1.2-0.53-2.4-0.68-3.61c-0.29-2.31-0.92-4.53-1.17-6.85
			c-0.29-2.81-0.35-5.59-0.03-8.39c0.29-2.5,0.63-5,0.78-7.52c0.13-2.2,0.66-4.31,0.93-6.47c0.51-3.94,1.35-7.79,2.24-11.64
			c0.75-3.25,1.38-6.53,2.09-9.79c0.69-3.18,0.57-6.38,0.37-9.6c-0.33-5.21-1.36-10.29-2.25-15.39c-0.17-1-0.48-1.99-0.82-2.94
			c-0.55-1.53-1.16-3.03-1.78-4.53c-0.17-0.42-0.46-0.78-0.7-1.17c-0.48,0.24-0.33,0.63-0.29,0.9c0.35,2.32,0.26,4.63-0.02,6.95
			c-0.09,0.74-0.16,1.5-0.16,2.25c-0.01,2.07-0.19,4.1-0.85,6.05c-0.11,0.32-0.18,0.66-0.26,0.99c-0.38,1.66-0.82,3.27-1.67,4.76
			c-0.59,1.03-0.91,2.25-1.45,3.33c-1.27,2.51-2.64,4.96-3.9,7.48c-0.96,1.91-1.82,3.88-2.47,5.95c-0.22,0.71-0.51,1.4-0.83,2.06
			c-1.01,2.13-1.83,4.34-2.5,6.62c-0.42,1.43-0.84,2.86-1.32,4.26c-0.92,2.65-1.33,5.39-1.52,8.21c-0.13,1.9-0.52,3.78-0.59,5.7
			c-0.06,1.5-0.2,3,0,4.5c0.08,0.6,0.06,1.23,0.05,1.84c-0.06,3.08-0.01,6.14,0.62,9.17c0.25,1.19,0.24,2.46,0.56,3.63
			c0.59,2.09,1.25,4.17,2.04,6.17c1.41,3.58,2.95,7.09,4.74,10.47c1.04,1.98,2.38,3.68,3.72,5.38c1.19,1.5,2.46,2.92,3.71,4.36
			c0.56,0.64,1.17,1.24,1.75,1.86c1.61,1.72,3.2,3.47,4.83,5.17c2.72,2.83,5.53,5.53,8.5,8.06c1.68,1.42,3.68,2.28,5.22,3.9
			c-0.2,0.52-0.63,0.44-0.97,0.36c-1.52-0.37-3.09-0.64-4.54-1.24c-2.04-0.86-4.07-1.75-5.95-3.02c-2.93-1.97-5.91-3.85-8.82-5.85
			c-0.89-0.61-1.62-1.51-2.45-2.23c-0.63-0.55-1.32-1.03-1.98-1.54c-0.26-0.2-0.54-0.36-0.77-0.58c-2.22-2.11-4.6-4.01-6.51-6.49
			c-0.77-0.99-1.67-1.85-2.53-2.75c-3.46-3.6-6.4-7.66-9.17-11.91c-2.15-3.3-4.19-6.66-5.87-10.25c-2.08-4.44-4.11-8.93-5.44-13.72
			c-0.58-2.08-0.8-4.29-1.06-6.46c-0.33-2.85-0.55-5.71-0.79-8.57c-0.05-0.61-0.04-1.24,0.01-1.84c0.11-1.16,0.24-2.31,0.43-3.46
			c0.46-2.89,0.84-5.81,1.47-8.66c0.59-2.65,1.37-5.27,2.23-7.83c1.07-3.21,2.27-6.37,3.47-9.52c0.77-2.02,1.64-3.99,2.5-5.97
			c1.59-3.66,2.81-7.46,3.71-11.39c0.12-0.53,0.27-1.05,0.41-1.58c0.46-1.72,0.74-3.46,0.79-5.25c0.05-1.78,0.18-3.55,0.29-5.32
			c0.27-4.27-0.19-8.49-0.85-12.67c-0.66-4.25-1.56-8.45-2.31-12.68c-0.45-2.55-0.83-5.12-1.23-7.68c-0.09-0.61-0.16-1.23-0.14-1.84
			c0.09-3.9,0.18-7.79,0.59-11.67c0.33-3.13,0.95-6.2,1.25-9.33c0.9-2.54,1.02-5.36,2.25-7.8c0.21-0.41,0.3-0.9,0.43-1.35
			c0.12-0.39,0.17-0.81,0.34-1.16c1.3-2.8,2.62-5.59,3.94-8.37c0.26-0.55,0.43-1.07,0.38-1.74c-0.11-1.65,0.24-3.23,0.78-4.8
			c0.61-1.8,1.4-3.5,2.16-5.21c0.63-1.4,1.49-2.69,2.27-4.01c0.68-1.15,1.41-2.26,2.11-3.4c1.74-2.84,3.34-5.77,4.79-8.8
			c0.88-1.83,1.61-3.68,2.14-5.67c0.56-2.13,0.76-4.29,0.9-6.48c0.18-2.8,0.26-5.61,0.53-8.4c0.23-2.45,0.55-4.9,1.02-7.3
			c0.35-1.79,0.93-3.55,1.55-5.26c1.24-3.44,2.7-6.78,4.33-10.01c1.58-3.13,3.57-5.94,5.98-8.38c2.3-2.32,4.73-4.43,7.42-6.22
			c2.96-1.96,6.11-3.39,9.36-4.61c0.65-0.24,1.33-0.42,1.95-0.73c2.52-1.29,5.18-2.03,7.94-2.32c2.55-0.27,5.11-0.47,7.68-0.59
			c1.3-0.06,2.6,0.12,4.15,0.21c1.8-2.12,4.5-3.17,6.92-4.73c0.96-0.62,2.06-1.01,3.13-1.36c3.65-1.18,7.29-2.46,11.13-2.81
			c4.83-0.44,9.6-0.23,14.34,1.06c2.65,0.72,5.03,2.02,7.41,3.38c2.34,1.33,4.4,3.12,6.52,4.8c2.03,1.6,3.31,3.84,3.94,6.54
			c0.69,2.99,0.23,2.26,2.73,3.28c3.34,1.35,6.33,3.38,8.76,6.2c2.09,2.43,3.91,5.1,5.23,8.2c0.8,1.89,1.37,3.85,1.75,5.82
			c0.59,3.06,0.88,6.2-0.34,9.24c-0.5,1.25-0.8,2.59-1.21,3.88c-0.84,2.65-2.23,4.87-4.29,6.58c-0.66,0.55-1.34,0.96-2.17,1.15
			c-1.1,0.24-2.19,0.56-3.29,0.85c-0.65,0.83-1.27,1.69-1.97,2.47c-0.57,0.63-1.18,1.24-1.86,1.71c-0.51,0.35-1.14,0.59-1.74,0.68
			c-1.59,0.24-3.24-0.29-4.67-1.43c-0.5,0.25-1.05,0.55-1.63,0.79c-0.69,0.29-1.37,0.55-2.18,0.43c-1.37-0.21-2.19-1.07-2.46-2.44
			c-0.23-1.13-0.6-2.11-1.44-2.78c-1.07-0.85-2.19-1.6-3.57-1.67c-3.65-0.18-7.06,1.67-8.58,5.91c-0.83,2.31-1.44,4.65-1.31,7.18
			c0.11,2.12,0.04,4.24,0.08,6.37c0.08,4.49-0.89,8.71-2.99,12.55c-0.95,1.74-2.26,3.27-3.49,4.82c-0.43,0.55-1.06,0.95-1.66,1.3
			c-1.9,1.12-3.41,2.77-4.99,4.32c-0.23,0.22-0.4,0.53-0.54,0.83c-1.18,2.42-2.21,4.91-2.74,7.61c-0.15,0.77-0.16,1.58-0.24,2.36
			c-0.19-0.02-0.36,0.02-0.41-0.05c-0.78-1.02-1.19-2.19-1.28-3.54c-0.26-3.8,0.57-7.18,3.01-10.01c1.93-2.24,3.76-4.58,5.71-6.8
			c1.08-1.23,1.81-2.61,2.18-4.24c0.58-2.54,0.83-5.12,0.56-7.74c-0.21-2.11-0.43-4.22-0.57-6.33c-0.27-3.89,0.31-7.64,1.75-11.22
			c0.07-0.18,0.08-0.39,0.13-0.61c-1.16-0.53-2.3-1.06-3.55-1.64c-0.83,0.54-1.77,1.06-2.6,1.75c-0.35,0.29-0.5,0.93-0.66,1.43
			c-0.52,1.68-1.02,3.38-1.5,5.07c-0.35,1.24-0.72,2.48-1,3.74c-0.53,2.34-1.41,4.52-2.34,6.69c-0.61,1.42-1.26,2.83-1.8,4.29
			c-0.5,1.34-1.16,2.57-1.87,3.79c-2.35,4.05-4.99,7.87-7.67,11.65c-2.78,3.93-6.16,7.13-10.16,9.57c-2.3,1.4-4.69,2.59-7.07,3.81
			c-2.6,1.34-5.17,2.76-7.76,4.13c-2.2,1.16-4.4,2.33-6.37,3.91c-0.95,0.76-1.8,1.68-2.67,2.55c-0.35,0.35-0.41,0.83-0.37,1.33
			c0.38,5.04,0.72,10.09,1.84,15.03c0.45,1.98,0.7,4.01,1.09,6.01c0.15,0.8,0.43,1.57,0.65,2.35c1.19,4.25,2.25,8.55,3.6,12.73
			c0.97,3.02,2.32,5.9,3.51,8.84c0.5,1.25,0.94,2.54,1.53,3.74c1.25,2.54,2.75,4.89,4.63,6.93c0.17,0.19,0.42,0.3,0.64,0.45
			c-0.23,0.55-0.37,0.89-0.53,1.29c-0.26-0.17-0.46-0.24-0.56-0.38c-1.08-1.59-2.16-3.18-3.21-4.8c-1.67-2.58-2.76-5.52-4.05-8.33
			c-0.28-0.6-0.39-1.33-1.12-1.52c-0.01-0.13-0.02-0.25-0.03-0.37c0.02,0.11,0.03,0.23,0.05,0.34c0.59,3.35,1.34,6.66,2.27,9.92
			c0.85,3,1.53,6.05,2.29,9.07c0.94,3.75,1.78,7.52,2.86,11.24c1.15,3.98,2.67,7.79,3.96,11.71c1.13,3.4,2.23,6.81,3.43,10.17
			c0.93,2.6,1.97,5.17,3.04,7.71c0.86,2.05,1.81,4.05,2.75,6.05c0.31,0.67,0.68,1.31,1.05,1.94c1.2,2,2.43,3.97,3.6,5.99
			c0.36,0.62,0.55,1.36,0.82,2.04L257.57,241.84z M217.04,173.53c0,0.16,0,0.32,0,0.13c0.04,0.19,0.01,0.05-0.02-0.09
			c-0.06-0.48-0.12-0.96-0.18-1.44c-0.27-0.68-0.63-1.34-0.8-2.05c-0.58-2.52-1.1-5.05-1.63-7.59c-0.3-1.46-0.67-2.92-0.85-4.41
			c-0.51-4.23-0.38-8.47,0.2-12.68c0.28-2.03,0.72-4.03,0.97-6.06c0.36-3,0.73-5.97,2.12-8.66c0.06-0.12,0.07-0.26,0.11-0.39
			c0.73-2.35,1.85-4.47,3.1-6.53c0.91-1.51,2.23-2.59,3.24-3.97c1.85-2.51,4.34-4.11,6.76-5.79c1.53-1.06,3.19-1.87,4.81-2.78
			c1.33-0.75,2.68-1.46,4.01-2.21c0.83-0.47,1.59-1.12,2.45-1.46c2.15-0.83,4.12-2.06,5.87-3.58c2.25-1.94,4.51-3.88,6.54-6.14
			c2.71-3.01,4.92-6.4,6.81-10.01c1.95-3.73,3.79-7.56,5.2-11.6c0.82-2.36,1.78-4.67,2.36-7.13c0.33-1.39,0.79-2.74,1.26-4.08
			c1-2.8,1.98-5.6,3.13-8.34c0.76-1.81,1.58-3.56,2.54-5.24c0.56-0.98,1.25-1.87,1.82-2.84c0.82-1.38,1.55-2.81,2.38-4.18
			c1.52-2.55,3.44-4.75,5.76-6.4c2.31-1.63,4.82-2.9,7.45-3.84c2.51-0.89,5.14-1.13,7.7-1.78c0.12-0.03,0.25-0.02,0.37-0.03
			c2.28-0.11,4.5,0.24,6.57,1.35c1.06,0.57,2.18,1.1,3.08,1.91c1.94,1.74,3.48,3.84,4.7,6.3c1.57,3.18,2.68,6.46,3.13,10.03
			c0.03,0.23,0.16,0.44,0.27,0.74c0.56-1,0.66-1.32,0.57-2.37c-0.11-1.22-0.23-2.45-0.42-3.66c-0.11-0.73-0.3-1.46-0.58-2.14
			c-0.38-0.93-0.93-1.77-1.29-2.71c-0.48-1.25-1.22-2.19-2.22-2.97c-0.7-0.55-1.43-1.15-1.94-1.9c-1.01-1.48-2.47-2.33-3.81-3.26
			c-1.29-0.89-2.81-1.45-4.3-1.93c-2.11-0.68-4.3-0.86-6.49-0.46c-1.41,0.25-2.82,0.58-4.2,1.01c-3.45,1.06-6.75,2.52-9.59,4.97
			c-1.22,1.05-2.31,2.3-3.36,3.55c-3.06,3.61-5.85,7.43-7.7,11.99c-1.88,4.62-3.84,9.2-5.4,13.98c-0.92,2.83-2,5.6-3.11,8.35
			c-0.71,1.75-1.63,3.39-2.39,5.12c-1.51,3.46-3.2,6.8-5.03,10.07c-0.36,0.64-0.76,1.26-1.23,1.81c-1.02,1.2-2.14,2.3-3.15,3.52
			c-2.08,2.51-4.48,4.57-7.2,6.18c-0.22,0.13-0.42,0.3-0.63,0.45c-2.58,1.96-5.35,3.54-8.22,4.92c-0.51,0.25-0.99,0.58-1.48,0.88
			c-0.87,0.54-1.73,1.11-2.61,1.62c-2.61,1.5-5.07,3.25-7.37,5.27c-3.21,2.8-6.03,6.02-8.08,9.9c-1.46,2.76-2.97,5.52-3.84,8.61
			c-0.46,1.63-0.97,3.24-1.36,4.89c-0.33,1.39-0.51,2.81-0.79,4.22c-0.49,2.48-0.79,5.02-0.66,7.53c0.18,3.54,0.51,7.05,1.51,10.5
			c1.16,3.99,2.79,7.72,4.31,11.48c0.27,0,0.45,0,0.62,0.02C216.5,173.01,216.5,173.01,217.04,173.53z M228.07,21.87
			c-0.35,0.32-0.71,0.64-1.06,0.96c0.53-0.13,1.19-0.16,1.04-0.99c0.1,0.06,0.19,0.15,0.29,0.16c0.06,0.01,0.12-0.12,0.19-0.19
			c-0.05-0.02-0.1-0.06-0.14-0.05C228.28,21.78,228.18,21.83,228.07,21.87z M242.52,96.85c0.65-0.2,1.2-0.54,1.49-1.24
			c0.23-0.08,0.5-0.11,0.69-0.24c2.87-2,5.11-4.79,7.48-7.39c2.59-2.84,4.2-6.41,5.65-10.05c0.64-1.62,1.12-3.34,1.92-4.86
			c0.74-1.4,1.09-2.89,1.47-4.4c0.06-0.22-0.03-0.47-0.07-1.06c-0.37,0.61-0.6,0.92-0.74,1.27c-0.39,1-0.72,2.04-1.12,3.04
			c-0.63,1.56-1.29,3.1-1.94,4.65c-0.16,0.37-0.33,0.73-0.5,1.1c-1.07,2.26-2.44,4.29-3.84,6.3c-0.8,1.14-1.58,2.29-2.37,3.43
			c-0.53,0.76-0.99,1.58-1.59,2.28c-1.58,1.84-3.21,3.63-4.81,5.44c-0.11,0.13-0.12,0.36-0.18,0.54c-0.72,0.1-1.32,0.36-1.49,1.25
			c-0.39-0.07-0.68,0.04-0.83,0.68C242.13,97.38,242.4,97.24,242.52,96.85z M230.85,80.41c0.38-0.2,0.82-0.33,1.13-0.62
			c1.68-1.63,3.37-3.24,4.96-4.96c1.91-2.07,3.57-4.37,4.86-6.96c0.14-0.27,0.22-0.57,0.37-0.96c-0.6-0.1-0.81,0.22-1.01,0.55
			c-0.67,1.07-1.26,2.2-2.02,3.18c-1.28,1.67-2.64,3.27-4.02,4.84c-1.21,1.37-2.49,2.66-3.74,3.98c-0.26,0.28-0.6,0.52-0.5,1.01
			c-0.41-0.13-0.65-0.01-0.64,0.68C230.5,80.82,230.68,80.62,230.85,80.41z M307.82,43.89c-0.05-0.09-0.1-0.19-0.15-0.28
			c0.06,0.08,0.13,0.16,0.19,0.24c0.01,0.61-0.03,1.22,0.05,1.82c0.21,1.54,0.44,3.09,0.74,4.62c0.39,2.02,0.13,3.91-0.68,5.76
			c-0.15,0.34-0.27,0.81-0.18,1.15c0.16,0.62,0.49,1.19,0.76,1.81c0.89-0.93,0.99-1.1,1.18-2.08c0.79-4.13,0.31-8.12-1.15-11.99
			C308.44,44.54,308.35,43.99,307.82,43.89z M238.99,46.58c0.53,0.07,0.56-0.44,0.71-0.77c1.04-2.34,2.18-4.6,3.56-6.72
			c1.08-1.67,2.08-3.41,3.1-5.12c0.23-0.38,0.58-0.74,0.2-1.34c-1.87,0.85-3.2,2.35-4.28,4.12c-1.19,1.94-2,4.08-2.7,6.27
			c-0.37,1.16-0.63,2.35-0.55,3.6c-0.3,0.35-0.37,0.73-0.18,1.26C239.24,47.39,239.21,46.99,238.99,46.58z M208.62,71.71
			c0.17-0.18,0.39-0.33,0.51-0.54c0.92-1.57,1.43-3.33,1.84-5.13c0.55-2.39,0.78-4.84,1.07-7.28c0.48-4.07,1.07-8.13,1.55-12.2
			c0.11-0.97,0.29-1.88,0.67-2.76c0.83-1.99,1.8-3.93,2.42-6c0.57-1.86,1.41-3.52,2.48-5.02c2.07-2.91,3.89-6.06,6.63-8.34
			c0.15-0.12,0.46-0.3,0.22-0.63c-0.13,0.01-0.28-0.02-0.36,0.04c-2.32,1.87-4.35,4.07-6.18,6.51c-0.87,1.17-1.5,2.51-2.26,3.75
			c-1.69,2.76-2.63,5.88-3.85,8.86c-0.58,1.42-0.87,2.99-1.44,4.42c-0.68,1.72-1,3.5-1.15,5.35c-0.27,3.4-0.37,6.8-0.6,10.2
			c-0.15,2.23-0.24,4.5-1.17,6.6c-0.28,0.64-0.24,1.46-0.34,2.2c-0.09,0.05-0.21,0.09-0.26,0.17c-0.03,0.04,0.08,0.18,0.12,0.27
			c0.04-0.05,0.1-0.09,0.1-0.14C208.64,71.94,208.63,71.82,208.62,71.71z M184.36,221.51c-0.76,0.03-0.79,0.8-1,1.29
			c-1.37,3.24-2.13,6.69-2.94,10.13c-0.42,1.78-0.57,3.64-0.95,5.43c-0.67,3.15-0.95,6.33-0.85,9.55c0.02,0.54-0.03,1.1,0.04,1.63
			c0.37,2.76,0.74,5.52,1.3,8.26c0.84,4.1,2.28,7.92,4.01,11.64c0.22,0.46,0.54,0.87,0.84,1.34c0.1-0.17,0.17-0.23,0.16-0.28
			c-0.23-1.2-0.46-2.4-0.72-3.58c-0.55-2.46-1.16-4.89-1.66-7.36c-0.34-1.67-0.68-3.35-0.78-5.05c-0.23-4.09-0.68-8.16-0.59-12.28
			c0.07-3.08,0.19-6.16,0.74-9.18c0.4-2.14,0.99-4.23,1.43-6.36c0.36-1.73,0.62-3.48,0.91-5.23c0.15-0.25,0.38-0.48-0.07-0.98
			C184.3,220.96,184.33,221.24,184.36,221.51z M266.07,32.43c-0.08-0.11-0.16-0.23-0.23-0.34c-0.43,0.23-0.88,0.43-1.3,0.69
			c-0.32,0.2-0.62,0.46-0.91,0.72c-1.44,1.32-2.75,2.77-4,4.31c-1.89,2.32-3.39,4.91-4.91,7.5c-0.3,0.51-0.5,1.1-0.71,1.67
			c-1.1,2.98-2.07,6.01-2.61,9.19c-0.04,0.27-0.15,0.52-0.22,0.78c-0.77,2.6-1.54,5.2-2.32,7.8c-0.12,0.39-0.23,0.78-0.4,1.15
			c-1.83,3.99-3.88,7.83-6.85,10.97c-1.35,1.43-2.73,2.81-4.08,4.24c-2.26,2.39-4.88,4.28-7.5,6.12c-2.84,1.99-5.81,3.75-8.7,5.65
			c-3.89,2.55-7.32,5.72-10.41,9.34c-2.59,3.04-4.42,6.63-6.01,10.36c-1.16,2.71-2.22,5.49-3.07,8.35
			c-0.51,1.68-1.12,3.34-1.55,5.04c-0.51,2.05-0.63,4.18-0.65,6.3c0,0.08,0.14,0.16,0.32,0.34c0.22-0.61,0.51-1.14,0.61-1.71
			c0.32-1.76,0.92-3.39,1.62-5.01c0.87-2.03,1.56-4.15,2.52-6.14c1.31-2.72,2.8-5.32,4.37-7.86c1.01-1.64,2.07-3.26,3.23-4.77
			c1.7-2.19,3.47-4.31,5.29-6.38c1.34-1.53,2.79-2.94,4.23-4.36c0.55-0.55,1.2-0.98,1.81-1.46c2.08-1.64,4.13-3.33,6.26-4.89
			c2.07-1.52,4.25-2.88,6.35-4.36c1.11-0.77,2.2-1.58,3.23-2.47c1.42-1.24,2.71-2.64,4.14-3.86c2.32-1.98,3.87-4.61,5.48-7.23
			c1.1-1.8,1.75-3.76,2.29-5.8c0.69-2.62,1.41-5.24,2.13-7.86c0.22-0.79,0.52-1.54,0.69-2.34c0.61-2.81,1.65-5.46,2.65-8.1
			c1.6-4.25,4.03-8.02,6.27-11.88c0.26-0.45,0.68-0.8,1-1.21C264.79,34.08,265.43,33.25,266.07,32.43z M228.57,74.52
			c-1.33,0.49-2.54,1.19-3.68,2.01c-2.13,1.54-4.12,3.3-6.52,4.37c-0.34,0.15-0.62,0.46-0.93,0.69c-1.09,0.8-2.17,1.6-3.27,2.38
			c-2.1,1.49-4.22,2.93-6.3,4.44c-1.76,1.28-3.55,2.51-5.11,4.13c-1.17,1.22-2.48,2.27-3.75,3.36c-0.85,0.73-1.48,1.66-2.05,2.65
			c-0.63,1.09-1.26,2.19-1.88,3.28c-0.33,0.58-0.69,1.15-0.96,1.76c-1.59,3.48-3.13,6.99-4.74,10.46c-1.37,2.97-1.93,6.2-2.53,9.4
			c-0.45,2.4-0.65,4.85-0.96,7.28c-0.14,1.15-0.34,2.3-0.39,3.46c-0.09,2.04-0.02,4.09-0.15,6.12c-0.17,2.55,0.33,5.03,0.54,7.54
			c0.12,1.48,0.46,2.94,0.73,4.4c0.05,0.26,0.07,0.69,0.56,0.65c-0.04-3.55-0.08-7.1-0.1-10.65c-0.01-1.23-0.08-2.48,0.11-3.68
			c0.48-3.03,1.07-6.03,1.65-9.04c0.36-1.87,0.81-3.72,1.16-5.59c0.58-3.09,1.31-6.15,2.33-9.07c1.38-3.95,3.11-7.76,5.27-11.3
			c1.28-2.1,2.64-4.14,4.14-6.08c1.13-1.47,2.34-2.82,3.57-4.18c1.55-1.71,3.23-3.18,5.07-4.48c1.68-1.19,3.27-2.53,4.94-3.72
			c2.98-2.13,6.01-4.18,8.98-6.32C225.93,77.62,227.47,76.34,228.57,74.52z M230.81,188.25c-0.12,0.04-0.23,0.08-0.35,0.12
			c0,0.4-0.03,0.81,0.01,1.21c0.18,2.11,0.45,4.21,0.57,6.32c0.2,3.55,0.52,7.09,0.07,10.65c-0.18,1.42-0.38,2.85-0.44,4.28
			c-0.13,3.39-0.99,6.59-1.87,9.8c-0.69,2.49-1.4,4.96-2.1,7.45c-0.13,0.46-0.29,0.91-0.37,1.38c-0.4,2.56-1.21,5.01-1.59,7.58
			c-0.58,3.91-1.46,7.77-1.98,11.69c-0.6,4.53-1.01,9.1-1.38,13.66c-0.32,3.89-0.21,7.79,0.34,11.66c0.05,0.35-0.04,0.84,0.58,0.98
			c0.07-0.32,0.18-0.62,0.21-0.94c0.28-3.13,0.63-6.25,0.81-9.39c0.29-5.05,0.56-10.11,1.17-15.13c0.29-2.37,0.45-4.79,0.97-7.1
			c1.67-7.43,3.55-14.81,5.61-22.13c0.57-2.02,1.1-4.06,1.57-6.12c0.99-4.34,1.44-8.75,1.25-13.22c-0.04-0.82-0.15-1.63-0.26-2.44
			c-0.38-2.93-1.36-5.69-2.07-8.52C231.4,189.42,231.06,188.84,230.81,188.25z M213.41,265.18c0.12,0,0.24-0.01,0.36-0.01
			c0.05-0.25,0.13-0.49,0.14-0.74c0.03-0.61,0.08-1.23,0.03-1.85c-0.13-1.91-0.07-3.83-0.08-5.74c-0.01-4.99,1.06-9.77,2.14-14.56
			c0.24-1.05,0.7-2.03,0.87-3.12c0.22-1.49,0.73-2.89,1.22-4.3c0.46-1.34,0.75-2.75,1.12-4.12c0.16-0.59,0.3-1.18,0.49-1.75
			c0.43-1.28,0.94-2.54,1.31-3.84c0.6-2.09,1.13-4.2,1.65-6.31c0.3-1.25,0.54-2.53,0.75-3.81c0.18-1.08,0.24-2.17,0.43-3.25
			c0.74-4.19,1.09-8.4,0.67-12.65c-0.11-1.16-0.11-2.33-0.31-3.47c-0.5-2.82-1.05-5.61-1.92-8.34c-0.93-2.91-1.88-5.8-3.14-8.55
			c-0.21-0.46-0.29-1.06-0.91-1.27c-0.04,0.65,0.05,1.23,0.32,1.79c0.23,0.48,0.43,1,0.54,1.52c0.56,2.66,1.2,5.3,1.88,7.93
			c0.8,3.08,1.42,6.22,1.96,9.36c0.28,1.6,0.38,3.28,0.26,4.9c-0.21,2.79-0.62,5.56-1,8.33c-0.31,2.23-0.92,4.39-1.55,6.54
			c-0.88,2.99-1.71,6.01-2.45,9.04c-0.71,2.91-1.47,5.8-2.43,8.62c-0.28,0.83-0.7,1.6-1,2.42c-0.81,2.16-1.19,4.46-1.62,6.73
			c-0.62,3.22-0.77,6.51-0.86,9.8c-0.07,2.75,0.37,5.44,0.56,8.16C212.87,263.5,213.2,264.33,213.41,265.18z M193.74,161.67
			c0.18,2.16,0.3,4.13,0.52,6.09c0.27,2.44,0.49,4.89,0.95,7.29c0.56,2.97,0.78,5.93,0.58,8.96c-0.09,1.37-0.18,2.72-0.48,4.05
			c-0.24,1.06-0.48,2.12-0.72,3.18c-0.64,2.85-1.42,5.65-2.59,8.31c-0.32,0.73-0.52,1.53-0.77,2.3c-0.91,2.77-1.29,5.68-1.91,8.53
			c-0.08,0.38-0.09,0.78-0.17,1.5c0.43-0.44,0.69-0.62,0.84-0.87c1.93-3.27,3.63-6.69,4.97-10.3c0.05-0.13,0.1-0.25,0.13-0.38
			c0.63-2.57,1.31-5.12,1.88-7.7c0.35-1.59,0.71-3.21,0.77-4.83c0.13-3.88,0.24-7.78-0.52-11.63c-0.21-1.06-0.25-2.15-0.57-3.2
			c-0.38-1.22-0.67-2.48-0.96-3.74C195.11,166.75,194.8,164.2,193.74,161.67z M249.17,79.98c-0.3,0.41-0.61,0.82-0.91,1.24
			c-0.34,0.48-0.69,0.96-1.02,1.46c-0.88,1.37-2.15,2.25-3.31,3.29c-2.9,2.62-6.07,4.81-9.28,6.92c-4.17,2.75-8.36,5.44-11.98,9.07
			c-1.7,1.7-3.44,3.34-4.92,5.29c-0.6,0.79-1.31,1.46-1.91,2.24c-0.68,0.89-1.3,1.83-1.94,2.75c-0.45,0.65-0.93,1.27-1.34,1.95
			c-0.61,1.02-1.1,2.15-1.77,3.12c-1.17,1.7-2.01,3.6-2.85,5.5c-0.08,0.17-0.34,0.45,0.03,0.63c0.58-0.27,0.73-0.9,1.03-1.41
			c1.11-1.9,2.16-3.84,3.37-5.67c1.21-1.82,2.57-3.53,3.88-5.27c1.39-1.85,2.83-3.65,4.54-5.16c0.92-0.81,1.89-1.59,2.71-2.52
			c1.54-1.76,3.49-2.89,5.32-4.16c3.31-2.31,6.79-4.34,10.16-6.56c1.72-1.13,3.33-2.44,4.65-4.12c1.46-1.87,2.93-3.73,4.36-5.63
			C248.6,82.14,249.16,81.23,249.17,79.98z M232.21,33.32c-0.1-0.07-0.2-0.15-0.29-0.22c-0.25,0.28-0.53,0.55-0.76,0.85
			c-1.36,1.81-2.39,3.83-3.36,5.91c-2.06,4.4-3.7,8.97-4.73,13.8c-1.12,5.27-2.4,10.47-4.55,15.38c-0.4,0.92-0.69,1.88-0.77,3.09
			c0.45-0.28,0.8-0.42,1.07-0.67c1.12-1.01,2-2.26,2.72-3.63c1.21-2.32,2.24-4.74,2.93-7.32c0.26-0.98,0.53-1.97,0.84-2.94
			c0.66-2.08,1.09-4.19,1.33-6.38c0.34-3.05,0.75-6.11,1.77-9c0.95-2.68,1.99-5.32,3.3-7.82C231.89,34.03,232.05,33.67,232.21,33.32
			z M196.26,211.74c0.24-0.06,0.4-0.05,0.44-0.12c1.13-1.73,2.14-3.55,2.78-5.56c0.7-2.19,1.32-4.42,1.86-6.67
			c0.83-3.44,1.52-6.91,1.64-10.49c0.1-2.81,0.19-5.59-0.19-8.4c-0.27-1.96-0.4-3.93-1.09-5.8c-0.3-0.81-0.46-1.72-0.53-2.6
			c-0.26-3.06-0.66-6.1-1.03-9.14c-0.66-5.36-1.41-10.7-2.32-16.01c-0.05-0.28,0.05-0.7-0.5-0.74c-0.37,0.95-0.43,1.96-0.37,2.97
			c0.09,1.5,0.36,3.01,0.26,4.49c-0.09,1.34,0.11,2.59,0.32,3.86c0.37,2.21,0.58,4.45,1.2,6.62c0.62,2.14,0.93,4.38,1.47,6.55
			c0.66,2.64,1.14,5.32,1.42,8.03c0.34,3.2,0.3,6.42,0.23,9.63c-0.02,0.75-0.13,1.5-0.29,2.23c-0.84,3.79-1.67,7.58-2.58,11.35
			c-0.59,2.44-1.2,4.88-2.12,7.22C196.57,209.94,196.47,210.83,196.26,211.74z M228.35,272.93c0.06-0.39,0.13-0.59,0.12-0.77
			c-0.08-2.53-0.22-5.06-0.24-7.59c-0.01-1.22,0.2-2.45,0.36-3.66c0.29-2.16,0.56-4.34,0.95-6.48c0.49-2.75,1.07-5.48,1.66-8.21
			c0.37-1.73,0.84-3.43,1.26-5.15c0.32-1.32,0.58-2.66,0.92-3.98c0.64-2.5,1.42-4.96,1.96-7.49c1.17-5.53,2.02-11.13,2.56-16.79
			c0.06-0.65,0.01-1.31,0.01-2.07c-0.51,0.42-0.56,0.9-0.65,1.36c-0.64,3.13-1.2,6.28-1.94,9.38c-0.86,3.63-1.8,7.25-2.84,10.83
			c-1.13,3.92-1.86,7.93-2.66,11.93c-0.15,0.73-0.14,1.5-0.29,2.23c-0.57,2.74-0.93,5.51-1.09,8.31c-0.06,1.09-0.18,2.18-0.38,3.26
			c-0.72,3.92-0.59,7.89-0.5,11.85c0.02,0.75,0.19,1.49,0.33,2.23C227.95,272.35,228.14,272.55,228.35,272.93z M175.4,237.88
			c0.4-0.96,0.57-1.89,0.61-2.86c0.11-2.62,0.69-5.14,1.35-7.63c1.79-6.7,4.14-13.18,6.65-19.59c0.51-1.32,1.18-2.57,1.6-3.92
			c0.92-2.97,1.74-5.99,2.57-8.99c0.16-0.58,0.2-1.21,0.25-1.82c0.02-0.21,0.11-0.57-0.36-0.6c-0.12,0.18-0.31,0.37-0.38,0.61
			c-0.58,2.09-1.66,3.99-2,6.18c-0.03,0.2-0.08,0.42-0.18,0.58c-1.07,1.71-1.63,3.68-2.42,5.53c-1.29,3.03-2.47,6.12-3.7,9.18
			c-0.48,1.19-0.6,2.52-1.02,3.71c-0.89,2.57-1.43,5.22-2,7.88c-0.28,1.33-0.59,2.66-0.79,4c-0.24,1.62-0.45,3.25-0.54,4.88
			C174.98,235.93,174.89,236.92,175.4,237.88z M216.64,60.36c0.39-1.07,0.67-1.67,0.83-2.31c0.51-2.11,0.96-4.24,1.45-6.35
			c0.23-0.99,0.49-1.97,0.77-2.95c0.31-1.11,0.72-2.19,0.96-3.32c0.33-1.54,0.77-3.03,1.4-4.44c0.95-2.15,1.86-4.35,3.08-6.32
			c1.82-2.93,3.7-5.83,5.87-8.49c0.16-0.2,0.32-0.42,0.03-0.66c-0.06,0.01-0.14,0.01-0.19,0.04c-3.14,2.31-5.57,5.43-8.06,8.47
			c-0.08,0.1-0.13,0.23-0.19,0.35c-1.37,2.61-2.42,5.39-3.56,8.12c-0.43,1.04-0.7,2.2-0.89,3.33c-0.43,2.61-0.8,5.23-1.13,7.85
			c-0.19,1.48-0.13,2.99-0.45,4.46C216.44,58.7,216.59,59.31,216.64,60.36z M281.68,78.39c0.47-0.62,0.44-1.2,0.43-1.69
			c-0.05-2.12,0.11-4.22,0.22-6.34c0.18-3.28,0.96-6.29,2.76-8.97c1.7-2.53,3.7-4.56,6.39-5.82c3.75-1.75,7.31-1.29,10.77,0.84
			c0.53,0.32,0.97,0.85,1.38,1.35c1.1,1.34,1.79,2.92,2.15,4.92c0.75-1.38,0.76-2.57,0.11-3.66c-0.58-0.96-1.23-1.95-2.04-2.65
			c-1.67-1.44-3.64-2.43-5.65-3.1c-2-0.66-4.08-0.39-6.06,0.43c-0.81,0.34-1.66,0.66-2.37,1.18c-1.3,0.94-2.55,1.96-3.74,3.06
			c-2.64,2.44-4.12,5.57-4.57,9.34c-0.4,3.35-0.07,6.68-0.02,10.02C281.45,77.61,281.57,77.91,281.68,78.39z M218.69,144.55
			c-0.54,0.05-0.61,0.4-0.66,0.73c-0.43,2.56-0.83,5.1-0.67,7.73c0.2,3.27,0.22,6.55,1.11,9.73c1.16,4.13,2.61,8.12,4.48,11.92
			c1.48,3.01,2.96,6.02,4.45,9.02c0.07,0.14,0.23,0.23,0.56,0.57c-0.11-0.62-0.11-0.95-0.22-1.24c-1.05-2.78-2.13-5.54-3.17-8.32
			c-1.06-2.85-2.59-5.47-3.43-8.42c-0.41-1.43-0.74-2.89-1.11-4.34c-1.02-4.05-1.48-8.17-1.39-12.37c0.02-1.09,0.14-2.18,0.16-3.27
			C218.81,145.71,218.73,145.13,218.69,144.55z M267.46,10.76c0.38,0.2,0.58,0.39,0.79,0.4c0.56,0.03,1.13,0.04,1.68-0.06
			c3.06-0.55,6.12-0.28,9.15,0.15c2.29,0.32,4.55,0.88,6.81,1.41c1.03,0.24,2.17,0.46,3,1.09c1.26,0.96,2.75,1.66,3.59,3.21
			c0.37,0.69,1,0.8,1.65,0.61c0.41-0.12,0.79-0.36,1.27-0.6c-0.22-0.42-0.34-0.84-0.59-1.09c-1.4-1.38-2.92-2.57-4.73-3.27
			c-1.29-0.5-2.59-1.02-3.84-1.63c-1.33-0.65-2.75-0.95-4.16-1.16c-1.73-0.26-3.48-0.32-5.22-0.49
			C273.71,9.03,270.67,9.66,267.46,10.76z M279.36,35.32c0.11-0.03,0.25-0.01,0.32-0.08c1.67-1.7,3.79-2.65,5.73-3.86
			c2.56-1.6,5.36-2.59,8.28-3.17c1.41-0.28,2.82-0.6,4.23-0.9c0.31-0.06,0.62-0.15,0.93-0.14c3.12,0.1,6.23,0.33,9.23,1.41
			c0.65,0.23,1.35,0.36,1.94,0.72c2.3,1.37,4.6,2.77,6.43,4.9c0.67,0.78,1.38,1.52,2.12,2.33c-0.28-1.32-0.48-1.79-1.02-2.33
			c-0.92-0.92-1.8-1.91-2.8-2.7c-1.3-1.03-2.6-2.03-4.15-2.71c-1.87-0.81-3.89-1.02-5.69-1.98c-0.16-0.08-0.37-0.04-0.55-0.07
			c-2.53-0.46-5.09-0.43-7.64-0.33c-0.99,0.04-2,0.14-2.95,0.41c-1.63,0.47-3.2,1.13-4.82,1.66c-1.51,0.49-2.82,1.48-4.27,2.09
			C282.43,31.51,280.86,33.31,279.36,35.32z M247.73,247.19c-2.43-3.25-3.31-7.12-4.44-10.88c-1.14-3.76-1.44-7.66-1.8-11.58
			c-0.21,1.34-0.4,2.68-0.46,4.03c-0.15,3.58,0.32,7.1,1.03,10.58c0.48,2.35,1.1,4.63,2.26,6.71c0.53,0.95,1.17,1.77,2.22,2.3
			C246.92,247.99,247.32,247.59,247.73,247.19z M187.03,251.83c0.07-1.34,0.15-2.68,0.22-4.03c0.06-1.16,0.03-2.33,0.18-3.48
			c0.4-3.03,0.85-6.05,1.35-9.06c0.32-1.94,0.68-3.87,1.57-5.63c0.3-0.59,0.49-1.25,0.71-1.89c0.67-1.98,1.34-3.95,2.32-5.79
			c0.49-0.92,0.8-1.98,0.76-3.18c-0.2,0.14-0.4,0.21-0.48,0.35c-0.91,1.63-1.93,3.21-2.66,4.93c-0.89,2.1-1.54,4.32-2.29,6.49
			c-1.14,3.29-1.52,6.75-1.94,10.2c-0.27,2.23-0.43,4.47-0.62,6.72C186.04,248.96,186.32,250.41,187.03,251.83z M282.95,1.16
			c0.78,0.63,1.49,0.85,2.24,0.87c1.59,0.05,3.07,0.62,4.55,1.16c0.89,0.33,1.77,0.69,2.65,1.03c2.95,1.15,5.8,2.53,8.36,4.55
			c1.94,1.54,3.65,3.32,4.8,5.66c0.35,0.71,0.59,1.48,0.87,2.2c1.09-0.22,1.31-0.43,1.11-1.17c-0.16-0.58-0.3-1.24-0.65-1.68
			c-1.31-1.65-2.47-3.46-4.12-4.75c-2.86-2.22-5.75-4.34-9.02-5.83c-2.58-1.18-5.25-1.76-7.99-2.04
			C284.87,1.09,284,1.16,282.95,1.16z M246.54,222.03c-0.12,0.04-0.24,0.07-0.36,0.11c-0.03,0.33-0.11,0.67-0.08,1
			c0.12,1.7,0.21,3.4,0.41,5.09c0.32,2.77,0.84,5.5,1.7,8.15c0.46,1.42,1.15,2.67,2.07,3.87c-0.18-1.26-0.06-2.51-0.32-3.75
			c-0.28-1.33-0.46-2.68-0.69-4.02c-0.37-2.14-0.72-4.29-1.11-6.42c-0.11-0.59-0.33-1.17-0.56-1.73
			C247.28,223.54,246.9,222.79,246.54,222.03z M231.47,58.65c0.17-0.2,0.41-0.35,0.47-0.57c0.49-1.54,1.06-3.07,1.4-4.66
			c0.55-2.59,0.91-5.22,1.41-7.82c0.53-2.79,0.86-5.66,2.26-8.17c0.09-0.17,0.04-0.43,0.08-0.93c-1.15,1.32-1.9,2.57-2.35,4
			c-0.44,1.41-0.8,2.86-1.1,4.31c-0.42,1.98-1.04,3.92-1.01,5.99c0.01,0.46-0.2,0.92-0.28,1.39c-0.35,2.07-0.69,4.14-1.03,6.21
			C231.31,58.45,231.39,58.51,231.47,58.65z M301.8,16.43c-0.13-0.35-0.15-0.5-0.23-0.6c-2.16-2.72-4.75-4.88-7.7-6.4
			c-2.92-1.5-5.93-2.87-9.16-3.39c-1.66-0.27-3.35-0.32-5.03-0.45c-0.17-0.01-0.35,0.09-0.7,0.19c0.78,0.49,1.51,0.61,2.24,0.71
			c0.99,0.13,1.99,0.21,2.96,0.45c2.18,0.55,4.45,0.76,6.5,1.83c1.74,0.91,3.43,1.94,5.16,2.88c1.4,0.76,2.32,2.03,3.14,3.41
			c0.3,0.5,0.54,1.05,0.78,1.51C300.5,16.77,301.09,16.73,301.8,16.43z M232.81,177.69c-0.31-1.26-0.47-2.12-0.73-2.95
			c-0.56-1.82-1.46-3.46-2.34-5.11c-1.13-2.12-2.33-4.21-3-6.57c-0.55-1.95-1.04-3.92-1.55-5.88c-0.09-0.33-0.11-0.68-0.56-0.71
			c-0.05,0.18-0.15,0.37-0.14,0.56c0.1,2.34,0.97,4.5,1.3,6.78c0.01,0.06,0.05,0.12,0.08,0.19c1.29,2.72,2.37,5.55,3.79,8.2
			c0.66,1.23,1.26,2.51,1.82,3.8C231.73,176.56,232,177.07,232.81,177.69z M299.33,39.05c0.13,0.4,0.2,0.72,0.33,0.99
			c1.64,3.36,2.66,6.9,2.67,10.75c0,0.2,0.01,0.41,0.04,0.61c0.09,0.65,0.25,0.77,1.19,0.91c0.86-1.53,0.48-3.15,0.25-4.76
			c-0.33-2.31-0.81-4.55-2.21-6.43C300.48,39.59,300.41,39.5,299.33,39.05z M212.27,175.76c-0.1-1.26-0.63-2.31-1.09-3.41
			c-0.46-1.11-0.82-2.28-1.23-3.42c-0.41-1.14-0.87-2.26-1.25-3.41c-0.38-1.15-0.69-2.33-1.01-3.5c-0.32-1.18-0.55-2.38-0.92-3.54
			c-0.36-1.12-0.32-2.38-1.21-3.82c0.12,4.52,1.2,8.35,2.31,12.15C208.83,170.06,210.46,172.96,212.27,175.76z M313.77,62.56
			c1.27-0.95,2.12-2.15,2.45-3.86c0.56-2.93,0.43-5.83-0.05-8.73c-0.08-0.45-0.14-0.95-0.65-1.15c-0.43,0.52-0.31,1.16-0.25,1.72
			c0.25,2.47-0.19,4.9-0.39,7.33c-0.11,1.34-0.32,2.7-1.08,3.86C313.67,61.93,313.51,62.2,313.77,62.56z M287.66,52.28
			c0.15-0.09,0.22-0.11,0.26-0.16c0.08-0.1,0.17-0.21,0.2-0.34c0.65-2.94,0.51-5.83-0.43-8.68c-0.1-0.31-0.31-0.59-0.5-0.85
			c-0.17-0.24-0.72-0.06-0.76,0.25c-0.04,0.26-0.07,0.58,0.03,0.78c0.65,1.25,0.67,2.62,0.74,3.98c0.07,1.37,0.16,2.73,0.26,4.1
			C287.47,51.66,287.58,51.95,287.66,52.28z M233.87,251.35c0.29,2.85,0.68,5.28,2.05,7.4c1.06-0.57,1.15-0.7,0.9-1.5
			c-0.16-0.51-0.36-1.01-0.58-1.5c-0.55-1.22-1.11-2.43-1.69-3.64C234.44,251.91,234.24,251.76,233.87,251.35z M296.5,47.76
			c0.31-2.09-0.32-3.58-0.83-5.08c-0.4-1.16-0.42-1.15-1.38-1.98c0.44,1.29,0.83,2.34,1.16,3.41
			C295.79,45.19,296.08,46.29,296.5,47.76z M280.58,53.79c-0.08,1.26-0.27,2.16,0,3.09c0.15-0.07,0.32-0.08,0.36-0.17
			c0.12-0.29,0.28-0.61,0.27-0.92C281.2,55.23,281.3,54.6,280.58,53.79z M231.8,262.83c0.17-0.2,0.47-0.39,0.46-0.56
			c-0.05-0.76-0.19-1.52-0.96-2.04C231.09,261.23,231.08,262.05,231.8,262.83z M233.78,102.84c1.73-0.35,2.08-0.63,2.58-1.76
			C235.44,101.71,234.61,102.27,233.78,102.84z"/>
		<path d="M325.88,212.66c0.64,0.42,0.89,0.96,1.07,1.55c0.12,0.41-0.17,0.83-0.57,0.87c-0.06,0.01-0.13-0.01-0.19-0.01
			c-1,0.03-2.07-0.18-2.97,0.17c-0.89,0.35-1.58,1.29-2.4,1.91c-1.51,1.15-2.76,2.56-3.76,4.24c-0.14,0.23-0.3,0.44-0.43,0.67
			c-2.3,3.89-5.59,6.39-9.44,8.11c-0.74,0.33-1.56,0.46-2.35,0.66c-0.36,0.09-0.75,0.11-1.11,0.2c-3.15,0.8-6.35,0.73-9.53,0.53
			c-2.63-0.16-5.2-0.77-7.72-1.62c-1.71-0.57-3.05-1.83-4.51-2.89c-2.46-1.79-4.06-4.43-5.86-6.86c-1.4-1.9-3.19-3.25-4.86-4.78
			c-0.22-0.2-0.58-0.22-0.88-0.3c-0.54-0.15-1.09-0.3-1.74-0.47c-0.18,0.2-0.42,0.5-0.7,0.74c-0.12,0.1-0.37,0.12-0.5,0.04
			c-0.14-0.08-0.27-0.32-0.27-0.49c-0.01-0.26,0.05-0.56,0.17-0.78c0.4-0.73,0.93-1.27,1.74-1.34c1.39,1.21,1.68,1.33,2.84,1.31
			c0.98-0.02,1.85-0.35,2.59-1.05c0.52-0.49,1.05-0.99,1.5-1.55c0.72-0.89,1.61-1.54,2.57-2.02c1.77-0.87,3.58-1.64,5.54-1.85
			c2.12-0.23,4.24-0.37,6.38-0.27c1.03,0.05,1.93,0.33,2.77,1.04c2.63,2.23,5.44,2.89,9.14,0.05c1.39-1.06,2.99-1.37,4.61-1.44
			c1.94-0.09,3.88,0.19,5.76,0.7c2.64,0.71,5.02,2.06,7.22,3.82c0.5,0.4,0.99,0.84,1.51,1.21c0.36,0.26,0.76,0.49,1.16,0.66
			C324.03,213.98,324.67,213.82,325.88,212.66z M303.39,226.33c1.29-0.01,2.54-0.35,3.71-1.06c0.74-0.45,1.26-1.09,1.5-1.99
			c0.27-1-0.33-2.1-1.27-2.36c-0.6-0.16-1.19-0.32-1.8-0.43c-2.1-0.38-3.94,0.27-5.53,1.76c-0.27,0.26-0.47,0.63-0.66,0.97
			c-0.29,0.53-0.23,1.07,0.14,1.51c0.29,0.34,0.62,0.69,1,0.87C301.39,226.04,302.33,226.42,303.39,226.33z M287.34,208.93
			c-1.08,0.19-2.21,0.32-3.3,0.6c-0.6,0.15-1.17,0.49-1.71,0.83c-0.29,0.18-0.37,0.58-0.15,0.9c0.22,0.32,0.48,0.63,0.78,0.85
			c1.83,1.31,3.78,1.2,5.76,0.47c0.29-0.11,0.57-0.28,0.83-0.48c0.48-0.36,0.89-0.81,0.81-1.51c-0.08-0.7-0.6-1.05-1.13-1.24
			C288.63,209.13,288,209.07,287.34,208.93z M306.91,208.22c-0.24,0.06-0.88,0.12-1.42,0.4c-0.88,0.45-0.98,1.28-0.25,1.96
			c1.86,1.72,4.03,2.01,6.34,1.49c0.12-0.03,0.23-0.1,0.34-0.17c0.65-0.37,0.92-1.19,0.62-1.92c-0.33-0.8-0.87-1.34-1.7-1.42
			C309.66,208.46,308.47,208.36,306.91,208.22z M303.02,217.64c-0.91,0-1.53,0.01-2.14,0c-2.56-0.04-5.11-0.17-7.52-1.25
			c-0.34-0.15-0.73-0.24-1.1-0.23c-0.63,0.01-1.25,0.15-1.5,1c0.23,0.67,0.76,1.07,1.33,1.32c0.8,0.36,1.64,0.74,2.49,0.85
			c2.24,0.31,4.48,0.21,6.69-0.37C301.85,218.79,302.46,218.62,303.02,217.64z M287.5,223.67c1.15,0.02,2.44-0.35,3.33-0.88
			c0.63-0.37,0.93-1.21,0.63-1.91c-0.33-0.79-0.85-1.37-1.71-1.35c-1.06,0.02-2.13,0.09-3.12,0.56c-0.39,0.19-0.79,0.42-1.1,0.74
			c-0.82,0.84-0.63,2,0.42,2.46C286.52,223.53,287.16,223.59,287.5,223.67z"/>
		<path d="M247.31,146.61c-2.31-0.61-4.23-2.05-6-3.68c-2.77-2.56-4.77-5.78-5.88-9.58c-0.26-0.91-0.71-1.35-1.48-1.64
			c-1.06-0.39-2.11-0.86-3.16-1.3c-0.32-0.13-0.32-0.14-0.89-1.12c0.28-0.02,0.51-0.11,0.71-0.05c1.14,0.34,2.28,0.73,3.42,1.07
			c0.54,0.16,1.09,0.28,1.65,0.33c1.81,0.15,3.62,0.29,5.43,0.37c1.19,0.05,2.37,0.01,3.56,0c1.19-0.01,2.38-0.03,3.56-0.06
			c1.25-0.03,2.5-0.09,3.75-0.13c0.19-0.01,0.38-0.02,0.56-0.01c4.61,0.41,9.24,0.52,13.73,2.01c3.66,1.21,7.25,2.56,10.72,4.32
			c0.4,0.2,0.79,0.42,1.17,0.65c1.26,0.75,2.52,1.5,3.77,2.28c0.25,0.16,0.52,0.4,0.64,0.67c0.08,0.18-0.03,0.53-0.15,0.74
			c-0.06,0.1-0.37,0.13-0.5,0.05c-0.61-0.35-1.17-0.79-1.78-1.13c-0.81-0.46-1.6-1-2.63-1.13c0.09,0.9,0.65,1.3,0.98,1.85
			c0.31,0.51,0.66,1,0.88,1.56c0.34,0.89,0.01,1.62-0.84,1.94c-0.35,0.13-0.73,0.19-1.1,0.21c-0.5,0.03-1,0.03-1.5,0
			c-2.04-0.12-3.96,0.46-5.86,1.15c-1.66,0.61-3.32,1.27-5.07,1.45c-5.01,0.53-9.99,0.67-14.8-1.41c-1.97-0.86-4.04-1.48-5.83-2.77
			c-1.3-0.94-2.55-1.96-3.82-2.96c-0.4-0.32-0.77-0.68-1.16-1.02c-0.43,0.5-0.04,0.81,0.16,1.07c1.7,2.25,3.79,3.95,6.19,5.21
			c0.55,0.29,1.22,0.37,1.5,1.09L247.31,146.61z M270.16,135.95c-0.14,0.28-0.28,0.5-0.36,0.75c-0.89,2.87-2.92,4.51-5.28,5.77
			c-1.47,0.78-2.99,0.86-4.56,0.33c-2.28-0.77-3.88-2.42-5.13-4.54c-0.85-1.45-1.32-3.05-1.33-4.9c-0.72-0.05-1.34-0.17-1.95-0.14
			c-3.06,0.16-6.12,0.29-9.18,0.1c-1.62-0.1-3.22-0.43-4.83-0.64c-0.3-0.04-0.6-0.01-0.91-0.01c-0.14,0.81,0.29,1.35,0.61,1.91
			c1.89,3.34,4.59,5.74,7.63,7.71c2.66,1.72,5.64,2.57,8.59,3.45c0.96,0.29,1.96,0.39,2.95,0.55c2.56,0.41,5.11,0.23,7.67-0.01
			c2.34-0.22,4.56-0.87,6.62-2.09c0.98-0.58,1.93-1.31,2.69-2.18c0.93-1.07,1.88-2.21,2.11-3.74c-0.47-0.97-1.41-0.92-2.11-1.31
			C272.41,136.41,271.33,136.04,270.16,135.95z M257.71,135.06c-0.67,0.99-0.61,2.03-0.38,3.1c0.21,0.97,0.6,1.79,1.43,2.29
			c0.38,0.23,0.72,0.54,1.12,0.74c1.94,1.01,4.07,0.66,5.51-1.06c0.85-1.01,1.4-2.28,1.15-3.74c-0.05-0.28-0.29-0.51-0.45-0.8
			c-0.63,0.92-1.1,1.81-1.75,2.51c-1.63,1.74-4.71,1.23-5.83-0.93C258.18,136.53,257.99,135.81,257.71,135.06z M278.61,143.52
			c-0.44-1.53-1.24-2.42-2.15-3.21c-0.98,0.81-1.88,2.12-2.32,3.4C275.58,143.52,277,143.94,278.61,143.52z M262.1,134.76
			c0.02,0.68,0.63,1.26,1.27,1.19c0.6-0.07,1.07-0.66,0.99-1.24c-0.07-0.52-0.63-0.93-1.28-0.95
			C262.57,133.73,262.09,134.24,262.1,134.76z"/>
		<path d="M256.12,115.52c0.12-0.23,0.23-0.47,0.37-0.74c1.11,0.44,2.11,1.08,3.11,1.78c0.92,0.64,1.73,1.56,2.94,1.76
			c-0.31-1.14-0.31-1.14-2.33-3.18c1.17,0.28,1.72,0.61,3.14,1.92c2.13,1.96,2.13,1.96,2.94,1.85c-0.56-1.52-2.07-2.15-2.71-3.57
			c1.27,0.56,2.21,1.34,3.04,2.48c0.39,0.53,0.79,1.06,1.21,1.57c0.62,0.75,1.27,1.48,1.88,2.18c0.45-0.18,0.33-0.45,0.19-0.66
			c-0.78-1.15-1.58-2.29-2.35-3.45c-0.31-0.47-0.56-1-0.67-1.64c0.55,0.6,1.18,1.14,1.65,1.81c1.98,2.8,3.92,5.65,5.86,8.48
			c0.03,0.04-0.01,0.13-0.03,0.34c-0.22-0.05-0.46-0.04-0.65-0.15c-2.12-1.17-4.18-2.47-6.35-3.52c-2.05-0.99-4.19-1.82-6.34-2.54
			c-2.51-0.84-5.11-1.29-7.74-1.32c-1.75-0.02-3.51-0.07-5.26,0.02c-1.93,0.1-3.86,0.31-5.79,0.55c-1.49,0.18-2.96,0.5-4.44,0.72
			c-2.43,0.35-4.73,1.26-7.08,1.99c-0.66,0.2-1.27,0.57-1.93,0.8c-0.33,0.12-0.69,0.1-1.32,0.17c0.36-0.5,0.51-0.8,0.74-0.99
			c1.04-0.89,2.1-1.7,3.33-2.28c1.49-0.7,2.92-1.54,4.4-2.26c1.25-0.61,2.52-1.2,3.83-1.66c1-0.35,2.06-0.53,3.11-0.71
			c1.35-0.24,2.71-0.46,4.08-0.6c1.49-0.15,2.98-0.37,4.49-0.09c0.86,0.16,1.74,0.17,2.62,0.22c0.76,0.04,1.5,0.13,2.08,0.75
			c0.04-0.04,0.08-0.09,0.13-0.11c0.03-0.01,0.08,0.03,0.12,0.05C256.29,115.5,256.21,115.51,256.12,115.52z"/>
		<path d="M257.53,241.89c1.1,1.3,2.15,2.65,3.31,3.89c2.51,2.67,5.03,5.33,7.63,7.89c1.1,1.08,2.39,1.98,3.67,2.81
			c2.42,1.56,4.9,2.99,7.34,4.52c3.44,2.16,7.14,3.59,10.9,4.86c1.42,0.48,2.8,1.06,4.54,1.73c-1.54,0.34-2.68-0.01-3.75-0.36
			c-4.25-1.41-8.42-3-12.33-5.4c-1.96-1.2-3.98-2.28-5.88-3.61c-1.69-1.18-3.37-2.36-4.84-3.86c-0.55-0.56-1.18-1.01-1.77-1.51
			c-1.99-1.68-3.69-3.68-5.33-5.75c-0.74-0.93-1.51-1.82-2.23-2.77c-0.55-0.73-1.15-1.46-1.22-2.48
			C257.57,241.84,257.53,241.89,257.53,241.89z"/>
		<path d="M287.76,192.08c-0.78,0.36-1.34,0.67-1.93,0.86c-0.4,0.13-0.85,0.14-1.27,0.12c-0.4-0.02-0.68-0.29-0.79-0.74
			c-0.1-0.46,0.07-0.81,0.35-1.09c0.18-0.18,0.42-0.32,0.65-0.39c0.66-0.2,1.32-0.38,1.99-0.53c0.64-0.14,1.18,0.06,1.73,0.52
			c0.94,0.79,1.92,1.53,2.95,2.17c2.03,1.27,4.24,2.09,6.58,2.11c3.51,0.04,6.81-0.76,9.54-3.44c0.58-0.57,1.37-0.93,2.12-1.25
			c0.87-0.38,1.72-0.07,2.5,0.45c0.39,0.27,0.61,1.03,0.42,1.46c-0.18,0.4-0.5,0.62-0.91,0.6c-0.94-0.03-1.88-0.01-2.8-0.16
			c-0.63-0.1-1.1,0.05-1.55,0.46c-2.41,2.24-5.3,2.89-8.35,3.04c-2.63,0.13-5.06-0.68-7.37-1.95
			C290.32,193.61,289.07,192.84,287.76,192.08z"/>
		<path d="M278.37,119.41c0.95,0.95,1.5,2.17,2.04,3.4c0.5,1.15,1.07,2.28,1.78,3.77c0.12-0.91,0.18-1.41,0.29-2.27
			c0.43,1.46,0.76,2.59,1.09,3.71c1.22,0.16,1.35,0.2,1.95,0.99c2,2.62,3.07,5.59,2.85,9.05c-0.07,1.14-0.12,2.28-0.19,3.58
			c-0.52-0.96-0.44-1.86-0.46-2.73c-0.03-1.72-0.32-3.38-0.83-5.01c-0.45-1.45-1.23-2.68-2.02-3.91c-0.27-0.42-0.6-0.88-1.3-0.85
			c0,0.64,0.04,1.25-0.03,1.84c-0.02,0.14-0.38,0.36-0.56,0.34c-0.53-0.06-0.86-0.5-1.14-0.97c-0.61-1.03-1.27-2.04-1.81-3.11
			c-1.36-2.66-2.68-5.36-4.1-8.22c0.99,0.7,1,0.7,2.04,2.66c0.56,1.06,1.09,2.14,1.68,3.19c0.54,0.96,0.79,2.14,1.91,2.93
			C280.79,124.73,279.22,122.24,278.37,119.41z"/>
		<path d="M283.19,196.2c-1.6,0.13-2.94-0.47-4.05-1.64c-2.57-2.71-3.15-7.09-1.46-10.59c0.52-1.09,1.04-2.18,1.59-3.26
			c0.18-0.35,0.43-0.66,0.68-0.96c0.06-0.07,0.28-0.11,0.33-0.06c0.12,0.13,0.27,0.35,0.24,0.48c-0.07,0.32-0.23,0.63-0.37,0.93
			c-0.61,1.27-1.27,2.52-1.82,3.82c-1.06,2.48-0.86,4.93,0.36,7.27c0.8,1.54,1.91,2.68,3.59,3.04
			C282.67,195.32,283.17,195.45,283.19,196.2z"/>
		<path d="M307.67,130.15c0.34,0.53,0.11,1.07-0.1,1.52c-1.03,2.26-1.18,4.71-1.37,7.16c-0.07,0.86-0.2,1.72-0.52,2.57
			c-0.1-1.49-0.23-2.98-0.29-4.47c-0.08-2.25,0.64-4.28,1.52-6.26c0.08-0.17,0.23-0.32,0.38-0.44
			C307.39,130.17,307.53,130.18,307.67,130.15z"/>
		<path d="M280.33,129.61c-0.22,0.02-0.4,0.08-0.44,0.03c-2.46-3.41-4.73-6.97-6.35-11.03c0.2,0.19,0.44,0.36,0.59,0.59
			c0.52,0.77,1.02,1.55,1.51,2.34c1.11,1.81,2.21,3.63,3.31,5.45c0.21,0.34,0.41,0.68,0.59,1.04
			C279.81,128.53,280.06,129.05,280.33,129.61z"/>
		<path d="M269.55,116.04c2.64,3.71,5.04,7.56,7.73,11.48c-0.46,0-0.63,0.05-0.67-0.01C273.85,123.98,271.27,120.31,269.55,116.04z"
			/>
		<path d="M294.88,200.13c0.36,0.98,0.43,1.76,0.33,2.59c-0.09,0.74-0.06,1.5-0.13,2.24c-0.16,1.7,0.67,2.69,1.96,3.35
			c0.37,0.19,0.78,0.32,1.17,0.48c-0.22,0.56-0.63,0.51-0.98,0.44c-1.53-0.3-2.81-1.84-2.87-3.57c-0.04-1.15,0.11-2.31,0.21-3.46
			C294.63,201.59,294.75,200.99,294.88,200.13z"/>
		<path d="M247.27,146.66c0.77-0.12,1.29,0.28,1.67,0.97l0.02-0.01c-0.55-0.34-1.1-0.67-1.65-1
			C247.31,146.61,247.27,146.66,247.27,146.66z"/>
		<path d="M248.94,147.63c0.6-0.2,1.16-0.19,1.64,0.32l0.04-0.02c-0.54-0.11-1.09-0.21-1.65-0.31
			C248.96,147.61,248.94,147.63,248.94,147.63z"/>
		<polygon points="282.17,123 282.12,123.08 282.12,122.92 		"/>
		<path d="M252.29,148.46c0.03-0.04,0.05-0.11,0.07-0.11c0.1,0.02,0.21,0.05,0.31,0.08c-0.02,0.04-0.05,0.12-0.07,0.12
			C252.5,148.53,252.4,148.49,252.29,148.46z"/>
		<path d="M250.58,147.95c0.1-0.02,0.2-0.03,0.29-0.05c-0.03,0.01-0.06,0.03-0.09,0.03c-0.05,0-0.1-0.01-0.15-0.01
			C250.62,147.92,250.58,147.95,250.58,147.95z"/>
	</g>
	<text transform="matrix(1 0 0 1 192.5952 406.4301)"><tspan x="0" y="0" class="st5 st6">DAY</tspan><tspan x="51.77" y="74.53" class="st5 st6">1</tspan></text>
</g>
</svg>
