<?xml version="1.0" encoding="utf-8"?>
<!-- Generator: Adobe Illustrator 26.4.1, SVG Export Plug-In . SVG Version: 6.00 Build 0)  -->
<svg version="1.1" xmlns="http://www.w3.org/2000/svg" xmlns:xlink="http://www.w3.org/1999/xlink" x="0px" y="0px"
	 viewBox="0 0 504 504" style="enable-background:new 0 0 504 504;" xml:space="preserve">
<style type="text/css">
	.st0{display:none;}
	.st1{display:inline;fill:#85D0CB;}
	.st2{display:inline;}
	.st3{fill:#FFFFFF;}
	.st4{fill:none;stroke:#000000;stroke-linecap:round;stroke-linejoin:round;stroke-miterlimit:10;}
	.st5{font-family:'CarolGothic';}
	.st6{font-size:60.0333px;}
</style>
<g id="Layer_2" class="st0">
</g>
<g id="Layer_2_copy" class="st0">
</g>
<g id="Layer_1" class="st0">
</g>
<g id="Layer_3">
</g>
<g id="Layer_4">
</g>
<g id="Layer_1_copy">
</g>
<g id="Layer_6">
	<g>
		<path d="M226.49,249.69c0.37,0.15,0.78,0.24,1.11,0.45c1.36,0.91,2.7,1.85,4.05,2.78c0.11,0.08,0.22,0.17,0.34,0.23
			c4.67,2.56,9.35,5.1,14.59,6.34c0.73,0.17,1.46,0.35,2.16,0.6c2.96,1.09,6.04,1.65,9.12,2.24c0.66,0.13,1.36,0.07,2.04,0.1
			c0.33,0.01,0.65,0.04,0.93,0.06c0.14,0.46-0.05,0.64-0.36,0.63c-1.7-0.05-3.4,0-5.07-0.49c-1.1-0.33-2.27-0.44-3.38-0.74
			c-2.63-0.72-5.27-1.41-7.86-2.27c-3.43-1.15-6.75-2.63-9.89-4.41c-2.54-1.44-4.88-3.24-7.3-4.9c-0.2-0.14-0.29-0.44-0.43-0.67
			L226.49,249.69z"/>
		<g>
			<path d="M238.68,224.46c0.44,2.07,0.88,4.13,1.32,6.2c0.38,1.8,0.77,3.6,1.14,5.4c0.12,0.6,0.24,1.21,0.32,1.81
				c0.28,2.1,0.52,4.2,0.83,6.29c0.41,2.76,0.95,5.51,1.29,8.28c0.42,3.39,0.7,6.79,1.04,10.18c0.21,2.1,0.43,4.2,0.64,6.31
				c0.03,0.27,0.04,0.55-0.02,0.81c-0.04,0.17-0.28,0.44-0.34,0.42c-0.22-0.08-0.49-0.23-0.57-0.42c-0.12-0.31-0.14-0.67-0.13-1.01
				c0.12-3.71-0.67-7.33-0.97-11c-0.32-3.94-0.91-7.86-1.7-11.74c-0.31-1.53-0.41-3.11-0.64-4.66c-0.07-0.43-0.29-0.83-0.51-1.46
				c-0.35,0.45-0.56,0.71-0.75,0.97c-0.45,0.6-0.84,1.25-1.35,1.8c-2.2,2.33-4.41,4.65-6.91,6.67c-1.12,0.9-2.35,1.63-3.45,2.51
				c-2.02,1.62-4.09,3.16-6.15,4.72c-2.06,1.56-3.95,3.34-5.96,4.98c-0.59,0.48-0.86,1.04-0.92,1.74c-0.12,1.43-0.27,2.86-0.31,4.29
				c-0.05,1.84-0.05,3.69,0.02,5.53c0.12,3,0.27,6,0.49,8.99c0.07,1.01,0.41,2,0.59,3.01c0.43,2.36,1.2,4.61,2.2,6.79
				c0.94,2.04,1.72,4.15,2.58,6.23c0.08,0.19,0.16,0.38,0.27,0.55c1.39,2.26,2.55,4.67,4.32,6.69c1.12,1.28,2.12,2.67,3.17,4.01
				c0.97,1.24,1.94,2.47,3.41,3.18c0.36,0.17,0.66,0.48,0.97,0.75c2.8,2.34,6.01,3.98,9.36,5.35c0.56,0.23,1.16,0.33,1.73,0.49
				c0.07,0.41-0.18,0.53-0.45,0.52c-0.95-0.02-1.93,0.04-2.84-0.15c-1.8-0.38-3.58-0.88-5.35-1.4c-0.58-0.17-1.11-0.5-1.65-0.79
				c-0.72-0.38-1.43-0.79-2.35-1.3c0.06,0.43,0.01,0.7,0.13,0.87c0.31,0.44,0.64,0.89,1.05,1.25c2.5,2.21,5.03,4.4,7.54,6.59
				c0.15,0.13,0.31,0.27,0.49,0.37c2.83,1.57,4.73,4.08,6.64,6.58c1.93,2.51,2.69,5.45,3.21,8.5c-0.48,0.08-0.48-0.26-0.59-0.47
				c-1.01-1.95-2.35-3.68-3.77-5.33c-1.61-1.86-3.4-3.54-5.42-4.95c-0.72-0.5-1.49-0.95-2.23-1.42c-0.34-0.21-0.67-0.43-0.99-0.67
				c-0.16-0.12-0.28-0.3-0.45-0.42c-2.8-1.94-5.6-3.88-8.42-5.79c-0.5-0.34-1.07-0.56-1.59-0.83c-0.41,0.39-0.17,0.72-0.05,0.99
				c0.43,0.92,0.9,1.84,1.39,2.73c0.91,1.68,1.85,3.34,2.77,5.01c0.13,0.23,0.19,0.49,0.28,0.72c-0.39,0.36-0.55,0-0.66-0.17
				c-1.76-2.76-4.12-5.11-5.63-8.04c-0.15-0.3-0.36-0.59-0.59-0.83c-2.42-2.59-4.46-5.5-6.98-8.03c-1.68-1.69-3.35-3.39-5.12-4.99
				c-0.86-0.78-1.69-1.58-2.19-2.67c-0.14-0.3-0.37-0.58-0.6-0.82c-3.72-3.99-6.2-8.79-8.88-13.47c-1.27-2.21-1.96-4.65-2.98-6.96
				c-1.71-3.88-2.83-7.97-3.95-12.05c-0.98-3.56-1.55-7.2-1.77-10.89c-0.09-1.43-0.24-2.86-0.2-4.28c0.04-1.56,0.27-3.12,0.42-4.67
				c0.03-0.34,0.12-0.67,0.12-1.01c0.03-3.77,0.77-7.45,1.46-11.14c0.58-3.09,1.62-6.06,2.24-9.12c0.53-2.62,1.4-5.13,2.21-7.66
				c1.11-3.45,2.09-6.93,2.88-10.46c0.69-3.08,0.74-6.22,0.86-9.36c0.12-3.3-0.49-6.53-0.64-9.8c-0.01-0.18-0.14-0.36-0.2-0.5
				c-0.46-0.12-0.48,0.21-0.57,0.44c-0.39,1.09-0.74,2.2-1.18,3.27c-1.25,3.04-2.75,5.94-4.68,8.61c-1.16,1.6-2.22,3.27-3.32,4.92
				c-2.31,3.46-4.66,6.9-6.91,10.39c-1.22,1.9-2.03,4-2.63,6.19c-1.27,4.58-1.76,9.25-1.57,13.98c0.14,3.34,0.59,6.66,1.14,9.96
				c0.44,2.62,0.86,5.25,1.23,7.89c0.17,1.21,0.21,2.45,0.28,3.67c0.12,1.98,0.24,3.95,0.32,5.93c0.17,3.92-0.44,7.75-1.29,11.56
				c-0.6,2.68-1.75,5.16-2.78,7.67c-0.4,0.99-1.2,1.8-1.74,2.74c-2.77,4.9-4.81,10.07-5.72,15.66c-0.34,2.12-0.21,4.22-0.19,6.33
				c0.02,1.29,0.29,1.64,1.49,3.16c-0.19,0.15-0.4,0.44-0.58,0.43c-0.38-0.02-0.9-0.07-1.11-0.33c-0.97-1.14-1.88-2.34-2.28-3.83
				c-0.11-0.4-0.22-0.79-0.26-1.2c-0.27-2.65-0.74-5.29-0.73-7.94c0.01-2.29,0.14-4.65,0.88-6.88c0.77-2.33,1.61-4.64,2.42-6.95
				c0.43-1.21,1.02-2.39,0.78-3.75c-0.04-0.24,0.1-0.53,0.21-0.78c1.62-3.53,1.87-7.24,1.46-11.03c-0.28-2.58-0.66-5.14-0.91-7.72
				c-0.13-1.37-0.34-2.71-0.74-4.02c-0.08-0.26-0.09-0.56-0.23-0.78c-1.11-1.71-1.46-3.66-1.83-5.6c-0.35-1.82-0.9-3.56-1.64-5.26
				c-0.49-1.12-0.83-2.31-1.23-3.47c-0.67-1.93-1.41-3.85-1.97-5.81c-0.56-1.96-0.93-3.98-1.36-5.98c-0.16-0.73-0.27-1.47-0.41-2.21
				c-0.25-1.34-0.72-2.68-0.7-4.02c0.02-1.37-0.11-2.72-0.09-4.08c0.03-1.91,0.11-3.82,0.33-5.72c0.2-1.69,0.62-3.34,0.93-5.02
				c0.62-3.29,1.66-6.46,2.68-9.64c0.06-0.19,0.1-0.4,0.19-0.58c1.31-2.7,2.64-5.39,3.94-8.09c0.86-1.78,1.7-3.57,2.54-5.35
				c0.67-1.42,1.25-2.89,2.01-4.26c1.63-2.95,2.69-6.12,3.57-9.34c0.75-2.76,1.22-5.59,1.43-8.46c0.16-2.31,0.28-4.63,0.06-6.94
				c-0.2-2.03-0.4-4.07-0.6-6.1c-0.02-0.2-0.03-0.41-0.09-0.61c-0.77-2.35-0.83-4.82-1.33-7.21c-0.33-1.59-0.78-3.16-0.97-4.78
				c-0.13-1.15-0.31-2.28-0.24-3.45c0.06-1.07-0.11-2.17-0.29-3.24c-0.48-2.84-0.49-5.7-0.38-8.56c0.09-2.59,0.17-5.18,0.33-7.76
				c0.16-2.52,0.45-5.02,1.37-7.41c0.29-0.76,0.45-1.57,0.69-2.36c0.43-1.36,0.34-2.7-0.16-4.01c-0.5-1.29-0.69-2.63-0.81-4
				c-0.41-4.73-0.06-9.41,0.76-14.06c0.13-0.74,0.24-1.48,0.32-2.22c0.26-2.33,1.01-4.56,1.95-6.65c1.58-3.54,3.23-7.06,5.2-10.42
				c2.23-3.79,5.28-6.75,8.87-9.18c2.95-2,5.71-4.2,7.93-7.01c0.59-0.74,1.1-1.57,1.48-2.44c1-2.31,2.02-4.62,2.83-7.01
				c0.92-2.72,2.16-5.29,3.38-7.88c1.47-3.13,3.89-5.4,6.61-7.4c1.82-1.33,3.97-1.76,6.15-2.05c0.33-0.05,0.67-0.06,1.09-0.1
				c0.27-0.46,0.57-0.9,0.81-1.38c0.99-2.03,2.1-3.96,3.66-5.63c1.21-1.29,2.25-2.74,3.39-4.09c1.39-1.65,3.18-2.81,5.03-3.82
				c2.39-1.3,4.85-2.5,7.53-3.13c1.45-0.34,2.93-0.57,4.41-0.82c0.87-0.15,1.75-0.29,2.64-0.33c1.85-0.08,3.69,0.06,5.47,0.61
				c2.02,0.62,4.03,1.28,6,2.03c1.1,0.42,2,0.43,3.06-0.2c1.46-0.86,3.08-1.46,4.63-2.17c1.05-0.48,2.15-0.88,3.15-1.45
				c1.61-0.91,3.3-1.6,5.01-2.3c3.81-1.55,7.73-2.11,11.8-2.03c3.44,0.06,6.77,0.82,10.1,1.52c1.93,0.4,3.8,1.06,5.7,1.62
				c0.45,0.14,0.91,0.33,1.3,0.59c2.45,1.6,5.01,3.1,6.93,5.37c1.01,1.19,1.8,2.56,2.63,3.88c0.76,1.21,1.42,2.49,2.16,3.72
				c0.64,1.06,1.23,2.13,1.45,3.36c0.17,0.93,0.69,1.59,1.55,2.03c0.67,0.34,1.27,0.81,1.94,1.14c1.93,0.94,3.57,2.27,5.11,3.73
				c2.97,2.83,5.75,5.84,8.09,9.22c1.25,1.81,2.13,3.79,2.8,5.9c1.36,4.29,1.41,8.61,0.32,12.92c-0.4,1.57-1.14,3.07-1.87,4.53
				c-0.91,1.85-2.52,3.01-4.33,3.91c-2.64,1.31-5.35,2.04-8.29,1.15c-0.69-0.21-1.28-0.15-1.91,0.32c-1.87,1.38-2.07,1.38-4.43,0.67
				c-0.37,0.26-0.86,0.52-1.23,0.9c-0.62,0.65-1.33,0.9-2.21,0.81c-1.08-0.11-2,0.19-2.75,1.02c-0.32,0.35-0.73,0.61-1.13,0.88
				c-0.82,0.55-1.89,0.52-2.66-0.1c-0.32-0.26-0.63-0.54-0.85-0.88c-0.89-1.37-1.77-2.75-2.27-4.34c-0.57-1.8-2.14-2.55-3.83-1.77
				c-2.21,1.02-3.54,2.75-3.66,5.24c-0.11,2.41,0.37,4.77,0.92,7.09c0.36,1.54,0.58,3.07,0.74,4.63c0.27,2.74-0.37,5.3-1.29,7.8
				c-0.95,2.59-2.37,4.94-4.42,6.81c-2.03,1.85-4.32,3.33-7.04,4c-2.71,0.67-5.45,1.26-8.15,1.97c-1.91,0.5-3.8,1.08-5.67,1.71
				c-1.63,0.55-3.14,1.38-4.34,2.63c-0.49,0.52-1.01,0.45-1.66,0.41c0.58-0.56,1.13-1.17,1.75-1.69c2.85-2.38,5.96-4.31,9.53-5.44
				c1.23-0.39,2.45-0.86,3.59-1.45c1.34-0.69,2.47-1.71,3.49-2.82c2.16-2.39,4.1-4.9,5.25-7.98c0.74-1.98,0.94-3.96,0.74-6.03
				c-0.21-2.2-0.91-4.28-1.75-6.29c-1.28-3.04-1.49-6.22-1.48-9.43c0.01-1.07,0.35-2.15,0.6-3.21c0.15-0.65,0.49-1.26,0.34-2.06
				c-1.08-0.1-2.15-0.2-3.27-0.31c-0.44,0.27-0.9,0.56-1.37,0.83c-2.03,1.13-3.51,0.8-4.94-1.09c-0.16-0.21-0.35-0.39-0.65-0.71
				c-0.33,0.73-0.68,1.32-0.87,1.96c-1.11,3.73-2.53,7.35-4.02,10.94c-0.29,0.69-0.57,1.4-0.77,2.12c-0.22,0.8-0.55,1.53-0.98,2.23
				c-0.32,0.52-0.54,1.1-0.81,1.65c-0.41,0.86-0.74,1.77-1.24,2.57c-1.18,1.91-2.44,3.76-3.67,5.64c-1.76,2.7-3.84,5.13-5.96,7.54
				c-1.27,1.45-2.72,2.69-4.37,3.68c-2.05,1.22-4.15,2.36-6.21,3.57c-1.23,0.72-2.41,1.53-3.63,2.28c-0.41,0.25-0.82,0.52-1.27,0.65
				c-2.65,0.74-5.03,2.11-7.57,3.1c-2.16,0.84-4.3,1.71-6.44,2.6c-2.71,1.14-5.29,2.53-7.84,3.99c-0.18,0.1-0.35,0.22-0.49,0.37
				c-2.04,2.01-4.21,3.89-5.97,6.18c-0.79,1.03-1.17,2.1-1.04,3.41c0.28,2.98,0.14,5.98,0.65,8.95c0.34,2.01,0.36,4.08,0.68,6.1
				c0.38,2.42,0.95,4.82,1.41,7.23c0.31,1.67,0.63,3.35,0.84,5.04c0.4,3.19,1.2,6.29,2.1,9.37c1,3.41,2.3,6.68,3.92,9.87
				c1.36,2.68,2.74,5.33,4.3,7.9c0.25,0.4,0.54,0.78,0.84,1.15c0.86,1.06,1.74,2.1,2.58,3.17c0.14,0.18,0.14,0.5,0.13,0.76
				c-0.01,0.28-0.41,0.46-0.62,0.3c-0.16-0.12-0.35-0.23-0.46-0.39c-1.36-1.88-2.71-3.76-4.07-5.64c-1.29-1.78-2.2-3.76-3.09-5.76
				c-0.5-1.11-1.05-2.18-1.82-3.36c-0.13,0.32-0.25,0.48-0.23,0.62c0.33,1.95,0.7,3.89,1.02,5.84c0.5,3.03,1.17,6.03,1.9,9.01
				c0.84,3.45,1.46,6.95,2.37,10.37c1.13,4.22,1.78,8.54,3.17,12.7c0.9,2.71,1.59,5.5,2.64,8.17c1.22,3.11,2.35,6.26,3.73,9.3
				c1.95,4.28,3.99,8.53,6.61,12.46c0.41,0.62,0.9,1.2,1.34,1.8c0.36,0.49,0.77,0.97,1.05,1.5c1.12,2.13,2.58,4.01,4.12,5.84
				c1.36,1.62,2.63,3.32,4.04,4.9c1.31,1.47,2.75,2.83,4.13,4.24c0.57,0.58,1.12,1.18,1.71,1.81c-0.56,0.23-0.72-0.24-0.94-0.46
				c-2.35-2.38-4.78-4.69-6.99-7.19c-2.48-2.81-4.98-5.61-6.96-8.83c-1.14-1.86-2.51-3.58-3.63-5.45c-1.36-2.28-2.56-4.66-3.83-6.99
				c-0.26-0.47-0.41-1.05-1.12-1.02c0.01-0.13,0.01-0.24,0.02-0.36C238.69,224.23,238.68,224.34,238.68,224.46z M242.57,94.77
				c-0.2,0-0.4-0.03-0.59,0c-0.05,0.01-0.08,0.18-0.11,0.27c0.07,0.01,0.15,0.05,0.2,0.02c0.16-0.1,0.31-0.23,0.46-0.34
				c0.12,0,0.26,0.03,0.37,0c0.1-0.03,0.17-0.13,0.25-0.2c-0.11-0.05-0.27-0.16-0.31-0.13C242.72,94.48,242.66,94.63,242.57,94.77z
				 M296.09,59.38c0.45,0.19,0.56-0.15,0.71-0.44c0.02-0.05,0.01-0.17-0.01-0.17c-0.11-0.02-0.29-0.07-0.32-0.03
				c-0.13,0.21-0.23,0.45-0.33,0.68c-0.08,0.15-0.15,0.3-0.22,0.45c0,0.01,0.08,0.05,0.12,0.08
				C296.07,59.76,296.08,59.57,296.09,59.38z M252.34,89.78c-1.2,0.2-2.16,0.79-3.09,1.9c1.75-0.62,2.18-0.87,3.06-1.75
				c0.03-0.03,0-0.13,0-0.19c0.41-0.02,0.82-0.05,1.23-0.07c0.89-0.71,1.75-1.45,2.67-2.12c0.59-0.43,1.05-0.95,1.41-1.59
				c-1.04,0.62-2.01,1.32-2.96,2.04c-0.43,0.33-0.83,0.69-1.24,1.03c0.05,0.24,0.09,0.44,0.13,0.64
				C253.13,89.63,252.69,89.25,252.34,89.78z M272.91,59.96c-0.25,0.2-0.6,0.36-0.72,0.62c-1.53,3.12-3.11,6.21-4.5,9.39
				c-1.64,3.74-3.05,7.58-5.77,10.74c-0.44,0.51-0.72,1.16-1.07,1.74c-0.13,0.22-0.31,0.44,0.05,0.65c0.16-0.12,0.36-0.21,0.48-0.36
				c2.79-3.44,5.42-7,7.5-10.93c0.73-1.38,1.44-2.81,1.89-4.29c0.42-1.37,0.97-2.68,1.42-4.03c0.38-1.15,0.77-2.32,0.66-3.57
				c0.04-0.1,0.07-0.19,0.11-0.29C272.95,59.73,272.93,59.85,272.91,59.96z M236.35,22.56c-1.55,0.62-2.65,1.85-3.92,2.87
				c-2.86,2.31-5.01,5.21-7.02,8.21c-1.29,1.92-2.43,3.97-3.34,6.08c-0.95,2.18-1.94,4.34-2.86,6.53c-0.03,0.06-0.04,0.13-0.07,0.19
				c-0.88,2.58-1.77,5.15-2.63,7.74c-0.09,0.27-0.05,0.58-0.11,1.32c0.5-0.68,0.77-0.98,0.96-1.33c0.74-1.38,1.5-2.75,2.18-4.16
				c0.62-1.29,1.33-2.58,1.64-3.95c0.4-1.77,1.63-3.13,2.06-4.85c1.87-3.25,3.73-6.5,5.63-9.73c0.45-0.76,0.97-1.49,1.54-2.16
				c1.72-2.02,3.37-4.11,5.46-5.78c0.3-0.24,0.65-0.54,0.44-1.03c0.94-0.26,0.94-0.26,1.42-1C237.04,21.6,236.73,22.13,236.35,22.56
				z M229.33,57.74c0.57,0.23,0.94-0.15,1.22-0.5c0.56-0.68,1-1.46,1.55-2.16c1.69-2.14,3.1-4.44,4.39-6.85
				c0.64-1.19,1.29-2.38,1.92-3.58c0.66-1.25,1-2.67,2.01-3.76c0.3-0.32,0.43-0.86,0.49-1.32c0.24-1.85,0.84-3.58,1.76-5.2
				c0.13-0.23,0.24-0.49-0.14-0.75c-0.19,0.1-0.45,0.18-0.65,0.34c-0.47,0.39-0.97,0.76-1.37,1.22c-1.42,1.65-2.91,3.26-4.16,5.04
				c-1.01,1.43-1.84,3.03-2.49,4.66c-0.85,2.15-1.42,4.4-2.14,6.6c-0.32,0.97-0.69,1.91-1.05,2.87c-0.43,1.14-0.87,2.28-1.29,3.42
				c-0.02,0.1-0.4,0.17-0.03,0.32C229.34,57.98,229.34,57.86,229.33,57.74z M235.69,96.95c-0.34,0.2-0.66,0.47-1.03,0.6
				c-1.41,0.49-2.88,0.84-4.25,1.42c-1.94,0.83-3.86,1.75-5.72,2.74c-6.39,3.42-11.79,8.09-16.65,13.42
				c-0.61,0.67-1.05,1.37-1.2,2.31c-0.1,0.63-0.5,1.26-0.88,1.8c-1.89,2.7-3.38,5.6-4.49,8.7c-0.88,2.44-1.72,4.89-2.58,7.33
				c-0.64,1.81-1.11,3.64-1.05,5.6c0.06,2.25-0.01,4.5,0,6.75c0,0.55,0.02,1.1,0.09,1.63c0.34,2.5,0.79,4.98,1.03,7.49
				c0.16,1.73,0.79,3.31,1.19,4.96c0.02,0.09,0.2,0.15,0.44,0.31c0.15-1.12,0.22-2.19,0.23-3.24c0.07-5.06,0.6-10.07,1.29-15.07
				c0.46-3.31,1.07-6.6,1.67-9.88c0.61-3.31,1.67-6.48,3.24-9.44c1.08-2.04,2.42-3.95,3.51-5.99c1.67-3.12,3.99-5.69,6.47-8.13
				c0.8-0.79,1.47-1.81,2.74-2.06c0.28-0.06,0.5-0.44,0.74-0.68c0.29-0.28,0.55-0.62,0.88-0.85c2.3-1.6,4.57-3.22,6.92-4.73
				c1.72-1.11,3.54-2.05,5.31-3.08c0.65-0.38,1.3-0.76,1.9-1.2C235.65,97.54,235.63,97.2,235.69,96.95c0.14,0.05,0.29,0.1,0.44,0.14
				c0-0.01,0.01-0.03,0.01-0.04C235.99,97.02,235.84,96.99,235.69,96.95z M293.35,29.58c-0.86-0.15-1.66,0.12-2.35,0.54
				c-1.86,1.13-4.15,1.42-5.8,2.97c-0.14,0.13-0.38,0.15-0.56,0.24c-1.41,0.68-2.87,1.28-4.21,2.08c-1.94,1.15-3.79,2.41-5.34,4.1
				c-0.97,1.05-2.1,1.95-3.1,2.97c-1.53,1.54-3.21,2.97-4.38,4.84c-1.33,2.14-2.68,4.27-3.89,6.48c-0.78,1.43-1.41,2.95-1.98,4.48
				c-0.9,2.43-1.66,4.9-2.54,7.34c-0.46,1.27-1.26,2.41-1.29,3.83c-0.01,0.32-0.25,0.63-0.39,0.94c-1.76,4.1-4.81,7.06-8.4,9.54
				c-2.41,1.66-5.11,2.89-7.39,4.76c-0.21,0.17-0.45,0.3-0.69,0.43c-1.3,0.73-2.63,1.42-3.91,2.19c-1.17,0.7-2.3,1.45-3.58,1.96
				c-2.02,0.82-4.01,1.72-5.7,3.16c-0.15,0.13-0.35,0.22-0.53,0.32c-3.79,2.07-7.15,4.76-10.54,7.41c-0.23,0.18-0.59,0.37-0.36,0.95
				c1.85-1,3.69-1.99,5.52-2.99c0.54-0.29,1.05-0.63,1.6-0.9c3.31-1.63,6.76-2.91,10.25-4.07c3.7-1.23,7.32-2.61,10.38-5.12
				c0.37-0.3,0.81-0.51,1.21-0.76c3.65-2.3,7.1-4.86,9.93-8.15c1.47-1.71,2.97-3.4,4.29-5.22c0.91-1.26,1.57-2.7,2.27-4.1
				c0.64-1.28,1.1-2.65,1.8-3.89c0.87-1.54,1.78-3.05,2.21-4.79c0.1-0.39,0.33-0.74,0.52-1.11c1.45-2.85,3.01-5.65,4.18-8.65
				c0.79-2.02,1.63-4.04,3.08-5.75c1.32-1.56,2.46-3.27,3.71-4.89c0.54-0.7,1.12-1.39,1.79-1.96c1.4-1.2,2.84-2.35,4.31-3.46
				c2.23-1.7,4.67-3.06,7.21-4.25c0.91-0.43,1.75-1,2.62-1.51c0.13,0,0.26,0.01,0.38-0.01c0.06-0.01,0.1-0.07,0.15-0.11
				c-0.1-0.05-0.24-0.15-0.3-0.12C293.45,29.33,293.41,29.48,293.35,29.58z M183.88,152.42c0.14,0,0.27-0.01,0.41-0.01
				c0.03-0.33,0.17-0.7,0.07-0.99c-0.37-1.06-0.26-2.16-0.35-3.24c-0.12-1.49-0.29-2.98-0.4-4.48c-0.05-0.68,0.02-1.36,0-2.04
				c-0.07-1.91-0.13-3.81-0.27-5.72c-0.08-1.15-0.38-2.28-0.45-3.43c-0.08-1.29-0.2-2.62,0.04-3.87c0.33-1.75,0.45-3.51,0.56-5.27
				c0.2-3.48,0.65-6.89,1.78-10.22c1.06-3.1,2.25-6.13,3.8-9.03c2.24-4.2,5.18-7.84,8.7-11.01c1.31-1.18,2.71-2.28,4.06-3.42
				c1.57-1.31,3.11-2.66,4.7-3.94c2.12-1.71,4.28-3.38,6.43-5.05c1.24-0.96,2.45-1.95,3.76-2.81c1.88-1.23,3.76-2.46,5.64-3.68
				c3.55-2.31,6.75-5.09,10.23-7.49c0.56-0.39,1.12-0.79,1.6-1.26c2.46-2.36,5.03-4.58,7.29-7.16c1.46-1.66,2.68-3.43,3.6-5.42
				c0.55-1.17,1.08-2.36,1.57-3.55c1.27-3.09,2.47-6.2,3.78-9.27c1.07-2.5,2.13-5.02,3.42-7.42c0.93-1.73,2.23-3.26,3.34-4.89
				c0.28-0.42,0.81-0.71,0.77-1.48c-0.31,0.09-0.58,0.11-0.77,0.24c-3.42,2.15-6.18,4.97-7.98,8.59c-1.3,2.62-2.4,5.35-3.37,8.12
				c-0.98,2.78-2.11,5.48-3.57,8.02c-1.49,2.6-3.06,5.19-4.89,7.55c-1.78,2.31-3.81,4.48-5.96,6.46c-3.27,3.01-7.24,5.09-10.9,7.56
				c-2.19,1.48-4.61,2.64-6.98,3.85c-4.17,2.13-7.84,4.93-11.26,8.09c-1.05,0.97-2.11,1.96-3.3,2.74c-1.67,1.11-3.07,2.48-4.41,3.93
				c-0.69,0.75-1.32,1.55-1.95,2.36c-1.68,2.15-3.43,4.25-4.7,6.69c-0.91,1.75-1.86,3.47-2.81,5.2c-0.36,0.65-0.86,1.25-1.1,1.94
				c-0.68,1.93-1.22,3.9-1.87,5.84c-0.68,2.03-0.82,4.14-0.99,6.24c-0.24,2.91-0.33,5.83-0.41,8.75c-0.05,1.84-0.04,3.68,0.08,5.52
				c0.11,1.69,0.41,3.38,0.63,5.06c0.19,1.48,0.35,2.98,0.61,4.45c0.33,1.95,0.76,3.88,1.12,5.82
				C183.34,150.35,183.6,151.38,183.88,152.42z M188.82,148.21c0.18-0.33,0.33-0.49,0.34-0.66c0.08-0.88,0.15-1.77,0.16-2.65
				c0.04-2.52,0.05-5.04,0.1-7.56c0.01-0.67,0.09-1.36,0.23-2.01c0.61-2.86,0.74-5.81,1.66-8.61c0.02-0.06,0-0.14,0.02-0.2
				c0.43-1.64,0.7-3.34,1.32-4.9c1.13-2.84,2.51-5.58,2.93-8.66c0.08-0.59,0.4-1.16,0.69-1.7c1.58-2.86,3-5.82,5.39-8.15
				c0.58-0.57,1.09-1.22,1.58-1.87c2.81-3.73,6.25-6.79,9.94-9.62c2.98-2.28,6.17-4.26,8.93-6.82c0.65-0.6,1.31-1.2,1.98-1.76
				c2.88-2.4,5.91-4.63,8.59-7.27c1.07-1.05,2.14-2.11,3.3-3.05c1.55-1.24,2.75-2.84,4.22-4.16c0.4-0.36,0.73-0.81,1.05-1.25
				c0.14-0.19,0.38-0.41,0.06-0.79c-0.2,0.1-0.46,0.17-0.64,0.32c-0.66,0.59-1.3,1.21-1.95,1.81c-0.94,0.88-1.78,1.95-2.86,2.61
				c-1.8,1.11-3.37,2.52-5.17,3.65c-1.6,1.01-3.21,2.04-4.79,3.1c-2.6,1.74-5.24,3.43-7.66,5.44c-1.67,1.39-3.59,2.48-5.07,4.1
				c-0.04,0.05-0.11,0.08-0.17,0.11c-1.54,0.69-2.61,1.94-3.78,3.09c-1.36,1.34-2.74,2.66-4.07,4.03c-2.09,2.14-4.22,4.25-6.22,6.48
				c-2.75,3.06-4.91,6.53-6.65,10.25c-1.56,3.35-2.68,6.86-3.37,10.49c-0.21,1.14-0.29,2.3-0.55,3.42
				c-0.32,1.41-0.44,2.82-0.48,4.25c-0.01,0.41,0.03,0.82-0.01,1.23c-0.27,2.85-0.38,5.71-0.04,8.56c0.07,0.61,0.02,1.23,0.06,1.84
				c0.04,0.68,0.11,1.36,0.16,2.04c0.07,0.88,0.16,1.76,0.2,2.64C188.32,146.7,188.38,147.41,188.82,148.21z M200.25,270.93
				c0.12-0.87,0.08-1.74-0.04-2.6c-0.36-2.52-0.35-5.02,0.03-7.54c0.43-2.9,0.92-5.8,1.22-8.71c0.37-3.6,0.92-7.17,1.87-10.66
				c0.74-2.69,1.5-5.38,2.29-8.06c0.68-2.28,1.46-4.53,1.97-6.86c0.32-1.46,0.7-2.91,1.1-4.35c0.66-2.36,1.19-4.75,2.01-7.07
				c0.92-2.59,1.08-5.34,1.6-8.01c0.37-1.89,0.47-3.78,0.32-5.7c-0.19-2.38-0.6-4.72-1.24-7.02c-0.07-0.24-0.19-0.46-0.37-0.86
				c-0.59,0.69-0.61,1.35-0.7,2c-0.36,2.7-0.72,5.4-1.13,8.1c-0.2,1.35-0.41,2.71-0.79,4.01c-0.8,2.75-0.98,5.64-1.87,8.37
				c-0.5,1.55-0.87,3.15-1.17,4.75c-0.43,2.33-1.56,4.51-1.41,6.96c0.02,0.32-0.14,0.66-0.24,0.99c-0.45,1.5-0.84,3.03-1.36,4.5
				c-1.06,2.96-1.29,6.13-2.39,9.08c-0.05,0.12-0.03,0.27-0.06,0.4c-0.23,1.06-0.5,2.12-0.69,3.19c-0.39,2.21-0.93,4.41-1.08,6.64
				c-0.2,2.99-0.1,5.99-0.11,8.99c-0.01,2.96,0.53,5.83,1.41,8.65C199.54,270.51,199.61,270.95,200.25,270.93z M217.09,155.6
				c-0.13-0.02-0.26-0.05-0.38-0.07c-0.09,0.31-0.25,0.61-0.26,0.92c-0.03,1.42-0.06,2.84-0.02,4.26c0.05,1.56,0.19,3.12,0.28,4.69
				c0.06,0.96,0.22,1.88,0.85,2.67c0.2,0.26,0.35,0.59,0.41,0.92c0.37,1.94,0.74,3.88,1.04,5.83c0.29,1.88,0.52,3.78,0.75,5.67
				c0.21,1.69,0.48,3.38,0.54,5.08c0.09,2.58,0.03,5.17,0.03,7.76c0,1.23,0.08,2.46-0.01,3.68c-0.13,1.7-0.35,3.39-0.6,5.07
				c-0.18,1.21-0.42,2.42-0.69,3.61c-0.4,1.79-0.88,3.57-1.27,5.37c-0.55,2.53-1.05,5.08-2.01,7.5c-0.48,1.2-0.9,2.43-1.32,3.65
				c-0.51,1.48-1.01,2.96-1.51,4.45c-0.88,2.65-1.82,5.28-2.62,7.95c-0.68,2.28-1.23,4.61-1.8,6.92c-0.49,1.98-1.22,3.89-1.38,5.96
				c-0.25,3.2-0.71,6.37-0.98,9.57c-0.25,2.99-0.47,5.99-0.52,8.98c-0.03,1.83,0.34,3.66,0.47,5.5c0.28,3.85,1.4,7.49,2.79,11.06
				c0.15,0.39,0.26,0.85,0.82,1.04c0.24-1.05-0.16-1.89-0.46-2.69c-0.66-1.73-0.83-3.57-1.3-5.34c-0.07-0.25-0.03-0.53-0.03-0.8
				c-0.01-0.67-0.01-1.35-0.02-2.02c0-0.81-0.02-1.63,0-2.44c0.02-0.54,0.19-1.09,0.16-1.63c-0.18-3.14-0.04-6.27,0.15-9.4
				c0.02-0.41,0.02-0.82,0-1.23c-0.08-2.61,0.45-5.15,0.87-7.7c0.11-0.67,0.26-1.33,0.4-2c0.21-1,0.41-1.99,0.64-2.98
				c0.09-0.4,0.29-0.77,0.35-1.17c0.41-2.41,0.88-4.81,1.7-7.13c0.16-0.44,0.14-0.94,0.22-1.41c0.08-0.54,0.13-1.09,0.27-1.61
				c0.98-3.54,1.96-7.08,2.98-10.61c0.32-1.11,0.79-2.18,1.11-3.29c0.89-3.07,1.69-6.17,2.62-9.23c1.06-3.47,1.58-7.04,2.18-10.6
				c0.06-0.34,0.09-0.68,0.1-1.02c0.02-2.25-0.01-4.5,0.04-6.75c0.06-2.81-0.44-5.56-0.61-8.35c-0.13-2.17-0.72-4.29-0.79-6.48
				c-0.04-1.49-0.28-2.98-0.54-4.45c-0.26-1.54-0.79-3.03-0.59-4.63c0.05-0.4-0.03-0.82-0.12-1.22c-0.59-2.59-0.45-5.31-1.37-7.84
				c-0.07-0.19-0.06-0.4-0.09-0.61C217.42,157.88,217.26,156.74,217.09,155.6z M189.96,157.91c-0.37,0.59-0.63,0.83-0.69,1.12
				c-0.16,0.73-0.25,1.48-0.34,2.22c-0.19,1.55-0.24,3.14-0.59,4.65c-0.41,1.78-0.74,3.58-1.36,5.33c-0.92,2.56-1.83,5.13-2.97,7.6
				c-1.05,2.29-2.19,4.53-3.39,6.75c-1.97,3.66-3.71,7.44-5.51,11.18c-0.92,1.9-1.81,3.81-2.65,5.75c-0.51,1.18-0.8,2.47-1.37,3.62
				c-1.36,2.79-1.86,5.83-2.64,8.78c-0.59,2.22-0.86,4.53-0.89,6.85c-0.01,0.92-0.18,1.85,0.16,2.97c0.31-0.31,0.57-0.45,0.64-0.66
				c0.13-0.38,0.16-0.79,0.23-1.2c0.4-2.28,0.64-4.6,1.23-6.83c0.56-2.1,1.35-4.16,2.29-6.12c1.4-2.94,2.94-5.82,4.57-8.63
				c1.3-2.23,2.17-4.69,3.8-6.73c0.25-0.31,0.34-0.74,0.53-1.1c0.31-0.6,0.64-1.2,0.97-1.79c0.23-0.41,0.51-0.81,0.71-1.23
				c1.02-2.08,1.93-4.21,3.06-6.23c1.2-2.15,2.36-4.29,3.09-6.65c0.08-0.26,0.17-0.52,0.3-0.76c0.97-1.75,1.46-3.66,1.87-5.59
				c0.14-0.66,0.23-1.36,0.18-2.03c-0.2-2.72-0.44-5.44-0.7-8.15C190.4,160.11,190.19,159.2,189.96,157.91z M212.86,127.44
				c-0.19,0.18-0.4,0.29-0.45,0.44c-0.59,1.74-1.28,3.46-1.71,5.25c-0.86,3.57-1.66,7.16-2.1,10.82c-0.09,0.74-0.1,1.5-0.24,2.24
				c-0.57,3.03-0.65,6.09-0.73,9.16c-0.1,3.77,0.58,7.46,1.1,11.17c0.46,3.31,1.64,6.46,2.62,9.65c0.21,0.68,0.5,1.37,1.27,2
				c0.11-1.23,0.04-2.23-0.1-3.23c-0.54-3.65-0.66-7.33-0.67-11.01c0-1.7,0.35-3.43,0.15-5.09c-0.32-2.69,0.24-5.29,0.39-7.93
				c0.12-2.03,0.43-4.06,0.52-6.09c0.15-3.33,0.09-6.68,0.29-10.01c0.14-2.26-0.06-4.49-0.13-6.74
				C213.08,127.87,212.96,127.7,212.86,127.44z M274.93,31.53c-0.66,0.31-0.89,0.39-1.09,0.52c-2.94,1.9-5.49,4.26-7.93,6.75
				c-1.76,1.8-3.4,3.72-5.15,5.54c-0.87,0.9-1.53,1.88-2,3.05c-0.86,2.15-1.99,4.16-3.26,6.11c-0.74,1.13-1.26,2.41-1.8,3.66
				c-0.85,1.93-1.57,3.91-2.47,5.82c-0.66,1.42-1.56,2.72-2.26,4.12c-0.99,1.97-2.3,3.73-3.76,5.33c-3.3,3.63-6.7,7.17-10.61,10.17
				c-0.28,0.21-0.69,0.45-0.43,1.06c0.32-0.12,0.64-0.19,0.92-0.35c1.24-0.71,2.52-1.36,3.68-2.19c2.93-2.09,5.85-4.18,8.5-6.67
				c4.4-4.12,7.3-9.09,9.13-14.77c0.61-1.88,1.24-3.76,1.95-5.6c0.42-1.08,0.96-2.12,1.55-3.11c1.46-2.46,2.95-4.91,4.5-7.31
				c0.85-1.31,1.75-2.62,2.82-3.75c2.29-2.42,4.37-5.06,6.95-7.21C274.39,32.51,274.5,32.19,274.93,31.53z M295.3,36.72
				c0.34,0.02,0.48,0.06,0.6,0.03c3.62-1.07,7.36-1.47,11.1-1.64c3.71-0.17,7.31,0.61,10.74,2.11c2.9,1.27,5.33,3.17,6.93,5.85
				c1.97,3.3,3.28,6.88,3.19,10.85c-0.03,1.34,0.11,2.68,0.35,4.09c0.29-0.12,0.56-0.14,0.63-0.27c0.68-1.18,1.28-2.4,1.45-3.79
				c0.44-3.73-0.02-7.36-1.34-10.86c-0.97-2.57-2.17-5.03-4.68-6.53c-0.11-0.07-0.21-0.18-0.3-0.28c-2.36-2.59-5.55-3.3-8.78-3.92
				c-0.86-0.16-1.76-0.34-2.62-0.25c-1.04,0.11-2.04-0.08-3.05-0.1c-0.87-0.01-1.77,0.06-2.62,0.25c-1.13,0.25-2.21,0.67-3.33,0.98
				C300.75,34.03,297.97,34.91,295.3,36.72z M255.82,42.7c0.47-0.52,0.65-0.69,0.8-0.9c2.27-3.16,4.77-6.12,7.39-8.98
				c1.47-1.6,3.05-3.11,4.58-4.66c0.19-0.19,0.4-0.39,0.64-0.5c1.37-0.65,2.54-1.56,3.65-2.59c0.3-0.27,0.65-0.5,1.02-0.68
				c2.54-1.31,5.08-2.6,7.62-3.9c0.23-0.12,0.43-0.31,0.75-0.55c-0.3-0.2-0.5-0.45-0.72-0.47c-2.11-0.14-4.22-0.2-6.22,0.62
				c-2.9,1.18-5.72,2.51-8.18,4.5c-3.74,3.04-6.88,6.62-9.17,10.86C256.87,37.54,255.92,39.75,255.82,42.7z M213.58,258.59
				c0.46-0.62,0.59-1.32,0.74-2.04c0.72-3.54,1.34-7.1,2.41-10.57c0.38-1.23,0.6-2.52,0.93-3.77c0.68-2.57,1.23-5.19,2.12-7.68
				c1.54-4.31,2.57-8.76,3.91-13.13c0.79-2.6,1.15-5.32,1.72-7.99c0.17-0.8,0.28-1.63,0.57-2.39c0.6-1.55,0.85-3.17,1.01-4.79
				c0.32-3.46,0.86-6.9,0.81-10.38c-0.03-2.25-0.26-4.49-0.42-6.73c-0.02-0.32-0.13-0.67-0.71-0.58c-0.04,0.73-0.11,1.47-0.1,2.21
				c0.01,2.53,0.02,5.05-0.45,7.55c-0.16,0.87-0.26,1.75-0.38,2.63c-0.39,2.77-0.71,5.54-1.18,8.29c-0.4,2.35-0.86,4.7-1.46,7
				c-1.34,5.15-2.79,10.27-4.18,15.4c-1.05,3.88-1.97,7.8-2.68,11.76c-0.29,1.61-0.67,3.2-1.03,4.79c-0.52,2.26-1.09,4.51-1.57,6.77
				C213.36,256.15,213.39,257.36,213.58,258.59z M216.75,65.25c0.23-0.1,0.51-0.14,0.69-0.3c0.55-0.51,1.09-1.03,1.59-1.59
				c1.32-1.47,2.55-3.01,3.61-4.68c0.51-0.8,1.12-1.54,1.6-2.36c0.59-1,1.11-2.03,1.61-3.08c0.44-0.92,0.85-1.85,1.22-2.8
				c0.75-1.89,1.28-3.85,1.84-5.8c0.65-2.26,1.59-4.49,3.03-6.43c0.97-1.31,1.94-2.63,2.92-3.93c2.05-2.72,4.06-5.47,6.83-7.54
				c0.19-0.14,0.51-0.3,0.22-0.63c-0.14,0.04-0.28,0.05-0.4,0.11c-0.86,0.42-1.6,0.99-2.33,1.63c-1.79,1.58-3.58,3.14-4.85,5.2
				c-0.18,0.29-0.41,0.54-0.64,0.79c-1.21,1.31-2.21,2.77-3.11,4.29c-1.01,1.69-2.02,3.39-2.94,5.13c-1.31,2.46-2.36,5.04-3.56,7.55
				c-0.91,1.9-1.7,3.85-2.75,5.69c-0.34,0.59-0.64,1.21-0.92,1.82c-0.62,1.37-1.38,2.66-2.33,3.83
				C217.38,63.02,216.94,64,216.75,65.25z M315,58.64c-0.03-0.61,0.01-0.82-0.06-0.99c-0.42-0.97-1.15-1.68-1.98-2.29
				c-3.65-2.66-7.67-3.62-12.17-2.97c-2.83,0.41-4.92,1.85-6.63,4c-1.35,1.69-2.09,3.65-2.43,5.78c-0.58,3.64-0.42,7.19,1.12,10.61
				c0.47,1.05,0.96,2.13,1.24,3.24c0.69,2.82,0.74,5.66,0.02,8.5c-0.17,0.66-0.35,1.32-0.5,1.98c-0.06,0.25-0.14,0.55,0.35,0.68
				c0.14-0.13,0.37-0.26,0.52-0.47c1.33-1.86,1.75-4.01,1.57-6.21c-0.2-2.3-0.66-4.58-1.04-6.87c-0.09-0.53-0.35-1.03-0.51-1.55
				c-0.42-1.29-0.86-2.58-1.23-3.89c-0.53-1.86-0.8-3.73-0.02-5.61c0.15-0.37,0.19-0.79,0.26-1.2c0.3-1.73,1.42-3.08,2.15-4.61
				c0.11-0.23,0.37-0.39,0.57-0.57c2.25-1.99,4.93-2.88,7.87-2.93c3.38-0.07,6.5,0.7,8.9,3.32C313.56,57.21,314.14,57.77,315,58.64z
				 M209.9,56.79c-1.56,1.61-3.14,3.2-4.68,4.83c-1.21,1.28-2.59,2.4-3.49,3.97c-0.22,0.39-0.64,0.73-1.05,0.95
				c-1.22,0.66-1.86,1.75-2.38,2.95c-0.68,1.56-1.38,3.11-2.01,4.68c-0.16,0.39-0.52,0.84-0.15,1.33c0.14,0.02,0.32,0.09,0.38,0.04
				c3.44-3.1,6.6-6.47,9.2-10.31C207.45,62.64,208.78,59.82,209.9,56.79z M181.3,203.23c1.47-1.45,2.48-2.89,3.57-4.28
				c1.7-2.15,3.17-4.43,4.65-6.72c1.29-2,2.56-4.01,3.27-6.31c0.2-0.65,0.47-1.29,0.58-1.95c0.29-1.67,0.53-3.36,0.75-5.05
				c0.04-0.27,0.15-0.67-0.39-0.89c-0.21,0.41-0.46,0.8-0.62,1.22c-0.95,2.4-1.85,4.83-3.28,7.01c-0.18,0.28-0.28,0.62-0.43,0.92
				c-1.48,2.91-3.04,5.8-4.44,8.75c-1.08,2.28-2.38,4.43-3.59,6.63C181.33,202.67,181.35,202.81,181.3,203.23z M288.92,13.38
				c-0.19-0.29-0.26-0.54-0.41-0.59c-1.34-0.49-2.66-1.09-4.04-1.37c-3.01-0.61-6.06-0.77-9.14-0.44c-3.16,0.34-6.05,1.5-8.97,2.61
				c-0.25,0.09-0.48,0.26-0.67,0.45c-0.18,0.19-0.61,0.25-0.49,0.64c2.67-0.45,5.27-0.96,7.89-1.32c1.95-0.27,3.91-0.42,5.89-0.18
				c1.89,0.23,3.8,0.35,5.7,0.49c0.95,0.07,1.9,0.13,2.86,0.1C287.98,13.77,288.41,13.54,288.92,13.38z M235.88,223.28
				c-0.4,0.36-0.4,0.7-0.45,1.03c-0.35,2.35-0.65,4.71-1.26,7.02c-0.56,2.1-1.25,4.18-1.45,6.36c-0.18,2.03-0.33,4.07-0.42,6.1
				c-0.04,0.83,0.28,1.58,1.01,2.14c0.79-0.4,1.32-1.01,1.66-1.45c-0.08-2.46-0.19-4.7-0.2-6.94c-0.01-1.22,0.01-2.47,0.26-3.66
				c0.53-2.48,0.79-4.99,1-7.5C236.12,225.41,236.2,224.4,235.88,223.28z M175.16,245.55c0.42-0.78,0.22-1.39,0-2.03
				c-0.21-0.64-0.44-1.3-0.49-1.96c-0.12-1.62-0.16-3.26-0.22-4.88c-0.05-1.35-0.1-2.71-0.11-4.06c-0.01-1.15,0.09-2.31,0.03-3.45
				c-0.14-2.38-0.05-4.74,0.43-7.08c0.07-0.35,0.01-0.74,0.01-1.15c-0.21,0.07-0.29,0.07-0.33,0.11c-0.09,0.1-0.2,0.2-0.24,0.32
				c-0.94,2.86-1.58,5.77-1.37,8.81c0.03,0.47-0.02,0.95-0.04,1.43c-0.17,3.4-0.02,6.77,1.07,10.03c0.15,0.45,0.14,0.95,0.29,1.39
				C174.48,243.83,174.43,244.77,175.16,245.55z M228.27,250.27c-0.27-0.78-0.57-1.47-0.76-2.18c-0.57-2.11-0.83-4.24-0.74-6.46
				c0.1-2.59,0.16-5.21,0.78-7.71c0.56-2.24,1-4.52,1.71-6.71c0.49-1.5,0.67-3.05,0.92-4.59c0.03-0.21-0.04-0.43-0.12-1.06
				c-0.31,0.68-0.46,0.98-0.59,1.28c-0.89,2.08-1.06,4.35-1.68,6.51c-0.98,3.41-1.66,6.89-1.93,10.43c-0.22,2.93-0.18,5.86,0.3,8.76
				c0.13,0.79,0.52,1.53,0.81,2.29c0.03,0.08,0.22,0.1,0.43,0.19C227.66,250.8,227.95,250.54,228.27,250.27z M182.11,214.16
				c0.26-0.18,0.47-0.26,0.57-0.41c1.34-2.06,2.65-4.13,3.98-6.19c0.48-0.75,0.94-1.51,1.47-2.22c1.89-2.52,3.48-5.21,4.68-8.12
				c0.12-0.28,0.33-0.61-0.17-0.87c-0.64,0.5-1.08,1.19-1.51,1.88c-0.44,0.69-0.86,1.39-1.3,2.07c-1.99,3.09-4.04,6.14-5.96,9.28
				c-0.74,1.21-1.16,2.6-1.71,3.92C182.08,213.66,182.12,213.86,182.11,214.16z M283.51,24.95c0.61-0.03,0.87,0,1.09-0.07
				c1.49-0.47,2.96-1.04,4.47-1.42c4.62-1.17,9.29-2.11,14.09-2.13c0.27,0,0.56,0.02,0.81-0.07c0.74-0.27,1.47-0.15,2.21-0.03
				c0.17,0.03,0.36-0.08,0.95-0.24c-0.81-0.21-1.23-0.39-1.67-0.43c-4.16-0.42-8.29-0.32-12.37,0.69
				C289.87,22.05,286.67,22.92,283.51,24.95z M312.44,42.44c-0.14,0.06-0.28,0.11-0.42,0.17c0.08,0.38,0.12,0.78,0.26,1.14
				c1.11,2.96,1.59,6.05,1.89,9.17c0.07,0.73,0.57,1.15,1.39,1.17c0.44,0.01,0.83-0.29,0.84-0.71c0.02-0.41-0.01-0.82-0.05-1.22
				c-0.21-1.99-0.87-3.86-1.66-5.67C314.09,45.08,313.32,43.71,312.44,42.44z M186.91,80.47c1.64-1.72,2.43-3.69,3.66-5.37
				c1.54-2.1,1.91-4.72,3.19-7.3c-0.53,0.2-0.83,0.22-0.95,0.38c-0.79,1.01-1.64,2-2.28,3.11c-0.88,1.52-1.63,3.12-2.35,4.72
				c-0.5,1.1-0.86,2.27-1.25,3.42C186.85,79.66,186.91,79.94,186.91,80.47z M333.07,40.05c-0.09,0.25-0.24,0.44-0.2,0.6
				c0.61,3,1.22,6,1.86,9c0.08,0.39,0.25,0.78,0.45,1.13c0.07,0.13,0.35,0.25,0.51,0.22c0.16-0.03,0.32-0.22,0.44-0.37
				c0.08-0.1,0.09-0.25,0.12-0.38c0.23-1.15,0.23-2.26-0.12-3.42c-0.55-1.83-1.04-3.67-1.86-5.4C334,40.89,333.78,40.3,333.07,40.05
				z M297.29,50.73c0.89-0.67,1.01-1.32,0.96-2.02c-0.07-0.88-0.15-1.76-0.24-2.63c-0.27-2.69-1.84-4.6-3.8-6.26
				c-0.41-0.35-0.88-0.3-1.22,0.32c1.44,1.27,2.37,2.89,3.14,4.66C296.93,46.62,296.89,48.59,297.29,50.73z M221.95,233.25
				c-0.29,0.73-0.46,1.02-0.53,1.34c-0.33,1.66-0.73,3.32-0.93,5c-0.28,2.37-0.34,4.75,0.02,7.13c0.06,0.38,0.05,0.85,0.67,0.94
				c0.52-1.53,0-3.1,0.15-4.64c0.15-1.55,0.13-3.12,0.22-4.67C221.64,236.79,221.79,235.26,221.95,233.25z M295.7,10.08
				c1.68,2.06,3.08,3.77,4.53,5.55c0.54,0,1.13,0,1.74,0c-0.34-1.26-0.34-1.26-1.02-1.95C299.39,12.09,297.31,10.6,295.7,10.08z
				 M220.78,31.64c-0.93,0.28-1.56,0.74-1.88,1.34c-0.67,1.28-1.7,2.26-2.49,3.43c-0.44,0.65-0.94,1.28-1.19,2.35
				c0.95-0.53,1.7-0.92,2.41-1.36c0.22-0.13,0.38-0.39,0.51-0.62c0.81-1.41,1.6-2.82,2.39-4.24
				C220.64,32.34,220.66,32.07,220.78,31.64z M301.22,56.37c2.08-0.45,3.76-0.19,5.44-0.08c1.46,0.09,2.81,0.5,3.95,1.48
				c0.26,0.22,0.55,0.41,0.84,0.58c0.07,0.04,0.21-0.06,0.43-0.13c-1.35-1.78-3.2-2.54-5.27-2.79
				C304.9,55.22,303.12,54.94,301.22,56.37z M256.53,13.96c0.5-0.69,1.49-0.92,1.97-1.92c-1.62-0.34-3.09-0.89-4.66-0.84
				c-0.25,0.01-0.55,0-0.52,0.3C254.38,12.3,255.38,13.07,256.53,13.96z M308.07,11.83c-0.04,0.27-0.11,0.42-0.06,0.51
				c0.72,1.3,1.45,2.6,2.2,3.89c0.49,0.85,1.26,0.83,2.49,0.65C311.16,14.95,310.01,13.11,308.07,11.83z M286.48,46.07
				c-0.7,1.83-0.02,3.38,1.01,5.2C287.55,49.25,287.42,47.59,286.48,46.07z M218.91,145.13c0.05-2.65-0.21-3.91-1-4.95
				c-0.45,0.51-0.52,1.11-0.41,1.68C217.72,142.98,218.25,143.96,218.91,145.13z M305.84,49.96c0.52,0.48,0.96,0.63,1.43,0.12
				c0.07-0.91-0.01-1.75-0.72-2.65C306.29,48.37,306.06,49.18,305.84,49.96z M244.3,93.95c1.58-0.13,2.84-0.96,4.06-1.9
				C247.01,92.68,245.43,92.77,244.3,93.95z M238.92,96.15c0.05,0.03,0.13,0.1,0.16,0.09c0.22-0.11,0.44-0.24,0.65-0.37
				c0.01,0-0.04-0.1-0.06-0.15c-0.22,0.09-0.45,0.18-0.67,0.28C238.95,96.01,238.94,96.09,238.92,96.15z M201.46,168.3
				c-0.04-0.05-0.08-0.11-0.11-0.16c-0.05,0.11-0.11,0.21-0.14,0.33c-0.01,0.04,0.07,0.11,0.11,0.16
				C201.36,168.52,201.41,168.41,201.46,168.3z M239.07,20.76c-0.11-0.03-0.17-0.04-0.23-0.06c0.01,0.04,0.02,0.11,0.03,0.11
				C238.92,20.81,238.96,20.79,239.07,20.76z"/>
			<path d="M329.34,211.55c0.21,0.61,0.33,0.96,0.47,1.37c-2.22,0.78-4.33,1.52-6.44,2.27c-1.16,0.41-2.32,0.8-3.45,1.27
				c-0.42,0.17-0.87,0.46-1.14,0.81c-1.51,2.01-3.05,4.02-4.43,6.12c-1.54,2.34-3.27,4.53-5,6.72c-1.05,1.33-2.27,2.54-3.45,3.77
				c-0.67,0.69-1.43,1.23-2.43,1.41c-1.34,0.24-2.65,0.64-3.98,0.87c-1.68,0.28-3.37,0.53-5.07,0.65
				c-3.52,0.25-6.94-0.36-10.24-1.52c-1.93-0.67-3.82-1.48-5.65-2.38c-2.44-1.2-4.29-3.15-5.87-5.31c-2.17-2.97-4.24-6.02-6.33-9.05
				c-0.5-0.73-0.92-1.52-1.33-2.3c-1.19-2.28-2.97-4.05-4.98-5.6c-0.75-0.58-1.61-1.01-2.53-1.58c-0.29,0.17-0.61,0.39-0.96,0.55
				c-0.23,0.1-0.61-0.23-0.54-0.45c0.26-0.77,0.54-1.53,1.4-2.04c0.33,0.17,0.7,0.32,1.04,0.53c2.92,1.81,6.16,2.48,9.53,2.68
				c2.67,0.15,5.32-0.09,7.95-0.5c3.31-0.51,6.65-0.54,9.98-0.72c0.38-0.02,0.8,0.11,1.15,0.28c1.4,0.7,2.77,1.45,4.16,2.17
				c2.27,1.16,4.43,0.89,6.58-0.41c1.45-0.87,2.99-1.63,4.54-2.33c1.15-0.52,2.36-0.56,3.58-0.05c1.07,0.45,2.18,0.77,3.26,1.2
				c2.1,0.83,4.29,1.32,6.48,1.85c2.41,0.58,4.85,0.69,7.29,0.93C325.06,212.99,327.16,212.81,329.34,211.55z M273.81,217.28
				c0.61,1.4,0.86,1.74,1.82,2.59c1.34,1.19,2.86,2.08,4.46,2.87c2.77,1.36,5.67,2.37,8.65,3.1c2.45,0.6,4.99,0.96,7.5,0.46
				c2.81-0.55,5.54-1.47,8.1-2.76c1.73-0.86,3.12-2.19,4.21-3.81c0.31-0.46,0.6-0.93,0.18-1.62c-1.81-0.15-3.69-0.3-5.49-0.45
				c-0.47,0.6-0.83,1.06-1.27,1.62c-0.4-0.43-0.71-0.75-1.08-1.14c-0.58,0.21-1.15,0.42-1.72,0.61c-1.23,0.39-2.45,0.87-3.72,1.12
				c-0.92,0.18-1.66,0.48-2.21,1.23c-0.05,0.07-0.25,0.03-0.37,0.03c-0.78-1.2-0.78-1.17-2-1.36c-0.87-0.14-1.72-0.36-2.57-0.6
				c-0.78-0.22-1.54-0.51-2.27-0.75c-0.47,0.46-0.83,0.82-1.34,1.33c-0.19-0.48-0.29-0.78-0.43-1.07c-0.15-0.3-0.33-0.59-0.52-0.94
				C280.48,217.59,277.23,217.44,273.81,217.28z M286.23,231.07c1.13-0.21,2.26-0.38,3.37-0.65c0.82-0.2,1.01-0.79,0.65-1.57
				c-0.35-0.78-0.94-1.39-1.72-1.65c-1.6-0.54-3.22-1.03-4.87-1.37c-0.76-0.16-1.63-0.04-2.41,0.13c-0.98,0.21-1.35,1.25-0.81,2.07
				c0.26,0.39,0.57,0.76,0.93,1.06C282.78,230.24,284.35,230.97,286.23,231.07z M299.33,234.59c0.36-0.03,0.98-0.03,1.58-0.13
				c0.88-0.15,1.72-0.4,2.45-0.96c0.95-0.74,0.88-1.74-0.19-2.25c-0.3-0.14-0.65-0.21-0.98-0.26c-0.47-0.07-0.96-0.04-1.42-0.13
				c-1.73-0.36-3.38,0.22-5.07,0.35c-0.13,0.01-0.26,0.09-0.38,0.14c-0.55,0.24-0.85,0.66-0.91,1.26c-0.05,0.55,0.23,0.99,0.87,1.24
				C296.5,234.33,297.76,234.61,299.33,234.59z M287.54,211.69c-0.1-0.21-0.16-0.53-0.34-0.67c-1.18-0.83-2.5-1-3.87-0.65
				c-0.52,0.13-0.65,0.88-0.31,1.36c0.62,0.87,1.54,1.03,2.51,1.12C286.45,212.93,287.09,212.56,287.54,211.69z M278.51,211.96
				c-0.24-1-0.79-1.35-1.65-1.23c-1.07,0.15-2.13,0.28-3.19,0.45c-0.21,0.04-0.4,0.24-0.65,0.41c1.05,0.9,2.23,0.9,3.34,1.03
				C277.06,212.71,277.82,212.59,278.51,211.96z M301.68,211.17c0.6,0.73,1.3,0.85,2.06,0.77c1.15-0.12,1.9-0.48,2.72-1.38
				c-0.87-0.36-1.69-0.56-2.55-0.48C303.12,210.15,302.28,210.23,301.68,211.17z"/>
			<path d="M274.87,136.76c0.4,0.6,0.62,1.01,0.91,1.36c0.79,0.94,1.62,1.85,2.42,2.78c0.4,0.46,0.83,0.92,1.15,1.43
				c0.65,1.05,0.3,1.83-0.94,2.06c-0.73,0.14-1.49,0.19-2.23,0.23c-1.63,0.08-3.3,0.35-4.9,0.15c-1.78-0.23-3.34,0.31-4.99,0.64
				c-2.14,0.43-4.31,0.69-6.5,0.25c-0.73-0.15-1.49-0.17-2.24-0.17c-2.82,0.01-5.56-0.47-8.26-1.26c-1.83-0.54-3.69-0.97-5.52-1.5
				c-3.88-1.13-6.87-3.54-9.38-6.62c-0.3-0.36-0.61-0.71-0.92-1.06c-0.04-0.04-0.13-0.03-0.35-0.07c0.08,0.42,0.02,0.89,0.23,1.14
				c1.69,2.13,3.26,4.38,5.75,5.7c0.06,0.03,0.13,0.06,0.17,0.11c1.63,1.82,3.92,2.49,6.09,3.16c3.04,0.93,6.12,1.88,9.38,1.81
				c0.23-0.01,0.47,0.18,0.71,0.28c-0.24,0.67-0.75,0.74-1.2,0.65c-1.6-0.31-3.25-0.34-4.82-0.86c-1.03-0.34-2.16-0.4-3.16-0.8
				c-2.39-0.94-4.95-1.57-6.94-3.37c-0.25-0.23-0.57-0.37-0.85-0.57c-2.86-1.98-5.13-4.5-6.59-7.65c-0.65-1.4-1-2.96-1.38-4.47
				c-0.18-0.71-0.43-1.26-1.05-1.65c-0.69-0.44-1.35-0.93-2.01-1.42c-0.21-0.16-0.45-0.37-0.51-0.6c-0.06-0.22,0.04-0.53,0.17-0.73
				c0.08-0.12,0.36-0.18,0.54-0.16c0.19,0.02,0.37,0.15,0.55,0.25c2.42,1.38,5.06,2.02,7.81,2.18c1.97,0.11,3.93,0.45,5.91,0.13
				c4.95,0.43,9.96,0.25,14.87,1.13c1.14,0.21,2.27,0.47,3.38,0.81c4.04,1.23,8.23,2,12.09,3.76c3.29,1.49,6.45,3.26,9.24,5.6
				c0.21,0.17,0.42,0.34,0.62,0.53c0.45,0.44,0.56,1.07,0.23,1.22c-0.47,0.21-0.83-0.11-1.04-0.4c-1.37-1.93-3.58-2.66-5.46-3.87
				C275.68,136.75,275.38,136.81,274.87,136.76z M274.8,138.89c-0.39-0.72-0.68-1.34-1.06-1.9c-0.42-0.61-0.34-1.52-1.1-1.9
				c-0.67-0.33-1.37-0.61-2.07-0.88c-0.51-0.19-1.03-0.37-1.56-0.47c-0.37-0.07-0.76-0.01-1.18-0.01c-0.09,0.43-0.18,0.76-0.22,1.09
				c-0.49,3.5-2.41,5.88-5.72,7.05c-1.83,0.65-3.76,0.78-5.63,0.17c-1.37-0.44-2.65-1.18-3.66-2.19c-2.2-2.21-3.78-4.7-2.8-8.05
				c0.04-0.12-0.02-0.27-0.04-0.53c-0.94-0.36-1.98-0.22-2.97-0.17c-3.97,0.19-7.91,0.14-11.81-0.74c-0.53-0.12-1.06-0.25-1.6-0.32
				c-0.29-0.04-0.6,0.05-1.02,0.1c0.57,1.78,1.11,3.38,2.28,4.67c0.6,0.66,1.24,1.28,1.8,1.96c1.88,2.29,4.31,3.75,7.08,4.64
				c2.01,0.64,4.08,1.1,6.09,1.73c2.56,0.8,5.19,1.05,7.85,1.19c0.89,0.05,1.77,0.09,2.65,0.2c5.61,0.69,10.33-1.11,14.32-5.02
				C274.55,139.36,274.63,139.16,274.8,138.89z M254.13,132.76c-0.66,0.04-0.89,0.52-1.02,1.05c-0.42,1.73-0.21,3.37,0.78,4.88
				c0.38,0.58,0.79,1.11,1.45,1.39c1.77,0.74,3.59,0.75,5.41,0.28c0.51-0.13,1.05-0.39,1.43-0.75c1.21-1.13,2.18-2.44,2.44-4.14
				c0.03-0.17-0.06-0.35-0.12-0.68c-0.45,0.6-0.76,1.13-1.18,1.55c-0.48,0.47-1.02,0.92-1.61,1.23c-1.21,0.65-2.51,1.23-3.89,0.81
				c-1.18-0.35-2.18-1.12-2.93-2.13c-0.69-0.92-0.86-1.98-0.61-3.11C254.29,133.04,254.18,132.91,254.13,132.76z M278.26,143.05
				c-0.39-1.32-1.45-1.95-2.34-2.78c-1.37,0.79-2.84,1.34-3.6,3.07c1.77,0.05,3.37,0.23,4.97,0.1
				C277.6,143.42,277.89,143.2,278.26,143.05z M262.75,132.3c-0.69-0.18-1.47-0.41-2.26-0.59c-0.6-0.13-1.05,0.22-1.16,0.84
				c-0.11,0.57,0.01,1.08,0.42,1.5c0.74,0.77,1.84,0.92,2.78,0.36c0.16-0.1,0.32-0.28,0.38-0.45
				C263.09,133.43,263.19,132.9,262.75,132.3z"/>
			<path d="M265.06,119.34c0.28-0.91-0.56-1.57-0.7-2.64c1.01,0.68,1.32,1.57,1.8,2.33c0.27,0.42,0.34,1.03,1.01,1.08
				c0,0.11,0,0.23,0,0.34c0.08-0.04,0.16-0.08,0.24-0.11c-0.09-0.06-0.18-0.13-0.28-0.19c-0.09-0.53-0.12-1.07-0.28-1.58
				c-0.21-0.7-0.51-1.37-0.56-2.18c0.13,0.18,0.3,0.34,0.4,0.54c0.93,1.74,1.86,3.48,2.78,5.23c0.25,0.48,0.47,1-0.22,1.51
				c-0.35-0.41-0.69-0.8-1.02-1.19c-0.31,0.14-0.6,0.28-0.95,0.44c-1.47-1.51-3.48-1.59-5.37-2c-0.46-0.1-0.94-0.14-1.4-0.24
				c-0.79-0.17-1.58-0.36-2.38-0.53c-0.2-0.04-0.41-0.05-0.6-0.12c-4.05-1.41-8.23-2.35-12.4-3.29c-1.98-0.45-4.05-0.52-6.09-0.68
				c-2.39-0.19-4.77-0.07-7.14,0.36c-1.81,0.34-3.64,0.59-5.45,0.9c-1.28,0.22-2.53,0.52-3.74,1.03c-0.55,0.23-1.14,0.48-1.81-0.08
				c0.4-1.15,1.33-1.82,2.34-2.36c1.33-0.71,2.76-1.19,4.25-1.41c2.09-0.32,4.19-0.55,6.28-0.82c0.14-0.02,0.28,0,0.41-0.04
				c2.96-0.82,5.96-0.53,8.95-0.39c1.02,0.05,2.05,0.06,3.07,0.07c2.06,0.03,4.07,0.22,5.82,1.68c-0.13-0.39-0.26-0.78-0.39-1.19
				c0.89-0.17,1.06,0.88,1.88,0.87c-0.05-0.35-0.1-0.7-0.19-1.37c0.96,1.05,1.71,1.87,2.73,2.97c-0.09-0.73-0.13-1.06-0.19-1.55
				c1.13,0.69,1.46,2.06,2.78,2.61c-0.05-0.83-0.55-1.31-0.89-1.86c-0.36-0.57-0.74-1.13-1.18-1.78c0.71-0.18,0.89,0.37,1.22,0.64
				c0.41,0.34,0.82,0.68,1.23,1.02c0.79-0.37,1.09,0.24,1.45,0.72c0.78,1.04,1.54,2.09,2.32,3.12c0.2,0.26,0.45,0.48,0.66,0.7
				c0.41-0.25,0.29-0.5,0.16-0.74c-0.62-1.14-1.25-2.27-1.87-3.41c-0.15-0.28-0.25-0.58-0.17-1c0.18,0.16,0.4,0.3,0.54,0.5
				c0.7,1.01,1.36,2.05,2.06,3.05c0.26,0.37,0.61,0.68,0.92,1.02c0.02,0.12,0.04,0.24,0.06,0.36c0.07-0.06,0.13-0.11,0.2-0.17
				C265.27,119.43,265.16,119.38,265.06,119.34z"/>
			<path d="M285.24,193.56c-1.1,0.22-2.09,0.44-3.09,0.61c-0.39,0.07-0.82,0.06-1.21-0.01c-0.7-0.13-1.14-0.87-1-1.55
				c0.32-1.59,1.63-2.11,2.92-1.82c0.71,0.16,1.42,0.53,2.01,0.96c0.94,0.68,1.83,1.43,2.65,2.24c2.45,2.4,5.46,3.23,8.78,3.18
				c1.99-0.03,3.64-1.03,5.31-1.97c0.95-0.53,1.9-1.08,2.86-1.59c1-0.54,2.09-0.63,3.19-0.47c0.39,0.06,0.79,0.22,1.11,0.45
				c1.14,0.81,1.11,1.56-0.01,2.38c-0.7,0.51-1.41,0.82-2.28,0.52c-0.26-0.09-0.53-0.13-0.8-0.17c-1.77-0.24-3.54-0.47-5.01,0.91
				c-4.42,2.13-8.59,1.59-12.53-1.19c-0.55-0.39-1.02-0.91-1.53-1.35C286.15,194.3,285.68,193.92,285.24,193.56z"/>
			<path d="M277.14,180.85c-0.08,1.06-0.67,1.56-1.09,2.13c-0.36,0.49-0.85,0.9-1.17,1.41c-1.34,2.12-1.77,4.47-1.11,6.86
				c0.64,2.35,2.48,3.65,4.71,4.43c0.38,0.13,0.78,0.2,1.16,0.31c0.05,0.01,0.08,0.11,0.15,0.21c-0.09,0.14-0.19,0.42-0.31,0.43
				c-0.53,0.05-1.13,0.18-1.6-0.01c-3.05-1.21-5.26-3.46-5.52-6.92c-0.19-2.44,0.46-4.62,1.85-6.53
				C274.88,182.24,275.91,181.55,277.14,180.85z"/>
			<path d="M285.38,129.69c1.75,0.63,2.72,1.74,2.99,3.44c0.28,1.75,0.61,3.5,0.75,5.26c0.24,2.92,0.52,5.84,0.28,8.79
				c-0.09,1.15-0.33,2.24-0.76,3.32c-0.05-2.65-0.01-5.31-0.16-7.95c-0.16-2.79-0.3-5.59-0.96-8.33c-0.28-1.17-0.69-2.2-1.62-2.99
				c-0.25-0.22-0.5-0.48-0.64-0.78C285.19,130.27,285.33,129.99,285.38,129.69z"/>
			<path d="M307.89,146.33c-0.12-1.1-0.29-2.18-0.34-3.26c-0.06-1.29-0.11-2.59,0.01-3.87c0.17-1.89,0.31-3.81,1.11-5.58
				c0.28-0.61,0.46-1.3,1.21-1.54c0.33,0.42,0.06,0.78-0.09,1.15c-0.92,2.16-1.32,4.43-1.45,6.75c-0.07,1.29-0.17,2.57,0.01,3.87
				C308.47,144.68,308.54,145.6,307.89,146.33z"/>
			<path d="M291.59,203.08c0.11,1.09,0.22,2.15,0.33,3.21c0.19,1.82,1.02,3.08,2.97,3.35c0.15,0.02,0.28,0.22,0.45,0.35
				c-1.07,0.56-1.94,0.48-2.77-0.2c-0.89-0.73-1.38-1.7-1.56-2.8c-0.19-1.21-0.19-2.44,0.22-3.63
				C291.28,203.26,291.44,203.2,291.59,203.08z"/>
			<path d="M271.65,124.92c-0.26-0.04-0.58-0.03-0.61-0.11c-0.84-2.33-2.02-4.54-2.45-7.3c0.32,0.26,0.49,0.34,0.55,0.46
				c0.7,1.39,1.37,2.8,2.08,4.18C271.67,123.02,271.84,123.91,271.65,124.92z"/>
			<path d="M270.88,117.82c0.16,0.06,0.25,0.07,0.27,0.1c1.11,2.33,1.95,4.75,2.33,7.31c0.02,0.14-0.14,0.4-0.29,0.47
				c-0.3,0.15-0.54-0.05-0.6-0.33C272.01,122.87,271.45,120.37,270.88,117.82z"/>
			<path d="M279.15,122.93c0.61,1.24,0.84,2.56,0.95,3.89c0.07,0.87,0.06,1.76,0,2.64c-0.03,0.38-0.21,0.81-0.93,0.65
				c0.09-1.16,0.26-2.36,0.25-3.54C279.42,125.35,279.25,124.14,279.15,122.93z"/>
			<path d="M276.01,128.65c-0.31-2.78-0.57-5.13-0.83-7.5c0.16,0.04,0.34,0.05,0.35,0.1c0.4,1.72,0.8,3.45,1.15,5.18
				c0.09,0.45,0.04,0.95-0.03,1.41C276.62,128.04,276.37,128.21,276.01,128.65z"/>
			<path d="M277.42,122.51c0.53,1.43,1.02,4.07,0.95,5.04c-0.03,0.33-0.07,0.68-0.2,0.98c-0.09,0.22-0.32,0.41-0.53,0.53
				c-0.21,0.12-0.37-0.32-0.34-0.77c0.06-0.87,0.1-1.74,0.12-2.61C277.44,124.69,277.42,123.68,277.42,122.51z"/>
			<path d="M282.02,123.55c0.25,2.37,0.58,4.8-0.48,7.11c-0.06,0.12-0.33,0.14-0.62,0.25c-0.24-0.92,0.4-1.59,0.49-2.34
				c0.1-0.87,0.21-1.74,0.32-2.62C281.82,125.16,281.92,124.36,282.02,123.55z"/>
			<path d="M274.89,126.49c-0.32-0.11-0.42-0.12-0.44-0.16c-0.09-0.18-0.19-0.37-0.22-0.56c-0.29-2.06-0.56-4.13-0.74-6.2
				C274.37,121.76,275.32,123.93,274.89,126.49z"/>
		</g>
		<path d="M226.54,249.64c-1.45-0.45-2.26-1.65-3.23-2.75c1.51,0.88,2.33,1.61,3.18,2.8C226.49,249.69,226.54,249.64,226.54,249.64z
			"/>
	</g>
	<text transform="matrix(1 0 0 1 109.5417 416.1714)"><tspan x="0" y="0" class="st5 st6">Touch Up</tspan><tspan x="84.71" y="72.04" class="st5 st6">Day</tspan></text>
</g>
<g id="Layer_7">
</g>
</svg>
